<svg width="302" height="302" viewBox="0 0 302 302" fill="none" xmlns="http://www.w3.org/2000/svg">
<g filter="url(#filter0_d)">
<circle cx="151" cy="151" r="119" fill="white"/>
</g>
<path d="M197.714 103.05C197 102.774 196.429 102.497 196.143 101.943C195.286 100.56 196.429 98.6226 196.429 96.9623C196.429 95.3019 195.429 93.3648 196.143 91.9811C197 90.5975 199.286 90.5975 200.714 89.7673C202.143 88.9371 203.286 87 205 87C206.714 87 207.857 88.9371 209.286 89.6289C210.714 90.4591 213 90.5975 213.857 91.9811C214.571 93.2264 213.571 95.1635 213.571 96.8239C213.571 98.4843 214.571 100.421 213.857 101.805C213.571 102.358 213 102.774 212.286 102.912L215 106.371L211.571 105.956L210.714 109L207.714 105.403C206.857 106.094 206 106.925 205 106.925C204 106.925 203.143 106.233 202.286 105.403L199.429 109L198.571 106.094L195 106.371L197.714 103.05Z" fill="#00C6EC"/>
<path d="M87.138 93.7637C87.138 93.7011 87.1327 93.6433 87.1327 93.5807C87.1327 91.0678 89.3496 89.0363 92.08 89.0363C92.3473 89.0363 92.6093 89.0556 92.8608 89.0941C93.7465 87.8328 95.2821 87 97.0325 87C98.7043 87 100.187 87.7654 101.084 88.9304C101.828 88.5212 102.692 88.2853 103.62 88.2853C106.356 88.2853 108.567 90.3217 108.567 92.8298C110.559 93.4219 112 95.1405 112 97.1624C112 98.6499 111.224 99.9689 110.019 100.797C109.925 103.233 107.75 105.182 105.072 105.182C104.731 105.182 104.401 105.149 104.081 105.091V109H101.974C101.974 109 101.65 106.396 99.3908 104.075C98.8615 103.531 98.0963 103.242 97.305 103.242H97.2945C95.303 103.242 93.5369 102.361 92.4311 100.999C91.8861 101.158 91.3044 101.23 90.7017 101.201C88.1285 101.086 86.0584 99.1313 86.0007 96.7628C85.9798 95.6219 86.4095 94.5772 87.138 93.7637Z" fill="#00C6EC"/>
<path d="M201.872 205.342C201.234 205.053 200.776 204.455 200.627 203.744C200.592 203.583 200.574 203.412 200.574 203.241V202.862C200.271 202.862 199.998 202.725 199.809 202.506C199.655 203.241 199.519 204.422 199.519 206.276C199.519 206.703 199.488 207.087 199.431 207.442C198.89 210.875 196 211.207 196 211.207C196 211.207 196.704 206.987 196.704 203.621C196.704 200.899 198.085 200.098 199.171 199.894C199.145 199.719 199.237 199.538 199.395 199.472C199.453 199.448 199.514 199.444 199.567 199.453C199.022 194.963 202.703 193 203.741 193C204.884 193 205.5 193.379 205.5 193.379C205.5 193.379 206.116 193 207.259 193C207.404 193 207.594 193.038 207.822 193.114C209.234 193.588 211.908 195.579 211.429 199.453C211.486 199.444 211.543 199.448 211.6 199.472C211.763 199.534 211.855 199.714 211.825 199.894C212.915 200.098 214.296 200.899 214.296 203.621C214.296 206.987 215 211.207 215 211.207C215 211.207 211.481 210.804 211.481 206.276C211.481 204.417 211.345 203.241 211.191 202.506C210.998 202.725 210.725 202.862 210.426 202.862V203.241C210.426 204.161 209.911 204.991 209.128 205.342L207.611 206.025V207.248C207.611 207.267 207.611 207.286 207.611 207.305C207.611 207.309 207.611 207.319 207.611 207.324C207.611 207.338 207.616 207.347 207.616 207.362C207.616 207.371 207.616 207.376 207.62 207.381C207.62 207.39 207.624 207.404 207.624 207.414C207.624 207.423 207.629 207.428 207.629 207.438C207.633 207.447 207.633 207.456 207.638 207.471C207.638 207.475 207.642 207.485 207.642 207.49C207.646 207.504 207.651 207.518 207.655 207.528C207.659 207.537 207.664 207.551 207.668 207.561C207.673 207.57 207.677 207.575 207.677 207.584C207.681 207.594 207.686 207.603 207.69 207.613C207.695 207.618 207.695 207.627 207.699 207.632C207.703 207.641 207.708 207.651 207.717 207.66C207.721 207.665 207.721 207.67 207.725 207.675C207.73 207.684 207.739 207.694 207.743 207.703C207.747 207.708 207.747 207.708 207.752 207.712C207.778 207.746 207.805 207.779 207.835 207.812C207.844 207.822 207.857 207.831 207.866 207.841L207.871 207.845C207.879 207.855 207.893 207.864 207.901 207.869C207.901 207.869 207.906 207.869 207.906 207.874C207.919 207.883 207.928 207.893 207.941 207.897C207.985 207.926 208.033 207.95 208.082 207.969L209.568 208.556C209.577 208.542 209.581 208.528 209.59 208.519C209.599 208.509 209.608 208.495 209.617 208.485C209.617 208.485 209.617 208.485 209.621 208.481C209.63 208.471 209.643 208.462 209.652 208.457C209.652 208.457 209.652 208.457 209.656 208.457C209.678 208.443 209.705 208.433 209.731 208.428C209.731 208.428 209.731 208.428 209.735 208.428C209.749 208.428 209.762 208.428 209.775 208.428H209.779C209.793 208.428 209.806 208.433 209.819 208.433H209.823C209.837 208.438 209.85 208.443 209.863 208.447L210.553 208.822C211.094 209.111 211.438 209.59 211.552 210.145C211.552 210.15 211.556 210.154 211.556 210.164C211.561 210.178 211.561 210.197 211.565 210.211C211.569 210.244 211.574 210.273 211.578 210.306L211.789 211.999L211.816 212.203C211.873 212.193 211.926 212.207 211.97 212.241C211.978 212.25 211.992 212.255 212 212.264C212 212.264 212 212.264 212.005 212.269C212.014 212.278 212.022 212.288 212.031 212.297C212.031 212.297 212.031 212.302 212.036 212.302C212.044 212.312 212.049 212.326 212.053 212.335V212.34C212.058 212.354 212.062 212.364 212.066 212.378L212.141 212.629C212.15 212.653 212.15 212.681 212.15 212.705C212.15 212.814 212.084 212.909 211.983 212.942L211.481 213.099V214.241C211.481 214.659 211.165 215 210.778 215H209.353H201.612H200.222C199.835 215 199.519 214.659 199.519 214.241V213.108L198.982 212.938C198.942 212.923 198.912 212.904 198.885 212.876C198.876 212.866 198.868 212.852 198.859 212.843C198.859 212.843 198.859 212.838 198.854 212.838C198.854 212.833 198.85 212.833 198.85 212.828C198.846 212.824 198.846 212.819 198.841 212.819C198.837 212.809 198.832 212.795 198.828 212.781C198.819 212.757 198.815 212.729 198.815 212.7C198.815 212.677 198.819 212.653 198.824 212.625L198.89 212.378C198.894 212.364 198.898 212.354 198.903 212.34C198.903 212.34 198.903 212.335 198.907 212.335C198.912 212.326 198.92 212.312 198.925 212.302L198.929 212.297C198.938 212.288 198.942 212.278 198.951 212.269L198.956 212.264C198.964 212.255 198.973 212.245 198.986 212.241C199.03 212.207 199.087 212.193 199.14 212.203L199.373 210.306C199.378 210.273 199.382 210.244 199.387 210.211C199.391 210.197 199.391 210.178 199.395 210.164C199.395 210.159 199.395 210.154 199.4 210.15C199.404 210.126 199.409 210.102 199.417 210.078C199.527 209.628 199.787 209.239 200.143 208.978C200.205 208.936 200.266 208.898 200.332 208.86L201.089 208.452C201.097 208.447 201.102 208.443 201.111 208.443C201.115 208.443 201.115 208.443 201.119 208.438C201.124 208.438 201.128 208.433 201.133 208.433C201.137 208.433 201.137 208.433 201.141 208.433C201.146 208.433 201.15 208.433 201.155 208.428C201.159 208.428 201.163 208.428 201.163 208.428C201.168 208.428 201.172 208.428 201.177 208.428C201.181 208.428 201.185 208.428 201.19 208.428C201.194 208.428 201.199 208.428 201.203 208.428C201.207 208.428 201.212 208.428 201.216 208.428C201.221 208.428 201.225 208.428 201.225 208.428C201.229 208.428 201.234 208.428 201.238 208.433C201.243 208.433 201.243 208.433 201.247 208.438C201.251 208.438 201.256 208.443 201.26 208.443C201.26 208.443 201.26 208.443 201.265 208.443C201.291 208.452 201.313 208.471 201.335 208.49C201.339 208.495 201.344 208.5 201.348 208.504C201.353 208.509 201.357 208.514 201.361 208.523C201.366 208.528 201.37 208.537 201.375 208.542C201.379 208.547 201.383 208.556 201.383 208.561L202.896 207.959C203.182 207.855 203.376 207.566 203.376 207.238V206.015L201.872 205.342Z" fill="#00C6EC"/>
<path d="M91.0113 213.719L91.047 213.463L91.2664 211.822L91.5623 209.64C91.5674 209.611 91.5725 209.588 91.5776 209.564C91.5827 209.545 91.5878 209.526 91.5929 209.507C91.5929 209.502 91.5929 209.498 91.598 209.493C91.7051 209.128 92.001 208.829 92.3939 208.705L94.6233 208.013H94.6284L94.8784 207.937C94.8937 207.932 94.909 207.928 94.9192 207.928C94.9243 207.928 94.9243 207.928 94.9294 207.928C94.9396 207.928 94.9498 207.923 94.96 207.923C94.9651 207.923 94.9702 207.923 94.9753 207.923C94.9855 207.923 94.9957 207.923 95.0059 207.923C95.011 207.923 95.0161 207.923 95.0212 207.923C95.0314 207.923 95.0416 207.923 95.0467 207.923C95.0518 207.923 95.0569 207.923 95.062 207.923C95.0722 207.923 95.0773 207.928 95.0875 207.928C95.0926 207.928 95.0977 207.928 95.1028 207.932C95.113 207.932 95.1181 207.937 95.1283 207.937C95.1334 207.937 95.1385 207.942 95.1437 207.942C95.1539 207.947 95.1641 207.951 95.1743 207.951C95.1794 207.951 95.1794 207.951 95.1845 207.956C95.1947 207.961 95.21 207.966 95.2202 207.975C95.2253 207.98 95.2304 207.98 95.2355 207.984C95.2406 207.989 95.2508 207.994 95.2559 207.999C95.261 208.003 95.2661 208.008 95.2712 208.008C95.2763 208.013 95.2814 208.018 95.2865 208.022C95.2916 208.027 95.2967 208.032 95.3018 208.037C95.3069 208.041 95.312 208.046 95.3171 208.051C95.3222 208.056 95.3273 208.06 95.3324 208.065C95.3375 208.07 95.3426 208.075 95.3426 208.079C95.3477 208.084 95.3528 208.089 95.3579 208.098C95.363 208.103 95.363 208.108 95.3681 208.113C95.3681 208.117 95.3732 208.117 95.3732 208.122C95.3732 208.122 95.3732 208.122 95.3783 208.122C95.3834 208.122 95.3834 208.127 95.3885 208.127C95.4038 208.136 95.414 208.146 95.4293 208.155L96.016 207.975C96.3476 207.871 96.5721 207.581 96.5721 207.254V206.03L94.812 205.347C94.6692 205.29 94.5366 205.224 94.409 205.148C94.3376 205.105 94.2713 205.058 94.2049 205.01C94.1794 204.991 94.1488 204.968 94.1233 204.944C94.0774 204.906 94.0366 204.868 93.9958 204.83C93.9754 204.811 93.955 204.792 93.9346 204.768C93.8937 204.726 93.858 204.683 93.8223 204.64C93.8019 204.617 93.7866 204.598 93.7713 204.574C93.7356 204.531 93.705 204.484 93.6744 204.436C93.6591 204.413 93.6438 204.389 93.6285 204.365C93.5979 204.318 93.5723 204.27 93.5468 204.218C93.3938 203.919 93.3122 203.587 93.3122 203.241V202.862C92.6336 202.862 92.0878 202.354 92.0878 201.723C92.0878 201.704 92.0878 201.685 92.0878 201.666C92.0878 201.661 92.0878 201.652 92.0878 201.647C92.0878 201.633 92.0878 201.624 92.0929 201.609C92.0929 201.6 92.0929 201.59 92.098 201.586C92.098 201.576 92.098 201.567 92.1031 201.557C92.1031 201.548 92.1082 201.538 92.1082 201.529C92.1082 201.519 92.1133 201.51 92.1133 201.5C92.1133 201.491 92.1184 201.481 92.1184 201.472C92.1184 201.462 92.1235 201.458 92.1235 201.448C92.1286 201.439 92.1286 201.429 92.1337 201.415C92.1337 201.41 92.1388 201.401 92.1388 201.396C92.1439 201.386 92.1439 201.372 92.149 201.363C92.149 201.358 92.1541 201.348 92.1541 201.344C92.1592 201.334 92.1643 201.32 92.1694 201.31C92.1694 201.306 92.1745 201.301 92.1745 201.296C92.1796 201.287 92.1847 201.273 92.1898 201.263C92.1898 201.258 92.1949 201.254 92.1949 201.249C92.2 201.235 92.2051 201.225 92.2153 201.216C92.2153 201.211 92.2204 201.206 92.2204 201.206C92.2255 201.192 92.2357 201.182 92.2408 201.168C92.2408 201.163 92.2459 201.163 92.2459 201.159C92.2561 201.144 92.2612 201.135 92.2714 201.121L92.2765 201.116C92.2867 201.102 92.2969 201.092 92.302 201.078C92.302 201.078 92.302 201.073 92.3071 201.073C92.3173 201.059 92.3275 201.05 92.3377 201.035C92.3377 201.035 92.3377 201.035 92.3377 201.031C92.3582 201.002 92.3837 200.978 92.4092 200.955C92.4041 200.926 92.399 200.893 92.3939 200.86C92.3939 200.855 92.3939 200.85 92.3888 200.841C92.3888 200.827 92.3837 200.812 92.3837 200.803C92.3837 200.793 92.3786 200.784 92.3786 200.774C92.3786 200.76 92.3735 200.751 92.3735 200.737C92.3735 200.722 92.3684 200.708 92.3684 200.694C92.3684 200.684 92.3633 200.675 92.3633 200.665C92.3582 200.642 92.3531 200.618 92.348 200.594C92.348 200.589 92.348 200.585 92.3429 200.58C92.3377 200.561 92.3377 200.537 92.3326 200.518C92.3326 200.509 92.3275 200.504 92.3275 200.495C92.3224 200.476 92.3224 200.457 92.3173 200.433C92.3173 200.423 92.3122 200.419 92.3122 200.409C92.3071 200.386 92.302 200.362 92.302 200.343C92.302 200.338 92.302 200.333 92.2969 200.324C92.2867 200.262 92.2765 200.205 92.2663 200.139C92.2663 200.134 92.2663 200.129 92.2663 200.125C92.2612 200.096 92.2561 200.072 92.251 200.044C92.251 200.039 92.251 200.03 92.2459 200.025C92.2408 199.997 92.2357 199.968 92.2306 199.94C92.2306 199.935 92.2306 199.93 92.2306 199.925C92.2204 199.859 92.2102 199.788 92.2 199.717V199.712C92.1949 199.679 92.1898 199.646 92.1847 199.612C92.1847 199.608 92.1847 199.598 92.1796 199.593C92.1745 199.56 92.1694 199.532 92.1643 199.498C92.1643 199.494 92.1643 199.489 92.1643 199.48C92.149 199.37 92.1337 199.252 92.1184 199.138C92.1184 199.133 92.1184 199.129 92.1184 199.119C92.1133 199.086 92.1082 199.053 92.1082 199.019C92.1082 199.015 92.1082 199.005 92.1031 199C92.098 198.962 92.0929 198.929 92.0878 198.891C92.0878 198.887 92.0878 198.887 92.0878 198.882C92.0776 198.801 92.0674 198.721 92.0623 198.635C92.0623 198.63 92.0623 198.626 92.0623 198.621C92.0572 198.588 92.0572 198.55 92.0521 198.517C92.0521 198.507 92.0521 198.502 92.0521 198.493C92.047 198.46 92.047 198.422 92.0419 198.389C92.0419 198.384 92.0419 198.374 92.0419 198.37C92.0317 198.284 92.0265 198.204 92.0163 198.118C92.0163 198.113 92.0163 198.109 92.0163 198.104C92.0112 198.066 92.0112 198.033 92.0061 197.995C92.0061 197.985 92.0061 197.976 92.0061 197.966C92.001 197.933 92.001 197.9 91.9959 197.867C91.9959 197.857 91.9959 197.848 91.9959 197.838C91.9908 197.8 91.9908 197.758 91.9857 197.715V197.71C91.9806 197.668 91.9806 197.62 91.9755 197.577C91.9755 197.573 91.9755 197.573 91.9755 197.568C91.9755 197.53 91.9704 197.492 91.9704 197.454C91.9704 197.445 91.9704 197.435 91.9704 197.426C91.9704 197.392 91.9653 197.359 91.9653 197.326C91.9653 197.317 91.9653 197.307 91.9653 197.293C91.9653 197.26 91.9602 197.222 91.9602 197.188C91.9602 197.179 91.9602 197.174 91.9602 197.165C91.9551 197.079 91.9551 196.994 91.95 196.913C91.95 196.904 91.95 196.894 91.95 196.885C91.95 196.852 91.95 196.823 91.95 196.79C91.95 196.776 91.95 196.766 91.95 196.752C91.95 196.719 91.95 196.69 91.95 196.657C91.95 196.648 91.95 196.638 91.95 196.629C91.95 196.548 91.95 196.463 91.95 196.382C91.95 196.373 91.95 196.363 91.95 196.354C91.95 196.32 91.95 196.292 91.95 196.259C91.95 196.245 91.95 196.235 91.95 196.221C91.95 196.192 91.95 196.164 91.9551 196.135C91.9551 196.121 91.9551 196.112 91.9551 196.097C91.9551 196.064 91.9602 196.031 91.9602 195.993C91.9602 195.988 91.9602 195.984 91.9602 195.974C91.9602 195.936 91.9653 195.893 91.9653 195.856C91.9653 195.846 91.9653 195.837 91.9653 195.827C91.9653 195.799 91.9704 195.765 91.9704 195.737C91.9704 195.723 91.9704 195.713 91.9755 195.699C91.9755 195.671 91.9806 195.647 91.9806 195.618C91.9806 195.604 91.9806 195.595 91.9857 195.58C91.9908 195.552 91.9908 195.524 91.9959 195.495C91.9959 195.486 91.9959 195.476 92.001 195.467C92.0061 195.429 92.0112 195.391 92.0163 195.357C92.0163 195.353 92.0163 195.343 92.0163 195.339C92.0214 195.31 92.0265 195.277 92.0265 195.248C92.0265 195.234 92.0317 195.225 92.0317 195.215C92.0368 195.191 92.0368 195.168 92.0419 195.144C92.0419 195.13 92.047 195.12 92.047 195.106C92.0521 195.082 92.0572 195.059 92.0572 195.035C92.0572 195.025 92.0623 195.011 92.0623 195.002C92.0674 194.969 92.0776 194.931 92.0827 194.897C92.3122 193.759 92.8989 193 92.8989 193C92.8989 193 95.9599 193.095 98.2046 193.759L98.6128 193C98.6128 193 103.128 193 104.327 194.897C104.327 194.897 106.367 194.883 106.367 197.174C106.367 197.198 106.367 197.222 106.367 197.245C106.367 197.25 106.367 197.255 106.367 197.264C106.367 197.288 106.367 197.317 106.362 197.34C106.362 197.345 106.362 197.35 106.362 197.354C106.362 197.378 106.357 197.407 106.357 197.43C106.357 197.435 106.357 197.44 106.357 197.449C106.357 197.478 106.352 197.506 106.347 197.539C106.347 197.544 106.347 197.554 106.347 197.558C106.342 197.587 106.342 197.615 106.337 197.644C106.337 197.649 106.337 197.653 106.337 197.658C106.332 197.691 106.326 197.724 106.326 197.758C106.326 197.767 106.326 197.772 106.321 197.781C106.316 197.815 106.311 197.848 106.306 197.886C106.301 197.919 106.296 197.957 106.291 197.995C106.291 198.004 106.291 198.009 106.286 198.019C106.281 198.056 106.275 198.09 106.27 198.128C106.27 198.132 106.27 198.137 106.27 198.142C106.265 198.175 106.26 198.208 106.255 198.246C106.255 198.256 106.255 198.26 106.25 198.27C106.245 198.308 106.235 198.346 106.23 198.384C106.23 198.393 106.224 198.398 106.224 198.408C106.219 198.441 106.209 198.479 106.204 198.512C106.204 198.517 106.204 198.521 106.199 198.531C106.194 198.569 106.184 198.611 106.178 198.649C106.178 198.659 106.173 198.668 106.173 198.673C106.158 198.754 106.143 198.839 106.122 198.92C106.122 198.929 106.117 198.939 106.117 198.944C106.107 198.986 106.102 199.024 106.092 199.067C106.092 199.072 106.092 199.076 106.087 199.081C106.076 199.119 106.071 199.157 106.061 199.195C106.061 199.204 106.056 199.209 106.056 199.219C106.046 199.261 106.041 199.299 106.031 199.342C106.031 199.347 106.025 199.356 106.025 199.361C106.015 199.399 106.01 199.437 106 199.475C106 199.48 106 199.484 105.995 199.489C105.985 199.532 105.974 199.57 105.969 199.612C105.969 199.622 105.964 199.627 105.964 199.636C105.944 199.717 105.929 199.797 105.908 199.878C105.908 199.887 105.903 199.892 105.903 199.902C105.893 199.94 105.888 199.978 105.877 200.016C105.877 200.02 105.877 200.02 105.877 200.025C105.867 200.063 105.862 200.096 105.852 200.134C105.852 200.139 105.847 200.148 105.847 200.153C105.837 200.191 105.832 200.224 105.821 200.262C105.821 200.267 105.816 200.276 105.816 200.281C105.811 200.314 105.801 200.343 105.796 200.376C105.796 200.381 105.791 200.386 105.791 200.395C105.781 200.428 105.775 200.461 105.765 200.495C105.765 200.504 105.76 200.509 105.76 200.518C105.755 200.547 105.745 200.575 105.74 200.604C105.74 200.608 105.74 200.613 105.735 200.618C105.73 200.646 105.719 200.675 105.714 200.703C105.714 200.713 105.709 200.722 105.709 200.732C105.704 200.76 105.694 200.784 105.689 200.812C105.689 200.822 105.684 200.827 105.684 200.836C105.679 200.855 105.673 200.869 105.668 200.888C105.663 200.898 105.663 200.912 105.658 200.922C105.653 200.94 105.648 200.959 105.643 200.978C105.643 200.983 105.643 200.988 105.638 200.993C105.709 201.069 105.77 201.149 105.821 201.239C105.821 201.239 105.821 201.244 105.826 201.244C105.842 201.273 105.857 201.301 105.867 201.329C105.867 201.334 105.872 201.334 105.872 201.339C105.883 201.367 105.893 201.396 105.903 201.429C105.903 201.434 105.903 201.439 105.908 201.439C105.918 201.467 105.923 201.5 105.934 201.529C105.934 201.533 105.934 201.538 105.934 201.538C105.939 201.571 105.944 201.6 105.949 201.633C105.949 201.638 105.949 201.638 105.949 201.643C105.954 201.676 105.954 201.709 105.954 201.742C105.954 202.373 105.408 202.881 104.73 202.881V203.26C104.73 204.18 104.133 205.01 103.225 205.361L101.465 206.044V207.268C101.465 207.287 101.465 207.306 101.465 207.325C101.465 207.33 101.465 207.339 101.465 207.344C101.465 207.358 101.47 207.368 101.47 207.382C101.47 207.387 101.47 207.396 101.475 207.401C101.475 207.411 101.48 207.425 101.48 207.434C101.48 207.444 101.485 207.448 101.485 207.458C101.49 207.467 101.49 207.482 101.495 207.491C101.495 207.496 101.5 207.505 101.5 207.51C101.505 207.524 101.51 207.539 101.516 207.553C101.521 207.562 101.526 207.572 101.526 207.581C101.531 207.591 101.536 207.6 101.541 207.61C101.546 207.619 101.551 207.629 101.556 207.633C101.562 207.638 101.567 207.648 101.567 207.652C101.572 207.662 101.577 207.671 101.582 207.681C101.587 207.686 101.592 207.69 101.592 207.7C101.597 207.709 101.607 207.719 101.613 207.728C101.618 207.733 101.618 207.738 101.623 207.738C101.653 207.771 101.684 207.804 101.715 207.833C101.715 207.833 101.72 207.833 101.72 207.837C101.73 207.847 101.74 207.856 101.755 207.866C101.76 207.866 101.76 207.871 101.766 207.871C101.776 207.88 101.791 207.89 101.801 207.894C101.801 207.894 101.806 207.899 101.811 207.899C101.827 207.909 101.837 207.913 101.852 207.923C101.903 207.951 101.959 207.975 102.016 207.994L102.602 208.174C102.618 208.165 102.628 208.155 102.643 208.146L102.648 208.141C102.648 208.141 102.653 208.141 102.653 208.136C102.653 208.132 102.658 208.132 102.658 208.127C102.663 208.122 102.663 208.117 102.669 208.113C102.674 208.108 102.679 208.103 102.679 208.094C102.684 208.089 102.684 208.084 102.689 208.079C102.694 208.075 102.699 208.07 102.704 208.065C102.709 208.06 102.714 208.056 102.72 208.051C102.725 208.046 102.73 208.041 102.735 208.037C102.74 208.032 102.745 208.027 102.75 208.022C102.755 208.018 102.76 208.013 102.765 208.013C102.771 208.008 102.781 208.003 102.786 207.999C102.791 207.994 102.796 207.994 102.801 207.989C102.811 207.984 102.827 207.975 102.837 207.97C102.842 207.97 102.842 207.97 102.847 207.966C102.857 207.961 102.868 207.956 102.878 207.956C102.883 207.956 102.888 207.951 102.893 207.951C102.903 207.947 102.908 207.947 102.919 207.947C102.924 207.947 102.929 207.947 102.934 207.942C102.944 207.942 102.949 207.937 102.959 207.937C102.964 207.937 102.97 207.937 102.975 207.937C102.985 207.937 102.99 207.937 103 207.937C103.005 207.937 103.01 207.937 103.015 207.937C103.026 207.937 103.036 207.937 103.041 207.937C103.046 207.937 103.051 207.937 103.056 207.937C103.066 207.937 103.077 207.942 103.087 207.942C103.092 207.942 103.092 207.942 103.097 207.942C103.112 207.947 103.128 207.947 103.138 207.951L103.383 208.027L103.515 208.07L105.617 208.72C105.811 208.781 105.985 208.886 106.122 209.019C106.26 209.156 106.362 209.322 106.413 209.507C106.413 209.507 106.413 209.507 106.413 209.512C106.418 209.536 106.423 209.559 106.428 209.583C106.434 209.607 106.439 209.635 106.444 209.659L106.99 213.719C106.995 213.762 107 213.805 107 213.847C107.01 214.473 106.464 215 105.775 215H101.449H96.5517H92.2255C91.7868 215 91.4093 214.787 91.195 214.473C91.0419 214.26 90.9705 213.994 91.0113 213.719Z" fill="#00C6EC"/>
<g filter="url(#filter1_i)">
<path fill-rule="evenodd" clip-rule="evenodd" d="M153.043 148.956C195.254 149.007 264.483 150.798 264.483 150.798C264.483 150.798 191.329 152.575 153.044 152.988C152.995 195.194 151.202 264.483 151.202 264.483C151.202 264.483 149.424 191.305 149.012 153.025C110.742 153.289 37.5166 150.798 37.5166 150.798C37.5166 150.798 106.702 149.021 148.975 148.957C148.714 110.672 151.202 37.5166 151.202 37.5166C151.202 37.5166 152.979 106.682 153.043 148.956Z" fill="white"/>
</g>
<g filter="url(#filter2_d)">
<circle cx="151" cy="151" r="42" fill="white"/>
</g>
<g filter="url(#filter3_d)">
<rect width="15" height="33" rx="7.5" transform="matrix(-1 0 0 1 140 145)" fill="#F79663"/>
<rect x="-1" y="1" width="13" height="31" rx="6.5" transform="matrix(-1 0 0 1 138 145)" stroke="#F79663" stroke-width="2"/>
</g>
<g filter="url(#filter4_d)">
<rect width="15" height="46" rx="7.5" transform="matrix(-1 0 0 1 178 132)" fill="#D84774"/>
</g>
<g filter="url(#filter5_d)">
<path fill-rule="evenodd" clip-rule="evenodd" d="M166.429 129C166.429 126.239 164.191 124 161.429 124H141.429C138.668 124 136.429 126.239 136.429 129V149C136.429 151.761 138.668 154 141.429 154H139.918C141.99 154 143.668 155.679 143.668 157.75V164.5V170.5V171.25H143.705C144.082 175.04 147.279 178 151.168 178C155.057 178 158.255 175.04 158.631 171.25H158.668V170.5V164.5V157.75C158.668 155.679 160.347 154 162.418 154H161.429C164.191 154 166.429 151.761 166.429 149V129Z" fill="#00ACB3"/>
</g>
<path d="M145.569 132.689C145.569 132.655 145.566 132.624 145.566 132.589C145.566 131.219 146.675 130.111 148.04 130.111C148.174 130.111 148.305 130.121 148.43 130.142C148.873 129.454 149.641 129 150.516 129C151.352 129 152.094 129.418 152.542 130.053C152.914 129.83 153.346 129.701 153.81 129.701C155.178 129.701 156.284 130.812 156.284 132.18C157.279 132.503 158 133.44 158 134.543C158 135.354 157.612 136.074 157.01 136.526C156.962 137.854 155.875 138.918 154.536 138.918C154.366 138.918 154.2 138.899 154.041 138.868V141H152.987C152.987 141 152.825 139.579 151.695 138.314C151.431 138.017 151.048 137.86 150.652 137.86H150.647C149.652 137.86 148.768 137.379 148.216 136.636C147.943 136.723 147.652 136.762 147.351 136.746C146.064 136.683 145.029 135.617 145 134.325C144.99 133.703 145.205 133.133 145.569 132.689Z" fill="white"/>
<path d="M149.928 146.68C150.419 146.76 150.795 146.944 151.056 147.232C151.317 147.515 151.448 147.867 151.448 148.288C151.448 148.613 151.363 148.915 151.192 149.192C151.021 149.464 150.76 149.683 150.408 149.848C150.061 150.013 149.635 150.096 149.128 150.096C148.733 150.096 148.344 150.045 147.96 149.944C147.581 149.837 147.259 149.688 146.992 149.496L147.496 148.504C147.709 148.664 147.955 148.789 148.232 148.88C148.515 148.965 148.803 149.008 149.096 149.008C149.421 149.008 149.677 148.947 149.864 148.824C150.051 148.696 150.144 148.517 150.144 148.288C150.144 147.829 149.795 147.6 149.096 147.6H148.504V146.744L149.656 145.44H147.272V144.4H151.192V145.24L149.928 146.68ZM153.888 146.504C154.678 146.504 155.259 146.661 155.632 146.976C156.011 147.291 156.2 147.712 156.2 148.24C156.2 148.581 156.115 148.893 155.944 149.176C155.774 149.453 155.512 149.677 155.16 149.848C154.814 150.013 154.384 150.096 153.872 150.096C153.478 150.096 153.088 150.045 152.704 149.944C152.326 149.837 152.003 149.688 151.736 149.496L152.248 148.504C152.462 148.664 152.707 148.789 152.984 148.88C153.262 148.965 153.547 149.008 153.84 149.008C154.166 149.008 154.422 148.944 154.608 148.816C154.795 148.688 154.888 148.509 154.888 148.28C154.888 148.04 154.79 147.859 154.592 147.736C154.4 147.613 154.064 147.552 153.584 147.552H152.152L152.44 144.4H155.856V145.44H153.52L153.432 146.504H153.888Z" fill="white"/>
<g filter="url(#filter6_i)">
<circle cx="151" cy="151" r="138" stroke="white" stroke-width="26"/>
</g>
<g filter="url(#filter7_i)">
<path d="M151 289C74.7847 289 13 227.215 13 151C13 74.7847 74.7847 13 151 13C227.215 13 289 74.7847 289 151C289 196.802 266.687 237.392 232.338 262.493" stroke="#00C6EC" stroke-width="26" stroke-linecap="round"/>
</g>
<g filter="url(#filter8_d)">
<circle r="9" transform="matrix(1 0 0 -1 233 262)" fill="white"/>
</g>
<defs>
<filter id="filter0_d" x="17" y="17" width="268" height="268" filterUnits="userSpaceOnUse" color-interpolation-filters="sRGB">
<feFlood flood-opacity="0" result="BackgroundImageFix"/>
<feColorMatrix in="SourceAlpha" type="matrix" values="0 0 0 0 0 0 0 0 0 0 0 0 0 0 0 0 0 0 127 0"/>
<feOffset/>
<feGaussianBlur stdDeviation="7.5"/>
<feColorMatrix type="matrix" values="0 0 0 0 0 0 0 0 0 0 0 0 0 0 0 0 0 0 0.15 0"/>
<feBlend mode="normal" in2="BackgroundImageFix" result="effect1_dropShadow"/>
<feBlend mode="normal" in="SourceGraphic" in2="effect1_dropShadow" result="shape"/>
</filter>
<filter id="filter1_i" x="37.5166" y="37.5166" width="226.967" height="227.967" filterUnits="userSpaceOnUse" color-interpolation-filters="sRGB">
<feFlood flood-opacity="0" result="BackgroundImageFix"/>
<feBlend mode="normal" in="SourceGraphic" in2="BackgroundImageFix" result="shape"/>
<feColorMatrix in="SourceAlpha" type="matrix" values="0 0 0 0 0 0 0 0 0 0 0 0 0 0 0 0 0 0 127 0" result="hardAlpha"/>
<feOffset dy="1"/>
<feGaussianBlur stdDeviation="2"/>
<feComposite in2="hardAlpha" operator="arithmetic" k2="-1" k3="1"/>
<feColorMatrix type="matrix" values="0 0 0 0 0 0 0 0 0 0.117647 0 0 0 0 0.45098 0 0 0 0.25 0"/>
<feBlend mode="normal" in2="shape" result="effect1_innerShadow"/>
</filter>
<filter id="filter2_d" x="84" y="84" width="134" height="134" filterUnits="userSpaceOnUse" color-interpolation-filters="sRGB">
<feFlood flood-opacity="0" result="BackgroundImageFix"/>
<feColorMatrix in="SourceAlpha" type="matrix" values="0 0 0 0 0 0 0 0 0 0 0 0 0 0 0 0 0 0 127 0"/>
<feOffset/>
<feGaussianBlur stdDeviation="12.5"/>
<feColorMatrix type="matrix" values="0 0 0 0 0 0 0 0 0 0 0 0 0 0 0 0 0 0 0.1 0"/>
<feBlend mode="normal" in2="BackgroundImageFix" result="effect1_dropShadow"/>
<feBlend mode="normal" in="SourceGraphic" in2="effect1_dropShadow" result="shape"/>
</filter>
<filter id="filter3_d" x="115" y="135" width="35" height="53" filterUnits="userSpaceOnUse" color-interpolation-filters="sRGB">
<feFlood flood-opacity="0" result="BackgroundImageFix"/>
<feColorMatrix in="SourceAlpha" type="matrix" values="0 0 0 0 0 0 0 0 0 0 0 0 0 0 0 0 0 0 127 0"/>
<feOffset/>
<feGaussianBlur stdDeviation="5"/>
<feColorMatrix type="matrix" values="0 0 0 0 0 0 0 0 0 0 0 0 0 0 0 0 0 0 0.15 0"/>
<feBlend mode="normal" in2="BackgroundImageFix" result="effect1_dropShadow"/>
<feBlend mode="normal" in="SourceGraphic" in2="effect1_dropShadow" result="shape"/>
</filter>
<filter id="filter4_d" x="153" y="122" width="35" height="66" filterUnits="userSpaceOnUse" color-interpolation-filters="sRGB">
<feFlood flood-opacity="0" result="BackgroundImageFix"/>
<feColorMatrix in="SourceAlpha" type="matrix" values="0 0 0 0 0 0 0 0 0 0 0 0 0 0 0 0 0 0 127 0"/>
<feOffset/>
<feGaussianBlur stdDeviation="5"/>
<feColorMatrix type="matrix" values="0 0 0 0 0 0 0 0 0 0 0 0 0 0 0 0 0 0 0.15 0"/>
<feBlend mode="normal" in2="BackgroundImageFix" result="effect1_dropShadow"/>
<feBlend mode="normal" in="SourceGraphic" in2="effect1_dropShadow" result="shape"/>
</filter>
<filter id="filter5_d" x="126.429" y="118" width="50" height="74" filterUnits="userSpaceOnUse" color-interpolation-filters="sRGB">
<feFlood flood-opacity="0" result="BackgroundImageFix"/>
<feColorMatrix in="SourceAlpha" type="matrix" values="0 0 0 0 0 0 0 0 0 0 0 0 0 0 0 0 0 0 127 0"/>
<feOffset dy="4"/>
<feGaussianBlur stdDeviation="5"/>
<feColorMatrix type="matrix" values="0 0 0 0 0 0 0 0 0 0 0 0 0 0 0 0 0 0 0.15 0"/>
<feBlend mode="normal" in2="BackgroundImageFix" result="effect1_dropShadow"/>
<feBlend mode="normal" in="SourceGraphic" in2="effect1_dropShadow" result="shape"/>
</filter>
<filter id="filter6_i" x="0" y="0" width="302" height="302" filterUnits="userSpaceOnUse" color-interpolation-filters="sRGB">
<feFlood flood-opacity="0" result="BackgroundImageFix"/>
<feBlend mode="normal" in="SourceGraphic" in2="BackgroundImageFix" result="shape"/>
<feColorMatrix in="SourceAlpha" type="matrix" values="0 0 0 0 0 0 0 0 0 0 0 0 0 0 0 0 0 0 127 0" result="hardAlpha"/>
<feOffset/>
<feGaussianBlur stdDeviation="2"/>
<feComposite in2="hardAlpha" operator="arithmetic" k2="-1" k3="1"/>
<feColorMatrix type="matrix" values="0 0 0 0 0 0 0 0 0 0 0 0 0 0 0 0 0 0 0.2 0"/>
<feBlend mode="normal" in2="shape" result="effect1_innerShadow"/>
</filter>
<filter id="filter7_i" x="0" y="0" width="302" height="302" filterUnits="userSpaceOnUse" color-interpolation-filters="sRGB">
<feFlood flood-opacity="0" result="BackgroundImageFix"/>
<feBlend mode="normal" in="SourceGraphic" in2="BackgroundImageFix" result="shape"/>
<feColorMatrix in="SourceAlpha" type="matrix" values="0 0 0 0 0 0 0 0 0 0 0 0 0 0 0 0 0 0 127 0" result="hardAlpha"/>
<feOffset/>
<feGaussianBlur stdDeviation="5"/>
<feComposite in2="hardAlpha" operator="arithmetic" k2="-1" k3="1"/>
<feColorMatrix type="matrix" values="0 0 0 0 0 0 0 0 0 0 0 0 0 0 0 0 0 0 0.3 0"/>
<feBlend mode="normal" in2="shape" result="effect1_innerShadow"/>
</filter>
<filter id="filter8_d" x="220" y="249" width="26" height="26" filterUnits="userSpaceOnUse" color-interpolation-filters="sRGB">
<feFlood flood-opacity="0" result="BackgroundImageFix"/>
<feColorMatrix in="SourceAlpha" type="matrix" values="0 0 0 0 0 0 0 0 0 0 0 0 0 0 0 0 0 0 127 0"/>
<feOffset/>
<feGaussianBlur stdDeviation="2"/>
<feColorMatrix type="matrix" values="0 0 0 0 0 0 0 0 0 0 0 0 0 0 0 0 0 0 0.25 0"/>
<feBlend mode="normal" in2="BackgroundImageFix" result="effect1_dropShadow"/>
<feBlend mode="normal" in="SourceGraphic" in2="effect1_dropShadow" result="shape"/>
</filter>
</defs>
</svg>
