<svg width="21" height="10" viewBox="0 0 21 10" fill="none" xmlns="http://www.w3.org/2000/svg">
<path d="M0 3C0 1.34315 1.34315 0 3 0H17C18.6569 0 20 1.34315 20 3V7C20 8.65685 18.6569 10 17 10H3C1.34315 10 0 8.65685 0 7V3Z" fill="#000066"/>
<path d="M0 5.00004L18.466 0.383545C20.107 1.32181 20 2.5 20 3.00004C20 3.26555 20 5.22258 20 7C20 8.5 19.5 9 18.46 9.61504L0 5.00004Z" fill="#BD1021"/>
<path d="M19.0425 0.775391L2.14258 5.00028L19.0469 9.22628C19.7184 8.6967 19.976 8.26314 19.9999 7L20 3.0002C20.0182 1.91003 19.7939 1.45045 19.0425 0.775391Z" fill="white"/>
<path d="M15.3296 5.55841C15.4629 5.56865 15.4583 5.70081 15.4583 5.70081L15.9304 5.71133C15.9907 5.54675 16.0534 5.56581 16.1681 5.64709C16.277 5.72431 16.3959 5.75879 16.3959 5.75879C16.4415 5.52259 16.7765 5.57035 16.7765 5.57035C16.9193 5.22927 16.9314 5.23381 16.8463 5.19061C16.7613 5.14741 16.7266 5.07433 16.7266 5.07433C16.6458 4.97687 16.6033 4.83589 16.5942 4.74941C16.5851 4.66293 16.4848 4.79269 16.4666 4.76539C16.4484 4.73811 16.2995 4.75403 16.2995 4.75403C16.3359 4.79269 16.2114 4.76995 16.2114 4.76995C16.2235 4.77905 16.2114 4.81543 16.2114 4.81543C16.1992 4.79951 16.105 4.78359 16.105 4.78359C16.0959 4.80405 16.0747 4.82679 16.0747 4.82679C16.023 4.80405 15.9197 4.80859 15.9197 4.80859C15.7678 4.80631 15.6767 4.85407 15.6341 4.87909C15.5916 4.90411 15.4397 4.98141 15.3151 5.10193C15.1906 5.22245 15.1207 5.20881 15.1207 5.20881C15.0842 5.34297 14.7865 5.50669 14.7865 5.50669C14.7379 5.54989 14.589 5.57035 14.5131 5.50669C14.4372 5.44303 14.5131 5.32933 14.5131 5.32933C14.5412 5.27617 14.5691 5.27837 14.5722 5.09393C14.5743 4.96921 14.703 4.87029 14.8351 4.72533C14.9967 4.54811 15.2225 4.25635 15.2225 4.25635C15.2236 4.34589 15.2726 4.36039 15.2726 4.36039C15.3171 4.26915 15.3809 4.19581 15.3809 4.19581C15.3843 4.20349 15.3934 4.20861 15.3934 4.20861C15.4435 4.14039 15.4743 4.11311 15.4743 4.11311C15.4572 4.10629 15.3171 4.11311 15.186 4.22737C15.055 4.34163 14.965 4.30327 14.965 4.30327C14.8739 4.27427 14.8659 4.20435 14.8659 4.20435C14.7994 3.91801 15.0607 3.71319 15.0607 3.71319C14.7098 3.62963 14.9627 3.18451 15.3979 2.99521C15.8331 2.80591 15.8286 2.72063 15.8286 2.72063C15.8536 2.74963 15.8742 2.80079 15.8742 2.80079C15.8787 2.79737 15.9106 2.74963 16.1613 2.63877C16.4119 2.52791 16.5327 2.43241 16.5327 2.43241C16.5646 2.49381 16.5577 2.53815 16.5577 2.53815C17.2436 2.29769 17.9192 1.74599 17.9192 1.74599C17.9385 1.79203 17.9283 1.86195 17.9283 1.86195C18.0399 1.75877 18.4432 1.51831 18.4432 1.51831C18.4501 1.67179 18.3236 1.73063 18.3236 1.73063C18.3373 1.75281 18.3453 1.79287 18.3453 1.79287C18.4113 1.75705 18.7189 1.54217 18.7189 1.54217C18.8317 1.63937 18.7292 1.79883 18.7292 1.79883C18.7691 1.79287 18.7987 1.75791 18.7987 1.75791C18.8272 1.92333 18.6438 2.06915 18.6438 2.06915C18.6757 2.07001 18.7292 2.03845 18.7292 2.03845C18.695 2.21923 18.3521 2.41961 18.3521 2.41961C18.4022 2.46395 18.3544 2.52279 18.3134 2.54923C18.2723 2.57567 18.1994 2.63365 18.2222 2.65753C18.245 2.68141 18.3965 2.57481 18.3965 2.57481C18.4227 2.65071 18.2279 2.79993 18.2279 2.79993C18.3635 2.81783 18.7406 2.64645 18.7406 2.64645C18.7098 2.79227 18.5674 2.90567 18.392 2.97133C18.2165 3.03699 18.2256 3.04723 18.2256 3.04723C18.2564 3.07195 18.4991 3.00119 18.4991 3.00119C18.4261 3.16405 18.1732 3.27577 18.1732 3.27577C18.2427 3.33461 18.3373 3.26639 18.4318 3.20159C18.5264 3.13679 18.6551 3.08135 18.7975 3.03361C18.94 2.98585 19.0402 3.02167 19.0402 3.02167C19.1587 2.98415 19.2589 3.03701 19.2589 3.03701C19.4868 3.05577 19.5096 3.13849 19.5096 3.13849C19.5346 3.14445 19.554 3.15469 19.6121 3.19733C19.6702 3.23997 19.6668 3.37213 19.6645 3.43695C19.6622 3.50175 19.644 3.50175 19.6326 3.51967C19.6212 3.53759 19.6201 3.55805 19.6201 3.58277C19.6201 3.60749 19.5631 3.76099 19.2111 3.76269C18.859 3.76439 18.6775 3.76269 18.6775 3.76269C18.6485 3.76269 18.6137 3.77975 18.6137 3.77975C18.4656 3.85309 18.5438 3.72973 18.3676 3.87469C18.1914 4.01965 18.1018 3.99463 18.1018 3.99463C18.0729 4.02931 17.8884 4.20099 17.7828 4.26921C17.6772 4.33743 17.6962 4.33117 17.7881 4.37097C17.88 4.41077 18.019 4.37097 18.019 4.37097C17.9302 4.43009 17.9917 4.45737 17.9917 4.45737C18.1086 4.38631 18.1793 4.41247 18.1793 4.41247C18.2165 4.51423 18.0828 4.67511 18.0828 4.67511C18.1345 4.68193 18.2317 4.67511 18.2317 4.67511C18.2081 4.74389 18.1109 4.81951 18.0395 4.84281C17.9681 4.86611 17.981 4.87521 18.0023 4.91841C18.0236 4.96161 18.0053 5.00539 18.0053 5.00539C17.8808 4.91899 17.8762 4.99629 17.8762 4.99629C17.8618 5.09869 17.8641 5.24529 17.8641 5.24529C17.776 5.20095 17.7714 5.26007 17.7714 5.26007C17.7486 5.35329 17.6408 5.46131 17.6408 5.46131C17.6362 5.40333 17.583 5.38855 17.583 5.38855C17.5268 5.49655 17.4235 5.56137 17.4235 5.56137C17.4099 5.65459 17.4357 5.78535 17.4357 5.78535C17.3689 5.77171 17.3446 5.77285 17.3339 5.78877C17.3233 5.80469 17.3491 5.81265 17.3491 5.81265L18.2195 5.83425C18.2317 5.83539 18.2833 5.84107 18.2849 5.93543C18.2864 6.02979 18.2089 6.03435 18.2089 6.03435L17.2565 6.01161C17.2565 6.01161 17.261 6.03775 17.2109 6.06391C17.1607 6.09007 17.1775 6.03435 17.1638 6.15145C17.1501 6.26855 16.9602 6.14235 16.9602 6.14235C16.9298 6.18783 16.8554 6.24695 16.8554 6.24695C16.8129 6.11847 16.7688 6.07869 16.7005 6.19011C16.6321 6.30153 16.8235 6.28221 16.8235 6.28221C16.8235 6.28221 17.9415 6.11735 18.0023 6.11167C18.063 6.10599 18.1299 6.10939 18.1572 6.19467C18.1846 6.27995 18.022 6.29359 18.022 6.29359L16.8751 6.41865C16.8508 6.48687 16.7551 6.48119 16.7551 6.48119C16.7627 6.54599 16.6944 6.58693 16.6594 6.61081C16.6245 6.63469 16.5151 6.62331 16.5151 6.62331C16.3815 6.71427 16.3161 6.64263 16.3161 6.64263C16.2296 6.68015 16.1749 6.66423 16.1035 6.63353C16.0321 6.60283 16.0382 6.51643 16.0382 6.51643L15.3143 6.59147C15.2802 6.60341 15.2566 6.62615 15.2566 6.62615C15.2824 6.65913 15.2048 6.73573 15.2048 6.73573C15.2264 6.75065 15.268 6.79243 15.2737 6.88283C15.2797 6.97845 15.1569 6.99453 15.2184 7.06105C15.28 7.12757 15.3922 7.07257 15.5175 7.01245C15.6428 6.95233 15.7659 6.96001 15.8194 6.96043C15.8729 6.96085 16.0222 6.99837 16.115 7.03121C16.2079 7.06403 16.2398 7.04443 16.2461 6.99667C16.2523 6.94891 16.2939 6.93527 16.2939 6.93527C16.2825 6.98217 16.3076 7.00307 16.3076 7.00307C16.3435 7.00563 16.4061 6.97067 16.4061 6.97067C16.4004 7.00521 16.3549 7.02695 16.3549 7.02695C16.2637 7.08791 16.3891 7.06533 16.3891 7.06533C16.6386 7.01417 16.7274 7.01929 16.7924 7.02611C16.8573 7.03293 17.1638 7.16339 17.1638 7.16339C17.1752 7.13269 17.1672 7.05681 17.1672 7.05681C17.2458 7.07813 17.2777 7.12333 17.2777 7.12333C17.3073 7.09093 17.288 7.03635 17.288 7.03635C17.5409 7.17789 17.2356 7.24185 17.1547 7.26913C17.0738 7.29641 17.0749 7.32967 17.0749 7.32967C17.1421 7.30835 17.1888 7.30067 17.2447 7.29641C17.3005 7.29215 17.2811 7.29555 17.4144 7.26913C17.5477 7.24269 17.6161 7.29897 17.6161 7.29897C17.5045 7.30493 17.4714 7.33819 17.4714 7.33819C17.5421 7.38679 17.4748 7.42773 17.4748 7.42773C17.3734 7.29983 17.2869 7.43285 17.2869 7.43285C17.3216 7.42773 17.4236 7.44905 17.4526 7.46739C17.4751 7.48157 17.5278 7.50747 17.5933 7.53773C17.6858 7.58047 17.6685 7.55307 17.7403 7.58037C17.812 7.60767 17.7847 7.67673 17.7847 7.67673C17.754 7.62045 17.6879 7.60083 17.6879 7.60083C17.6822 7.67673 17.6059 7.68951 17.6059 7.68951C17.6993 7.58547 17.4976 7.54029 17.4031 7.54199C17.3085 7.54369 17.2379 7.60423 17.2379 7.60423C17.4281 7.78245 17.5603 7.72447 17.5603 7.72447C17.5364 7.78927 17.3791 7.76369 17.3791 7.76369C17.4521 7.81911 17.4441 7.85835 17.4441 7.85835C17.4053 7.82083 17.3415 7.83959 17.2048 7.75091C17.0681 7.66223 16.9462 7.69123 16.9462 7.69123C17.0795 7.83363 16.8972 7.91805 16.8972 7.91805C16.83 7.95643 16.9257 8.00843 16.9257 8.00843C16.8414 8.02377 16.83 7.93937 16.83 7.93937C16.7856 7.93085 16.7218 7.98457 16.7218 7.98457C16.7263 7.89759 16.8403 7.94109 16.8437 7.85069C16.8471 7.76029 16.7377 7.69039 16.4153 7.73473C16.0929 7.77907 15.9983 7.67589 15.9983 7.67589C15.971 7.67675 15.9653 7.70403 15.9653 7.70403C16.0188 7.75519 16.0428 7.77651 16.0336 7.81233C16.0245 7.84815 16.0507 7.86009 16.0507 7.86009C15.9915 7.85667 15.9869 7.78591 15.9869 7.78591C15.9858 7.81491 15.9732 7.81747 15.9539 7.84815C15.9345 7.87885 15.9527 7.91807 15.9527 7.91807C15.9277 7.89589 15.8821 7.86947 15.9254 7.80637C15.9587 7.75777 15.8559 7.69551 15.8559 7.69551C15.816 7.65459 15.7101 7.69295 15.7101 7.69295C15.4902 7.73643 15.3615 7.59745 15.3615 7.59745C15.3364 7.59745 15.2885 7.58381 15.2885 7.58381C15.0561 7.68785 14.8522 7.46273 14.8522 7.46273C14.6768 7.49599 14.597 7.41157 14.5435 7.32885C14.4899 7.24613 14.4797 7.23931 14.409 7.19669C14.3384 7.15405 14.2724 7.03343 14.3372 6.96987C14.3938 6.91445 14.3771 6.90165 14.3771 6.90165C14.286 6.74845 14.5397 6.69905 14.5442 6.66239C14.5509 6.60889 14.6038 6.57507 14.6608 6.57165C14.7178 6.56823 14.7178 6.57335 14.7554 6.53499C14.793 6.49661 14.8647 6.54437 14.8647 6.54437C14.8796 6.53329 15.0049 6.43607 15.1165 6.48639C15.2282 6.53671 15.3205 6.50089 15.3205 6.50089C15.3991 6.48383 16.0519 6.39515 16.0519 6.39515C16.094 6.33205 16.1237 6.25615 16.3037 6.21523C16.4837 6.17431 16.6204 6.06259 16.6204 6.06259C16.5885 6.02849 16.5349 6.03019 16.5076 6.02677C16.4803 6.02335 16.4233 5.97475 16.4233 5.97475C16.3903 5.98925 16.3733 5.98215 16.1373 6.12567C15.9266 6.25387 15.9205 5.99949 15.9205 5.99949L15.4606 6.00033C15.4526 6.09753 15.3786 6.13591 15.3786 6.13591L15.2111 6.14443C15.1177 6.09497 15.1166 5.93041 15.1166 5.93041C14.6107 5.93809 14.3293 6.11885 14.3293 6.11885C13.7563 5.82551 13.3074 5.75901 13.3074 5.75901C14.0035 5.68311 14.3715 5.48955 14.3715 5.48955C14.7554 5.71979 15.1166 5.72575 15.1166 5.72575C15.1302 5.58675 15.2237 5.55265 15.2237 5.55265L15.3296 5.55841V5.55841Z" fill="black"/>
<path d="M14.5028 6.7134C14.3573 6.7987 14.3836 6.84529 14.3963 6.87149C14.4092 6.89821 14.4107 6.92378 14.3712 6.96358C14.3317 7.00338 14.3355 7.0172 14.3355 7.0172C14.3416 7.15858 14.4418 7.1886 14.4835 7.22328C14.5185 7.25232 14.5778 7.34332 14.5778 7.34332C14.6523 7.4502 14.7312 7.45132 14.7897 7.45132C14.8482 7.45132 14.843 7.44636 14.8133 7.42006C14.7853 7.39532 14.7267 7.3473 14.7267 7.3473C14.8049 7.37458 14.8793 7.45644 14.8793 7.45644C15.0271 7.61816 15.1634 7.59686 15.2234 7.5889C15.2834 7.58094 15.2728 7.54626 15.2728 7.54626C15.2696 7.5405 15.2112 7.53602 15.2112 7.53602C14.9895 7.51498 14.9226 7.36946 14.9226 7.36946C15.0563 7.50078 15.2659 7.5275 15.3305 7.52508C15.395 7.52266 15.3912 7.54114 15.3776 7.54456C15.3639 7.54798 15.3441 7.54456 15.3145 7.54228C15.2849 7.54 15.2849 7.5474 15.2917 7.5599C15.2986 7.5724 15.3265 7.57368 15.3618 7.5724C15.3971 7.57112 15.3686 7.57496 15.4603 7.64616C15.5521 7.71736 15.7805 7.6598 15.7805 7.6598C15.6329 7.62314 15.6124 7.55662 15.6124 7.55662C15.4119 7.58006 15.3305 7.45984 15.3305 7.45984C15.2946 7.42402 15.1874 7.36864 15.1874 7.36864C15.0741 7.32 15.0565 7.21744 15.0565 7.21744C15.0884 7.26284 15.1505 7.31488 15.2291 7.33662C15.3077 7.35836 15.3299 7.36988 15.3299 7.36988C15.2923 7.37542 15.2701 7.36306 15.2701 7.36306C15.1914 7.34004 15.2359 7.37202 15.2359 7.37202C15.3225 7.44108 15.3464 7.43598 15.3464 7.43598C15.5737 7.45942 15.4609 7.36862 15.4609 7.36862C15.6227 7.407 15.6495 7.34644 15.6495 7.34644C15.6831 7.41764 15.8055 7.39206 15.8055 7.39206C15.6426 7.4705 15.7662 7.4481 15.7662 7.4481C15.9309 7.41722 15.9631 7.45914 15.9631 7.45914C16.0077 7.50058 16.0528 7.49482 16.0528 7.49482C16.0528 7.49482 16.0824 7.49568 16.145 7.50822C16.2077 7.52076 16.3034 7.57412 16.3945 7.56284C16.4857 7.55156 16.5005 7.58016 16.5005 7.58016C16.4834 7.57426 16.4435 7.56816 16.3729 7.59972C16.3023 7.63128 16.1804 7.6415 16.0026 7.59972C15.8249 7.55794 15.8112 7.56306 15.8112 7.56306C15.8534 7.5946 15.891 7.63896 15.899 7.66964C15.9069 7.70032 15.9377 7.70204 15.9377 7.70204C15.9502 7.66282 16.0038 7.64576 16.0038 7.64576C16.0388 7.67816 16.1325 7.7208 16.1325 7.7208C16.1428 7.69948 16.1325 7.68456 16.1325 7.68456C16.2009 7.7498 16.2806 7.73018 16.2806 7.73018C16.3022 7.71488 16.2954 7.67816 16.2954 7.67816C16.3228 7.6773 16.3273 7.69436 16.3467 7.70716C16.3661 7.71996 16.4276 7.71142 16.4276 7.71142C16.4048 7.70204 16.3888 7.66708 16.3888 7.66708C16.4788 7.60484 16.6737 7.63212 16.6737 7.63212C16.8144 7.65684 16.7967 7.74894 16.7967 7.74894C16.8252 7.76258 16.8628 7.80522 16.8628 7.80522C16.8747 7.77282 16.8639 7.73998 16.8639 7.73998C16.9283 7.77068 16.942 7.84572 16.942 7.84572C17.0166 7.76044 16.8708 7.66452 16.8708 7.66452C16.9414 7.65556 17.0194 7.66196 17.0667 7.66878C17.114 7.6756 17.1818 7.70034 17.237 7.74638C17.2923 7.79242 17.3914 7.81374 17.3914 7.81374C17.3884 7.79472 17.3356 7.76258 17.3236 7.75576C17.3117 7.74894 17.3066 7.73232 17.3066 7.73232C17.355 7.74084 17.3886 7.73658 17.3886 7.73658C17.2183 7.63254 17.1755 7.5831 17.1755 7.5831C17.2393 7.5912 17.2747 7.55154 17.2747 7.55154C17.1402 7.55452 17.1357 7.51956 17.1357 7.51956C17.1522 7.52424 17.2131 7.53918 17.2935 7.5234C17.3738 7.50762 17.4854 7.52382 17.4854 7.52382C17.4273 7.43044 17.2023 7.44622 17.1305 7.45006C17.0588 7.4539 17.0309 7.44452 17.0309 7.44452C17.0423 7.43898 17.0542 7.42704 17.1106 7.42662C17.167 7.4262 17.2222 7.43088 17.286 7.38696C17.3498 7.34304 17.4374 7.35754 17.4374 7.35754C17.4161 7.31548 17.3151 7.3007 17.2262 7.35754C17.1374 7.41438 17.0569 7.3962 17.0569 7.3962C17.1974 7.3763 17.2384 7.32684 17.2384 7.32684C17.1958 7.3166 17.1723 7.33026 17.088 7.34674C17.0037 7.36322 16.9809 7.33424 16.9809 7.33424C17.0736 7.2791 17.1381 7.25692 17.1381 7.25692C17.0591 7.24044 16.9862 7.20672 16.9862 7.20672C16.9042 7.28386 16.8404 7.3274 16.6832 7.24498C16.526 7.16256 16.4439 7.17222 16.4439 7.17222C16.5822 7.09036 16.7242 7.1256 16.8275 7.18756C16.9308 7.24952 16.9604 7.19892 16.9604 7.19892C16.9278 7.17846 16.9323 7.16084 16.9323 7.16084C17.183 7.28874 17.2916 7.20916 17.347 7.17164C17.4025 7.13412 17.322 7.0841 17.322 7.0841C17.3166 7.1654 17.2141 7.20234 17.1336 7.17506C17.0531 7.14778 16.9787 7.1131 16.8628 7.06478C16.747 7.01646 16.6019 7.04148 16.4667 7.0699C16.3315 7.09832 16.3141 7.08468 16.3019 7.07388C16.2898 7.06308 16.2829 7.0301 16.2138 7.05854C16.1447 7.08696 15.9837 7.01136 15.8834 6.98748C15.7832 6.9636 15.619 6.97666 15.4771 7.05456C15.3351 7.13246 15.2652 7.11312 15.2226 7.09378C15.1801 7.07444 15.1535 7.02102 15.1991 6.97326C15.2447 6.9255 15.2485 6.91244 15.2447 6.84364C15.2409 6.77486 15.1733 6.73392 15.1733 6.73392C15.2356 6.66968 15.2508 6.65548 15.2295 6.62762C15.2082 6.59976 15.2416 6.60034 15.2773 6.58442C15.313 6.5685 15.2971 6.56622 15.2887 6.5452C15.2804 6.52416 15.2599 6.52759 15.2599 6.52759C15.1771 6.53101 15.1315 6.50827 15.1315 6.50827C14.9944 6.44517 14.8672 6.56795 14.8672 6.56795C14.7893 6.50829 14.7715 6.54691 14.7578 6.56169C14.7441 6.57647 14.7168 6.58671 14.6803 6.59011C14.6472 6.59321 14.5971 6.60619 14.5797 6.63717C14.5797 6.63717 14.5643 6.66207 14.5835 6.68933C14.5835 6.68933 14.6048 6.72142 14.566 6.7602C14.5273 6.799 14.5136 6.80838 14.5256 6.84504C14.5376 6.8817 14.5341 6.90985 14.5193 6.93373C14.5193 6.93373 14.5017 6.91326 14.5062 6.8881C14.5108 6.86295 14.5108 6.84844 14.5051 6.8348C14.5051 6.8348 14.4669 6.87232 14.4601 6.89918C14.4601 6.89918 14.4442 6.85782 14.4994 6.8024C14.5546 6.74699 14.5798 6.71939 14.5643 6.69795C14.5529 6.68217 14.5125 6.7077 14.5028 6.7134V6.7134Z" fill="#FFC221"/>
<path d="M14.6592 7.32474C14.6592 7.32474 14.5901 7.27188 14.5984 7.19854C14.6068 7.1252 14.6054 7.11612 14.5977 7.10076C14.5977 7.10076 14.5851 7.10806 14.5855 7.13658C14.5859 7.16334 14.5821 7.19116 14.5794 7.19626C14.5794 7.19626 14.5437 7.13544 14.5293 7.12406C14.5293 7.12406 14.5415 7.0604 14.5217 7.0331C14.502 7.00582 14.4829 7.0041 14.4602 7.01264C14.4288 7.02444 14.4052 7.05358 14.5105 7.13998C14.5105 7.13998 14.5498 7.17124 14.5772 7.2406C14.6045 7.30996 14.6501 7.32076 14.6592 7.32474V7.32474ZM15.0018 7.1218C15.0018 7.1218 14.9965 7.0803 15.0337 7.00696C15.0709 6.93362 15.0486 6.87914 15.0402 6.86094C15.0318 6.84274 15.0268 6.8495 15.0644 6.81798C15.1106 6.7792 15.0466 6.73024 15.1225 6.66224C15.1225 6.66224 15.1727 6.61926 15.1841 6.60164C15.1841 6.60164 15.1036 6.64484 15.0511 6.66644C14.9987 6.68804 14.7982 6.78638 14.8423 6.85232C14.8863 6.91826 14.8818 6.92168 14.8749 6.94896C14.8749 6.94896 14.7557 6.88586 14.7974 6.78354C14.7974 6.78354 14.8164 6.74232 14.8666 6.696C14.9121 6.65394 14.8848 6.7051 14.9774 6.65222C14.9774 6.65222 15.0511 6.60844 15.0899 6.54932C15.0899 6.54932 15.0413 6.58002 15.0238 6.58514C15.0238 6.58514 14.9167 6.60446 14.8734 6.64994C14.8301 6.69542 14.7382 6.77444 14.7693 6.86254C14.7693 6.86254 14.6622 6.84946 14.6379 6.73804C14.6379 6.73804 14.4397 6.98248 14.8559 7.09618C14.8559 7.09622 14.9319 7.1164 15.0018 7.1218V7.1218Z" fill="black"/>
<path d="M16.8328 6.30446C16.9883 6.28096 17.8891 6.14482 17.971 6.13652C18.0606 6.12742 18.0949 6.11546 18.1244 6.18768C18.1578 6.26954 18.0014 6.27068 18.0014 6.27068L16.9274 6.39244C16.8747 6.39852 16.8629 6.37842 16.8629 6.37842C16.8536 6.36126 16.8357 6.33842 16.8233 6.32346C16.8233 6.32344 16.8091 6.30804 16.8328 6.30446V6.30446Z" fill="#FFC221"/>
<path d="M14.6331 6.79312C14.6331 6.79312 14.5169 7.03784 14.9737 7.09838C14.9737 7.09838 14.9749 7.0711 14.9931 7.03272C15.0113 6.99434 15.0512 6.91676 15.0136 6.86644C14.976 6.81612 15.0443 6.84256 15.0546 6.7769C15.0649 6.71124 15.0478 6.72062 15.0797 6.67798C15.0797 6.67798 14.9361 6.73 14.8814 6.7931C14.8267 6.8562 14.9555 6.90396 14.8791 6.97302C14.8791 6.97302 14.8153 6.95 14.7777 6.88092C14.7778 6.88094 14.6889 6.88266 14.6331 6.79312V6.79312Z" fill="#5A3719"/>
<path d="M15.0796 7.09375C15.0796 7.09375 15.1924 7.19139 15.3268 7.18713C15.4613 7.18287 15.5182 7.14705 15.5524 7.09375C15.5524 7.09375 15.5786 7.13505 15.5786 7.16239C15.5786 7.16239 15.6948 7.06603 15.8953 7.14959C16.0959 7.23315 16.0343 7.21019 16.0788 7.21613C16.0788 7.21613 15.9935 7.20097 15.7985 7.29029C15.598 7.38213 15.0751 7.35083 15.0796 7.09375V7.09375Z" fill="black"/>
<path d="M14.893 6.66177C14.893 6.66177 14.9437 6.66944 14.9944 6.6123C14.9944 6.6123 14.926 6.62511 14.893 6.66177ZM14.5099 7.11626C14.5099 7.11626 14.4156 7.04208 14.476 7.02758C14.476 7.02758 14.519 7.02076 14.5099 7.11626Z" fill="#5A3719"/>
<path d="M16.562 7.58032C16.562 7.58032 16.6121 7.49072 16.7568 7.49072C16.9015 7.49072 16.9186 7.55724 17.1009 7.57002C17.1009 7.57002 16.882 7.6317 16.7295 7.57514C16.6498 7.54558 16.578 7.57016 16.562 7.58032V7.58032Z" fill="black"/>
<path d="M15.1296 7.15884C15.1296 7.15884 15.3461 7.29016 15.5386 7.14776C15.5386 7.14776 15.5546 7.1631 15.5683 7.19806C15.5683 7.19806 15.7141 7.05734 15.975 7.20914C15.975 7.20914 15.9429 7.20558 15.82 7.2586C15.66 7.32768 15.2595 7.37288 15.1296 7.15884V7.15884Z" fill="#5A3719"/>
<path d="M15.9648 7.29199C15.9648 7.29199 16.1722 7.31603 16.3476 7.30563C16.4554 7.29925 16.5721 7.27951 16.514 7.31603C16.4559 7.35253 16.4844 7.35595 16.7327 7.33293C16.9811 7.30991 16.7304 7.37983 16.9013 7.40199C16.9013 7.40197 16.4871 7.61345 15.9648 7.29199Z" fill="black"/>
<path d="M16.5092 7.15974C16.5092 7.15974 16.6311 7.1154 16.7439 7.16826C16.8567 7.22112 16.8396 7.2254 16.9148 7.23306C16.9148 7.23306 16.8624 7.3081 16.7382 7.24756C16.614 7.18702 16.5811 7.17534 16.5092 7.15974ZM16.6448 7.53408C16.6448 7.53408 16.7644 7.47442 16.8966 7.53644C16.9131 7.5442 16.9492 7.55918 16.9831 7.56648C16.9831 7.56648 16.8818 7.59788 16.778 7.56562C16.7349 7.55222 16.7006 7.54176 16.6448 7.53408ZM16.0535 7.32004C16.0535 7.32004 16.3201 7.34476 16.4647 7.31594C16.4647 7.31594 16.2973 7.39678 16.7177 7.35926C16.7177 7.35926 16.8111 7.34902 16.7997 7.36352C16.7883 7.37802 16.7815 7.3891 16.827 7.40274C16.827 7.40276 16.5149 7.5426 16.0535 7.32004V7.32004Z" fill="#5A3719"/>
<path d="M14.7218 7.09375C14.7218 7.09375 14.7241 7.11421 14.7833 7.14065C14.8426 7.16709 14.8745 7.21441 14.887 7.23999C14.8996 7.26557 14.9297 7.30385 14.9787 7.31605C14.9787 7.31605 14.7697 7.35967 14.6761 7.25095C14.6761 7.25095 14.605 7.17263 14.7195 7.09375" fill="black"/>
<path d="M16.3671 7.5759C16.3671 7.5759 16.2839 7.57078 16.1711 7.53156C16.0583 7.49234 16.0287 7.5256 15.9649 7.47784C15.9011 7.43008 15.7724 7.45994 15.7485 7.46334C15.7245 7.46676 15.6562 7.46334 15.7416 7.40792C15.7416 7.40792 15.6733 7.40622 15.6471 7.3721C15.6471 7.3721 15.6163 7.40194 15.5012 7.39086C15.5012 7.39086 15.5525 7.47138 15.3463 7.44818C15.3463 7.44818 15.4078 7.51962 15.4819 7.53412C15.5559 7.54862 15.5868 7.54382 15.6345 7.52986C15.6345 7.52986 15.6209 7.5921 15.7166 7.61598C15.8123 7.63986 15.8316 7.65862 15.8806 7.67822C15.8806 7.67822 15.8875 7.63814 15.7599 7.5452C15.7599 7.5452 15.8282 7.54178 15.9262 7.56566C16.0241 7.58954 16.2463 7.64668 16.3671 7.5759V7.5759ZM16.4187 7.6714C16.4187 7.6714 16.4392 7.71916 16.5023 7.70836C16.5653 7.69756 16.669 7.67908 16.7692 7.73024C16.7692 7.73024 16.7863 7.64496 16.5851 7.639C16.5851 7.639 16.459 7.64582 16.4187 7.6714V7.6714ZM14.7144 7.12396C14.7144 7.12396 14.6369 7.18762 14.7071 7.25386C14.7713 7.31436 14.8704 7.309 14.9179 7.3073C14.9179 7.3073 14.8894 7.2911 14.8644 7.25358C14.8393 7.21606 14.8384 7.1907 14.7857 7.1666C14.7311 7.1416 14.7246 7.13506 14.7144 7.12396V7.12396ZM14.6331 6.79312C14.6331 6.79312 14.5169 7.03784 14.9737 7.09838C14.9737 7.09838 14.9749 7.0711 14.9931 7.03272C15.0113 6.99434 15.0512 6.91676 15.0136 6.86644C14.976 6.81612 15.0443 6.84256 15.0546 6.7769C15.0649 6.71124 15.0478 6.72062 15.0797 6.67798C15.0797 6.67798 14.9361 6.73 14.8814 6.7931C14.8267 6.8562 14.9555 6.90396 14.8791 6.97302C14.8791 6.97302 14.8153 6.95 14.7777 6.88092C14.7778 6.88094 14.6889 6.88266 14.6331 6.79312V6.79312Z" fill="#5A3719"/>
<path d="M15.834 7.35766C15.834 7.35766 15.9297 7.34232 16.1735 7.43356C16.4173 7.5248 16.5187 7.50178 16.5551 7.49922C16.5551 7.49922 16.4176 7.57106 16.2046 7.47728C16.0163 7.39434 16.0037 7.42588 15.834 7.35766V7.35766Z" fill="black"/>
<path d="M17.3599 7.30303C17.3599 7.30303 17.4155 7.30113 17.448 7.31639C17.448 7.31639 17.4692 7.29819 17.5201 7.29279C17.5201 7.29279 17.4867 7.25925 17.3599 7.30303V7.30303ZM17.1932 7.16803C17.1932 7.16803 17.249 7.16547 17.2657 7.13875C17.2657 7.13875 17.2376 7.10293 17.1947 7.08589C17.1947 7.08587 17.2034 7.12397 17.1932 7.16803V7.16803ZM15.3198 6.54497C15.3198 6.54497 15.3095 6.51769 15.3676 6.50915C15.4257 6.50063 16.1853 6.39233 16.1853 6.39233C16.1853 6.39233 16.2255 6.39227 16.2312 6.41877C16.2374 6.44741 16.2267 6.46883 16.0432 6.49027C15.8598 6.51171 15.3756 6.57225 15.3756 6.57225C15.3756 6.57225 15.3243 6.58079 15.3198 6.54497Z" fill="#FFC221"/>
<path d="M16.0605 6.51236C16.0605 6.51236 16.0605 6.6198 16.1699 6.63572C16.276 6.65116 16.3125 6.6291 16.3408 6.57322C16.3482 6.55854 16.3808 6.44636 16.3337 6.4378C16.3152 6.43444 16.2823 6.43636 16.2588 6.4464C16.2222 6.46204 16.1882 6.48036 16.2003 6.4987C16.2261 6.53792 16.2312 6.54702 16.2216 6.54986C16.1953 6.55764 16.176 6.53458 16.1707 6.5186C16.164 6.49868 16.1852 6.48586 16.1137 6.49642C16.0845 6.50074 16.0605 6.49984 16.0605 6.51236V6.51236Z" fill="#FFC221"/>
<path d="M16.5158 6.4297C16.5717 6.43614 16.5675 6.55436 16.5006 6.6078C16.4287 6.66533 16.36 6.64475 16.36 6.64475C16.3237 6.62942 16.3282 6.63452 16.3563 6.5919C16.3829 6.55154 16.3955 6.49722 16.3806 6.45944C16.3759 6.44736 16.389 6.43756 16.4075 6.43358C16.4076 6.43356 16.4581 6.42304 16.5158 6.4297V6.4297Z" fill="#FFC221"/>
<path d="M16.5643 6.44017C16.5643 6.44017 16.6042 6.49035 16.5544 6.58285C16.5544 6.58285 16.5324 6.61013 16.5818 6.60615C16.6312 6.60217 16.7413 6.54931 16.7299 6.48165C16.7299 6.48165 16.7261 6.46517 16.6973 6.46687C16.6684 6.46857 16.6919 6.45095 16.7041 6.44755C16.7163 6.44415 16.7538 6.43021 16.6563 6.36739C16.6563 6.36739 16.6402 6.35289 16.6213 6.35887C16.6064 6.36359 16.5544 6.38491 16.5544 6.41515C16.5545 6.42755 16.5643 6.44017 16.5643 6.44017V6.44017Z" fill="#FFC221"/>
<path d="M16.671 6.35514C16.671 6.35514 16.7488 6.41095 16.7485 6.42753C16.7481 6.44411 16.7412 6.46657 16.7618 6.46459C16.7823 6.46261 16.8666 6.44469 16.8434 6.38898C16.8202 6.33326 16.7971 6.31366 16.758 6.30002C16.7188 6.28638 16.709 6.30486 16.6756 6.33014C16.6755 6.33014 16.6512 6.34492 16.671 6.35514V6.35514ZM16.2498 6.43389C16.2498 6.43389 16.2628 6.39238 16.1929 6.37704C16.1929 6.37704 16.2225 6.3526 16.2817 6.36568C16.3406 6.37866 16.3343 6.41743 16.3338 6.42253C16.3338 6.42253 16.2878 6.42081 16.2498 6.43389ZM16.4017 6.42423C16.4017 6.42423 16.4827 6.41005 16.5187 6.41457C16.5187 6.41457 16.4788 6.32532 16.371 6.35572C16.371 6.35572 16.4097 6.3995 16.4017 6.42423ZM16.5403 6.40204C16.5403 6.40204 16.5403 6.37476 16.6091 6.34746C16.6091 6.34746 16.5757 6.31606 16.5293 6.31904C16.4762 6.32246 16.4655 6.34178 16.4655 6.34178C16.4655 6.34178 16.5233 6.36182 16.5403 6.40204ZM16.5673 6.30882C16.5673 6.30882 16.6098 6.31962 16.6364 6.34236C16.6364 6.34236 16.6767 6.29836 16.7109 6.28892C16.7109 6.28892 16.644 6.2531 16.5673 6.30882Z" fill="#FFC221"/>
<path d="M14.3307 6.09405C14.3307 6.09405 14.5184 5.93505 14.6235 5.95421C14.7286 5.97335 14.6759 5.96017 14.791 5.94227C14.9061 5.92437 15.0246 5.91243 15.0724 5.91839C15.0724 5.91839 14.9334 5.81863 14.685 5.82033C14.685 5.82033 14.5096 5.88087 14.3888 5.96103C14.3888 5.96103 14.1564 5.83141 13.916 5.90901C13.916 5.90901 14.1769 6.00365 14.3307 6.09405Z" fill="#5A3719"/>
<path d="M16.3267 6.36927L16.358 6.36401C16.358 6.36401 16.4109 6.42949 16.3725 6.43023C16.3425 6.43083 16.3546 6.42099 16.3489 6.40195C16.3432 6.38291 16.333 6.37439 16.3267 6.36927ZM16.0909 6.37439C16.0909 6.37439 16.0721 6.39777 16.1074 6.39229C16.1504 6.38563 16.1421 6.39373 16.1894 6.36173C16.1894 6.36173 16.2185 6.33089 16.2726 6.35009C16.2726 6.35009 16.3182 6.36501 16.3552 6.34711C16.3922 6.32921 16.4008 6.33049 16.4207 6.33219C16.4406 6.33389 16.4393 6.33819 16.4659 6.31877C16.4925 6.29935 16.5386 6.31427 16.5677 6.28997C16.5967 6.26567 16.6332 6.28613 16.5677 6.23923C16.5677 6.23923 16.554 6.22559 16.5551 6.21407C16.5551 6.21407 16.5802 6.22131 16.6001 6.23923C16.6201 6.25713 16.6531 6.25159 16.6588 6.24861C16.6588 6.24861 16.6622 6.19019 16.7203 6.13647C16.7784 6.08275 16.779 6.07849 16.7448 6.07805C16.7106 6.07763 16.6531 6.06441 16.6337 6.07805C16.6144 6.09169 16.444 6.20339 16.3449 6.22215C16.2458 6.24093 16.1547 6.26907 16.0909 6.37439V6.37439ZM13.446 5.76328C13.446 5.76328 13.7502 5.84172 13.8186 5.8747C13.8186 5.8747 13.8349 5.82382 13.6967 5.78402C13.6967 5.78402 14.0324 5.77378 14.3878 5.93524C14.3878 5.93524 14.5592 5.78832 15.1106 5.8338C15.1106 5.8338 15.1117 5.7851 15.1155 5.74764C15.1155 5.74764 14.7281 5.73628 14.3726 5.52026C14.3726 5.52024 14.0544 5.67686 13.446 5.76328V5.76328ZM15.1367 5.91022C15.1155 5.59926 15.2347 5.57142 15.2347 5.57142C15.2347 5.57142 15.2909 5.57174 15.3517 5.58108C15.3517 5.58108 15.2575 5.69306 15.2825 5.91534C15.2825 5.91534 15.2924 5.95116 15.2127 5.95116C15.1342 5.95116 15.1367 5.91022 15.1367 5.91022V5.91022Z" fill="#FFC221"/>
<path d="M15.2176 6.11603C15.2176 6.11603 15.1599 6.05691 15.1538 5.98869C15.1538 5.98869 15.1523 5.97107 15.2108 5.97277C15.2693 5.97447 15.2769 5.96715 15.2913 6.00119C15.3053 6.03429 15.3422 6.10409 15.3513 6.11205L15.2176 6.11603V6.11603Z" fill="#5A3719"/>
<path d="M15.3425 5.96094C15.3372 5.92026 15.3352 5.88554 15.3361 5.84274C15.3399 5.66936 15.3687 5.68476 15.3801 5.70638L15.4394 5.70746C15.4394 5.70746 15.3961 5.5119 15.3452 5.62616C15.2952 5.7384 15.2989 5.81148 15.3049 5.90016C15.3084 5.95124 15.3152 5.98304 15.3209 6.00216L15.3425 5.96094Z" fill="#FFC221"/>
<path d="M16.0126 5.96124C16.0126 5.96124 16.1271 5.97872 15.9516 6.0205C15.9516 6.0205 15.9602 6.2325 16.1675 6.08402C16.1675 6.08402 16.29 6.00572 16.3749 5.97388C16.3749 5.97388 16.4176 5.9591 16.4125 5.92712C16.4125 5.92712 16.4159 5.88946 16.3714 5.89684C16.3714 5.89684 16.3364 5.89766 16.3139 5.88944C16.3139 5.88944 16.2894 5.86059 16.2729 5.87167C16.2564 5.88276 16.2176 5.87636 16.2478 5.91304C16.278 5.9497 16.2871 5.94032 16.3019 5.92966C16.3168 5.919 16.3823 5.893 16.3219 5.94714C16.2615 6.00128 16.2142 5.9173 16.1948 5.90194L16.0126 5.96124V5.96124ZM15.4395 5.98526L15.3886 5.98412C15.3886 5.98412 15.3613 6.02506 15.3426 5.96078L15.321 6.00198C15.321 6.00198 15.3841 6.22962 15.4395 5.98526Z" fill="#5A3719"/>
<path d="M15.3671 5.72273C15.3671 5.72273 15.3413 5.87167 15.374 5.96377L15.9246 5.97401C15.9246 5.97401 15.9178 5.86713 15.9261 5.72275H15.8479C15.8479 5.72275 15.8373 5.84269 15.8471 5.91659L15.8342 5.91685C15.8342 5.91685 15.8244 5.81313 15.835 5.72275H15.7704C15.7704 5.72275 15.7598 5.83361 15.7681 5.91773H15.756C15.756 5.91773 15.7469 5.82053 15.7575 5.72275H15.6937C15.6937 5.72275 15.682 5.82315 15.6945 5.91635L15.6793 5.91603C15.6793 5.91603 15.6664 5.81427 15.68 5.72275H15.6094C15.6094 5.72275 15.5919 5.81655 15.6086 5.91717H15.5942C15.5942 5.91717 15.5783 5.82109 15.5957 5.72275H15.5251C15.5251 5.72275 15.5084 5.82905 15.5228 5.91717H15.5091C15.5091 5.91717 15.4977 5.81427 15.5129 5.72275H15.4468C15.4468 5.72275 15.4294 5.81257 15.4438 5.91717H15.4294C15.4294 5.91717 15.4187 5.83929 15.4324 5.72275H15.3671V5.72273ZM15.9489 5.99447C15.9489 5.99447 15.9337 5.72499 15.9854 5.65567C16.0371 5.58635 16.0476 5.59995 16.1357 5.65567C16.2238 5.71137 16.3378 5.77163 16.356 5.77845C16.3742 5.78527 16.4001 5.79209 16.4001 5.84099C16.4001 5.88989 16.4092 5.90465 16.3332 5.84327C16.3218 5.83407 16.2863 5.80157 16.2607 5.79339C16.1926 5.77167 16.277 5.80863 16.3013 5.84327C16.3219 5.87263 16.3378 5.86941 16.2846 5.88307C16.2315 5.89673 16.0476 5.95809 15.9489 5.99447Z" fill="#FFC221"/>
<path d="M16.1423 5.80142C16.1423 5.80142 16.1025 5.75104 16.1532 5.73952C16.2039 5.728 16.2078 5.81924 16.2164 5.87424C16.2249 5.92924 16.1526 5.81866 16.1423 5.80142V5.80142ZM16.0683 6.03626C16.0683 6.03626 16.0091 6.058 16.0478 6.07718C16.0865 6.09636 16.1959 6.00556 16.1583 6.01152C16.1207 6.0175 16.0683 6.03626 16.0683 6.03626ZM16.1486 5.95312C16.1486 5.95312 16.201 5.948 16.1908 5.9706C16.1805 5.9932 16.1617 5.97884 16.1538 5.97386C16.1458 5.9689 16.1087 5.9561 16.1486 5.95312V5.95312Z" fill="black"/>
<path d="M16.4275 5.88278C16.4275 5.88278 16.4415 5.98538 16.5296 6.0114C16.5296 6.0114 16.5805 6.02404 16.5699 5.97914C16.5699 5.97914 16.5611 5.94162 16.5539 5.92598C16.5467 5.91034 16.5114 5.9004 16.5076 5.8987C16.5038 5.897 16.4992 5.8862 16.5236 5.89416C16.5479 5.90212 16.5517 5.90298 16.5498 5.88592C16.5479 5.86886 16.5336 5.87572 16.5112 5.86482C16.5027 5.86062 16.5122 5.85494 16.5213 5.85694C16.5304 5.85892 16.552 5.86546 16.5524 5.83022C16.5524 5.83022 16.5572 5.81062 16.5304 5.80918C16.5012 5.80762 16.5034 5.79454 16.5126 5.79256C16.5217 5.79058 16.5523 5.81178 16.5608 5.77692C16.5695 5.7411 16.5186 5.76172 16.5255 5.74324C16.5323 5.72476 16.5684 5.7538 16.5714 5.73188C16.5743 5.71056 16.6034 5.70127 16.5538 5.69439C16.5302 5.69113 16.552 5.68069 16.5784 5.68441C16.6067 5.68839 16.6238 5.65343 16.6402 5.64205C16.6565 5.63069 16.7488 5.57555 16.6257 5.59373C16.5027 5.61191 16.4666 5.67161 16.4586 5.68355C16.4506 5.69547 16.4164 5.76596 16.4275 5.88278V5.88278Z" fill="#FFC221"/>
<path d="M16.7139 5.96227C16.7297 5.95923 16.7446 5.96353 16.75 5.97455C16.7703 6.01611 16.7238 6.00127 16.698 6.03197C16.6722 6.06267 16.6714 6.05641 16.635 6.04567C16.5985 6.03493 16.5848 5.97967 16.5848 5.97967C16.5807 5.96271 16.5965 5.96127 16.6154 5.96343C16.6154 5.96345 16.6758 5.96961 16.7139 5.96227V5.96227ZM16.5806 5.94017C16.5806 5.94017 16.5832 5.95261 16.6041 5.95431C16.6249 5.95601 16.6856 5.96127 16.7217 5.94963C16.7217 5.94963 16.735 5.94701 16.729 5.92351C16.729 5.92351 16.7286 5.90827 16.6961 5.91445C16.6636 5.92063 16.6166 5.91445 16.6009 5.91103C16.5853 5.90763 16.5725 5.91133 16.5806 5.94017V5.94017ZM16.5757 5.86571C16.5757 5.86571 16.5745 5.89811 16.6072 5.90237C16.6399 5.90663 16.6805 5.90647 16.6975 5.90313C16.7104 5.90057 16.7337 5.89585 16.7356 5.87679C16.7375 5.85775 16.7428 5.84353 16.7025 5.85349C16.6623 5.86343 16.6137 5.85691 16.6087 5.85577C16.6038 5.85463 16.5764 5.84637 16.5757 5.86571V5.86571ZM16.5905 5.80033C16.5905 5.80033 16.5825 5.81511 16.5837 5.82933C16.5848 5.84355 16.6083 5.84837 16.6509 5.84895C16.6934 5.84953 16.7314 5.84327 16.7341 5.82905C16.7367 5.81483 16.747 5.79835 16.7136 5.80347C16.6801 5.80859 16.638 5.81001 16.6213 5.80319C16.6045 5.79635 16.5933 5.79399 16.5905 5.80033Z" fill="#FFC221"/>
<path d="M18.1519 5.96529C18.1519 5.96529 18.1514 5.99493 18.1747 6.02413L16.9941 5.99023C16.9941 5.99023 17.0114 5.97957 17.0158 5.93359L18.1519 5.96529Z" fill="#5A3719"/>
<path d="M16.6001 5.75132C16.6001 5.75132 16.5899 5.78116 16.6111 5.78714C16.6324 5.7931 16.6689 5.79964 16.7171 5.79198C16.7171 5.79198 16.7414 5.79368 16.7498 5.76782C16.7581 5.74196 16.7573 5.75646 16.6886 5.7428C16.6886 5.7428 16.667 5.7365 16.7296 5.73626C16.7296 5.73626 16.7646 5.7374 16.7699 5.73142C16.7752 5.72546 16.8215 5.68878 16.7615 5.69106C16.7015 5.69334 16.7312 5.68054 16.7615 5.68054C16.7919 5.68054 16.8014 5.6868 16.8113 5.67712C16.8212 5.66746 16.812 5.674 16.7957 5.6575C16.7794 5.64102 16.7908 5.64584 16.8025 5.65494C16.8143 5.66404 16.8215 5.66688 16.8348 5.65522C16.8481 5.64356 16.8246 5.62652 16.8348 5.6285C16.8451 5.63048 16.85 5.64996 16.8887 5.6312C16.9275 5.61244 16.9799 5.62224 16.9941 5.6329C17.0084 5.64356 17.0488 5.6572 17.0733 5.63204C17.0978 5.60688 17.0442 5.58642 17.067 5.583C17.0898 5.57958 17.1058 5.58768 17.1149 5.56936C17.124 5.55102 17.0796 5.53354 17.1223 5.52204C17.165 5.51052 17.1291 5.39072 17.1143 5.37964C17.1143 5.37964 17.0665 5.40778 17.0141 5.49262C16.9616 5.57746 16.9309 5.62692 16.8597 5.60092C16.757 5.5634 16.7045 5.61734 16.6886 5.62706C16.6639 5.64212 16.7401 5.64952 16.6956 5.65036C16.6512 5.65122 16.6512 5.65504 16.6467 5.66188C16.6421 5.6687 16.6461 5.67468 16.6541 5.6751C16.662 5.67552 16.6791 5.69258 16.6518 5.69172C16.6244 5.69086 16.6051 5.6866 16.6131 5.71566C16.6131 5.71566 16.6136 5.722 16.6296 5.7237C16.6455 5.7254 16.6512 5.74204 16.6216 5.74204C16.6026 5.74208 16.6007 5.74944 16.6001 5.75132V5.75132ZM16.7093 6.04734C16.7093 6.04734 16.6882 6.06226 16.7173 6.06396C16.7463 6.06566 16.7617 6.0712 16.7708 6.05564C16.7799 6.04008 16.8192 6.04648 16.793 6.02472C16.7668 6.003 16.7492 6.01536 16.7093 6.04734Z" fill="#FFC221"/>
<path d="M16.8314 5.69225C16.8314 5.69225 16.9297 5.59973 17.0119 5.66241C17.094 5.72509 17.102 5.73447 17.1031 5.73575C17.1043 5.73703 17.1128 5.74385 17.0906 5.76347C17.0684 5.78309 17.09 5.78265 17.1145 5.77071C17.139 5.75877 17.1407 5.76985 17.1527 5.78307C17.1646 5.79629 17.1806 5.80397 17.1427 5.80439C17.1048 5.80481 17.0234 5.80439 17.0234 5.80439C17.0234 5.80439 16.9681 5.80907 16.996 5.78649C17.024 5.76389 17.02 5.73703 17.0057 5.73533C16.9915 5.73363 17.0046 5.74897 16.996 5.75963C16.9875 5.77029 16.9681 5.78009 16.9488 5.77967C16.9294 5.77925 16.9123 5.79369 16.9431 5.80481C16.9738 5.81591 16.9396 5.82319 16.9237 5.82275C16.9077 5.82231 16.8308 5.82871 16.9089 5.83809C16.9869 5.84747 16.9019 5.84521 16.959 5.87787C17.0222 5.91399 16.9767 5.99073 16.9528 5.99755C16.9528 5.99755 16.9266 6.01181 16.9596 6.00787C16.9926 6.00395 17.0109 5.99925 16.9875 6.01715C16.9642 6.03505 16.9175 6.09475 16.8525 6.04913C16.8525 6.04913 16.8229 6.03507 16.8759 6.03251C16.9289 6.02995 16.8326 6.01863 16.8166 6.00787C16.8007 5.99711 16.7397 5.93487 16.7779 5.94255C16.816 5.95023 16.8024 5.92805 16.7796 5.91995C16.7568 5.91185 16.7522 5.87689 16.7779 5.88457C16.8035 5.89225 16.8337 5.90653 16.8542 5.90557C16.8747 5.90461 16.869 5.89607 16.8252 5.88243C16.7813 5.86879 16.7631 5.86665 16.7733 5.82957C16.7836 5.79249 16.8314 5.84407 16.82 5.81635C16.8087 5.78863 16.7671 5.80229 16.7893 5.76561C16.8115 5.72895 16.8166 5.74471 16.8269 5.74941C16.8371 5.75411 16.8535 5.75061 16.8246 5.72895C16.8063 5.71527 16.8262 5.69677 16.8314 5.69225V5.69225Z" fill="#FFC221"/>
<path d="M16.9019 5.71772C16.9019 5.71772 16.9013 5.70536 16.9189 5.70748C16.9366 5.70962 16.932 5.70108 16.9372 5.69852C16.9423 5.69596 16.9865 5.71168 16.9451 5.72666C16.9299 5.7322 16.9059 5.72824 16.9019 5.71772Z" fill="black"/>
<path d="M16.9957 5.82275C16.9957 5.82275 16.9625 5.83967 16.9926 5.87453C17.0182 5.90425 17.0181 5.91367 17.0159 5.93343C17.0138 5.95319 18.1521 5.96513 18.1521 5.96513C18.1521 5.96513 18.1501 5.89201 18.1988 5.85087C18.1988 5.85089 17.5768 5.83639 16.9957 5.82275V5.82275Z" fill="#FFC221"/>
<path d="M18.1719 5.945C18.1719 5.945 18.1765 5.88332 18.2106 5.86288C18.2294 5.85162 18.2542 5.85818 18.2651 5.9079C18.2805 5.97862 18.2205 6.03878 18.1927 6.01192C18.1662 5.98636 18.1719 5.945 18.1719 5.945Z" fill="#5A3719"/>
<path d="M16.8668 6.21117C16.8668 6.21117 16.9425 6.14679 16.9539 6.11779C16.9539 6.11779 17.159 6.26306 17.1465 6.12967C17.1465 6.12967 17.1471 6.09391 17.1528 6.05981C17.1528 6.05981 17.2269 6.06709 17.2382 6.00789L17.0468 6.00225C17.0468 6.00225 17.0268 5.99799 16.9972 6.02997C16.9676 6.06195 16.9066 6.09695 16.8497 6.06643C16.8497 6.06643 16.8258 6.04573 16.8016 6.06321C16.7773 6.08069 16.7762 6.08581 16.7961 6.10457C16.8161 6.12335 16.8588 6.18091 16.8668 6.21117ZM17.3071 5.80997L17.1949 5.80571C17.1949 5.80571 17.1539 5.74815 17.0741 5.68419C17.0741 5.68419 17.0508 5.67395 17.0958 5.63815C17.1408 5.60233 17.1539 5.56397 17.1556 5.54649C17.1573 5.52901 17.1528 5.50173 17.1699 5.52261C17.1869 5.54351 17.3032 5.64839 17.3197 5.61727C17.3362 5.58615 17.339 5.57165 17.3419 5.56227C17.3448 5.55289 17.3487 5.52389 17.3653 5.55417C17.3818 5.58445 17.3931 5.57671 17.3937 5.65521C17.3937 5.65521 17.3966 5.73281 17.4086 5.76095C17.4085 5.76095 17.2616 5.71387 17.3071 5.80997V5.80997ZM16.8201 5.57121C16.8201 5.57121 16.9055 5.61897 16.9477 5.55415C16.9898 5.48935 17.0183 5.47911 16.9864 5.41687C16.9545 5.35463 16.9873 5.32563 17.0113 5.30005C17.0354 5.27447 17.0559 5.27873 17.0593 5.17981C17.0628 5.08089 17.1311 5.04765 17.1619 5.01695C17.1926 4.98625 17.2701 4.93935 17.1528 4.91975C17.0354 4.90013 16.803 4.83959 16.7426 4.74921C16.6822 4.65883 16.6549 4.71255 16.6537 4.71595C16.6526 4.71937 16.6332 4.78587 16.6936 4.90611C16.754 5.02635 16.8053 5.10365 16.8634 5.14259C16.9215 5.18153 16.9739 5.20285 16.9443 5.28301C16.9146 5.36315 16.8634 5.50641 16.8201 5.57121V5.57121Z" fill="#7B3C20"/>
<path d="M17.1357 5.31547C17.1357 5.31547 17.1506 5.52096 17.3009 5.5943C17.3009 5.5943 17.3351 5.51415 17.3214 5.43485C17.3214 5.43485 17.3704 5.43911 17.3841 5.46129C17.3841 5.46129 17.3864 5.40161 17.3157 5.37985C17.2451 5.35811 17.2793 5.22423 17.3043 5.20889C17.3294 5.19355 17.3214 5.16683 17.3043 5.14267C17.2873 5.11851 17.2827 5.08185 17.3419 5.09719C17.4012 5.11253 17.3921 5.08099 17.3568 5.05199C17.3215 5.02299 17.3226 4.98719 17.3727 4.98719C17.4228 4.98719 17.506 4.93859 17.4559 4.92323C17.4057 4.90789 17.3898 4.89169 17.4581 4.87207C17.5265 4.85245 17.5595 4.82773 17.5083 4.82177C17.457 4.81581 17.4228 4.79789 17.4729 4.78937C17.5231 4.78085 17.4638 4.72969 17.4057 4.72713C17.3476 4.72457 17.2223 4.74845 17.3214 4.66915C17.4205 4.58985 17.179 4.64783 17.2781 4.59581C17.3772 4.54379 17.2451 4.56681 17.2269 4.56597C17.2086 4.56513 17.2088 4.56597 17.2156 4.53953C17.2223 4.51309 17.2018 4.50115 17.1733 4.51735C17.1448 4.53355 17.1448 4.53355 17.146 4.49689C17.1471 4.46023 17.1118 4.48751 17.0901 4.49689C17.0685 4.50627 17.0138 4.54719 16.9922 4.52503C16.9705 4.50287 16.958 4.47983 16.8908 4.52077C16.8235 4.56169 16.8395 4.52503 16.8406 4.50713C16.8418 4.48923 16.8668 4.41845 16.7746 4.49433C16.6823 4.57023 16.7575 4.41247 16.6846 4.46619C16.6116 4.51991 16.6037 4.52929 16.5923 4.50541C16.5809 4.48153 16.5671 4.46193 16.4868 4.51309C16.4066 4.56425 16.4658 4.48239 16.4772 4.46449C16.4886 4.44659 16.5228 4.33061 16.4521 4.42101C16.4521 4.42101 16.418 4.48411 16.3416 4.37155C16.3416 4.37155 16.2607 4.48337 16.2402 4.43385C16.2197 4.38435 16.1992 4.37923 16.173 4.41163C16.1468 4.44403 16.1662 4.40993 16.1548 4.38263C16.1434 4.35533 16.1366 4.30503 16.0021 4.40309C15.8677 4.50115 16.0488 4.42953 15.9463 4.47387C15.8438 4.51821 15.5965 4.65805 15.8233 4.62565C16.05 4.59325 15.7127 4.71433 15.7914 4.73651C15.87 4.75869 15.8449 4.82689 16.14 4.74589C16.4351 4.66489 16.3872 4.73309 16.5376 4.66829C16.688 4.60349 16.5034 4.69047 16.7051 4.68619C16.9067 4.68193 16.7392 4.68705 16.778 4.72883C16.8167 4.77061 16.9876 4.86953 17.1471 4.88573C17.3066 4.90193 17.3453 4.84225 17.2998 4.91131C17.2542 4.98037 17.2382 5.00681 17.2109 5.03069C17.1836 5.05457 17.1084 5.10913 17.1072 5.20465C17.1061 5.30015 16.9819 5.31551 17.0275 5.42123C17.0275 5.42121 17.0982 5.35299 17.1357 5.31547V5.31547Z" fill="#5A3719"/>
<path d="M17.3981 5.5452C17.3981 5.5452 17.3617 5.51962 17.3624 5.47414C17.3624 5.47414 17.3883 5.47868 17.3981 5.49518C17.3981 5.49518 17.49 5.39114 17.3803 5.35364C17.2705 5.31612 17.3252 5.21664 17.3624 5.21606C17.3996 5.21548 17.4061 5.20526 17.3748 5.16376C17.3434 5.12226 17.3457 5.12056 17.408 5.10976C17.4703 5.09896 17.4618 5.08588 17.4341 5.07054C17.4065 5.0552 17.3853 5.03018 17.3853 5.03018C17.3853 5.03018 17.5614 4.95344 17.5044 4.9182C17.4475 4.88296 17.5044 4.89206 17.5553 4.85566C17.6062 4.81928 17.613 4.81246 17.6206 4.79824C17.6206 4.79824 17.5703 4.80336 17.5332 4.79596C17.5332 4.79596 17.5772 4.77436 17.5332 4.73854C17.4892 4.70272 17.471 4.67032 17.4011 4.6868C17.3313 4.70328 17.354 4.67998 17.3814 4.65098C17.4087 4.62198 17.3958 4.6055 17.3465 4.59812C17.3465 4.59812 17.3525 4.56856 17.3898 4.5316C17.3898 4.5316 17.2948 4.53842 17.2629 4.52194C17.2629 4.52194 17.3009 4.4958 17.3039 4.46452C17.3039 4.46452 17.2515 4.48158 17.1855 4.47532C17.1855 4.47532 17.2242 4.44178 17.2242 4.41222C17.2242 4.41222 17.1095 4.4378 17.0563 4.47816C17.0563 4.47816 17.0449 4.47588 17.0358 4.46338C17.0267 4.45088 17.0199 4.43836 16.893 4.47872C16.893 4.47872 16.9075 4.42244 16.9379 4.3997C16.9682 4.37696 16.9637 4.33148 16.7662 4.45484C16.7662 4.45484 16.7396 4.43892 16.7176 4.3798C16.7176 4.3798 16.6751 4.44006 16.6424 4.46052C16.6424 4.46052 16.6151 4.472 16.6185 4.43358C16.6219 4.39516 16.5991 4.42254 16.5786 4.43358C16.5581 4.44462 16.5444 4.4719 16.5547 4.3943C16.5649 4.3167 16.5273 4.3005 16.5273 4.3005C16.5273 4.3005 16.4658 4.38748 16.4305 4.39686C16.4305 4.39686 16.3656 4.33376 16.3428 4.29198C16.32 4.2502 16.32 4.23484 16.2972 4.30732C16.2744 4.3798 16.2459 4.38576 16.2459 4.38576C16.2459 4.38576 16.2072 4.3525 16.2026 4.3346C16.2026 4.3346 16.1958 4.35422 16.1833 4.36274C16.1833 4.36274 16.1491 4.32266 16.1502 4.26468C16.1502 4.26468 15.9383 4.3815 15.9121 4.45228C15.9121 4.45228 15.7116 4.44034 15.6285 4.4557C15.6285 4.4557 15.649 4.3909 15.7014 4.3585C15.7014 4.3585 15.649 4.35254 15.6467 4.29882C15.6467 4.29882 15.6889 4.30478 15.7151 4.29796C15.7413 4.29114 15.6786 4.21524 15.7447 4.21354C15.8108 4.21184 15.8529 4.24508 15.8233 4.15726C15.7937 4.06944 15.8074 4.06944 15.8074 4.06944C15.8074 4.06944 15.9224 4.13766 15.9406 4.1206C15.9589 4.10354 15.9258 4.06688 16.0284 4.08394C16.1309 4.101 16.1024 4.04216 16.1423 4.0396C16.1822 4.03704 16.2038 4.06518 16.1787 3.8793C16.1537 3.69342 16.3029 3.9714 16.2015 3.69086C16.2015 3.69086 16.1759 3.60602 16.1149 3.56978C16.1149 3.56978 16.1013 3.63118 16.0323 3.57702C15.9634 3.52286 15.8278 3.50368 15.8848 3.46106C15.9418 3.41842 15.9685 3.3613 15.952 3.32548C15.952 3.32548 15.8848 3.3957 15.768 3.34552C15.6758 3.30586 15.6564 3.37878 15.5618 3.35746C15.5618 3.35746 15.5635 3.33316 15.6433 3.27048C15.7231 3.2078 15.5972 3.29138 15.5476 3.30246C15.498 3.31354 15.4838 3.3046 15.5886 3.22358C15.6934 3.14258 15.9008 2.99932 15.8723 2.88164C15.8723 2.88164 15.9213 2.94388 16.05 2.8987C16.1787 2.85352 16.2744 2.8373 16.3132 2.7708C16.3519 2.70428 16.4533 2.63692 16.4795 2.62242C16.5057 2.60792 16.541 2.5977 16.5012 2.6608C16.4613 2.7239 16.3963 2.8322 16.2186 2.90552C16.0409 2.97886 15.9725 3.03258 15.9406 3.07094C15.9087 3.10932 15.747 3.19544 15.8518 3.18094C15.9566 3.16644 16.1389 3.1835 16.0534 3.15876C15.968 3.13404 15.8712 3.1741 15.9498 3.10248C16.0284 3.03086 16.042 3.00698 16.156 2.95922C16.2699 2.91146 16.3963 2.80232 16.3838 2.91828C16.3713 3.03424 16.1594 3.1579 16.107 3.1954C16.0546 3.23292 16.0739 3.22696 16.0751 3.2423C16.0762 3.25764 16.0671 3.2892 16.0455 3.3037C16.0238 3.3182 16.0306 3.3344 16.0363 3.3668C16.042 3.3992 16.0306 3.412 16.0466 3.4171C16.0626 3.4222 16.0785 3.42478 16.0831 3.4478C16.0876 3.47082 16.0996 3.4738 16.1303 3.47124C16.1611 3.46868 16.1805 3.47166 16.1827 3.48958C16.185 3.50748 16.2141 3.53178 16.2175 3.47722C16.2209 3.42264 16.2408 3.41198 16.185 3.43714C16.1292 3.4623 16.1172 3.45334 16.1184 3.42734C16.1195 3.40134 16.1133 3.4073 16.0899 3.40516C16.0665 3.40302 16.0586 3.3702 16.1002 3.34846C16.1417 3.32672 16.1412 3.34888 16.193 3.30582C16.2449 3.26276 16.2449 3.25082 16.2528 3.23078C16.2608 3.21074 16.1788 3.2892 16.1395 3.3071C16.1002 3.325 16.1104 3.29474 16.1173 3.24996C16.1241 3.20518 16.2221 3.14678 16.2671 3.14592C16.3121 3.14506 16.4135 3.1715 16.3696 3.2329C16.3258 3.2943 16.2016 3.3672 16.2551 3.37274C16.3087 3.37828 16.3172 3.3574 16.348 3.38468C16.3787 3.41196 16.3503 3.4674 16.336 3.49682C16.3218 3.52624 16.2922 3.56334 16.2791 3.57016C16.2791 3.57016 16.2227 3.46954 16.2244 3.54926C16.2261 3.62898 16.2124 3.65756 16.2244 3.66054C16.2363 3.66352 16.299 3.7053 16.3189 3.70616C16.3389 3.70702 16.2107 3.76628 16.2643 3.77012C16.3178 3.77396 16.4027 3.74668 16.4323 3.69124C16.4323 3.69124 16.3235 3.6648 16.2796 3.62388C16.2796 3.62388 16.4067 3.59404 16.3714 3.47168C16.3714 3.47168 16.4978 3.50622 16.4431 3.56334C16.3885 3.62048 16.3554 3.61194 16.4027 3.62814C16.45 3.64434 16.4733 3.65798 16.4733 3.65798C16.4733 3.65798 16.5057 3.67418 16.4869 3.70062C16.4682 3.72706 16.4676 3.76714 16.4836 3.76628C16.4995 3.76542 16.5531 3.7407 16.5081 3.71342C16.4631 3.68614 16.5593 3.69082 16.5183 3.6678C16.4773 3.64478 16.4665 3.63924 16.4557 3.62814C16.4449 3.61706 16.9706 3.3088 16.7052 3.42434C16.7052 3.42434 16.7604 3.30454 16.8379 3.3041C16.9154 3.30366 16.9211 3.36506 16.8772 3.41154C16.8333 3.45802 16.8049 3.5305 16.7018 3.54754C16.7018 3.54754 16.8491 3.61974 16.675 3.7377C16.675 3.7377 16.6372 3.7556 16.6509 3.76868C16.6645 3.78176 16.7678 3.7232 16.7823 3.69024C16.7967 3.65726 16.8187 3.63168 16.8582 3.61236C16.8977 3.59304 17.0922 3.46058 17.1506 3.36052C17.2091 3.26046 17.2251 3.25706 17.339 3.16554C17.4529 3.07402 17.4332 3.0922 17.4476 3.07004C17.4621 3.04788 17.4681 3.01148 17.5205 2.98192C17.573 2.95236 17.7765 2.83924 17.8403 2.79318C17.9041 2.74714 18.0347 2.66244 18.0909 2.5908C18.1471 2.51918 18.2985 2.42768 18.3363 2.4447C18.374 2.46172 18.3325 2.5152 18.2436 2.58284C18.1547 2.65048 17.9345 2.82842 17.8988 2.8557C17.8631 2.88298 17.6762 3.01942 17.6064 3.02852C17.5365 3.03762 17.5441 3.06206 17.5023 3.10754C17.4605 3.15302 17.3641 3.24852 17.3314 3.27468C17.2987 3.30082 17.2213 3.35426 17.2167 3.39178C17.2122 3.4293 17.2304 3.43384 17.1681 3.4924C17.1058 3.55096 16.9236 3.6834 16.8575 3.70444C16.8575 3.70444 16.9744 3.7431 16.9046 3.82212C16.8347 3.90114 16.8392 3.88976 16.8339 3.89488C16.8339 3.89488 17.0115 3.86874 16.8856 4.00686C16.8856 4.00686 16.8613 4.04666 16.9175 4.00516C16.9775 3.9608 16.9516 3.9 16.9448 3.89146C16.9448 3.89146 17.039 3.8329 17.1476 3.8312C17.2562 3.8295 17.2524 3.8221 17.1552 3.79424C17.1552 3.79424 17.2243 3.7101 17.2828 3.7516C17.3413 3.7931 17.3223 3.81698 17.2608 3.84994C17.1993 3.88292 17.1081 3.89656 17.0405 3.93408C17.0405 3.93408 17.1689 3.9591 17.238 3.9068C17.3071 3.8545 17.3102 3.88066 17.3193 3.88974C17.3284 3.89884 17.336 3.91588 17.3056 3.95966C17.2752 4.00344 17.2722 4.0057 17.2737 4.01538C17.2752 4.02504 17.2714 4.05518 17.2091 4.0654C17.1468 4.07564 17.1187 4.10178 17.14 4.13134C17.1613 4.1609 17.162 4.23424 17.1089 4.22742C17.0557 4.2206 17.0701 4.17854 17.0496 4.16204C17.0291 4.14556 17.0003 4.11998 16.9076 4.1683C16.8149 4.21662 16.8073 4.1592 16.8119 4.12908C16.8119 4.12908 16.7519 4.18138 16.7017 4.13306C16.6516 4.08474 16.6972 4.06598 16.726 4.04154C16.7549 4.0171 16.8726 3.96594 16.802 3.97502C16.7314 3.9841 16.6258 3.98866 16.6015 3.9341C16.5772 3.87952 16.6539 3.88578 16.666 3.8909C16.6782 3.89602 16.7283 3.93638 16.7298 3.8835C16.7314 3.83064 16.8096 3.82494 16.783 3.81414C16.7564 3.80334 16.7192 3.83688 16.7086 3.84996C16.7086 3.84996 16.6539 3.77378 16.5658 3.7988C16.4777 3.82382 16.5939 3.81358 16.6174 3.81756C16.641 3.82154 16.6273 3.86532 16.5483 3.93638C16.4693 4.00744 16.505 3.98584 16.5635 3.98584C16.622 3.98584 16.7655 3.9864 16.682 4.05462C16.5984 4.12284 16.565 4.15694 16.5217 4.145C16.4784 4.13306 16.527 4.10464 16.546 4.0927C16.565 4.08076 16.5764 4.05972 16.5354 4.07508C16.4944 4.09044 16.4799 4.09328 16.4473 4.03528C16.4146 3.9773 16.4283 3.99436 16.442 3.95626C16.4556 3.91818 16.4875 3.87782 16.4496 3.89202C16.4116 3.90622 16.4154 3.90736 16.4184 3.8636C16.4215 3.81982 16.3751 3.81016 16.3751 3.81016C16.3751 3.81016 16.3933 3.85394 16.3766 3.88178C16.3599 3.90962 16.3592 3.9193 16.3865 3.92668C16.4139 3.93408 16.4397 3.95738 16.4025 3.98296C16.3652 4.00854 16.3698 4.00514 16.3933 4.02048C16.4169 4.03582 16.4511 4.05346 16.4146 4.08926C16.3781 4.12506 16.4085 4.11428 16.4268 4.11428C16.445 4.11428 16.4862 4.12962 16.4869 4.16488C16.4875 4.20012 16.4845 4.20866 16.5437 4.17568C16.603 4.1427 16.7214 4.14668 16.7199 4.19274C16.7184 4.23878 16.7047 4.25016 16.7678 4.21094C16.8308 4.17172 16.8589 4.2479 16.9022 4.21094C16.9455 4.17398 16.9729 4.13818 17.023 4.20128C17.0731 4.26438 17.0575 4.28346 16.9964 4.32804C16.9353 4.37262 17.026 4.33828 17.0724 4.3144C17.1187 4.29052 17.2486 4.2746 17.323 4.30758C17.3974 4.34056 17.4187 4.33316 17.4734 4.31042C17.5281 4.28768 17.5562 4.28256 17.639 4.3377C17.7217 4.39284 17.7863 4.40308 17.8296 4.40194C17.8296 4.40194 17.7377 4.43776 17.6344 4.44458C17.5311 4.4514 17.4795 4.47072 17.459 4.48664C17.459 4.48664 17.5211 4.52416 17.5333 4.5702C17.5333 4.5702 17.601 4.5611 17.6344 4.57474C17.6344 4.57474 17.617 4.62362 17.6587 4.64978C17.7005 4.67592 17.7294 4.6856 17.6982 4.7214C17.6671 4.75722 17.7461 4.74186 17.7013 4.79246C17.6564 4.84306 17.6443 4.86864 17.6428 4.90956C17.6413 4.9505 17.6527 4.95674 17.6124 4.96072C17.5721 4.9647 17.6192 5.0096 17.601 5.06304C17.5828 5.11648 17.4704 5.1108 17.4749 5.25404C17.4749 5.25404 17.5061 5.18412 17.5729 5.12272C17.6397 5.06132 17.642 5.05564 17.6405 5.01868C17.639 4.98172 17.6359 4.99026 17.6716 4.9624C17.7073 4.93454 17.6557 4.9084 17.6914 4.8686C17.7271 4.8288 17.6959 4.83676 17.7377 4.7964C17.7795 4.75604 17.7013 4.75092 17.7438 4.70942C17.7863 4.66792 17.6413 4.62074 17.683 4.59402C17.7248 4.5673 17.797 4.53036 17.5539 4.53434C17.5539 4.53434 17.6124 4.4377 17.8175 4.45874C17.8175 4.45874 17.7636 4.49682 17.759 4.53434C17.759 4.53434 17.7825 4.54628 17.797 4.54968C17.797 4.54968 17.789 4.57718 17.7499 4.6105C17.7499 4.6105 17.8585 4.67132 17.876 4.70714C17.876 4.70714 17.8099 4.7276 17.7932 4.7566C17.7932 4.7566 17.8221 4.78958 17.8319 4.8322C17.8319 4.8322 17.7583 4.8231 17.7484 4.87824C17.7385 4.93338 17.7165 4.89586 17.7165 4.92826C17.7165 4.96066 17.7188 4.97374 17.693 4.97886C17.6671 4.98398 17.6884 5.01126 17.693 5.02946C17.6975 5.04766 17.7059 5.08914 17.7021 5.10222C17.7021 5.10222 17.6649 5.10278 17.6474 5.1079C17.6474 5.1079 17.6588 5.18692 17.6147 5.19828C17.5707 5.20964 17.6383 5.22556 17.5912 5.2341C17.5441 5.24262 17.5502 5.24546 17.4925 5.34894C17.4925 5.34894 17.5418 5.32108 17.5927 5.28754C17.6436 5.254 17.5889 5.26424 17.6732 5.18124C17.7575 5.09824 17.7423 5.09198 17.7355 5.04992C17.7287 5.00786 17.7271 4.97374 17.7575 4.93396C17.7879 4.89416 17.7978 4.84868 17.9056 4.85438C17.9056 4.85438 17.8737 4.78262 17.8342 4.76394C17.8342 4.76394 17.8859 4.72818 17.9406 4.72308C17.9406 4.72308 17.8927 4.66566 17.7947 4.60996C17.7947 4.60996 17.8752 4.5406 17.8942 4.50764C17.8942 4.50764 17.857 4.51332 17.8274 4.5065C17.8274 4.5065 17.8414 4.47332 17.914 4.42578C17.914 4.42578 17.9527 4.4633 17.9512 4.50252C17.9512 4.50252 18.0758 4.4309 18.1464 4.43886C18.1464 4.43886 18.1821 4.52868 18.0089 4.69694C18.0089 4.69694 18.116 4.70718 18.1616 4.70092C18.1616 4.70092 18.1358 4.78392 18.0059 4.8328C17.876 4.88168 18.034 4.93882 17.9011 4.92888C17.7682 4.91894 17.8092 4.9647 17.813 5.03234C17.8168 5.09998 17.8213 5.16934 17.8183 5.1881C17.8183 5.1881 17.7119 5.15342 17.7142 5.25632C17.7165 5.35922 17.6595 5.38082 17.6481 5.39048C17.6481 5.39048 17.6173 5.3629 17.5707 5.3467C17.5706 5.3468 17.5046 5.47204 17.3981 5.5452V5.5452Z" fill="#5A3719"/>
<path d="M17.2461 4.25549C17.2461 4.25549 17.2825 4.24953 17.3441 4.28789C17.4056 4.32625 17.466 4.24697 17.3976 4.22649C17.3292 4.20601 17.3987 4.18215 17.4603 4.23161C17.5218 4.28107 17.5457 4.25633 17.5685 4.23929C17.5913 4.22225 17.6186 4.21285 17.5765 4.18387C17.5343 4.15487 17.605 4.16853 17.6369 4.18899C17.6688 4.20945 17.6562 4.23077 17.6517 4.23675C17.6471 4.24273 17.6437 4.30923 17.7064 4.24699C17.769 4.18475 17.7998 4.12249 17.7986 4.09179C17.7986 4.09179 17.8328 4.11311 17.8374 4.15233C17.8419 4.19155 17.8898 4.13101 17.9057 4.10969C17.9217 4.08837 17.949 4.03457 17.9456 3.99411C17.9456 3.99411 17.9878 4.05931 18.0504 3.99411C18.1131 3.92891 18.0858 3.96985 18.161 3.95023C18.2362 3.93061 18.3307 3.87519 18.382 3.81295C18.4332 3.75071 18.4367 3.79249 18.5027 3.77713C18.5688 3.76179 18.7021 3.66969 18.7146 3.61937C18.7272 3.56907 18.7249 3.53837 18.7055 3.55541C18.6861 3.57245 18.6941 3.55883 18.6656 3.54091C18.6372 3.52301 18.595 3.56393 18.595 3.56393C18.595 3.56393 18.6372 3.59633 18.6053 3.60997C18.5734 3.62361 18.5426 3.66881 18.4822 3.65175C18.4218 3.63469 18.3592 3.70717 18.3592 3.70717C18.3592 3.70717 18.4116 3.75065 18.341 3.77795C18.2703 3.80523 18.2817 3.81461 18.2384 3.78477C18.2384 3.78477 18.1632 3.88027 18.1199 3.89989C18.1199 3.89989 18.0994 3.89819 18.0858 3.88027C18.0858 3.88027 18.0368 3.93569 18.0117 3.94679C18.0117 3.94679 17.9809 3.91695 17.9525 3.90757C17.9525 3.90757 17.8932 3.98091 17.8431 4.00393C17.8431 4.00393 17.8283 3.97665 17.7964 3.95789C17.7964 3.95789 17.7806 4.05381 17.6756 4.11053C17.6756 4.11053 17.6824 4.08495 17.63 4.04999C17.63 4.04999 17.5001 4.16255 17.4489 4.17363C17.3976 4.18471 17.4455 4.14975 17.4523 4.13525C17.4591 4.12075 17.491 4.07301 17.4284 4.05339C17.3657 4.03377 17.376 4.06703 17.3623 4.07301C17.3486 4.07897 17.3475 4.06193 17.3053 4.06789C17.2632 4.07385 17.27 4.09261 17.2518 4.09945C17.2336 4.10627 17.1607 4.08751 17.1641 4.13611C17.1675 4.18471 17.2017 4.21797 17.1379 4.24611C17.074 4.27425 17.1618 4.26829 17.2461 4.25549V4.25549Z" fill="#7B3C20"/>
<path d="M17.5094 4.11815C17.5094 4.11815 17.5243 4.05675 17.4707 4.02691C17.4707 4.02691 17.8148 3.97405 17.555 3.84273C17.555 3.84273 17.8637 3.77877 17.7908 3.67987C17.7179 3.58095 17.647 3.60313 17.6363 3.60483C17.6256 3.60653 17.702 3.54769 17.7225 3.55537C17.743 3.56305 17.9914 3.65855 17.9276 3.57669C17.8638 3.49483 17.8695 3.49995 17.8592 3.47607C17.8592 3.47607 17.9412 3.47607 18.0654 3.59715C18.0654 3.59715 18.0916 3.56987 18.0882 3.52041C18.0882 3.52041 18.1771 3.54513 18.2044 3.57157C18.2044 3.57157 18.2192 3.54087 18.2135 3.52381C18.2135 3.52381 18.2899 3.56473 18.3161 3.60823C18.3161 3.60823 18.3514 3.57753 18.3571 3.54257C18.3571 3.54257 18.4334 3.57413 18.4528 3.59799C18.4528 3.59799 18.4778 3.56473 18.4687 3.51699C18.4687 3.51699 18.5952 3.55451 18.6123 3.47607C18.6123 3.47607 18.7395 3.50365 18.6568 3.55317C18.5505 3.61683 18.6461 3.53747 18.5371 3.61335C18.4525 3.67219 18.4053 3.74125 18.3646 3.72705C18.3348 3.71661 18.2989 3.80351 18.2579 3.76087C18.2169 3.71823 18.2169 3.73785 18.1884 3.78219C18.1599 3.82653 18.1155 3.87173 18.1155 3.87173C18.1155 3.87173 18.0933 3.85893 18.0765 3.84189C18.0765 3.84189 18.0517 3.88281 18.0198 3.91351C18.0198 3.91351 17.9947 3.88025 17.9549 3.85979C17.9549 3.85979 17.8922 3.93227 17.8535 3.95699C17.8535 3.95699 17.817 3.92117 17.7783 3.90923C17.7783 3.90923 17.7726 4.00729 17.6962 4.05761C17.6962 4.05761 17.6803 4.02521 17.6313 4.00559C17.6313 4.00559 17.5926 4.06759 17.5094 4.11815V4.11815Z" fill="#5A3719"/>
<path d="M17.3288 3.96818C17.3288 3.96818 17.287 4.0003 17.3139 4.0347C17.3409 4.06908 17.3424 4.02874 17.3766 4.02532C17.4108 4.0219 17.8323 3.94942 17.4507 3.83516C17.4507 3.83516 17.4666 3.82066 17.5327 3.8147C17.5988 3.80874 17.838 3.74392 17.7264 3.65866C17.6147 3.57338 17.5219 3.68764 17.6158 3.58532C17.691 3.50346 17.6307 3.46338 17.6307 3.46338C17.6307 3.46338 17.4085 3.61176 17.3595 3.63904C17.3105 3.66632 17.2399 3.71834 17.3231 3.74562C17.4062 3.7729 17.4632 3.65524 17.4712 3.68166C17.4791 3.7081 17.3037 3.8053 17.3288 3.8505C17.3538 3.8957 17.3481 3.93322 17.3914 3.92468C17.4347 3.91616 17.5521 3.94686 17.4564 3.94344C17.3607 3.94002 17.3288 3.96818 17.3288 3.96818V3.96818Z" fill="#5A3719"/>
<path d="M17.4808 3.75583C17.4808 3.75583 17.4421 3.78305 17.4934 3.76941C17.5446 3.75577 17.6472 3.73359 17.6278 3.70717C17.6084 3.68073 17.5401 3.71241 17.4808 3.75583V3.75583Z" fill="black"/>
<path d="M18.1583 3.31595C18.1583 3.31595 18.3543 3.31083 18.4352 3.36541C18.516 3.42 18.5548 3.4558 18.5787 3.46348C18.5787 3.46348 18.5753 3.53766 18.45 3.4848C18.45 3.4848 18.4568 3.52062 18.4431 3.55558C18.4431 3.55558 18.3964 3.52488 18.3429 3.51124C18.3429 3.51124 18.3337 3.53938 18.3167 3.55558C18.3167 3.55558 18.2608 3.4993 18.1982 3.48224C18.1982 3.48224 18.1856 3.51038 18.1743 3.52062C18.1743 3.52062 18.107 3.48224 18.0558 3.4831C18.0558 3.4831 18.066 3.52404 18.0558 3.54024C18.0558 3.54024 17.9134 3.42854 17.7869 3.44304C17.7869 3.44304 17.8484 3.53258 17.8883 3.57692C17.8883 3.57692 17.632 3.55646 17.6741 3.41832C17.7163 3.28017 17.6707 3.31487 17.8382 3.31585C18.0057 3.31683 18.1583 3.31595 18.1583 3.31595V3.31595Z" fill="#7B3C20"/>
<path d="M16.956 3.69745C16.956 3.69745 16.9264 3.72159 16.956 3.74207C16.9857 3.76253 17.0871 3.68921 17.1007 3.67897C17.1144 3.66873 17.1508 3.67045 17.1007 3.70797C17.0506 3.74549 16.9993 3.78641 16.9674 3.82735C16.9674 3.82735 17.1372 3.78131 17.2477 3.68581C17.3582 3.59031 17.2425 3.65217 17.4311 3.56131C17.6197 3.47045 17.7182 3.32425 17.6168 3.33961C17.5154 3.35495 17.4243 3.47093 17.3457 3.51527C17.2671 3.55961 17.2226 3.56557 17.2351 3.53999C17.2477 3.51441 17.3058 3.52465 17.414 3.43767C17.5222 3.35069 17.4983 3.35667 17.4994 3.32597C17.5006 3.29527 17.4584 3.21939 17.6213 3.13411C17.7843 3.04883 18.2912 2.75209 18.3345 2.65063C18.3345 2.65063 18.1864 2.66683 17.9916 2.81093C17.7968 2.95503 17.6925 3.02241 17.6387 3.04031C17.5849 3.05821 17.5917 3.04627 17.5564 3.08807C17.5211 3.12985 17.3285 3.31575 17.2932 3.34303C17.2579 3.37031 17.2476 3.38823 17.2446 3.44385C17.2433 3.46919 17.0233 3.63493 16.956 3.69745V3.69745Z" fill="#5A3719"/>
<path d="M17.6255 3.31114C17.6255 3.31114 17.5879 3.3286 17.5515 3.31114C17.515 3.29368 17.5264 3.21522 17.6141 3.16832C17.7018 3.12142 17.8613 3.0515 17.9422 3.04126C17.9422 3.04126 17.9308 3.14274 17.6791 3.228C17.6791 3.228 17.695 3.28084 17.6255 3.31114Z" fill="#5A3719"/>
<path d="M17.7148 3.24499C17.7148 3.24499 17.7222 3.26995 17.7148 3.29275C17.7148 3.29275 18.1831 3.33795 18.4246 3.05313C18.4246 3.05313 18.0931 3.08383 17.9609 3.16313C17.9609 3.16313 18.0441 3.05909 18.2925 2.97297C18.5408 2.88685 18.6422 2.78026 18.6639 2.72144C18.6639 2.72144 18.3498 2.83144 18.2002 2.83144C18.2002 2.83144 18.1706 2.83058 18.1421 2.84677C18.1136 2.86297 17.9131 3.00879 17.8596 3.03351C17.8596 3.03351 17.9723 3.02413 18.0122 2.98747C18.0122 2.98747 17.9338 3.19825 17.7148 3.24499V3.24499Z" fill="#AA5323"/>
<path d="M16.8179 3.51281C16.8179 3.51281 16.7575 3.55545 16.7825 3.57677C16.8076 3.59809 16.8508 3.60235 16.9425 3.52561C17.0343 3.44887 17.2565 3.25785 17.1161 3.25019C17.1161 3.25019 16.9363 3.23911 16.9425 3.34911C16.9488 3.46019 16.8269 3.50583 16.8179 3.51281V3.51281ZM16.4032 3.44799C16.4032 3.44799 16.5216 3.51705 16.4772 3.57419C16.4772 3.57419 16.8407 3.26551 16.7381 3.19899C16.6356 3.13247 16.5547 3.25783 16.5798 3.27061C16.6048 3.28341 16.6584 3.25953 16.639 3.28341C16.6196 3.30729 16.426 3.43777 16.4032 3.44799V3.44799ZM16.3086 3.34823C16.3086 3.34823 16.3883 3.37211 16.3918 3.40621C16.3952 3.44031 16.6321 3.23907 16.5695 3.15467C16.5407 3.11597 16.4088 3.10009 16.4031 3.17599C16.3974 3.25189 16.5216 3.16831 16.4783 3.22289C16.4216 3.29445 16.3257 3.33629 16.3086 3.34823ZM17.1614 3.18007C17.1614 3.18007 17.1107 3.21691 17.1562 3.23909C17.2018 3.26127 17.2314 3.22629 17.2542 3.20583C17.277 3.18537 17.3898 3.10265 17.416 3.04979C17.4422 2.99693 17.4809 2.98073 17.522 2.95343C17.563 2.92615 17.8524 2.78203 18.0301 2.62257C18.2078 2.46311 18.1338 2.50405 18.3183 2.40171C18.5029 2.29939 18.6236 2.20559 18.6624 2.09473C18.6624 2.09473 18.5769 2.12287 18.5017 2.17147C18.4265 2.22007 18.2568 2.32667 18.2226 2.34115C18.1884 2.35563 18.1406 2.35821 18.1155 2.38463C18.0905 2.41107 18.0927 2.44261 18.0039 2.51595C17.915 2.58929 17.4559 2.91331 17.4 2.95935C17.3442 3.00545 17.1614 3.18007 17.1614 3.18007V3.18007Z" fill="#5A3719"/>
<path d="M16.7925 3.28736C16.7925 3.28736 16.8426 3.25972 16.9368 3.26616C17.031 3.27258 17.4031 2.91218 17.511 2.83942C17.6188 2.76666 17.9561 2.52334 18.0016 2.479C18.0472 2.43466 18.0548 2.3869 18.0943 2.36076C18.1338 2.33462 18.1703 2.33802 18.2614 2.28572C18.3525 2.23342 18.79 1.97192 18.7642 1.81958C18.7642 1.81958 18.1125 2.21068 17.9621 2.33802C17.8118 2.46536 17.394 2.75414 17.3196 2.80076C17.2451 2.84738 17.1859 2.9281 17.0613 3.02928C16.9368 3.13046 16.8138 3.21572 16.7925 3.28736V3.28736Z" fill="#AA5323"/>
<path d="M16.6558 3.14874C16.6558 3.14874 16.7764 3.1364 16.7925 3.19536C16.7925 3.19536 17.0507 3.018 17.11 2.94524C17.1692 2.87248 17.0902 2.91454 17.2376 2.8179C17.3849 2.72126 17.874 2.37904 17.9439 2.31764C18.0138 2.25624 18.146 2.17552 18.2523 2.1039C18.3586 2.03228 18.7748 1.82876 18.7277 1.66162C18.7277 1.66162 18.4224 1.86626 18.3541 1.91062C18.2857 1.95496 18.2568 1.92994 18.187 1.98452C18.1171 2.0391 17.9637 2.14824 17.9363 2.18234C17.909 2.21644 17.675 2.39608 17.5611 2.47226C17.4472 2.54844 17.192 2.69624 17.0689 2.80312C16.9459 2.90998 16.7074 3.10782 16.6558 3.14874Z" fill="#AA5323"/>
<path d="M16.28 3.11362C16.28 3.11362 16.341 3.1145 16.3593 3.13838C16.3593 3.13838 16.4721 3.03944 16.5921 3.13722C16.5921 3.13722 17.0326 2.83934 17.0767 2.7643C17.1207 2.68926 17.1921 2.68812 17.3638 2.56306C17.5354 2.438 17.6433 2.3857 17.7572 2.29702C17.8711 2.20834 17.9668 2.10828 18.0489 2.05486C18.1309 2.00142 18.3375 1.86612 18.3025 1.74902C18.3025 1.74902 18.1354 1.84452 18.0261 1.9639C17.9167 2.08328 17.9258 1.98096 17.8149 2.081C17.704 2.18106 17.5324 2.31748 17.3896 2.38798C17.2468 2.45848 17.3334 2.45052 17.2301 2.51646C17.1268 2.5824 17.1344 2.57218 17.0964 2.58126C17.0584 2.59036 17.0007 2.61764 16.9627 2.66198C16.9248 2.70632 16.823 2.76658 16.7121 2.82912C16.6012 2.89164 16.3285 3.05394 16.28 3.11362Z" fill="#AA5323"/>
<path d="M16.4125 2.88503C16.4125 2.88503 16.3886 2.83557 16.4307 2.80061C16.4729 2.76565 16.5492 2.67355 16.5618 2.61557C16.5743 2.55759 16.5652 2.56697 16.6871 2.51665C16.809 2.46635 17.0858 2.33673 17.2419 2.24037C17.398 2.14402 17.635 1.98884 17.684 1.95132C17.7329 1.9138 17.8518 1.83024 17.9 1.79102C17.9 1.79102 17.9232 1.85668 17.8708 1.90188C17.8184 1.94708 17.6167 2.08862 17.5837 2.1108C17.5507 2.13298 17.365 2.25745 17.308 2.28901C17.251 2.32057 17.1098 2.39219 17.0596 2.43397C17.0095 2.47575 17.016 2.48855 16.7923 2.59769C16.5686 2.70683 16.5583 2.71793 16.5652 2.72645C16.572 2.73497 16.6723 2.69149 16.7201 2.66335C16.768 2.63521 16.9514 2.55165 17.0061 2.50815C17.0608 2.46467 17.153 2.39645 17.1929 2.37427C17.2328 2.35209 17.5632 2.15428 17.6577 2.08436C17.7523 2.01444 17.7785 1.99142 17.799 2.00336C17.8195 2.0153 17.8526 2.01616 17.8104 2.05622C17.7683 2.0963 17.6338 2.21398 17.5826 2.24808C17.5313 2.28217 17.3707 2.37769 17.3262 2.40071C17.2818 2.42373 17.2647 2.46637 17.2396 2.48427C17.2146 2.50217 17.1417 2.55419 17.0528 2.57465C16.9639 2.59511 16.948 2.66163 16.8899 2.69915C16.8318 2.73667 16.4183 2.95923 16.4058 2.97031C16.4058 2.97031 16.4308 2.94471 16.4125 2.88503V2.88503Z" fill="#AA5323"/>
<path d="M17.8436 1.95661C17.8436 1.95661 17.8208 1.97679 17.8333 1.98817C17.8499 2.00317 17.9074 2.04359 17.9792 1.97239C18.0509 1.90119 18.2438 1.74599 18.3063 1.70933C18.3688 1.67267 18.3984 1.63771 18.3961 1.58739C18.3962 1.58739 18.0999 1.74515 17.8436 1.95661V1.95661ZM18.2515 1.92933C18.2515 1.92933 18.297 1.85343 18.4087 1.78181C18.5203 1.71019 18.6879 1.60591 18.7106 1.58057C18.7106 1.58057 18.7505 1.62577 18.6627 1.68119C18.575 1.73661 18.4041 1.85003 18.3836 1.86623C18.3631 1.88243 18.3289 1.90715 18.2515 1.92933Z" fill="#AA5323"/>
<path d="M15.9808 2.75555C15.9808 2.75555 15.8566 2.82207 15.901 2.86385C15.9455 2.90563 16.0115 2.89285 16.0389 2.88091C16.0662 2.86897 16.1186 2.85619 16.1266 2.85363C16.1346 2.85107 16.2428 2.82037 16.2701 2.77007C16.2975 2.71977 16.3704 2.66177 16.4285 2.61999C16.4866 2.57821 16.5071 2.53643 16.4991 2.50659C16.4991 2.50657 16.0101 2.73759 15.9808 2.75555V2.75555ZM15.2425 3.32943C15.2425 3.32943 15.3283 3.27841 15.4487 3.31067C15.4487 3.31067 15.443 3.28133 15.4248 3.26615C15.4248 3.26615 15.5706 3.22795 15.6025 3.16315C15.6344 3.09835 15.6413 3.11199 15.6697 3.09323C15.6982 3.07447 15.8953 2.91587 15.8725 2.88175C15.8498 2.84763 15.8452 2.80331 15.8281 2.78539C15.8281 2.78539 15.7871 2.84167 15.5957 2.93461C15.4043 3.02755 15.1912 3.09747 15.0363 3.30639C14.8814 3.51531 14.8973 3.63639 15.0864 3.68925C15.0864 3.68925 15.2197 3.60569 15.5444 3.63467C15.8691 3.66367 15.9796 3.78559 16.0001 3.80777C16.0206 3.82995 16.0867 3.91009 16.0229 4.04567C16.0229 4.04567 16.0879 4.07381 16.0936 4.01157C16.0993 3.94933 16.1027 3.96381 16.1175 3.97319C16.1323 3.98257 16.1505 3.98427 16.1437 3.93653C16.1368 3.88877 16.1141 3.78219 16.0844 3.74553C16.0548 3.70887 16.0879 3.72507 16.1072 3.73273C16.1266 3.74041 16.1949 3.79583 16.1539 3.69351C16.1129 3.59119 16.1027 3.64149 16.1015 3.64661C16.1004 3.65173 16.0924 3.67731 16.0036 3.61079C15.9147 3.54427 15.8338 3.51187 15.7734 3.49483C15.713 3.47779 15.7552 3.47777 15.7905 3.46499C15.8258 3.45219 15.8737 3.44453 15.8896 3.40531C15.8896 3.40531 15.8543 3.41383 15.7894 3.39081C15.7244 3.36779 15.5945 3.36523 15.4897 3.44367C15.4897 3.44367 15.5228 3.32259 15.4271 3.32941C15.3314 3.33623 15.2641 3.33367 15.1627 3.41383C15.1627 3.41383 15.157 3.29189 15.2527 3.22879C15.3484 3.16569 15.3359 3.20407 15.3895 3.18787C15.443 3.17167 15.4476 3.11795 15.4248 3.10089C15.4248 3.10089 15.5501 3.12221 15.7609 2.94741C15.7609 2.94741 15.6476 3.09579 15.51 3.12563C15.51 3.12563 15.4882 3.20461 15.3632 3.22199C15.2383 3.23937 15.2414 3.31153 15.2425 3.32943V3.32943Z" fill="#7B3C20"/>
<path d="M14.8831 4.05207C14.8831 4.05207 14.9446 3.68463 15.2887 3.65803C15.5902 3.63473 15.6859 3.67225 15.7459 3.69157C15.806 3.71089 15.9525 3.75411 15.8956 3.80129C15.8386 3.84847 15.8059 3.83995 15.8059 3.83995C15.8059 3.83995 15.872 3.76661 15.812 3.75411C15.752 3.74161 15.7467 3.77799 15.7383 3.80869C15.73 3.83939 15.7262 3.87633 15.6966 3.90021C15.6966 3.90021 15.6662 3.86497 15.6229 3.89567C15.5796 3.92637 15.6168 3.92751 15.6343 3.92239C15.6517 3.91727 15.6745 3.90817 15.67 3.93489C15.6654 3.96161 15.6411 4.00765 15.5697 4.04517C15.4983 4.08269 15.5021 4.08041 15.4171 4.09405C15.332 4.10769 15.253 4.14123 15.1444 4.23447C15.0358 4.32769 14.9169 4.29659 14.893 4.19241C14.8725 4.10307 14.8831 4.05207 14.8831 4.05207V4.05207Z" fill="#5A3719"/>
<path d="M15.2765 4.04065C15.2765 4.04065 15.3096 3.96817 15.2503 3.93491C15.2503 3.93491 15.0692 3.96597 15.0156 3.91103C15.0156 3.91103 15.2127 3.90079 15.3346 3.85305C15.4565 3.80529 15.4201 3.77205 15.3779 3.76437C15.3358 3.75669 15.2583 3.77545 15.2503 3.81383C15.2503 3.81383 15.2264 3.77291 15.2572 3.74561C15.2879 3.71831 15.3358 3.71321 15.3791 3.72599C15.4224 3.73879 15.4611 3.75755 15.6035 3.68335C15.6035 3.68335 15.6855 3.70211 15.6878 3.75753C15.6901 3.81295 15.6821 3.83597 15.6753 3.84451C15.6684 3.85303 15.6582 3.86923 15.6411 3.86753C15.624 3.86583 15.6023 3.86157 15.5807 3.89993C15.5591 3.93831 15.5461 3.97155 15.5098 3.99713C15.5098 3.99713 15.5522 3.87775 15.4474 3.84961C15.4474 3.84961 15.3608 3.90077 15.2947 3.90333C15.2947 3.90337 15.3791 3.98181 15.2765 4.04065V4.04065Z" fill="black"/>
<path d="M15.4657 3.82145C15.4657 3.82145 15.4258 3.77753 15.4782 3.77285C15.5306 3.76817 15.6001 3.80653 15.5865 3.83893C15.5728 3.87133 15.5113 3.87005 15.4657 3.82145Z" fill="#5A3719"/>
<path d="M18.427 3.23908C18.427 3.23908 18.3313 3.26636 18.4201 3.3252C18.509 3.38404 18.5523 3.4352 18.6172 3.45226C18.6822 3.46932 18.7494 3.49318 18.7482 3.558C18.7471 3.6228 18.7346 3.64838 18.6993 3.69272C18.6639 3.73706 18.7186 3.75668 18.7653 3.7311C18.8121 3.70552 18.8519 3.69188 18.8827 3.67396C18.9134 3.65604 18.9647 3.65862 18.918 3.68248C18.8713 3.70636 18.8223 3.72086 18.8827 3.72256C18.9431 3.72426 19.3065 3.73108 19.3828 3.70636C19.4591 3.68164 19.5583 3.67396 19.5674 3.57504C19.5674 3.57504 19.5708 3.53112 19.5993 3.5128C19.6278 3.49446 19.6471 3.45226 19.6055 3.48082C19.564 3.50938 19.5321 3.52388 19.5241 3.51536C19.5161 3.50684 19.5138 3.50086 19.544 3.4868C19.5742 3.47274 19.5913 3.48594 19.6192 3.4446C19.6471 3.40324 19.6444 3.41006 19.6295 3.3943C19.6147 3.37852 19.5833 3.36702 19.5987 3.34698C19.6141 3.32694 19.6295 3.26726 19.5628 3.30222C19.4962 3.33718 19.365 3.42728 19.3042 3.4415C19.2435 3.45572 19.1971 3.4742 19.1151 3.49082C19.0331 3.50744 18.9822 3.52506 18.8948 3.57338C18.8075 3.6217 18.8136 3.5467 18.8288 3.53644C18.8288 3.53644 18.8622 3.59498 18.951 3.5188C19.0399 3.44262 19.011 3.51404 19.2283 3.44262C19.4455 3.3712 19.3923 3.35962 19.4774 3.31528C19.5624 3.27094 19.643 3.26924 19.5837 3.21012C19.5245 3.151 19.5176 3.14588 19.4409 3.21012C19.3642 3.27436 19.1523 3.37782 19.0255 3.38066C19.0255 3.38066 19.5154 3.16918 19.4652 3.1385C19.4151 3.1078 19.3612 3.08052 19.327 3.07312C19.2928 3.06572 19.2837 3.0572 19.2047 3.09244C19.1257 3.12768 19.1128 3.13622 19.09 3.13848C19.0673 3.14074 19.0012 3.15382 18.9078 3.20214C18.8143 3.25046 18.7642 3.26978 18.7019 3.30788C18.7019 3.30788 18.7452 3.22034 18.9381 3.16236C19.1311 3.10438 19.2298 3.05094 19.2085 3.04128C19.1873 3.03162 19.1394 3.02366 19.1029 3.02934C19.0665 3.03502 19.0771 3.0265 18.9594 3.07312C18.8417 3.11974 18.8918 3.1095 18.7969 3.12996C18.7019 3.15042 18.6632 3.17146 18.6161 3.19136C18.6161 3.19136 18.6353 3.16576 18.6993 3.14232C18.7321 3.1303 18.6633 3.1179 18.7545 3.1142C18.762 3.1139 18.7711 3.11606 18.7801 3.11348C18.8981 3.07966 19.027 3.03332 19.0072 3.02992C18.9875 3.0265 18.8728 3.01458 18.7566 3.068C18.6404 3.12144 18.6936 3.10324 18.6525 3.11178C18.6115 3.1203 18.5249 3.17488 18.4961 3.19818C18.4672 3.22146 18.427 3.23908 18.427 3.23908V3.23908Z" fill="white"/>
<path d="M15.5574 3.76838C15.5574 3.76838 15.603 3.78202 15.6144 3.814C15.6258 3.84598 15.6543 3.79994 15.6531 3.78544C15.652 3.77094 15.6241 3.707 15.5745 3.73684C15.525 3.76668 15.5498 3.76562 15.5574 3.76838V3.76838Z" fill="#5A3719"/>
<path d="M15.4304 4.40034C15.4304 4.40034 15.5277 4.3546 15.6093 4.36026C15.6093 4.36026 15.5774 4.24514 15.6343 4.26476C15.6913 4.28438 15.6753 4.2767 15.6867 4.27584C15.6867 4.27584 15.6901 4.19994 15.6753 4.1701C15.6753 4.1701 15.7334 4.18374 15.7927 4.1846C15.7927 4.1846 15.7368 4.07546 15.7984 4.00042C15.7984 4.00042 15.8321 4.07204 15.9081 4.08996C15.9081 4.08996 15.9085 4.05926 15.9081 4.02686C15.9081 4.02686 15.9533 4.02174 15.9886 4.0405C16.0239 4.05926 16.0536 3.84268 15.9487 3.79492C15.9487 3.79492 15.9237 3.83584 15.8257 3.85632C15.7277 3.87678 15.7285 3.89646 15.6882 3.9702C15.648 4.04394 15.6127 4.04478 15.5306 4.09764C15.4486 4.1505 15.3987 4.25794 15.394 4.26732C15.3941 4.26732 15.4372 4.32018 15.4304 4.40034V4.40034Z" fill="#7B3C20"/>
<path d="M18.6993 3.14232C18.7349 3.13608 18.6633 3.1179 18.7545 3.1142C18.762 3.1139 18.7711 3.11606 18.7801 3.11348C18.8981 3.07966 19.027 3.03332 19.0072 3.02992C18.9875 3.0265 18.8728 3.01458 18.7566 3.068C18.6404 3.12144 18.6936 3.10324 18.6525 3.11178C18.6115 3.1203 18.5249 3.17488 18.4961 3.19818C18.4672 3.22148 18.427 3.2391 18.427 3.2391C18.427 3.2391 18.3313 3.26638 18.4201 3.32522C18.509 3.38406 18.5523 3.43522 18.6172 3.45228C18.6822 3.46934 18.7494 3.4932 18.7482 3.55802C18.7471 3.62282 18.7346 3.6484 18.6993 3.69274C18.6639 3.73708 18.7186 3.7567 18.7653 3.73112C18.8121 3.70554 18.8519 3.6919 18.8827 3.67398C18.9134 3.65606 18.9647 3.65864 18.918 3.6825C18.8713 3.70638 18.8223 3.72088 18.8827 3.72258C18.9431 3.72428 19.3065 3.7311 19.3828 3.70638C19.4591 3.68166 19.5583 3.67398 19.5674 3.57506C19.5674 3.57506 19.5708 3.53114 19.5993 3.51282C19.6278 3.49448 19.6471 3.45228 19.6055 3.48084C19.564 3.5094 19.5321 3.5239 19.5241 3.51538C19.5161 3.50686 19.5138 3.50088 19.544 3.48682C19.5742 3.47276 19.5913 3.48596 19.6192 3.44462C19.6471 3.40326 19.6444 3.41008 19.6295 3.39432C19.6219 3.38622 19.6099 3.37926 19.6022 3.37168C19.6022 3.37168 19.5803 3.35254 19.5549 3.36874C19.5294 3.38494 19.4178 3.43212 19.373 3.43752C19.3281 3.44292 19.2818 3.46196 19.2013 3.50118C19.1208 3.5404 18.9871 3.62028 18.9658 3.54608C18.9658 3.54608 18.9075 3.56688 18.8948 3.57336C18.805 3.61912 18.8129 3.55418 18.8287 3.53642C18.8287 3.53642 18.7817 3.58928 18.7835 3.54124C18.7854 3.4932 18.8158 3.50144 18.8682 3.4861C18.9206 3.47076 19.0034 3.43664 18.9692 3.40822C18.9351 3.3798 18.899 3.43644 18.861 3.45374C18.823 3.47104 18.7471 3.48638 18.7353 3.43124C18.7235 3.3761 18.7239 3.33772 18.621 3.33176C18.5181 3.3258 18.5219 3.26156 18.55 3.23398C18.5781 3.2064 18.6028 3.15922 18.6993 3.14232V3.14232Z" fill="#999999"/>
<path d="M19.0259 3.64099C19.0259 3.64099 19.1861 3.56709 19.3335 3.53241C19.4808 3.49773 19.3654 3.53695 19.3403 3.54491C19.3152 3.55287 19.0859 3.62847 19.0319 3.65349C18.978 3.67851 18.9891 3.65711 19.0259 3.64099ZM19.0631 3.67339C19.0631 3.67339 19.2431 3.61371 19.2765 3.63871C19.3099 3.66373 19.2826 3.65121 19.2431 3.65691C19.2036 3.66259 19.095 3.68079 19.0661 3.68021C19.0372 3.67965 19.0631 3.67339 19.0631 3.67339V3.67339ZM19.3517 3.61087C19.3517 3.61087 19.3859 3.60461 19.3897 3.61713C19.3935 3.62963 19.3745 3.63135 19.3555 3.62907C19.3365 3.62679 19.3198 3.61597 19.3517 3.61087Z" fill="black"/>
<path d="M14.5973 5.17936C14.5973 5.17936 14.5906 5.02132 14.6703 4.94116C14.7501 4.861 15.1374 4.4579 15.1967 4.34522C15.1967 4.34522 15.2468 4.38006 15.2491 4.44402C15.2491 4.44402 15.314 4.33218 15.3653 4.29004C15.3653 4.29004 15.4109 4.33658 15.4029 4.42952C15.4029 4.42952 15.4963 4.38006 15.641 4.37922C15.641 4.37922 15.5875 4.44232 15.5852 4.47898C15.5852 4.47898 15.7857 4.4568 15.8905 4.47386C15.8905 4.47386 15.6148 4.6282 15.6923 4.64184C15.7697 4.65548 15.8506 4.64098 15.8506 4.64098C15.8506 4.64098 15.7629 4.73052 15.6228 4.74842C15.6228 4.74842 15.8005 4.74586 15.8358 4.78594C15.8358 4.78594 15.6626 4.81238 15.5236 4.9181C15.5236 4.9181 15.5107 4.91214 15.5097 4.8729C15.5097 4.8729 15.5054 4.90786 15.4655 4.94112C15.4257 4.97438 15.33 5.04516 15.2946 5.08096C15.2593 5.11678 15.1932 5.18754 15.1226 5.18414C15.1226 5.18414 15.1385 5.12956 15.0861 5.11252C15.0337 5.09546 14.9733 5.1074 14.9312 5.1526C14.9312 5.1526 14.7443 5.15516 14.6851 5.16368C14.6851 5.16368 14.7273 5.09632 14.766 5.09802C14.8047 5.09972 14.9608 5.12104 14.9745 5.01446C14.9881 4.90788 14.8742 4.93602 14.9175 4.87292C14.9608 4.80982 14.9505 4.81238 14.9517 4.8064C14.9517 4.8064 14.9164 4.82602 14.8959 4.8823C14.8754 4.93858 14.8605 4.98206 14.7865 5.03834C14.7124 5.09462 14.6818 5.1287 14.6613 5.16792C14.6613 5.16796 14.6275 5.17266 14.5973 5.17936V5.17936Z" fill="white"/>
<path d="M14.7769 5.08375C14.7769 5.08375 14.7829 5.06215 14.8376 5.05305C14.8923 5.04395 14.8946 5.01781 14.8877 5.00643C14.8809 4.99505 14.8482 4.99507 14.9014 4.93481C14.9014 4.93481 14.9204 4.93993 14.9333 4.95471C14.9462 4.96949 15.0062 5.09797 14.7769 5.08375V5.08375Z" fill="white"/>
<path d="M14.6457 4.9722C14.6486 5.0775 14.7866 5.03838 14.7866 5.03838C14.7374 5.07574 14.7073 5.10332 14.6867 5.12912C14.6958 5.07796 14.6089 5.06516 14.6089 5.06516C14.616 5.03388 14.6275 5.00078 14.6457 4.9722ZM15.1531 4.40944C15.1731 4.3833 15.1883 4.36132 15.1967 4.34522C15.1967 4.34522 15.2468 4.38006 15.2491 4.44402C15.2491 4.44402 15.3141 4.33218 15.3653 4.29004C15.3653 4.29004 15.4109 4.33658 15.4029 4.42952C15.4029 4.42952 15.4963 4.38006 15.641 4.37922C15.641 4.37922 15.5875 4.44232 15.5852 4.47898C15.5852 4.47898 15.7857 4.4568 15.8905 4.47386C15.8905 4.47386 15.6148 4.6282 15.6923 4.64184C15.7698 4.65548 15.8506 4.64098 15.8506 4.64098C15.8506 4.64098 15.7629 4.73052 15.6228 4.74842C15.6228 4.74842 15.8005 4.74586 15.8358 4.78594C15.8358 4.78594 15.7852 4.79366 15.7168 4.81746C15.7168 4.81746 15.6657 4.76946 15.5176 4.77628C15.5176 4.77628 15.6328 4.71182 15.7242 4.691C15.7242 4.691 15.6839 4.63814 15.6209 4.68646C15.6209 4.68646 15.4955 4.60006 15.5988 4.52672C15.5988 4.52672 15.5259 4.51138 15.4781 4.54548C15.4781 4.54548 15.4804 4.48636 15.5335 4.45964C15.5335 4.45964 15.393 4.4369 15.3581 4.54036C15.3581 4.54036 15.3315 4.49772 15.3436 4.4494C15.3436 4.4494 15.2586 4.49832 15.2198 4.55374C15.2199 4.55376 15.2071 4.44866 15.1531 4.40944V4.40944ZM14.8808 5.07776C14.8556 5.08396 14.8218 5.08662 14.7771 5.08384C14.7771 5.08384 14.7809 5.07022 14.8099 5.06006C14.8099 5.06006 14.8182 5.07734 14.8808 5.07776Z" fill="#999999"/>
<path d="M15.1367 4.67925C15.1367 4.67925 15.2005 4.72955 15.2233 4.76025C15.2233 4.76025 15.2814 4.71931 15.303 4.68607C15.303 4.68607 15.3486 4.71591 15.3646 4.76025C15.3646 4.76025 15.3965 4.73807 15.4033 4.70739C15.4033 4.70739 15.4837 4.72445 15.5102 4.75087C15.5102 4.75087 15.5225 4.67327 15.5102 4.62467C15.5102 4.62467 15.5662 4.62893 15.6004 4.64343C15.6004 4.64343 15.5686 4.59227 15.7309 4.52661C15.7309 4.52661 15.6082 4.55295 15.5617 4.60677C15.5617 4.60677 15.5093 4.60933 15.4865 4.59313C15.4865 4.59313 15.4899 4.67157 15.4876 4.70909C15.4876 4.70909 15.456 4.69629 15.3943 4.68181C15.3943 4.68181 15.3794 4.70739 15.3691 4.71335C15.3691 4.71335 15.3304 4.68265 15.3133 4.64343C15.3133 4.64343 15.254 4.69725 15.2313 4.72017C15.2313 4.72017 15.1755 4.68095 15.1367 4.67925V4.67925Z" fill="black"/>
<path d="M14.7695 5.47756C14.7695 5.47756 14.7946 5.4895 14.8538 5.44174C14.9131 5.39398 15.0806 5.2874 15.0965 5.20212C15.1124 5.11684 15.043 5.11174 14.9883 5.13646C14.9336 5.16118 14.9564 5.20894 14.9586 5.22428C14.9609 5.23962 14.9621 5.29932 14.8732 5.38204C14.7843 5.46478 14.7695 5.47756 14.7695 5.47756Z" fill="#FFC221"/>
<path d="M14.7507 5.50475C14.7507 5.50475 14.6162 5.44847 14.737 5.38793C14.8578 5.32739 14.9113 5.31119 14.925 5.26087C14.9387 5.21054 14.9307 5.21909 14.8862 5.24041C14.8418 5.26173 14.6709 5.33847 14.6447 5.26685C14.6447 5.26685 14.7154 5.29413 14.8031 5.25151C14.8908 5.20889 14.9626 5.19609 14.9068 5.17817C14.8509 5.16027 14.6493 5.18242 14.6162 5.1918C14.5832 5.20118 14.5912 5.19949 14.5855 5.23273C14.5798 5.26599 14.5422 5.33591 14.5285 5.35637C14.5148 5.37683 14.4818 5.46211 14.5433 5.49963C14.6048 5.53715 14.7024 5.53457 14.7507 5.50475Z" fill="#FFC221"/>
<path d="M14.6977 5.21139C14.6977 5.21139 14.6669 5.21565 14.6726 5.22759C14.6783 5.23953 14.6863 5.23783 14.6977 5.23867C14.709 5.23951 14.7261 5.23271 14.7284 5.22503C14.7307 5.21737 14.7091 5.20886 14.6977 5.21139V5.21139Z" fill="black"/>
<path d="M14.7424 5.47487C14.7424 5.47487 14.6786 5.44417 14.7504 5.40495C14.8222 5.36573 14.8997 5.32821 14.9099 5.31201C14.9099 5.31199 14.8757 5.36059 14.7424 5.47487V5.47487Z" fill="white"/>
</svg>
