<svg width="20" height="10" viewBox="0 0 20 10" fill="none" xmlns="http://www.w3.org/2000/svg">
<path d="M17 0H3C1.34315 0 0 1.34315 0 3V7C0 8.65685 1.34315 10 3 10H17C18.6569 10 20 8.65685 20 7V3C20 1.34315 18.6569 0 17 0Z" fill="#2E3192"/>
<path d="M1.62576 0.337126L4.31421 2.23077V0H5.73566V2.48718L9.32668 0H10V0.871795L7.08229 2.84615H10V4.25641H6.7581L9.97506 6.66667H8.50374L5.71072 4.74359V6.66667H4.31421V4.5641L1.24688 6.66667H0V6.23077L2.81796 4.25641H0V2.84615H3.41646L0.758227 1.01071C1.06079 0.682359 1.24316 0.542632 1.62576 0.337126Z" fill="white"/>
<path d="M4.33329 2.99998L1.1402 0.641113L0.892822 0.868002L3.81329 2.99998H4.33329Z" fill="#ED1C24"/>
<path d="M5.66675 3L9.7997 0H10.0001V0.27027L6.19276 3H5.66675Z" fill="#ED1C24"/>
<path d="M6.50658 4.33325L9.66667 6.66659H9.16009L6 4.33325H6.50658Z" fill="#ED1C24"/>
<path d="M4.33325 4.33325L0.879836 6.66659H0.333252L3.81151 4.33325H4.33325Z" fill="#ED1C24"/>
<path d="M10 3H0V4H10V3Z" fill="#ED1C24"/>
<path d="M5.33341 0H4.66675V6.66667H5.33341V0Z" fill="#ED1C24"/>
<path d="M16.1233 4.63662L16.2031 4.33325L16.3149 4.62065L16.6342 4.60469L16.3947 4.79629L16.5065 5.08369L16.2351 4.90806L15.9796 5.11562L16.0594 4.81226L15.804 4.65259L16.1233 4.63662Z" fill="white"/>
<path d="M15.2933 4.90811L15.2294 4.60474L15.4689 4.8123L15.7404 4.65264L15.6126 4.94004L15.8521 5.14761L15.5328 5.11567L15.4051 5.40308L15.3412 5.09971L15.0378 5.06777L15.2933 4.90811Z" fill="white"/>
<path d="M14.6705 5.49888L14.4948 5.22744L14.7982 5.33921L14.9898 5.08374L14.9738 5.40308L15.2612 5.51484L14.9579 5.59468L14.9419 5.91401L14.7663 5.64258L14.4629 5.72241L14.6705 5.49888Z" fill="white"/>
<path d="M14.3352 6.26523L14.0637 6.10557L14.3831 6.07363L14.4469 5.77026L14.5747 6.05767L14.894 6.02573L14.6545 6.2333L14.7822 6.5207L14.5108 6.36103L14.2713 6.5686L14.3352 6.26523Z" fill="white"/>
<path d="M14.3193 7.11152L14 7.06362L14.2874 6.91992L14.2395 6.60059L14.463 6.82412L14.7345 6.68042L14.5908 6.96782L14.8143 7.19136L14.495 7.14346L14.3513 7.41489L14.3193 7.11152Z" fill="white"/>
<path d="M14.5108 7.71811L14.3352 7.46265L14.6386 7.55845L14.8302 7.30298L14.8142 7.62231L15.1176 7.71811L14.8142 7.81392V8.13325L14.6386 7.87778L14.3352 7.97358L14.5108 7.71811Z" fill="white"/>
<path d="M15.0695 8.35679L14.7981 8.18115L15.1174 8.16519L15.1973 7.86182L15.309 8.14922L15.6284 8.13325L15.3889 8.34082L15.5006 8.64419L15.2292 8.46855L14.9897 8.66016L15.0695 8.35679Z" fill="white"/>
<path d="M15.8362 8.72407L15.5168 8.67617L15.8042 8.53247L15.7563 8.21313L15.9799 8.43667L16.2513 8.29297L16.1076 8.58037L16.3312 8.80391L16.0118 8.75601L15.8681 9.02744L15.8362 8.72407Z" fill="white"/>
<path d="M16.9218 8.5165L17.2092 8.64424L16.9059 8.7081L16.8739 9.02744L16.7302 8.75601L16.4109 8.81987L16.6344 8.59634L16.4748 8.30894L16.7622 8.43667L16.9697 8.21313L16.9218 8.5165Z" fill="white"/>
<path d="M17.5926 8.10151H17.912L17.6565 8.29312L17.7683 8.59648L17.5128 8.42085L17.2573 8.61245L17.3531 8.30908L17.0977 8.13345H17.417L17.5128 7.83008L17.5926 8.10151Z" fill="white"/>
<path d="M18.0396 7.4627L18.327 7.31899L18.1833 7.6064L18.4068 7.82993L18.1035 7.78203L17.9598 8.06943L17.9119 7.7501L17.5925 7.7022L17.8799 7.5585L17.832 7.25513L18.0396 7.4627Z" fill="white"/>
<path d="M18.2311 6.68042L18.4386 6.44092L18.4227 6.76025L18.7101 6.88799L18.4067 6.95186L18.3907 7.27119L18.2311 6.99976L17.8958 7.06362L18.1033 6.82412L17.9437 6.55269L18.2311 6.68042Z" fill="white"/>
<path d="M18.2309 5.91387L18.5502 5.8979L18.3107 6.10547L18.4385 6.39287L18.167 6.21724L17.9116 6.4248L17.9914 6.12144L17.72 5.9458L18.0393 5.92983L18.1191 5.62646L18.2309 5.91387Z" fill="white"/>
<path d="M17.7361 5.19546L18.0235 5.05176L17.8639 5.33916L18.0874 5.5627L17.784 5.49883L17.6403 5.78623L17.6084 5.46689L17.2891 5.40303L17.5765 5.27529L17.5286 4.97192L17.7361 5.19546Z" fill="white"/>
<path d="M16.9857 4.74829L17.1773 4.50879L17.1614 4.82812L17.4647 4.93989L17.1614 5.01973L17.1454 5.33906L16.9698 5.06763L16.6824 5.14746L16.874 4.90796L16.6983 4.65249L16.9857 4.74829Z" fill="white"/>
</svg>
