<svg width="20" height="10" viewBox="0 0 20 10" fill="none" xmlns="http://www.w3.org/2000/svg">
<path d="M17 0H3C1.34315 0 0 1.34315 0 3V7C0 8.65685 1.34315 10 3 10H17C18.6569 10 20 8.65685 20 7V3C20 1.34315 18.6569 0 17 0Z" fill="#77A2C9"/>
<path d="M9.91012 0.995605L10.2182 1.77483H11.1938L10.3979 2.27266L10.706 3.05188L9.91012 2.55405L9.1399 3.05188L9.44799 2.27266L8.6521 1.77483H9.62771L9.91012 0.995605Z" fill="white"/>
<path d="M10.706 6.83984L10.3979 7.61906L11.1938 8.1169H10.2182L9.91012 8.89612L9.62771 8.09526H8.6521L9.44799 7.61906L9.1399 6.83984L9.9358 7.33768L10.706 6.83984Z" fill="white"/>
<path d="M14.0693 3.85278L14.0436 4.67529L14.9422 4.95668L14.0179 5.17313L13.9666 5.99564L13.4274 5.32464L12.5032 5.54109L13.0937 4.89174L12.5545 4.22075L13.4788 4.50213L14.0693 3.85278Z" fill="white"/>
<path d="M5.69957 3.896L6.29007 4.54535L7.21434 4.26396L6.64951 4.93496L7.26568 5.58431L6.31575 5.36786L5.7766 6.03885L5.75092 5.21634L4.82666 4.97825L5.72525 4.71851L5.69957 3.896Z" fill="white"/>
</svg>
