<svg width="20" height="10" viewBox="0 0 20 10" fill="none" xmlns="http://www.w3.org/2000/svg">
<path d="M17 0H3C1.34315 0 0 1.34315 0 3V7C0 8.65685 1.34315 10 3 10H17C18.6569 10 20 8.65685 20 7V3C20 1.34315 18.6569 0 17 0Z" fill="#00C0F3"/>
<path d="M11.5493 1.71362H18.5404C18.5404 1.71362 18.5404 5.63987 18.5404 6.22555C18.5404 6.98477 17.7721 8.43813 15.0576 9.3492C15.0576 9.3492 11.5493 8.22122 11.5493 6.20386C11.5493 4.2082 11.5493 1.71362 11.5493 1.71362Z" fill="#ED1C24"/>
<path d="M15.0576 9.37082C15.032 9.37082 14.1613 9.06713 13.2906 8.54652C12.4968 8.04761 11.5237 7.245 11.5237 6.20379C11.5237 4.22982 11.5493 1.71355 11.5493 1.69186V1.67017H18.5403V6.20379C18.5403 6.96301 17.8233 8.43806 15.0576 9.37082ZM11.5749 1.71355C11.5749 1.93047 11.5493 4.31659 11.5493 6.20379C11.5493 8.13437 14.8527 9.26236 15.032 9.32743C17.7721 8.41637 18.5147 6.94132 18.5147 6.22548V1.71355H11.5749Z" fill="black"/>
<path d="M14.4174 3.70923H11.5493V5.55305H14.4174V3.70923Z" fill="white"/>
<path d="M18.5146 5.53156H15.6465V3.68774H18.5146" fill="white"/>
<path d="M18.4634 6.57275C18.4634 6.57275 18.2841 8.02612 15.6465 9.13241V6.57275H18.4634Z" fill="white"/>
<path d="M14.4431 6.57275V9.08902C14.4431 9.08902 11.9591 8.15627 11.6006 6.57275H14.4431Z" fill="white"/>
<path d="M12.3176 2.6897H12.4457V2.77647H12.5481V3.03677H12.4713V3.12354V3.232H12.1384V3.14523V3.03677H12.0872V2.77647H12.164V2.6897H12.3176Z" fill="white"/>
<path d="M12.4969 3.25386H12.1127V3.03694H12.0615V2.75494H12.1383V2.64648H12.4456V2.75494H12.5481V3.03694H12.4713V3.25386H12.4969ZM12.164 3.21048H12.4713V3.01525H12.5481V2.79833H12.4456V2.68987H12.2152V2.79833H12.1383V3.01525H12.1896L12.164 3.21048Z" fill="black"/>
<path d="M13.0604 3.31893C12.8555 3.51416 12.5995 3.38401 12.5995 3.38401V3.23217H12.5226V3.12371C12.4714 3.10201 12.4202 3.21047 12.4202 3.21047H12.3178V3.12371C12.2409 3.12371 12.2153 3.21047 12.2153 3.21047H12.1385V3.1454H11.9849C11.9849 3.4057 12.2409 3.34063 12.2409 3.34063C12.2666 3.44909 12.497 3.42739 12.497 3.42739C12.497 3.42739 12.6251 3.51416 12.8555 3.53585C13.1372 3.53585 13.3677 3.38401 13.3677 3.38401C13.4445 3.34063 13.5726 3.21047 13.5726 3.21047L13.1628 3.08032C13.1628 3.08032 13.1372 3.25386 13.0604 3.31893Z" fill="url(#paint0_linear)"/>
<path d="M12.8299 3.57913C12.625 3.57913 12.4714 3.49236 12.4458 3.47067H12.4201C12.3433 3.47067 12.2409 3.44898 12.1897 3.3839C12.1641 3.3839 12.1641 3.3839 12.1385 3.3839C12.0616 3.3839 11.9336 3.36221 11.9336 3.16698V3.14529H12.1385V3.21036H12.1897C12.1897 3.16698 12.2409 3.1236 12.3177 3.1236H12.3433V3.21036H12.4201C12.4458 3.16698 12.497 3.1019 12.5482 3.1236H12.5738V3.21036H12.6506V3.36221C12.6762 3.36221 12.7274 3.3839 12.8043 3.3839C12.9067 3.3839 12.9835 3.34052 13.0604 3.27544C13.1116 3.21036 13.1628 3.03683 13.1628 3.03683V3.01514L13.5725 3.18867L13.5469 3.21036C13.5469 3.21036 13.4189 3.34052 13.342 3.3839C13.342 3.42728 13.1372 3.57913 12.8299 3.57913ZM12.4714 3.44898C12.4714 3.44898 12.625 3.53574 12.8299 3.55744H12.8555C13.1372 3.55744 13.342 3.40559 13.342 3.40559C13.3933 3.36221 13.4957 3.27544 13.5213 3.25375L13.1884 3.1236C13.1884 3.16698 13.1372 3.29713 13.086 3.34052C13.0091 3.40559 12.9067 3.44898 12.8043 3.44898C12.7018 3.44898 12.625 3.40559 12.625 3.40559V3.27544H12.5482V3.18867C12.5226 3.21036 12.497 3.23206 12.4714 3.27544H12.3177V3.18867C12.2665 3.18867 12.2665 3.25375 12.2665 3.25375V3.27544H12.1385V3.21036H12.0104C12.0104 3.34052 12.1129 3.3839 12.1641 3.3839C12.1897 3.3839 12.2153 3.3839 12.2153 3.3839H12.2409V3.40559C12.2665 3.44898 12.4714 3.44898 12.4714 3.44898Z" fill="black"/>
<path d="M12.9065 2.6465C12.8296 2.49465 12.7016 2.51635 12.6248 2.51635C12.5479 2.53804 12.5736 2.62481 12.5736 2.62481C12.5736 2.62481 12.5223 2.58142 12.5223 2.6465C12.4967 2.68988 12.4455 2.68988 12.4455 2.68988V2.58142H12.3943V2.71157H12.3175V2.60311H12.2919V2.71157H12.1638C12.1638 2.71157 12.1638 2.53804 12.215 2.49465C12.2663 2.42958 12.4455 2.47296 12.4455 2.47296C12.4711 2.40789 12.6248 2.3645 12.7272 2.3645C12.8552 2.3645 13.0857 2.51635 13.0857 2.51635C13.1369 2.55973 13.265 2.62481 13.265 2.62481L12.9321 2.77665L12.9065 2.6465Z" fill="url(#paint1_linear)"/>
<path d="M12.932 2.79827L12.8808 2.64642C12.8552 2.55966 12.7784 2.51627 12.676 2.51627C12.6503 2.51627 12.6247 2.51627 12.5991 2.51627C12.5735 2.51627 12.5735 2.51627 12.5735 2.53796C12.5479 2.55966 12.5735 2.60304 12.5735 2.60304L12.5479 2.62473C12.5479 2.62473 12.5479 2.62473 12.5223 2.62473C12.5223 2.62473 12.5223 2.62473 12.5223 2.64642C12.4967 2.7115 12.4455 2.7115 12.4199 2.7115H12.3943V2.60304V2.73319H12.1382V2.7115C12.1382 2.7115 12.1382 2.53796 12.1894 2.47289C12.215 2.4512 12.2662 2.42951 12.343 2.42951C12.3943 2.42951 12.4199 2.42951 12.4455 2.42951C12.4967 2.36443 12.6247 2.32104 12.7528 2.32104C12.8808 2.32104 13.1113 2.47289 13.1369 2.49458C13.1881 2.53796 13.3162 2.60304 13.3162 2.60304L13.3418 2.62473L12.932 2.79827ZM12.676 2.49458C12.804 2.49458 12.8808 2.53796 12.9064 2.64642L12.932 2.75488L13.2137 2.62473C13.1881 2.60304 13.1113 2.53796 13.0601 2.51627C12.9833 2.47289 12.804 2.36443 12.7016 2.36443C12.5991 2.36443 12.4711 2.40781 12.4199 2.4512V2.47289H12.3943C12.3943 2.47289 12.343 2.47289 12.2918 2.47289C12.2406 2.47289 12.1894 2.47289 12.1638 2.49458C12.1382 2.53796 12.1382 2.64642 12.1382 2.68981H12.215V2.58135H12.2918V2.68981H12.3174V2.55966H12.3943V2.66812L12.4199 2.64642C12.4455 2.62473 12.4455 2.60304 12.4711 2.60304C12.4711 2.58135 12.4711 2.55966 12.4711 2.53796C12.4711 2.51627 12.4967 2.51627 12.5223 2.51627C12.6247 2.49458 12.6503 2.49458 12.676 2.49458Z" fill="black"/>
<path d="M16.7476 3.03692C16.7476 3.03692 16.6708 3.18877 16.4915 3.21046C16.4915 3.21046 16.4147 3.40569 16.5171 3.44907C16.5171 3.44907 16.4147 3.55753 16.2354 3.49246V3.55753H15.7233V3.62261H15.416C15.416 3.62261 15.4416 3.49246 15.544 3.49246H15.3647C15.3647 3.49246 15.3904 3.3623 15.5696 3.384C15.5696 3.384 15.4928 3.27554 15.6464 3.29723C15.8257 3.29723 15.9025 3.384 15.9281 3.42738C15.9793 3.47076 16.1074 3.49246 16.1842 3.42738C16.2866 3.34061 16.1842 3.16708 16.1842 3.16708H15.9281C15.9281 3.16708 16.0306 2.82001 16.4147 2.8417C16.4403 2.79831 16.7988 2.99354 16.7476 3.03692Z" fill="url(#paint2_linear)"/>
<path d="M15.7491 3.6226H15.3905V3.60091C15.3905 3.60091 15.3905 3.53583 15.4418 3.49245H15.3137V3.47075C15.3137 3.47075 15.3393 3.3406 15.493 3.3406C15.493 3.31891 15.493 3.29722 15.493 3.27553C15.5186 3.25383 15.5442 3.23214 15.5954 3.23214H15.621C15.7747 3.23214 15.8515 3.31891 15.9027 3.36229L15.9283 3.38399C15.9539 3.40568 15.9795 3.42737 16.0307 3.42737C16.082 3.42737 16.1076 3.40568 16.1588 3.38399C16.2356 3.31891 16.1844 3.18876 16.1588 3.14538H15.9027V3.12368C15.9027 3.12368 16.0051 2.77661 16.3637 2.77661C16.3893 2.77661 16.3893 2.77661 16.4149 2.77661C16.5173 2.84169 16.7222 2.97184 16.7222 3.01522V3.03692C16.7222 3.05861 16.6453 3.18876 16.4661 3.23214C16.4405 3.29722 16.4149 3.42737 16.4917 3.44906H16.5173L16.5429 3.47075C16.5429 3.47075 16.4661 3.53583 16.3637 3.53583C16.338 3.53583 16.3124 3.53583 16.2612 3.51414V3.55752H15.7491V3.6226ZM15.4418 3.57921H15.7235V3.51414H16.2356V3.47075L16.2612 3.49245C16.2868 3.51414 16.338 3.51414 16.3637 3.51414C16.4149 3.51414 16.4661 3.49245 16.4917 3.47075C16.4149 3.40568 16.4661 3.25383 16.4917 3.23214C16.671 3.16707 16.7478 3.03692 16.7478 3.03692C16.7222 3.01522 16.5941 2.90676 16.4661 2.82H16.4405C16.1588 2.82 16.0564 3.03692 16.0051 3.12368H16.2356C16.2356 3.12368 16.338 3.31891 16.2356 3.40568C16.1844 3.44906 16.1332 3.47075 16.082 3.47075C16.0308 3.47075 15.9795 3.44906 15.9283 3.42737L15.9027 3.40568C15.8515 3.36229 15.7747 3.29722 15.6466 3.29722C15.5954 3.29722 15.5698 3.29722 15.5698 3.31891C15.5698 3.3406 15.5698 3.36229 15.5698 3.36229L15.5954 3.38399H15.5442C15.5442 3.38399 15.5442 3.38399 15.5186 3.38399C15.4162 3.38399 15.3905 3.42737 15.3649 3.47075H15.5186V3.51414C15.493 3.49245 15.4674 3.55752 15.4418 3.57921Z" fill="black"/>
<path d="M17.6441 7.3103C17.6185 7.3103 17.5161 7.3103 17.5161 7.33199C17.4905 7.37538 17.3624 7.48384 17.3368 7.50553C17.3112 7.54891 17.3368 7.61399 17.3368 7.61399C17.3368 7.61399 17.4136 7.61399 17.4393 7.61399C17.4649 7.61399 17.6953 7.39707 17.6953 7.37538C17.6697 7.37538 17.6697 7.3103 17.6441 7.3103Z" fill="url(#paint3_linear)"/>
<path d="M17.4137 7.65737C17.3881 7.65737 17.3113 7.65737 17.3113 7.65737H17.2857V7.63568C17.2857 7.63568 17.2601 7.54891 17.3113 7.52722C17.3369 7.50553 17.3625 7.48384 17.3881 7.46215C17.4393 7.41876 17.4906 7.37538 17.4906 7.35369C17.5162 7.3103 17.5674 7.3103 17.593 7.3103C17.6186 7.3103 17.6186 7.3103 17.6186 7.3103H17.6442C17.6698 7.33199 17.6698 7.37538 17.6442 7.39707C17.6698 7.41876 17.4393 7.65737 17.4137 7.65737ZM17.3369 7.61399C17.3625 7.61399 17.4137 7.61399 17.4137 7.61399C17.4393 7.5923 17.6442 7.41876 17.6442 7.39707C17.6442 7.37538 17.6442 7.35369 17.6442 7.33199H17.6186C17.593 7.33199 17.5418 7.33199 17.5418 7.35369C17.5162 7.37538 17.465 7.41876 17.4137 7.46215C17.3881 7.48384 17.3625 7.52722 17.3369 7.52722C17.3113 7.54891 17.3113 7.5923 17.3369 7.61399Z" fill="black"/>
<path d="M16.7477 6.76794C16.7477 6.78963 16.7989 6.85471 16.7477 6.89809C16.7221 6.91979 16.6197 7.07163 16.5941 7.09332C16.5685 7.13671 16.466 7.13671 16.466 7.13671C16.466 7.13671 16.4404 7.07163 16.4404 7.04994C16.4404 7.02825 16.6197 6.78963 16.6453 6.76794C16.6709 6.76794 16.7477 6.74625 16.7477 6.76794Z" fill="url(#paint4_linear)"/>
<path d="M16.466 7.15828C16.466 7.13659 16.4404 7.07151 16.4404 7.07151C16.4404 7.04982 16.6197 6.78951 16.6453 6.78951C16.6709 6.78951 16.6965 6.76782 16.7221 6.76782C16.7477 6.76782 16.7733 6.78951 16.7733 6.78951V6.81121C16.7733 6.85459 16.7989 6.87628 16.7733 6.91967C16.7477 6.94136 16.7221 6.98474 16.6709 7.04982C16.6453 7.0932 16.6197 7.11489 16.6197 7.13659C16.5685 7.13659 16.4916 7.15828 16.466 7.15828ZM16.466 7.04982C16.466 7.07151 16.4916 7.0932 16.4916 7.11489C16.5173 7.11489 16.5685 7.0932 16.5685 7.0932C16.5685 7.07151 16.5941 7.04982 16.6197 7.00643C16.6453 6.94136 16.6965 6.89797 16.7221 6.87628C16.7477 6.85459 16.7221 6.8329 16.7221 6.81121C16.7221 6.78951 16.7221 6.78951 16.7221 6.78951C16.6965 6.78951 16.6709 6.78951 16.6453 6.81121C16.6197 6.81121 16.4916 7.02813 16.466 7.04982Z" fill="black"/>
<path d="M16.4915 8.32982C16.4915 8.3732 16.4147 8.32982 16.3635 8.35151C16.3123 8.3732 16.3635 8.41658 16.3635 8.41658C16.3635 8.41658 16.4147 8.59012 16.3123 8.6552C16.2099 8.69858 16.005 8.76366 15.9282 8.76366C15.8513 8.76366 15.877 8.54674 15.9026 8.48166C15.9282 8.41658 16.0818 8.35151 16.1586 8.35151C16.2099 8.35151 16.2099 8.26474 16.2099 8.22136C16.2099 8.15628 16.4915 8.17797 16.4915 8.32982Z" fill="url(#paint5_linear)"/>
<path d="M15.9538 8.76363C15.9282 8.76363 15.9026 8.76363 15.9026 8.74193C15.8514 8.67686 15.877 8.50332 15.9026 8.45994C15.9282 8.37317 16.0819 8.30809 16.1587 8.30809C16.1587 8.30809 16.1587 8.30809 16.1843 8.30809C16.2099 8.2864 16.1843 8.24302 16.1843 8.19963V8.17794C16.1843 8.17794 16.2099 8.15625 16.2355 8.15625C16.3123 8.15625 16.4916 8.19963 16.4916 8.30809V8.32979C16.4916 8.32979 16.466 8.35148 16.4404 8.35148H16.4148H16.3892C16.3636 8.35148 16.3636 8.35148 16.338 8.35148C16.338 8.35148 16.338 8.37317 16.3636 8.37317C16.3636 8.37317 16.4148 8.5684 16.3123 8.61178C16.2355 8.69855 16.0563 8.76363 15.9538 8.76363ZM16.1587 8.32979C16.0819 8.32979 15.9538 8.39486 15.9282 8.43825C15.9026 8.50332 15.9026 8.65517 15.9282 8.69855C15.9282 8.69855 15.9282 8.69855 15.9538 8.69855C16.0307 8.69855 16.2099 8.63347 16.3123 8.59009C16.3892 8.54671 16.3636 8.43825 16.338 8.39486C16.338 8.39486 16.3123 8.37317 16.3123 8.32979C16.3123 8.32979 16.3123 8.30809 16.338 8.2864C16.3636 8.2864 16.3892 8.2864 16.3892 8.2864H16.4148C16.4148 8.2864 16.4148 8.2864 16.4404 8.2864C16.4404 8.19963 16.2867 8.15625 16.2355 8.15625H16.2099C16.2099 8.19963 16.2099 8.24302 16.1843 8.2864C16.2099 8.32979 16.1843 8.32979 16.1587 8.32979Z" fill="black"/>
<path d="M17.388 7.11504C17.3624 7.11504 17.2599 7.09335 17.2343 7.15843C17.2087 7.20181 17.0551 7.33196 17.0294 7.37535C17.0038 7.41873 17.0294 7.5055 17.0294 7.5055H17.1319C17.1575 7.5055 17.388 7.26689 17.4136 7.2235C17.4136 7.18012 17.4136 7.11504 17.388 7.11504Z" fill="url(#paint6_linear)"/>
<path d="M17.1575 7.50541C17.1319 7.50541 17.0551 7.50541 17.0551 7.50541H17.0294V7.48372C17.0294 7.48372 17.0038 7.39695 17.0294 7.35357C17.0551 7.33187 17.0807 7.31018 17.1063 7.2668C17.1575 7.22341 17.2087 7.15834 17.2343 7.13665C17.2599 7.09326 17.3111 7.09326 17.3624 7.09326C17.388 7.09326 17.388 7.09326 17.388 7.09326H17.4136C17.4392 7.11495 17.4392 7.18003 17.4392 7.20172C17.4392 7.22341 17.1831 7.50541 17.1575 7.50541ZM17.0551 7.46203C17.0807 7.46203 17.1319 7.46203 17.1575 7.46203C17.1831 7.44033 17.4136 7.22341 17.4136 7.20172C17.4136 7.18003 17.4136 7.13665 17.4136 7.11495H17.388C17.3624 7.11495 17.3111 7.11495 17.3111 7.13665C17.2855 7.15834 17.2343 7.22341 17.1831 7.2668C17.1575 7.31018 17.1063 7.33187 17.1063 7.35357C17.0294 7.39695 17.0551 7.44033 17.0551 7.46203Z" fill="black"/>
<path d="M16.1588 7.67888C16.1588 7.65719 16.082 7.57042 16.0052 7.65719C15.9283 7.74396 15.9283 8.02595 15.9795 8.09103C16.0308 8.13441 16.0564 8.13441 16.0564 8.13441L16.1588 7.67888Z" fill="url(#paint7_linear)"/>
<path d="M16.0563 8.11289C16.0307 8.11289 16.0051 8.0912 15.9795 8.06951C15.9027 8.00443 15.9283 7.70075 16.0051 7.63567C16.0307 7.61398 16.0563 7.59229 16.0819 7.59229C16.1331 7.59229 16.1588 7.63567 16.1844 7.65736L16.1075 8.0912L16.0563 8.11289C16.0819 8.11289 16.0819 8.11289 16.0563 8.11289ZM16.0819 7.63567C16.0563 7.63567 16.0563 7.63567 16.0307 7.65736C15.9539 7.74413 15.9539 8.02612 16.0051 8.06951C16.0307 8.0912 16.0563 8.0912 16.0563 8.11289L16.1331 7.70075C16.1331 7.65736 16.1075 7.63567 16.0819 7.63567Z" fill="black"/>
<path d="M16.3637 7.744C16.3381 7.72231 16.2357 7.65723 16.1844 7.67893C16.1332 7.70062 16.082 7.85246 16.082 7.96092C16.0564 8.06938 16.1076 8.15615 16.1588 8.13446C16.21 8.11277 16.3637 7.744 16.3637 7.744Z" fill="url(#paint8_linear)"/>
<path d="M16.1333 8.15614C16.1077 8.15614 16.1077 8.15614 16.0821 8.13445C16.0565 8.09107 16.0309 8.02599 16.0565 7.96091C16.0565 7.96091 16.1077 7.70061 16.1845 7.65723H16.2102C16.2614 7.65723 16.3638 7.7223 16.3894 7.74399C16.3382 7.83076 16.2102 8.13445 16.1333 8.15614ZM16.1845 7.67892C16.1333 7.70061 16.0821 7.83076 16.0565 7.96091C16.0309 8.02599 16.0565 8.09107 16.0821 8.11276C16.0821 8.11276 16.1077 8.13445 16.1077 8.11276C16.1333 8.09107 16.2358 7.91753 16.3126 7.74399C16.3126 7.7223 16.2358 7.67892 16.1845 7.67892Z" fill="black"/>
<path d="M17.004 8.11289C17.0296 8.13458 17.004 8.22135 16.8759 8.28643C16.7735 8.3515 16.5942 8.37319 16.543 8.3515C16.4662 8.32981 16.9015 8.02612 16.9015 8.02612L17.004 8.11289Z" fill="url(#paint9_linear)"/>
<path d="M16.5941 8.37319C16.5685 8.37319 16.5429 8.37319 16.5173 8.37319L16.4917 8.3515C16.4917 8.28643 16.7478 8.0912 16.8502 8.02612H16.8758L17.0039 8.13458C17.0295 8.17797 17.0039 8.26474 16.8758 8.32981C16.799 8.3515 16.6966 8.37319 16.5941 8.37319ZM16.5429 8.32981C16.5429 8.32981 16.5685 8.32981 16.5941 8.32981C16.671 8.32981 16.7734 8.30812 16.8758 8.26473C16.9783 8.19966 17.0039 8.13458 17.0039 8.11289L16.9014 8.04781C16.7222 8.15627 16.5685 8.30812 16.5429 8.32981Z" fill="black"/>
<path d="M13.137 4.36017C13.137 4.36017 13.1114 4.20833 13.1626 4.16495C13.2138 4.12156 13.7004 3.81788 13.8028 3.83957C13.8028 3.83957 13.3419 3.73111 13.0602 4.03479C13.0602 4.03479 12.8041 3.73111 12.2407 3.83957C12.2407 3.83957 12.9065 4.05649 12.9321 4.20833C12.9578 4.36017 12.9321 4.57709 12.9321 4.57709L13.137 4.53371V4.36017Z" fill="url(#paint10_linear)"/>
<path d="M12.8808 4.57702V4.55533C12.8808 4.55533 12.9064 4.33841 12.8808 4.20825C12.8552 4.0781 12.3687 3.90457 12.1894 3.83949L12.1382 3.8178L12.215 3.79611C12.2918 3.77441 12.3687 3.77441 12.4455 3.77441C12.804 3.77441 12.9833 3.92626 13.0345 3.99133C13.2137 3.8178 13.4442 3.77441 13.5979 3.77441C13.7003 3.77441 13.7771 3.79611 13.7771 3.79611V3.83949C13.6747 3.83949 13.2137 4.12149 13.1625 4.16487C13.1369 4.20825 13.1369 4.31671 13.1369 4.3601V4.53363L12.8808 4.57702ZM12.2918 3.8178C12.4711 3.88287 12.9064 4.03472 12.932 4.18656C12.9576 4.31671 12.932 4.46856 12.932 4.53363L13.0857 4.51194V4.3601C13.0857 4.33841 13.0601 4.20825 13.1113 4.14318C13.1625 4.09979 13.4954 3.90457 13.6747 3.8178C13.6491 3.8178 13.6235 3.8178 13.5979 3.8178C13.4442 3.8178 13.2137 3.86118 13.0601 4.03472L13.0345 4.05641L13.0089 4.03472C13.0089 4.03472 12.8296 3.8178 12.4199 3.8178C12.3943 3.8178 12.343 3.8178 12.2918 3.8178Z" fill="black"/>
<path d="M13.6491 4.38165C13.6491 4.38165 13.3418 3.88273 13.1113 3.86104C13.1113 3.86104 13.4698 3.79597 13.7771 4.14304L13.6491 4.38165Z" fill="url(#paint11_linear)"/>
<path d="M13.6491 4.42504L13.6235 4.40335C13.6235 4.40335 13.3162 3.90443 13.1113 3.88274V3.83936C13.1113 3.83936 13.1369 3.83936 13.1882 3.83936C13.3162 3.83936 13.5723 3.88274 13.8027 4.14304L13.6491 4.42504ZM13.2138 3.88274C13.393 3.96951 13.5979 4.2515 13.6491 4.35996L13.7771 4.16474C13.5723 3.92612 13.3418 3.88274 13.2138 3.88274Z" fill="black"/>
<path d="M12.1637 4.22993C12.1637 4.22993 12.4966 3.64425 13.0088 3.81779C13.0088 3.81779 12.6503 3.90456 12.5223 4.07809C12.3942 4.25163 12.3942 4.49024 12.215 4.57701C12.2406 4.5987 12.0613 4.44685 12.1637 4.22993Z" fill="url(#paint12_linear)"/>
<path d="M12.2407 4.6204C12.2407 4.6204 12.0359 4.44687 12.1383 4.22995C12.1383 4.20825 12.3944 3.77441 12.8041 3.77441C12.8809 3.77441 12.9322 3.79611 13.009 3.8178L13.0602 3.83949L13.009 3.86118C13.009 3.86118 12.6505 3.94795 12.548 4.12149C12.4968 4.18656 12.4712 4.27333 12.4456 4.33841C12.42 4.44687 12.3688 4.55533 12.2407 4.6204ZM12.8297 3.8178C12.4456 3.8178 12.1895 4.25164 12.1895 4.25164C12.1127 4.42517 12.2151 4.55533 12.2663 4.59871C12.3688 4.55533 12.3944 4.44687 12.4456 4.33841C12.4712 4.25164 12.4968 4.18656 12.548 4.09979C12.6505 3.96964 12.8809 3.88287 12.9834 3.83949C12.9322 3.8178 12.8809 3.8178 12.8297 3.8178Z" fill="black"/>
<path d="M12.1895 4.59869C12.1895 4.59869 12.3432 4.01301 11.9334 3.96962C11.6518 3.94793 11.6774 4.33839 11.6774 4.33839C11.6774 4.33839 11.6774 4.12147 11.831 4.16485C11.9847 4.20823 12.0359 4.36008 12.0103 4.49023L12.1895 4.59869Z" fill="url(#paint13_linear)"/>
<path d="M12.2151 4.62041L12.0103 4.51195C12.0103 4.44688 12.0103 4.25165 11.831 4.18657H11.8054C11.703 4.18657 11.703 4.33842 11.703 4.33842H11.6517C11.6517 4.33842 11.6261 4.09981 11.7542 3.99135C11.8054 3.94796 11.8566 3.92627 11.9334 3.94796C12.0359 3.94796 12.1127 3.99135 12.1639 4.05642C12.3176 4.22996 12.2151 4.57703 12.2151 4.59872V4.62041ZM12.0359 4.51195L12.1895 4.57703C12.2151 4.49026 12.2663 4.22996 12.1383 4.07811C12.0871 4.01304 12.0359 3.99135 11.9334 3.99135C11.8822 3.99135 11.831 3.99135 11.8054 4.03473C11.7542 4.07811 11.7286 4.14319 11.7286 4.20827C11.7542 4.18657 11.8054 4.16488 11.8566 4.16488C11.9847 4.20827 12.0615 4.31673 12.0359 4.51195Z" fill="black"/>
<path d="M15.4673 2.29946C15.4161 2.36454 15.5441 2.45131 15.5441 2.45131C15.3649 2.49469 15.1856 2.34285 14.9039 2.36454C14.8015 2.38623 14.9039 2.55977 14.9039 2.55977C14.6222 2.51638 14.7503 2.27777 14.7503 2.27777C14.6222 2.27777 14.6222 2.10424 14.6222 2.10424C14.6222 2.10424 14.8015 2.191 14.9295 2.14762C15.0576 2.10424 15.3649 2.08254 15.5697 2.25608C15.5697 2.25608 15.9538 2.29946 16.3124 2.191C16.9526 1.99578 17.3367 2.01747 17.4903 2.16931C17.4903 2.16931 17.5672 1.97408 17.4391 1.95239C17.4391 1.95239 17.6696 2.03916 17.6184 2.191C17.6184 2.191 17.8745 2.16931 17.8745 2.40792C17.8745 2.40792 17.7464 2.27777 17.5928 2.29946C17.5928 2.29946 17.5928 2.60315 17.2086 2.68992C17.2086 2.68992 17.183 2.90684 17.4647 2.90684C17.7464 2.92853 17.9769 2.86346 18.0537 2.82007C18.0537 2.82007 18.2842 3.21053 18.361 3.23222V3.44914C18.361 3.44914 18.2586 3.51421 18.1561 3.51421V3.60098C18.1561 3.60098 18.0537 3.60098 18.0281 3.66606C18.0281 3.66606 17.9769 3.60098 17.8745 3.60098C17.7976 3.60098 17.5416 3.64437 17.5416 3.51421L17.6184 3.47083V3.38406H17.9513V3.47083L18.0793 3.38406C18.0793 3.38406 18.1561 3.18884 17.9513 3.14545C17.7464 3.10207 17.4903 3.21053 17.2855 3.14545L17.3367 3.21053C17.3367 3.21053 17.1062 3.23222 16.9782 3.10207C16.9782 3.10207 16.9782 3.21053 16.9013 3.23222C16.9013 3.23222 16.9013 3.10207 16.8245 3.08038C16.7477 3.03699 16.6965 3.03699 16.6709 2.97192C16.6709 2.97192 16.594 3.12376 16.4148 3.03699C16.4148 3.03699 16.5428 2.79838 16.3124 2.755C16.0819 2.71161 15.6722 2.86346 15.4161 2.99361C15.16 3.14545 14.5966 3.44914 14.0588 3.38406C14.0588 3.38406 14.3149 2.755 14.3917 2.7333C14.4686 2.7333 14.5198 2.79838 15.0832 2.68992C15.6465 2.58146 16.5428 2.34285 16.9782 2.53808C17.055 2.55977 17.4647 2.38623 17.3111 2.23439C17.1574 2.08254 16.7477 2.14762 16.5684 2.2127C16.338 2.27777 15.6722 2.45131 15.3905 2.34285" fill="url(#paint14_linear)"/>
<path d="M18.0537 3.66599L18.0281 3.64429C18.0281 3.64429 17.9769 3.60091 17.9 3.60091C17.8744 3.60091 17.8744 3.60091 17.8488 3.60091C17.772 3.60091 17.644 3.6226 17.5927 3.57922C17.5671 3.55753 17.5671 3.53583 17.5671 3.51414L17.644 3.47076V3.38399H18.0025V3.44907L18.1049 3.38399C18.1049 3.3623 18.1305 3.29722 18.1049 3.23215C18.0793 3.18876 18.0537 3.16707 18.0025 3.16707C17.9 3.14538 17.7976 3.16707 17.6952 3.16707C17.5927 3.18876 17.4903 3.18876 17.3879 3.16707L17.4391 3.23215H17.4135C17.4135 3.23215 17.2086 3.25384 17.0806 3.14538C17.0806 3.18876 17.055 3.23215 17.0038 3.25384H16.9781V3.23215C16.9781 3.23215 16.9781 3.12369 16.9013 3.0803C16.7733 3.03692 16.7477 3.03692 16.6965 2.99353C16.6708 3.03692 16.5684 3.10199 16.4148 3.03692H16.3892V3.01523C16.3892 3.01523 16.466 2.88507 16.4148 2.82C16.3892 2.79831 16.3635 2.77661 16.3123 2.77661C16.0819 2.75492 15.6721 2.88507 15.4417 3.01523C15.0831 3.23215 14.571 3.47076 14.0588 3.40568H14.0332V3.38399C14.11 3.18876 14.3149 2.73323 14.3917 2.73323C14.4173 2.73323 14.4429 2.73323 14.4685 2.73323C14.5454 2.75492 14.6734 2.77661 15.1087 2.68985C15.2112 2.66815 15.3392 2.64646 15.4673 2.62477C16.005 2.51631 16.6708 2.38616 17.0038 2.538C17.0294 2.55969 17.2342 2.49462 17.3111 2.38616C17.3623 2.34278 17.3623 2.29939 17.3111 2.25601C17.1574 2.12586 16.7733 2.16924 16.594 2.23432C16.5684 2.23432 15.8258 2.47293 15.4673 2.38616C15.4929 2.40785 15.5185 2.45123 15.5185 2.45123L15.5441 2.47293H15.5185C15.4417 2.49462 15.3392 2.47293 15.2368 2.42954C15.1344 2.40785 15.0063 2.36447 14.8783 2.38616C14.8783 2.38616 14.8527 2.38616 14.8527 2.40785C14.8271 2.42954 14.8527 2.51631 14.8783 2.58139L14.9039 2.60308H14.8783C14.8014 2.60308 14.7502 2.55969 14.699 2.51631C14.6478 2.45123 14.6734 2.34278 14.699 2.29939C14.5966 2.2777 14.571 2.12586 14.571 2.10416V2.06078L14.5966 2.08247C14.5966 2.08247 14.7758 2.16924 14.9039 2.12586C15.0575 2.08247 15.3648 2.06078 15.5441 2.23432C15.5953 2.23432 15.9538 2.2777 16.2611 2.16924C16.8245 1.9957 17.2342 1.97401 17.4391 2.12586C17.4391 2.08247 17.4647 2.0174 17.4391 1.97401C17.4391 1.97401 17.4391 1.95232 17.4135 1.95232C17.3879 1.95232 17.3879 1.93063 17.3879 1.93063L17.4135 1.90894C17.4135 1.90894 17.4391 1.90894 17.4391 1.93063C17.4903 1.95232 17.6184 2.03909 17.6184 2.14755C17.6696 2.14755 17.7208 2.14755 17.7976 2.21262C17.8488 2.25601 17.8744 2.32108 17.8744 2.38616V2.42954L17.8488 2.38616C17.8488 2.38616 17.7208 2.2777 17.5927 2.2777C17.5927 2.34278 17.5415 2.58139 17.2086 2.66815C17.2086 2.68985 17.2086 2.75492 17.2598 2.79831C17.3111 2.84169 17.3623 2.86338 17.4647 2.86338C17.7464 2.88507 17.9513 2.82 18.0537 2.77661H18.0793V2.79831C18.1561 2.95015 18.3098 3.18876 18.361 3.18876H18.3866V3.40568C18.3866 3.40568 18.2842 3.47076 18.1817 3.47076V3.55753H18.1561C18.1561 3.55753 18.0793 3.55753 18.0537 3.6226V3.66599ZM17.8744 3.55753C17.9256 3.55753 17.9769 3.57922 18.0025 3.60091C18.0281 3.55753 18.0793 3.53583 18.1049 3.53583V3.44907H18.1305C18.2329 3.44907 18.3098 3.40568 18.3354 3.38399V3.18876C18.2586 3.14538 18.1049 2.88507 18.0537 2.79831C17.9513 2.84169 17.7208 2.90677 17.4647 2.88507C17.3623 2.88507 17.2854 2.84169 17.2342 2.79831C17.1574 2.73323 17.183 2.64646 17.183 2.64646V2.62477H17.2086C17.5671 2.538 17.5671 2.25601 17.5671 2.25601V2.23432H17.5927C17.6952 2.21262 17.8232 2.2777 17.8744 2.32108C17.8744 2.2777 17.8488 2.23432 17.7976 2.21262C17.7208 2.16924 17.6184 2.16924 17.6184 2.16924H17.5927V2.14755C17.6184 2.08247 17.5671 2.0174 17.5159 1.97401C17.5415 2.03909 17.4903 2.12586 17.4903 2.14755V2.16924H17.4391C17.3111 2.06078 16.9525 1.9957 16.2867 2.21262C15.9282 2.32108 15.5441 2.2777 15.5441 2.2777C15.3648 2.10416 15.0575 2.14755 14.9295 2.19093C14.8271 2.21262 14.699 2.19093 14.6478 2.14755C14.6478 2.19093 14.699 2.2777 14.7502 2.2777H14.7758V2.29939C14.7758 2.29939 14.7246 2.42954 14.7758 2.49462C14.8014 2.51631 14.8271 2.538 14.8783 2.55969C14.8527 2.51631 14.8271 2.42954 14.8527 2.38616C14.8527 2.36447 14.8783 2.36447 14.9039 2.36447C15.0575 2.34277 15.1856 2.38616 15.288 2.40785C15.3648 2.42954 15.4417 2.45123 15.4929 2.45123C15.4673 2.42954 15.4417 2.40785 15.4417 2.38616C15.4417 2.36447 15.4417 2.34278 15.4673 2.34278L15.4929 2.36447V2.38616C15.7746 2.45123 16.3379 2.34278 16.6196 2.23432C16.7733 2.19093 17.2086 2.10416 17.3879 2.2777C17.4391 2.32108 17.4391 2.38616 17.3879 2.45123C17.3111 2.55969 17.0806 2.62477 17.0294 2.60308C16.6965 2.45123 16.0306 2.58139 15.5185 2.68985C15.3904 2.71154 15.2624 2.73323 15.16 2.75492C14.7246 2.84169 14.5966 2.79831 14.5198 2.79831C14.4942 2.79831 14.4685 2.79831 14.4685 2.79831C14.4173 2.82 14.2637 3.12369 14.1612 3.40568C14.6478 3.44907 15.1344 3.21045 15.4929 3.01523C15.749 2.86338 16.1587 2.73323 16.3892 2.75492C16.4404 2.75492 16.4916 2.79831 16.5172 2.82C16.5684 2.88507 16.5172 2.99353 16.5172 3.03692C16.6708 3.0803 16.7477 2.97184 16.7477 2.97184L16.7733 2.95015L16.7989 2.97184C16.8245 3.01523 16.8501 3.03692 16.9525 3.05861C17.0294 3.0803 17.0294 3.14538 17.0294 3.18876C17.055 3.16707 17.055 3.10199 17.0806 3.0803V3.03692L17.1062 3.05861C17.2086 3.14538 17.3367 3.14538 17.4135 3.14538L17.2598 3.05861L17.3111 3.0803C17.4135 3.12369 17.5159 3.10199 17.644 3.0803C17.7464 3.05861 17.8744 3.05861 17.9769 3.0803C18.0537 3.10199 18.0793 3.12369 18.1049 3.16707C18.1561 3.25384 18.1305 3.34061 18.1049 3.34061L17.9256 3.44907V3.34061H17.644V3.40568L17.5671 3.44907C17.5671 3.47076 17.5671 3.47076 17.5927 3.49245C17.644 3.53583 17.7464 3.51414 17.8232 3.51414C17.8488 3.55753 17.8744 3.55753 17.8744 3.55753Z" fill="black"/>
<path d="M13.1114 2.62474C12.9578 2.55967 12.7529 2.7332 12.7529 2.7332C12.8041 2.7332 12.8554 2.77659 12.881 2.79828C12.9322 2.81997 13.009 2.84166 13.009 2.84166C12.8554 2.88505 12.9066 3.03689 12.9066 3.03689C13.009 2.99351 13.1371 3.0152 13.1371 3.0152C13.1371 3.0152 13.1371 3.12366 13.0602 3.14535C12.9834 3.16704 13.009 3.2755 13.009 3.2755C13.1371 3.2755 13.2651 3.14535 13.2651 3.14535C13.2139 3.25381 13.3419 3.40566 13.3419 3.40566C13.3163 3.34058 13.5212 3.14535 13.5212 3.14535C13.4956 3.2972 13.726 3.42735 13.726 3.42735C13.6748 3.38396 13.8029 3.21043 13.8029 3.21043C13.9053 3.40566 14.1358 3.42735 14.1358 3.42735C14.0846 3.38396 14.1358 3.2755 14.1358 3.2755C14.3662 3.42735 14.5711 3.25381 14.5711 3.25381C14.4175 3.23212 14.3919 3.08028 14.3919 3.08028C14.6479 3.12366 14.7248 2.92843 14.7248 2.92843C14.5455 2.97182 14.3919 2.81997 14.3919 2.81997C14.5199 2.77659 14.5455 2.62474 14.5455 2.62474C14.2894 2.71151 13.9821 2.4729 13.9821 2.4729C13.9821 2.4729 13.0858 2.49459 13.0346 2.51628L13.1114 2.62474Z" fill="url(#paint15_linear)"/>
<path d="M13.726 3.44908C13.726 3.44908 13.5467 3.34062 13.5211 3.21046C13.4443 3.29723 13.3675 3.384 13.3931 3.40569L13.3675 3.42738C13.3675 3.42738 13.265 3.31892 13.265 3.21046C13.2138 3.25385 13.137 3.31892 13.0346 3.29723H13.009V3.27554C13.009 3.27554 12.9834 3.21046 13.009 3.14539C13.009 3.1237 13.0346 3.1237 13.0602 3.102C13.1114 3.102 13.1114 3.03693 13.1114 3.01524C13.0858 3.01524 13.0602 3.01524 13.0346 3.01524C12.9834 3.01524 12.9321 3.01524 12.9065 3.03693H12.8809V3.01524C12.8553 2.97185 12.8809 2.86339 12.9577 2.82001C12.9321 2.82001 12.9065 2.79832 12.8809 2.79832L12.8553 2.77662C12.8297 2.75493 12.8041 2.73324 12.7785 2.73324L12.7017 2.75493L12.7529 2.71155C12.7529 2.71155 12.9065 2.60309 13.0346 2.60309H13.0602L13.009 2.53801H13.0346C13.0858 2.51632 13.8284 2.49463 13.9821 2.49463C13.9821 2.49463 14.2125 2.66816 14.4174 2.66816C14.443 2.66816 14.4942 2.66816 14.5198 2.64647L14.5455 2.62478V2.64647C14.5455 2.64647 14.5198 2.77662 14.3918 2.8417C14.443 2.86339 14.5198 2.92847 14.6479 2.92847C14.6735 2.92847 14.6735 2.92847 14.6991 2.92847H14.7247V2.95016C14.7247 2.95016 14.6735 3.1237 14.443 3.1237C14.443 3.1237 14.4174 3.1237 14.3918 3.1237C14.3918 3.16708 14.443 3.23216 14.5455 3.25385H14.5711L14.5455 3.27554C14.5455 3.27554 14.443 3.36231 14.315 3.36231C14.2382 3.36231 14.1869 3.34062 14.1101 3.31892C14.1101 3.34062 14.0845 3.40569 14.1101 3.42738L14.1357 3.44908H14.0845C14.0845 3.44908 13.854 3.44908 13.7516 3.25385C13.7004 3.31892 13.6748 3.40569 13.7004 3.42738L13.726 3.44908ZM13.8028 3.18877L13.8284 3.21046C13.9052 3.36231 14.0589 3.384 14.1101 3.40569C14.0845 3.36231 14.1357 3.29723 14.1357 3.27554V3.25385L14.1613 3.27554C14.2125 3.31892 14.2894 3.34062 14.3406 3.34062C14.4174 3.34062 14.4942 3.31892 14.5198 3.29723C14.3918 3.25385 14.3662 3.1237 14.3662 3.1237V3.102H14.3918C14.4174 3.102 14.443 3.102 14.443 3.102C14.5967 3.102 14.6479 3.03693 14.6735 2.99354H14.6479C14.4942 2.99354 14.3662 2.88508 14.3406 2.88508L14.315 2.86339H14.3406C14.4174 2.82001 14.4686 2.75493 14.4686 2.71155C14.443 2.71155 14.4174 2.71155 14.3918 2.71155C14.1869 2.71155 13.9821 2.5597 13.9565 2.53801C13.6492 2.53801 13.1626 2.5597 13.0602 2.5814L13.137 2.68986L13.0858 2.66816C13.0602 2.66816 13.0346 2.64647 13.009 2.64647C12.9065 2.64647 12.8297 2.68986 12.7785 2.73324C12.8041 2.73324 12.8297 2.75493 12.8553 2.77662L12.8809 2.79832C12.9065 2.82001 12.9833 2.8417 12.9833 2.8417L13.0602 2.86339L13.009 2.88508C12.9065 2.88508 12.9065 2.99354 12.9065 3.03693C12.9321 3.01524 12.9834 3.01524 13.0346 3.01524C13.0858 3.01524 13.137 3.01524 13.137 3.01524H13.1626V3.03693C13.1626 3.03693 13.1626 3.16708 13.0602 3.18877C13.0346 3.18877 13.0346 3.18877 13.0346 3.21046C13.009 3.23216 13.0346 3.27554 13.0346 3.29723C13.137 3.29723 13.265 3.16708 13.265 3.16708L13.2906 3.18877C13.265 3.25385 13.3163 3.34062 13.3419 3.40569C13.3675 3.34062 13.4699 3.23216 13.5211 3.18877L13.5723 3.14539V3.18877C13.5467 3.29723 13.6492 3.384 13.726 3.42738C13.726 3.36231 13.8028 3.27554 13.8284 3.23216L13.8028 3.18877Z" fill="black"/>
<path d="M14.0589 2.38612L14.1357 2.27766L14.2894 2.25597L14.2382 2.14751H14.1101V2.21259H13.9821V2.12582L14.0845 2.10413L14.0589 1.99567H13.8796V2.08243L13.7772 2.12582V2.03905L13.8284 1.99567L13.7516 1.88721L13.6492 1.97398V2.03905V2.19089" fill="url(#paint16_linear)"/>
<path d="M14.0589 2.40778L14.0333 2.38609L14.1357 2.25593H14.2637L14.2381 2.16917H14.1357L14.1101 2.21255L13.9821 2.23424L13.9564 2.12578L14.0589 2.0824L14.0333 1.99563L13.9052 2.01732V2.10409L13.7772 2.14747L13.7516 2.01732L13.8028 1.99563L13.7516 1.93055L13.6748 1.99563V2.03901V2.19086H13.6235L13.6491 2.03901L13.6235 1.97394L13.7772 1.86548L13.854 2.01732L13.8028 2.03901V2.10409L13.8796 2.0824V1.97394H14.0589L14.1101 2.10409L14.0077 2.14747V2.19086H14.0845L14.1101 2.12578H14.2637L14.315 2.27763L14.1613 2.29932L14.0589 2.40778Z" fill="black"/>
<path d="M13.137 5.40126L13.4699 4.90234L13.4955 5.0108H13.6235L13.3674 5.40126H13.137Z" fill="url(#paint17_linear)"/>
<path d="M13.3674 5.42288H13.1113L13.4698 4.85889L13.4955 4.98904H13.6491L13.3674 5.42288ZM13.1882 5.37949H13.3674L13.5979 5.01073H13.4955L13.4698 4.94565L13.1882 5.37949Z" fill="black"/>
<path d="M13.0601 4.59863H12.8809V5.20601H13.0601V4.59863Z" fill="url(#paint18_linear)"/>
<path d="M13.0857 5.22791H12.8809V4.57715H13.0857V5.22791ZM12.9065 5.18452H13.0345V4.59884H12.9065V5.18452Z" fill="black"/>
<path d="M12.6759 5.35806C12.6759 5.35806 12.6247 5.14114 12.4966 5.01099H12.3174C12.3174 5.01099 12.471 5.22791 12.471 5.35806H12.6759Z" fill="url(#paint19_linear)"/>
<path d="M12.7017 5.37971H12.4456V5.35802C12.4713 5.22787 12.3176 5.01095 12.292 5.01095V4.98926H12.5225C12.6505 5.11941 12.7017 5.33633 12.7017 5.37971ZM12.4969 5.33633H12.6505C12.6505 5.27125 12.5993 5.11941 12.4969 5.01095H12.3688C12.3944 5.07603 12.4969 5.22787 12.4969 5.33633Z" fill="black"/>
<path d="M13.5981 4.9892C13.5981 4.9892 13.6749 4.92413 13.7517 4.92413C13.8541 4.94582 13.8798 5.07597 13.8798 5.18443C13.8798 5.18443 14.0846 4.94582 13.9054 4.77228C13.8285 4.70721 13.7005 4.75059 13.7005 4.75059C13.7005 4.75059 13.8029 4.62044 13.9566 4.66382C14.1614 4.70721 14.1871 4.88074 14.1871 4.88074C14.1871 4.88074 14.2895 4.66382 14.1358 4.51198C13.9822 4.38183 13.8029 4.4469 13.8029 4.4469C13.8029 4.4469 14.0334 4.12152 14.1358 4.14321C14.2383 4.16491 14.2895 4.31675 14.2895 4.31675C14.2895 4.31675 14.3919 4.09983 14.2127 3.99137C14.0334 3.88291 13.8541 4.05645 13.7773 4.14321C13.7005 4.20829 13.5725 4.46859 13.5725 4.57705C13.5725 4.57705 13.4188 4.7289 13.4956 4.92413L13.5212 5.03258L13.5981 4.9892Z" fill="url(#paint20_linear)"/>
<path d="M13.8798 5.24931V5.20593C13.8798 5.14085 13.8798 4.96731 13.7773 4.96731C13.7005 4.96731 13.6237 5.03239 13.6237 5.03239H13.4957L13.47 4.92393C13.3932 4.75039 13.5213 4.59855 13.5469 4.57686C13.5469 4.4684 13.6749 4.22979 13.7773 4.14302C13.8542 4.07794 13.9822 3.96948 14.1102 3.96948C14.1615 3.96948 14.1871 3.99117 14.2383 4.01287C14.4175 4.12133 14.3151 4.35994 14.3151 4.35994L14.2895 4.40332L14.2639 4.33825C14.2383 4.29486 14.2127 4.1864 14.1359 4.1864C14.0846 4.1864 13.9566 4.31655 13.8542 4.44671C13.8798 4.44671 13.9054 4.44671 13.931 4.44671C14.0078 4.44671 14.0846 4.4684 14.1615 4.53347C14.3151 4.68532 14.2383 4.90224 14.2127 4.92393L14.1871 4.98901V4.88055C14.1871 4.88055 14.1359 4.70701 13.9566 4.68532C13.931 4.68532 13.931 4.68532 13.9054 4.68532C13.8542 4.68532 13.803 4.70701 13.7517 4.7287H13.7773C13.8286 4.7287 13.8798 4.75039 13.9054 4.77209C14.0846 4.96731 13.8798 5.20593 13.8798 5.20593V5.24931ZM13.7517 4.92393C13.8798 4.94562 13.9054 5.05408 13.9054 5.14085C13.9566 5.07577 14.0078 4.92393 13.9054 4.79378C13.8798 4.77209 13.8542 4.77209 13.8286 4.77209C13.7773 4.77209 13.7517 4.79378 13.7517 4.79378H13.6749L13.7261 4.75039C13.7261 4.75039 13.8286 4.64193 13.9566 4.64193C13.9822 4.64193 13.9822 4.64193 14.0078 4.64193C14.1359 4.66363 14.2127 4.75039 14.2383 4.81547C14.2639 4.75039 14.2639 4.62024 14.1615 4.51178C14.1102 4.4684 14.0334 4.42501 13.9566 4.42501C13.9054 4.42501 13.8542 4.44671 13.8542 4.44671L13.803 4.4684L13.8286 4.42501C13.8542 4.38163 14.059 4.12133 14.1615 4.12133C14.2383 4.14302 14.2639 4.20809 14.2895 4.25148C14.3151 4.1864 14.3151 4.05625 14.2127 3.99117C14.1871 3.96948 14.1359 3.96948 14.1102 3.96948C13.9822 3.96948 13.8542 4.07794 13.803 4.14302C13.7261 4.20809 13.5981 4.44671 13.5981 4.55517C13.5981 4.55517 13.4444 4.70701 13.5213 4.88055L13.5469 4.96731H13.6237C13.6237 4.96731 13.6749 4.92393 13.7517 4.92393Z" fill="black"/>
<path d="M12.9835 4.59865C12.9835 4.59865 12.9579 4.31665 13.1884 4.31665C13.4189 4.31665 13.4189 4.59865 13.3676 4.77218C13.3676 4.77218 13.342 4.55526 13.214 4.55526C13.0859 4.53357 13.0859 4.59865 13.0859 4.59865H12.9835Z" fill="url(#paint21_linear)"/>
<path d="M13.3677 4.77218H13.342C13.342 4.77218 13.3164 4.57695 13.1884 4.55526C13.1372 4.55526 13.1116 4.55526 13.086 4.57695V4.59865V4.62034H12.9579V4.59865C12.9579 4.59865 12.9323 4.4468 13.0347 4.36003C13.086 4.31665 13.1372 4.31665 13.1884 4.31665C13.2652 4.31665 13.3164 4.33834 13.342 4.38173C13.4445 4.46849 13.4189 4.64203 13.3677 4.77218ZM13.1628 4.53357C13.1884 4.53357 13.1884 4.53357 13.214 4.53357C13.3164 4.55526 13.342 4.64203 13.3677 4.70711C13.3933 4.59865 13.3933 4.46849 13.3164 4.40342C13.2908 4.36003 13.2396 4.36003 13.1884 4.36003C13.1372 4.36003 13.086 4.38173 13.0604 4.40342C13.0091 4.46849 12.9835 4.55526 12.9835 4.59865H13.0347C13.0347 4.59865 13.0347 4.57695 13.0604 4.57695C13.086 4.53357 13.1116 4.53357 13.1628 4.53357Z" fill="black"/>
<path d="M12.9834 4.59865C12.9834 4.59865 12.9834 4.31665 12.7529 4.31665C12.548 4.31665 12.548 4.53357 12.5736 4.66372C12.5736 4.75049 12.6249 4.79387 12.6505 4.96741C12.6505 4.96741 12.8041 4.88064 12.7785 4.79387C12.7529 4.68541 12.7529 4.57695 12.8041 4.55526C12.8041 4.51188 12.7785 4.59865 12.9834 4.59865Z" fill="url(#paint22_linear)"/>
<path d="M12.5992 5.01079V4.9891C12.5992 4.88064 12.5736 4.81557 12.548 4.77218C12.548 4.75049 12.5224 4.70711 12.5224 4.68541C12.5224 4.59865 12.4968 4.4468 12.5736 4.38173C12.5992 4.33834 12.6504 4.33834 12.7017 4.31665C12.9065 4.31665 12.9577 4.51188 12.9577 4.62034V4.64203H12.9321C12.8041 4.64203 12.7785 4.62034 12.7529 4.59865C12.7273 4.62034 12.7273 4.75049 12.7529 4.83726C12.7785 4.94572 12.6248 5.03249 12.6248 5.03249L12.5992 5.01079ZM12.7529 4.33834C12.7017 4.33834 12.6504 4.36003 12.6248 4.38173C12.548 4.4468 12.5736 4.59865 12.5736 4.66372C12.5736 4.68541 12.5992 4.7288 12.5992 4.75049C12.6248 4.79387 12.6248 4.85895 12.6504 4.94572C12.7017 4.92403 12.7529 4.85895 12.7529 4.79387C12.7273 4.66372 12.7273 4.57695 12.7785 4.53357L12.8041 4.51188C12.8297 4.51188 12.8297 4.51188 12.8297 4.53357C12.8553 4.55526 12.8809 4.57695 12.9577 4.57695C12.9577 4.51188 12.9321 4.33834 12.7529 4.33834Z" fill="black"/>
<path d="M12.497 5.0109C12.497 5.0109 12.3946 4.42522 11.8824 4.46861C11.6007 4.4903 11.6775 4.83737 11.6775 4.83737C11.6775 4.83737 11.7544 4.62045 11.908 4.64214C12.0873 4.66383 12.1897 4.85906 12.1897 4.85906C12.1897 4.85906 11.8056 4.81568 11.7031 4.96752C11.6007 5.14106 11.7544 5.35798 11.8056 5.42305C11.8056 5.42305 11.78 5.18444 11.908 5.07598C12.0361 4.98921 12.3946 5.0326 12.497 5.0109Z" fill="url(#paint23_linear)"/>
<path d="M11.7799 5.46634C11.7543 5.44464 11.5495 5.18434 11.6775 4.98911C11.7543 4.88065 11.9336 4.85896 12.0616 4.85896C12.1128 4.85896 12.1385 4.85896 12.1641 4.85896C12.1385 4.81558 12.036 4.68543 11.908 4.66373C11.7543 4.64204 11.6775 4.83727 11.6775 4.83727H11.6519C11.6519 4.83727 11.6007 4.64204 11.7031 4.53358C11.7543 4.4902 11.8055 4.46851 11.8824 4.46851C11.908 4.46851 11.908 4.46851 11.9336 4.46851C12.1385 4.46851 12.2921 4.57697 12.4201 4.7505C12.497 4.88065 12.5226 5.0325 12.5226 5.0325V5.05419H12.497C12.4714 5.05419 12.4714 5.05419 12.4457 5.05419H12.3689C12.1897 5.05419 11.9848 5.05419 11.908 5.14096C11.7799 5.22773 11.8312 5.46634 11.8312 5.46634H11.7799ZM12.0872 4.88065C11.9592 4.88065 11.8055 4.90235 11.7287 4.98911C11.6519 5.11927 11.7287 5.2928 11.7799 5.37957C11.7799 5.2928 11.8055 5.16265 11.8824 5.09757C11.9848 5.01081 12.1897 5.01081 12.3689 5.01081H12.4457H12.4714C12.4457 4.92404 12.3177 4.4902 11.908 4.4902H11.8824C11.8312 4.4902 11.7799 4.51189 11.7543 4.55527C11.7031 4.62035 11.7031 4.70712 11.7031 4.77219C11.7287 4.70712 11.8055 4.62035 11.9336 4.64204C12.1128 4.66373 12.2153 4.88065 12.2153 4.88065L12.2409 4.90235H12.2153C12.2153 4.88065 12.1641 4.88065 12.0872 4.88065Z" fill="black"/>
<path d="M17.1831 4.66382C17.1831 4.66382 17.1318 5.31458 17.1831 5.42304L17.1062 5.37965L17.0806 5.44473L17.0038 5.40135L16.9014 5.46642C16.9014 5.46642 17.0038 4.92412 16.9526 4.72889L17.1831 4.66382Z" fill="url(#paint24_linear)"/>
<path d="M17.0808 5.48808L17.004 5.423L16.876 5.48808V5.44469C16.876 5.44469 16.9784 4.92409 16.9272 4.70717V4.68547L17.1833 4.64209V4.66378C17.1577 4.83732 17.1321 5.33623 17.1833 5.423L17.2089 5.46639L17.1065 5.423L17.0808 5.48808ZM17.004 5.37962L17.0552 5.44469L17.0808 5.40131L17.1577 5.423C17.1321 5.27116 17.1577 4.81563 17.1577 4.70717L17.004 4.72886C17.0296 4.90239 16.9784 5.29285 16.9528 5.423L17.004 5.37962Z" fill="black"/>
<path d="M17.3879 4.49031C17.3879 4.49031 17.772 4.81569 17.7208 5.11938C17.7208 5.11938 17.6952 5.09769 17.644 5.076C17.644 5.076 17.6696 5.18446 17.6184 5.24953C17.6184 5.24953 17.5928 5.11938 17.5416 5.076L17.4647 5.11938C17.4647 5.11938 17.4904 5.03261 17.4391 4.94584C17.4391 4.94584 17.4135 4.96754 17.3623 4.98923C17.3623 4.98923 17.3879 4.81569 17.2599 4.70723C17.2599 4.70723 17.2599 4.83738 17.2087 4.90246C17.2087 4.90246 17.1574 4.83738 17.055 4.81569C17.055 4.81569 17.0038 4.88077 17.0038 4.94584C17.0038 4.94584 16.9014 4.92415 16.8758 4.85908V4.98923C16.8758 4.98923 16.7733 4.96754 16.7733 4.90246C16.7733 4.90246 16.7221 5.076 16.7733 5.14107C16.7733 5.14107 16.6453 5.076 16.6453 4.98923C16.6453 4.98923 16.6197 5.14107 16.6709 5.20615C16.6709 5.20615 16.5429 5.14107 16.5172 5.09769L16.4916 5.27122C16.4916 5.27122 16.3124 4.98923 16.466 4.81569C16.6197 4.64216 16.9526 4.44693 16.9526 4.44693C16.9526 4.44693 16.6965 4.42524 16.6453 4.5337C16.6453 4.5337 16.5941 4.46862 16.5941 4.42524C16.5941 4.42524 16.466 4.46862 16.466 4.55539C16.466 4.55539 16.3892 4.512 16.3892 4.49031C16.3892 4.49031 16.2868 4.55539 16.3124 4.62046C16.3124 4.62046 16.2356 4.64216 16.2099 4.57708C16.2099 4.57708 16.1587 4.66385 16.1843 4.70723C16.1843 4.70723 16.1075 4.66385 16.0819 4.62046C16.0819 4.62046 15.9539 4.70723 15.9795 4.77231C15.9795 4.77231 15.9283 4.49031 16.1587 4.33847C16.3124 4.23001 16.5172 4.16493 16.7733 4.14324C16.7733 4.14324 16.5429 4.07817 16.3636 4.16493C16.3636 4.16493 16.338 4.12155 16.338 4.07817C16.338 4.07817 16.2099 4.14324 16.2099 4.23001C16.2099 4.23001 16.1587 4.20832 16.1331 4.16493C16.1331 4.16493 16.0563 4.20832 16.0563 4.27339C16.0563 4.27339 15.9795 4.20832 15.9795 4.18662C15.9795 4.18662 15.8002 4.29509 15.8002 4.36016C15.8002 4.36016 15.7746 4.18663 15.877 4.05647C15.877 4.05647 15.7746 4.01309 15.7234 4.03478C15.7234 4.03478 15.8002 3.90463 15.9283 3.92632C15.9283 3.92632 15.9283 3.79617 15.8258 3.79617C15.8258 3.79617 16.0051 3.75279 16.1331 3.81786C16.1331 3.81786 16.2612 3.79617 16.2099 3.77448C16.2099 3.77448 16.3636 3.75279 16.4148 3.81786L16.466 3.77448C16.466 3.77448 16.7477 3.73109 16.927 4.12155L16.7733 3.88294L16.8501 3.81786C16.8501 3.81786 16.927 3.86125 16.9526 3.90463C16.9526 3.90463 17.0038 3.81786 17.0038 3.79617C17.0294 3.77448 17.0806 3.83955 17.0806 3.88294C17.0806 3.88294 17.1318 3.77448 17.1831 3.77448C17.2343 3.77448 17.2599 3.86125 17.2343 3.88294C17.2343 3.88294 17.3111 3.86125 17.3111 3.88294C17.3111 3.88294 17.3367 3.94801 17.3111 3.9914L17.2599 4.16493C17.2599 4.16493 17.3623 3.81786 17.644 3.77448L17.6696 3.83955C17.6696 3.83955 17.8233 3.75279 17.9257 3.77448V3.81786C17.9257 3.81786 18.0537 3.77448 18.1306 3.79617C18.1306 3.79617 18.0537 3.83955 18.0793 3.86125C18.0793 3.86125 18.1818 3.83955 18.233 3.90463L18.1818 3.94801C18.1818 3.94801 18.361 3.96971 18.3866 4.03478H18.233C18.233 4.03478 18.3098 4.07817 18.3098 4.18662C18.3098 4.18662 18.1818 4.09986 18.1306 4.12155C18.1306 4.12155 18.1306 4.18663 18.105 4.20832C18.105 4.20832 18.0537 4.12155 17.9769 4.12155C17.9769 4.12155 18.0025 4.16493 17.9513 4.18662C17.9513 4.18662 17.8489 4.12155 17.7977 4.14324V4.20832L17.644 4.18662V4.23001C17.644 4.23001 17.4647 4.18663 17.3623 4.20832C17.3623 4.20832 18.1306 4.14324 18.105 4.81569L18.0025 4.72892C18.0025 4.72892 17.9257 4.81569 17.8745 4.81569C17.8745 4.81569 17.9257 4.70723 17.8745 4.68554L17.7977 4.70723C17.7977 4.70723 17.7977 4.62046 17.772 4.59877C17.772 4.59877 17.7208 4.64216 17.6952 4.64216C17.6952 4.64216 17.6952 4.55539 17.6184 4.5337L17.5672 4.59877V4.55539L17.5416 4.59877L17.3879 4.49031Z" fill="url(#paint25_linear)"/>
<path d="M16.5429 5.33624L16.4916 5.29285C16.4916 5.27116 16.3124 5.01086 16.4916 4.81563C16.6197 4.66379 16.8501 4.53363 16.9526 4.46856C16.8758 4.46856 16.7477 4.46856 16.7221 4.53363V4.55533H16.6709C16.6709 4.55533 16.6197 4.51194 16.6197 4.46856C16.5941 4.49025 16.5172 4.53363 16.5172 4.57702V4.59871H16.4916C16.466 4.59871 16.4404 4.57702 16.4148 4.55533C16.3892 4.57702 16.3636 4.6204 16.3636 4.66379V4.68548H16.338C16.338 4.68548 16.3124 4.68548 16.2868 4.68548C16.2612 4.68548 16.2356 4.68548 16.2356 4.66379C16.2356 4.68548 16.2099 4.72886 16.2356 4.75055L16.2612 4.79394L16.2099 4.77224C16.2099 4.77224 16.1587 4.75055 16.1331 4.70717C16.1075 4.72886 16.0819 4.77225 16.0563 4.79394C16.0563 4.81563 16.0563 4.81563 16.0563 4.81563H16.0307C16.0307 4.79394 16.0307 4.79394 16.0307 4.77224C16.0307 4.68548 16.0307 4.46856 16.2099 4.3601C16.3636 4.27333 16.5172 4.20825 16.7221 4.18656C16.6965 4.18656 16.6709 4.18656 16.6453 4.18656C16.5685 4.18656 16.4916 4.20825 16.4404 4.22995H16.4148V4.20825C16.4148 4.20825 16.3892 4.18656 16.3892 4.14318C16.3636 4.16487 16.3124 4.20825 16.2868 4.25164V4.27333H16.2612C16.2612 4.27333 16.2099 4.27333 16.1843 4.22995C16.1587 4.25164 16.1331 4.27333 16.1331 4.29502V4.33841L16.0819 4.29502C16.0563 4.27333 16.0307 4.25164 16.0051 4.20825C15.9539 4.25164 15.8514 4.31671 15.8514 4.3601H15.8002C15.8002 4.3601 15.7746 4.18656 15.877 4.05641C15.8514 4.05641 15.8002 4.03472 15.749 4.05641L15.7234 4.09979L15.749 4.05641C15.749 4.05641 15.8258 3.94795 15.9539 3.92626C15.9539 3.90457 15.9283 3.83949 15.877 3.8178V3.79611C15.877 3.79611 15.9539 3.77441 16.0307 3.77441C16.1075 3.77441 16.1587 3.79611 16.2099 3.8178C16.2356 3.8178 16.2612 3.79611 16.2612 3.79611L16.2099 3.77441H16.2868C16.2868 3.77441 16.3124 3.77441 16.338 3.77441C16.3892 3.77441 16.466 3.77441 16.5172 3.8178L16.5429 3.77441C16.5429 3.77441 16.5429 3.77441 16.5685 3.77441C16.6197 3.77441 16.7221 3.79611 16.8501 3.88287L16.9526 3.8178C16.9526 3.8178 17.0038 3.83949 17.0294 3.88287C17.055 3.83949 17.055 3.8178 17.0806 3.79611C17.1062 3.77441 17.1574 3.8178 17.1574 3.86118C17.1831 3.8178 17.2087 3.79611 17.2343 3.79611C17.2599 3.79611 17.2855 3.8178 17.2855 3.83949C17.2855 3.86118 17.3111 3.88287 17.3111 3.90457H17.3367C17.3623 3.90457 17.3623 3.90457 17.3879 3.90457C17.3879 3.90457 17.4135 3.94795 17.4135 3.99133C17.4647 3.90457 17.5672 3.8178 17.6952 3.77441H17.7208L17.7464 3.83949C17.772 3.8178 17.8745 3.77441 17.9513 3.77441C17.9769 3.77441 17.9769 3.77441 18.0025 3.77441H18.0281V3.8178C18.0793 3.8178 18.1818 3.79611 18.233 3.8178L18.2586 3.83949L18.233 3.86118C18.2074 3.86118 18.2074 3.88287 18.2074 3.88287C18.2586 3.88287 18.3098 3.88287 18.361 3.92626H18.3866L18.2842 3.94795C18.3354 3.94795 18.4379 3.96964 18.4635 4.03472V4.05641H18.3354C18.361 4.0781 18.3866 4.12149 18.3866 4.18656V4.20825L18.361 4.18656C18.3354 4.16487 18.2586 4.12149 18.233 4.12149C18.233 4.14318 18.233 4.18656 18.2074 4.20825L18.1818 4.22995L18.1562 4.20825C18.1562 4.18656 18.105 4.14318 18.0537 4.14318C18.0537 4.16487 18.0537 4.18656 18.0025 4.18656C17.9769 4.16487 17.9257 4.14318 17.9001 4.14318V4.20825L17.7464 4.18656V4.20825C17.8489 4.22995 17.9513 4.27333 18.0281 4.3601C18.1562 4.46856 18.2074 4.6204 18.1818 4.81563V4.85901L18.0793 4.77224C18.0537 4.79394 18.0025 4.85901 17.9513 4.85901H17.9257V4.83732C17.9513 4.79394 17.9513 4.75055 17.9513 4.72886L17.8489 4.75055V4.72886C17.8489 4.70717 17.8489 4.66378 17.8233 4.64209C17.7977 4.66378 17.772 4.68548 17.7464 4.68548H17.7208V4.66379C17.7208 4.66379 17.7208 4.59871 17.6696 4.57702L17.6184 4.66379L17.5416 4.57702L17.516 4.59871C17.6184 4.72886 17.772 4.92409 17.7208 5.09762V5.14101L17.6952 5.11932C17.6952 5.11932 17.6696 5.09762 17.644 5.09762C17.644 5.14101 17.644 5.20608 17.6184 5.24947L17.5928 5.29285V5.24947C17.5928 5.24947 17.5672 5.14101 17.516 5.07593L17.4135 5.11932V5.07593C17.4135 5.07593 17.4391 5.01086 17.4135 4.92409C17.3879 4.92409 17.3879 4.94578 17.3367 4.94578H17.3111V4.92409C17.3111 4.92409 17.3367 4.79394 17.2599 4.70717C17.2599 4.75055 17.2343 4.81563 17.2087 4.85901L17.1831 4.8807L17.1574 4.85901C17.1574 4.85901 17.1062 4.79394 17.0294 4.77224C17.0038 4.79394 16.9782 4.83732 16.9782 4.8807V4.9024H16.9526C16.9526 4.9024 16.8758 4.8807 16.8501 4.83732L16.8245 4.96747H16.7989C16.7989 4.96747 16.7477 4.94578 16.7221 4.92409C16.7221 4.98916 16.6965 5.05424 16.7477 5.09762L16.7221 5.11932C16.7221 5.11932 16.6453 5.07593 16.6197 5.03255C16.6197 5.07593 16.6197 5.14101 16.6453 5.1627L16.6709 5.20608L16.6197 5.18439C16.5941 5.18439 16.5429 5.14101 16.4916 5.11932L16.5429 5.33624ZM16.927 4.44687C16.9782 4.44687 17.0038 4.44687 17.0038 4.44687H17.055L17.0038 4.46856C17.0038 4.46856 16.6709 4.64209 16.5172 4.81563C16.4148 4.94578 16.466 5.11932 16.4916 5.20608L16.5172 5.03255L16.5429 5.07593C16.5429 5.09762 16.5941 5.11932 16.6453 5.14101C16.6197 5.07593 16.6453 4.96747 16.6453 4.96747H16.6965C16.6965 5.01086 16.7221 5.05424 16.7733 5.07593C16.7477 4.98916 16.7989 4.8807 16.7989 4.8807H16.8501C16.8501 4.92409 16.8758 4.94578 16.9014 4.94578L16.927 4.79394H16.9526C16.9782 4.83732 17.0038 4.85901 17.055 4.85901C17.055 4.79394 17.1062 4.72886 17.1062 4.72886C17.1831 4.75055 17.2343 4.77225 17.2599 4.79394C17.2855 4.72886 17.2855 4.64209 17.2855 4.64209V4.59871L17.3111 4.64209C17.4135 4.72886 17.4135 4.85901 17.4135 4.9024C17.4391 4.9024 17.4647 4.8807 17.4647 4.8807L17.4904 4.85901L17.516 4.8807C17.5416 4.94578 17.5416 5.01086 17.5416 5.03255L17.5928 5.01086C17.6184 5.05424 17.644 5.09762 17.6696 5.1627C17.6952 5.09762 17.6696 5.05424 17.6696 5.05424V5.03255H17.6952C17.7208 5.03255 17.7464 5.05424 17.7464 5.05424C17.772 4.79394 17.4135 4.46856 17.4135 4.46856L17.4391 4.44687L17.516 4.55533L17.5416 4.51194L17.6184 4.57702L17.644 4.51194H17.6696C17.7208 4.53363 17.7464 4.57702 17.7464 4.6204C17.772 4.6204 17.7977 4.59871 17.7977 4.57702V4.55533H17.8233C17.8489 4.57702 17.8745 4.64209 17.8745 4.66379L17.9513 4.64209C18.0025 4.66378 17.9769 4.72886 17.9769 4.77224C18.0025 4.75055 18.0281 4.72886 18.0537 4.70717L18.0793 4.68548L18.1562 4.75055C18.1562 4.57702 18.105 4.44687 18.0025 4.3601C17.8489 4.20825 17.5928 4.18656 17.4904 4.18656C17.4647 4.18656 17.4391 4.18656 17.4391 4.18656V4.16487C17.4647 4.16487 17.4904 4.14318 17.5416 4.14318C17.6184 4.14318 17.6696 4.14318 17.7208 4.16487V4.12149L17.8745 4.14318V4.12149H17.9001C17.9513 4.12149 18.0281 4.14318 18.0537 4.16487C18.0793 4.14318 18.0537 4.14318 18.0537 4.14318V4.12149H18.0793C18.1306 4.12149 18.1818 4.16487 18.2074 4.18656C18.2074 4.16487 18.2074 4.14318 18.2074 4.12149V4.09979H18.233C18.2842 4.09979 18.3354 4.12149 18.3866 4.16487C18.3866 4.09979 18.3098 4.0781 18.3098 4.0781L18.2586 4.05641H18.4379C18.3866 4.03472 18.3098 4.01303 18.2842 4.01303H18.2586L18.3098 3.94795C18.233 3.90457 18.2074 3.90457 18.1562 3.90457C18.1306 3.90457 18.1306 3.90457 18.1306 3.90457H18.105C18.105 3.88287 18.105 3.86118 18.1306 3.83949H18.105C18.0281 3.83949 17.9769 3.86118 17.9769 3.86118H17.9513V3.79611C17.8489 3.79611 17.7464 3.86118 17.7464 3.86118L17.7208 3.88287L17.6952 3.8178C17.4647 3.88287 17.3623 4.18656 17.3623 4.18656H17.3367L17.3879 4.01303C17.4135 3.99133 17.3879 3.94795 17.3879 3.92626C17.3879 3.92626 17.3879 3.92626 17.3623 3.92626C17.3367 3.92626 17.3111 3.92626 17.3111 3.92626H17.2599L17.2855 3.90457C17.2855 3.90457 17.2855 3.88287 17.2855 3.86118C17.2855 3.83949 17.2599 3.83949 17.2599 3.83949C17.2343 3.83949 17.2087 3.88287 17.1831 3.92626L17.1574 3.96964V3.90457C17.1574 3.86118 17.1318 3.83949 17.1062 3.8178C17.1062 3.83949 17.0806 3.88287 17.055 3.90457L17.0038 3.94795V3.92626C16.9782 3.90457 16.9526 3.86118 16.927 3.86118L16.8758 3.90457L16.9526 4.01303C16.9782 4.05641 17.0038 4.0781 17.0294 4.12149H16.9526L16.8758 4.01303C16.7477 3.8178 16.5685 3.79611 16.5172 3.79611L16.466 3.86118L16.4404 3.83949C16.4148 3.8178 16.3636 3.79611 16.2868 3.79611C16.2868 3.8178 16.2612 3.83949 16.1843 3.83949C16.1331 3.8178 16.0819 3.8178 16.0307 3.8178C16.0051 3.8178 15.9795 3.8178 15.9539 3.8178C16.0051 3.86118 16.0051 3.94795 16.0051 3.94795V3.96964H15.9795C15.9026 3.96964 15.8514 4.01303 15.8258 4.05641C15.877 4.05641 15.9539 4.0781 15.9539 4.0781H15.9795V4.09979C15.9283 4.18656 15.9026 4.27333 15.9026 4.33841C15.9539 4.27333 16.0563 4.22995 16.0563 4.20825L16.0819 4.18656V4.20825C16.0819 4.20825 16.1075 4.25164 16.1331 4.27333C16.1587 4.22995 16.2099 4.20825 16.2099 4.20825H16.2356V4.22995C16.2612 4.25164 16.2612 4.27333 16.2868 4.27333C16.3124 4.20825 16.4148 4.14318 16.4148 4.14318L16.4404 4.12149V4.14318C16.4404 4.16487 16.466 4.18656 16.466 4.20825C16.5172 4.18656 16.5941 4.16487 16.6709 4.16487C16.7733 4.16487 16.8758 4.18656 16.8758 4.18656V4.20825C16.6197 4.22995 16.4148 4.29502 16.2612 4.40348C16.1331 4.49025 16.1075 4.6204 16.0819 4.70717C16.1075 4.68548 16.1331 4.64209 16.1331 4.64209L16.1587 4.6204V4.64209C16.1587 4.66378 16.1843 4.66379 16.2099 4.68548C16.2099 4.64209 16.2356 4.57702 16.2356 4.57702L16.2612 4.53363V4.57702C16.2612 4.59871 16.2612 4.59871 16.3124 4.59871C16.3124 4.59871 16.3124 4.59871 16.338 4.59871C16.338 4.53363 16.4148 4.46856 16.4148 4.46856L16.4404 4.44687V4.49025C16.4404 4.49025 16.466 4.51194 16.4916 4.53363C16.5172 4.46856 16.6197 4.42517 16.6197 4.40348L16.6453 4.38179V4.40348C16.6453 4.42517 16.6709 4.44687 16.6709 4.46856C16.7477 4.44687 16.8501 4.44687 16.927 4.44687Z" fill="black"/>
<path d="M17.8745 7.00661C17.8233 7.00661 17.7464 6.96322 17.7464 6.94153C17.7208 6.91984 17.4647 6.89815 17.2855 7.00661L17.1318 6.96322C17.1318 6.96322 17.3879 6.78969 17.5928 6.7463C17.7976 6.72461 17.9257 6.7463 17.9513 6.78969C17.9257 6.83307 17.9257 7.0283 17.8745 7.00661Z" fill="url(#paint26_linear)"/>
<path d="M17.26 7.0283L17.0552 6.96322L17.0808 6.94153C17.0808 6.94153 17.3369 6.7463 17.5673 6.72461C17.6186 6.72461 17.6698 6.72461 17.721 6.72461C17.849 6.72461 17.9259 6.7463 17.9515 6.78969C17.9515 6.83307 17.9771 6.96322 17.9259 7.0066C17.9002 7.0283 17.9002 7.0283 17.8746 7.0283C17.8234 7.0283 17.7466 6.98491 17.721 6.96322C17.721 6.96322 17.6698 6.96322 17.6186 6.96322C17.5417 6.94153 17.3881 6.96322 17.26 7.0283ZM17.5929 6.91984C17.6442 6.91984 17.721 6.91984 17.7466 6.94153C17.7466 6.96322 17.8234 6.98491 17.8746 6.98491C17.9002 6.96322 17.9002 6.83307 17.9002 6.78969C17.9002 6.76799 17.849 6.7463 17.721 6.7463C17.6698 6.7463 17.6186 6.7463 17.5673 6.7463C17.3881 6.76799 17.2088 6.87645 17.132 6.94153L17.26 6.98491C17.3881 6.91984 17.5417 6.91984 17.5929 6.91984Z" fill="black"/>
<path d="M17.0551 6.9198C17.0551 6.94149 17.1063 7.02826 17.0551 7.04995C17.0039 7.07164 16.9014 7.24518 16.8758 7.26687C16.8502 7.31025 16.7478 7.31025 16.7478 7.31025C16.7478 7.31025 16.7222 7.24518 16.7222 7.22348C16.7222 7.20179 16.927 6.94149 16.9526 6.9198C16.9783 6.9198 17.0551 6.89811 17.0551 6.9198Z" fill="url(#paint27_linear)"/>
<path d="M16.7222 7.332C16.7222 7.3103 16.6966 7.24523 16.671 7.22354C16.6454 7.18015 16.9015 6.91985 16.9271 6.89816C16.9527 6.87646 17.0039 6.87646 17.0295 6.87646C17.0807 6.87646 17.0807 6.89816 17.0807 6.89816C17.0807 6.89816 17.0807 6.91985 17.0807 6.94154C17.0807 6.98492 17.1063 7.02831 17.0807 7.05C17.0551 7.07169 17.0039 7.13677 16.9783 7.18015C16.9527 7.22354 16.9271 7.24523 16.9015 7.26692C16.8502 7.332 16.7478 7.332 16.7222 7.332ZM16.7222 7.22354C16.7222 7.24523 16.7478 7.26692 16.7478 7.28861C16.7734 7.28861 16.8502 7.26692 16.8502 7.24523C16.8759 7.22354 16.9015 7.20184 16.9271 7.15846C16.9783 7.09338 17.0295 7.02831 17.0551 7.02831C17.0807 7.00662 17.0551 6.98492 17.0551 6.94154C17.0551 6.91985 17.0551 6.91985 17.0551 6.89816C17.0295 6.89816 17.0039 6.89816 16.9783 6.91985C16.9015 6.96323 16.7222 7.18015 16.7222 7.22354Z" fill="black"/>
<path d="M16.8759 6.83296C16.8759 6.85465 16.9271 6.94142 16.8759 6.96311C16.8247 6.9848 16.7478 7.13665 16.6966 7.18003C16.671 7.22342 16.5686 7.22342 16.5686 7.22342C16.5686 7.22342 16.543 7.15834 16.543 7.13665C16.543 7.11496 16.7222 6.85465 16.7734 6.85465C16.8247 6.83296 16.8759 6.81127 16.8759 6.83296Z" fill="url(#paint28_linear)"/>
<path d="M16.5942 7.24512C16.5942 7.22343 16.5686 7.15835 16.5686 7.13666C16.5686 7.11497 16.7735 6.83297 16.7991 6.83297C16.8247 6.81128 16.8759 6.81128 16.9015 6.81128C16.9271 6.81128 16.9527 6.83297 16.9527 6.83297C16.9527 6.83297 16.9527 6.85466 16.9527 6.87636C16.9527 6.91974 16.9783 6.96312 16.9527 6.98481C16.9271 7.00651 16.8759 7.07158 16.8503 7.11497C16.8247 7.15835 16.7991 7.18004 16.7991 7.20173C16.6966 7.22343 16.6198 7.24512 16.5942 7.24512ZM16.5942 7.13666C16.5942 7.15835 16.6198 7.18004 16.6198 7.20173C16.6454 7.20173 16.6966 7.18004 16.7223 7.15835C16.7223 7.13666 16.7479 7.11497 16.7735 7.07158C16.8247 7.00651 16.8503 6.96312 16.8759 6.94143C16.9015 6.91974 16.8759 6.89805 16.8759 6.87636C16.8759 6.85466 16.8759 6.85466 16.8759 6.83297C16.8503 6.83297 16.8247 6.83297 16.7991 6.85466C16.7735 6.87635 16.5942 7.09327 16.5942 7.13666Z" fill="black"/>
<path d="M17.5418 7.22339C17.5162 7.22339 17.4137 7.22339 17.3881 7.24508C17.3625 7.28847 17.2089 7.39692 17.1833 7.44031C17.1576 7.48369 17.1833 7.54877 17.1833 7.54877H17.2857C17.3113 7.54877 17.5418 7.33185 17.5418 7.28846C17.5674 7.26677 17.5674 7.22339 17.5418 7.22339Z" fill="url(#paint29_linear)"/>
<path d="M17.2856 7.59212C17.26 7.59212 17.1831 7.59212 17.1831 7.59212H17.1575V7.57042C17.1575 7.57042 17.1319 7.48366 17.1831 7.44027C17.2087 7.41858 17.2344 7.39689 17.26 7.3752C17.3112 7.33181 17.3624 7.28843 17.388 7.24504C17.4136 7.20166 17.4648 7.20166 17.516 7.20166C17.5416 7.20166 17.5416 7.20166 17.5673 7.20166H17.5929C17.6185 7.22335 17.6185 7.26674 17.6185 7.31012C17.5673 7.33181 17.3368 7.59212 17.2856 7.59212ZM17.2087 7.54873C17.2344 7.54873 17.2856 7.54873 17.2856 7.54873C17.3112 7.52704 17.516 7.33181 17.5416 7.31012C17.5416 7.28843 17.5416 7.24504 17.5416 7.24504C17.5416 7.24504 17.516 7.24504 17.4904 7.24504C17.4648 7.24504 17.4136 7.24504 17.4136 7.26674C17.388 7.28843 17.3368 7.3535 17.2856 7.39689C17.26 7.41858 17.2344 7.46196 17.2087 7.46196C17.1831 7.48366 17.1831 7.52704 17.2087 7.54873Z" fill="black"/>
<path d="M17.004 7.39705C17.004 7.39705 17.0296 7.5272 17.004 7.54889C16.9784 7.59228 16.7735 7.8092 16.7223 7.85258C16.6711 7.89597 16.6199 7.87427 16.6199 7.87427C16.6199 7.87427 16.543 7.83089 16.5943 7.78751C16.6455 7.72243 16.7479 7.50551 16.8247 7.46213C16.9016 7.39705 16.9784 7.37536 17.004 7.39705Z" fill="url(#paint30_linear)"/>
<path d="M16.6711 7.89597C16.6455 7.89597 16.6455 7.89597 16.6455 7.89597C16.6455 7.89597 16.5942 7.87428 16.5942 7.83089C16.5942 7.8092 16.5942 7.78751 16.6198 7.76582C16.6455 7.74413 16.6711 7.70074 16.6967 7.63567C16.7479 7.5489 16.7991 7.46213 16.8503 7.41875C16.9015 7.37536 17.004 7.33198 17.0552 7.35367C17.0552 7.37536 17.0808 7.48382 17.0552 7.52721C17.004 7.59228 16.7991 7.83089 16.7479 7.87428C16.6967 7.89597 16.6711 7.89597 16.6711 7.89597ZM16.6455 7.87428C16.6455 7.87428 16.6711 7.87428 16.7223 7.85259C16.7735 7.8092 16.9784 7.59228 17.004 7.5489C17.0296 7.52721 17.004 7.46213 17.004 7.41875C16.9784 7.41875 16.9015 7.44044 16.8759 7.48382C16.8503 7.50551 16.7735 7.61397 16.7479 7.67905C16.7223 7.72243 16.6967 7.78751 16.6711 7.8092C16.6711 7.83089 16.6455 7.83089 16.6711 7.85259C16.6198 7.85259 16.6455 7.85259 16.6455 7.87428Z" fill="black"/>
<path d="M16.4404 7.11507C16.4404 7.11507 16.4404 7.07168 16.3635 7.04999C16.2867 7.0283 16.0562 7.39706 16.1074 7.5489C16.1587 7.70075 16.1587 7.63567 16.1587 7.63567L16.2355 7.61398C16.2355 7.61398 16.1843 7.48383 16.2611 7.39706C16.3123 7.31029 16.3635 7.20183 16.4147 7.18014C16.4404 7.15845 16.4404 7.11507 16.4404 7.11507Z" fill="url(#paint31_linear)"/>
<path d="M16.1587 7.7006C16.1331 7.7006 16.1075 7.67891 16.0819 7.59214C16.0563 7.46199 16.1844 7.20169 16.2868 7.11492C16.338 7.07153 16.338 7.07153 16.3636 7.07153C16.4404 7.09323 16.4404 7.11492 16.4404 7.13661C16.4404 7.13661 16.4404 7.17999 16.4148 7.22338C16.3892 7.24507 16.3124 7.35353 16.2612 7.4403C16.21 7.52706 16.2612 7.63553 16.2612 7.63553V7.65722L16.1587 7.67891C16.1844 7.67891 16.1844 7.7006 16.1587 7.7006ZM16.3892 7.09323C16.3892 7.09323 16.3636 7.09323 16.338 7.13661C16.2356 7.24507 16.1331 7.46199 16.1587 7.57045C16.1587 7.61383 16.1844 7.63552 16.1844 7.65722L16.2612 7.63553C16.2612 7.59214 16.2356 7.50537 16.2868 7.41861C16.338 7.33184 16.3892 7.22338 16.4404 7.20169C16.466 7.17999 16.466 7.13661 16.466 7.13661C16.4148 7.11492 16.4148 7.09323 16.3892 7.09323Z" fill="black"/>
<path d="M16.3892 7.7224C16.3892 7.7224 16.2356 7.7224 16.2356 7.61394C16.2612 7.48379 16.4149 7.15841 16.4405 7.15841C16.4661 7.15841 16.5685 7.13672 16.5685 7.13672L16.5941 7.22349C16.5941 7.22349 16.5173 7.37533 16.4917 7.4621C16.4149 7.54887 16.3636 7.63563 16.3892 7.7224Z" fill="url(#paint32_linear)"/>
<path d="M16.3892 7.74406C16.3636 7.74406 16.3124 7.74406 16.2612 7.70067C16.2356 7.67898 16.2356 7.6356 16.2356 7.61391C16.2356 7.50545 16.3892 7.15837 16.4405 7.13668C16.4661 7.13668 16.5685 7.11499 16.5685 7.11499H16.5941L16.6197 7.22345C16.6197 7.22345 16.5429 7.37529 16.5173 7.46206C16.5173 7.48375 16.4917 7.50545 16.4917 7.50545C16.4149 7.59221 16.3892 7.65729 16.3892 7.74406ZM16.4405 7.15837C16.4149 7.18007 16.2612 7.48375 16.2612 7.59221C16.2612 7.61391 16.2612 7.6356 16.2868 7.65729C16.3124 7.67898 16.338 7.67898 16.3636 7.67898C16.3636 7.61391 16.3892 7.54883 16.4149 7.48375C16.4149 7.46206 16.4405 7.44037 16.4405 7.44037C16.4661 7.3536 16.5429 7.22345 16.5429 7.20176V7.15837C16.5173 7.15837 16.4661 7.15837 16.4405 7.15837Z" fill="black"/>
<path d="M16.5943 7.22335L16.6967 7.20166C16.6967 7.20166 16.7479 7.28843 16.7223 7.31012C16.6967 7.33181 16.5431 7.65719 16.5175 7.70058C16.4919 7.74396 16.415 7.74396 16.415 7.74396C16.415 7.74396 16.3382 7.67888 16.3894 7.6355C16.415 7.59212 16.5431 7.24504 16.5943 7.22335Z" fill="url(#paint33_linear)"/>
<path d="M16.4406 7.76586C16.415 7.76586 16.415 7.76586 16.415 7.76586C16.415 7.76586 16.3382 7.70078 16.3894 7.63571C16.3894 7.61402 16.4406 7.54894 16.4662 7.48386C16.543 7.31033 16.5686 7.22356 16.5942 7.20187L16.7223 7.18018V7.20187C16.7223 7.22356 16.7735 7.31033 16.7479 7.33202C16.7223 7.35371 16.6199 7.57063 16.5686 7.67909L16.543 7.72248C16.5174 7.76586 16.4662 7.76586 16.4406 7.76586ZM16.415 7.74417C16.415 7.74417 16.4406 7.74417 16.415 7.74417C16.4406 7.74417 16.4662 7.74417 16.4662 7.72248L16.4918 7.67909C16.5942 7.48386 16.6711 7.35371 16.6711 7.33202C16.6711 7.33202 16.6711 7.28864 16.6455 7.24525L16.5686 7.26694C16.543 7.28864 16.4918 7.44048 16.4406 7.52725C16.415 7.59232 16.3894 7.6574 16.3638 7.67909C16.3894 7.70078 16.415 7.72248 16.415 7.74417Z" fill="black"/>
<path d="M16.7221 7.33196C16.7221 7.33196 16.8246 7.28858 16.8502 7.31027C16.8758 7.33196 16.927 7.37535 16.9014 7.39704C16.8758 7.41873 16.5941 7.80919 16.5941 7.80919C16.5941 7.80919 16.5429 7.83088 16.5173 7.80919C16.4916 7.7875 16.4916 7.72242 16.5173 7.70073C16.5429 7.65734 16.6453 7.35366 16.7221 7.33196Z" fill="url(#paint34_linear)"/>
<path d="M16.5429 7.83084C16.5173 7.83084 16.4917 7.83084 16.4917 7.80915C16.4661 7.78745 16.4405 7.72238 16.4917 7.67899C16.4917 7.6573 16.5173 7.61392 16.5429 7.57053C16.6198 7.44038 16.671 7.33192 16.6966 7.31023C16.6966 7.31023 16.7734 7.26685 16.799 7.26685C16.8246 7.26685 16.8246 7.26685 16.8246 7.28854C16.8502 7.31023 16.8759 7.35361 16.8759 7.397C16.8502 7.41869 16.5942 7.78745 16.5686 7.83084C16.5686 7.83084 16.5686 7.83084 16.5429 7.83084ZM16.5173 7.80915C16.5429 7.80915 16.5429 7.80915 16.5686 7.80915C16.6966 7.6573 16.8502 7.41869 16.8759 7.397C16.8759 7.37531 16.8502 7.35361 16.8246 7.33192C16.799 7.33192 16.7478 7.35361 16.7222 7.35361C16.6966 7.37531 16.6198 7.50546 16.5942 7.59223C16.5686 7.6573 16.5429 7.70068 16.5429 7.72238C16.4917 7.74407 16.5173 7.78745 16.5173 7.80915Z" fill="black"/>
<path d="M16.7219 7.85244C16.6963 7.87414 16.6963 7.93921 16.7475 7.93921C16.7987 7.93921 16.9012 7.85244 17.0292 7.78737C17.1316 7.7006 17.1572 7.61383 17.1572 7.57045C17.1572 7.52706 17.0804 7.50537 17.0548 7.50537C17.0292 7.50537 17.0036 7.54876 16.978 7.59214C16.9524 7.63552 16.7219 7.85244 16.7219 7.85244Z" fill="url(#paint35_linear)"/>
<path d="M16.7477 7.96083C16.7221 7.96083 16.7221 7.96083 16.6965 7.93914C16.6708 7.91744 16.6708 7.87406 16.6965 7.85237C16.6965 7.85237 16.9013 7.63545 16.9525 7.57037L16.9781 7.54868C17.0038 7.5053 17.0294 7.48361 17.055 7.46191C17.055 7.46191 17.055 7.46191 17.0806 7.46191C17.1318 7.46191 17.183 7.48361 17.2086 7.54868C17.2086 7.59207 17.183 7.70053 17.0806 7.78729H17.055C16.9013 7.89575 16.7989 7.96083 16.7477 7.96083ZM16.7477 7.87406C16.7477 7.89575 16.7477 7.91745 16.7477 7.91745C16.7477 7.91745 16.7477 7.91745 16.7733 7.91745C16.7989 7.91745 16.9269 7.83068 17.0294 7.7656H17.055C17.1574 7.67883 17.183 7.59207 17.183 7.54868C17.183 7.5053 17.1318 7.5053 17.1062 7.5053C17.0806 7.5053 17.0806 7.52699 17.055 7.57037C17.055 7.57037 17.055 7.59207 17.0294 7.59207C16.9525 7.63545 16.7733 7.83068 16.7477 7.87406Z" fill="black"/>
<path d="M17.1578 7.54883C17.209 7.57052 17.2858 7.52714 17.2858 7.57052C17.2858 7.59221 17.3114 7.67898 17.2858 7.74406C17.2346 7.80913 17.0554 7.98267 16.9529 8.00436C16.8505 8.02605 16.7481 7.96098 16.7993 7.93928C16.8505 7.91759 17.0554 7.76575 17.1066 7.72236C17.1578 7.67898 17.1578 7.54883 17.1578 7.54883Z" fill="url(#paint36_linear)"/>
<path d="M16.9015 8.02601C16.8247 8.02601 16.7734 8.00432 16.7734 7.96094C16.7734 7.93925 16.7734 7.91755 16.799 7.91755C16.8503 7.89586 17.0551 7.74402 17.1063 7.70064C17.132 7.65725 17.1576 7.57048 17.1576 7.54879V7.5271H17.1832C17.2088 7.5271 17.2344 7.5271 17.26 7.5271H17.2856C17.3112 7.5271 17.3112 7.5271 17.3368 7.54879V7.57048C17.3368 7.57048 17.3368 7.59218 17.3368 7.61387C17.3368 7.65725 17.3624 7.70064 17.3368 7.74402C17.26 7.8091 17.0807 7.98263 16.9527 8.02601C16.9527 8.02601 16.9271 8.02601 16.9015 8.02601ZM17.1832 7.57048C17.1832 7.61387 17.1576 7.70063 17.1063 7.72233C17.0551 7.76571 16.8759 7.91755 16.799 7.93925C16.799 7.96094 16.8503 7.98263 16.9015 7.98263C16.9271 7.98263 16.9271 7.98263 16.9527 7.98263C17.0551 7.96094 17.2344 7.7874 17.2856 7.72233C17.3112 7.67894 17.3112 7.63556 17.2856 7.59218C17.2856 7.57048 17.2856 7.57048 17.2856 7.54879H17.26C17.2344 7.57048 17.2088 7.57048 17.1832 7.57048Z" fill="black"/>
<path d="M17.2855 7.63555C17.2855 7.63555 17.4136 7.61386 17.4136 7.65724C17.4136 7.67893 17.4648 7.74401 17.3879 7.80909C17.3367 7.87416 17.1319 8.11277 17.0294 8.11277C16.927 8.11277 16.9014 8.02601 16.9526 8.00431C17.0038 8.00431 17.2343 7.80909 17.2343 7.78739C17.2599 7.74401 17.2855 7.63555 17.2855 7.63555Z" fill="url(#paint37_linear)"/>
<path d="M17.0294 8.11293C16.9526 8.11293 16.927 8.06955 16.9014 8.02616C16.9014 8.00447 16.9014 7.98278 16.927 7.98278C16.9526 7.98278 17.1831 7.80924 17.2087 7.76586C17.2343 7.74417 17.2343 7.6574 17.2343 7.63571V7.61401H17.2599C17.2599 7.61401 17.2855 7.61401 17.3111 7.61401C17.3367 7.61401 17.3879 7.61401 17.3879 7.63571C17.3879 7.6574 17.4135 7.72247 17.3623 7.78755C17.4135 7.83093 17.1831 8.11293 17.0294 8.11293ZM17.3111 7.6574C17.3111 7.67909 17.2855 7.76586 17.2599 7.78755C17.2343 7.83093 17.0038 8.00447 16.9526 8.02616V8.04785C16.9526 8.04785 16.9782 8.09124 17.0294 8.09124C17.1062 8.09124 17.2855 7.9177 17.3623 7.80924C17.4135 7.76586 17.3879 7.70078 17.3879 7.67909C17.3879 7.67909 17.3623 7.67909 17.3367 7.67909C17.3367 7.6574 17.3111 7.6574 17.3111 7.6574Z" fill="black"/>
<path d="M16.5682 7.80908C16.5682 7.80908 16.6194 7.85247 16.6194 7.89585C16.6194 7.91754 16.4658 8.15615 16.3634 8.19954C16.2353 8.24292 16.2609 8.15615 16.2865 8.11277C16.3121 8.04769 16.4402 7.85247 16.4658 7.83077C16.4914 7.80908 16.5426 7.80908 16.5682 7.80908Z" fill="url(#paint38_linear)"/>
<path d="M16.3123 8.24288C16.2867 8.24288 16.2611 8.22119 16.2611 8.22119C16.2355 8.1995 16.2611 8.15612 16.2867 8.11273L16.3123 8.06935C16.3891 7.91751 16.466 7.83074 16.4916 7.80905C16.5172 7.78735 16.5684 7.78735 16.6196 7.78735C16.6196 7.78735 16.6708 7.85243 16.6708 7.87412C16.6708 7.89581 16.5172 8.15612 16.3891 8.1995C16.3379 8.22119 16.3123 8.24288 16.3123 8.24288ZM16.5428 7.83074C16.5172 7.83074 16.5172 7.83074 16.4916 7.85243C16.466 7.87412 16.3635 8.02596 16.3379 8.09104L16.3123 8.13442C16.2867 8.15612 16.2867 8.1995 16.2867 8.1995C16.2867 8.1995 16.2867 8.1995 16.3123 8.1995C16.3123 8.1995 16.3379 8.1995 16.3635 8.17781C16.466 8.13442 16.6196 7.89581 16.6196 7.87412C16.6196 7.85243 16.594 7.83074 16.594 7.80905C16.5428 7.83074 16.5428 7.83074 16.5428 7.83074Z" fill="black"/>
<path d="M16.4662 7.80918C16.4918 7.78749 16.415 7.72241 16.3638 7.72241C16.3126 7.72241 16.1845 8.0261 16.1589 8.09118C16.1333 8.17794 16.1845 8.19964 16.2357 8.17794C16.2613 8.15625 16.4406 7.83087 16.4662 7.80918Z" fill="url(#paint39_linear)"/>
<path d="M16.2101 8.19956C16.1845 8.19956 16.1845 8.19956 16.1589 8.17787C16.1333 8.15618 16.1333 8.11279 16.1333 8.06941C16.1333 8.00433 16.287 7.67896 16.3638 7.67896C16.415 7.67896 16.4662 7.70065 16.4662 7.74403C16.4662 7.76572 16.4918 7.78741 16.4662 7.78741C16.4662 7.78741 16.4406 7.8308 16.415 7.87418C16.3126 8.04772 16.2357 8.15618 16.2357 8.17787C16.2357 8.19956 16.2101 8.19956 16.2101 8.19956ZM16.3638 7.74403C16.3126 7.76572 16.1845 8.02603 16.1845 8.11279C16.1845 8.15618 16.1845 8.17787 16.1845 8.17787H16.2101C16.2357 8.15618 16.3382 7.98264 16.3894 7.89587C16.415 7.8308 16.4406 7.80911 16.4406 7.80911C16.4406 7.80911 16.4406 7.80911 16.4406 7.78741C16.4406 7.76572 16.3894 7.74403 16.3638 7.74403Z" fill="black"/>
<path d="M16.6196 7.8958C16.6709 7.8958 16.7477 7.87411 16.7477 7.93919C16.7477 8.00426 16.7221 8.09103 16.6196 8.15611C16.5172 8.22118 16.466 8.28626 16.3636 8.26457C16.2867 8.24288 16.3892 8.09103 16.4404 8.06934C16.5172 8.06934 16.6196 7.8958 16.6196 7.8958Z" fill="url(#paint40_linear)"/>
<path d="M16.4147 8.28642C16.4147 8.28642 16.3891 8.28642 16.4147 8.28642C16.3635 8.28642 16.3379 8.26472 16.3379 8.24303C16.3379 8.17796 16.4147 8.09119 16.4659 8.0695C16.4915 8.0478 16.5684 7.93934 16.6196 7.87427C16.6452 7.87427 16.6452 7.87427 16.6708 7.87427C16.7476 7.87427 16.7732 7.91765 16.7732 7.93934C16.7732 7.98273 16.7732 8.09119 16.6452 8.17796C16.5684 8.24303 16.4915 8.28642 16.4147 8.28642ZM16.6452 7.91765C16.6196 7.96104 16.5428 8.09119 16.4915 8.11288C16.4659 8.13457 16.3891 8.22134 16.3891 8.26472C16.3891 8.26472 16.3891 8.26472 16.4147 8.28642C16.4915 8.28642 16.5684 8.24303 16.6452 8.17796C16.7476 8.09119 16.7476 8.00442 16.7476 7.96104C16.7476 7.96104 16.7476 7.93934 16.6964 7.93934C16.6708 7.89596 16.6452 7.91765 16.6452 7.91765Z" fill="black"/>
<path d="M16.7478 7.98267C16.7478 7.98267 16.8759 7.98267 16.9015 8.02605C16.9015 8.06943 16.9015 8.1562 16.799 8.22128C16.671 8.28635 16.543 8.35143 16.4661 8.32974C16.3893 8.30805 16.5686 8.22128 16.6198 8.19959C16.6454 8.13451 16.7478 7.98267 16.7478 7.98267Z" fill="url(#paint41_linear)"/>
<path d="M16.4916 8.32967C16.466 8.32967 16.466 8.32967 16.4404 8.32967C16.4148 8.32967 16.4148 8.30797 16.4148 8.30797C16.4148 8.28628 16.4404 8.2429 16.5172 8.19951C16.5428 8.17782 16.5684 8.17782 16.5684 8.15613C16.5941 8.13444 16.6197 8.06936 16.6709 8.02598C16.6965 7.98259 16.7221 7.9609 16.7221 7.93921C16.7221 7.93921 16.7221 7.93921 16.7477 7.93921C16.8501 7.93921 16.8757 7.9609 16.9014 7.98259C16.9014 8.00429 16.927 8.11274 16.7733 8.19951C16.6709 8.28628 16.5684 8.32967 16.4916 8.32967ZM16.466 8.30797C16.5428 8.32966 16.6453 8.28628 16.7733 8.19951C16.8757 8.13444 16.8757 8.02598 16.8757 8.02598C16.8757 8.02598 16.8501 8.00429 16.7733 8.00429C16.7733 8.00429 16.7477 8.04767 16.7221 8.06936C16.6965 8.11275 16.6453 8.17782 16.6197 8.19951C16.5941 8.2212 16.5684 8.2212 16.5428 8.2429C16.5172 8.2429 16.466 8.28628 16.466 8.30797Z" fill="black"/>
<path d="M13.7004 7.52703C13.598 7.52703 13.5468 7.50534 13.5212 7.50534V7.48365C13.5212 7.48365 13.6492 7.50534 13.7772 7.48365L13.7516 7.41857H13.7772C13.7772 7.41857 13.8797 7.39688 13.9565 7.35349L13.8541 7.31011L13.9053 7.28842C13.9309 7.28842 14.0333 7.24503 14.0589 7.20165H14.0077V7.17996C14.0077 7.17996 14.1614 7.13657 14.2126 7.04981L14.1358 7.0715L14.1102 7.04981C14.1102 7.04981 14.2382 6.96304 14.2638 6.87627L14.1358 6.94135L14.1102 6.91965C14.187 6.85458 14.2894 6.76781 14.3406 6.70274C14.2638 6.74612 14.1102 6.85458 14.0077 6.87627C13.9565 6.89796 13.9053 6.89796 13.8541 6.91965C13.7772 6.94135 13.7004 6.96304 13.6492 6.98473C13.598 6.98473 13.4443 7.02811 13.4187 7.11488C13.3931 7.15827 13.3931 7.22334 13.3931 7.26673C13.3931 7.31011 13.3931 7.3318 13.3675 7.35349C13.3419 7.37519 13.2395 7.37519 13.2139 7.37519V7.3318C13.2651 7.3318 13.3163 7.31011 13.3163 7.31011C13.3163 7.31011 13.3163 7.26673 13.3419 7.24503C13.3419 7.20165 13.3675 7.13657 13.3675 7.09319C13.3931 6.98473 13.5724 6.94135 13.6236 6.94135C13.6748 6.94135 13.7516 6.89796 13.8285 6.87627C13.8797 6.85458 13.9309 6.83289 13.9821 6.83289C14.1102 6.81119 14.3406 6.63766 14.3406 6.63766L14.3662 6.61597V6.63766C14.3662 6.70273 14.2894 6.7895 14.2126 6.85458L14.3406 6.7895V6.81119C14.3406 6.89796 14.2638 6.96304 14.2126 7.00642L14.2894 6.98473V7.00642C14.2638 7.09319 14.1614 7.13657 14.1102 7.15827H14.1358V7.17996C14.1102 7.22334 14.0333 7.26673 13.9821 7.28842L14.0589 7.31011L14.0333 7.37519C13.9565 7.41857 13.8541 7.44026 13.8285 7.46195L13.8541 7.52703H13.8285C13.8029 7.52703 13.7516 7.52703 13.7004 7.52703Z" fill="black"/>
<path d="M13.8797 8.4382C13.8285 8.39482 13.8285 8.30805 13.8028 8.24297C13.8028 8.22128 13.7772 8.1779 13.7772 8.15621C13.7516 8.06944 13.6748 8.04775 13.5724 8.02605C13.5468 8.02605 13.5212 8.00436 13.4699 8.00436C13.3419 7.98267 13.1114 7.96098 12.9578 7.83083C12.7017 7.61391 12.7529 7.22345 12.7785 7.07161C12.7785 7.04992 12.7785 7.04992 12.7785 7.02822C12.7785 6.98484 12.7529 6.96315 12.7273 6.94146C12.6761 6.89807 12.548 6.89807 12.548 6.89807H12.4968L12.548 6.87638C12.5736 6.87638 12.5737 6.85469 12.5993 6.85469C12.6505 6.833 12.7273 6.8113 12.7529 6.76792C12.8041 6.70284 12.8809 6.68115 13.009 6.68115C13.0858 6.68115 13.137 6.72454 13.1626 6.74623C13.2139 6.78961 13.2139 6.833 13.2139 6.87638C13.2139 6.89807 13.2395 6.96315 13.2651 7.00653C13.2907 7.02822 13.2907 7.07161 13.3163 7.0933C13.3419 7.15838 13.4187 7.22345 13.4187 7.22345L13.3931 7.24514C13.3931 7.24514 13.3163 7.18007 13.2907 7.11499C13.2907 7.0933 13.2651 7.07161 13.2395 7.02822C13.2139 6.98484 13.1626 6.91976 13.1882 6.87638C13.1882 6.85469 13.1882 6.8113 13.137 6.76792C13.1114 6.74623 13.0858 6.72454 13.009 6.72454C12.8809 6.72454 12.8297 6.76792 12.8041 6.78961C12.7785 6.833 12.7017 6.85469 12.6505 6.89807C12.7017 6.89807 12.7529 6.91976 12.7785 6.94146C12.8041 6.96315 12.8553 6.98484 12.8553 7.04992C12.8553 7.04992 12.8553 7.07161 12.8553 7.0933C12.8297 7.24514 12.7785 7.61391 13.0346 7.80914C13.1882 7.93929 13.3931 7.96098 13.5468 7.98267C13.598 7.98267 13.6236 7.98267 13.6492 8.00436C13.7516 8.02606 13.8541 8.06944 13.8797 8.15621C13.8797 8.1779 13.9053 8.19959 13.9053 8.24297C13.9309 8.30805 13.9309 8.37313 13.9565 8.39482L14.0333 8.37313L13.9565 8.30805L14.0077 8.32974C14.0077 8.32974 14.187 8.37313 14.2638 8.37313C14.2638 8.35143 14.2638 8.32974 14.2382 8.30805V8.28636H14.2638C14.2894 8.28636 14.3662 8.26467 14.3918 8.24297H14.3662C14.315 8.22128 14.2638 8.19959 14.2126 8.1779C14.1357 8.11282 13.9821 7.96098 13.9309 7.87421C13.9053 7.85252 13.9053 7.83083 13.8797 7.78744C13.8285 7.67898 13.726 7.54883 13.6236 7.48376L13.6492 7.46206C13.7516 7.52714 13.8541 7.65729 13.9053 7.76575C13.9309 7.80913 13.9309 7.83083 13.9565 7.85252C14.0077 7.93929 14.1614 8.06944 14.2382 8.15621C14.2894 8.1779 14.3406 8.19959 14.3662 8.22128C14.4174 8.24297 14.4174 8.24297 14.443 8.26467C14.443 8.26467 14.443 8.28636 14.4174 8.28636C14.3918 8.30805 14.315 8.32974 14.2638 8.32974C14.2894 8.39482 14.2638 8.39482 14.2638 8.39482H14.2382C14.187 8.39482 14.0845 8.37313 14.0077 8.35143L14.0333 8.39482L13.8797 8.4382Z" fill="black"/>
<path d="M13.2138 7.02825H13.1626C13.1626 7.02825 13.1882 6.8764 13.2906 6.85471H13.3162C13.4187 6.81133 13.726 6.70287 13.8284 6.59441L13.854 6.55103V6.59441C13.854 6.59441 13.8796 6.70287 13.8028 6.76795H13.854V6.78964C13.854 6.78964 13.8284 6.91979 13.726 6.96317L13.7004 6.94148C13.7772 6.91979 13.8028 6.83302 13.8028 6.81133H13.7004L13.7516 6.78964C13.8028 6.74625 13.8284 6.70287 13.8284 6.65949C13.7004 6.76795 13.4443 6.85471 13.3419 6.8981H13.3162C13.265 6.8764 13.2138 6.98487 13.2138 7.02825Z" fill="black"/>
<path d="M13.4443 7.39704C13.4443 7.39704 13.4187 7.39704 13.4443 7.39704L13.4187 7.35365C13.4187 7.35365 13.5724 7.35365 13.6236 7.26688C13.6492 7.26688 13.7004 7.2235 13.7004 7.18012C13.7004 7.18012 13.7004 7.15842 13.6748 7.13673V7.13673L13.7004 7.11504C13.7516 7.09335 13.8028 7.07166 13.8028 7.04996L13.7772 7.02827L13.8028 7.00658C13.8284 7.00658 13.8796 6.9632 13.8796 6.91981C13.8796 6.89812 13.8796 6.89812 13.854 6.87643L13.8796 6.85474C13.9053 6.87643 13.9053 6.89812 13.9053 6.91981C13.9053 6.9632 13.854 6.98489 13.8284 7.00658V7.02827C13.8284 7.07166 13.7516 7.09335 13.726 7.11504C13.7516 7.13673 13.7516 7.13673 13.7516 7.15842C13.7516 7.20181 13.6748 7.24519 13.6492 7.26688C13.6236 7.37534 13.4955 7.39704 13.4443 7.39704Z" fill="black"/>
<path d="M12.6247 6.87642L12.5991 6.85472C12.6247 6.81134 12.6247 6.72457 12.5991 6.70288H12.6247C12.6503 6.70288 12.7016 6.81134 12.6247 6.87642Z" fill="black"/>
<path d="M12.4201 6.94149C12.4201 6.9198 12.4713 6.76796 12.2665 6.70288C12.2665 6.70288 12.2153 6.87642 12.2921 6.96318" fill="url(#paint42_linear)"/>
<path d="M12.2665 6.96311C12.1896 6.87634 12.2408 6.70281 12.2408 6.68112V6.65942H12.2665C12.4713 6.74619 12.4457 6.87634 12.4457 6.91973H12.3945C12.3945 6.91973 12.3945 6.91973 12.3945 6.89804C12.3945 6.85465 12.4201 6.76788 12.2665 6.68112C12.2665 6.7245 12.2408 6.83296 12.2921 6.89804L12.2665 6.96311Z" fill="black"/>
<path d="M11.9335 6.91973C11.8311 6.83296 11.8311 6.70281 11.8311 6.70281C11.9591 6.7245 12.0359 6.81127 12.0359 6.81127C11.9847 6.74619 12.0103 6.65942 12.0103 6.65942C12.1384 6.68112 12.2408 6.78958 12.2408 6.81127C12.2664 6.83296 12.3432 6.96311 12.3432 6.96311C12.3432 6.96311 12.0359 7.02819 11.9335 6.91973Z" fill="url(#paint43_linear)"/>
<path d="M12.1384 7.00646C12.0359 7.00646 11.9591 6.98477 11.9335 6.94138C11.8311 6.85462 11.8311 6.72446 11.8311 6.70277V6.68108H11.8567C11.9335 6.68108 11.9847 6.72446 12.0103 6.74616C12.0103 6.70277 12.0103 6.65939 12.0103 6.65939V6.6377H12.0359C12.1896 6.65939 12.2664 6.78954 12.2664 6.78954C12.292 6.81123 12.3688 6.94138 12.3688 6.94138V6.96307H12.3432C12.3432 6.98477 12.2408 7.00646 12.1384 7.00646ZM11.8567 6.72446C11.8567 6.76785 11.8823 6.85462 11.9591 6.91969C11.9847 6.96308 12.0615 6.96307 12.1384 6.96307C12.2152 6.96307 12.2664 6.96308 12.292 6.94138C12.2664 6.898 12.2152 6.83292 12.2152 6.81123C12.2152 6.81123 12.1384 6.70277 12.0103 6.68108C12.0103 6.70277 12.0103 6.74616 12.0359 6.78954L12.0103 6.81123C12.0103 6.83292 11.9591 6.74616 11.8567 6.72446Z" fill="black"/>
<path d="M12.2409 6.96305C12.2409 6.96305 12.036 6.89797 11.908 7.02812C11.908 7.02812 11.9848 7.11489 12.1384 7.07151" fill="url(#paint44_linear)"/>
<path d="M12.0616 7.09341C11.9335 7.09341 11.8823 7.02833 11.8823 7.02833V7.00664C12.036 6.87649 12.2408 6.94156 12.2408 6.94156L12.2152 6.96325C12.2152 6.96325 12.036 6.89818 11.9079 7.00664C11.9335 7.02833 11.9848 7.07171 12.1128 7.02833V7.05002C12.1128 7.09341 12.0872 7.09341 12.0616 7.09341Z" fill="black"/>
<path d="M12.8808 6.87632C12.8551 6.87632 12.8295 6.87632 12.8039 6.85463H12.7783V6.83293C12.7783 6.81124 12.8295 6.78955 12.8551 6.78955C12.8808 6.78955 12.9064 6.78955 12.9064 6.81124C12.9064 6.83294 12.9064 6.83293 12.9064 6.83293C12.9064 6.87632 12.8808 6.87632 12.8808 6.87632Z" fill="black"/>
<path d="M17.2344 6.98486C17.2344 7.02825 17.2857 7.09332 17.2344 7.11501C17.1832 7.1584 17.0808 7.31024 17.0296 7.35363C16.9784 7.39701 16.8759 7.39701 16.8759 7.39701C16.8759 7.39701 16.8503 7.31024 16.8247 7.31024C16.8247 7.28855 17.0296 7.00655 17.0808 7.00655C17.1576 6.98486 17.2344 6.98486 17.2344 6.98486Z" fill="url(#paint45_linear)"/>
<path d="M16.8758 7.41867C16.8758 7.39697 16.8502 7.3319 16.8246 7.31021C16.7989 7.26682 17.055 6.98483 17.0806 6.98483C17.1062 6.96314 17.1575 6.96313 17.1831 6.96313C17.2343 6.96313 17.2343 6.98483 17.2343 6.98483C17.2343 6.98483 17.2343 7.00652 17.2343 7.02821C17.2599 7.0716 17.2599 7.11498 17.2343 7.13667C17.2087 7.15836 17.1575 7.22344 17.1062 7.26682C17.0806 7.31021 17.055 7.3319 17.0294 7.35359C17.0038 7.41867 16.9014 7.41867 16.8758 7.41867ZM16.8758 7.31021C16.8758 7.3319 16.9014 7.37528 16.9014 7.39697C16.927 7.39697 17.0038 7.37528 17.0294 7.35359C17.055 7.3319 17.0806 7.31021 17.1062 7.26682C17.1575 7.20175 17.2087 7.13667 17.2343 7.11498C17.2599 7.09329 17.2343 7.0716 17.2343 7.02821C17.2343 7.00652 17.2343 7.00652 17.2343 6.98483C17.2087 6.98483 17.1575 6.98483 17.1318 7.00652C17.0806 7.02821 16.8758 7.26682 16.8758 7.31021Z" fill="black"/>
<path d="M12.4968 7.00659C12.4968 7.00659 12.5224 7.07167 12.548 7.11505C12.5736 7.13674 12.6504 7.2452 12.6248 7.33197C12.5992 7.41874 12.5224 7.48382 12.5224 7.48382C12.5224 7.48382 12.4199 7.35366 12.4456 7.28859C12.4456 7.28859 12.4712 7.46212 12.3175 7.5272C12.3175 7.5272 12.2919 7.48382 12.2919 7.44043C12.2919 7.39705 12.2663 7.22351 12.3687 7.18013" fill="url(#paint46_linear)"/>
<path d="M12.3175 7.52709C12.3175 7.5054 12.2919 7.46201 12.2663 7.41863C12.2663 7.37525 12.2406 7.20171 12.3687 7.13663L12.3943 7.15833C12.2919 7.20171 12.3175 7.37525 12.3175 7.39694C12.3175 7.41863 12.3431 7.44032 12.3431 7.46201C12.4199 7.41863 12.4455 7.35355 12.4455 7.28848C12.4455 7.26679 12.4455 7.24509 12.4455 7.2234H12.4711C12.4711 7.2234 12.4711 7.24509 12.4711 7.26679C12.4711 7.31017 12.4967 7.35355 12.5223 7.37525C12.5479 7.35355 12.5735 7.31017 12.5992 7.24509C12.6248 7.15833 12.5479 7.07156 12.5223 7.04987C12.4967 7.00648 12.4711 6.94141 12.4711 6.94141H12.5223C12.5223 6.9631 12.5479 7.00648 12.5735 7.02817C12.5992 7.04987 12.676 7.15833 12.6504 7.24509C12.6248 7.33186 12.5479 7.39694 12.5479 7.39694L12.5223 7.41863L12.4967 7.39694C12.4967 7.39694 12.4711 7.35355 12.4455 7.31017C12.4455 7.44032 12.3943 7.48371 12.3175 7.52709Z" fill="black"/>
<path d="M12.5993 6.91968C12.5993 6.91968 12.5481 6.94137 12.4969 6.96306C12.4456 6.96306 12.3176 6.94137 12.2408 6.98475C12.164 7.02814 12.1383 7.15829 12.0615 7.20167C12.0615 7.20167 12.2152 7.17998 12.292 7.17998C12.3944 7.20167 12.4969 7.1149 12.4969 7.07152C12.5225 7.02814 12.5225 6.98475 12.5225 6.98475" fill="url(#paint47_linear)"/>
<path d="M12.0359 7.18015V7.15846C12.0615 7.13677 12.0871 7.09338 12.1127 7.05C12.1383 7.00662 12.1639 6.96323 12.2151 6.94154C12.2664 6.91985 12.3432 6.91985 12.3944 6.91985C12.42 6.91985 12.4456 6.91985 12.4712 6.91985C12.5224 6.91985 12.5737 6.87646 12.5737 6.87646L12.5993 6.89816C12.5993 6.89816 12.5481 6.91985 12.4968 6.94154H12.5224L12.4968 7.02831C12.4712 7.09338 12.3944 7.18015 12.2664 7.15846C12.1895 7.15846 12.0359 7.18015 12.0359 7.18015ZM12.2151 7.13677C12.2408 7.13677 12.2664 7.13677 12.2664 7.13677C12.3688 7.15846 12.4456 7.09338 12.4456 7.05L12.4712 6.96323C12.4456 6.96323 12.42 6.96323 12.3944 6.96323C12.3432 6.96323 12.292 6.96323 12.2408 6.98492C12.2151 7.00662 12.1895 7.05 12.1639 7.07169C12.1383 7.09338 12.1383 7.11508 12.1127 7.13677C12.1383 7.13677 12.1639 7.13677 12.2151 7.13677Z" fill="black"/>
<path d="M13.982 2.53799C13.982 2.53799 14.0844 2.62476 14.11 2.71153C14.11 2.71153 14.0076 2.75491 13.9564 2.75491C13.9564 2.75491 13.982 2.81999 13.982 2.86337C13.982 2.86337 13.8796 2.88506 13.8284 2.86337C13.8284 2.86337 13.8284 2.99352 13.7771 3.0369C13.7771 3.0369 13.5979 2.99352 13.5979 2.90675C13.5979 2.90675 13.4955 2.95014 13.3674 2.92844C13.3674 2.92844 13.3162 2.79829 13.3418 2.75491C13.3418 2.75491 13.1625 2.75491 13.1113 2.71153C13.1113 2.71153 13.1882 2.55968 13.265 2.55968C13.265 2.55968 13.1369 2.49461 13.1113 2.45122C13.1113 2.45122 13.2906 2.40784 13.3418 2.45122C13.3418 2.45122 13.3418 2.29938 13.3674 2.27769H13.4955V2.19092H13.6747L14.0332 2.36445C14.0332 2.36445 14.11 2.42953 14.11 2.47291C14.11 2.5163 13.982 2.55968 13.982 2.53799Z" fill="url(#paint48_linear)"/>
<path d="M13.7515 3.05867C13.7259 3.05867 13.5722 3.01529 13.5466 2.92852C13.521 2.92852 13.4698 2.95021 13.393 2.95021C13.3674 2.95021 13.3417 2.95021 13.3161 2.95021C13.3161 2.92852 13.2649 2.84175 13.2905 2.79837C13.2905 2.79837 13.2905 2.79837 13.2649 2.79837C13.1625 2.79837 13.0857 2.77667 13.0601 2.75498C13.0601 2.73329 13.1113 2.64652 13.1881 2.60314C13.1369 2.58145 13.0857 2.53806 13.0601 2.51637V2.49468H13.0857C13.0857 2.49468 13.1881 2.47299 13.2649 2.47299C13.2905 2.47299 13.3161 2.47299 13.3161 2.47299C13.3161 2.4296 13.3161 2.34283 13.3417 2.32114H13.4698V2.23438H13.6747L14.0332 2.4296C14.0332 2.4296 14.11 2.49468 14.11 2.55975C14.11 2.55975 14.0588 2.58145 14.0076 2.58145C14.0332 2.62483 14.0844 2.66821 14.11 2.75498C14.11 2.75498 14.0332 2.79837 13.982 2.79837C13.982 2.82006 14.0076 2.86344 14.0076 2.88513V2.90683H13.982C13.982 2.90683 13.9051 2.92852 13.8539 2.90683C13.8283 2.95021 13.8027 3.01529 13.7515 3.05867ZM13.5978 2.90683V2.92852C13.5978 2.9719 13.7003 3.01529 13.7515 3.03698C13.7771 2.99359 13.7771 2.90683 13.7771 2.88513V2.84175L13.8027 2.86344C13.8027 2.86344 13.8283 2.86344 13.8539 2.86344C13.8795 2.86344 13.9051 2.86344 13.9307 2.86344C13.9307 2.82006 13.9051 2.75498 13.9051 2.75498V2.73329H13.9307H13.9563C14.0076 2.73329 14.0332 2.7116 14.0588 2.7116C14.0332 2.62483 13.9563 2.55975 13.9563 2.55975L13.982 2.53806C14.0076 2.53806 14.0332 2.51637 14.0844 2.51637C14.0844 2.47299 14.0332 2.45129 14.0332 2.4296L13.6747 2.23438H13.521V2.32114H13.3674C13.3674 2.34283 13.3417 2.40791 13.3417 2.47299V2.51637L13.3161 2.49468C13.3161 2.49468 13.2905 2.47299 13.2649 2.47299C13.2137 2.47299 13.1625 2.47299 13.1369 2.49468C13.1625 2.51637 13.2137 2.53806 13.2649 2.55975L13.3161 2.58145H13.2393C13.1881 2.58145 13.1369 2.66821 13.1113 2.7116C13.1369 2.73329 13.1881 2.73329 13.2649 2.73329C13.2905 2.73329 13.2905 2.73329 13.2905 2.73329H13.3161V2.75498C13.3161 2.77667 13.3161 2.86344 13.3417 2.90683C13.3674 2.90683 13.3674 2.90683 13.393 2.90683C13.4954 2.92852 13.5722 2.90683 13.5978 2.90683Z" fill="black"/>
<path d="M13.5723 2.81986L13.5467 2.68971L13.3931 2.7114V2.55956L13.4443 2.51617V2.42941L13.5211 2.40771L13.5467 2.4511H13.4955V2.51617L13.4187 2.58125L13.4443 2.66802H13.5979V2.77648L13.726 2.75479L13.7772 2.64633L13.9052 2.62463L13.9308 2.64633L13.8028 2.66802L13.7516 2.77648L13.5723 2.81986Z" fill="black"/>
<path d="M13.4443 2.77667V2.66821H13.4699V2.73329H13.5468V2.77667H13.4443Z" fill="black"/>
<path d="M13.5469 2.68986L13.5725 2.49463L13.7773 2.60309L13.5469 2.68986ZM13.5981 2.5597V2.64647L13.6749 2.60309L13.5981 2.5597Z" fill="black"/>
<path d="M13.7773 2.49448L13.803 2.40771H13.8286C13.931 2.40771 13.9566 2.4511 13.9566 2.47279V2.49448H13.7773ZM13.8286 2.42941V2.4511H13.9054C13.8798 2.4511 13.8798 2.42941 13.8286 2.42941Z" fill="black"/>
<path d="M13.6747 2.45116L13.5979 2.29932H13.6235C13.6235 2.29932 13.6235 2.29932 13.6491 2.29932C13.6747 2.29932 13.7259 2.29932 13.7515 2.36439V2.38608L13.6747 2.45116ZM13.6491 2.3427L13.6747 2.40778L13.7003 2.38608C13.7003 2.36439 13.6747 2.3427 13.6491 2.3427Z" fill="black"/>
<path d="M10.2945 0H3C1.34315 0 0 1.34315 0 3V5.63991H10.2945V0Z" fill="#2E3192"/>
<path d="M1.70617 0.291624L4.45585 1.8872V0H5.88991V2.10412L9.57749 0H10.2689V0.737527L7.29836 2.40781H10.2689V3.60087H6.96546L10.2689 5.63991H8.75803L5.88991 4.01302V5.63991H4.45585V3.86117L1.28044 5.63991H0.0256348V5.27115L2.91936 3.60087H0.0256348V2.40781H3.53396L0.854481 0.900193C1.13107 0.627944 1.31225 0.489514 1.70617 0.291624Z" fill="white"/>
<path d="M4.50701 2.40778L1.24953 0.551514L1.01855 0.746864L3.96923 2.40778H4.50701Z" fill="#ED1C24"/>
<path d="M5.83862 2.40781L10.0896 0H10.2688V0.21692L6.402 2.40781H5.83862Z" fill="#ED1C24"/>
<path d="M6.55584 3.60083L9.91051 5.63988H9.39835L6.01807 3.60083H6.55584Z" fill="#ED1C24"/>
<path d="M4.45566 3.60083L0.870509 5.63988H0.307129L3.89228 3.60083H4.45566Z" fill="#ED1C24"/>
<path d="M10.2945 2.62476H0.0256348V3.36228H10.2945V2.62476Z" fill="#ED1C24"/>
<path d="M5.63386 0H4.76318V5.63991H5.63386V0Z" fill="#ED1C24"/>
<defs>
<linearGradient id="paint0_linear" x1="11.9718" y1="3.31397" x2="13.5341" y2="3.31397" gradientUnits="userSpaceOnUse">
<stop stop-color="#DE9D14"/>
<stop offset="1" stop-color="#FFD24C"/>
</linearGradient>
<linearGradient id="paint1_linear" x1="12.1678" y1="2.55808" x2="13.279" y2="2.55808" gradientUnits="userSpaceOnUse">
<stop stop-color="#DE9D14"/>
<stop offset="1" stop-color="#FFD24C"/>
</linearGradient>
<linearGradient id="paint2_linear" x1="16.6325" y1="3.00293" x2="15.9258" y2="3.56194" gradientUnits="userSpaceOnUse">
<stop stop-color="#DE9D14"/>
<stop offset="1" stop-color="#FFD24C"/>
</linearGradient>
<linearGradient id="paint3_linear" x1="17.3033" y1="7.47427" x2="17.6689" y2="7.47427" gradientUnits="userSpaceOnUse">
<stop stop-color="#DE9D14"/>
<stop offset="1" stop-color="#FFD24C"/>
</linearGradient>
<linearGradient id="paint4_linear" x1="16.6734" y1="6.98343" x2="16.5501" y2="6.88992" gradientUnits="userSpaceOnUse">
<stop stop-color="#DE9D14"/>
<stop offset="1" stop-color="#FFD24C"/>
</linearGradient>
<linearGradient id="paint5_linear" x1="15.8971" y1="8.46045" x2="16.4911" y2="8.46045" gradientUnits="userSpaceOnUse">
<stop stop-color="#672B1B"/>
<stop offset="1" stop-color="#F36E41"/>
</linearGradient>
<linearGradient id="paint6_linear" x1="17.0237" y1="7.29893" x2="17.417" y2="7.29893" gradientUnits="userSpaceOnUse">
<stop stop-color="#DE9D14"/>
<stop offset="1" stop-color="#FFD24C"/>
</linearGradient>
<linearGradient id="paint7_linear" x1="15.9567" y1="7.85656" x2="16.1586" y2="7.85656" gradientUnits="userSpaceOnUse">
<stop stop-color="#DE9D14"/>
<stop offset="1" stop-color="#FFD24C"/>
</linearGradient>
<linearGradient id="paint8_linear" x1="16.0583" y1="7.8992" x2="16.3476" y2="7.91479" gradientUnits="userSpaceOnUse">
<stop stop-color="#DE9D14"/>
<stop offset="1" stop-color="#FFD24C"/>
</linearGradient>
<linearGradient id="paint9_linear" x1="16.533" y1="8.19135" x2="17.0111" y2="8.19135" gradientUnits="userSpaceOnUse">
<stop stop-color="#DE9D14"/>
<stop offset="1" stop-color="#FFD24C"/>
</linearGradient>
<linearGradient id="paint10_linear" x1="12.2234" y1="4.17371" x2="13.7922" y2="4.17371" gradientUnits="userSpaceOnUse">
<stop stop-color="#5EBB47"/>
<stop offset="1" stop-color="#007A4E"/>
</linearGradient>
<linearGradient id="paint11_linear" x1="13.1255" y1="4.12145" x2="13.7987" y2="4.12145" gradientUnits="userSpaceOnUse">
<stop stop-color="#5EBB47"/>
<stop offset="1" stop-color="#007A4E"/>
</linearGradient>
<linearGradient id="paint12_linear" x1="12.1358" y1="4.19822" x2="13.0274" y2="4.19822" gradientUnits="userSpaceOnUse">
<stop stop-color="#5EBB47"/>
<stop offset="1" stop-color="#007A4E"/>
</linearGradient>
<linearGradient id="paint13_linear" x1="11.6802" y1="4.28641" x2="12.2282" y2="4.28641" gradientUnits="userSpaceOnUse">
<stop stop-color="#5EBB47"/>
<stop offset="1" stop-color="#007A4E"/>
</linearGradient>
<linearGradient id="paint14_linear" x1="14.0895" y1="2.78378" x2="18.3647" y2="2.78378" gradientUnits="userSpaceOnUse">
<stop stop-color="#DE9D14"/>
<stop offset="1" stop-color="#FFD24C"/>
</linearGradient>
<linearGradient id="paint15_linear" x1="12.7561" y1="2.97355" x2="14.7367" y2="2.97355" gradientUnits="userSpaceOnUse">
<stop stop-color="#DE9D14"/>
<stop offset="1" stop-color="#FFD24C"/>
</linearGradient>
<linearGradient id="paint16_linear" x1="13.6419" y1="2.1469" x2="14.2824" y2="2.1469" gradientUnits="userSpaceOnUse">
<stop stop-color="#DE9D14"/>
<stop offset="1" stop-color="#FFD24C"/>
</linearGradient>
<linearGradient id="paint17_linear" x1="13.1449" y1="5.15211" x2="13.6225" y2="5.15211" gradientUnits="userSpaceOnUse">
<stop stop-color="#FCBA77"/>
<stop offset="1" stop-color="#851215"/>
</linearGradient>
<linearGradient id="paint18_linear" x1="12.8901" y1="4.90297" x2="13.0667" y2="4.90297" gradientUnits="userSpaceOnUse">
<stop stop-color="#FCBA77"/>
<stop offset="1" stop-color="#851215"/>
</linearGradient>
<linearGradient id="paint19_linear" x1="12.3277" y1="5.18131" x2="12.6741" y2="5.18131" gradientUnits="userSpaceOnUse">
<stop stop-color="#FCBA77"/>
<stop offset="1" stop-color="#851215"/>
</linearGradient>
<linearGradient id="paint20_linear" x1="13.4507" y1="4.57807" x2="14.3136" y2="4.57807" gradientUnits="userSpaceOnUse">
<stop stop-color="#5EBB47"/>
<stop offset="1" stop-color="#007A4E"/>
</linearGradient>
<linearGradient id="paint21_linear" x1="12.9742" y1="4.54715" x2="13.3937" y2="4.54715" gradientUnits="userSpaceOnUse">
<stop stop-color="#5EBB47"/>
<stop offset="1" stop-color="#00894F"/>
</linearGradient>
<linearGradient id="paint22_linear" x1="12.5428" y1="4.64131" x2="12.9749" y2="4.64131" gradientUnits="userSpaceOnUse">
<stop stop-color="#5EBB47"/>
<stop offset="1" stop-color="#00894F"/>
</linearGradient>
<linearGradient id="paint23_linear" x1="11.6738" y1="4.9621" x2="12.5046" y2="4.9621" gradientUnits="userSpaceOnUse">
<stop stop-color="#5EBB47"/>
<stop offset="1" stop-color="#007A4E"/>
</linearGradient>
<linearGradient id="paint24_linear" x1="16.9101" y1="5.06781" x2="17.1783" y2="5.06781" gradientUnits="userSpaceOnUse">
<stop stop-color="#FCBA77"/>
<stop offset="1" stop-color="#851215"/>
</linearGradient>
<linearGradient id="paint25_linear" x1="15.7664" y1="4.53016" x2="18.4528" y2="4.53016" gradientUnits="userSpaceOnUse">
<stop stop-color="#00AB60"/>
<stop offset="1" stop-color="#007A4E"/>
</linearGradient>
<linearGradient id="paint26_linear" x1="17.0998" y1="6.88192" x2="17.9189" y2="6.88192" gradientUnits="userSpaceOnUse">
<stop stop-color="#00AB60"/>
<stop offset="1" stop-color="#007A4E"/>
</linearGradient>
<linearGradient id="paint27_linear" x1="16.6943" y1="7.11515" x2="17.0727" y2="7.11515" gradientUnits="userSpaceOnUse">
<stop stop-color="#DE9D14"/>
<stop offset="1" stop-color="#FFD24C"/>
</linearGradient>
<linearGradient id="paint28_linear" x1="16.5639" y1="7.02096" x2="16.9095" y2="7.02096" gradientUnits="userSpaceOnUse">
<stop stop-color="#DE9D14"/>
<stop offset="1" stop-color="#FFD24C"/>
</linearGradient>
<linearGradient id="paint29_linear" x1="17.1759" y1="7.39115" x2="17.5613" y2="7.39115" gradientUnits="userSpaceOnUse">
<stop stop-color="#DE9D14"/>
<stop offset="1" stop-color="#FFD24C"/>
</linearGradient>
<linearGradient id="paint30_linear" x1="16.5944" y1="7.63638" x2="17.0251" y2="7.63638" gradientUnits="userSpaceOnUse">
<stop stop-color="#DE9D14"/>
<stop offset="1" stop-color="#FFD24C"/>
</linearGradient>
<linearGradient id="paint31_linear" x1="16.1146" y1="7.3727" x2="16.4464" y2="7.3727" gradientUnits="userSpaceOnUse">
<stop stop-color="#DE9D14"/>
<stop offset="1" stop-color="#FFD24C"/>
</linearGradient>
<linearGradient id="paint32_linear" x1="16.2361" y1="7.42383" x2="16.5768" y2="7.42383" gradientUnits="userSpaceOnUse">
<stop stop-color="#DE9D14"/>
<stop offset="1" stop-color="#FFD24C"/>
</linearGradient>
<linearGradient id="paint33_linear" x1="16.3718" y1="7.48596" x2="16.7199" y2="7.48596" gradientUnits="userSpaceOnUse">
<stop stop-color="#DE9D14"/>
<stop offset="1" stop-color="#FFD24C"/>
</linearGradient>
<linearGradient id="paint34_linear" x1="16.487" y1="7.55852" x2="16.8862" y2="7.55852" gradientUnits="userSpaceOnUse">
<stop stop-color="#DE9D14"/>
<stop offset="1" stop-color="#FFD24C"/>
</linearGradient>
<linearGradient id="paint35_linear" x1="16.7195" y1="7.71127" x2="17.1659" y2="7.71127" gradientUnits="userSpaceOnUse">
<stop stop-color="#DE9D14"/>
<stop offset="1" stop-color="#FFD24C"/>
</linearGradient>
<linearGradient id="paint36_linear" x1="16.7831" y1="7.7787" x2="17.3072" y2="7.7787" gradientUnits="userSpaceOnUse">
<stop stop-color="#DE9D14"/>
<stop offset="1" stop-color="#FFD24C"/>
</linearGradient>
<linearGradient id="paint37_linear" x1="16.9358" y1="7.86544" x2="17.4296" y2="7.86544" gradientUnits="userSpaceOnUse">
<stop stop-color="#DE9D14"/>
<stop offset="1" stop-color="#FFD24C"/>
</linearGradient>
<linearGradient id="paint38_linear" x1="16.2618" y1="8.01362" x2="16.6229" y2="8.01362" gradientUnits="userSpaceOnUse">
<stop stop-color="#DE9D14"/>
<stop offset="1" stop-color="#FFD24C"/>
</linearGradient>
<linearGradient id="paint39_linear" x1="16.163" y1="7.95335" x2="16.47" y2="7.95335" gradientUnits="userSpaceOnUse">
<stop stop-color="#DE9D14"/>
<stop offset="1" stop-color="#FFD24C"/>
</linearGradient>
<linearGradient id="paint40_linear" x1="16.3628" y1="8.08383" x2="16.7595" y2="8.08383" gradientUnits="userSpaceOnUse">
<stop stop-color="#DE9D14"/>
<stop offset="1" stop-color="#FFD24C"/>
</linearGradient>
<linearGradient id="paint41_linear" x1="16.4461" y1="8.14581" x2="16.9056" y2="8.14581" gradientUnits="userSpaceOnUse">
<stop stop-color="#DE9D14"/>
<stop offset="1" stop-color="#FFD24C"/>
</linearGradient>
<linearGradient id="paint42_linear" x1="12.237" y1="6.81841" x2="12.4221" y2="6.81841" gradientUnits="userSpaceOnUse">
<stop stop-color="#5EBB47"/>
<stop offset="1" stop-color="#007A4E"/>
</linearGradient>
<linearGradient id="paint43_linear" x1="11.8222" y1="6.83101" x2="12.3295" y2="6.83101" gradientUnits="userSpaceOnUse">
<stop stop-color="#5EBB47"/>
<stop offset="1" stop-color="#007A4E"/>
</linearGradient>
<linearGradient id="paint44_linear" x1="11.9063" y1="7.0035" x2="12.2516" y2="7.0035" gradientUnits="userSpaceOnUse">
<stop stop-color="#5EBB47"/>
<stop offset="1" stop-color="#007A4E"/>
</linearGradient>
<linearGradient id="paint45_linear" x1="16.8515" y1="7.19545" x2="17.2559" y2="7.19545" gradientUnits="userSpaceOnUse">
<stop stop-color="#DE9D14"/>
<stop offset="1" stop-color="#FFD24C"/>
</linearGradient>
<linearGradient id="paint46_linear" x1="12.2818" y1="7.2495" x2="12.6233" y2="7.2495" gradientUnits="userSpaceOnUse">
<stop stop-color="#5EBB47"/>
<stop offset="1" stop-color="#007A4E"/>
</linearGradient>
<linearGradient id="paint47_linear" x1="12.0433" y1="7.04321" x2="12.5879" y2="7.04321" gradientUnits="userSpaceOnUse">
<stop stop-color="#5EBB47"/>
<stop offset="1" stop-color="#007A4E"/>
</linearGradient>
<linearGradient id="paint48_linear" x1="13.0798" y1="2.62999" x2="14.0994" y2="2.62999" gradientUnits="userSpaceOnUse">
<stop stop-color="#DE9D14"/>
<stop offset="1" stop-color="#FFD24C"/>
</linearGradient>
</defs>
</svg>
