<svg width="20" height="10" viewBox="0 0 20 10" fill="none" xmlns="http://www.w3.org/2000/svg">
<path d="M17 0H3C1.34315 0 0 1.34315 0 3V7C0 8.65685 1.34315 10 3 10H17C18.6569 10 20 8.65685 20 7V3C20 1.34315 18.6569 0 17 0Z" fill="white"/>
<path d="M9.96162 5.5844H6.96546C6.96546 5.5844 6.86303 5.1515 6.91424 4.87012L9.96162 5.3896L13.009 4.87012C13.009 4.87012 13.0858 5.21644 12.9322 5.5844H9.96162Z" fill="#FFDD00"/>
<path d="M9.96149 5.28145L6.96533 4.67539C6.96533 4.67539 6.99094 4.28578 7.1702 4.00439L9.9871 5.10829L12.7528 4.00439C12.7528 4.00439 12.9576 4.37236 12.9833 4.67539L9.96149 5.28145Z" fill="#FFDD00"/>
<path d="M9.96154 4.95679L7.24707 3.83125C7.24707 3.83125 7.40072 3.50657 7.6568 3.33341L9.96154 4.84856L12.2663 3.31177C12.2663 3.31177 12.4968 3.50657 12.6504 3.8096L9.96154 4.95679Z" fill="#FFDD00"/>
<path d="M9.96142 4.74037L7.83594 3.16029C7.83594 3.16029 8.09202 2.94383 8.37371 2.81396L9.96142 4.6105L11.6003 2.81396C11.6003 2.81396 11.9332 2.98713 12.0869 3.13864L9.96142 4.74037Z" fill="#FFDD00"/>
<path d="M9.96146 4.50208L8.57861 2.72719C8.57861 2.72719 8.98834 2.55403 9.24443 2.51074L9.96146 4.35057L10.6529 2.53239C10.6529 2.53239 11.0882 2.59732 11.3443 2.74884L9.96146 4.50208Z" fill="#FFDD00"/>
<path d="M12.1639 6.7533H7.7337C7.7337 6.7533 7.60566 6.64508 7.55444 6.5585C7.55444 6.5585 7.60566 6.60179 7.75931 6.53685C7.91296 6.47192 7.88735 6.42863 8.14343 6.42863C8.42512 6.42863 8.42512 6.58014 8.73242 6.58014C8.88607 6.58014 8.96289 6.42863 9.2958 6.42863C9.65432 6.42863 9.67992 6.58014 9.98722 6.58014C10.3457 6.58014 10.3201 6.42863 10.7043 6.42863C10.9859 6.42863 11.0884 6.53685 11.3188 6.53685C11.6518 6.53685 11.6005 6.40698 11.8566 6.40698C12.0615 6.40698 12.1639 6.64508 12.42 6.51521C12.3944 6.51521 12.2151 6.71001 12.1639 6.7533Z" fill="#00A1E4"/>
<path d="M11.9333 6.92634C11.6516 6.92634 11.626 6.81812 11.3443 6.81812C10.9858 6.81812 10.9858 6.96963 10.6273 6.96963C10.3456 6.96963 10.32 6.81812 9.96149 6.81812C9.65419 6.81812 9.57737 6.96963 9.3725 6.96963C9.09081 6.96963 9.06521 6.83976 8.78352 6.81812C8.47622 6.81812 8.425 6.94799 8.01527 6.94799C7.88723 6.94799 8.32257 7.14279 8.32257 7.14279H11.626" fill="#00A1E4"/>
<path d="M12.7785 5.97401H7.14467C7.14467 5.97401 7.04224 5.84414 7.04224 5.73591C7.04224 5.73591 7.11906 5.82249 7.45197 5.73591C7.60562 5.69262 7.73366 5.62769 8.01535 5.62769C8.29704 5.62769 8.42508 5.7792 8.73238 5.7792C8.88603 5.7792 8.96285 5.62769 9.29576 5.62769C9.65427 5.62769 9.67988 5.7792 9.98718 5.7792C10.3457 5.7792 10.3201 5.62769 10.7042 5.62769C10.9859 5.62769 11.0883 5.73591 11.3188 5.73591C11.7541 5.73591 11.8054 5.62769 12.1127 5.62769C12.4712 5.62769 12.6504 5.84414 12.9065 5.71427C12.8809 5.73591 12.8297 5.90907 12.7785 5.97401Z" fill="#00A1E4"/>
<path d="M12.5223 6.36365H7.37506C7.32384 6.32036 7.1958 6.08227 7.1958 6.08227C7.24702 6.06062 7.29823 6.03898 7.42627 6.03898C7.70797 6.03898 7.70796 6.19049 8.01526 6.19049C8.16891 6.19049 8.24574 6.03898 8.57864 6.03898C8.93716 6.03898 8.96277 6.19049 9.27007 6.19049C9.62858 6.19049 9.60297 6.03898 9.98709 6.03898C10.2688 6.03898 10.3712 6.1472 10.6017 6.1472C10.9346 6.1472 10.8834 6.01733 11.1395 6.01733C11.3699 6.01733 11.4468 6.23378 11.7028 6.12556C11.7797 6.08227 11.9333 6.01733 12.1638 6.01733C12.3943 6.01733 12.5223 6.1472 12.676 6.12556C12.676 6.1472 12.5991 6.27707 12.5223 6.36365Z" fill="#00A1E4"/>
<path d="M11.0628 7.35936C10.8836 7.31607 10.8323 7.22949 10.5507 7.22949C10.2434 7.22949 10.1665 7.38101 9.96167 7.38101C9.67998 7.38101 9.65437 7.22949 9.37268 7.22949C9.06538 7.22949 8.93734 7.38101 8.78369 7.38101C8.78369 7.38101 9.27025 7.55417 9.93606 7.55417C10.6531 7.55417 11.0628 7.35936 11.0628 7.35936Z" fill="#00A1E4"/>
<path d="M10.4481 4.80509V3.2683C10.4481 3.2683 9.98717 3.24665 9.98717 2.96527C9.98717 2.70553 10.3457 2.46743 10.6786 2.44579C10.6786 2.44579 9.83352 2.38085 9.50062 2.68388C9.32136 2.87869 9.34697 3.0302 9.34697 3.18172C9.34697 3.33323 9.34697 4.09081 9.34697 4.24232C9.34697 4.567 10.4481 4.80509 10.4481 4.80509Z" fill="white" stroke="white" stroke-width="1.0713"/>
<path d="M10.4226 5.5845C10.4226 5.5845 10.2177 5.60614 10.269 5.84424C10.2946 5.97411 10.6275 6.10398 10.8067 6.10398C10.986 6.10398 11.4213 5.93082 11.4213 5.5845C11.4213 5.21653 11.4213 4.41567 11.4213 4.32909C11.4213 4.24251 11.3445 4.19922 11.3445 4.19922C11.3445 4.19922 11.0884 4.19922 11.0884 4.43731C11.0884 4.65376 11.0884 5.47627 11.0884 5.5845C11.0884 5.71437 10.9092 5.75766 10.7811 5.73601C10.6531 5.67108 10.5507 5.5845 10.4226 5.5845Z" fill="white" stroke="white" stroke-width="1.0713"/>
<path d="M11.2419 3.67959C11.2931 3.67959 11.3955 3.70124 11.3955 3.83111C11.3699 3.91769 11.2675 3.91769 11.2675 3.91769C11.2419 3.96098 11.3187 3.93933 11.3443 4.00427C11.3699 4.0692 11.4468 4.13414 11.3443 4.17743C11.3443 4.17743 11.2163 4.17743 11.1651 4.24236C11.1138 4.3073 10.9858 4.13414 10.9858 4.13414C10.9602 4.04756 11.0882 3.96098 11.0882 3.96098C11.1138 3.91769 11.1138 3.80946 11.0882 3.76617C11.0882 3.72288 11.1651 3.65795 11.2419 3.67959Z" fill="white" stroke="white" stroke-width="1.0713"/>
<path d="M8.93726 5.43285C8.93726 5.49778 9.01408 5.56272 9.09091 5.56272H10.8067C10.8835 5.56272 10.9603 5.49778 10.9603 5.43285C10.9603 5.36791 10.8835 5.30298 10.8067 5.30298H9.09091C9.01408 5.30298 8.93726 5.36791 8.93726 5.43285Z" fill="white" stroke="white" stroke-width="1.0713"/>
<path d="M10.858 4.93504C10.8324 4.91339 10.8068 4.91339 10.8068 4.89175C10.8324 4.8701 10.8324 4.84846 10.8324 4.82681C10.8324 4.78352 10.8068 4.74023 10.7556 4.74023C10.7044 4.74023 10.6788 4.78352 10.6788 4.82681C10.6788 4.84846 10.6788 4.8701 10.7044 4.8701C10.6788 4.91339 10.7044 5.02162 10.73 5.08655C10.7556 5.15149 10.7044 5.17313 10.6531 5.19478C10.6275 5.21642 10.6788 5.28136 10.7556 5.28136C10.8324 5.28136 10.858 5.23807 10.8324 5.19478C10.8068 5.15149 10.858 5.08655 10.8836 5.06491C10.9092 5.04326 10.9092 4.97833 10.858 4.93504Z" fill="white" stroke="white" stroke-width="1.0713"/>
<path d="M10.4737 4.93504C10.4481 4.91339 10.4225 4.91339 10.4225 4.89175C10.4481 4.8701 10.4481 4.84846 10.4481 4.82681C10.4481 4.78352 10.4225 4.74023 10.3713 4.74023C10.3201 4.74023 10.2945 4.78352 10.2945 4.82681C10.2945 4.84846 10.2945 4.8701 10.3201 4.8701C10.2945 4.91339 10.3201 5.02162 10.3457 5.08655C10.3713 5.15149 10.3201 5.17313 10.2689 5.19478C10.2433 5.21642 10.2945 5.28136 10.3713 5.28136C10.4481 5.28136 10.4737 5.23807 10.4481 5.19478C10.4225 5.15149 10.4737 5.08655 10.4993 5.06491C10.525 5.04326 10.525 4.97833 10.4737 4.93504Z" fill="white" stroke="white" stroke-width="1.0713"/>
<path d="M10.0641 4.93504C10.0385 4.91339 10.0128 4.91339 10.0128 4.89175C10.0385 4.8701 10.0385 4.84846 10.0385 4.82681C10.0385 4.78352 10.0128 4.74023 9.96163 4.74023C9.91042 4.74023 9.88481 4.78352 9.88481 4.82681C9.88481 4.84846 9.88481 4.8701 9.91042 4.8701C9.88481 4.91339 9.91042 5.02162 9.93602 5.08655C9.96163 5.15149 9.91042 5.17313 9.8592 5.19478C9.83359 5.21642 9.88481 5.28136 9.96163 5.28136C10.0385 5.28136 10.0641 5.23807 10.0385 5.19478C10.0128 5.15149 10.0641 5.08655 10.0897 5.06491C10.1153 5.04326 10.1153 4.95668 10.0641 4.93504Z" fill="white" stroke="white" stroke-width="1.0713"/>
<path d="M9.03974 4.93504C9.06535 4.91339 9.09096 4.91339 9.09096 4.89175C9.06535 4.8701 9.06535 4.84846 9.06535 4.82681C9.06535 4.78352 9.09096 4.74023 9.14218 4.74023C9.19339 4.74023 9.219 4.78352 9.219 4.82681C9.219 4.84846 9.219 4.8701 9.19339 4.8701C9.219 4.91339 9.19339 5.02162 9.16778 5.08655C9.14218 5.15149 9.19339 5.17313 9.24461 5.19478C9.27022 5.21642 9.219 5.28136 9.14218 5.28136C9.06535 5.28136 9.03974 5.23807 9.06535 5.19478C9.09096 5.15149 9.03974 5.08655 9.01414 5.06491C8.98853 5.02162 8.98853 4.95668 9.03974 4.93504Z" fill="white" stroke="white" stroke-width="1.0713"/>
<path d="M9.42378 4.93504C9.44938 4.91339 9.47499 4.91339 9.47499 4.89175C9.44938 4.8701 9.44938 4.84846 9.44938 4.82681C9.44938 4.78352 9.47499 4.74023 9.52621 4.74023C9.57743 4.74023 9.60303 4.78352 9.60303 4.82681C9.60303 4.84846 9.60303 4.8701 9.57743 4.8701C9.60303 4.91339 9.57743 5.02162 9.55182 5.08655C9.52621 5.15149 9.57743 5.17313 9.62864 5.19478C9.65425 5.21642 9.60303 5.28136 9.52621 5.28136C9.44939 5.28136 9.42378 5.23807 9.44938 5.19478C9.47499 5.15149 9.42378 5.08655 9.39817 5.06491C9.37256 5.02162 9.37256 4.95668 9.42378 4.93504Z" fill="white" stroke="white" stroke-width="1.0713"/>
<path d="M9.47504 5.5845C9.47504 5.5845 9.6799 5.60614 9.62869 5.84424C9.60308 5.97411 9.27017 6.10398 9.09092 6.10398C8.91166 6.10398 8.47632 5.93082 8.47632 5.5845C8.47632 5.21653 8.47632 4.41567 8.47632 4.32909C8.47632 4.24251 8.55314 4.19922 8.55314 4.19922C8.55314 4.19922 8.80922 4.19922 8.80922 4.43731C8.80922 4.65376 8.80922 5.47627 8.80922 5.5845C8.80922 5.71437 8.98848 5.75766 9.11652 5.73601C9.27017 5.69272 9.37261 5.5845 9.47504 5.5845Z" fill="white" stroke="white" stroke-width="1.0713"/>
<path d="M8.65567 3.67969C8.60445 3.67969 8.50202 3.70133 8.50202 3.8312C8.52763 3.91778 8.63006 3.91778 8.63006 3.91778C8.65567 3.96107 8.57884 3.93943 8.55323 4.00436C8.52762 4.0693 8.4508 4.13423 8.55323 4.17752C8.55323 4.17752 8.68127 4.17752 8.73249 4.24246C8.78371 4.30739 8.91175 4.13423 8.91175 4.13423C8.93736 4.04765 8.80931 3.96107 8.80931 3.96107C8.78371 3.91778 8.78371 3.80956 8.80931 3.76627C8.83492 3.72298 8.73249 3.67969 8.65567 3.67969Z" fill="white" stroke="white" stroke-width="1.0713"/>
<path d="M10.4481 4.82682V3.29002C10.4481 3.29002 9.98717 3.26838 9.98717 2.98699C9.98717 2.72725 10.3457 2.48916 10.6786 2.46751C10.6786 2.46751 9.83352 2.40258 9.50062 2.70561C9.32136 2.90041 9.34697 3.05193 9.34697 3.20344C9.34697 3.35496 9.34697 4.11254 9.34697 4.26405C9.34697 4.58873 10.4481 4.82682 10.4481 4.82682Z" fill="#EA1D25"/>
<path d="M10.4226 5.60598C10.4226 5.60598 10.2177 5.62763 10.269 5.86573C10.2946 5.9956 10.6275 6.12546 10.8067 6.12546C10.986 6.12546 11.4213 5.95231 11.4213 5.60598C11.4213 5.23802 11.4213 4.43715 11.4213 4.35057C11.4213 4.26399 11.3445 4.2207 11.3445 4.2207C11.3445 4.2207 11.0884 4.2207 11.0884 4.4588C11.0884 4.67525 11.0884 5.49776 11.0884 5.60598C11.0884 5.73585 10.9092 5.77914 10.7811 5.7575C10.6531 5.69256 10.5507 5.60598 10.4226 5.60598Z" fill="#EA1D25"/>
<path d="M11.2419 3.70119C11.2931 3.70119 11.3955 3.72283 11.3955 3.8527C11.3699 3.93928 11.2675 3.93928 11.2675 3.93928C11.2419 3.98257 11.3187 3.96093 11.3443 4.02586C11.3699 4.0908 11.4468 4.15573 11.3443 4.19902C11.3443 4.19902 11.2163 4.19902 11.1651 4.26396C11.1138 4.32889 10.9858 4.15573 10.9858 4.15573C10.9602 4.06915 11.0882 3.98257 11.0882 3.98257C11.1138 3.93928 11.1138 3.83106 11.0882 3.78777C11.0882 3.72283 11.1651 3.67954 11.2419 3.70119Z" fill="#AE1217"/>
<path d="M8.93726 5.45458C8.93726 5.51951 9.01408 5.58445 9.09091 5.58445H10.8067C10.8835 5.58445 10.9603 5.51951 10.9603 5.45458C10.9603 5.38964 10.8835 5.32471 10.8067 5.32471H9.09091C9.01408 5.32471 8.93726 5.368 8.93726 5.45458Z" fill="#EA1D25"/>
<path d="M10.858 4.95677C10.8324 4.93512 10.8068 4.93512 10.8068 4.91348C10.8324 4.89183 10.8324 4.87019 10.8324 4.84854C10.8324 4.80525 10.8068 4.76196 10.7556 4.76196C10.7044 4.76196 10.6788 4.80525 10.6788 4.84854C10.6788 4.87019 10.6788 4.89183 10.7044 4.89183C10.6788 4.93512 10.7044 5.04335 10.73 5.10828C10.7556 5.17322 10.7044 5.19486 10.6531 5.21651C10.6275 5.23815 10.6788 5.30309 10.7556 5.30309C10.8324 5.30309 10.858 5.2598 10.8324 5.21651C10.8068 5.17322 10.858 5.10828 10.8836 5.08664C10.9092 5.06499 10.9092 4.97841 10.858 4.95677Z" fill="#AE1217"/>
<path d="M10.4737 4.95677C10.4481 4.93512 10.4225 4.93512 10.4225 4.91348C10.4481 4.89183 10.4481 4.87019 10.4481 4.84854C10.4481 4.80525 10.4225 4.76196 10.3713 4.76196C10.3201 4.76196 10.2945 4.80525 10.2945 4.84854C10.2945 4.87019 10.2945 4.89183 10.3201 4.89183C10.2945 4.93512 10.3201 5.04335 10.3457 5.10828C10.3713 5.17322 10.3201 5.19486 10.2689 5.21651C10.2433 5.23815 10.2945 5.30309 10.3713 5.30309C10.4481 5.30309 10.4737 5.2598 10.4481 5.21651C10.4225 5.17322 10.4737 5.10828 10.4993 5.08664C10.525 5.06499 10.525 4.97841 10.4737 4.95677Z" fill="#AE1217"/>
<path d="M10.0641 4.95677C10.0385 4.93512 10.0128 4.93512 10.0128 4.91348C10.0385 4.89183 10.0385 4.87019 10.0385 4.84854C10.0385 4.80525 10.0128 4.76196 9.96163 4.76196C9.91042 4.76196 9.88481 4.80525 9.88481 4.84854C9.88481 4.87019 9.88481 4.89183 9.91042 4.89183C9.88481 4.93512 9.91042 5.04335 9.93602 5.10828C9.96163 5.17322 9.91042 5.19486 9.8592 5.21651C9.83359 5.23815 9.88481 5.30309 9.96163 5.30309C10.0385 5.30309 10.0641 5.2598 10.0385 5.21651C10.0128 5.17322 10.0641 5.10828 10.0897 5.08664C10.1153 5.04335 10.1153 4.97841 10.0641 4.95677Z" fill="#AE1217"/>
<path d="M9.03974 4.93504C9.06535 4.91339 9.09096 4.91339 9.09096 4.89175C9.06535 4.8701 9.06535 4.84846 9.06535 4.82681C9.06535 4.78352 9.09096 4.74023 9.14218 4.74023C9.19339 4.74023 9.219 4.78352 9.219 4.82681C9.219 4.84846 9.219 4.8701 9.19339 4.8701C9.219 4.91339 9.19339 5.02162 9.16778 5.08655C9.14218 5.15149 9.19339 5.17313 9.24461 5.19478C9.27022 5.21642 9.219 5.28136 9.14218 5.28136C9.06535 5.28136 9.03974 5.23807 9.06535 5.19478C9.09096 5.15149 9.03974 5.08655 9.01414 5.06491C8.98853 5.04326 8.98853 4.97833 9.03974 4.93504Z" fill="#AE1217"/>
<path d="M9.42378 4.93504C9.44938 4.91339 9.47499 4.91339 9.47499 4.89175C9.44938 4.8701 9.44938 4.84846 9.44938 4.82681C9.44938 4.78352 9.47499 4.74023 9.52621 4.74023C9.57743 4.74023 9.60303 4.78352 9.60303 4.82681C9.60303 4.84846 9.60303 4.8701 9.57743 4.8701C9.60303 4.91339 9.57743 5.02162 9.55182 5.08655C9.52621 5.15149 9.57743 5.17313 9.62864 5.19478C9.65425 5.21642 9.60303 5.28136 9.52621 5.28136C9.44939 5.28136 9.42378 5.23807 9.44938 5.19478C9.47499 5.15149 9.42378 5.08655 9.39817 5.06491C9.37256 5.04326 9.37256 4.97833 9.42378 4.93504Z" fill="#AE1217"/>
<path d="M9.47504 5.60598C9.47504 5.60598 9.6799 5.62763 9.62869 5.86573C9.60308 5.9956 9.27017 6.12546 9.09092 6.12546C8.91166 6.12546 8.47632 5.95231 8.47632 5.60598C8.47632 5.23802 8.47632 4.43715 8.47632 4.35057C8.47632 4.26399 8.55314 4.2207 8.55314 4.2207C8.55314 4.2207 8.80922 4.2207 8.80922 4.4588C8.80922 4.67525 8.80922 5.49776 8.80922 5.60598C8.80922 5.73585 8.98848 5.77914 9.11652 5.7575C9.27017 5.69256 9.37261 5.60598 9.47504 5.60598Z" fill="#EA1D25"/>
<path d="M8.65567 3.70132C8.60445 3.70132 8.50202 3.72297 8.50202 3.85284C8.52763 3.93942 8.63006 3.93942 8.63006 3.93942C8.65567 3.98271 8.57884 3.96106 8.55323 4.026C8.52762 4.09093 8.4508 4.15587 8.55323 4.19916C8.55323 4.19916 8.68127 4.19916 8.73249 4.26409C8.78371 4.32903 8.91175 4.15587 8.91175 4.15587C8.93736 4.06929 8.80931 3.98271 8.80931 3.98271C8.78371 3.93942 8.78371 3.83119 8.80931 3.7879C8.83492 3.74461 8.73249 3.67968 8.65567 3.70132Z" fill="#AE1217"/>
<path d="M10.7554 5.56274H9.14209V5.69261H10.7554V5.56274Z" fill="#FAA61A"/>
<path d="M10.5506 5.56274H10.397V5.69261H10.5506V5.56274Z" fill="#AE1217"/>
<path d="M9.50082 5.58447H9.34717V5.71434H9.50082V5.58447Z" fill="#AE1217"/>
<path d="M8 2.74031e-09V2H19.832C19.5 1 18.5 2.74031e-09 17 2.74031e-09H8Z" fill="#ED1C24"/>
<path d="M12 0V2H0.167969C0.5 1 1.5 0 3 0H12Z" fill="#ED1C24"/>
<path d="M12 10V8L0.167969 8C0.5 9 1.5 10 3 10L12 10Z" fill="#ED1C24"/>
<path d="M8.00006 10V8L19.8321 8C19.5001 9 18.5001 10 17.0001 10L8.00006 10Z" fill="#ED1C24"/>
</svg>
