<svg width="20" height="10" viewBox="0 0 20 10" fill="none" xmlns="http://www.w3.org/2000/svg">
<path d="M16.8205 0.151611H3.20459C1.54774 0.151611 0.20459 1.49476 0.20459 3.15161V6.82694C0.20459 8.48379 1.54773 9.82694 3.20459 9.82694H16.8205C18.4773 9.82694 19.8205 8.48379 19.8205 6.82694V3.15161C19.8205 1.49476 18.4773 0.151611 16.8205 0.151611Z" fill="#2E3192"/>
<path d="M20 7C20 8.65685 18.6627 10 17.0059 10C13.229 10 6.77328 10 2.99587 10C1.33901 10 0 8.65685 0 7V3C0 1.34315 1.34315 0 3 0H17C18.6569 0 20 1.34315 20 3V6.69995V7ZM0.409731 6.67532C0.409731 8.33218 1.75288 9.67532 3.40973 9.67532H16.6415C18.2983 9.67532 19.6415 8.33218 19.6415 6.67532V3.32468C19.6415 1.66782 18.2983 0.324675 16.6415 0.324675H3.40973C1.75288 0.324675 0.409731 1.66782 0.409731 3.32468V6.67532Z" fill="#F15A22"/>
<path d="M9.98739 0.82251C9.98739 0.82251 13.931 2.96537 13.1628 5.77922H6.8888C6.8888 5.77922 6.47907 4.19913 7.50339 2.92208C8.52772 1.64502 9.98739 0.82251 9.98739 0.82251Z" fill="#3CBCE8"/>
<path d="M13.137 5.73584H6.86304C6.86304 5.73584 7.91297 8.00857 10.0128 9.09082C10.0128 9.06917 12.5481 7.6406 13.137 5.73584Z" fill="#2A388E"/>
<path d="M8.24585 6.23379H9.42383C9.42383 6.23379 9.11653 5.54114 8.45071 5.19482C8.45071 5.19482 8.62997 5.82253 8.24585 6.23379Z" fill="white"/>
<path d="M9.44936 6.25542H8.16895L8.22016 6.21213C8.60428 5.80088 8.42503 5.19482 8.42503 5.19482L8.39942 5.12988L8.47624 5.17317C9.14206 5.51949 9.44936 6.21213 9.44936 6.23378V6.25542ZM8.29699 6.21213H9.37253C9.29571 6.08226 9.01402 5.56278 8.50185 5.25975C8.52746 5.41127 8.57868 5.86581 8.29699 6.21213Z" fill="black"/>
<path d="M7.50317 6.81823C7.50317 6.81823 9.67987 6.79659 9.85913 7.33771C9.91034 7.51087 9.29575 7.44594 9.09088 7.46758C8.86041 7.51087 8.39946 7.68404 8.34824 7.81391L7.50317 6.81823Z" fill="#F7DB37"/>
<path d="M12.8296 6.38514C12.8296 6.38514 12.2406 6.3635 11.8821 6.49337C11.5235 6.62324 11.1394 6.77475 10.8833 6.75311C10.6273 6.73146 9.78219 6.7964 9.8334 6.92627C9.88462 7.07778 10.7297 7.01285 10.6273 7.51068C10.4992 7.98687 9.37246 7.64055 9.03955 8.26826C9.03955 8.26826 9.73097 8.89596 10.0895 9.09077C10.0895 9.09077 12.1894 7.55397 12.8296 6.38514Z" fill="#F7DB37"/>
<path d="M9.39822 6.21216L9.34701 6.32038H8.34829L8.22025 6.21216H8.01538V6.32038C8.01538 6.32038 8.27146 6.4719 8.29707 6.4719C8.32268 6.4719 9.29579 6.4719 9.29579 6.4719L9.52626 6.36367H9.6543V6.21216H9.39822Z" fill="#65181A"/>
<path d="M8.29726 6.49346C8.24605 6.49346 8.0924 6.40688 7.98996 6.34194H7.96436V6.19043H8.22044L8.37409 6.29865H9.32159L9.37281 6.19043H9.6545V6.40688H9.50085L9.27037 6.51511C9.27037 6.51511 8.83503 6.51511 8.55334 6.51511C8.34848 6.49346 8.29726 6.49346 8.29726 6.49346ZM8.01557 6.3203C8.118 6.38523 8.24605 6.45017 8.27165 6.45017C8.29726 6.45017 8.32287 6.45017 8.55334 6.45017C8.83503 6.45017 9.21916 6.45017 9.27037 6.45017L9.50085 6.34194H9.60328V6.23372H9.42402L9.37281 6.34194H8.34848L8.19483 6.23372H8.01557V6.3203V6.3203Z" fill="black"/>
<path d="M9.24441 6.53687H8.32251V6.64509H9.24441V6.53687Z" fill="#65181A"/>
<path d="M9.29559 6.66657H8.29688V6.49341H9.29559V6.66657ZM8.34809 6.62328H9.21877V6.55834H8.34809V6.62328Z" fill="black"/>
<path d="M13.2396 5.10815C13.1628 5.10815 12.753 5.15144 12.4713 5.21638C12.2153 5.30296 11.6519 5.30296 11.4982 5.30296C11.3446 5.30296 11.2934 5.38954 11.1909 5.41118C11.0629 5.43283 10.5251 5.49776 10.3459 5.41118C10.1666 5.3246 9.78248 5.25967 9.62883 5.28131C9.47518 5.30296 9.47518 5.41118 9.47518 5.41118C9.47518 5.41118 9.44957 5.54105 9.39836 5.54105C9.34714 5.54105 9.32153 5.67092 9.32153 5.73586H13.0603L13.2396 5.10815Z" fill="white"/>
<path d="M13.0859 5.77915H9.2959V5.7575C9.2959 5.71421 9.32151 5.54105 9.39833 5.54105C9.42394 5.54105 9.44955 5.49776 9.44955 5.43283C9.44955 5.38954 9.47516 5.30296 9.6288 5.28131C9.65441 5.28131 9.68002 5.28131 9.73124 5.28131C9.91049 5.28131 10.2178 5.3246 10.3714 5.41118C10.4227 5.43283 10.5507 5.45447 10.7043 5.45447C10.8836 5.45447 11.1141 5.43283 11.1909 5.41118C11.2421 5.41118 11.2677 5.38954 11.3189 5.36789C11.3702 5.34625 11.447 5.30296 11.5238 5.30296C11.5494 5.30296 11.575 5.30296 11.6006 5.30296C11.8311 5.30296 12.2408 5.28131 12.4713 5.21638C12.753 5.1298 13.1627 5.10815 13.2396 5.10815H13.2908L13.0859 5.77915ZM9.37272 5.71422H13.0347L13.1883 5.1298C13.0603 5.1298 12.7018 5.17309 12.4713 5.23802C12.2664 5.30296 11.8311 5.34625 11.6006 5.34625C11.5494 5.34625 11.5238 5.34625 11.4982 5.34625C11.4214 5.34625 11.3702 5.36789 11.3189 5.38954C11.2677 5.41118 11.2421 5.43283 11.1909 5.45447C11.1141 5.47612 10.8836 5.49776 10.7043 5.49776C10.5251 5.49776 10.3971 5.47612 10.3458 5.45447C10.1666 5.36789 9.78245 5.30296 9.65441 5.34625C9.52637 5.36789 9.52637 5.43283 9.52637 5.45447C9.52637 5.49776 9.47516 5.58435 9.42394 5.60599C9.39833 5.5627 9.37272 5.64928 9.37272 5.71422Z" fill="black"/>
<path d="M11.1397 7.27281C11.2933 7.33774 11.447 7.18623 11.2421 7.078C11.0372 6.94813 10.4738 6.55852 10.2946 6.08233C9.98729 5.25982 10.0897 3.76631 10.0641 3.31177H9.96168C9.96168 3.31177 9.88485 5.47627 10.0641 6.03904C10.2946 6.68839 10.7555 7.09965 11.1397 7.27281Z" fill="#B05832"/>
<path d="M11.2165 7.29445C11.1909 7.29445 11.1653 7.29445 11.1397 7.2728C10.7555 7.12129 10.2946 6.71003 10.0641 5.99574C9.88485 5.43297 9.96168 3.35505 9.96168 3.26847V3.24683L10.1153 3.26847V3.29012C10.1153 3.39834 10.1153 3.5715 10.1153 3.78795C10.1153 4.45895 10.1153 5.45462 10.3458 6.06068C10.5251 6.55851 11.1653 6.96977 11.2933 7.05635C11.4213 7.12129 11.3957 7.20787 11.3957 7.22951C11.3445 7.2728 11.2933 7.29445 11.2165 7.29445ZM10.0129 3.31176C10.0129 3.5715 9.93607 5.49791 10.1153 5.99574C10.3458 6.66674 10.8067 7.078 11.1653 7.22951C11.1909 7.22951 11.2165 7.25116 11.2165 7.25116C11.2677 7.25116 11.2933 7.22951 11.3189 7.20787C11.3445 7.16458 11.2933 7.12129 11.2421 7.09964C11.114 7.01306 10.4738 6.60181 10.2946 6.08232C10.0641 5.45462 10.0641 4.45895 10.0641 3.78795C10.0641 3.59315 10.0641 3.44163 10.0641 3.33341L10.0129 3.31176Z" fill="black"/>
<path d="M10.064 3.24667L10.7042 4.30727C10.7042 4.30727 10.8066 3.57134 10.3969 3.33325C10.3969 3.33325 11.37 3.37654 11.7029 3.96095C11.7029 3.96095 11.8053 3.28996 10.7042 3.07351C10.7042 3.07351 11.4212 2.92199 11.8053 3.05186C11.8053 3.05186 11.3444 2.64061 10.5505 2.79212C10.5505 2.79212 11.1395 2.29429 11.3956 2.22935C11.3956 2.22935 10.4737 2.20771 10.192 2.74883C10.192 2.74883 10.32 1.88303 9.60301 1.62329L9.93592 2.77048C9.93592 2.77048 9.60301 2.22935 9.03963 2.18606L9.67983 2.92199C9.67983 2.92199 8.45064 2.57567 7.93848 3.35489C7.93848 3.35489 8.83476 3.00857 9.32132 3.16009C9.32132 3.16009 8.47625 3.44147 8.50186 3.89602C8.50186 3.89602 9.32132 3.37654 9.65423 3.37654C9.65423 3.37654 9.11645 4.00424 9.39814 4.43714L10.064 3.24667Z" fill="#009544"/>
<path d="M9.39806 4.48043L9.37246 4.43714C9.14198 4.06917 9.47489 3.54969 9.57732 3.39818C9.21881 3.46311 8.50178 3.91766 8.50178 3.91766L8.45056 3.9393V3.89601C8.42495 3.5064 8.98833 3.24666 9.21881 3.16008C9.16759 3.13844 9.09077 3.13844 9.01394 3.13844C8.55299 3.13844 7.9384 3.35489 7.9384 3.37653L7.86157 3.39818L7.91279 3.33324C8.19448 2.90034 8.70664 2.81376 9.09077 2.81376C9.32124 2.81376 9.5005 2.83541 9.60293 2.85705L8.96272 2.14277H9.03955C9.44928 2.18606 9.73097 2.4458 9.85901 2.59731L9.55171 1.55835L9.60293 1.57999C10.1663 1.79644 10.2175 2.35922 10.2175 2.61896C10.5504 2.18606 11.2675 2.18606 11.3699 2.18606V2.22935C11.165 2.27264 10.7553 2.57567 10.6016 2.72718C10.6785 2.72718 10.7553 2.70554 10.8321 2.70554C11.4467 2.70554 11.7796 3.00857 11.7796 3.00857L11.754 3.05186C11.6516 3.00857 11.4979 2.98692 11.3443 2.98692C11.1394 2.98692 10.9089 3.00857 10.7809 3.03021C11.2675 3.16008 11.4979 3.37653 11.6004 3.54969C11.7028 3.7445 11.7028 3.91766 11.6772 3.91766L11.7028 4.04753L11.6516 3.96095C11.3955 3.5064 10.7297 3.37653 10.4736 3.35489C10.8065 3.63627 10.7297 4.28562 10.7297 4.30727V4.39385L10.0895 3.3116L9.39806 4.48043ZM9.70536 3.33324L9.67975 3.37653C9.67975 3.37653 9.21881 3.9393 9.39806 4.35056L10.0639 3.18173L10.6785 4.19904C10.6785 4.00424 10.6785 3.52805 10.3712 3.33324L10.2944 3.28995H10.3968C10.3968 3.28995 11.2931 3.33324 11.6516 3.85272C11.626 3.65792 11.4979 3.26831 10.6785 3.09515V3.05186C10.6785 3.05186 11.037 2.98692 11.3699 2.98692C11.4723 2.98692 11.5748 2.98692 11.6516 3.00857C11.4979 2.92199 11.2419 2.79212 10.8577 2.79212C10.7553 2.79212 10.6529 2.79212 10.5248 2.81376L10.4224 2.83541L10.4992 2.77047C10.5248 2.74883 10.9089 2.40251 11.2162 2.27264C10.9346 2.29428 10.4224 2.38086 10.2175 2.77047L10.1663 2.74883C10.1663 2.74883 10.2687 1.94796 9.65415 1.66657L9.98705 2.74883L9.93584 2.77047C9.93584 2.77047 9.62854 2.29428 9.11637 2.2077L9.78219 2.94363L9.67975 2.92199C9.67975 2.92199 9.42367 2.85705 9.09077 2.85705C8.75786 2.85705 8.29691 2.94363 8.01522 3.28995C8.19448 3.22502 8.65543 3.09515 9.01394 3.09515C9.14198 3.09515 9.24441 3.11679 9.32124 3.13844L9.39806 3.16008L9.32124 3.18173C9.32124 3.18173 8.5786 3.44147 8.52739 3.85272C8.70664 3.7445 9.34685 3.35489 9.65415 3.35489L9.70536 3.33324Z" fill="black"/>
<path d="M9.96155 9.28561L9.85912 9.22068C9.83351 9.19903 9.01405 8.72284 8.2202 7.96526C7.11904 6.94795 6.55566 5.90899 6.55566 4.95661C6.55566 3.98258 7.11904 2.92197 8.2202 1.90466C9.03966 1.14708 9.83351 0.670892 9.85912 0.649247L9.96155 0.605957L10.064 0.670892C10.0896 0.692537 10.9347 1.16873 11.7541 1.9263C12.8809 2.94362 13.4699 4.00423 13.4699 4.9999C13.4699 7.3592 10.192 9.17739 10.064 9.24232L9.96155 9.28561ZM9.96155 0.995567C9.42378 1.34189 6.91418 3.0302 6.91418 4.97825C6.91418 6.88301 9.42378 8.57133 9.96155 8.91765C10.5249 8.59297 13.1114 6.94795 13.1114 4.9999C13.1114 3.00855 10.5249 1.32024 9.96155 0.995567Z" fill="#F15A22"/>
<path d="M8.04037 4.5022C8.14267 4.5022 8.2194 4.52384 8.3217 4.54549V4.65371C8.2194 4.61042 8.14267 4.58878 8.04037 4.58878C7.98922 4.58878 7.93807 4.58878 7.88692 4.61042C7.83577 4.63207 7.81019 4.65371 7.78462 4.697C7.75904 4.74029 7.75904 4.76194 7.75904 4.80523C7.75904 4.87016 7.78462 4.91345 7.83577 4.95674C7.88692 5.00003 7.96364 5.02168 8.04037 5.02168C8.06595 5.02168 8.09152 5.02168 8.1171 5.02168C8.14267 5.02168 8.16825 5.02168 8.19382 5.00003V4.89181H8.06594V4.80523H8.34728V5.06497C8.3217 5.08661 8.27055 5.10826 8.2194 5.10826C8.16825 5.1299 8.1171 5.1299 8.06594 5.1299C7.98922 5.1299 7.91249 5.10826 7.86134 5.08661C7.78462 5.06497 7.73346 5.02168 7.70789 4.97839C7.68231 4.9351 7.65674 4.87016 7.65674 4.80523C7.65674 4.74029 7.68231 4.67536 7.70789 4.63207C7.73346 4.58878 7.78462 4.54549 7.86134 4.52384C7.88692 4.52384 7.96364 4.5022 8.04037 4.5022Z" fill="#ED1C24"/>
<path d="M9.11634 4.52384V4.89181C9.11634 4.9351 9.11634 4.95674 9.14192 4.97839C9.16749 5.00003 9.16749 5.02168 9.21865 5.04332C9.24422 5.06497 9.29537 5.06497 9.32095 5.06497C9.3721 5.06497 9.39767 5.06497 9.42325 5.04332C9.44882 5.02168 9.4744 5.00003 9.49998 4.97839C9.52555 4.95674 9.52555 4.91345 9.52555 4.87016V4.5022H9.679V4.89181C9.679 4.97839 9.65343 5.04332 9.5767 5.08661C9.52555 5.1299 9.42325 5.15155 9.32095 5.15155C9.24422 5.15155 9.19307 5.15155 9.14192 5.1299C9.09077 5.10826 9.03962 5.08661 9.01404 5.04332C8.98847 5.00003 8.96289 4.95674 8.96289 4.91345V4.52384H9.11634V4.52384Z" fill="#ED1C24"/>
<path d="M10.6787 4.52393L11.0116 5.17328H10.858L10.7812 5.02176H10.4482L10.3714 5.17328H10.2178L10.5251 4.52393H10.6787ZM10.4995 4.91354H10.7555L10.6275 4.6538L10.4995 4.91354Z" fill="#ED1C24"/>
<path d="M11.7286 4.52393L11.9847 4.78367L12.2408 4.52393H12.3688V5.17328H12.2152V4.71873L11.9847 4.93518H11.9591L11.7286 4.71873V5.17328H11.575V4.52393H11.7286Z" fill="#ED1C24"/>
</svg>
