<svg width="20" height="10" viewBox="0 0 20 10" fill="none" xmlns="http://www.w3.org/2000/svg">
<path d="M17 0H3C1.34315 0 0 1.34314 0 3V6.99999C0 8.65684 1.34315 9.99999 3 9.99999H17C18.6568 9.99999 20 8.65685 20 6.99999V3C20 1.34315 18.6568 0 17 0Z" fill="#ED1C24"/>
<path d="M6.73486 0.52176C6.73486 0.52176 9.01399 0.52176 9.19325 0.52176C9.3725 0.52176 10.0127 0.652195 10.2432 1.08698C10.2432 1.08698 10.8834 0.673934 11.0114 0.586978C11.1651 0.500021 11.3699 0.456543 11.8053 0.456543C12.215 0.456543 13.6235 0.456543 13.6235 0.456543C13.6235 0.456543 13.5722 0.695673 13.2137 0.717412C13.2137 0.717412 13.0345 0.891325 12.804 0.869586C12.804 0.869586 12.676 0.978281 12.3943 0.956542C12.3943 0.956542 12.2406 1.0435 12.0101 1.0435C12.0101 1.0435 11.7028 1.13046 11.5236 1.08698L11.3443 1.30437L13.2137 1.32611C13.2137 1.32611 13.1625 1.50002 12.7272 1.50002C12.7272 1.50002 12.6247 1.58698 12.3174 1.58698C12.3174 1.58698 12.215 1.73915 11.9845 1.73915C11.7541 1.73915 11.4212 1.73915 11.4212 1.73915C11.4212 1.73915 10.8834 2.19567 10.1151 2.17393C9.34689 2.15219 9.01399 1.91306 8.57865 1.47828C8.57865 1.47828 8.14331 1.47828 8.09209 1.47828C8.04088 1.47828 7.98966 1.36959 7.98966 1.36959C7.98966 1.36959 7.83601 1.26089 7.91284 1.23915C8.01527 1.21741 8.57865 1.23915 8.57865 1.23915C8.57865 1.23915 8.78352 1.0435 9.01399 1.06524C9.24446 1.08698 9.3725 1.17393 9.52615 1.23915C9.6798 1.30437 9.88467 1.26089 9.88467 1.26089C9.88467 1.26089 9.73102 1.00002 9.62858 0.934803C9.62858 0.934803 8.60426 0.934803 8.39939 0.913064C8.19453 0.891325 7.98966 0.826108 7.98966 0.826108C7.98966 0.826108 7.37507 0.804369 7.14459 0.652195C7.14459 0.652195 6.81169 0.608717 6.73486 0.52176Z" fill="#FFDD00"/>
<path fill-rule="evenodd" clip-rule="evenodd" d="M10.9576 0.616241C11.1161 0.526541 11.3052 0.435059 11.6517 0.435059H13.6489L13.6491 0.478341C13.6999 0.48226 13.6999 0.482291 13.6999 0.482323L13.6999 0.482548L13.6998 0.482926L13.6997 0.483945L13.6992 0.487002C13.6988 0.489477 13.6982 0.492815 13.6973 0.496892C13.6954 0.505036 13.6923 0.516205 13.6871 0.529392C13.6767 0.555724 13.6581 0.590549 13.6245 0.625314C13.5591 0.693231 13.443 0.754856 13.2431 0.760356C13.2414 0.762462 13.2396 0.764665 13.2376 0.766952C13.2225 0.784341 13.1989 0.806553 13.164 0.828403C13.0971 0.870232 12.9917 0.908782 12.8306 0.912615C12.8287 0.914509 12.8267 0.916477 12.8245 0.918508C12.8084 0.9335 12.7838 0.951642 12.7478 0.967729C12.6788 0.99854 12.5723 1.02003 12.4117 1.0024C12.4109 1.00292 12.4101 1.00345 12.4094 1.00399C12.3939 1.01451 12.3709 1.0273 12.3382 1.03963C12.275 1.06346 12.1765 1.0853 12.0263 1.08676C12.0229 1.0885 12.0191 1.09033 12.0147 1.09224C11.9968 1.10007 11.9699 1.10925 11.9302 1.11805C11.8548 1.13474 11.731 1.15047 11.5293 1.15194C11.523 1.16153 11.5148 1.17344 11.5044 1.18704C11.4774 1.22232 11.4356 1.26928 11.3762 1.3169C11.2566 1.41257 11.0662 1.51014 10.7834 1.52157L10.7786 1.43511C11.0336 1.4248 11.2017 1.33759 11.3062 1.25391C11.3587 1.21186 11.3954 1.1705 11.4189 1.13989C11.4306 1.1246 11.4389 1.11205 11.4442 1.10353C11.4469 1.09927 11.4487 1.09602 11.4499 1.09395L11.4511 1.09174L11.4513 1.09143C11.4513 1.09143 11.4513 1.09142 11.4513 1.09143L11.498 1.06549C11.713 1.06549 11.8364 1.04936 11.9045 1.03429C11.9384 1.02678 11.958 1.01966 11.9681 1.01526C11.9731 1.01307 11.9757 1.01158 11.9765 1.0111L11.9755 1.01183L11.9749 1.01233L11.9745 1.01263L11.9743 1.01279C11.9743 1.01279 11.9743 1.01275 11.9743 1.01279L12.0102 1.00028C12.1582 1.00028 12.2469 0.979331 12.2968 0.960528C12.3217 0.951125 12.3371 0.942169 12.3457 0.93639C12.3499 0.93349 12.3525 0.93135 12.3537 0.930294C12.3543 0.929764 12.3546 0.929502 12.3545 0.929546L12.3542 0.929846L12.3539 0.930176L12.3537 0.930294L12.3536 0.930506C12.3536 0.930509 12.3536 0.930479 12.3536 0.930506L12.4021 0.913822C12.5602 0.934475 12.6511 0.913086 12.7003 0.891126C12.7251 0.880039 12.7405 0.86829 12.7492 0.860184C12.7535 0.856104 12.7563 0.852885 12.7577 0.851055C12.7585 0.85014 12.7589 0.849573 12.759 0.849422C12.759 0.849439 12.759 0.849356 12.759 0.849422L12.7587 0.849814L12.7586 0.850029C12.7586 0.850032 12.7585 0.850226 12.7585 0.850248L12.804 0.826363C12.9608 0.826363 13.0523 0.790717 13.1035 0.758713C13.1294 0.74252 13.1459 0.726689 13.1555 0.715545C13.1604 0.709961 13.1636 0.70554 13.1654 0.702827C13.1663 0.701471 13.1668 0.700546 13.167 0.700121L13.1669 0.700362C13.1669 0.700365 13.1669 0.700345 13.1669 0.700362L13.2138 0.674189C13.4055 0.674189 13.499 0.618889 13.5456 0.570498C13.562 0.553512 13.5734 0.536554 13.5813 0.521624H11.6517C11.3324 0.521624 11.1629 0.604054 11.0141 0.688267C10.9633 0.717054 10.8536 0.790679 10.7234 0.878129C10.6624 0.919118 10.5968 0.963144 10.5307 1.00701C10.4281 1.07503 10.325 1.14209 10.2376 1.19497C10.1939 1.2214 10.1537 1.24459 10.1192 1.26271C10.0856 1.2803 10.0541 1.29487 10.0289 1.30201C9.78088 1.37219 9.58537 1.32472 9.42109 1.23174C9.403 1.22151 9.38642 1.21187 9.37086 1.20282C9.31679 1.17139 9.27504 1.14712 9.2252 1.12981C9.16437 1.10869 9.08992 1.09801 8.96789 1.10836C8.85158 1.11824 8.77129 1.15749 8.72017 1.19366C8.69448 1.21183 8.67608 1.22929 8.6643 1.24194C8.65842 1.24825 8.65423 1.25333 8.65163 1.25664C8.65033 1.25829 8.64943 1.2595 8.64892 1.2602L8.64855 1.26072C8.64855 1.26072 8.64857 1.26073 8.64855 1.26072L8.6043 1.28249H7.93849C7.93736 1.28249 7.93637 1.28252 7.93551 1.28256C7.93587 1.28393 7.9365 1.28566 7.93754 1.28778C7.9459 1.30482 7.97258 1.32636 8.01532 1.32636H8.55292L8.55308 1.41293H8.01532C7.93001 1.41293 7.86706 1.36925 7.84341 1.32107C7.83184 1.29749 7.82712 1.26684 7.84419 1.23939C7.86295 1.20921 7.89956 1.19593 7.93849 1.19593H8.57736C8.57948 1.19352 8.5818 1.19095 8.58432 1.18825C8.59975 1.17168 8.62296 1.14974 8.65489 1.12715C8.719 1.0818 8.81797 1.03409 8.95774 1.02223C9.0918 1.01085 9.1838 1.02191 9.26381 1.04969C9.32467 1.07083 9.37785 1.10181 9.43356 1.13428C9.44803 1.14271 9.46267 1.15124 9.47765 1.15972C9.62067 1.24066 9.78368 1.28015 9.99663 1.21989C10.0098 1.21616 10.0327 1.20627 10.0656 1.18905C10.0975 1.17235 10.1357 1.15036 10.1784 1.12448C10.2639 1.07275 10.3656 1.00665 10.4679 0.938798C10.5307 0.897137 10.5941 0.854576 10.654 0.814351C10.7872 0.724934 10.9031 0.647056 10.9576 0.616241ZM13.167 0.700121L13.1672 0.699868C13.1672 0.699821 13.1672 0.699908 13.167 0.700121ZM13.6491 0.478341L13.6999 0.482323L13.6489 0.435059L13.6491 0.478341Z" fill="black"/>
<path fill-rule="evenodd" clip-rule="evenodd" d="M11.6517 0.651995C11.3135 0.651995 11.0186 0.837779 10.8683 0.965404C10.789 1.03271 10.6777 1.11046 10.573 1.17155C10.5206 1.20211 10.4689 1.22911 10.4229 1.24865C10.3791 1.26722 10.333 1.28243 10.2944 1.28243V1.19586C10.3071 1.19586 10.3346 1.18933 10.3773 1.17122C10.4177 1.15408 10.4652 1.12944 10.5152 1.10022C10.6154 1.04175 10.7218 0.967323 10.7962 0.904193C10.9531 0.770949 11.2728 0.56543 11.6517 0.56543H13.2393L13.2394 0.651995H11.6517Z" fill="black"/>
<path fill-rule="evenodd" clip-rule="evenodd" d="M8.66748 0.606349C8.87702 0.614559 9.14142 0.641961 9.3429 0.721777C9.5448 0.801764 9.69781 0.932301 9.80249 1.04061C9.85503 1.09496 9.89597 1.14434 9.9249 1.17948C9.92605 1.18087 9.92718 1.18224 9.92828 1.18358C9.94135 1.19945 9.95111 1.21131 9.95848 1.21952C9.96257 1.22408 9.96469 1.22611 9.96534 1.22667C9.96573 1.227 9.9644 1.22577 9.96164 1.22418C9.95997 1.22322 9.95044 1.21772 9.93593 1.21772V1.30428C9.91962 1.30428 9.90814 1.29798 9.90437 1.29581C9.89931 1.29289 9.89533 1.28969 9.89272 1.28744C9.88737 1.28283 9.88208 1.27724 9.87737 1.27199C9.86864 1.26226 9.85762 1.24887 9.84516 1.23373C9.8439 1.2322 9.84262 1.23064 9.84133 1.22907C9.81264 1.19423 9.77356 1.14715 9.72366 1.09552C9.62348 0.99187 9.48199 0.872407 9.29978 0.800221C9.11713 0.727863 8.86936 0.700917 8.66278 0.692822C8.56033 0.688808 8.46964 0.689477 8.40459 0.69115C8.37209 0.691986 8.34604 0.693072 8.3282 0.693943C8.31928 0.694379 8.31241 0.694761 8.30782 0.695031L8.30266 0.695345L8.30141 0.695426L8.30113 0.695444L8.29297 0.609157L8.29354 0.609119L8.29506 0.609021L8.30077 0.608673C8.30574 0.608381 8.31301 0.607977 8.32234 0.607521C8.34101 0.606609 8.36798 0.605487 8.4015 0.604625C8.46849 0.602901 8.56186 0.602211 8.66748 0.606349Z" fill="black"/>
<path fill-rule="evenodd" clip-rule="evenodd" d="M12.275 1.56282C12.275 1.56285 12.275 1.56287 12.3174 1.58688C12.3598 1.61089 12.3598 1.61091 12.3598 1.61093L12.3595 1.61134L12.359 1.61198L12.3574 1.61381C12.3562 1.61526 12.3545 1.61717 12.3523 1.61947C12.348 1.62407 12.3418 1.63023 12.3336 1.63743C12.3171 1.65182 12.2924 1.67036 12.2582 1.68869C12.1894 1.72557 12.084 1.76059 11.9333 1.76059H11.4213L11.4211 1.67403H11.9333C12.0643 1.67403 12.1509 1.64384 12.2038 1.6155C12.2304 1.60121 12.2489 1.58715 12.2605 1.57709C12.2662 1.57205 12.2702 1.56803 12.2726 1.56549C12.2738 1.56422 12.2746 1.56328 12.275 1.56282ZM12.2753 1.56252C12.2753 1.56253 12.2753 1.56247 12.2753 1.56252Z" fill="black"/>
<path fill-rule="evenodd" clip-rule="evenodd" d="M11.1395 1.19556L13.2648 1.21753V1.26081C13.2648 1.32077 13.2166 1.36339 13.1658 1.39174C13.1139 1.42073 13.0474 1.44188 12.9847 1.45728C12.9213 1.47285 12.8584 1.48337 12.8116 1.48999C12.7882 1.49331 12.7686 1.49567 12.7548 1.49721C12.7531 1.4974 12.7515 1.49758 12.7499 1.49775C12.6741 1.55476 12.5704 1.57578 12.4796 1.58376C12.4063 1.59019 12.333 1.58854 12.2817 1.58738C12.2656 1.58702 12.2517 1.5867 12.2407 1.5867H11.6719C11.6697 1.58841 11.6672 1.59029 11.6646 1.59233C11.6503 1.60341 11.6297 1.61931 11.6038 1.63871C11.5521 1.67748 11.4793 1.73033 11.3952 1.78665C11.2287 1.89806 11.0124 2.02674 10.8249 2.08383C10.3758 2.24052 9.90195 2.21724 9.45804 2.08423L9.45738 2.08404C9.20451 2.00495 8.98086 1.85353 8.82191 1.72411C8.74207 1.65909 8.67771 1.59893 8.63326 1.55497C8.61102 1.53297 8.59373 1.51499 8.58193 1.50244C8.58106 1.50151 8.58022 1.50061 8.57941 1.49975H8.16899C8.07489 1.49975 8.01957 1.46505 7.99083 1.42438C7.97744 1.40545 7.97096 1.38686 7.96775 1.37324C7.96612 1.36635 7.96528 1.36049 7.96484 1.35614C7.96462 1.35395 7.9645 1.35213 7.96443 1.35072L7.96437 1.34892L7.96436 1.34826L7.96436 1.34799C7.96436 1.34799 7.96435 1.34777 8.01534 1.34777C8.06633 1.34777 8.06633 1.34772 8.06633 1.34772L8.06632 1.34743L8.06644 1.34874C8.0666 1.35034 8.06696 1.35296 8.06774 1.35626C8.06933 1.36302 8.07244 1.37161 8.07827 1.37985C8.08794 1.39353 8.10944 1.41318 8.16899 1.41318H8.62982M8.64529 1.41318V1.43069L8.64602 1.4315L8.64911 1.43492C8.65188 1.43797 8.65608 1.44254 8.66164 1.44845C8.67275 1.46027 8.68926 1.47745 8.71064 1.49859C8.75342 1.5409 8.8155 1.59894 8.8925 1.66164C9.04719 1.7876 9.25874 1.92958 9.4923 2.0027C9.9186 2.13037 10.3661 2.15059 10.7872 2.0034L10.7895 2.00261C10.9602 1.95083 11.1659 1.82985 11.332 1.71867C11.4143 1.66358 11.4856 1.61181 11.5363 1.57381C11.5617 1.55482 11.5818 1.5393 11.5956 1.52856C11.6025 1.52319 11.6078 1.51901 11.6114 1.5162L11.6154 1.51302L11.6163 1.51223L11.6166 1.51204L11.6314 1.50014H11.6517H12.2407C12.2554 1.50014 12.2721 1.50051 12.2901 1.50091C12.3409 1.50204 12.4032 1.50344 12.4691 1.49765C12.5585 1.4898 12.6398 1.46944 12.6912 1.42586L12.704 1.41502L12.7219 1.41342L12.723 1.41332L12.7268 1.41295C12.7301 1.41262 12.7351 1.4121 12.7415 1.41139C12.7543 1.40995 12.7727 1.40773 12.7949 1.4046C12.8393 1.39831 12.8981 1.38845 12.9563 1.37413C13.0153 1.35964 13.0704 1.34138 13.1097 1.31942C13.1192 1.31416 13.1271 1.30905 13.1337 1.30409H11.3444L11.1395 1.19556" fill="black"/>
<path d="M9.014 1.28275C9.014 1.32622 8.98839 1.34796 8.93718 1.34796C8.88596 1.34796 8.86035 1.32622 8.86035 1.28275C8.86035 1.23927 8.88596 1.21753 8.93718 1.21753C8.98839 1.21753 9.014 1.23927 9.014 1.28275Z" fill="black"/>
<path d="M9.9104 3.26095L10.1665 2.32617L10.4482 3.26095C10.4738 3.26095 10.1665 3.21748 9.9104 3.26095Z" fill="#FFDD00"/>
<path fill-rule="evenodd" clip-rule="evenodd" d="M10.1641 2.14355L10.4945 3.24004C10.4981 3.24567 10.5011 3.25328 10.5005 3.26275C10.4993 3.28436 10.4813 3.29504 10.4755 3.29797C10.4687 3.30134 10.4627 3.30255 10.4607 3.30295C10.4579 3.30348 10.4556 3.30372 10.4543 3.30383C10.4516 3.30407 10.4493 3.30409 10.4481 3.30409H10.4085L10.4067 3.29789C10.4058 3.29779 10.4049 3.29768 10.404 3.29758C10.376 3.29433 10.3333 3.29036 10.2818 3.28771C10.1781 3.28237 10.0422 3.28255 9.92035 3.30325L9.84277 3.31642L10.1641 2.14355ZM10.3795 3.20784L10.1688 2.5085L9.97722 3.2078C10.0882 3.19584 10.2006 3.19681 10.288 3.2013C10.3226 3.20308 10.3537 3.20544 10.3795 3.20784Z" fill="black"/>
<path d="M11.1396 3.39143L11.9591 2.73926L11.6006 3.6523C11.6006 3.6523 11.3957 3.47839 11.1396 3.39143Z" fill="#FFDD00"/>
<path fill-rule="evenodd" clip-rule="evenodd" d="M12.0712 2.59058L11.6374 3.69541H11.6006V3.65213L11.5646 3.68274L11.5642 3.68242L11.5627 3.68113L11.5562 3.67585C11.5504 3.6712 11.5418 3.66435 11.5306 3.65582C11.5082 3.63876 11.4755 3.61501 11.4351 3.58861C11.3539 3.53556 11.2428 3.47289 11.1208 3.43145L11.0464 3.40619L12.0712 2.59058ZM11.5771 3.57524L11.8471 2.8876L11.2307 3.37813C11.3353 3.42102 11.4277 3.47455 11.4973 3.52C11.5286 3.54044 11.5555 3.55939 11.5771 3.57524Z" fill="black"/>
<path d="M11.959 4.02183L13.0601 3.80444L12.2151 4.43488C12.2151 4.43488 12.1382 4.19575 11.959 4.02183Z" fill="#FFDD00"/>
<path fill-rule="evenodd" clip-rule="evenodd" d="M13.2463 3.72314L12.1875 4.51303L12.166 4.44616L12.1659 4.44571L12.1653 4.44396L12.1627 4.43666C12.1604 4.43019 12.1569 4.42061 12.1521 4.40852C12.1424 4.38431 12.1277 4.35012 12.1076 4.31065C12.0671 4.23128 12.0055 4.13249 11.9207 4.0502L11.8647 3.99589L13.2463 3.72314ZM12.2397 4.35885L12.8742 3.88547L12.0495 4.04829C12.1169 4.12589 12.1668 4.20886 12.2011 4.27623C12.2171 4.30753 12.2299 4.33573 12.2397 4.35885Z" fill="black"/>
<path d="M12.3176 4.80444L13.4188 5.04357L12.3176 5.26096C12.3176 5.2827 12.3688 5.04357 12.3176 4.80444Z" fill="#FFDD00"/>
<path fill-rule="evenodd" clip-rule="evenodd" d="M12.2532 4.74561L13.6337 5.0454L12.3415 5.30049C12.3296 5.30576 12.3113 5.3085 12.2932 5.30009C12.2789 5.29339 12.273 5.28315 12.2713 5.28C12.2676 5.27318 12.267 5.26706 12.2669 5.26592C12.2669 5.26587 12.2669 5.26595 12.2669 5.26592C12.2666 5.26377 12.2666 5.26185 12.2666 5.26079V5.22641L12.2745 5.22485C12.2783 5.20294 12.2828 5.16925 12.2859 5.12765C12.2921 5.04279 12.292 4.92698 12.2674 4.81201L12.2532 4.74561ZM12.3804 5.20393L13.2038 5.04139L12.3795 4.86239C12.3941 4.96339 12.393 5.05981 12.3877 5.13305C12.3857 5.15991 12.3831 5.18384 12.3804 5.20393Z" fill="black"/>
<path d="M8.06648 5.2827L6.96533 5.06531L8.06648 4.80444C8.06648 4.82618 8.01527 5.06531 8.06648 5.2827Z" fill="#FFDD00"/>
<path fill-rule="evenodd" clip-rule="evenodd" d="M8.11768 4.74731V4.80433C8.11768 4.81024 8.11636 4.81941 8.11528 4.8269L8.1152 4.82745C8.11478 4.83039 8.11432 4.83355 8.11382 4.83694C8.11274 4.84435 8.11149 4.85288 8.11013 4.86272C8.10619 4.89111 8.1015 4.92896 8.09838 4.97271C8.0921 5.06062 8.0923 5.17058 8.11669 5.2741L8.1322 5.33996L6.75977 5.06901L8.11768 4.74731ZM7.17132 5.06139L8.00417 5.22581C7.99017 5.13316 7.99131 5.04151 7.99659 4.96747C7.99949 4.92692 8.00366 4.8913 8.00739 4.86331L7.17132 5.06139Z" fill="black"/>
<path d="M8.22015 4.32602L7.4519 3.63037L8.52745 3.93472C8.50184 3.93472 8.29697 4.13037 8.22015 4.32602Z" fill="#FFDD00"/>
<path fill-rule="evenodd" clip-rule="evenodd" d="M7.2771 3.5354L8.54371 3.89381L8.52758 3.97816C8.53559 3.97816 8.54126 3.9764 8.54312 3.97579C8.54541 3.97504 8.54673 3.97437 8.54686 3.9743C8.54688 3.97429 8.54689 3.97428 8.54686 3.9743C8.54665 3.97442 8.54527 3.9752 8.54258 3.97708C8.53658 3.98127 8.52775 3.98831 8.51649 3.99835C8.49417 4.01825 8.4651 4.04741 8.43411 4.08292C8.37179 4.15434 8.30472 4.24802 8.26865 4.33987L8.2416 4.40876L7.2771 3.5354ZM7.62698 3.72566L8.20215 4.24647C8.24382 4.16635 8.30048 4.09063 8.35217 4.03139C8.3791 4.00054 8.40517 3.97358 8.42781 3.95227L7.62698 3.72566Z" fill="black"/>
<path d="M8.8603 3.60885L8.57861 2.67407L9.34686 3.39146C9.34686 3.39146 9.06517 3.45668 8.8603 3.60885Z" fill="#FFDD00"/>
<path fill-rule="evenodd" clip-rule="evenodd" d="M8.47852 2.51611L9.44069 3.4146L9.36042 3.43318L9.3599 3.43331L9.35783 3.43381L9.34924 3.43596C9.34161 3.43792 9.33033 3.44092 9.31608 3.44501C9.28756 3.45319 9.2473 3.46567 9.2008 3.48278C9.1073 3.51717 8.99093 3.5694 8.894 3.6414L8.83158 3.68776L8.47852 2.51611ZM9.25625 3.37105L8.67895 2.83197L8.89021 3.53303C8.98206 3.47531 9.08045 3.43271 9.16025 3.40335C9.19652 3.39001 9.22926 3.37929 9.25625 3.37105Z" fill="black"/>
<path d="M9.29568 3.43487C9.29568 3.43487 9.0652 2.674 9.60297 2.32617C9.60297 2.32617 9.47493 2.58704 9.60297 2.69574C9.73102 2.80443 9.91027 2.93487 9.91027 3.23921C9.91027 3.23921 9.60297 3.30443 9.29568 3.43487Z" fill="#FFDD00"/>
<path fill-rule="evenodd" clip-rule="evenodd" d="M9.5035 2.46878C9.35563 2.62592 9.3061 2.82945 9.29858 3.01245C9.29391 3.12602 9.30558 3.2293 9.31848 3.30428C9.32301 3.33064 9.32769 3.35343 9.33183 3.37185C9.46798 3.31748 9.60006 3.27591 9.70205 3.24705C9.76046 3.23052 9.80919 3.21811 9.84341 3.20981C9.8488 3.2085 9.85383 3.2073 9.85849 3.20619C9.85257 3.07936 9.81265 2.98807 9.76113 2.91671C9.71123 2.8476 9.65015 2.79631 9.59145 2.74703C9.5832 2.74011 9.575 2.73322 9.56688 2.72633C9.5243 2.69018 9.50523 2.64323 9.49835 2.59762C9.49179 2.5542 9.49577 2.50906 9.5035 2.46878ZM9.91023 3.2392L9.92261 3.28119L9.92189 3.28134L9.91945 3.28187L9.90957 3.28408C9.90083 3.28605 9.88792 3.28904 9.87142 3.29304C9.83842 3.30105 9.79112 3.31309 9.73429 3.32917C9.62049 3.36138 9.46925 3.40955 9.31844 3.47356L9.26198 3.49753L9.24626 3.44563L9.29564 3.43485C9.24626 3.44563 9.24626 3.44565 9.24626 3.44563L9.24618 3.44538L9.24603 3.44485L9.24548 3.44298L9.24353 3.43607C9.24188 3.43008 9.23958 3.42139 9.23686 3.41027C9.23143 3.38805 9.22434 3.35612 9.21758 3.31678C9.20407 3.23823 9.19173 3.12955 9.19667 3.00943C9.20647 2.77082 9.28505 2.47735 9.57204 2.29173L9.72299 2.19409L9.65001 2.34277L9.64979 2.34323L9.64891 2.34509C9.64812 2.34679 9.64692 2.3494 9.64541 2.3528C9.6424 2.35962 9.63816 2.36961 9.63342 2.38198C9.62391 2.40684 9.61263 2.44076 9.60516 2.47753C9.59764 2.51458 9.59437 2.55271 9.59949 2.58662C9.60461 2.6205 9.61755 2.64692 9.63899 2.66512C9.64659 2.67157 9.65449 2.67818 9.66261 2.685C9.72099 2.7339 9.79125 2.79278 9.84807 2.87147C9.91383 2.96255 9.96122 3.07908 9.96122 3.2392H9.91023Z" fill="black"/>
<path d="M10.4739 3.23912C10.4739 3.23912 10.8324 2.52173 11.5238 2.52173C11.5238 2.52173 11.2165 2.6739 11.2421 2.82608C11.2677 2.97825 11.3189 3.1739 11.1141 3.41303C11.1141 3.41303 10.8324 3.30434 10.4739 3.23912Z" fill="#FFDD00" stroke="black" stroke-width="0.1" stroke-miterlimit="5"/>
<path d="M11.5493 3.63047C11.5493 3.63047 12.292 3.17395 12.8809 3.45656C12.8809 3.45656 12.548 3.45656 12.4712 3.587C12.3944 3.73917 12.3176 3.93482 12.0103 4.02178C12.0103 4.04352 11.8054 3.82613 11.5493 3.63047Z" fill="#FFDD00"/>
<path fill-rule="evenodd" clip-rule="evenodd" d="M11.6317 3.63599C11.742 3.72338 11.8402 3.81157 11.9131 3.87827C11.9258 3.88982 11.9375 3.90065 11.9485 3.91069C11.974 3.93416 11.9949 3.95333 12.0108 3.96731C12.0135 3.96964 12.0159 3.97173 12.0181 3.97361C12.2621 3.89652 12.3378 3.74409 12.4082 3.60215C12.4136 3.59137 12.4189 3.58064 12.4243 3.57002L12.4255 3.56768C12.4513 3.52381 12.4969 3.49384 12.5443 3.47317C12.5874 3.45433 12.6356 3.44169 12.6806 3.4331C12.4526 3.37997 12.2127 3.41716 12.0114 3.47836C11.8853 3.51668 11.7769 3.56369 11.6999 3.60118C11.6731 3.61423 11.6501 3.6261 11.6317 3.63599ZM12.8808 3.49992L12.8803 3.49992L12.8779 3.49994C12.8757 3.49997 12.8724 3.50003 12.8681 3.50015C12.8594 3.50039 12.8468 3.50087 12.8314 3.50184C12.8005 3.50378 12.7588 3.50766 12.7152 3.51532C12.6712 3.52304 12.6273 3.53426 12.5909 3.55015C12.5548 3.56591 12.5301 3.58448 12.5174 3.60541C12.5122 3.61572 12.5069 3.62634 12.5016 3.63721C12.43 3.78216 12.3366 3.97145 12.0365 4.05998C12.0161 4.07078 11.9962 4.06552 11.9916 4.06422C11.9804 4.06103 11.9717 4.05497 11.9688 4.05293L11.9686 4.05278C11.9599 4.04675 11.949 4.03759 11.9375 4.02748C11.9208 4.01277 11.8987 3.99246 11.8726 3.96855C11.8619 3.95866 11.8504 3.94816 11.8384 3.93717C11.7554 3.86129 11.6414 3.7592 11.5151 3.66272L11.4683 3.6269L11.5194 3.59549L11.5493 3.63055C11.5194 3.59549 11.5193 3.5955 11.5194 3.59549L11.5196 3.59534L11.5201 3.59503L11.5219 3.59392L11.5288 3.58988C11.5347 3.58641 11.5433 3.58145 11.5544 3.57528C11.5766 3.56294 11.6087 3.54575 11.6491 3.52609C11.7298 3.48681 11.8438 3.43735 11.977 3.39686C12.2417 3.31642 12.5923 3.26847 12.906 3.41895L13.0747 3.49992L12.8808 3.49992Z" fill="black"/>
<path d="M12.1895 4.28264C12.1895 4.28264 13.1113 4.21742 13.4186 4.73916C13.4186 4.73916 13.137 4.58699 12.9833 4.67394C12.8297 4.7609 12.6504 4.89133 12.3175 4.84785C12.3175 4.84785 12.2919 4.56525 12.1895 4.28264Z" fill="#FFDD00"/>
<path fill-rule="evenodd" clip-rule="evenodd" d="M12.2567 4.32362C12.2982 4.44911 12.3252 4.57083 12.3423 4.66471C12.352 4.71841 12.3585 4.76319 12.3625 4.79462C12.3632 4.79998 12.3639 4.80494 12.3644 4.8095C12.6202 4.83283 12.7717 4.74457 12.9085 4.66485C12.9241 4.65573 12.9396 4.64672 12.955 4.638C13.0054 4.60945 13.0639 4.60196 13.1187 4.60429C13.1735 4.60661 13.2283 4.61886 13.2757 4.63325C13.2759 4.63332 13.2762 4.63338 13.2764 4.63345C13.1205 4.47553 12.8908 4.39634 12.6781 4.35764C12.5475 4.33389 12.426 4.32593 12.3369 4.32394C12.3058 4.32324 12.2787 4.32328 12.2567 4.32362ZM13.3912 4.77573L13.3908 4.7755L13.3888 4.77444C13.3869 4.77348 13.3841 4.77203 13.3804 4.77018C13.373 4.76648 13.362 4.7612 13.3484 4.75509C13.321 4.74282 13.2833 4.72747 13.2414 4.71477C13.1993 4.70199 13.1548 4.6925 13.1136 4.69075C13.0723 4.689 13.0379 4.6951 13.0116 4.71002C12.997 4.71828 12.982 4.72706 12.9664 4.73616C12.8216 4.82095 12.6308 4.93264 12.3097 4.8907L12.3135 4.84818L12.2666 4.85125L12.2666 4.85058L12.2664 4.84832L12.2654 4.83921C12.2645 4.83116 12.2632 4.81927 12.2612 4.80408C12.2573 4.77369 12.2509 4.73016 12.2415 4.67788C12.2225 4.57314 12.1909 4.43405 12.1407 4.29544L12.1221 4.24404L12.1852 4.23957L12.1894 4.28271C12.1852 4.23957 12.1852 4.23958 12.1852 4.23957L12.1855 4.23955L12.1861 4.23951L12.1884 4.23937L12.1968 4.2389C12.204 4.23853 12.2145 4.23806 12.2279 4.23767C12.2546 4.23688 12.2928 4.23636 12.3396 4.2374C12.433 4.23949 12.5611 4.24783 12.6995 4.27299C12.9744 4.32301 13.3004 4.44165 13.4642 4.71987L13.5465 4.85964L13.3912 4.77573Z" fill="black"/>
<path d="M8.47637 4.00005C8.47637 4.00005 7.86177 3.43484 8.14346 2.89136C8.14346 2.89136 8.16907 3.17397 8.34833 3.21744C8.52758 3.26092 8.75806 3.3044 8.91171 3.56527C8.91171 3.56527 8.68123 3.76092 8.47637 4.00005Z" fill="#FFDD00"/>
<path fill-rule="evenodd" clip-rule="evenodd" d="M8.19428 2.88794L8.17869 2.71582L8.09678 2.87385C7.94724 3.16237 8.03705 3.45394 8.15831 3.66817C8.21925 3.77583 8.2891 3.86578 8.34364 3.92879C8.37095 3.96034 8.39452 3.98525 8.41137 4.00237C8.4198 4.01094 8.42655 4.01756 8.43126 4.0221L8.43674 4.02733L8.43825 4.02874L8.43868 4.02914L8.43886 4.0293C8.43887 4.02932 8.43889 4.02933 8.47635 3.99997L8.43886 4.0293L8.48104 4.06809L8.51759 4.02543C8.61867 3.90744 8.72629 3.79993 8.80881 3.7218C8.85002 3.68277 8.88487 3.65117 8.90937 3.62937C8.91893 3.62086 8.92691 3.61385 8.93308 3.60847H8.99419L8.9573 3.54583C8.87597 3.40776 8.77294 3.32543 8.66521 3.27232C8.56987 3.22533 8.47165 3.20188 8.3892 3.1822C8.38004 3.18001 8.37107 3.17787 8.36232 3.17575C8.33188 3.16836 8.30534 3.15028 8.28208 3.12281C8.2587 3.09519 8.2407 3.06042 8.2272 3.02477C8.2138 2.98939 8.20551 2.95495 8.20058 2.92917C8.19812 2.91635 8.19653 2.90582 8.19555 2.8986C8.19507 2.89499 8.19474 2.89221 8.19454 2.89039L8.19433 2.88841L8.19428 2.88794ZM8.84932 3.55746C8.78023 3.45128 8.69784 3.38851 8.614 3.34719C8.53046 3.306 8.4446 3.28543 8.36114 3.26544C8.35216 3.26329 8.34322 3.26114 8.33431 3.25898C8.27511 3.24462 8.23123 3.21107 8.19928 3.17333C8.17033 3.13915 8.14951 3.09965 8.13446 3.06237C8.09025 3.26662 8.15778 3.46736 8.25022 3.63068C8.30772 3.73227 8.37392 3.81758 8.42581 3.87754C8.44387 3.8984 8.46014 3.91613 8.47365 3.93035C8.56559 3.82679 8.65928 3.73371 8.73288 3.66401C8.7749 3.62423 8.81047 3.59198 8.83559 3.56962C8.84059 3.56517 8.84518 3.56111 8.84932 3.55746Z" fill="black"/>
<path d="M8.09203 4.86953C8.09203 4.86953 7.22136 4.65214 7.14453 4.06519C7.14453 4.06519 7.3494 4.30432 7.52865 4.26084C7.70791 4.21736 7.93838 4.15214 8.22007 4.30432C8.22007 4.32605 8.11764 4.58692 8.09203 4.86953Z" fill="#FFDD00"/>
<path fill-rule="evenodd" clip-rule="evenodd" d="M7.18594 4.03983L7.18626 4.0402L7.18775 4.04189C7.18911 4.04343 7.1912 4.04576 7.19397 4.04876C7.19951 4.05477 7.20772 4.06342 7.21815 4.07373C7.23911 4.09443 7.26857 4.12133 7.30297 4.14672C7.33763 4.17231 7.37557 4.19507 7.41339 4.20895C7.45111 4.22279 7.48497 4.22652 7.51479 4.21929C7.52202 4.21753 7.52936 4.21573 7.53683 4.2139C7.71388 4.17054 7.95715 4.11096 8.24759 4.26786L8.2712 4.28062V4.30438C8.2712 4.31062 8.26973 4.31685 8.26903 4.31979C8.26806 4.32387 8.26674 4.32863 8.26525 4.33373C8.26235 4.34367 8.25826 4.35673 8.25348 4.37199L8.25308 4.37325C8.24309 4.40515 8.22964 4.44813 8.21541 4.49914C8.18691 4.60129 8.15553 4.73474 8.14301 4.87292L8.13818 4.9262L8.07779 4.91112L8.09217 4.8696C8.07779 4.91112 8.07781 4.91113 8.07779 4.91112L8.07749 4.91105L8.07688 4.91089L8.07473 4.91034L8.06685 4.90824C8.06006 4.9064 8.05025 4.90366 8.03783 4.89998C8.01299 4.89263 7.97768 4.88153 7.93518 4.86636C7.85029 4.83607 7.73606 4.78936 7.61909 4.72362C7.38635 4.59284 7.13484 4.38206 7.094 4.07003L7.07275 3.90771L7.18594 4.03983ZM8.04731 4.8109C8.06277 4.68683 8.09081 4.57013 8.11618 4.47919C8.13076 4.42693 8.14452 4.38296 8.15454 4.351L8.15471 4.35043C8.15773 4.34082 8.16035 4.33245 8.16254 4.3253C7.92513 4.20918 7.73079 4.25663 7.56246 4.29773C7.55587 4.29934 7.54931 4.30094 7.5428 4.30252C7.48299 4.31703 7.42403 4.30716 7.37292 4.2884C7.32207 4.26974 7.27532 4.24099 7.23644 4.21232C7.31825 4.40771 7.49695 4.55117 7.67538 4.65144C7.78568 4.71343 7.89392 4.75774 7.97469 4.78656C8.00261 4.79652 8.02718 4.80461 8.04731 4.8109Z" fill="black"/>
<path d="M10.1921 3.23926C11.3701 3.23926 12.3432 4.0436 12.3432 5.06534C12.3432 6.06534 11.3701 6.89143 10.1921 6.89143C9.01412 6.89143 8.04102 6.08708 8.04102 5.06534C8.06662 4.0436 9.01412 3.23926 10.1921 3.23926Z" fill="#FFDD00" stroke="black" stroke-width="0.1" stroke-miterlimit="5"/>
<path d="M0 5.63054C0 5.63054 1.27388 5.65228 2.47133 6.13054C3.66878 6.6088 4.3312 6.15228 4.61146 6.04358C4.89171 5.93489 6.47133 5.02185 7.92355 5.56532C9.37578 6.1088 9.91081 6.43489 11.414 5.89141C12.9172 5.34793 13.6305 5.13054 14.9554 5.63054C16.2802 6.1088 17.3758 6.28271 18.3184 5.82619C19.2611 5.39141 20 5.28271 20 5.28271V7.0001C20 8.65696 18.6568 10.0001 17 10.0001H3C1.34315 10.0001 0 8.65696 0 7.0001V5.63054Z" fill="#2E3192"/>
<path fill-rule="evenodd" clip-rule="evenodd" d="M18.478 9.25751C18.0245 9.48413 17.5005 9.746 16.671 9.746C15.8664 9.746 15.397 9.49835 14.9911 9.28424C14.9663 9.27113 14.9416 9.25815 14.9172 9.24535C14.5238 9.03936 14.1408 8.85725 13.3786 8.87629C12.9855 8.88611 12.7079 8.94311 12.4895 9.0169C12.2671 9.09204 12.0918 9.1888 11.891 9.30189C11.8843 9.30568 11.8775 9.30949 11.8707 9.31333C11.6798 9.42094 11.4578 9.5461 11.1809 9.63886C10.887 9.73732 10.5454 9.79553 10.1072 9.78943C9.25894 9.77764 8.77996 9.52696 8.36679 9.31072C8.34256 9.29804 8.31857 9.28548 8.29473 9.2731C8.08492 9.16406 7.89683 9.07284 7.66549 9.00882C7.43718 8.94565 7.15042 8.90485 6.75112 8.9196C6.35031 8.93441 6.07749 8.99392 5.86687 9.06787C5.65922 9.14078 5.49896 9.23145 5.30663 9.34027C5.29907 9.34455 5.29145 9.34886 5.28378 9.3532C5.08489 9.46566 4.85283 9.59467 4.54368 9.68901C4.23182 9.78417 3.86077 9.83883 3.37412 9.83292C2.38908 9.82096 1.79418 9.57684 1.30778 9.34841C1.26735 9.32943 1.22826 9.31091 1.19027 9.29292C1.10174 9.25099 1.01924 9.21191 0.939892 9.17639C0.860542 9.14087 0.300537 8.45711 0.300537 8.30828C0.622806 8.32941 1.21451 8.53985 1.56321 8.70665C1.60514 8.72671 1.64651 8.7465 1.68749 8.76574C2.11533 8.96666 2.5797 9.15732 3.38533 9.1671C3.79402 9.17206 4.06925 9.12618 4.27835 9.06237C4.49016 8.99774 4.65375 8.90936 4.84894 8.799C4.86046 8.79248 4.87212 8.78587 4.88392 8.77918C5.06806 8.67481 5.28623 8.55114 5.56707 8.45253C5.87111 8.34578 6.23511 8.27214 6.71702 8.25434C7.20045 8.23648 7.58203 8.28536 7.90858 8.37571C8.23209 8.46523 8.48536 8.5914 8.7043 8.70518C8.72655 8.71675 8.74852 8.72822 8.77027 8.73957C9.16604 8.94621 9.48906 9.11486 10.1201 9.12363C10.4637 9.12841 10.7022 9.08335 10.893 9.01945C11.0909 8.95315 11.2524 8.8625 11.4573 8.74705C11.6569 8.63459 11.893 8.50174 12.1995 8.3982C12.5099 8.29333 12.8786 8.2226 13.3556 8.21069C14.3336 8.18625 14.8712 8.43892 15.329 8.67858C15.3506 8.68991 15.3719 8.70112 15.393 8.71219C15.7883 8.92 16.0929 9.08011 16.671 9.08011C17.2862 9.08011 17.6529 8.89699 18.1062 8.67064L18.1083 8.66955C18.5314 8.45828 19.0172 8.2178 19.7584 8.17407C19.7424 8.42001 19.3036 8.91708 19.3036 8.91708C19.3036 8.91708 18.7696 9.11191 18.506 9.24351L18.478 9.25751Z" fill="white"/>
<path fill-rule="evenodd" clip-rule="evenodd" d="M18.4526 6.01843C17.9991 6.24504 17.4751 6.50691 16.6455 6.50691C15.8409 6.50691 15.3715 6.25926 14.9656 6.04515C14.9408 6.03204 14.9162 6.01906 14.8917 6.00626C14.4983 5.80028 14.1154 5.61816 13.3532 5.6372C12.96 5.64703 12.6825 5.70402 12.464 5.77781C12.2416 5.85295 12.0663 5.94971 11.8656 6.0628C11.8588 6.06659 11.8521 6.0704 11.8453 6.07424C11.6544 6.18185 11.4324 6.30701 11.1554 6.39977C10.8615 6.49823 10.52 6.55644 10.0818 6.55034C9.23348 6.53855 8.7545 6.28787 8.34133 6.07163C8.31711 6.05896 8.29311 6.0464 8.26928 6.03401C8.05946 5.92497 7.87138 5.83375 7.64003 5.76973C7.41172 5.70656 7.12496 5.66576 6.72567 5.68051C6.32485 5.69532 6.05203 5.75483 5.84142 5.82878C5.63376 5.90169 5.47351 5.99236 5.28117 6.10119C5.27361 6.10547 5.26599 6.10978 5.25832 6.11411C5.05943 6.22657 4.82738 6.35559 4.51822 6.44992C4.20636 6.54508 3.83531 6.59974 3.34866 6.59383C2.36363 6.58188 1.76873 6.33775 1.28233 6.10933C1.2419 6.09034 1.2028 6.07182 1.16481 6.05383C0.751157 5.8579 0.469093 5.7243 0.0251465 5.7243V5.05841C0.682414 5.05841 1.13603 5.2754 1.53776 5.46756C1.57969 5.48762 1.62106 5.50741 1.66203 5.52665C2.08988 5.72758 2.55425 5.91823 3.35988 5.92801C3.76856 5.93297 4.04379 5.88709 4.25289 5.82328C4.4647 5.75865 4.6283 5.67027 4.82348 5.55991C4.83501 5.55339 4.84666 5.54678 4.85846 5.54009C5.0426 5.43572 5.26077 5.31206 5.54161 5.21345C5.84566 5.10669 6.20966 5.03305 6.69156 5.01525C7.17499 4.99739 7.55658 5.04627 7.88312 5.13663C8.20663 5.22614 8.4599 5.35231 8.67884 5.4661C8.70109 5.47766 8.72306 5.48913 8.74481 5.50049C9.14058 5.70712 9.46361 5.87577 10.0946 5.88454C10.4383 5.88932 10.6768 5.84427 10.8675 5.78036C11.0655 5.71406 11.2269 5.62341 11.4319 5.50796C11.6315 5.3955 11.8676 5.26265 12.174 5.15912C12.4844 5.05424 12.8532 4.98352 13.3301 4.9716C14.3081 4.94717 14.8458 5.19983 15.3035 5.4395C15.3251 5.45082 15.3465 5.46203 15.3675 5.4731C15.7628 5.68091 16.0674 5.84102 16.6455 5.84102C17.2607 5.84102 17.6274 5.6579 18.0807 5.43156L18.0829 5.43047C18.5503 5.19705 19.0943 4.92798 19.9747 4.92798V5.59387C19.3166 5.59387 18.9274 5.78132 18.4806 6.00443L18.4526 6.01843Z" fill="white"/>
<path fill-rule="evenodd" clip-rule="evenodd" d="M18.4274 7.62707C17.9739 7.85368 17.4499 8.11555 16.6204 8.11555C15.8158 8.11555 15.3464 7.86791 14.9405 7.65379C14.9157 7.64068 14.891 7.6277 14.8666 7.61491C14.4732 7.40892 14.0902 7.2268 13.328 7.24585C12.9349 7.25567 12.6573 7.31266 12.4389 7.38645C12.2165 7.46159 12.0412 7.55835 11.8404 7.67144C11.8337 7.67523 11.8269 7.67905 11.8201 7.68288C11.6292 7.7905 11.4072 7.91566 11.1303 8.00842C10.8364 8.10687 10.4948 8.16508 10.0566 8.15899C9.20833 8.14719 8.72936 7.89652 8.31618 7.68028C8.29196 7.6676 8.26796 7.65504 8.24413 7.64265C8.03432 7.53361 7.84623 7.44239 7.61488 7.37838C7.38658 7.3152 7.09981 7.2744 6.70052 7.28915C6.29971 7.30396 6.02688 7.36347 5.81627 7.43742C5.60862 7.51033 5.44836 7.60101 5.25603 7.70983C5.24846 7.71411 5.24085 7.71842 5.23318 7.72276C5.03428 7.83522 4.80223 7.96423 4.49308 8.05856C4.18122 8.15373 3.81016 8.20839 3.32352 8.20248C2.33848 8.19052 1.74358 7.94639 1.25718 7.71797C1.21675 7.69898 1.17765 7.68046 1.13967 7.66247C0.726011 7.46654 0.443947 7.33295 0 7.33295V6.66706C0.657268 6.66706 1.11089 6.88404 1.51261 7.0762C1.55454 7.09626 1.59591 7.11605 1.63689 7.13529C2.06473 7.33622 2.5291 7.52687 3.33473 7.53665C3.74342 7.54162 4.01864 7.49573 4.22775 7.43193C4.43956 7.36729 4.60315 7.27891 4.79833 7.16855C4.80986 7.16203 4.82152 7.15542 4.83332 7.14874C5.01746 7.04436 5.23563 6.9207 5.51647 6.82209C5.82051 6.71533 6.18451 6.64169 6.66642 6.62389C7.14985 6.60603 7.53143 6.65491 7.85798 6.74527C8.18148 6.83479 8.43476 6.96096 8.65369 7.07474C8.67595 7.0863 8.69792 7.09777 8.71967 7.10913C9.11544 7.31576 9.43846 7.48441 10.0695 7.49319C10.4131 7.49796 10.6516 7.45291 10.8424 7.389C11.0403 7.32271 11.2018 7.23206 11.4067 7.1166C11.6063 7.00415 11.8424 6.87129 12.1489 6.76776C12.4593 6.66288 12.828 6.59216 13.305 6.58024C14.283 6.55581 14.8206 6.80847 15.2784 7.04814C15.3 7.05946 15.3213 7.07067 15.3424 7.08174C15.7377 7.28956 16.0423 7.44966 16.6204 7.44966C17.2355 7.44966 17.6023 7.26654 18.0556 7.0402L18.0577 7.03911C18.5252 6.80569 19.0691 6.53662 19.9495 6.53662V7.20251C19.2915 7.20251 18.9022 7.38996 18.4554 7.61307L18.4274 7.62707Z" fill="white"/>
<path d="M0.000244141 5.00006C1.22317 5.00006 1.55438 5.84789 3.33782 5.86963C5.14673 5.89137 4.94291 5.0218 6.70087 4.95659C8.48431 4.89137 8.50978 5.80441 10.0894 5.82615C11.6435 5.84789 11.6181 4.95659 13.3505 4.91311C15.083 4.86963 15.2104 5.78267 16.6626 5.78267C18.1149 5.78267 18.4715 4.89137 20.0002 4.86963" stroke="black" stroke-width="0.1"/>
<path d="M9.60319 0.934772C9.60319 0.934772 8.9886 0.934772 8.55326 0.934772C8.11792 0.934772 7.96427 0.826076 7.96427 0.826076C7.55454 0.826076 7.55454 0.760859 7.55454 0.760859C7.24724 0.760859 7.17042 0.652163 7.17042 0.652163C6.86312 0.652163 6.70947 0.521729 6.70947 0.521729C6.70947 0.521729 8.11792 0.521729 9.06542 0.521729C10.0129 0.521729 10.269 1.10868 10.269 1.10868" stroke="black" stroke-width="0.1" stroke-linejoin="bevel"/>
</svg>
