<svg width="20" height="10" viewBox="0 0 20 10" fill="none" xmlns="http://www.w3.org/2000/svg">
<path d="M17 0H3C1.34315 0 0 1.34315 0 3V7C0 8.65685 1.34315 10 3 10H17C18.6569 10 20 8.65685 20 7V3C20 1.34315 18.6569 0 17 0Z" fill="#2E3192"/>
<path d="M20 4.5H0V5.43478H20V4.5Z" fill="#FFDD00"/>
<path d="M3.5 6.5L3.74074 7.07764L4.24074 6.70497L4.16667 7.31988L4.7963 7.24534L4.42593 7.74845L5 7.99068L4.42593 8.25155L4.7963 8.73602L4.16667 8.68012L4.24074 9.29503L3.74074 8.92236L3.5 9.5L3.25926 8.92236L2.75926 9.29503L2.81481 8.68012L2.2037 8.73602L2.57407 8.25155L2 7.99068L2.57407 7.74845L2.2037 7.24534L2.81481 7.31988L2.75926 6.70497L3.25926 7.07764L3.5 6.5Z" fill="white"/>
</svg>
