<svg width="20" height="10" viewBox="0 0 20 10" fill="none" xmlns="http://www.w3.org/2000/svg">
<path d="M20 6.55835H0V6.99991C0 8.65676 1.34315 9.99991 3 9.99991H17C18.6569 9.99991 20 8.65676 20 6.99991V6.55835Z" fill="#169A4B"/>
<path d="M20 3.29004H0V6.66666H20V3.29004Z" fill="#E92627"/>
<path d="M17 0H3C1.34315 0 0 1.34315 0 3V3.33333H20V3C20 1.34315 18.6569 0 17 0Z" fill="#254297"/>
<path d="M2.10254 5.08672C2.10254 7.09971 4.05126 8.74473 6.43587 8.74473C8.82049 8.74473 10.7692 7.09971 10.7692 5.08672C10.7692 3.07373 8.82049 1.42871 6.43587 1.42871C4.05126 1.42871 2.10254 3.07373 2.10254 5.08672Z" fill="#FFC92C"/>
<path d="M6.46156 5.41123C6.76925 5.41123 7.02566 5.19478 7.02566 4.93504C7.02566 4.6753 6.76925 4.45885 6.46156 4.45885C6.15386 4.45885 5.89746 4.6753 5.89746 4.93504C5.89746 5.19478 6.15386 5.41123 6.46156 5.41123ZM5.87181 6.58007C5.87181 6.83981 6.12822 7.05626 6.43592 7.05626C6.74361 7.05626 7.00002 6.83981 7.00002 6.58007C7.00002 6.32033 6.74361 6.10387 6.43592 6.10387C6.12822 6.10387 5.87181 6.32033 5.87181 6.58007ZM6.46156 4.13418C5.84617 4.13418 5.6154 4.28569 5.6154 4.28569C5.6154 4.28569 5.79489 4.41556 6.46156 4.41556C7.10258 4.41556 7.30771 4.26405 7.30771 4.26405C7.30771 4.26405 7.07694 4.13418 6.46156 4.13418ZM7.33335 3.83115C7.33335 3.57141 7.33335 3.29002 7.33335 3.29002H7.25643C7.25643 3.78786 7.10258 3.83115 6.94874 3.83115C6.79489 3.83115 6.4872 3.83115 6.4872 3.83115C6.4872 3.83115 6.15387 3.83115 6.02566 3.83115C5.87181 3.83115 5.71797 3.78786 5.71797 3.29002H5.64104C5.64104 3.29002 5.64104 3.57141 5.64104 3.83115C5.64104 4.09089 5.94874 4.09089 6.02566 4.09089C6.10258 4.09089 6.4872 4.09089 6.4872 4.09089C6.4872 4.09089 6.87181 4.09089 6.94874 4.09089C7.02566 4.09089 7.33335 4.09089 7.33335 3.83115ZM6.56412 2.57574C6.58976 2.57574 6.6154 2.57574 6.6154 2.57574C6.64104 2.59738 6.97438 2.7489 6.97438 2.72725C6.97438 2.68396 6.87181 2.61903 6.82053 2.59738C6.76925 2.57574 6.79489 2.55409 6.79489 2.5108C6.82053 2.38093 6.79489 2.27271 6.71797 2.16448C6.66669 2.12119 6.58976 2.09955 6.4872 2.09955C6.4872 1.90474 6.46156 1.68829 6.46156 1.4502H6.43592H6.41028C6.41028 1.68829 6.38463 1.90474 6.38463 2.09955C6.35899 2.09955 6.33335 2.09955 6.30771 2.09955C6.28207 2.09955 6.23079 2.05626 6.20515 2.03461C6.17951 2.01297 6.07694 2.03461 6.02566 2.01297C5.97438 2.01297 5.89746 1.92639 5.89746 1.94803C5.89746 2.09955 6.20515 2.22942 6.20515 2.27271C6.20515 2.316 6.20515 2.42422 6.30771 2.48916L6.33335 2.5108C6.30771 2.70561 6.25643 2.83548 6.20515 2.85712C6.12822 2.90041 5.84617 3.00864 5.84617 3.24673C5.84617 3.59305 5.97438 3.74457 6.41028 3.74457C6.87181 3.74457 7.00002 3.59305 7.00002 3.24673C7.00002 3.00864 6.71797 2.90041 6.64104 2.85712C6.64104 2.87877 6.58976 2.7489 6.56412 2.57574ZM5.6154 5.58439C5.6154 5.58439 5.82053 5.73591 6.46156 5.73591C7.07694 5.73591 7.30771 5.58439 7.30771 5.58439C7.30771 5.58439 7.10258 5.43288 6.46156 5.43288C5.79489 5.45452 5.6154 5.58439 5.6154 5.58439ZM6.00002 6.06058C6.15387 6.06058 6.46156 6.06058 6.46156 6.06058C6.46156 6.06058 6.79489 6.06058 6.9231 6.06058C7.07694 6.06058 7.23079 6.10387 7.23079 6.60171H7.30771C7.30771 6.60171 7.30771 6.32032 7.30771 6.06058C7.30771 5.80084 7.00002 5.80084 6.9231 5.80084C6.84617 5.80084 6.46156 5.80084 6.46156 5.80084C6.46156 5.80084 6.07694 5.80084 6.00002 5.80084C5.9231 5.80084 5.6154 5.82249 5.6154 6.06058C5.6154 6.32032 5.6154 6.60171 5.6154 6.60171H5.69233C5.69233 6.10387 5.84617 6.06058 6.00002 6.06058ZM6.46156 8.76621C7.30771 8.76621 8.00002 8.46318 8.00002 8.46318C7.35899 7.61903 6.64104 7.29435 6.64104 7.29435V7.12119H6.46156H6.30771V7.29435C6.30771 7.29435 5.58976 7.64067 4.9231 8.48483C4.9231 8.48483 5.6154 8.76621 6.46156 8.76621Z" fill="#130C15"/>
</svg>
