<svg width="20" height="10" viewBox="0 0 20 10" fill="none" xmlns="http://www.w3.org/2000/svg">
<path d="M17 0H3C1.34315 0 0 1.34315 0 3V7C0 8.65685 1.34315 10 3 10H17C18.6569 10 20 8.65685 20 7V3C20 1.34315 18.6569 0 17 0Z" fill="#FFD100"/>
<path d="M9.98221 0H3C1.34315 0 0 1.34315 0 3V5.52081H9.98221V0Z" fill="white"/>
<path d="M10.0075 3.56128V5.47881L6.73828 3.56128H10.0075Z" fill="#2E3192"/>
<path d="M10.0074 2.59204H0.0251465V3.30848H10.0074V2.59204Z" fill="#ED1C24"/>
<path d="M5.46543 0.0844727H4.61694V5.54207H5.46543V0.0844727Z" fill="#ED1C24"/>
<path d="M4.34331 2.68797L4.50987 2.47785L1.19395 0.603846L0.980713 0.787598L4.34331 2.68797Z" fill="#ED1C24"/>
<path d="M0.834335 0.922607L3.44401 2.40236H0.067627C0.200492 1.77582 0.379034 1.44824 0.834335 0.922607Z" fill="#2E3192"/>
<path d="M4.31764 0.0632324V1.89648L1.62329 0.33799C1.8808 0.198739 2.04393 0.138256 2.38681 0.0632324H4.31764Z" fill="#2E3192"/>
<path d="M9.77404 0.0766652L5.40479 2.54907L5.5715 2.75912L9.94076 0.286717L9.77404 0.0766652Z" fill="#ED1C24"/>
<path d="M10.0322 2.38145V0.653564L6.93774 2.38145H10.0322Z" fill="#2E3192"/>
<path d="M5.71509 0.0632324V2.1072L9.30868 0.0632324H5.71509Z" fill="#2E3192"/>
<path d="M4.31758 5.5211V3.79321L1.24805 5.5211H4.31758Z" fill="#2E3192"/>
<path d="M0.0251465 3.54004V5.16257L2.84512 3.54004H0.0251465Z" fill="#2E3192"/>
<path d="M5.71509 5.52106V3.94067L8.53506 5.52106H5.71509Z" fill="#2E3192"/>
<path d="M5.98038 3.32093L5.80615 3.52661L9.0966 5.51389L9.27083 5.30821L5.98038 3.32093Z" fill="#ED1C24"/>
<path d="M4.1951 3.3036L0.605469 5.33765L0.772331 5.5476L4.36196 3.51355L4.1951 3.3036Z" fill="#ED1C24"/>
<path d="M5 2.5C4.72917 2.5 4.5 2.73034 4.5 3.00256C4.5 3.27478 4.72917 3.50512 5 3.50512C5.27083 3.50512 5.5 3.27478 5.5 3.00256C5.5 2.73034 5.27083 2.5 5 2.5Z" fill="#2E3192"/>
<path d="M5 2.5L5.13636 2.89024H5.5L5.20455 3.13415L5.31818 3.5L5 3.28049L4.70455 3.5L4.81818 3.13415L4.5 2.89024H4.88636L5 2.5Z" fill="#FFD100"/>
<path d="M2.61711 2.5603L2.73763 2.88596H3.09921L2.7979 3.07593L2.91842 3.37445L2.61711 3.18448L2.3158 3.37445L2.43632 3.07593L2.13501 2.88596H2.49658L2.61711 2.5603Z" fill="#FFD100"/>
<path d="M7.43815 2.5603L7.55868 2.85882H7.92025L7.61894 3.04879L7.73946 3.37445L7.43815 3.18448L7.13684 3.37445L7.25737 3.04879L6.95605 2.85882H7.31763L7.43815 2.5603Z" fill="#FFD100"/>
</svg>
