<svg width="20" height="10" viewBox="0 0 20 10" fill="none" xmlns="http://www.w3.org/2000/svg">
<path d="M17 0H3C1.34315 0 0 1.34315 0 3V7C0 8.65685 1.34315 10 3 10H17C18.6569 10 20 8.65685 20 7V3C20 1.34315 18.6569 0 17 0Z" fill="#ED1C24"/>
<path d="M0 3.00009C0 3.51303 0 5.34122 0 7.00056C0 8.65742 1.34315 10.0001 3 10.0001H17C17.7921 10.0089 18.1769 9.86285 18.7759 9.41211L1.195 0.599121C0.314606 1.35833 0 2 0 3.00009Z" fill="black"/>
<path d="M3.70366 7.61401L3.95908 8.26477L4.77645 8.28646L4.13788 8.69861L4.36777 9.34937L3.70366 8.93722L3.06509 9.34937L3.29497 8.69861L2.63086 8.28646L3.44823 8.26477L3.70366 7.61401Z" fill="white"/>
<path d="M1.78813 5.24951L2.04356 5.92196H2.86093L2.22236 6.33411L2.45224 6.98487L1.78813 6.59441L1.12402 6.98487L1.37944 6.33411L0.715332 5.92196H1.5327L1.78813 5.24951Z" fill="white"/>
<path d="M3.67827 2.84155L3.93369 3.49231H4.75106L4.08695 3.90446L4.34238 4.55522L3.67827 4.16476L3.01415 4.55522L3.26958 3.90446L2.60547 3.49231H3.42284L3.67827 2.84155Z" fill="white"/>
<path d="M5.67045 4.72876L5.92588 5.37952H6.74325L6.07914 5.79167L6.33457 6.46412L5.67045 6.05197L5.00634 6.46412L5.26177 5.79167L4.59766 5.37952H5.41503L5.67045 4.72876Z" fill="white"/>
<path d="M5.10857 6.85474L5.26183 7.20181H5.69606L5.33846 7.41873L5.46617 7.7658L5.10857 7.54888L4.75097 7.7658L4.90423 7.41873L4.54663 7.20181H4.98086L5.10857 6.85474Z" fill="white"/>
<path d="M10.7278 2.14747L11.1876 2.19085C11.1876 2.19085 11.8773 1.90886 12.0305 2.36439C12.1838 2.81992 12.4392 2.62469 12.4648 2.62469C12.4903 2.62469 12.5925 2.45115 12.5414 2.27762C12.4903 2.10408 12.3626 1.27979 12.8734 1.08456C13.3843 0.889333 13.8952 0.607337 14.074 0.412109C14.074 0.412109 14.2272 0.542261 14.0995 0.694105C14.0995 0.694105 14.074 0.629029 14.2783 0.867641C14.2783 0.867641 14.3549 1.04118 13.9973 1.10625C13.9973 1.10625 14.0995 1.06287 14.3038 1.21471C14.3038 1.21471 14.1761 1.40994 13.9973 1.40994C13.9973 1.40994 14.1761 1.45332 14.3038 1.67024C14.3038 1.67024 14.2272 1.7787 13.9462 1.82209C13.9462 1.82209 13.9973 1.73532 14.074 1.99562C14.074 1.99562 13.6653 2.14747 13.7674 2.45115C13.7674 2.45115 14.0995 2.47285 14.2528 2.27762C14.406 2.08239 14.8402 1.84378 15.3766 1.95224C15.3766 1.95224 15.0701 2.14747 15.0446 2.25593C15.0446 2.25593 15.3 2.12578 15.5554 2.29931C15.5554 2.29931 15.4277 2.29931 15.3255 2.49454C15.3255 2.49454 15.6065 2.55961 15.7342 2.71146C15.7342 2.71146 15.4533 2.75484 15.3 2.8633C15.3 2.8633 15.7853 2.90669 16.0663 3.27545C16.0663 3.27545 15.9897 3.44899 15.5554 3.34053C15.5554 3.34053 16.0407 3.62252 16.2195 3.88283C16.3728 4.12144 16.5771 4.59866 16.5261 4.88066C16.475 5.16265 16.4494 5.50972 16.2451 5.70495C16.0407 5.90018 15.7853 6.16048 15.5043 6.16048C15.2489 6.16048 14.9935 6.09541 14.9935 5.98695C14.9935 5.87849 14.8658 5.77003 15.0446 5.74833C15.2234 5.72664 15.1978 5.79172 15.4022 5.77003C15.6065 5.74834 15.581 5.74833 15.7598 5.63988C15.9386 5.53142 15.9897 5.53142 16.0663 5.37957C16.0663 5.37957 16.1429 5.27111 16.1685 5.0325C16.194 4.79389 16.1685 4.55528 16.0918 4.38174C16.0152 4.2299 15.9641 4.12144 15.8364 4.03467C15.7087 3.9479 15.5554 3.88283 15.4277 3.88283C15.3 3.88283 15.1467 3.86113 15.0446 3.90452C15.0446 3.90452 15.5043 4.05636 16.0407 4.59866C16.5516 5.14096 16.7049 5.16265 16.807 5.35788C16.9092 5.55311 16.9858 5.5748 17.0369 5.79172C17.088 6.00864 17.1902 6.05202 17.1391 6.33402C17.088 6.57263 17.0369 6.76786 16.8326 6.9197C16.6282 7.04985 16.2962 7.2017 16.0918 7.15831C15.913 7.11493 15.8109 7.13662 15.6831 7.02816C15.5554 6.9197 15.4788 6.89801 15.5043 6.78955C15.5299 6.68109 15.5043 6.63771 15.6065 6.61601C15.7087 6.59432 15.7853 6.59432 15.913 6.61601C16.0407 6.63771 16.0407 6.6594 16.1685 6.68109C16.2962 6.70278 16.475 6.72447 16.5771 6.63771C16.6793 6.55094 16.7815 6.50755 16.7815 6.26894C16.7815 6.03033 16.807 6.00864 16.7304 5.85679C16.6538 5.70495 16.5771 5.59649 16.5005 5.50972C16.4239 5.42296 16.194 4.83727 14.8658 4.12144C13.5376 3.38391 14.7892 4.12144 14.7892 4.12144C14.7892 4.12144 14.8402 4.27328 14.4826 4.2082C14.4826 4.2082 14.7636 4.25159 14.8402 4.64204C14.8402 4.64204 14.7636 4.79389 14.4826 4.66374C14.4826 4.66374 14.7636 4.88066 14.7892 5.0325C14.7892 5.0325 14.7125 5.11927 14.4826 4.98912C14.4826 4.98912 14.7892 5.20604 14.8147 5.44465C14.8147 5.44465 14.5848 5.3145 14.4826 5.2928C14.4826 5.2928 14.5337 5.09758 14.5848 5.5748C14.5848 5.5748 14.5337 5.81341 14.0995 5.18434C14.0995 5.18434 14.125 5.22773 13.9973 5.44465C13.9973 5.44465 13.7674 5.46634 13.6908 5.09758C13.6908 5.09758 13.7419 5.27111 13.512 5.44465C13.512 5.44465 13.3332 5.40126 13.1544 5.07588C13.1544 5.07588 13.231 5.11927 13.0012 5.22773C13.0012 5.22773 12.0816 5.09758 12.337 3.88283C12.337 3.88283 12.1582 3.73098 12.0305 4.18651C12.0305 4.18651 11.9028 4.25159 11.6985 4.03467C11.6985 4.03467 11.6729 4.12144 11.5452 4.27328C11.5452 4.27328 11.4686 4.38174 11.2387 4.14313C11.2387 4.14313 11.2898 4.27328 11.0088 4.44682C11.0088 4.44682 10.9322 4.53358 10.8811 4.16482C10.8811 4.16482 10.8811 4.33836 10.3958 4.46851C9.91048 4.59866 10.3958 4.40343 10.3958 4.40343C10.3958 4.40343 10.2681 4.36005 10.3958 4.07805C10.3958 4.07805 10.2936 4.18651 9.93602 4.27328C9.93602 4.27328 9.91048 4.01298 10.0126 3.86113C10.0126 3.86113 9.83385 4.12144 9.11865 4.09974C9.11865 4.09974 9.57842 3.75267 9.83385 3.38391C10.0637 3.03684 10.9322 2.95007 11.1876 2.97176C11.443 2.99345 11.6729 3.01515 11.7751 3.01515C11.8773 3.01515 11.6985 2.99345 11.6985 2.99345C11.6985 2.99345 11.7496 2.77653 11.6218 2.68977C11.4941 2.603 11.2642 2.58131 11.1876 2.47285C11.0854 2.47285 10.9322 2.321 10.7278 2.14747Z" fill="#FFDD00"/>
<path d="M11.4431 2.36436C11.4431 2.40774 11.4942 2.45112 11.5453 2.45112C11.5964 2.45112 11.6475 2.40774 11.6475 2.36436C11.6475 2.32097 11.5964 2.27759 11.5453 2.27759C11.4942 2.27759 11.4431 2.29928 11.4431 2.36436Z" fill="#ED1C24"/>
</svg>
