<svg width="21" height="10" viewBox="0 0 21 10" fill="none" xmlns="http://www.w3.org/2000/svg">
<path d="M17 0H3C1.34315 0 0 1.34315 0 3V7C0 8.65685 1.34315 10 3 10H17C18.6569 10 20 8.65685 20 7V3C20 1.34315 18.6569 0 17 0Z" fill="#003893"/>
<path d="M0.955811 9.20305L19.5 1.5C19.9783 2.01182 20.0456 2.65065 20 4.08008L1.30322 9.46475C1.12444 9.35636 1.06056 9.30046 0.955811 9.20305Z" fill="white"/>
<path d="M0.869019 9.11333L18.8917 0.678711C19.5074 1.24137 19.709 1.57657 19.8773 2.1664L1.04659 9.28441L0.869019 9.11333Z" fill="#DD7500"/>
<path d="M4.86671 3.78005L7.10531 3.65005L4.86671 3.52338L6.1018 3.07672L4.79653 3.27672L5.86671 2.54005L4.6632 3.05338L5.49478 2.08338L4.47022 2.87338L5.01057 1.73005L4.23864 2.74672L4.44916 1.50672L3.97899 2.68005L3.84214 0.550049L3.70881 2.68005L3.23863 1.50672L3.44916 2.74672L2.67372 1.73005L3.21407 2.87338L2.19302 2.08338L3.0246 3.05338L1.82109 2.54005L2.89127 3.27672L1.586 3.07672L2.82109 3.52338L0.578979 3.65005L2.82109 3.78005L1.586 4.22672L2.89127 4.02672L1.82109 4.76005L3.0246 4.24672L2.19302 5.22005L3.21407 4.43005L2.67372 5.57338L3.44916 4.55672L3.23863 5.79671L3.70881 4.62338L3.84214 6.75005L3.97899 4.62338L4.44916 5.79671L4.23864 4.55672L5.01057 5.57338L4.47022 4.43005L5.49478 5.22005L4.6632 4.24672L5.86671 4.76005L4.79653 4.02672L6.1018 4.22672L4.86671 3.78005Z" fill="white"/>
</svg>
