<svg width="20" height="10" viewBox="0 0 20 10" fill="none" xmlns="http://www.w3.org/2000/svg">
<path d="M17 0H3C1.34315 0 0 1.34315 0 3V7C0 8.65685 1.34315 10 3 10H17C18.6569 10 20 8.65685 20 7V3C20 1.34315 18.6569 0 17 0Z" fill="#CE1126"/>
<path d="M10 0H3C1.34315 0 0 1.34315 0 3V5H10V0Z" fill="#002B7F"/>
<path d="M5.00011 0.208252L5.34344 1.26499L4.44458 0.61189H5.55563L4.65677 1.26499L5.00011 0.208252Z" fill="white"/>
<path d="M3.4723 1.45825L3.81566 2.51498L2.91675 1.86188H4.02786L3.12895 2.51498L3.4723 1.45825Z" fill="white"/>
<path d="M6.56258 1.25L6.88447 2.2407L6.04175 1.62841H7.08341L6.24069 2.2407L6.56258 1.25Z" fill="white"/>
<path d="M5.76397 2.53394L5.97857 3.19438L5.41675 2.7862H6.11119L5.54938 3.19438L5.76397 2.53394Z" fill="white"/>
<path d="M5.00014 3.4707L5.42935 4.79159L4.30566 3.97524H5.69461L4.57093 4.79159L5.00014 3.4707Z" fill="white"/>
</svg>
