<svg width="20" height="10" viewBox="0 0 20 10" fill="none" xmlns="http://www.w3.org/2000/svg">
<path d="M17 0H3C1.34315 0 0 1.34314 0 3V6.90157C0 8.55842 1.34315 9.90157 3 9.90157H17C18.6569 9.90157 20 8.55843 20 6.90157V3C20 1.34315 18.6569 0 17 0Z" fill="#0066B3"/>
<path d="M0.805664 9.00983C0.805664 9.00983 17.4999 1.08856 18.7273 0.689209C19.9999 1.58364 19.9999 2.57379 19.9998 3.06889C19.9998 3.3303 19.9998 5.24804 19.9998 7.00009C19.9998 8.65696 18.6596 9.99999 17.0027 9.99999C12.3371 9.99999 3.78687 9.99999 2.99982 9.99999C2.10289 9.99999 1.11148 9.50491 0.805664 9.00983Z" fill="#50B848"/>
<path d="M0.499974 8.5721L18 0.26942C18.4171 0.435016 18.6511 0.527115 19 0.892935L1.16156 9.35617C0.770603 9.03819 0.624021 8.86636 0.499974 8.5721Z" fill="#FFDD00"/>
<path d="M2.02557 1.23169L2.26975 1.82817H3.05113L2.41626 2.20594L2.66044 2.8223L2.02557 2.44453L1.39069 2.8223L1.63487 2.20594L1 1.82817H1.78138L2.02557 1.23169Z" fill="white"/>
<path d="M6.2011 1.23169L6.44528 1.82817H7.22667L6.59179 2.20594L6.83598 2.8223L6.2011 2.44453L5.56623 2.8223L5.81041 2.20594L5.17554 1.82817H5.95692L6.2011 1.23169Z" fill="white"/>
<path d="M6.2011 3.87598L6.44528 4.49234H7.22667L6.59179 4.87011L6.83598 5.46659L6.2011 5.08882L5.56623 5.46659L5.81041 4.87011L5.17554 4.49234H5.95692L6.2011 3.87598Z" fill="white"/>
<path d="M2.04998 3.87598L2.29416 4.47246H3.07554L2.44067 4.85023L2.68485 5.46659L2.04998 5.08882L1.41511 5.46659L1.65929 4.85023L1.02441 4.47246H1.8058L2.04998 3.87598Z" fill="white"/>
<path d="M4.10125 2.42456L4.34543 3.02104H5.12681L4.49194 3.39881L4.73612 4.01517L4.10125 3.6374L3.46637 4.01517L3.71056 3.39881L3.07568 3.02104H3.85707L4.10125 2.42456Z" fill="white"/>
</svg>
