<svg width="20" height="10" viewBox="0 0 20 10" fill="none" xmlns="http://www.w3.org/2000/svg">
<path d="M17 0H3C1.34315 0 0 1.34315 0 3V7C0 8.65685 1.34315 10 3 10H17C18.6569 10 20 8.65685 20 7V3C20 1.34315 18.6569 0 17 0Z" fill="#2D235B"/>
<path d="M1.18018 9.37973C6.778 6.29248 9.553 2.66114 16.0206 0C14.2716 2.17664 14.4808 6.90857 18.7714 9.37262C18.7714 9.57752 17.6742 9.9621 17.4496 9.9621C17.4496 9.9621 3.50006 9.98697 3.00003 9.99348C2.5 10 2 10 1.18018 9.37973Z" fill="#FFCB2D"/>
<path d="M18.9999 9.0022H0.999914C0.92283 9.15721 0.996216 9.25332 1.32991 9.50111H18.6899C18.8847 9.30773 18.9445 9.20443 18.9999 9.0022Z" fill="#2D235B"/>
<path d="M2.36206 1.27973H2.77284L2.90121 0.954346L3.02958 1.27973H3.44037L3.1066 1.47495L3.23497 1.80033L2.90121 1.6051L2.56745 1.80033L2.69582 1.47495L2.36206 1.27973Z" fill="white"/>
<path d="M0.71875 2.66815H1.12953L1.2579 2.34277L1.38627 2.66815H1.79706L1.46329 2.86338L1.59166 3.18876L1.2579 2.99353L0.924141 3.18876L1.05251 2.86338L0.71875 2.66815Z" fill="white"/>
<path d="M3.82544 2.32106H4.18487L4.28757 2.03906L4.39027 2.32106H4.7497L4.46729 2.49459L4.56998 2.77659L4.28757 2.60305L4.00516 2.77659L4.10785 2.49459L3.82544 2.32106Z" fill="white"/>
<path d="M2.31055 4.83727H2.77268L2.90105 4.46851L3.02942 4.83727H3.49155L3.13211 5.05419L3.26048 5.42295L2.90105 5.20603L2.54161 5.42295L2.66998 5.05419L2.31055 4.83727Z" fill="white"/>
</svg>
