<svg width="21" height="10" viewBox="0 0 21 10" fill="none" xmlns="http://www.w3.org/2000/svg">
<path d="M18.0005 0H4.00049C2.34363 0 1.00049 1.34315 1.00049 3V7C1.00049 8.65685 2.34363 10 4.00049 10H18.0005C19.6573 10 21.0005 8.65685 21.0005 7V3C21.0005 1.34315 19.6573 0 18.0005 0Z" fill="#66ABC3"/>
<path d="M11.319 0H4.00049C2.34363 0 1.00049 1.34315 1.00049 3V5.88535H11.319V0Z" fill="#2F338D"/>
<path d="M1.00038 5.88535H2.14687L5.30611 4.10191V5.88535H7.01312V4.10191L10.1469 5.91083H11.3189V5.24841L9.02586 3.92357H11.3189V1.98726H9.00038L11.3189 0.66242V0H10.1214L7.01312 1.78344V0H5.30611V1.78344L2.70971 0.293701C2.22907 0.534556 2.0256 0.715278 1.70547 1.06981L3.29337 1.98726H1.17038C0.988436 2.5761 0.983709 3.04724 1.00038 3.92357H3.29337L1.00038 5.24841V5.88535Z" fill="white"/>
<path d="M1.85229 0.911848L3.67559 1.93636H4.41444L2.1363 0.644287L1.85229 0.911848Z" fill="#E92926"/>
<path d="M7.87939 3.92358L11.3189 5.91084V5.45225L8.64373 3.92358H7.87939Z" fill="#E92926"/>
<path d="M7.85384 1.96178L11.3188 0H10.529L7.11499 1.96178H7.85384Z" fill="#E92926"/>
<path d="M4.43998 3.92358L1.00049 5.88537H1.71386L5.20431 3.92358H4.43998Z" fill="#E92926"/>
<path d="M6.63101 0H5.58643V5.91083H6.63101V0Z" fill="#E92926"/>
<path d="M11.3189 3.54145V2.34399H1.07808C0.999851 2.67163 0.990692 2.95135 1.00044 3.54145H11.3189Z" fill="#E92926"/>
<path d="M18.0003 5.3999L18.1878 6.03587H18.8337L18.3128 6.4306L18.5212 7.06657L18.0003 6.67183L17.4795 7.06657L17.6878 6.4306L17.167 6.03587H17.8128L18.0003 5.3999Z" fill="#FFD332"/>
<path d="M19.6671 4.3999L19.8754 5.03587H20.5004L19.9796 5.4306L20.1879 6.06657L19.6671 5.67183L19.1671 6.06657L19.3546 5.4306L18.8337 5.03587H19.4796L19.6671 4.3999Z" fill="#FFD332"/>
<path d="M19.4637 0.399902L19.6512 1.03587H20.297L19.7762 1.4306L19.9637 2.06657L19.4637 1.67183L18.9429 2.06657L19.1512 1.4306L18.6304 1.03587H19.2554L19.4637 0.399902Z" fill="#FFD332"/>
<path d="M13.0003 8.06665L13.2087 8.70262H13.8337L13.3128 9.09735L13.5212 9.73332L13.0003 9.33858L12.4795 9.73332L12.6878 9.09735L12.167 8.70262H12.8128L13.0003 8.06665Z" fill="#FFD332"/>
<path d="M15.1879 5.75533L14.9796 6.39129L15.5004 6.78603L14.8546 6.7641L14.6671 7.40007L14.4587 6.7641H13.8337L14.3546 6.36936L14.1462 5.7334L14.6671 6.15007L15.1879 5.75533Z" fill="#FFD332"/>
<path d="M17.184 7.06665L16.9941 7.70261L17.5004 8.09735H16.8675L16.6565 8.73332L16.4667 8.09735H15.8337L16.3401 7.70261L16.1502 7.06665L16.6776 7.46139L17.184 7.06665Z" fill="#FFD332"/>
<path d="M15.184 7.7334L14.9941 8.36936L15.5004 8.7641H14.8675L14.6565 9.40007L14.4667 8.7641H13.8337L14.3401 8.36936L14.1502 7.7334L14.6776 8.12814L15.184 7.7334Z" fill="#FFD332"/>
<path d="M17.1255 2.7334L16.8755 3.36936L17.5005 3.7641H16.7255L16.5005 4.40007L16.2755 3.74217H15.5005L16.1255 3.36936L15.9005 2.7334L16.5005 3.12814L17.1255 2.7334Z" fill="#FFD332"/>
<path d="M18.5212 2.08858L18.3128 2.72455L18.8337 3.11928L18.1878 3.09735L18.0003 3.73332L17.8128 3.09735H17.167L17.6878 2.70262L17.5003 2.06665L18.0003 2.46139L18.5212 2.08858Z" fill="#FFD332"/>
</svg>
