<svg width="20" height="10" viewBox="0 0 20 10" fill="none" xmlns="http://www.w3.org/2000/svg">
<path d="M16.9968 0H3C1.34315 0 0 1.34315 0 3V7.00006C0 8.65692 1.34315 10.0001 3 10.0001H16.9969C18.6537 10.0001 19.9969 8.65692 19.9969 7.00006V3C19.9969 1.34315 18.6537 0 16.9968 0Z" fill="black"/>
<path d="M19.9963 4.35962H9.98511V5.53755H19.9963V4.35962Z" fill="#FFDD00"/>
<path d="M0.895752 9.13538L8.85851 4.9485L0.9216 0.838989C1.34256 0.459027 1.60031 0.305254 2.11838 0.133301L11.3933 4.9485L2.04744 9.84156C1.49937 9.65034 1.25249 9.49239 0.895752 9.13538Z" fill="#FFDD00"/>
<path d="M16.9968 0C18.6536 0 19.9968 1.34314 19.9968 3V3.71172H10.394L3.21411 0H16.9968Z" fill="#ED1C24"/>
<path d="M16.9991 10.0001C18.656 10.0001 19.9991 8.65691 19.9991 7.00006V6.17773H10.4226L3.00854 10.0001H16.9991Z" fill="#0DB14B"/>
<path d="M3.07231 6.5875C3.07231 6.5875 3.94285 6.43385 4.19889 6.12657C4.40373 5.8961 4.81339 5.40957 4.63417 4.69256C4.45494 3.97556 4.04527 3.64267 3.66121 3.54024C3.30275 3.43781 2.81627 3.3866 2.4066 3.66828C1.97133 3.94996 1.84331 4.25724 1.81771 4.53892C1.7921 4.8206 1.81771 5.38396 2.15056 5.61442C2.48342 5.84489 2.63704 5.97292 3.0211 5.94732C3.40517 5.92171 3.6356 5.8705 3.81483 5.64003C3.99406 5.40957 4.07087 5.35835 4.09648 5.15349C4.12208 4.94864 4.12208 4.92303 4.12208 4.87181C4.12208 4.8206 4.27571 4.74378 4.27571 4.87181C4.27571 4.99985 4.32692 5.02546 4.2501 5.28153C4.17329 5.56321 4.09648 5.74246 3.91725 5.92171C3.73802 6.10096 3.40517 6.30582 2.9955 6.33143C2.58583 6.35703 2.15056 6.20339 1.7921 5.92171C1.48485 5.66564 1.25442 5.20471 1.28002 4.74378C1.28002 4.30846 1.43364 3.79631 1.81771 3.43781C2.22737 3.0537 2.63704 3.00249 2.84187 2.97688C3.07231 2.97688 3.61 2.92567 3.99406 3.13053C4.37812 3.33538 4.71098 3.59145 4.839 3.84753C4.99262 4.12921 5.14625 4.64135 5.12064 4.97424C5.12064 5.28153 5.04383 5.66564 4.91581 5.92171C4.76219 6.17778 4.53175 6.45946 4.30131 6.66432C4.07087 6.86918 3.53319 7.09964 3.0211 7.20207L3.07231 6.5875Z" fill="#FFF200"/>
<path d="M2.53442 5.48633C2.53442 5.48633 2.73928 5.33268 2.73928 5.25586C2.73928 5.15343 2.73928 5.07661 2.8161 5.07661C2.8161 5.07661 2.76489 4.92297 2.86732 4.87176C2.86732 4.87176 2.86732 4.74372 3.02096 4.71811C3.02096 4.71811 3.04657 4.56447 3.1746 4.53886C3.1746 4.53886 3.1746 4.38522 3.30264 4.35961C3.30264 4.35961 3.37946 4.18036 3.5331 4.15475C3.5331 4.15475 3.58432 4.05232 3.73796 4.05232C3.73796 4.05232 3.78918 3.92429 3.89161 3.89868C3.89161 3.89868 3.99403 3.89868 3.96843 3.9499C3.96843 3.9499 4.01964 4.12915 3.89161 4.15475C3.89161 4.15475 3.94282 4.3084 3.73796 4.334C3.73796 4.334 3.81478 4.51325 3.58432 4.53886C3.58432 4.53886 3.66114 4.79493 3.37946 4.82054C3.37946 4.82054 3.40507 5.10222 3.149 5.10222C3.149 5.10222 3.1746 5.25586 2.99535 5.28147C2.99535 5.28147 2.94414 5.43511 2.8161 5.3839C2.8161 5.3839 2.66246 5.48633 2.61125 5.53754L2.53442 5.48633Z" fill="#FFF200"/>
<path d="M3.78832 5.46069C3.78832 5.46069 3.63468 5.46069 3.60907 5.40947C3.60907 5.40947 3.48104 5.40947 3.48104 5.28144C3.48104 5.12779 3.48104 5.23022 3.48104 5.23022C3.48104 5.23022 3.40421 5.35826 3.32739 5.20461C3.32739 5.20461 3.53225 5.1534 3.50664 4.99976C3.50664 4.99976 3.68589 4.99976 3.68589 5.12779C3.68589 5.12779 3.81393 5.20461 3.7115 5.28144C3.7115 5.28144 3.81393 5.30704 3.81393 5.43508L3.78832 5.46069Z" fill="#FFF200"/>
<path d="M2.8161 4.64128C2.8161 4.64128 2.61124 4.64128 2.61124 4.46203C2.61124 4.46203 2.43199 4.46203 2.4576 4.30838C2.4576 4.30838 2.32956 4.25717 2.38078 4.10352C2.38078 4.10352 2.30396 4.12913 2.30396 4.0011C2.30396 3.87306 2.43199 3.94988 2.4576 3.97549C2.4576 3.97549 2.58563 3.89867 2.61124 4.05231C2.61124 4.05231 2.73928 4.0267 2.76488 4.15474C2.76488 4.15474 2.91853 4.15474 2.91853 4.30838C2.91853 4.30838 3.09778 4.25717 3.07217 4.43642C3.07217 4.43642 2.84171 4.48763 2.8161 4.64128Z" fill="#FFF200"/>
</svg>
