<svg width="20" height="10" viewBox="0 0 20 10" fill="none" xmlns="http://www.w3.org/2000/svg">
<path d="M0 3C0 1.34315 1.34315 0 3 0H17C18.6569 0 20 1.34315 20 3V7C20 8.65685 18.6569 10 17 10H3C1.34315 10 0 8.65685 0 7V3Z" fill="white"/>
<path d="M6.70931 0H3C1.34315 0 0 1.34315 0 3V6.99995C0 8.65681 1.34314 9.99995 3 9.99995H6.70931V0Z" fill="#0061AF"/>
<path d="M17.0003 0H13.291V9.99995H17.0003C18.6572 9.99995 20.0003 8.6568 20.0003 6.99995V3C20.0003 1.34315 18.6572 0 17.0003 0Z" fill="#ED1C24"/>
</svg>
