<svg width="16" height="16" viewBox="0 0 16 16" fill="none" xmlns="http://www.w3.org/2000/svg">
<path d="M13.9203 0C13.494 0 13.1472 0.346801 13.1472 0.773192C13.1472 0.900267 13.1782 1.02014 13.2327 1.1261L11.3923 2.96655H5.44429C5.31355 2.96655 5.20759 3.0725 5.20759 3.20324C5.20759 3.33386 5.31355 3.43981 5.44429 3.43981H10.9189L9.909 4.4497H2.90413L2.03426 3.43981H4.3398C4.47054 3.43981 4.57649 3.33386 4.57649 3.20324C4.57649 3.0725 4.47054 2.96655 4.3398 2.96655H1.5179C1.42538 2.96655 1.34139 3.02038 1.30282 3.10461C1.26424 3.18871 1.27816 3.28759 1.33858 3.35766L6.77241 9.66575V10.7949C6.77241 10.9255 6.87837 11.0316 7.0091 11.0316C7.13972 11.0316 7.2458 10.9255 7.2458 10.7949V9.81456H7.84528V13.9234C7.84528 14.2527 8.02778 14.5494 8.32172 14.698L9.961 15.5266H5.1302L6.76948 14.698C7.06318 14.5494 7.2458 14.2527 7.2458 13.9234V11.8955C7.2458 11.7647 7.13984 11.6588 7.0091 11.6588C6.87837 11.6588 6.77241 11.7647 6.77241 11.8955V13.9234C6.77241 14.0731 6.6894 14.208 6.55586 14.2755L4.03047 15.5521C3.93269 15.6015 3.88167 15.7116 3.90706 15.8182C3.93245 15.9248 4.02767 16 4.13728 16H10.9538C11.0634 16 11.1586 15.9248 11.184 15.8182C11.2095 15.7116 11.1584 15.6015 11.0606 15.5521L8.53522 14.2755C8.40168 14.208 8.31867 14.0731 8.31867 13.9234V9.66575L10.2744 7.39549C10.3597 7.29637 10.3486 7.14696 10.2495 7.06163C10.1505 6.97643 10.001 6.98753 9.91572 7.08653L7.97358 9.34117H7.1175L3.31185 4.92309H9.43561L8.81757 5.54113C8.5362 5.32689 8.20185 5.20714 7.87202 5.20714C7.54597 5.20714 7.24787 5.32567 7.03254 5.541C6.58271 5.99071 6.59614 6.75218 7.03279 7.32591L6.42353 7.93516C6.33967 8.01903 6.33149 8.15684 6.40547 8.24974C6.49238 8.35875 6.65962 8.36851 6.75825 8.26988L7.36738 7.66075C7.64875 7.87498 7.9831 7.99486 8.31306 7.99486C8.63898 7.99486 8.93708 7.8762 9.15241 7.66087C9.60224 7.21117 9.58881 6.44982 9.15229 5.87597L10.1052 4.92309H11.7792L10.6483 6.23607C10.5706 6.32616 10.5731 6.46446 10.6541 6.5515C10.749 6.65343 10.9161 6.6505 11.0069 6.54503L13.7525 3.35766C13.8129 3.28747 13.8268 3.18859 13.7883 3.10449C13.7497 3.02038 13.6657 2.96642 13.5732 2.96642H12.0617L13.5674 1.46081C13.6733 1.51538 13.7931 1.54638 13.9203 1.54638C14.3466 1.54638 14.6934 1.19946 14.6934 0.773192C14.6934 0.346801 14.3466 0 13.9203 0V0ZM8.81782 7.32616C8.65632 7.48753 8.45417 7.52147 8.31306 7.52147C8.0351 7.52147 7.74787 7.39378 7.52473 7.17125C7.52436 7.17088 7.524 7.1704 7.52351 7.16991C7.52314 7.16954 7.52265 7.16905 7.52217 7.16869C7.12348 6.76879 7.05378 6.1892 7.36726 5.87572C7.52864 5.71434 7.73078 5.68041 7.8719 5.68041C8.15034 5.68041 8.43818 5.80858 8.66145 6.03197C9.06147 6.43187 9.13154 7.01244 8.81782 7.32616ZM13.0569 3.43981L12.187 4.4497H10.5786L11.5884 3.43981H13.0569ZM13.9203 1.073C13.7549 1.073 13.6204 0.938475 13.6204 0.773192C13.6204 0.607787 13.7549 0.473388 13.9203 0.473388C14.0856 0.473388 14.2201 0.607787 14.2201 0.773192C14.2201 0.938475 14.0856 1.073 13.9203 1.073Z" fill="white"/>
</svg>
