<svg width="14" height="14" viewBox="0 0 14 14" fill="none" xmlns="http://www.w3.org/2000/svg">
<path d="M13.7644 9.38987C13.6075 9.23286 13.4167 9.1543 13.1924 9.1543H9.28843L8.14422 10.2985C7.81888 10.6125 7.43749 10.7696 7 10.7696C6.56259 10.7696 6.18109 10.6127 5.85578 10.2985L4.71997 9.1543H0.807682C0.583365 9.1543 0.392672 9.23295 0.235574 9.38987C0.078505 9.54688 0 9.7376 0 9.96207V12.6543C0 12.8787 0.078505 13.0694 0.235574 13.2264C0.392643 13.3834 0.583336 13.4619 0.807682 13.4619H13.1924C13.4167 13.4619 13.6075 13.3834 13.7644 13.2264C13.9216 13.0694 14 12.8787 14 12.6543V9.96207C14 9.7376 13.9216 9.54688 13.7644 9.38987ZM10.6095 12.2252C10.5028 12.3318 10.3766 12.385 10.2307 12.385C10.0849 12.385 9.95882 12.3318 9.85214 12.2252C9.74564 12.1186 9.69239 11.9924 9.69239 11.8467C9.69239 11.7009 9.74564 11.5745 9.85214 11.4681C9.95882 11.3614 10.0849 11.3081 10.2307 11.3081C10.3766 11.3081 10.5028 11.3614 10.6095 11.4681C10.716 11.5745 10.7693 11.7009 10.7693 11.8467C10.7693 11.9924 10.716 12.1186 10.6095 12.2252ZM12.7632 12.2252C12.6567 12.3318 12.5305 12.385 12.3846 12.385C12.2388 12.385 12.1126 12.3318 12.006 12.2252C11.8995 12.1186 11.8463 11.9924 11.8463 11.8467C11.8463 11.7009 11.8995 11.5745 12.006 11.4681C12.1126 11.3614 12.2388 11.3081 12.3846 11.3081C12.5304 11.3081 12.6567 11.3614 12.7632 11.4681C12.8698 11.5745 12.9232 11.7009 12.9232 11.8467C12.9232 11.9924 12.8699 12.1186 12.7632 12.2252Z" fill="#001E73"/>
<path d="M6.62137 9.53275C6.72239 9.63922 6.84857 9.6925 6.99996 9.6925C7.15145 9.6925 7.27749 9.63922 7.37854 9.53275L11.1478 5.76344C11.3216 5.6008 11.361 5.40445 11.2656 5.17448C11.1704 4.95579 11.0049 4.84643 10.7692 4.84631H8.61532V1.07706C8.61532 0.931248 8.56195 0.805032 8.45557 0.698473C8.34889 0.591883 8.22274 0.538574 8.07698 0.538574H5.92293C5.77717 0.538574 5.65096 0.591883 5.54434 0.698473C5.43781 0.805032 5.3845 0.931218 5.3845 1.07706V4.84634H3.23065C2.99496 4.84634 2.82958 4.95582 2.73422 5.17451C2.63892 5.40439 2.67814 5.60083 2.85207 5.76347L6.62137 9.53275Z" fill="#001E73"/>
</svg>
