<svg width="22" height="22" viewBox="0 0 22 22" fill="none" xmlns="http://www.w3.org/2000/svg">
<path d="M21.6298 14.7554C21.3832 14.5087 21.0833 14.3853 20.7309 14.3853H14.5961L12.7981 16.1833C12.2868 16.6768 11.6875 16.9236 11 16.9236C10.3126 16.9236 9.71314 16.6771 9.20195 16.1833L7.41709 14.3853H1.26921C0.916717 14.3853 0.617057 14.5089 0.370188 14.7554C0.123365 15.0022 0 15.3019 0 15.6546V19.8852C0 20.2378 0.123365 20.5375 0.370188 20.7843C0.61701 21.031 0.916671 21.1543 1.26921 21.1543H20.731C21.0834 21.1543 21.3833 21.031 21.6298 20.7843C21.8767 20.5375 22 20.2378 22 19.8852V15.6546C22 15.3019 21.8767 15.0022 21.6298 14.7554ZM16.6721 19.2109C16.5044 19.3784 16.306 19.4621 16.0769 19.4621C15.8477 19.4621 15.6496 19.3784 15.4819 19.2109C15.3146 19.0435 15.2309 18.8452 15.2309 18.6162C15.2309 18.387 15.3146 18.1885 15.4819 18.0212C15.6496 17.8536 15.8477 17.7697 16.0769 17.7697C16.306 17.7697 16.5044 17.8536 16.6721 18.0212C16.8394 18.1884 16.9231 18.387 16.9231 18.6162C16.9231 18.8452 16.8394 19.0435 16.6721 19.2109ZM20.0565 19.2109C19.8891 19.3784 19.6908 19.4621 19.4615 19.4621C19.2324 19.4621 19.0341 19.3784 18.8666 19.2109C18.6993 19.0435 18.6156 18.8452 18.6156 18.6162C18.6156 18.387 18.6993 18.1885 18.8666 18.0212C19.0341 17.8536 19.2323 17.7697 19.4615 17.7697C19.6907 17.7697 19.8891 17.8536 20.0565 18.0212C20.224 18.1884 20.3078 18.387 20.3078 18.6162C20.3078 18.8452 20.2241 19.0435 20.0565 19.2109Z" fill="#001E73"/>
<path d="M10.4067 14.9799C10.5654 15.1472 10.7637 15.2309 11.0016 15.2309C11.2397 15.2309 11.4377 15.1472 11.5965 14.9799L17.5197 9.0567C17.7928 8.80112 17.8547 8.49257 17.7048 8.13118C17.5552 7.78753 17.2951 7.61568 16.9247 7.61549H13.54V1.69238C13.54 1.46325 13.4562 1.26491 13.289 1.09746C13.1214 0.929963 12.9231 0.846191 12.6941 0.846191H9.30913C9.08009 0.846191 8.88175 0.929963 8.71421 1.09746C8.54681 1.26491 8.46304 1.4632 8.46304 1.69238V7.61554H5.07842C4.70804 7.61554 4.44816 7.78757 4.29831 8.13123C4.14855 8.49248 4.21018 8.80117 4.4835 9.05675L10.4067 14.9799Z" fill="#001E73"/>
</svg>
