<svg width="19" height="16" viewBox="0 0 19 16" fill="none" xmlns="http://www.w3.org/2000/svg">
<path d="M5.15391 1.88498H0.676375C0.306599 1.88498 0.00683594 1.58521 0.00683594 1.21544C0.00683594 0.845661 0.306599 0.545898 0.676374 0.545898H11.1798C11.5495 0.545898 11.8493 0.845661 11.8493 1.21544C11.8493 1.58521 11.5495 1.88498 11.1798 1.88498H6.70222V14.4179C6.70222 14.8455 6.35562 15.1921 5.92807 15.1921C5.50051 15.1921 5.15391 14.8455 5.15391 14.4179V1.88498Z" fill="white"/>
<path fill-rule="evenodd" clip-rule="evenodd" d="M15.2371 0.345316C15.4925 0.0899731 15.9065 0.0899727 16.1618 0.345316L18.3149 2.49836C18.5702 2.7537 18.5702 3.1677 18.3149 3.42304C18.0595 3.67838 17.6455 3.67838 17.3902 3.42304L16.3533 2.38618V13.6137L17.3902 12.5769C17.6455 12.3215 18.0595 12.3215 18.3149 12.5769C18.5702 12.8322 18.5702 13.2462 18.3149 13.5016L16.1618 15.6546C15.9065 15.91 15.4925 15.91 15.2371 15.6546L13.0841 13.5016C12.8287 13.2462 12.8287 12.8322 13.0841 12.5769C13.3394 12.3215 13.7534 12.3215 14.0088 12.5769L15.0456 13.6137V2.38618L14.0088 3.42304C13.7534 3.67838 13.3394 3.67838 13.0841 3.42304C12.8287 3.1677 12.8287 2.7537 13.0841 2.49836L15.2371 0.345316Z" fill="white"/>
</svg>
