<svg width="12" height="12" viewBox="0 0 12 12" fill="none" xmlns="http://www.w3.org/2000/svg">
<path d="M9.94922 2.09326C9.81984 2.09326 9.71484 2.19826 9.71484 2.32764C9.71484 2.45701 9.81984 2.56201 9.94922 2.56201C10.0786 2.56201 10.1836 2.45701 10.1836 2.32764C10.1836 2.19824 10.0786 2.09326 9.94922 2.09326Z" fill="white"/>
<path d="M11.167 1.85723C10.6076 1.22857 9.83182 0.882348 8.98242 0.882348C8.05362 0.882348 7.20607 1.24237 6.53147 1.92351C6.29688 2.16035 6.12155 2.39697 6 2.58475C5.87845 2.397 5.70312 2.16039 5.46853 1.92351C4.79393 1.24235 3.94641 0.882324 3.01758 0.882324C1.2397 0.882324 0 2.36969 0 4.13805C0 6.52675 2.53134 8.53804 5.84651 11.4111C5.89055 11.4493 5.94527 11.4683 6 11.4683C6.05473 11.4683 6.10945 11.4493 6.15349 11.4111C9.47655 8.53118 12 6.52343 12 4.13805C12 3.27098 11.7042 2.46098 11.167 1.85723ZM6 10.9239C2.86948 8.21493 0.46875 6.26925 0.46875 4.13805C0.46875 2.54922 1.5645 1.3511 3.01758 1.3511C3.82439 1.3511 4.53307 1.65077 5.12393 2.24175C5.57407 2.69198 5.78409 3.15147 5.78616 3.15607C5.82387 3.24014 5.90747 3.29414 5.99965 3.29432C5.99979 3.29432 5.99995 3.29432 6.00009 3.29432C6.09225 3.29432 6.17597 3.24011 6.21387 3.15607C6.21593 3.15147 6.42595 2.692 6.87609 2.24175C7.46693 1.65075 8.17561 1.3511 8.98245 1.3511C10.4355 1.3511 11.5313 2.54922 11.5313 4.13805C11.5312 6.31736 8.97211 8.35202 6 10.9239Z" fill="white"/>
<path d="M10.7702 2.9283C10.7101 2.81365 10.5684 2.76949 10.4538 2.82959C10.3392 2.8897 10.295 3.03136 10.3551 3.14599C10.5098 3.441 10.595 3.79331 10.595 4.13803C10.595 4.81527 10.2727 5.53408 9.58059 6.40014C9.49977 6.50125 9.51625 6.64874 9.61736 6.72955C9.71913 6.81088 9.86648 6.79325 9.94678 6.69278C10.7088 5.73915 11.0638 4.92735 11.0638 4.13803C11.0638 3.71278 10.9623 3.29447 10.7702 2.9283Z" fill="white"/>
<path d="M8.25 5.37451H6.9375V4.06201C6.9375 3.93257 6.83257 3.82764 6.70312 3.82764H5.29688C5.16743 3.82764 5.0625 3.93257 5.0625 4.06201V5.37451H3.75C3.62055 5.37451 3.51562 5.47944 3.51562 5.60889V7.01514C3.51562 7.14458 3.62055 7.24951 3.75 7.24951H5.0625V8.56201C5.0625 8.69146 5.16743 8.79639 5.29688 8.79639H6.70312C6.83257 8.79639 6.9375 8.69146 6.9375 8.56201V7.24951H8.25C8.37945 7.24951 8.48438 7.14458 8.48438 7.01514V5.60889C8.48438 5.47944 8.37945 5.37451 8.25 5.37451ZM8.01562 6.78074H6.70312C6.57368 6.78074 6.46875 6.88567 6.46875 7.01511V8.32761H5.53125V7.01511C5.53125 6.88567 5.42632 6.78074 5.29688 6.78074H3.98438V5.84324H5.29688C5.42632 5.84324 5.53125 5.73831 5.53125 5.60886V4.29636H6.46875V5.60886C6.46875 5.73831 6.57368 5.84324 6.70312 5.84324H8.01562V6.78074Z" fill="white"/>
</svg>
