<svg width="10" height="10" viewBox="0 0 10 10" fill="none" xmlns="http://www.w3.org/2000/svg">
<path d="M9.98628 3.56907C9.95344 3.46959 9.86724 3.39854 9.76256 3.3823L6.64284 2.94378L5.23896 0.152264C5.19175 0.0588755 5.09529 0 4.99061 0C4.88594 0 4.78947 0.0588755 4.74227 0.154294L3.35686 2.95393L0.237139 3.41275C0.132464 3.42899 0.0462609 3.50005 0.0134217 3.59953C-0.0194175 3.69901 0.00931679 3.80864 0.0852575 3.87969L2.34911 6.04997L1.82574 9.12367C1.80726 9.22721 1.85037 9.33075 1.93657 9.39166C1.98377 9.42617 2.04124 9.44444 2.09871 9.44444C2.14387 9.44444 2.18697 9.43429 2.22802 9.41196L5.01319 7.95225L7.80658 9.39572C7.84763 9.41602 7.89073 9.42617 7.93383 9.42617C8.08571 9.42617 8.21091 9.30233 8.21091 9.1521C8.21091 9.12976 8.20886 9.10946 8.2027 9.08916L7.66291 6.03373L9.91239 3.85127C9.99244 3.77818 10.0191 3.66855 9.98628 3.56907Z" fill="#2E6246"/>
</svg>
