<svg width="20" height="22" viewBox="0 0 20 22" fill="none" xmlns="http://www.w3.org/2000/svg">
<path d="M9.92144 11.8125C9.94373 11.8125 9.96601 11.8125 9.99275 11.8125C10.0017 11.8125 10.0106 11.8125 10.0195 11.8125C10.0329 11.8125 10.0507 11.8125 10.0641 11.8125C11.37 11.7908 12.4263 11.3446 13.2063 10.491C14.9223 8.61058 14.637 5.38697 14.6058 5.07935C14.4944 2.76996 13.3712 1.6651 12.4441 1.1495C11.7533 0.76388 10.9466 0.555905 10.0462 0.538574H10.015C10.0106 0.538574 10.0017 0.538574 9.99721 0.538574H9.97047C9.47573 0.538574 8.50409 0.616565 7.57256 1.13217C6.63657 1.64777 5.49556 2.75263 5.38413 5.07935C5.35293 5.38697 5.06768 8.61058 6.78366 10.491C7.55919 11.3446 8.61552 11.7908 9.92144 11.8125ZM6.57417 5.18767C6.57417 5.17467 6.57863 5.16167 6.57863 5.153C6.72571 2.04639 8.99437 1.71276 9.96601 1.71276H9.98384C9.99275 1.71276 10.0061 1.71276 10.0195 1.71276C11.2229 1.73876 13.2687 2.21537 13.4069 5.153C13.4069 5.166 13.4069 5.179 13.4113 5.18767C13.4158 5.218 13.7278 8.1643 12.3104 9.71544C11.7488 10.3307 11.0001 10.634 10.015 10.6427C10.0061 10.6427 10.0017 10.6427 9.99275 10.6427C9.98384 10.6427 9.97938 10.6427 9.97047 10.6427C8.98991 10.634 8.23666 10.3307 7.67953 9.71544C6.26663 8.17296 6.56972 5.21366 6.57417 5.18767Z" fill="white" stroke="white" stroke-width="0.2"/>
<path d="M19.1521 17.1593C19.1521 17.155 19.1521 17.1507 19.1521 17.1463C19.1521 17.1117 19.1477 17.077 19.1477 17.038C19.1209 16.1801 19.063 14.174 17.1286 13.5328C17.1153 13.5284 17.0974 13.5241 17.0841 13.5198C15.0739 13.0215 13.4025 11.895 13.3847 11.882C13.1128 11.6957 12.7384 11.7607 12.5468 12.025C12.3551 12.2893 12.422 12.6532 12.6938 12.8395C12.7696 12.8915 14.5435 14.0917 16.7632 14.6463C17.8017 15.0059 17.9175 16.0848 17.9487 17.0727C17.9487 17.1117 17.9487 17.1463 17.9532 17.181C17.9576 17.5709 17.9309 18.1732 17.8596 18.5198C17.1375 18.9184 14.3073 20.2963 10.0018 20.2963C5.71405 20.2963 2.86597 18.9141 2.13947 18.5155C2.06816 18.1689 2.03696 17.5666 2.04587 17.1767C2.04587 17.142 2.05033 17.1073 2.05033 17.0683C2.08153 16.0805 2.19741 15.0016 3.23591 14.642C5.45554 14.0874 7.22946 12.8829 7.30523 12.8352C7.57711 12.6489 7.64396 12.2849 7.45231 12.0206C7.26066 11.7563 6.88626 11.6913 6.61438 11.8776C6.59655 11.8906 4.93406 13.0172 2.915 13.5154C2.89717 13.5198 2.8838 13.5241 2.87043 13.5284C0.936058 14.174 0.878116 16.1801 0.851373 17.0337C0.851373 17.0727 0.851373 17.1073 0.846916 17.142C0.846916 17.1463 0.846916 17.1507 0.846916 17.155C0.842459 17.3803 0.838002 18.5372 1.07423 19.1178C1.1188 19.2304 1.19903 19.3257 1.306 19.3907C1.43971 19.4774 4.64435 21.4618 10.0062 21.4618C15.3681 21.4618 18.5727 19.473 18.7064 19.3907C18.809 19.3257 18.8936 19.2304 18.9382 19.1178C19.1611 18.5415 19.1566 17.3846 19.1521 17.1593Z" fill="white" stroke="white" stroke-width="0.2"/>
</svg>
