<svg width="22" height="24" viewBox="0 0 22 24" fill="none" xmlns="http://www.w3.org/2000/svg">
<path fill-rule="evenodd" clip-rule="evenodd" d="M10.9996 0.230957C9.60511 0.230957 8.47468 1.36916 8.47468 2.7732C8.47468 3.93551 9.24936 4.91563 10.3072 5.21868L10.3072 9.55471C9.9014 9.67096 9.53727 9.88686 9.24255 10.1744L5.5128 8.00626C5.78136 6.93217 5.3257 5.7663 4.32582 5.18505C3.11819 4.48302 1.574 4.89963 0.876777 6.11557C0.179552 7.33151 0.593316 8.88632 1.80094 9.58834C2.80065 10.1695 4.031 9.98405 4.82058 9.21316L8.55005 11.3812C8.50082 11.5793 8.47468 11.7867 8.47468 12.0002C8.47468 12.2138 8.50085 12.4213 8.55013 12.6195L4.82089 14.7874C4.03133 14.0163 2.80084 13.8308 1.80105 14.412C0.593416 15.114 0.179652 16.6688 0.876877 17.8848C1.5741 19.1007 3.11829 19.5173 4.32592 18.8153C5.32571 18.2341 5.78138 17.0684 5.51297 15.9944L9.24277 13.8261C9.53745 14.1136 9.9015 14.3294 10.3072 14.4457V18.7817C9.24936 19.0847 8.47468 20.0649 8.47468 21.2272C8.47468 22.6312 9.60511 23.7694 10.9996 23.7694C12.394 23.7694 13.5244 22.6312 13.5244 21.2272C13.5244 20.0647 12.7495 19.0844 11.6914 18.7815V14.4458C12.0972 14.3297 12.4614 14.1138 12.7562 13.8263L16.4862 15.9947C16.2179 17.0686 16.6736 18.2342 17.6733 18.8153C18.881 19.5173 20.4251 19.1007 21.1224 17.8848C21.8196 16.6689 21.4058 15.1141 20.1982 14.412C19.1983 13.8308 17.9677 14.0164 17.1782 14.7876L13.4489 12.6197C13.4982 12.4214 13.5244 12.2139 13.5244 12.0002C13.5244 11.7866 13.4983 11.5792 13.449 11.381L17.1784 9.21297C17.968 9.98405 19.1985 10.1696 20.1983 9.58837C21.4059 8.88635 21.8197 7.33154 21.1225 6.1156C20.4252 4.89966 18.8811 4.48305 17.6734 5.18508C16.6736 5.76627 16.218 6.93197 16.4864 8.00598L12.7564 10.1743C12.4616 9.88665 12.0973 9.67075 11.6914 9.55456V5.21883C12.7495 4.91597 13.5244 3.93571 13.5244 2.7732C13.5244 1.36916 12.394 0.230957 10.9996 0.230957ZM9.85885 2.7732C9.85885 2.13887 10.3696 1.62465 10.9996 1.62465C11.6296 1.62465 12.1403 2.13887 12.1403 2.7732C12.1403 3.40753 11.6296 3.92175 10.9996 3.92175C10.3696 3.92175 9.85885 3.40753 9.85885 2.7732ZM9.85885 21.2272C9.85885 20.5928 10.3696 20.0786 10.9996 20.0786C11.6296 20.0786 12.1403 20.5928 12.1403 21.2272C12.1403 21.8615 11.6296 22.3757 10.9996 22.3757C10.3696 22.3757 9.85885 21.8615 9.85885 21.2272ZM19.9237 6.81245C19.6087 6.2631 18.9111 6.07488 18.3655 6.39205C17.8199 6.70921 17.633 7.41166 17.948 7.961C18.263 8.51035 18.9606 8.69856 19.5062 8.3814C20.0518 8.06424 20.2387 7.36179 19.9237 6.81245ZM2.49313 15.619C3.03872 15.3018 3.73637 15.49 4.05136 16.0394C4.36636 16.5887 4.17943 17.2912 3.63383 17.6083C3.08824 17.9255 2.3906 17.7373 2.0756 17.1879C1.76061 16.6386 1.94754 15.9361 2.49313 15.619ZM19.9236 17.188C20.2386 16.6386 20.0517 15.9362 19.5061 15.619C18.9605 15.3018 18.2629 15.4901 17.9479 16.0394C17.6329 16.5887 17.8198 17.2912 18.3654 17.6084C18.911 17.9255 19.6087 17.7373 19.9236 17.188ZM3.63373 6.39202C4.17933 6.70918 4.36626 7.41163 4.05126 7.96097C3.73626 8.51031 3.03862 8.69853 2.49303 8.38137C1.94744 8.06421 1.76051 7.36176 2.0755 6.81242C2.3905 6.26307 3.08814 6.07485 3.63373 6.39202ZM10.9996 10.8516C10.3696 10.8516 9.85885 11.3659 9.85885 12.0002C9.85885 12.6345 10.3696 13.1487 10.9996 13.1487C11.6296 13.1487 12.1403 12.6345 12.1403 12.0002C12.1403 11.3659 11.6296 10.8516 10.9996 10.8516Z" fill="white"/>
</svg>
