<svg width="14" height="15" viewBox="0 0 14 15" fill="none" xmlns="http://www.w3.org/2000/svg">
<path fill-rule="evenodd" clip-rule="evenodd" d="M13.3197 12.8511L10.0061 9.53746C10.8798 8.52606 11.409 7.20363 11.409 5.75647C11.409 2.57726 8.85503 0 5.70451 0C2.554 0 0 2.57726 0 5.75647C0 8.93569 2.554 11.5129 5.70451 11.5129C6.89519 11.5129 8.00067 11.1448 8.91528 10.5152L12.2855 13.8854C12.5711 14.171 13.0341 14.171 13.3197 13.8854C13.6054 13.5998 13.6054 13.1367 13.3197 12.8511ZM9.94623 5.75625C9.94623 8.12028 8.0471 10.0367 5.70442 10.0367C3.36173 10.0367 1.4626 8.12028 1.4626 5.75625C1.4626 3.39222 3.36173 1.4758 5.70442 1.4758C8.0471 1.4758 9.94623 3.39222 9.94623 5.75625Z" fill="white"/>
</svg>
