<svg width="16" height="16" viewBox="0 0 16 16" fill="none" xmlns="http://www.w3.org/2000/svg">
<g clip-path="url(#clip0)">
<path d="M1.44714 4.04102H0.316162C0.141602 4.04102 0 4.1825 0 4.35706V14.8566C0 15.0313 0.141602 15.1727 0.316162 15.1727H8.40784C8.5824 15.1727 8.724 15.0313 8.724 14.8566V4.35706C8.724 4.1825 8.5824 4.04102 8.40784 4.04102H4.64771V3.28894C4.64771 3.11426 4.5061 2.97278 4.33154 2.97278H3.36353V1.15991C3.36353 0.985352 3.22205 0.84375 3.04736 0.84375H1.76331C1.58862 0.84375 1.44714 0.985352 1.44714 1.15991V4.04102ZM6.5835 6.72827H5.93176V4.67322H6.5835V6.72827ZM5.29944 4.67322V6.72827H4.64771V4.67322H5.29944ZM3.36353 6.72827V5.72583H4.01538V6.72827H3.36353ZM2.07947 3.6051H2.73132V6.72827H2.07947V3.6051ZM4.01538 5.09351H3.36353V3.6051H4.01538V5.09351ZM2.07947 1.47607H2.73132V2.97278H2.07947V1.47607ZM6.89966 7.3606H6.90015C7.07471 7.3606 7.21631 7.219 7.21631 7.04443V4.67322H8.09168V14.5404H0.632324V4.67322H1.44714V7.04443C1.44714 7.219 1.58862 7.3606 1.76331 7.3606H6.89966Z" fill="white"/>
<path d="M4.32983 8.83606C3.099 8.83606 2.09766 9.8374 2.09766 11.0681C2.09766 12.2989 3.099 13.3003 4.32983 13.3003C5.56055 13.3003 6.56189 12.2989 6.56189 11.0681C6.56189 9.8374 5.56055 8.83606 4.32983 8.83606ZM4.32983 12.668C3.55591 12.668 2.90869 12.1155 2.76147 11.3843H3.68774C4.09363 11.3843 4.09424 10.7519 3.68774 10.7519H2.76147C2.90869 10.0207 3.55591 9.46838 4.32983 9.46838C5.21191 9.46838 5.92957 10.186 5.92957 11.0681C5.92957 11.9503 5.21191 12.668 4.32983 12.668Z" fill="white"/>
<path d="M15.9834 7.81528C15.9555 7.73618 15.8972 7.67148 15.8215 7.63535L14.4248 6.96872C14.2673 6.89353 14.0785 6.96018 14.0033 7.11777L12.6653 9.92075H12.2959C12.3468 9.85666 12.392 9.78867 12.4313 9.71653C12.7686 9.09775 12.5532 8.3906 12.4824 8.1583C12.2655 7.44565 11.34 6.29429 11.3307 6.28293C11.2046 6.12876 10.9636 6.12998 10.8391 6.28562C10.5065 6.70115 10.2167 7.14719 9.96301 7.61484C9.72376 8.05588 9.59595 8.44394 9.56079 8.83579C9.52454 9.24021 9.64758 9.61826 9.89197 9.92063H9.55835C9.38367 9.92063 9.24219 10.0622 9.24219 10.2368V14.8824C9.24219 15.0571 9.38367 15.1986 9.55835 15.1986H12.8644C13.0389 15.1986 13.1804 15.0571 13.1804 14.8824V14.0187C13.1804 13.6128 12.5482 13.6122 12.5482 14.0187V14.5664H9.87439V10.553H12.5482V11.4535C12.5482 11.8595 13.1804 11.86 13.1804 11.4535V10.7387L14.1248 11.1895C14.281 11.2641 14.4721 11.1958 14.5463 11.0404L15.9706 8.05686C16.0067 7.98118 16.0114 7.89426 15.9834 7.81528ZM11.311 9.76828C11.2157 9.94346 10.9522 9.95493 10.8533 9.7728C10.7897 9.65586 10.8483 9.46323 10.8704 9.39084C10.8995 9.29465 10.9868 9.14609 11.0844 9.0001C11.182 9.14609 11.2693 9.29465 11.2985 9.39084C11.3179 9.45432 11.3767 9.64743 11.311 9.76828ZM10.1907 8.89231C10.2178 8.58921 10.3221 8.27903 10.5188 7.91623C10.6884 7.60373 10.8834 7.29758 11.0873 7.00608C11.3676 7.38865 11.7667 7.97849 11.8776 8.34238C11.9241 8.49497 12.0558 8.92807 11.9286 9.29441C11.8298 8.91587 11.5779 8.57663 11.3375 8.27439C11.2177 8.11411 10.9563 8.11203 10.834 8.27097C10.5944 8.57151 10.344 8.90854 10.2429 9.28428C10.1982 9.1688 10.1775 9.03818 10.1907 8.89231ZM14.1119 10.4828L13.2859 10.0884L14.4378 7.67551L15.2638 8.0698L14.1119 10.4828Z" fill="white"/>
<path d="M10.7656 11.4534V12.9908C10.7656 13.3968 11.398 13.3975 11.398 12.9908V11.4534C11.398 11.0475 10.7656 11.0469 10.7656 11.4534Z" fill="white"/>
<path d="M5.26452 10.9473C5.15588 10.6868 4.77074 10.6948 4.67491 10.9617C4.5764 11.2366 4.88805 11.4881 5.13647 11.3385C5.26818 11.2592 5.3236 11.0893 5.26452 10.9473Z" fill="white"/>
<path d="M13.1543 12.6016C13.088 12.4425 12.9009 12.3644 12.7414 12.4306C12.5823 12.4964 12.5044 12.6843 12.5704 12.8434C12.6364 13.0027 12.8241 13.0802 12.9833 13.0144C13.1422 12.9489 13.2205 12.7605 13.1543 12.6016Z" fill="white"/>
</g>
<defs>
<clipPath id="clip0">
<rect width="16" height="16" fill="white"/>
</clipPath>
</defs>
</svg>
