<svg width="14" height="22" viewBox="0 0 14 22" fill="none" xmlns="http://www.w3.org/2000/svg">
<path fill-rule="evenodd" clip-rule="evenodd" d="M6.9994 1.95524C4.21189 1.95524 1.95217 4.10198 1.95217 6.75011C1.95217 8.17711 2.45473 8.93121 3.34626 10.2689L3.35946 10.2887C4.27688 11.6653 5.40351 13.4098 6.07079 16.5142H7.92778C8.59505 13.4098 9.72192 11.6653 10.6393 10.2887L10.6525 10.2689C11.5441 8.9312 12.0466 8.17711 12.0466 6.75011C12.0466 4.10198 9.78691 1.95524 6.9994 1.95524ZM11.9641 10.9493C12.8304 9.6506 13.5379 8.58992 13.5379 6.75011C13.5379 3.31957 10.6105 0.538574 6.9994 0.538574C3.38831 0.538574 0.460938 3.31957 0.460938 6.75011C0.460938 8.58992 1.16843 9.6506 2.03465 10.9493C2.94393 12.3125 4.02811 13.9379 4.65247 17.0019C4.76038 17.5315 5.24014 17.9309 5.80792 17.9309H8.19088C8.75866 17.9309 9.23842 17.5315 9.34633 17.0019C9.97069 13.9379 11.0549 12.3125 11.9641 10.9493Z" fill="white"/>
<path d="M4.81934 19.1731C4.81934 18.9444 5.01449 18.759 5.25523 18.759H8.74241C8.98315 18.759 9.17831 18.9444 9.17831 19.1731C9.17831 19.4018 8.98315 19.5872 8.74241 19.5872H5.25523C5.01449 19.5872 4.81934 19.4018 4.81934 19.1731Z" fill="white"/>
<path fill-rule="evenodd" clip-rule="evenodd" d="M4.59082 19.1731C4.59082 18.824 4.88869 18.541 5.25614 18.541H8.74332C9.11076 18.541 9.40863 18.824 9.40863 19.1731C9.40863 19.5221 9.11076 19.8051 8.74332 19.8051H5.25614C4.88869 19.8051 4.59082 19.5221 4.59082 19.1731ZM5.25614 18.9769C5.1421 18.9769 5.04966 19.0647 5.04966 19.1731C5.04966 19.2814 5.1421 19.3692 5.25614 19.3692H8.74332C8.85735 19.3692 8.94979 19.2814 8.94979 19.1731C8.94979 19.0647 8.85735 18.9769 8.74332 18.9769H5.25614Z" fill="white"/>
<path d="M5.69141 20.8296C5.69141 20.6009 5.88656 20.4155 6.1273 20.4155H7.87089C8.11163 20.4155 8.30679 20.6009 8.30679 20.8296C8.30679 21.0583 8.11163 21.2437 7.87089 21.2437H6.1273C5.88656 21.2437 5.69141 21.0583 5.69141 20.8296Z" fill="white"/>
<path fill-rule="evenodd" clip-rule="evenodd" d="M5.46191 20.8296C5.46191 20.4805 5.75979 20.1975 6.12723 20.1975H7.87082C8.23827 20.1975 8.53614 20.4805 8.53614 20.8296C8.53614 21.1786 8.23827 21.4616 7.87082 21.4616H6.12723C5.75979 21.4616 5.46191 21.1786 5.46191 20.8296ZM6.12723 20.6334C6.0132 20.6334 5.92075 20.7212 5.92075 20.8296C5.92075 20.9379 6.0132 21.0257 6.12723 21.0257H7.87082C7.98486 21.0257 8.0773 20.9379 8.0773 20.8296C8.0773 20.7212 7.98486 20.6334 7.87082 20.6334H6.12723Z" fill="white"/>
</svg>
