<svg width="18" height="20" viewBox="0 0 18 20" fill="none" xmlns="http://www.w3.org/2000/svg">
<path d="M16.8008 3.67889C16.4373 2.25089 13.7323 0.846191 9.00045 0.846191C4.26859 0.846191 1.56324 2.25089 1.20012 3.67889C1.17376 3.72782 1.1543 3.78141 1.1543 3.842V4.00843V7.8364V8.00283V8.16927V11.8308V11.9972V12.1637V16.1581C1.1543 16.212 1.16779 16.2629 1.19102 16.3082C1.56167 17.9376 4.87777 19.1539 9.00045 19.1539C13.1137 19.1539 16.4245 17.9426 16.8074 16.3192C16.8325 16.2716 16.8466 16.2167 16.8466 16.1581V12.1637V11.9972V11.8308V8.16927V8.00283V7.8364V4.00843V3.842C16.8466 3.78141 16.8271 3.72782 16.8008 3.67889ZM16.1941 12.1587C16.1853 12.199 16.1731 12.2389 16.1577 12.2795C16.1452 12.3125 16.1298 12.3454 16.1128 12.3784C16.0918 12.4193 16.0683 12.4603 16.0403 12.5012C16.0196 12.5322 15.9961 12.5628 15.9716 12.5934C15.9368 12.637 15.8997 12.6806 15.8577 12.7239C15.8323 12.7502 15.8043 12.7761 15.7761 12.8024C15.7246 12.85 15.6709 12.8973 15.611 12.9442C15.5853 12.9646 15.5576 12.9842 15.5303 13.0042C15.4594 13.0561 15.3853 13.1077 15.304 13.1583C15.2827 13.1719 15.2598 13.1849 15.2375 13.1982C15.144 13.2541 15.0464 13.3097 14.9409 13.3637C14.9274 13.3706 14.9133 13.3773 14.8995 13.384C14.7818 13.4429 14.6588 13.5008 14.5273 13.5567C14.5235 13.5584 14.5197 13.5597 14.516 13.5614C13.8032 13.8633 12.8915 14.1173 11.8291 14.2837C11.8238 14.2844 11.8185 14.285 11.8131 14.286C11.6066 14.3183 11.3948 14.3469 11.1773 14.3722C11.1418 14.3762 11.1045 14.3789 11.0687 14.3829C10.8788 14.4039 10.6867 14.4232 10.489 14.4385C10.3986 14.4455 10.3039 14.4488 10.2119 14.4548C10.0631 14.4641 9.91594 14.4744 9.76341 14.4801C9.51422 14.4884 9.26 14.4937 9.00045 14.4937C8.7409 14.4937 8.48668 14.4884 8.23718 14.4791C8.08465 14.4734 7.93745 14.4628 7.78869 14.4538C7.69673 14.4481 7.60195 14.4445 7.51156 14.4375C7.31384 14.4222 7.12177 14.4029 6.93189 14.3819C6.89611 14.3779 6.85876 14.3752 6.8233 14.3712C6.6058 14.346 6.39396 14.317 6.18745 14.285C6.18211 14.2844 6.17678 14.2837 6.17144 14.2827C5.10907 14.1163 4.19735 13.8623 3.4846 13.5604C3.48084 13.5591 3.47707 13.5574 3.47331 13.5557C3.3418 13.4998 3.21846 13.4419 3.10108 13.383C3.08759 13.376 3.07315 13.3693 3.05966 13.3627C2.9542 13.3087 2.8566 13.2535 2.76307 13.1972C2.7411 13.1839 2.71788 13.1709 2.69654 13.1573C2.61525 13.1067 2.54118 13.0551 2.47025 13.0032C2.44326 12.9832 2.41533 12.9636 2.3896 12.9432C2.32965 12.8963 2.27598 12.849 2.22451 12.8014C2.19658 12.7755 2.16833 12.7495 2.14291 12.7229C2.10086 12.6796 2.06382 12.6363 2.02899 12.5924C2.00451 12.5618 1.98097 12.5312 1.96025 12.5002C1.93264 12.4593 1.9091 12.4183 1.88776 12.3774C1.87081 12.3444 1.85574 12.3115 1.84288 12.2785C1.8275 12.2382 1.81526 12.198 1.80647 12.1577C1.79486 12.1048 1.78199 12.0508 1.78199 11.9972C1.78199 11.9596 1.78607 11.922 1.79172 11.8847C1.79956 11.8345 1.79517 11.7842 1.78199 11.7366V9.2654C1.79078 9.27405 1.80176 9.28238 1.81086 9.29103C1.87928 9.35494 1.94896 9.41852 2.02742 9.47977C3.20968 10.4281 5.57388 11.1651 9.00045 11.1651C12.4126 11.1651 14.7708 10.4341 15.9581 9.49142C16.0529 9.41819 16.1383 9.34262 16.2186 9.26573L16.2189 9.2654V11.7366C16.2057 11.7842 16.2013 11.8345 16.2092 11.8847C16.2151 11.922 16.2189 11.9596 16.2189 11.9972C16.2189 12.0508 16.206 12.1048 16.1941 12.1587ZM16.2189 5.27099V7.7422C16.2057 7.7898 16.2013 7.84006 16.2092 7.89033C16.2151 7.92761 16.2189 7.96522 16.2189 8.00283C16.2189 8.05643 16.206 8.11035 16.1941 8.16428C16.1853 8.20455 16.1731 8.2445 16.1577 8.28511C16.1452 8.31806 16.1298 8.35101 16.1128 8.38397C16.0918 8.42491 16.0683 8.46585 16.0403 8.5068C16.0196 8.53775 15.9961 8.56838 15.9716 8.599C15.9368 8.64261 15.8997 8.68621 15.8577 8.72948C15.8323 8.75578 15.8043 8.78174 15.7761 8.80804C15.7246 8.85564 15.6709 8.90291 15.611 8.94984C15.5853 8.97015 15.5576 8.98979 15.5303 9.00976C15.4594 9.06168 15.3853 9.11328 15.304 9.16388C15.2827 9.17752 15.2598 9.1905 15.2375 9.20382C15.144 9.25974 15.0464 9.31533 14.9409 9.36925C14.9274 9.37624 14.9133 9.3829 14.8995 9.38956C14.7818 9.44848 14.6588 9.5064 14.5273 9.56232C14.5235 9.56398 14.5197 9.56531 14.516 9.56698C13.8032 9.86889 12.8915 10.1229 11.8291 10.2893C11.8238 10.29 11.8185 10.2906 11.8131 10.2916C11.6066 10.3239 11.3948 10.3525 11.1773 10.3778C11.1418 10.3818 11.1045 10.3845 11.0687 10.3885C10.8788 10.4095 10.6867 10.4288 10.489 10.4441C10.3986 10.4511 10.3039 10.4544 10.2119 10.4604C10.0631 10.4697 9.91594 10.48 9.76341 10.4857C9.51422 10.494 9.26 10.4993 9.00045 10.4993C8.7409 10.4993 8.48668 10.494 8.23718 10.4847C8.08465 10.479 7.93745 10.4684 7.78869 10.4594C7.69673 10.4537 7.60195 10.4501 7.51156 10.4431C7.31384 10.4278 7.12177 10.4085 6.93189 10.3875C6.89611 10.3835 6.85876 10.3808 6.8233 10.3768C6.6058 10.3515 6.39396 10.3226 6.18745 10.2906C6.18211 10.29 6.17678 10.2893 6.17144 10.2883C5.10907 10.1219 4.19735 9.86789 3.4846 9.56598C3.48084 9.56465 3.47707 9.56298 3.47331 9.56132C3.3418 9.5054 3.21846 9.44748 3.10108 9.38856C3.08759 9.38157 3.07315 9.37491 3.05966 9.36825C2.9542 9.31433 2.8566 9.25908 2.76307 9.20282C2.7411 9.18951 2.71788 9.17652 2.69654 9.16288C2.61525 9.11228 2.54118 9.06069 2.47025 9.00876C2.44326 8.98879 2.41533 8.96915 2.3896 8.94884C2.32965 8.90191 2.27598 8.85464 2.22451 8.80704C2.19658 8.78108 2.16833 8.75511 2.14291 8.72848C2.10086 8.68521 2.06382 8.64194 2.02899 8.598C2.00451 8.56738 1.98097 8.53675 1.96025 8.5058C1.93264 8.46485 1.9091 8.42391 1.88776 8.38297C1.87081 8.35001 1.85574 8.31706 1.84288 8.28411C1.8275 8.24383 1.81526 8.20355 1.80647 8.16328C1.79486 8.11035 1.78199 8.05643 1.78199 8.00283C1.78199 7.96522 1.78607 7.92761 1.79172 7.89033C1.79956 7.84006 1.79517 7.7898 1.78199 7.7422V5.27099C1.81965 5.30728 1.86265 5.34289 1.90345 5.37884C1.92604 5.39881 1.94707 5.41879 1.97092 5.43876C2.06508 5.51732 2.16676 5.59487 2.27692 5.67043C2.29984 5.68608 2.32557 5.70139 2.34942 5.71704C2.44169 5.77795 2.5393 5.83753 2.64193 5.89612C2.6799 5.91775 2.71788 5.93906 2.75711 5.96036C2.87166 6.02227 2.99187 6.08252 3.11835 6.14078C3.13906 6.15043 3.15789 6.16041 3.17892 6.16974C3.32611 6.23598 3.48241 6.29922 3.64498 6.36047C3.68986 6.37744 3.73694 6.39342 3.78307 6.41007C3.91238 6.45633 4.04608 6.5006 4.18448 6.54354C4.23438 6.55886 4.28334 6.57483 4.3345 6.58948C4.5181 6.6434 4.70766 6.69467 4.90664 6.74193C4.93395 6.74859 4.96345 6.75392 4.99107 6.76024C5.16651 6.80085 5.34854 6.83847 5.53559 6.87375C5.59899 6.88573 5.66332 6.89705 5.72798 6.90837C5.90593 6.93932 6.08921 6.96762 6.27721 6.99358C6.32554 7.00024 6.37168 7.00789 6.42064 7.01422C6.65414 7.04418 6.8958 7.06981 7.14405 7.09178C7.20525 7.0971 7.26896 7.1011 7.3311 7.10576C7.52977 7.12107 7.73283 7.13372 7.94059 7.1437C8.01623 7.14737 8.09155 7.15103 8.16876 7.15402C8.43929 7.16368 8.71485 7.17067 9.00045 7.17067C9.28605 7.17067 9.56161 7.16368 9.83214 7.15402C9.90903 7.15103 9.98436 7.14737 10.0603 7.1437C10.2681 7.13372 10.4711 7.12107 10.6698 7.10576C10.7319 7.10076 10.7953 7.0971 10.8569 7.09178C11.1051 7.07014 11.3468 7.04418 11.5803 7.01422C11.6292 7.00789 11.6754 7.00024 11.7237 6.99358C11.9117 6.96762 12.0947 6.93932 12.2729 6.90837C12.3376 6.89705 12.4019 6.88573 12.4653 6.87375C12.6524 6.83847 12.8344 6.80085 13.0098 6.76024C13.0375 6.75392 13.067 6.74826 13.0943 6.74193C13.2932 6.69467 13.4828 6.64307 13.6664 6.58948C13.7176 6.5745 13.7665 6.55886 13.8164 6.54354C13.9548 6.5006 14.0885 6.45633 14.2178 6.41007C14.264 6.39342 14.311 6.37744 14.3559 6.36047C14.5185 6.29922 14.6751 6.23598 14.822 6.16974C14.843 6.16041 14.8618 6.15043 14.8826 6.14078C15.009 6.08219 15.1292 6.02227 15.2438 5.96036C15.283 5.93906 15.3213 5.91775 15.359 5.89612C15.4616 5.83787 15.5592 5.77828 15.6515 5.71704C15.6753 5.70139 15.7011 5.68608 15.724 5.67043C15.8341 5.59487 15.9358 5.51765 16.03 5.43876C16.0535 5.41879 16.0745 5.39881 16.0975 5.37884C16.1383 5.34289 16.1813 5.30728 16.2189 5.27099ZM9.00045 1.51193C13.2546 1.51193 16.2189 2.82742 16.2189 4.00843C16.2189 5.18944 13.2546 6.50493 9.00045 6.50493C4.74627 6.50493 1.78199 5.18944 1.78199 4.00843C1.78199 2.82742 4.74627 1.51193 9.00045 1.51193ZM16.2189 16.0592C16.2145 16.0739 16.2114 16.0888 16.2089 16.1042C16.0309 17.2555 13.0917 18.4881 9.00045 18.4881C4.90915 18.4881 1.96998 17.2555 1.79203 16.1042C1.78952 16.0892 1.78607 16.0745 1.78199 16.0605V13.2598C1.79078 13.2685 1.80176 13.2768 1.81086 13.2854C1.87928 13.3493 1.94896 13.4129 2.02742 13.4742C3.20968 14.4225 5.57388 15.1595 9.00045 15.1595C12.4126 15.1595 14.7708 14.4285 15.9581 13.4858C16.0529 13.4126 16.1383 13.337 16.2186 13.2601L16.2189 13.2598V16.0592Z" fill="white" stroke="white" stroke-width="0.6"/>
</svg>
