<svg width="201" height="34" viewBox="0 0 201 34" fill="none" xmlns="http://www.w3.org/2000/svg">
<path d="M170.58 3.55399L170.773 3.80648L170.868 4.09135L170.909 4.22374L171.116 4.44262L171.303 4.66478L171.355 4.83488L171.521 5.01892L171.709 5.16565L171.856 5.31854L172.039 5.69604L172.298 6.04527L172.537 6.17315L172.56 6.42728L172.662 6.38793L172.626 6.22029L172.692 6.05223L172.737 5.91328L172.849 5.72678L172.927 5.44355L173.141 4.98981L173.205 4.80987L173.376 4.72462L173.391 4.61682L173.463 4.54099L173.406 4.21062L173.17 3.7454L173.062 3.56301L172.979 3.40069L172.923 3.14247L172.943 2.97564L172.945 2.66987L172.999 2.4887L172.913 2.20055L172.989 1.63696L173.004 1.38406L172.91 1.24839L172.788 1.15412L172.705 1.09632L172.66 1.02295L172.531 1L172.232 1.11518L172.122 1.15289L172.038 1.35004L171.989 1.54556L171.812 1.85461L171.651 2.11571L171.451 2.33704L171.031 2.43378L170.883 2.56371L170.836 2.61822L170.773 2.67479L170.737 2.71209L170.333 2.73299L170.004 2.91949L169.915 2.91703L169.9 2.97073L169.949 2.99819L170.236 3.31011L170.357 3.37815L170.473 3.48964L170.58 3.55399Z" fill="#92D050" stroke="#92D050" stroke-width="1.25"/>
<path d="M162.183 2.28134V2.35512L162.299 2.57645L162.456 2.66253L162.486 2.82566L162.466 2.91789L162.437 3.06094L162.511 3.11258L162.73 2.98921L162.777 2.88059L162.818 2.84411L162.795 2.74369L162.666 2.49981L162.623 2.41537L162.537 2.35962L162.316 2.26781L162.22 2.28134H162.183ZM162.911 2.19895L162.933 2.21412L162.971 2.12353L163.083 2.11247L163.079 2.14854V2.19526L163.147 2.21289L163.15 2.41865L163.03 2.58015L163.019 2.64655L163.096 2.79124L163.172 2.89125L163.303 3.06627L163.363 3.24949L163.4 3.39582L163.44 3.5569L163.551 3.69093L163.609 3.89219L163.537 4.075L163.585 4.21312L163.574 4.39265L163.646 4.49103L163.77 4.6349L163.856 4.77672L163.955 4.93165L164.096 5.0952L164.296 5.23087L164.568 5.33662L164.801 5.33457L165.013 5.26202L165.314 5.13209L165.465 5.14357L165.795 5.0124L165.96 4.93166L166.121 4.81976L166.349 4.65252L166.559 4.52956L166.737 4.29879L166.964 4.10082L167.293 3.82169L167.421 3.69135L167.512 3.61757L167.979 3.36959L168.354 3.2249L168.673 3.17981L168.801 3.13636L168.904 3.18473L169.088 3.22039L169.344 3.07119L169.601 3.06955L169.701 3.00356L169.734 2.93511L169.818 2.89126V2.82977L169.677 2.7355L169.449 2.65065L169.004 2.60598L168.535 2.7437L167.685 2.76009L167.396 2.67893L166.952 2.66377L166.809 2.58753L165.994 2.41948L165.616 2.3207L165.376 2.24856L165.151 2.22273L164.888 2.17109L164.808 2.07108L164.838 1.9727L164.76 1.99812L164.534 1.79031L163.882 1.68865L163.529 1.66939L163.384 1.69316L163.282 1.61733L163.24 1.58044L163.157 1.62922L163.165 1.67718L163.097 1.72226L163.002 1.869L162.967 2.00713L162.911 2.19895Z" fill="#92D050" stroke="#92D050" stroke-width="1.25"/>
<path d="M193.382 14.5377L193.309 14.5385L193.2 14.7422L193.126 14.7611L193.164 14.8348L192.65 14.9303L192.248 15.2103L191.92 15.5821L191.866 15.6563L191.667 16.1379L191.594 16.1383L191.558 16.3231L191.375 16.3613L191.357 16.5092L190.865 16.9929L190.938 16.9925L190.866 17.122L190.609 17.1421L190.61 17.2901L190.536 17.2905L190.611 17.5487L190.502 17.5307L190.411 17.6979L190.429 17.7717L190.025 17.7372V17.811L189.879 17.8307L189.327 17.668L188.993 17.1159L188.919 17.1163L188.864 16.9691L188.679 16.8224L188.697 16.7113L188.66 16.6748L188.567 16.4539L188.601 16.0469L188.507 15.7891L188.425 15.6075L188.321 15.4579L188.381 15.2853L188.357 15.2357L188.246 14.9439L188.217 14.8709L188.101 14.6L187.986 14.3803L187.823 14.1725L187.662 13.9524L187.427 13.7351L187.173 13.5441V13.5072L186.927 13.3367L186.826 13.2547L186.602 13.0912L186.339 12.7707L186.182 12.4903L186.049 12.2444L185.969 12.0337L185.913 11.6681L185.91 11.1881L185.947 11.1877L185.853 10.9668L185.871 10.8926L185.692 10.7573L185.637 10.4823L185.648 10.34L185.911 10.3093L185.999 10.2445L186.084 10.0945L186.049 10.2905L186.272 10.4097L186.42 10.3646L186.675 10.2597L186.711 10.1117L186.784 10.1109L186.783 9.96335L186.893 9.92564L186.854 9.66741L186.965 9.64815L187.148 9.70225L187.184 9.59158L187.258 9.59074L187.256 9.40629L187.183 9.40671L187.182 9.25875L187.512 9.2567L187.55 9.47845L187.624 9.47761L187.679 9.55139L187.662 9.66206L187.882 9.7346L187.957 9.88175L188.14 9.86208L188.214 9.93545L189.717 9.68583L189.753 9.57475L189.826 9.55549L189.901 9.62926L190.635 9.73501L190.745 9.62353L192.543 9.59319V9.66738L192.837 9.70222L192.873 9.59115L193.202 9.38579L193.642 9.30874L194.522 9.11855L195.624 9.33251L196.652 9.43662L198.231 9.06567L198.343 9.09191L198.477 9.15134L198.56 9.2575L198.736 9.37104L198.819 9.5145L198.907 9.64279L199.04 9.7346L199.117 9.79896L199.315 9.92192L199.409 10.0273L199.452 10.0555L199.469 10.0867L199.494 10.1281L199.503 10.192L199.528 10.2978L199.494 10.3916L199.56 10.5433L199.507 10.9134L199.473 11.6963L199.278 12.2816L199.19 12.8362L199.249 13.781L199.093 14.6836L199.038 14.9984L198.967 15.239L198.921 15.3972L198.858 15.4616L198.717 15.5751L198.455 15.6673L198.051 15.6149L197.842 15.5185L197.618 15.414L197.343 15.3849L196.806 15.3075L196.54 15.0345L196.075 14.8496L195.894 14.6459L195.865 14.6836L196.076 14.8496L195.894 14.6458L195.437 14.413L195.31 14.3569L195.18 14.3409L194.74 14.3438V14.4179L194.482 14.3458V14.4196L194.445 14.42V14.3458L194.042 14.3487L194.043 14.4594L193.969 14.4044L193.419 14.5376L193.382 14.5377Z" fill="#92D050" stroke="#92D050" stroke-width="1.25"/>
<path d="M42.1537 20.2035L42.3053 20.1666L42.4808 20.0924L42.5959 20.0277L42.6595 19.9769L42.7972 19.8055L42.871 19.7084L42.7857 19.644L42.7693 19.5879L42.7783 19.5469L42.8017 19.4817L42.8611 19.4891L42.8521 19.5653L42.891 19.5079L42.8566 19.2468L42.7931 19.187L42.741 19.0665L42.6882 19.0116L42.5857 18.9316L42.3996 18.8185L42.2123 18.8603L42.0414 18.7136L41.9737 18.6419L41.6802 18.6394L41.2794 18.7431L40.9404 18.9448L40.8617 19.039L40.7924 19.2325L40.7113 19.2374L40.7162 19.2801L40.7793 19.2788L40.7711 19.3805L40.7244 19.3612L40.7232 19.3317L40.7006 19.3292L40.7068 19.3862L40.7523 19.428L40.6838 19.5629L40.6519 19.7182L40.7793 19.8039L40.8879 19.8658L40.9511 19.9301L41.0691 20.04L41.2372 20.1412L41.3187 20.156L41.5036 20.083L41.6778 19.9699L41.8196 20.0855L41.8795 20.1285L41.9713 20.1666L42.1537 20.2035Z" fill="#92D050" stroke="#92D050" stroke-width="0.3"/>
<path d="M1.07969 24.9902L1.04075 25.0086L1.02148 25.0295L1.03132 25.0476L1.08296 25.0398L1.11534 25.0299L1.13748 25.0389L1.15633 25.0615L1.16494 25.0717L1.15468 25.0881L1.17067 25.0943L1.20633 25.0877H1.24855L1.28052 25.1008L1.2715 25.1181L1.28872 25.1353L1.28956 25.1599L1.30923 25.1738L1.32522 25.1726L1.34489 25.1582L1.35596 25.1578L1.34736 25.1763L1.36498 25.1812L1.3908 25.1758L1.40802 25.1545L1.4199 25.1381L1.43302 25.1262L1.43097 25.109L1.42564 25.0922L1.4359 25.073L1.43548 25.0512L1.42031 25.0271L1.40064 25.0164L1.38137 24.9799L1.35883 24.9475L1.33137 24.9266L1.2994 24.9156L1.24775 24.9049L1.2125 24.9176L1.19774 24.9197L1.17602 24.9475L1.17766 24.9639L1.16331 24.975L1.1338 24.9701L1.09855 24.9758L1.07969 24.9902Z" fill="#92D050" stroke="#92D050" stroke-width="0.3"/>
<path d="M1.83468 25.1836L1.79697 25.1799L1.77361 25.1881L1.76705 25.2025L1.74696 25.2115L1.7277 25.2242L1.70557 25.2447L1.71376 25.2562L1.73507 25.2484L1.75147 25.2471L1.7691 25.2476L1.80845 25.2373L1.82935 25.2353L1.85394 25.2312L1.86255 25.2254L1.88222 25.2135L1.88796 25.2025L1.88222 25.1931L1.86132 25.1836L1.83468 25.1836Z" fill="#92D050" stroke="#92D050" stroke-width="0.3"/>
<path d="M1.05943 24.6741L1.02705 24.6917L1.00779 24.7049L1 24.7323L1.00779 24.7544L1.04181 24.7409L1.05492 24.7192L1.07788 24.7225L1.08771 24.7409L1.11394 24.7471L1.11927 24.7315L1.11641 24.7102L1.11026 24.6807L1.11068 24.6704L1.09059 24.6544L1.07911 24.6532L1.05943 24.6741Z" fill="#92D050" stroke="#92D050" stroke-width="0.3"/>
<path d="M1.22739 24.67L1.24994 24.6212L1.24502 24.6122L1.22288 24.6155L1.20157 24.611H1.18886L1.16017 24.6233L1.15771 24.6462L1.17411 24.6671L1.21592 24.6958L1.22739 24.67Z" fill="#92D050" stroke="#92D050" stroke-width="0.3"/>
<path d="M2.52831 25.3898L2.50904 25.4083L2.50781 25.4275L2.52503 25.4468L2.54798 25.4378L2.56438 25.4271L2.58897 25.4218L2.59922 25.405L2.59799 25.391L2.58447 25.3734L2.56479 25.3738L2.52831 25.3898Z" fill="#92D050" stroke="#92D050" stroke-width="0.3"/>
<path d="M38.2828 14.4229L38.3438 14.3836L38.4344 14.2737L38.4369 14.2418L38.4414 14.1926L38.4812 14.1512L38.5512 14.109L38.6012 14.0831L38.6312 14.102L38.673 14.1438L38.6886 14.1901L38.7254 14.2163L38.766 14.2286L38.816 14.2393L38.8783 14.2655L38.9939 14.3168L39.1837 14.3586L39.3518 14.3754L39.4247 14.3774L39.5247 14.3573L39.6489 14.3217L39.6727 14.3036L39.7145 14.3217L39.7608 14.3299L39.8362 14.3168L39.8862 14.3106L39.9305 14.2954L39.9592 14.2831L39.9305 14.2057L39.9625 14.1938L40.0006 14.1987L40.0485 14.1737L40.0904 14.1569L40.1367 14.1631L40.1572 14.1532L40.1617 14.1225L40.2084 14.0971L40.2322 14.0339L40.2646 14.0221L40.3351 13.9971L40.3851 13.979L40.4183 13.9971L40.4408 13.9647L40.4543 13.9434L40.4839 13.9233L40.5244 13.9147L40.5375 13.9184L40.5556 13.9134L40.5925 13.9114L40.6269 13.9184L40.6642 13.9384L40.6687 13.9577L40.7023 13.9852L40.688 14.0171L40.6699 14.0126L40.6261 13.9921L40.5732 14.0007L40.5625 14.029L40.547 14.0307L40.5162 14.0676L40.4781 14.127L40.4757 14.1569L40.4662 14.1844L40.442 14.1975H40.4113L40.3945 14.2094L40.3765 14.2262L40.3707 14.245L40.3634 14.2475L40.3466 14.2688L40.3252 14.2713L40.3109 14.3036L40.292 14.3192L40.2789 14.3237L40.2666 14.3705L40.292 14.4254L40.3109 14.4192L40.3537 14.4965L40.354 14.4967L40.3503 14.5492L40.3253 14.6234L40.3207 14.6521L40.2871 14.659L40.2597 14.6734L40.2371 14.7951L40.2539 14.8787L40.3027 15.0468L40.3253 15.1304L40.3072 15.2378L40.3478 15.3583L40.3933 15.4513L40.4314 15.5157L40.4876 15.58L40.5663 15.6481L40.6294 15.7186L40.6487 15.7354L40.6413 15.803L40.6474 15.8747L40.6413 15.9096L40.5876 16.0694L40.5212 16.2162L40.4577 16.3006L40.4089 16.3961L40.397 16.4773V16.5392L40.379 16.6072L40.3539 16.7113L40.3384 16.7658V16.8507L40.324 16.9199L40.3314 16.97L40.2933 17.0036L40.2228 17.1265L40.2261 17.1667L40.2203 17.1929L40.1941 17.247L40.2179 17.3339L40.2121 17.3708L40.2453 17.3971V17.4184L40.2002 17.4446L40.1703 17.4708H40.1392L40.0269 17.5401L40.0031 17.5294L39.7539 17.6323L39.7084 17.6512L39.6633 17.6487L39.5559 17.6631L39.4247 17.6606L39.3624 17.6475L39.2887 17.6311L39.2251 17.6762L39.1001 17.6705L39.0653 17.62L38.9964 17.6598L38.9702 17.6549L38.9628 17.643L38.9427 17.6512L38.9378 17.6811L38.9091 17.6799L38.8792 17.6836L38.8316 17.7274L38.7685 17.7635L38.7267 17.8053L38.6837 17.8315H38.6681L38.5812 17.8754L38.5582 17.9115L38.5824 17.9934L38.5644 18.0234L38.45 18.082L38.382 18.132L38.2865 18.1476L38.2041 18.1414L38.1373 18.1283L38.0885 18.1426L38.0061 18.1238L37.9799 18.1021L37.9918 18.0627L38.0061 18.0152L37.9848 17.9746L37.9319 17.9422L37.8368 17.9184L37.7913 17.9147L37.6721 17.9447L37.6053 17.9508L37.5934 17.9422L37.4966 17.9709L37.4073 18.0389L37.363 18.0664L37.2532 18.1201L37.1519 18.1918L37.1064 18.2394L37.1077 18.323L37.1294 18.348L37.1314 18.373L37.1687 18.3755L37.1708 18.4017L37.1437 18.4185L37.1314 18.4136L37.0408 18.4591L37.0445 18.4878L37.0064 18.5029L36.9933 18.4878L36.9896 18.4591L36.9396 18.4566L36.8228 18.5017L36.7429 18.5423L36.7043 18.621L36.6879 18.6927L36.6293 18.7726L36.558 18.8358L36.5195 18.8321L36.4576 18.8251L36.3727 18.8275L36.2596 18.8525L36.1973 18.8583L36.1534 18.8837L36.1141 18.8575L35.9055 18.9157L35.8981 18.9636L35.9182 19.0099L35.8776 19.0505L35.8382 19.0473L35.7776 18.9981L35.6226 19.0936L35.4747 19.1591L35.421 19.2497L35.3661 19.2202L35.3181 19.2547V19.3047L35.2849 19.3358L35.2013 19.3288L35.0652 19.4407L35.0213 19.4002L34.9603 19.3952L34.9054 19.3383L34.8746 19.3428L34.859 19.3165L34.8197 19.2977L34.809 19.2616L34.7586 19.2284L34.6623 19.1641L34.5069 19.0567L34.4844 19.0411L34.4319 18.9813L34.3946 18.9518L34.3315 18.9288L34.4057 18.887L34.4606 18.8489L34.5106 18.8095H34.5438L34.5738 18.7882L34.6443 18.6853L34.6779 18.6234L34.7516 18.5734L34.8041 18.4878L34.8098 18.3205L34.8148 18.2201L34.791 18.1607L34.748 18.1033L34.7254 18.0496L34.7324 18.0164L34.675 17.8979L34.6242 17.8303L34.5775 17.768L34.5201 17.7455L34.4594 17.7336L34.4225 17.7299L34.3877 17.7266L34.3569 17.7324L34.3246 17.7205L34.2922 17.7086V17.6979L34.309 17.6643L34.327 17.6463L34.3553 17.6311L34.3696 17.5856L34.3483 17.5377L34.2754 17.4532L34.2135 17.402L34.1503 17.3577H34.1061L34.0692 17.3696L34.018 17.3983L33.9606 17.4389L33.9155 17.4663L33.8749 17.4852L33.8401 17.4889L33.797 17.4557V17.4208L33.8114 17.4077L33.8331 17.4176L33.8343 17.3934L33.7901 17.3721L33.7126 17.2073L33.6372 17.1811L33.4917 17.1823L33.3843 17.1778L33.3236 17.1741L33.2506 17.1942L33.1482 17.2753L33.1531 17.3196L33.1326 17.3327L33.1064 17.354L33.1113 17.377L33.0875 17.4065L33.0539 17.4163L32.9752 17.5475L32.876 17.5712L32.7055 17.5868L32.5743 17.6155L32.4014 17.6463L32.2464 17.7098L32.1067 17.7705L32.0112 17.8553L31.9694 17.9115V17.9602L32.0067 18.0115L32.0161 18.0451L31.9837 18.0951L31.848 18.1152L31.7701 18.1664L31.7357 18.207L31.6234 18.2849L31.5271 18.3754L31.4709 18.4648L31.4472 18.5423L31.4172 18.6726L31.4148 18.7177L31.3886 18.7907L31.4029 18.8337L31.2762 18.905L31.2381 18.9325L31.2344 18.9685L31.193 18.9886L31.132 18.9968L31.0033 19.0091L30.9672 19.0194L30.9459 19.0481L30.9795 19.0673L30.9696 19.0997L30.9434 19.1198L30.9233 19.1005L30.9028 19.0591L30.8721 19.0042L30.8196 18.9661L30.7754 18.9399L30.7454 18.9407L30.6475 19.0518L30.5987 19.0637L30.5688 19.0649L30.5393 19.0243L30.4737 18.9804L30.3921 18.9419L30.2872 18.9112L30.2159 18.8849L30.1741 18.887L30.0704 18.9013L30.013 18.9243L29.9749 18.9694L29.9187 19.0542L29.8974 19.1067L29.9068 19.1366L29.94 19.1903L29.9056 19.2866L29.8687 19.3858L29.8863 19.4526L29.8974 19.5039L29.8949 19.5481L29.8687 19.5518L29.8208 19.5719L29.7912 19.6211L29.79 19.6711L29.7994 19.7043L29.7851 19.7424L29.7707 19.7855L29.7576 19.8105L29.7351 19.8047L29.7195 19.7748L29.6732 19.7592L29.6326 19.7678L29.5789 19.8822L29.5441 19.8748L29.5166 19.8404L29.4629 19.8498L29.4211 19.831L29.3748 19.8178L29.3137 19.8215L29.2543 19.8486L29.2244 19.8453L29.2125 19.8223L29.1813 19.8191L29.1444 19.826L29.0932 19.8478L29.0645 19.8523L29.0239 19.8379L28.9797 19.851V19.8596L28.9678 19.874L28.9477 19.8703L28.919 19.8904L28.8571 19.931L28.7423 19.9634L28.6231 20.0027L28.6054 20.017L28.4739 20.0597L28.3534 20.0814L28.3214 20.0552L28.3009 20.0502L28.2714 20.0695L28.2472 20.14L28.1722 20.1826L28.1472 20.1376L28.1353 20.0896L28.1124 20.0457L28.0767 20.0302L28.0255 20.0216L27.9886 20.0384L27.9873 20.0564L27.9611 20.0576L27.9418 20.042L27.8824 20.0494L27.8619 20.0732L27.8763 20.0921L27.8681 20.1052L27.6976 20.1794L27.659 20.2413L27.6209 20.2363L27.5566 20.2425L27.5316 20.2663L27.4848 20.2794L27.4455 20.3019L27.4041 20.3044L27.3393 20.2867L27.3131 20.313L27.2836 20.3031L27.2823 20.2732L27.1401 20.2187L27.0626 20.1937L26.9733 20.1863L26.8696 20.1662L26.8466 20.1994L26.8491 20.2626L26.8266 20.2732L26.7954 20.2749L26.7872 20.3068L26.6761 20.3011L26.6368 20.313L26.5819 20.3605L26.5724 20.3986L26.5532 20.413L26.5282 20.3892L26.5019 20.3605L26.4962 20.3318L26.429 20.3056L26.4056 20.315L26.3482 20.3068L26.3552 20.2724L26.4031 20.2507L26.4482 20.2232L26.4913 20.1794L26.5773 20.147L26.5675 20.0302L26.5437 19.9884L26.5425 19.9191L26.5343 19.8392L26.5118 19.7842L26.4937 19.7724L26.4745 19.7129L26.44 19.6973L26.4077 19.6088L26.3564 19.4752L26.3552 19.4346L26.324 19.2858L26.354 19.2584L26.3609 19.2354V19.2108L26.3597 19.1956L26.3564 19.1842L26.3343 19.1292L26.3241 19.1096L26.29 19.0846L26.2704 19.0702L26.263 19.0505L26.2572 19.0313L26.2581 19.0169L26.2646 19.0022L26.3032 18.9034L26.3228 18.8378L26.3376 18.7718L26.3474 18.6956L26.3458 18.6784L26.3425 18.6632L26.3306 18.6444L26.3019 18.6025L26.2925 18.5915L26.2876 18.5804L26.2835 18.5636L26.2732 18.5394L26.2646 18.5292L26.2564 18.4779L26.2396 18.4591L26.2491 18.4304L26.2265 18.4111L26.2372 18.3861L26.2241 18.3624V18.3431L26.2097 18.323L26.2122 18.3087L26.2323 18.275L26.2716 18.2525L26.3101 18.2574L26.3528 18.1857L26.3396 18.1545L26.3384 18.125L26.3265 18.0869L26.3241 18.0726L26.3364 18.0558L26.4007 18.0496L26.4388 17.9816L26.4319 17.9148L26.3827 17.7861L26.3183 17.675L26.304 17.6741L26.2609 17.6618L26.2314 17.6454L26.2241 17.6012L26.1872 17.5655L26.0691 17.4844L25.9769 17.4532L25.8699 17.4758L25.765 17.4963L25.6703 17.4844L25.551 17.4557L25.4055 17.4151L25.2399 17.3671L25.1539 17.3221L25.0133 17.304L24.7628 17.1741L24.6481 17.1491L24.4943 17.1368L24.4357 17.1179L24.382 17.1335L24.3796 17.2384L24.3558 17.2348L24.3509 17.1503L24.3083 17.1311L24.1316 17.1753L23.9644 17.2184L23.9012 17.2589L23.8549 17.2671L23.7234 17.3384L23.6434 17.3901L23.6151 17.4364L23.5873 17.4581L23.5397 17.5045L23.5553 17.5163L23.5479 17.5463L23.5385 17.57L23.5196 17.5655L23.5217 17.5569L23.5278 17.5377L23.5159 17.5282H23.468L23.4098 17.6061L23.4036 17.65L23.4504 17.6475L23.4516 17.6725L23.1651 17.6848L22.8323 17.7086L22.8372 17.741L22.7618 17.743L22.7654 17.768L22.7048 17.7647L22.706 17.7455L22.6331 17.7479V17.7287L22.6867 17.6979L22.6736 17.675L22.5351 17.686H22.483L22.4707 17.6454L22.4232 17.6475L22.4113 17.6381L22.3359 17.6311L22.1727 17.5893L22.0736 17.5606L22.0067 17.5676L21.9194 17.5987L21.9125 17.62L21.8924 17.625L21.8801 17.6049L21.7895 17.5975L21.7563 17.6155L21.7526 17.5926L21.6833 17.5782L21.6296 17.575L21.5583 17.5676L21.5214 17.62L21.5071 17.7004L21.5091 17.7479L21.5022 17.7897L21.4796 17.7967H21.4042L21.3448 17.7922L21.2636 17.7836L21.2554 17.8004L21.2849 17.8074L21.371 17.8348L21.4067 17.8316L21.4686 17.8266H21.5022L21.5091 17.9197L21.5104 17.9627L21.4985 17.9865L21.5415 18.0103L21.5772 18.009L21.6178 17.9971L21.6309 18.0103L21.6727 18.0078L21.7026 17.9828L21.7325 17.9791L21.7526 17.9828L21.767 18.0033L21.8157 18.0078L21.8825 18.0103L21.9223 18.0152L21.9625 18.0209L21.9912 18.0426L22.0137 18.0677L22.2309 18.1644L22.3207 18.1914L22.3281 18.1709L22.4244 18.2373L22.4224 18.2464L22.5277 18.3173L22.5191 18.3259L22.608 18.3931L22.6699 18.3693L22.7904 18.4267L22.7835 18.4456L22.9814 18.5497L23.0052 18.5554L23.0483 18.5366L23.0864 18.5341L23.1532 18.4136L23.1819 18.4066L23.177 18.3861L23.3368 18.3636L23.3393 18.3886L23.8332 18.3681L23.8356 18.3431L23.9955 18.3349L23.9967 18.3517L24.0443 18.3648L24.0623 18.373L24.0742 18.3792L24.0935 18.3611L24.1148 18.3599L24.1336 18.3792L24.1353 18.3911L24.1627 18.4075L24.1578 18.4972L24.068 18.5542L24.0455 18.5579L24.0385 18.5341L24.0123 18.5353L23.9861 18.5747L23.9668 18.5997L23.9738 18.6259L23.9848 18.6235L23.9967 18.6296L23.9955 18.6521L23.9693 18.669L23.9549 18.671L23.9369 18.669L23.9238 18.6821L23.9074 18.7259L23.8844 18.7538L23.8676 18.7956L23.8975 18.8337L23.9111 18.8358V18.8526L23.9324 18.9005L23.9369 18.9362L23.9537 18.96L23.9561 18.9874L24.0061 19.0624L24.0361 19.1129L24.0373 19.1522L24.0361 19.194L24.0217 19.2272L24.0348 19.2604L24.1185 19.2989L24.2365 19.3383L24.3509 19.3621L24.4025 19.3657L24.4451 19.3559L24.4894 19.367L24.5824 19.4182L24.6566 19.4707L24.7079 19.5018L24.7091 19.4883H24.7255L24.8091 19.5145V19.5457L24.8353 19.5625L24.8665 19.59L24.8841 19.6342L24.864 19.7174L24.8284 19.7724L24.7616 19.7916L24.6849 19.8166L24.6156 19.8597L24.5706 19.9084L24.555 19.9466L24.5488 19.9621L24.5382 19.974L24.4968 19.9953L24.4832 20.0015H24.4714L24.4263 20.0621L24.4132 20.0634L24.4168 20.0777L24.3976 20.1101L24.364 20.1257L24.3045 20.1564L24.2914 20.1507L24.2734 20.1519L24.2533 20.1863L24.2152 20.1827L24.1947 20.1802L24.1877 20.1638L24.1385 20.1421H24.1221L24.1098 20.1507L24.0648 20.19L24.0492 20.215L24.0049 20.2462L23.9799 20.2712L23.9455 20.3118L23.936 20.338L23.9205 20.3581L23.8737 20.3999L23.8295 20.4573L23.8012 20.4929L23.7987 20.5302L23.8143 20.561L23.8381 20.5847L23.8631 20.5979H23.8988L23.9336 20.5921H23.95L23.9693 20.5946L23.9893 20.6028L24.0025 20.6216L24.0504 20.647L24.0553 20.6659L24.0836 20.6802L24.0848 20.6897L24.1148 20.7052L24.1303 20.7208L24.1742 20.7389L24.1898 20.7589L24.2627 20.7757L24.3045 20.8102L24.357 20.8376L24.4714 20.895H24.4812L24.605 20.9524L24.6611 21.0631L24.648 21.1061L24.6181 21.1385L24.6038 21.1934L24.6005 21.2229V21.241L24.5849 21.2947L24.548 21.3553L24.4812 21.4414L24.4824 21.4615L24.4525 21.4639L24.4214 21.5021L24.4177 21.5738L24.3668 21.6242L24.305 21.6443L24.2394 21.7459L24.1988 21.7709L24.1357 21.7504L24.1283 21.7111L24.0627 21.6504L24.0078 21.6599L23.9484 21.5906L23.8135 21.5713L23.7037 21.648L23.5938 21.8004L23.618 21.8828L23.5581 21.9726L23.5012 21.9558L23.3553 21.9078L23.2241 21.9332L23.186 21.9652L23.1364 21.9972L23.1192 22.007L23.0523 21.9894L22.9593 22.0382L22.9056 22.0976L22.8794 22.1644L22.9138 22.2661L22.9056 22.2898L22.8425 22.3636L22.8339 22.3985L22.8413 22.4854L22.8281 22.5034L22.7408 22.489L22.5789 22.6239L22.4691 22.5809L22.3892 22.6165L22.3211 22.7026L22.2018 22.792L22.1395 22.8875L22.1158 23.0022L22.1326 23.1391L22.0908 23.1928L22.0145 23.2109L21.9489 23.2453L21.9284 23.3215L21.8317 23.3326L21.7604 23.4019L21.7366 23.3933L21.71 23.417L21.6723 23.5318L21.5895 23.6785L21.5694 23.7728L21.53 23.8683L21.5038 23.9445L21.3296 24.3061L21.2591 24.3905L21.2403 24.4934L21.1103 24.7414L21.071 24.9025L21.0087 24.9299L20.9312 24.918L20.8144 24.9098L20.7127 24.9418L20.6484 24.9143L20.6664 24.8787L20.6308 24.8307L20.6984 24.7631L20.8013 24.7151L20.9111 24.6983L21.0279 24.7008L21.0792 24.6483L21.096 24.5397L21.0755 24.4885L21.0673 24.4159L21.0575 24.368L21.121 24.3192L21.0993 24.2954L21.1161 24.22L21.0972 24.1569L21.1329 24.0232L21.1448 23.8966L21.1411 23.7835L21.0829 23.6412L20.8943 23.5224L20.7095 23.4445L20.6209 23.4101L20.5865 23.3719L20.498 23.3896L20.4037 23.4019L20.5197 23.4806L20.4217 23.5818L20.3943 23.6916L20.2094 23.706L20.0246 23.6449L19.884 23.6855L19.8385 23.6998L19.829 23.7142L19.8573 23.7216L19.8934 23.7785L19.9233 23.7798L19.9459 23.8253L19.9434 23.8515L19.9516 23.8958L19.9459 23.9433L19.9803 23.9671L20.0032 23.9864L20.0352 23.9945L20.0483 24.0171L19.9909 24.0458L19.9815 24.0769L19.9565 24.0913L19.9528 24.1368L19.9241 24.0901L19.8717 24.065L19.8217 24.1126L19.8098 24.0982L19.8147 24.0532L19.7499 24.0671L19.7335 24.047L19.7048 24.0077L19.6413 23.9683L19.613 23.9339L19.5663 23.9445L19.5569 23.8609L19.5807 23.8142L19.5401 23.788L19.5282 23.8154L19.5069 23.8335H19.4663L19.4458 23.8884L19.4077 23.9077L19.3933 23.8839L19.3995 23.856L19.3503 23.849L19.3396 23.8704L19.3552 23.9003L19.4007 23.9327L19.4159 23.9347L19.427 23.9609L19.4589 24.0282L19.4819 23.9921L19.5307 23.972L19.563 23.9909L19.5487 24.0208L19.5532 24.0663L19.5938 24.047L19.6262 24.0482L19.6475 24.0351L19.643 24.0544L19.6712 24.0913L19.6548 24.1044L19.6143 24.0876L19.595 24.1089L19.6143 24.1368L19.5999 24.1614L19.645 24.1712L19.6536 24.1925L19.6548 24.2474L19.5819 24.2573L19.3827 24.2798L19.2347 24.2212L19.1597 24.1962L19.1273 24.2163L19.1117 24.2413L19.1179 24.2692L19.106 24.2962L19.1154 24.3216L19.1536 24.3392L19.156 24.3786L19.1454 24.388L19.1478 24.4097L19.1892 24.4442L19.2048 24.4884L19.2384 24.5302L19.2933 24.5671L19.3232 24.5721L19.3347 24.629L19.3851 24.6577V24.6876L19.4294 24.7495L19.4638 24.8045L19.4696 24.8881L19.5364 24.9024L19.5843 24.936L19.5868 25.0049V25.0861L19.6606 25.2246L19.6843 25.3045L19.7667 25.3701L19.8815 25.4406L20.9099 25.4463L21.3034 25.4439L21.4657 25.2996L21.5206 25.3078L21.4563 25.3439L21.4071 25.4058L21.3858 25.4775L21.4764 25.6193L20.7021 26.0608L20.2475 26.3305L20.3275 26.4223L20.2762 26.4698L20.1881 26.3592L19.9483 26.5096L19.6954 26.6645L19.6368 26.8231L19.5044 26.8699L19.3495 26.9244L19.3265 26.9891L19.2716 26.9662L19.1511 27.0572L19.0749 27.0965L19.0187 27.0998L18.9318 27.149L18.7625 27.2515L18.6564 27.324L18.6002 27.3777L18.551 27.4544L18.4736 27.6068L18.4666 27.6585L18.4473 27.7155L18.4354 27.8466L18.4916 27.8933L18.5117 27.972L18.5047 27.9983L18.5297 28.0458L18.5178 28.0651L18.5117 28.0938L18.5367 28.1081L18.5141 28.1245L18.5342 28.1557L18.4879 28.1376L18.4129 28.1331L18.4592 28.1606L18.4473 28.1901L18.4129 28.2081L18.3887 28.2155L18.4129 28.2573L18.4117 28.2762L18.3867 28.2631L18.3461 28.2549L18.3104 28.2844L18.3055 28.3168L18.2411 28.3049L18.2338 28.3241L18.2018 28.3516L18.2006 28.4864L18.1334 28.5541L18.0932 28.584L18.0551 28.577L18.0239 28.5291L17.9751 28.511L17.9546 28.5483L17.9665 28.5733L17.9702 28.6078L17.9501 28.6377L17.8985 28.6078L17.8485 28.5697L17.846 28.5934L17.7505 28.5615L17.7354 28.5791L17.7218 28.5983L17.6686 28.5553L17.6337 28.5828V28.6053L17.6661 28.6459L17.6062 28.7201L17.5575 28.7988L17.4788 28.7631L17.4439 28.7914L17.4513 28.8537L17.4632 28.9013L17.407 28.9254L17.3796 28.9791L17.3902 28.998L17.4021 29.0529L17.3451 29.0443L17.3353 29.0566L17.264 29.0423L17.2521 29.0599L17.2402 29.0923L17.2697 29.1566L17.2509 29.1972L17.2411 29.2058L17.1972 29.1865L17.2054 29.2304L17.1746 29.2234L17.1972 29.264L17.2173 29.2878L17.2033 29.3107L17.1767 29.3214L17.1255 29.3238L17.1624 29.3308L17.1804 29.3607L17.1255 29.3501L17.1279 29.3788L17.1398 29.4046L17.1078 29.3964L17.1234 29.4157L17.1123 29.4443L17.0742 29.4452L17.0837 29.4694L17.0406 29.48L17.0099 29.4919L16.9857 29.5251L17.005 29.5731L16.9943 29.5899L17.0029 29.6218L16.9931 29.653L16.9525 29.7042L16.8906 29.7137L16.8332 29.7149L16.8045 29.7473L16.7307 29.8174L16.6709 29.8583L16.6221 29.8973L16.5553 29.9334L16.5172 29.9571L16.4979 29.9776L16.4791 29.9514L16.4479 29.969L16.4155 30.0334L16.4016 30.0288L16.393 30.0526L16.375 30.085L16.3442 30.0776L16.3356 30.1039L16.2881 30.1326L16.3094 30.1719L16.2844 30.185L16.2262 30.2875L16.225 30.3305L16.152 30.3473L16.1188 30.4223L16.0733 30.4334L16.0421 30.4953L16.0089 30.5047L15.9852 30.5765L16.0577 30.642L16.0508 30.6539L16.0196 30.6658L16.0434 30.6883L16.0671 30.7015L16.0782 30.7552L16.0651 30.7806V30.8031L16.0352 30.8019L15.9958 30.7384L16.0258 30.7015L15.9577 30.674L15.9266 30.7338L15.9409 30.7912L15.9302 30.822L15.8835 30.8855L15.8811 30.9212L15.8429 31.031L15.8266 31.0704L15.7954 31.0716L15.7692 31.0523L15.7036 31.1003L15.6974 31.1441L15.6593 31.1478L15.6019 31.1048L15.5306 31.0929L15.5056 31.0835L15.5175 31.0429L15.4958 30.9974L15.4339 30.9642L15.3802 31.013L15.3322 31.0368L15.2929 30.9843L15.2703 30.9425L15.2917 30.89L15.249 30.8306L15.1798 30.7933L15.1355 30.7757L15.1047 30.7519L15.1461 30.6933L15.1105 30.6371L15.0855 30.6097L14.9662 30.5658L14.9019 30.5646L14.9088 30.5285L14.9006 30.5215L14.8707 30.5109L14.8457 30.4986L14.8125 30.4166L14.8314 30.3006L14.8002 30.3355L14.6584 30.2063L14.5485 30.1875L14.4998 30.1981L14.4793 30.1731L14.385 30.1981L14.3456 30.2293L14.2694 30.2256L14.2469 30.1731L14.2219 30.1137L14.1739 30.1408L14.1264 30.2137L14.1182 30.2736L14.1657 30.3018L14.2014 30.3211L14.21 30.3617L14.1932 30.4068L14.1432 30.4535L14.1264 30.4691L14.0272 30.4654L14.0296 30.4367L13.994 30.4428L13.9591 30.4859L13.9103 30.5371L13.8591 30.5847L13.8116 30.6634L13.8521 30.7015L13.8673 30.7544L13.9284 30.8486L13.9747 30.8794L14.0128 30.915L14.039 30.9368L14.0263 30.9999L14.0165 31.0954L13.9985 31.1323L13.9952 31.1622L13.9727 31.1823L13.9321 31.1765L13.9198 31.2159L13.9272 31.2479L13.9464 31.2946L13.9583 31.3184L13.9354 31.3376V31.3876L13.9185 31.3983L13.8903 31.3958L13.8784 31.4114L13.8472 31.4544L13.8136 31.4995L13.7948 31.5462L13.7566 31.5725L13.7468 31.6192L13.7075 31.6368L13.673 31.6573L13.6407 31.7012L13.6181 31.7311L13.5956 31.7561L13.5656 31.7836L13.5574 31.8184L13.5169 31.8541L13.4857 31.8696L13.4521 31.9246L13.4464 31.9697H13.4107L13.3627 31.9684L13.3964 31.9971L13.3771 32.0176L13.3627 31.9996L13.3414 32.0115L13.3484 32.0402L13.3209 32.0545L13.3533 32.0603L13.3509 32.0725L13.3677 32.0976L13.3845 32.1189L13.3734 32.157L13.339 32.1631L13.3058 32.1644L13.289 32.1512L13.2853 32.1762L13.3185 32.1976L13.3201 32.2201L13.3021 32.2525L13.2672 32.2693L13.2496 32.2574L13.2304 32.2586L13.2017 32.2599L13.2222 32.2799L13.2148 32.2992L13.2078 32.2824L13.1947 32.2812L13.1574 32.3398L13.1148 32.3193L13.1279 32.2873L13.1098 32.2668L13.0586 32.1976L13.0406 32.1799L13.0397 32.2369L13.018 32.2443L12.9918 32.2107L12.9955 32.1656L13.0131 32.1213L12.9967 32.1156L12.9955 32.0758L13.0397 32.0545L13.0324 32.0152L13.0049 32.0078L12.9811 31.9377L12.9442 31.8434L12.9332 31.7942L12.9037 31.6918L12.9049 31.6405L12.8631 31.6081L12.8332 31.5905L12.8401 31.5512L12.7889 31.5282L12.7532 31.4962L12.7327 31.4425L12.7565 31.4339L12.7782 31.3995L12.7844 31.3397L12.8221 31.3315L12.852 31.3339L12.8725 31.3483L12.9487 31.3184L13.0156 31.2909L13.0549 31.2503L13.0885 31.2073L13.0992 31.1741L13.1086 31.1478L13.1197 31.1216L13.1385 31.1048L13.1266 31.0786L13.1217 30.9675L13.1315 30.9249L13.1266 30.9044L13.1479 30.8605L13.1315 30.8089L13.1278 30.7695L13.093 30.7326L13.0668 30.7125L13.0274 30.6982L13.0119 30.6765L12.8963 30.6728L12.8258 30.6433L12.7708 30.642L12.6757 30.624L12.6159 30.6482L12.561 30.5978L12.511 30.5884L12.4454 30.5539L12.3786 30.5502L12.3056 30.574L12.2282 30.6015L12.1745 30.6158L12.122 30.6064L12.0863 30.6158L12.0433 30.6707L12.0277 30.6683L12.0158 30.6753L12.0052 30.7015L12.0015 30.7326L11.9859 30.7425L11.9658 30.7527V30.7662V30.7925L11.9408 30.8187L11.906 30.8712L11.8634 30.9511L11.8465 30.9868L11.8334 31.031L11.8097 31.0737L11.7461 31.0212L11.7379 30.9724L11.726 30.9019L11.7043 30.8675L11.6617 30.8388L11.6387 30.8031L11.5711 30.7933L11.5039 30.7806L11.4338 30.772L11.3776 30.7445L11.3727 30.6982L11.3383 30.672L11.269 30.6359H11.1952L11.1174 30.6265L11.0497 30.5646L10.9887 30.5523L10.9218 30.5347L10.8632 30.481L10.83 30.4355L10.7763 30.3486L10.7407 30.3187L10.6558 30.315L10.5972 30.2711L10.5509 30.2531L10.4247 30.2232L10.366 30.19L10.3349 30.1719H10.3148L10.3218 30.19L10.3005 30.1814L10.2742 30.1719L10.2562 30.19L10.2513 30.1637L10.2086 30.1494L10.1906 30.1658L10.1681 30.1707L10.157 30.2055L10.1369 30.2076L10.1406 30.1826L10.1189 30.1682L10.0832 30.1768L10.0689 30.165L10.0726 30.1408L10.0402 30.1158L9.9783 30.1219L9.97584 30.117L9.99388 30.0895L9.97215 30.0682V30.0539L9.96396 30.049L9.95207 30.0563L9.93527 30.0395V30.0322L9.91723 30.0334L9.89346 30.0408L9.86599 30.0289L9.8578 30.049L9.84222 30.0444L9.841 30.0215L9.80411 30.0084L9.79222 30.0051V30.0203L9.77541 30.0371L9.77419 30.0203L9.77296 30.0051L9.75165 29.994L9.73115 29.9932L9.69795 29.9907L9.66352 29.9739L9.64303 29.9858L9.62294 29.9813L9.58236 29.9977L9.58688 29.987L9.55942 29.9883L9.55572 29.9584L9.59302 29.9272L9.56802 29.9071L9.54629 29.8735L9.52006 29.8583L9.51064 29.7522L9.51638 29.7149L9.54999 29.696L9.52622 29.6841L9.51638 29.6649L9.54754 29.653L9.55123 29.6255L9.53319 29.6042L9.54877 29.5911L9.59058 29.5407L9.61558 29.4837L9.61435 29.4489L9.61558 29.4132L9.61189 29.3964L9.625 29.3583L9.63361 29.3534L9.62049 29.3345L9.58319 29.3095L9.58934 29.2702L9.56557 29.214L9.56926 29.2079L9.57131 29.1771L9.56926 29.1435L9.5668 29.0828L9.58566 29.0923L9.60861 29.0336L9.57377 28.9943L9.52008 28.9119L9.48442 28.8799L9.43441 28.8238L9.40326 28.8299L9.40572 28.8058L9.38645 28.7807L9.39834 28.7414L9.36883 28.7426L9.36513 28.7258L9.33521 28.7164L9.37825 28.6807L9.37579 28.6508L9.3389 28.6389L9.35448 28.6209V28.5615L9.32702 28.5364L9.31841 28.5041L9.30325 28.4766L9.28275 28.4709L9.28153 28.4516L9.27907 28.4291L9.2553 28.411L9.22906 28.386V28.3647L9.18603 28.3741L9.20529 28.3598L9.18152 28.3348L9.21226 28.3217L9.20529 28.2618L9.22906 28.2237L9.22087 28.1675L9.26473 28.1237L9.28768 28.0782L9.28276 28.0556L9.28891 27.9839L9.31596 27.8466L9.3426 27.7765L9.359 27.7286L9.40572 27.6749L9.42335 27.6404L9.46885 27.6044L9.49754 27.5749L9.53197 27.5187L9.52623 27.4843L9.44958 27.3658L9.39015 27.2871L9.34957 27.2478L9.334 27.2096L9.30407 27.1941L9.25981 27.1514L9.25529 27.1273L9.26595 27.099L9.26718 27.083L9.2889 27.0711L9.31964 27.0654L9.35202 27.0711L9.3508 27.0486L9.32456 27.0416L9.29464 26.9973L9.23972 26.983L9.19914 26.9674H9.14217L9.11347 26.9736L9.08232 26.9617L9.05117 26.9711L9.01305 27.0318L9.00363 27.0498L8.99748 27.0666L8.94747 27.0449L8.86755 26.9699L8.87615 26.9067L8.88066 26.7719L8.85689 26.7289L8.82451 26.7088L8.77081 26.6608L8.704 26.6178L8.66588 26.6108L8.60399 26.6026H8.54087L8.50849 26.6096L8.4798 26.6264L8.45233 26.6645L8.44741 26.7182L8.44657 26.7539L8.42034 26.7657L8.39411 26.7502L8.36419 26.7075L8.32607 26.6477L8.30557 26.6178L8.29861 26.5928L8.27688 26.5797L8.26622 26.5665L8.2363 26.537L8.23876 26.4977L8.2199 26.4378L8.22933 26.4141L8.22113 26.3759L8.23425 26.3399V26.2923L8.22687 26.2686L8.16703 26.2411L8.10882 26.2218L8.05636 26.2267L8.00717 26.2518L7.92888 26.2649L7.86781 26.285L7.84978 26.3723L7.81289 26.421L7.76165 26.4436L7.73173 26.4928L7.66123 26.5489L7.63418 26.6526L7.57802 26.6059L7.62311 26.4928L7.51449 26.4153L7.44809 26.3579L7.37636 26.3473L7.30012 26.3411L7.2702 26.3005L7.18413 26.3104L7.08288 26.3411L7.0173 26.3747L6.96361 26.4235L6.89803 26.3747L6.84064 26.3567L6.7226 26.3042L6.67833 26.2444L6.63898 26.1899L6.61398 26.1624L6.60578 26.1169L6.59718 26.0595L6.58529 26.0238L6.5734 26.0001L6.55537 25.957L6.53528 25.8915L6.51274 25.864L6.52216 25.8246L6.51971 25.7648L6.53774 25.741L6.52217 25.6947L6.51028 25.6623L6.47216 25.6062L6.41232 25.5275L6.341 25.4799L6.27623 25.4238L6.21065 25.4139L6.1463 25.4308L6.01842 25.4836L5.81962 25.5873L5.74298 25.6398L5.66305 25.716L5.61919 25.7566L5.62003 25.8021L5.60363 25.8451L5.48067 25.9308L5.38394 26.0694L5.28843 26.1407L5.27655 26.2304L5.26589 26.2743L5.24212 26.3018L5.23719 26.3247L5.21096 26.3341L5.1917 26.3387L5.19907 26.3173L5.1585 26.3268L5.11915 26.3567L5.07037 26.3616V26.3854L5.06054 26.3924H5.04414L5.03922 26.3628H5.02857L5.01996 26.3985L4.97733 26.3842L4.97488 26.3661L4.99127 26.3411L4.99291 26.3149L4.98061 26.2985L4.94495 26.2698L4.92118 26.2649L4.89249 26.2432L4.84248 26.2386L4.79822 26.2255L4.75313 26.1981L4.69574 26.1874L4.65025 26.1669L4.54532 26.1837L4.49654 26.2304L4.49531 26.1874L4.42973 26.1456L4.35226 26.0739L4.23627 26.037L4.14568 26.0132L3.9764 25.9583L3.89401 25.9271L3.78293 25.9226L3.60996 25.9128L3.5575 25.937L3.50872 25.9952L3.51938 26.0251L3.54315 26.037L3.55504 26.055L3.54315 26.0681L3.5038 26.1038L3.49315 26.178L3.487 26.2468L3.47142 26.2518L3.462 26.2337L3.45995 26.205L3.462 26.1874L3.44274 26.1669L3.462 26.1337L3.45626 26.1108L3.43126 26.1206H3.42142L3.39519 26.0837L3.42511 26.0431L3.44766 26.0157L3.46692 25.9653L3.45012 25.8841L3.462 25.8091L3.4907 25.7509L3.34396 25.5611L3.28329 25.525L3.25706 25.4463L3.2296 25.4119L3.17795 25.3775L3.13287 25.357L3.04925 25.3201L3.00293 25.3094L2.92505 25.2902L2.79389 25.2889L2.77955 25.3094L2.75577 25.3533L2.71642 25.3463L2.6533 25.339L2.63281 25.3463L2.5246 25.3377L2.46475 25.3103L2.4541 25.2971L2.42049 25.2914L2.38852 25.2865L2.35122 25.3476L2.29178 25.3246L2.19751 25.2447L2.12578 25.1852L2.00774 25.1229L1.9315 25.1209L1.74541 25.1135L1.68229 25.0647L1.65114 24.9762L1.58801 24.9381L1.53063 24.9049L1.44947 24.9061L1.42324 24.8955L1.44128 24.87L1.43758 24.8393L1.43143 24.8163L1.42201 24.7913L1.40069 24.7877L1.35889 24.7901L1.36011 24.7713L1.37446 24.7426L1.39332 24.7389L1.42898 24.7426L1.44824 24.727L1.47119 24.6971L1.48882 24.6913L1.49497 24.727L1.49824 24.7594L1.51996 24.7618L1.54825 24.7569L1.5962 24.7364L1.63924 24.6971L1.71097 24.7376L1.83476 24.7188L1.91222 24.6614L1.98395 24.6446L2.05076 24.6163L2.11143 24.5852L2.24505 24.5626L2.36925 24.5577L2.4336 24.5384L2.49918 24.4991L2.57911 24.4515L2.65575 24.3728L2.76314 24.1376L2.84758 23.9539L2.8607 23.7904L2.87504 23.7191L2.90127 23.6642L2.88488 23.5961L2.87053 23.5449L2.85496 23.51L2.86438 23.4818L2.85496 23.4674L2.8693 23.41L2.90496 23.36V23.3383L2.948 23.3313L2.98858 23.3383L3.05293 23.3121L3.07793 23.2932L3.08286 23.2703L3.09802 23.2514L3.11483 23.2309L3.13532 23.1989L3.18164 23.1571L3.19106 23.1366L3.18779 23.1202L3.19967 23.1211L3.21279 23.1453L3.24025 23.133L3.26894 23.1067L3.30583 23.0965L3.36281 23.0772L3.4083 23.0461L3.44888 22.9862L3.54562 22.9317L3.56488 22.9436L3.59111 22.9329L3.81163 22.8087L3.87598 22.6714L3.96657 22.5571L4.05018 22.421L4.09896 22.3898L4.11003 22.3566L4.09691 22.328L4.08953 22.3111L4.06576 22.2788L4.05141 22.248H4.06822L4.09445 22.273L4.13257 22.2968L4.13954 22.2669L4.15388 22.2443L4.14692 22.2312L4.11946 22.2025L4.15184 22.2005L4.19569 22.1763L4.21127 22.155L4.2293 22.198L4.24119 22.2169L4.26947 22.2206L4.32358 22.2267L4.34858 22.2279L4.41047 22.18L4.43917 22.1583L4.45351 22.1312L4.44859 22.1058L4.42482 22.0906L4.4199 22.0726V22.0558L4.44162 22.0357L4.45843 22.0488L4.47974 22.0537L4.49409 22.0595L4.51417 22.0656L4.54286 22.0677L4.56213 22.0558L4.57524 22.0308L4.57894 22.0107L4.57524 21.9783L4.56705 21.9652L4.55722 21.9558L4.54287 21.9402L4.51787 21.9234L4.51541 21.8816L4.50967 21.8447L4.53344 21.8385L4.57771 21.8648L4.58837 21.8697L4.60026 21.8648L4.60148 21.8402L4.58837 21.8283L4.60394 21.8148L4.62403 21.7959L4.64534 21.766L4.71338 21.8734L4.75396 21.8853L4.79003 21.9295L4.83512 22.0189L4.86873 22.0369L4.8675 22.0726L4.88758 22.1025L4.90193 22.1369L5.06547 22.3042L5.11425 22.3193L5.17983 22.3361L5.23599 22.3386L5.27165 22.3279L5.29952 22.2829L5.31591 22.2218L5.33969 22.2312L5.34214 22.2468L5.36592 22.248L5.39215 22.2169L5.40198 22.1742L5.37698 22.1251L5.36591 22.0931L5.34091 22.0669L5.33763 22.0345L5.32452 22.0115L5.33394 21.9894L5.39132 21.9308L5.40444 21.8672L5.39214 21.8545L5.38395 21.8283L5.40198 21.8123L5.42453 21.8004L5.43641 21.814L5.45076 21.8246L5.46018 21.8353L5.49256 21.8402L5.52822 21.841L5.59421 21.8328L5.64176 21.8103L5.65365 21.791L5.69669 21.7591L5.72989 21.7423L5.74915 21.7435L5.78235 21.7004L5.8467 21.6324L5.85285 21.6254L5.87417 21.5611L5.88646 21.5381H5.90163L5.92786 21.5631L5.95286 21.5906L5.97336 21.6049L6.01844 21.6168L6.04837 21.5894L6.11272 21.5332L6.12706 21.5156L6.14059 21.482L6.16682 21.4533L6.18322 21.4107L6.1783 21.3746L6.15247 21.3414L6.12829 21.3283L6.09017 21.3233L6.06394 21.2828L6.04713 21.2209L6.03894 21.191L5.96844 21.1647L5.97336 21.1241L5.9959 21.1098L6.03279 21.0873L6.07952 21.111L6.10001 21.1217L6.13075 21.1303L6.15248 21.1504L6.17379 21.1815L6.23815 21.161L6.27053 21.1327L6.29553 21.1086L6.32545 21.0659L6.32422 21.0872L6.38161 21.0668L6.38857 21.0229V21.011L6.36111 20.9835L6.35045 20.968L6.31233 20.9356L6.30988 20.8917L6.31439 20.8725L6.34103 20.8594L6.37178 20.8475L6.4017 20.8307L6.41358 20.8368L6.44719 20.845L6.47794 20.8249L6.49597 20.8044L6.60336 20.8368L6.65829 20.7782L6.68698 20.7831L6.69149 20.7138L6.72018 20.7233L6.76896 20.7352L6.81692 20.7294L6.83577 20.7257L6.82388 20.6946L6.8288 20.6888L6.83577 20.6757L6.83947 20.6589L6.87062 20.6565L6.86692 20.6683L6.85955 20.6851L6.86692 20.7425L6.8825 20.7544L6.90176 20.7339L6.93004 20.7544L6.95874 20.7688L6.99686 20.7757L7.02063 20.7614L7.03866 20.7376L7.05793 20.6946L7.06244 20.6782L7.06736 20.6544L7.09851 20.6733L7.1104 20.6827L7.12351 20.7114V20.722L7.13991 20.7532L7.15918 20.7819L7.20098 20.8138L7.24279 20.8249L7.30837 20.8138L7.42273 20.7651L7.46331 20.72L7.442 20.7032L7.4133 20.6806L7.40019 20.6339L7.37518 20.5753L7.35838 20.5458L7.37764 20.5314L7.46003 20.5335L7.50389 20.5445L7.55635 20.5896L7.58054 20.5741L7.6162 20.5577L7.62439 20.5314L7.62316 20.506L7.63177 20.4753L7.64365 20.4429L7.6412 20.4109L7.63423 20.3749L7.63507 20.3355L7.61744 20.3167L7.63425 20.2998L7.67934 20.2773L7.74123 20.2761L7.79165 20.24L7.80107 20.2654L7.83468 20.2867L7.8605 20.2986L7.85723 20.2593L7.87485 20.258L7.881 20.263L7.88223 20.3249L7.86912 20.3593L7.89781 20.3786L7.93839 20.3548L7.92527 20.4429L7.94904 20.5384L8.01216 20.5228L8.07652 20.5179L8.12775 20.5384L8.16013 20.5372L8.18391 20.5159L8.13636 20.4798L8.1589 20.4372L8.18063 20.4478L8.21383 20.4933V20.5015L8.17079 20.5708L8.1671 20.5876L8.12201 20.6401L8.19579 20.7044L8.26629 20.7614L8.31998 20.7569L8.3413 20.7462L8.31547 20.7208L8.29375 20.7032L8.2913 20.6851L8.31261 20.6913L8.34376 20.6946L8.3868 20.7376L8.4368 20.7089L8.45607 20.7032V20.7187L8.4573 20.7556L8.47164 20.7614L8.51222 20.7569H8.57165L8.64789 20.7327L8.71511 20.6864L8.75405 20.6327L8.7684 20.6015L8.78192 20.5491L8.72454 20.4597L8.71348 20.4372L8.72577 20.406L8.74955 20.3716L8.78192 20.3892L8.79832 20.3642L8.82004 20.3429L8.84505 20.3367L8.89382 20.3703L8.91678 20.3798L8.92252 20.3998L8.88891 20.4384L8.89628 20.4679L8.9176 20.5134L8.96555 20.5372H9.02376L9.12541 20.5445L9.18607 20.5322L9.17419 20.4679L9.23854 20.4408L9.29223 20.4191L9.35207 20.424L9.41766 20.406L9.49635 20.363L9.55251 20.3154L9.57628 20.2748L9.60743 20.24L9.6144 20.2224L9.61932 20.1744L9.62383 20.1338L9.60375 20.0564L9.60744 20.0252L9.61441 19.9871L9.63818 20.0207L9.65376 20.0314L9.68245 20.0408L9.70131 20.065L9.73 20.0351L9.74352 20.0039L9.74436 19.9838L9.79478 19.9707L9.82552 19.9576L9.84479 19.9633L9.87348 19.9764L9.89725 20.0158L9.89356 20.0338L9.84478 20.115L10.0165 20.2654L10.0403 20.2617L10.0497 20.3154L10.0546 20.3416L10.0678 20.338L10.0727 20.3535L10.076 20.3761V20.3941L10.0882 20.4142L10.094 20.4359L10.0727 20.4609L10.0739 20.5015L10.0821 20.5253L10.069 20.5491L10.0833 20.5609L10.1038 20.5777L10.0739 20.6241L10.0977 20.6696L10.1001 20.6958V20.747L10.1046 20.7831L10.1145 20.8274L10.112 20.8819L10.1739 20.9716L10.1919 21.011L10.2157 21.0467L10.2469 21.0548L10.3124 21.0503L10.3674 21.0417L10.4055 21.0253L10.453 20.9979L10.4748 20.9798L10.508 20.9667V20.9417L10.5055 20.9143L10.5092 20.8938L10.5067 20.8593L10.5129 20.8392L10.5141 20.8237L10.5391 20.7962L10.5272 20.7388L10.5223 20.7089L10.5391 20.697L10.5654 20.6646L10.5691 20.6544L10.5941 20.6421L10.5998 20.6232H10.6084L10.6166 20.6446L10.6359 20.6589L10.649 20.6782L10.6609 20.7044L10.6834 20.7306L10.6896 20.7532L10.7084 20.7519L10.7252 20.7306L10.7441 20.7187L10.7658 20.6958L10.7814 20.69L10.8064 20.6782L10.8363 20.6708L10.8469 20.6638L10.8478 20.6589L10.8515 20.6446L10.8539 20.6302L10.8757 20.604L10.8957 20.5859L10.9089 20.5634L10.915 20.5515L10.9281 20.5384L10.9326 20.5134L10.9433 20.4908L10.9556 20.4773L10.972 20.4728L10.99 20.4859L11.0126 20.5216L11.0245 20.5609V20.6052L11.0113 20.64L11.0175 20.6958L11.0544 20.7401L11.1618 20.7749L11.181 20.7532L11.2298 20.715L11.3585 20.6327L11.3847 20.6171L11.447 20.604L11.4827 20.6077L11.5077 20.6146L11.5688 20.6327L11.5983 20.6077L11.6401 20.5802L11.6225 20.5597L11.6294 20.5052L11.6413 20.4535L11.6856 20.3966L11.7024 20.413L11.7151 20.4322L11.7573 20.4335L11.7905 20.4085L11.8561 20.3703L11.8942 20.2892L11.9098 20.2904L11.9217 20.2654L11.9541 20.3093L11.9336 20.3474L12.116 20.2925L12.1197 20.2593L12.1176 20.2187L12.1414 20.2056L12.1877 20.2306L12.2226 20.2379L12.2545 20.2654L12.2676 20.2867L12.2713 20.3203L12.3119 20.3187L12.3238 20.3068L12.3607 20.2916L12.3918 20.2843L12.4156 20.283L12.4537 20.3203L12.498 20.3224L12.5136 20.3093L12.516 20.2818L12.5291 20.2556L12.5337 20.2343L12.5542 20.1998L12.573 20.1793L12.5861 20.1674L12.621 20.1031L12.6517 20.0838L12.6529 20.0793L12.6685 20.0519L12.6804 20.0482L12.7189 20.0625H12.7595L12.7796 20.0683L12.8321 20.0658L12.8509 20.0433L12.8546 20.0195L12.88 19.9969L12.9026 20.0014L12.9263 20.0146L12.9407 20.0601L12.9644 20.0683L12.987 20.0781L13.0206 20.1019L12.9776 20.1457L13.0087 20.1949L12.9431 20.3166L12.9538 20.3273L12.9489 20.3449L12.9382 20.3605L12.8976 20.3867L12.8751 20.4228L12.8952 20.4814L12.9038 20.5171L12.9849 20.5777L13.0493 20.6241L13.1255 20.6351L13.1805 20.6519L13.2247 20.6552L13.2641 20.6265L13.2661 20.6089L13.3067 20.5839L13.326 20.5683L13.3354 20.5609L13.3436 20.5552L13.369 20.5421L13.4358 20.5195H13.4571L13.4907 20.5146H13.5157L13.5477 20.5322L13.5944 20.5347L13.6457 20.5216L13.6875 20.5158L13.7231 20.5228L13.7375 20.5622L13.7768 20.6158L13.808 20.6613L13.876 20.9749L13.9236 21.0585L13.9559 21.1208L13.9855 21.1696L14.0215 21.2016L14.0404 21.2135L14.0764 21.2089L14.1433 21.1971L14.172 21.1921L14.1883 21.1766L14.1859 21.1085L14.2027 21.0979L14.2134 21.0847L14.2494 21.0179L14.2814 20.9741L14.2838 20.9581L14.2851 20.92L14.3076 20.8868L14.3138 20.84L14.3175 20.82L14.3412 20.8282L14.3732 20.8343H14.3912L14.4162 20.8257L14.4462 20.7995L14.4724 20.7843L14.4831 20.7712V20.7556L14.4843 20.7363V20.7269L14.4937 20.7163H14.4986L14.5343 20.7077L14.5478 20.6814L14.5593 20.6646L14.5761 20.6519L14.6097 20.6281L14.6286 20.6158L14.6323 20.597L14.6261 20.5876L14.6249 20.5732L14.6228 20.5564L14.6273 20.5253L14.6335 20.5228L14.6392 20.5179H14.6454H14.6573H14.6683L14.6741 20.5146L14.6823 20.5085L14.686 20.499V20.4908V20.4773L14.6941 20.4728L14.7216 20.4871L14.7302 20.4941L14.736 20.5027L14.7483 20.5158L14.7466 20.5302L14.7696 20.5277L14.7683 20.5158L14.7659 20.5035L14.7802 20.5003L14.7765 20.4822L14.797 20.4773L14.8077 20.4871L14.829 20.4966L14.847 20.5003L14.8552 20.5109L14.8688 20.5158L14.8757 20.5322L14.8876 20.5552L14.9151 20.574L14.9307 20.5851L14.945 20.5994L14.9663 20.6183L14.9876 20.6503L15.0044 20.6544L15.0212 20.6519L15.0368 20.6445L15.0676 20.6589L15.0831 20.6638L15.0913 20.6445L15.0807 20.6146L15.0831 20.5945L15.1155 20.5732L15.1454 20.597L15.1799 20.5933L15.211 20.5622L15.2012 20.5396L15.1979 20.5203L15.2036 20.5171L15.2254 20.5158L15.2405 20.5253L15.2647 20.5515L15.2848 20.5597L15.311 20.5609L15.3541 20.5851L15.3947 20.597L15.4352 20.5433L15.4852 20.5158L15.5377 20.4978L15.552 20.4716L15.5578 20.456L15.5627 20.4166L15.5857 20.4085L15.6021 20.424L15.6058 20.4359L15.6344 20.4765L15.6689 20.5052L15.6955 20.5314L15.7369 20.5433L15.773 20.5478L15.8132 20.5515L15.8455 20.5384L15.9017 20.5216L15.9242 20.4908L15.9636 20.4609L15.991 20.4265L16.0148 20.3966L16.0353 20.3847L16.046 20.3498L16.0554 20.2711L16.0534 20.2355L16.0279 20.1998L15.9804 20.1732L15.9579 20.1506L15.9529 20.1375L15.9447 20.1195L15.9337 20.0994L15.9173 20.0744L15.9074 20.0432L15.8874 20.0264L15.8755 20.0195L15.8636 20.0088L15.8611 19.9895L15.8742 19.9777L15.8931 19.9838L15.9111 20.0014L15.9316 20.0039L15.9648 20.0076L15.9984 19.9945H16.0148L16.0366 19.9871L16.0554 19.9826L16.0673 19.9846L16.0771 19.9727L16.0698 19.9408L16.089 19.9264L16.0829 19.9096L16.071 19.899L16.0734 19.8883L16.096 19.8752L16.1079 19.8477L16.1439 19.826L16.1415 19.801L16.1608 19.7785L16.1747 19.7522L16.2046 19.7604L16.2214 19.7678L16.2382 19.7641L16.2263 19.733L16.262 19.7678L16.294 19.7735L16.3083 19.7785L16.3169 19.7797L16.3325 19.7785L16.3227 19.7617L16.3218 19.751V19.7354L16.3239 19.7272L16.33 19.7166L16.3345 19.7047V19.6973L16.3419 19.6879L16.3476 19.6793L16.3526 19.6641L16.38 19.6543L16.3894 19.6424L16.4288 19.633L16.4755 19.6305L16.4956 19.6317L16.5386 19.6785L16.5673 19.6768L16.5723 19.6842L16.5866 19.6641L16.5616 19.6244V19.5936L16.5423 19.5743L16.5292 19.553L16.5436 19.5305L16.5723 19.5457L16.5854 19.5493L16.5973 19.5588L16.6186 19.5662L16.6391 19.558V19.5412L16.6186 19.5268L16.5973 19.5219L16.5723 19.503L16.5686 19.4944L16.5723 19.4793L16.5805 19.4875L16.6022 19.4862L16.5985 19.4743L16.6022 19.4551L16.6054 19.4457L16.6198 19.4411L16.6317 19.453L16.6329 19.4657L16.646 19.4776L16.6677 19.4911L16.6854 19.4981L16.7059 19.5256L16.7747 19.4981L16.7883 19.4895L16.8165 19.4612L16.8645 19.4088L16.8739 19.3907L16.8633 19.3596L16.862 19.3452L16.8608 19.3288L16.8571 19.3014L16.8633 19.2883L16.8776 19.2858H16.894L16.9096 19.2801L16.9215 19.2764L16.9301 19.2596L16.937 19.2477L16.9407 19.2296L16.942 19.2128L16.9575 19.201L16.9813 19.1928L16.9957 19.1784L17.0182 19.1698L17.0289 19.1571L17.042 19.1403L17.0719 19.1235V19.1055L17.0912 19.0985L17.1018 19.1296H17.1244L17.1387 19.1403L17.1506 19.1596L17.1281 19.1747L17.1235 19.1915L17.1375 19.2128L17.1449 19.2046L17.1613 19.1965L17.1781 19.2297L17.1924 19.2489L17.1961 19.2678L17.2199 19.2989L17.2555 19.3334L17.2842 19.3395L17.2986 19.3551L17.3117 19.385L17.3404 19.4362L17.3461 19.4481L17.3641 19.46L17.3822 19.4731L17.3965 19.4744L17.4084 19.4612L17.4121 19.4375L17.4359 19.4276L17.4371 19.4469L17.4416 19.4588L17.4539 19.4682L17.4633 19.4793L17.4859 19.4756L17.4908 19.4637L17.5015 19.46L17.5088 19.4612L17.5215 19.4625H17.5371L17.5515 19.46L17.5633 19.4563L17.5732 19.4539L17.5695 19.4682L17.5863 19.4731L17.6015 19.4719L17.615 19.4563L17.6388 19.4457L17.6494 19.4563L17.6707 19.4813L17.6912 19.5112L17.715 19.5219L17.7269 19.5268L17.7498 19.5588L17.7613 19.5842L17.7875 19.5912H17.8162L17.8367 19.6031L17.8654 19.6199L17.8941 19.6223L17.9179 19.6424L17.938 19.6748L17.9486 19.6949L17.956 19.7248L17.9585 19.7486L17.9441 19.7617L17.9392 19.7822L17.9322 19.8109L17.9298 19.8322L17.9142 19.856L17.9367 19.881V19.9097L17.9704 19.9465L17.9872 19.9752L18.0179 20.0002L18.049 20.0232L18.0933 20.0482L18.1208 20.0658L18.1577 20.0839L18.1933 20.0912L18.2257 20.0793L18.2532 20.0601L18.3233 20.0183L18.3425 19.9896L18.3724 19.9359L18.3901 19.9109L18.4163 19.8928L18.4761 19.8847L18.4975 19.8633L18.5286 19.8178L18.5512 19.7871V19.7617L18.5479 19.7416L18.5405 19.733L18.5598 19.7199L18.5729 19.6592V19.59L18.561 19.5613L18.5585 19.5281L18.5286 19.4994L18.5225 19.4551L18.5298 19.4375L18.5237 19.4157V19.3838L18.5118 19.3707L18.5048 19.3563L18.4917 19.3334L18.4606 19.3444L18.4249 19.3502L18.4057 19.3432L18.3987 19.3325L18.3889 19.3039L18.377 19.2821L18.3651 19.2559L18.3483 19.2428L18.3307 19.2358L18.2983 19.2321L18.2806 19.2272H18.2675L18.2507 19.2321L18.2351 19.2379L18.2163 19.2514L18.2126 19.2608L18.1765 19.2547L18.179 19.2428L18.1696 19.2215V19.2108L18.1622 19.1985L18.1515 19.1866L18.129 19.1715L18.1052 19.1559L18.0859 19.1403L18.0814 19.1284L18.0991 19.1091L18.1228 19.096L18.1409 19.0735L18.1601 19.0542L18.1527 19.0411L18.1552 19.028L18.1671 19.0198L18.1732 19.0005L18.1601 18.9923L18.1614 18.9768L18.1732 18.9686L18.1827 18.96L18.1864 18.9481V18.9362L18.1745 18.9243L18.1814 18.903L18.1946 18.8862L18.2064 18.8743L18.2171 18.8657L18.2314 18.8563L18.2495 18.8505L18.2794 18.8349L18.2888 18.8276L18.3056 18.812L18.315 18.7907L18.322 18.7739L18.32 18.7669L18.315 18.7562L18.3138 18.7444L18.2937 18.7144L18.2769 18.6989L18.272 18.6882L18.2708 18.6665L18.2757 18.6501L18.2794 18.6308L18.2901 18.6214V18.6021L18.2708 18.5833L18.2827 18.5558L18.2818 18.5296L18.3007 18.5054L18.3257 18.5283L18.3269 18.5128V18.4972L18.322 18.4804L18.2995 18.4517L18.2913 18.446L18.2818 18.4304L18.2589 18.4246L18.2351 18.4103L18.2269 18.4128L18.2101 18.4091L18.2077 18.3873L18.2113 18.3779L18.2183 18.3648L18.2245 18.3586L18.2339 18.3492L18.2421 18.3373L18.2531 18.3218L18.2708 18.2967V18.25L18.2683 18.2357L18.2638 18.2181L18.2577 18.2062L18.247 18.2012L18.2413 18.1976L18.2245 18.1881L18.2101 18.1824H18.1933L18.1863 18.1812L18.1757 18.1762L18.1777 18.1644L18.1826 18.1586L18.1708 18.1475L18.1576 18.1394V18.1275L18.1658 18.1156L18.1896 18.1107L18.2126 18.1037L18.2277 18.0881L18.2556 18.077L18.2913 18.0676L18.3364 18.057L18.3507 18.0451L18.3675 18.0246L18.3818 18.0127L18.3868 17.9975L18.3888 17.982L18.3962 17.9627V17.9508L18.3999 17.9209V17.902V17.891V17.8865H18.3749L18.3675 17.8815L18.3532 17.8803L18.3364 17.8778L18.3269 17.8721L18.3163 17.8647L18.3081 17.8602L18.3044 17.8553V17.8491V17.8446L18.3056 17.8364L18.3113 17.8266L18.3126 17.8209L18.3199 17.8147L18.3281 17.8078H18.345L18.3749 17.8135H18.3925L18.4236 17.8102L18.456 17.8147L18.4712 17.8209L18.5036 17.7778L18.5073 17.7479L18.5142 17.7455L18.5155 17.766L18.5273 17.7516L18.5466 17.7397V17.7217L18.5548 17.7098L18.5786 17.711L18.5823 17.7217L18.5917 17.7172L18.5991 17.7086L18.6048 17.7016L18.6179 17.7004L18.6228 17.6848L19.6648 17.0487L19.6172 16.9511L19.5803 16.8663L19.5361 16.7814L19.5504 16.7376L19.6521 16.7039L19.7459 16.6933L19.7197 16.4859L19.6578 16.4035L19.6816 16.3125L19.7283 16.2687L19.7484 16.2732L19.8119 16.2949L19.8189 16.2662L19.8045 16.2375L19.8201 16.2113L19.93 16.1994L19.9464 16.2055L19.9632 16.2424L19.9919 16.2543L20.08 16.2732L20.0791 16.3187L20.148 16.2961L20.1279 16.265L20.141 16.1682L20.2365 16.135L20.3665 16.1707L20.3866 16.2699L20.3702 16.3281L20.4808 16.3724L20.6255 16.3711L20.753 16.333L20.8448 16.2723L20.9522 16.0621L21.0178 15.9895L20.9989 15.9227L21.0559 15.8748L21.0633 15.8559L21.0202 15.8436L20.9952 15.7891L21.0596 15.7161L21.0514 15.6137L21.1207 15.6018L21.1862 15.4919L21.21 15.4702L21.1764 15.3796L21.2276 15.2353L21.5105 15.1673L21.606 15.1771L21.6658 15.1698L21.6908 15.1341L21.8007 14.9669L21.8802 14.875L21.9781 14.7726L22.0486 14.6758L22.1105 14.6664L22.1823 14.707L22.3064 14.7427L22.4089 14.7832L22.5114 14.8751L22.5057 14.923L22.7237 15.1648L22.7549 15.171L22.8073 15.1198L22.8692 15.1591H22.9504L22.9983 15.1136L23.041 15.0161L23.0865 14.9755L23.0365 14.8656L23.0151 14.7808L22.9983 14.7451L22.9459 14.682L22.8254 14.5492L22.8168 14.516L22.8291 14.5066L22.8258 14.4963L22.8145 14.461L22.7953 14.3942L22.8227 14.3405L22.8945 14.3598L22.9313 14.3536L22.9465 14.3311L23.0494 14.2737L23.0551 14.2286L23.067 14.2225L23.0793 14.2417L23.1724 14.1114L23.2736 14.1856L23.3248 14.1511L23.3572 14.188L23.4872 14.293L23.5745 14.2774L23.67 14.2405L23.7114 14.2425L23.7331 14.0901L23.7212 14.0151L23.7687 13.9622L23.7724 13.8872L23.8249 13.8347L23.8212 13.731H23.8593L23.9048 13.7896L23.9442 13.9003L24.0253 13.8946L24.1053 13.9216L24.1852 13.9122L24.2795 13.8146L24.3282 13.8454L24.3631 13.8347L24.6385 13.5662L24.7959 13.4445L24.8865 13.3383L25.0476 13.2264L25.1681 13.1416L25.2206 13.0941L25.2587 13.0711L25.321 13.0211L25.3841 12.9985L25.4152 12.9961L25.4222 13.0305L25.4402 13.026L25.4472 13.0568L25.4316 13.0641L25.4271 13.1154L25.4558 13.2609L25.4866 13.3051L25.4989 13.349L25.4161 13.5617L25.3923 13.6212L25.396 13.6429L25.3353 13.7691L25.2861 13.8191L25.2574 13.8741L25.18 13.9765L25.1599 13.9778L25.1205 14.0519L25.0607 14.0651L24.9795 14.1163L24.9402 14.1712L24.9164 14.2356L24.8914 14.2737L24.8603 14.479L24.8652 14.5254L24.8533 14.6282L24.9115 14.6975L25.0357 14.7365H25.1275L25.23 14.7651L25.3698 14.7344L25.5083 14.6877L25.6513 14.5004L25.7145 14.4729L25.8411 14.336L25.8887 14.2831L25.9485 14.238L25.9473 14.2762L26.0559 14.195L26.0735 14.1606L26.119 14.152L26.1559 14.1557L26.2096 14.2163L26.2428 14.1999L26.2465 14.2249H26.2764L26.3039 14.195L26.3264 14.2811L26.3289 14.3262L26.4031 14.3061L26.4289 14.3229L26.46 14.3299L26.5068 14.2594L26.5818 14.2036L26.608 14.1917V14.1688L26.6449 14.1606L26.6511 14.1757L26.7179 14.1618L26.7679 14.1401L26.7847 14.0901L26.8048 14.077L26.8289 14.0257L26.8408 13.9733L26.8253 13.954L26.8552 13.9253L26.9122 13.9397L26.9027 14.0434L26.8847 14.127L26.9589 14.1376L26.9363 14.2286L26.9158 14.2499L26.9122 14.2762L26.9482 14.3073L26.9376 14.3348L26.924 14.3598L26.9384 14.3811L26.9265 14.4073L26.9638 14.4123L26.9826 14.5348L26.9626 14.5889L27.0064 14.6975L26.9896 14.7619L27.0114 14.8082L27.1021 14.9419L27.1845 14.9788L27.2406 14.9681L27.3513 14.9062L27.3528 14.8709L27.3548 14.8225L27.4048 14.7438L27.4716 14.6901L27.479 14.7332L27.5733 14.6459L27.6139 14.6746H27.6782L27.7344 14.6434L27.7581 14.5983L27.8368 14.4635L27.8692 14.386L27.9106 14.3741L27.9873 14.3692H28.0397L28.0717 14.4053L28.0397 14.429L28.0779 14.4823L28.0768 14.4963L28.0744 14.5279L28.028 14.5877L27.967 14.6771L27.9276 14.7463L27.9038 14.807L27.8788 14.8943L27.8452 14.9693L27.8596 15.0161L27.8813 15.1329V15.2259L27.8194 15.3927L27.8337 15.5575L27.8251 15.6436L27.8694 15.7268L27.9731 15.8198L28.0592 15.8297L28.1268 15.8165L28.1662 15.8104L28.2309 15.8153L28.3285 15.7542L28.324 15.6493L28.3416 15.6124L28.3596 15.5243L28.349 15.4718L28.3834 15.4276L28.417 15.4083L28.4433 15.4321L28.5027 15.4276L28.6232 15.4599L28.6843 15.4477L28.7666 15.4251L28.8142 15.4321L28.8941 15.3796L28.9253 15.3677L28.9228 15.3046L28.9454 15.2603L29.0204 15.1509L29.0646 15.0685L29.0921 15.0074L29.1183 14.9956L29.1159 14.9312L29.0741 14.9025H29.0491L29.0251 14.8709L29.005 14.8439L28.9632 14.7533L28.9665 14.7057L28.987 14.5684L28.9976 14.4909L29.0694 14.4397L29.1349 14.461L29.1544 14.4963L29.1814 14.5459L29.2483 14.559L29.3081 14.5684L29.338 14.6127L29.3261 14.7476L29.2069 14.8476L29.2688 14.9431L29.4073 15.0324L29.4991 15.0386L29.5909 15.0062L29.6471 14.973L29.7101 14.867L29.7125 14.8631L29.7387 14.7606L29.7649 14.7094L29.7395 14.591L29.7281 14.4672L29.7182 14.4016L29.7051 14.3323L29.7039 14.2725L29.7051 14.2405L29.7674 14.2262L29.7768 14.1917L29.8186 14.1856L29.8363 14.2462L29.8244 14.2487L29.8232 14.2942L29.8625 14.3454L29.8662 14.393L29.9006 14.4721L29.9437 14.4897L29.9568 14.5159H29.9961L30.0629 14.5434L30.1466 14.5254L30.2445 14.5077L30.3208 14.4803L30.3638 14.511L30.365 14.5528L30.4232 14.5327L30.4064 14.4967L30.447 14.3991L30.4962 14.3503L30.52 14.3061L30.5237 14.2798L30.5487 14.2655L30.538 14.2417L30.6036 14.2155L30.631 14.2163L30.6392 14.2286L30.6081 14.2631L30.6204 14.2799L30.6524 14.2594L30.6679 14.2405L30.7073 14.2524L30.7274 14.3192L30.7552 14.3774L30.8097 14.436L30.8302 14.4946L30.854 14.5291L30.8384 14.584L30.8516 14.6115L30.8729 14.6172L30.8802 14.6426L30.8647 14.6533L30.8729 14.6602L30.9159 14.6545L30.9544 14.6721L30.9839 14.707L31.0327 14.7152L31.0676 14.7545L31.0963 14.75L31.0975 14.7152L31.1405 14.7094L31.1668 14.7246L31.2 14.6963L31.1676 14.6377L31.2204 14.6065L31.2618 14.5172L31.2692 14.4741L31.3549 14.4684L31.4791 14.4348L31.5246 14.4504L31.509 14.4754L31.5309 14.4963L31.5391 14.5041L31.5928 14.5434L31.6215 14.5828L31.644 14.6115L31.6928 14.6307L31.7141 14.6484L31.7428 14.6758L31.717 14.7082L31.6621 14.7914L31.6559 14.8369L31.6199 14.8619L31.6059 14.9193L31.5809 14.9181L31.5686 14.9418L31.4924 14.9443L31.4219 14.9931L31.3575 14.998L31.2657 15.0287L31.2026 15.0205L31.0677 15.1041L31.0284 15.1816L31.0079 15.221L31.0022 15.2415L30.9673 15.2783L30.9546 15.2771L30.9423 15.307L30.8972 15.3714L30.9161 15.4169L30.9554 15.4288L30.9878 15.4763L31.0366 15.5526L31.1452 15.6411L31.3588 15.7124L31.4961 15.7817L31.6104 15.801L31.7084 15.7792L31.8301 15.7292L31.9232 15.6911L31.9818 15.66L32.0961 15.6136H32.213H32.3322L32.447 15.6018L32.4888 15.5526L32.5294 15.4894L32.5552 15.4189L32.647 15.314L32.7618 15.264L32.8454 15.2271L32.8929 15.1997L32.9372 15.2177L33.059 15.246L33.1184 15.2304L33.1639 15.1984L33.1782 15.1341L33.2413 15.0574L33.2762 15.0267L33.3188 14.9906L33.3594 14.95L33.3955 14.9218L33.4311 14.9049L33.4668 14.9205L33.5024 15.0193L33.5242 15.0755L33.5311 15.1111L33.5324 15.1697L33.5348 15.2058L33.543 15.2271L33.5873 15.2865L33.6852 15.332L33.7283 15.3091L33.759 15.2853L33.7808 15.2722L33.8451 15.2902L33.9033 15.3083L33.9201 15.362L33.9283 15.4312L33.9894 15.4189L33.9738 15.387L34.0168 15.3271L34.0693 15.2829L34.1144 15.3021L34.105 15.3234L34.116 15.3882L34.1828 15.4226L34.2267 15.4239L34.3009 15.4345L34.3165 15.498L34.3329 15.53L34.3365 15.5837L34.3316 15.6181L34.3677 15.6612L34.4083 15.7329L34.4333 15.7649L34.4402 15.8091L34.5239 15.8354L34.6144 15.8198L34.6468 15.803L34.63 15.6829L34.6231 15.6231L34.6837 15.5444L34.7649 15.4058L34.7768 15.3415V15.2533L34.7731 15.2259L34.735 15.2091L34.7292 15.1734L34.7481 15.141L34.7956 15.1185L34.81 15.1292L34.8186 15.1697L34.8137 15.2066L34.8649 15.2247L34.8579 15.2652L34.8854 15.2939L34.9653 15.3058L35.0141 15.3308L35.0489 15.2915L35.1039 15.2902L35.119 15.3402L35.1395 15.3546L35.1563 15.3427L35.1789 15.3513L35.2276 15.4095L35.2719 15.4464L35.2756 15.4644L35.4711 15.4845L35.5129 15.4739L35.5441 15.4456L35.551 15.4177L35.5174 15.3976L35.5605 15.3702L35.5846 15.3308L35.5965 15.3091L35.6142 15.2997L35.6179 15.3357L35.6166 15.3808L35.5867 15.4333L35.7179 15.5132L35.9433 15.6481L36.1843 15.753L36.231 15.7759L36.3048 15.7604L36.4659 15.6923L36.4889 15.6599L36.5089 15.6399L36.5257 15.6587L36.4839 15.7591L36.5208 15.9141L36.5401 15.937L36.5196 16.1014L36.5364 16.1912L36.5926 16.2875L36.6676 16.2994L36.7463 16.3174L36.8885 16.2936L36.9971 16.2768L37.0483 16.2662L37.1725 16.2207L37.1939 16.2362L37.2701 16.1994L37.2795 16.1719L37.3144 16.1514L37.398 16.0563L37.4144 15.9895L37.3668 15.8702L37.3476 15.7805L37.2258 15.6231L37.2558 15.5489L37.2582 15.2652L37.2357 15.189L37.2607 15.1541L37.2894 15.1509L37.423 15.0041L37.4767 14.8726L37.473 14.7664L37.4755 14.7414L37.498 14.7127L37.523 14.6996L37.5611 14.7127L37.6685 14.8131L37.7402 14.8476L37.8439 14.8439L37.9194 14.8176L38.0181 14.7463L38.0636 14.6115L38.1453 14.4955L38.2828 14.4229Z" fill="#92D050" stroke="#92D050" stroke-width="0.6" stroke-linecap="round"/>
<path d="M31.9804 14.7377L32.0087 14.7246L32.03 14.693L32.0563 14.6733L32.1009 14.6717L32.1493 14.675L32.1706 14.6602L32.1928 14.6274L32.2235 14.6213L32.2866 14.5963L32.3379 14.575L32.328 14.552L32.3096 14.5389L32.2981 14.5159L32.3112 14.4909L32.301 14.4495L32.2813 14.4336L32.2608 14.4176L32.2661 14.3786L32.2616 14.3397L32.2547 14.2671L32.2186 14.2585L32.1936 14.2799L32.1944 14.3204L32.2096 14.3602L32.1821 14.3672L32.1584 14.3626L32.1301 14.3754L32.128 14.3442L32.1079 14.3549L32.0768 14.3831L32.0752 14.4151L32.0235 14.4512L31.9768 14.5016L31.9333 14.5475L31.9165 14.5848L31.8911 14.6258L31.8981 14.6779L31.8972 14.7238L31.9804 14.7377Z" fill="#92D050" stroke="#92D050" stroke-width="0.3"/>
<path d="M25.4646 12.8822L25.4794 12.8482L25.4839 12.8137L25.4892 12.783L25.4872 12.7391L25.4782 12.7346L25.4839 12.7158L25.4958 12.6932L25.4892 12.6686L25.4995 12.6449L25.5323 12.6363L25.5429 12.608L25.5409 12.5662L25.5335 12.5461L25.5122 12.5514L25.5015 12.5485L25.513 12.5207L25.522 12.4866L25.5257 12.462L25.5364 12.4411L25.5425 12.4174L25.5573 12.3866L25.5634 12.3629L25.563 12.2817L25.5593 12.2637L25.547 12.2628L25.5433 12.2202L25.536 12.1624L25.5183 12.0858L25.5105 12.0251L25.4921 11.989L25.4872 11.962L25.4925 11.9234L25.4929 11.8878L25.4847 11.8427L25.4852 11.8148L25.472 11.7833L25.4466 11.764L25.4356 11.748L25.4183 11.705L25.4073 11.6759L25.3819 11.6578L25.3687 11.664L25.3667 11.6849L25.3892 11.7062L25.411 11.7443L25.4167 11.7644L25.4106 11.7845L25.4138 11.8185L25.4253 11.823L25.4397 11.8329L25.4343 11.8743L25.4433 11.9193L25.4528 11.9386L25.4503 11.9599L25.4577 12.0034L25.4704 12.0226L25.4729 12.0579L25.4671 12.0911L25.4614 12.1325L25.4638 12.1829L25.4798 12.2526L25.4856 12.3083L25.4892 12.3792L25.4835 12.4321L25.4614 12.4924L25.4286 12.5506L25.4048 12.5993L25.3823 12.6793L25.3802 12.7182L25.3925 12.7891L25.4089 12.8637L25.4306 12.8912L25.4646 12.8822Z" fill="#92D050" stroke="#92D050" stroke-width="0.3"/>
</svg>
