<svg width="59" height="318" viewBox="0 0 59 318" fill="none" xmlns="http://www.w3.org/2000/svg">
<path fill-rule="evenodd" clip-rule="evenodd" d="M1 1.10348L1.52909 1L1.78134 1.1456C1.78743 1.31324 1.68127 1.57681 1.55271 1.68736H1.20842C1.17506 1.49403 1.09959 1.27319 1 1.10348Z" fill="#92D050" stroke="#92D050" stroke-width="1.9843" stroke-miterlimit="3.86369" stroke-linejoin="round"/>
<path fill-rule="evenodd" clip-rule="evenodd" d="M16.3329 26.2234C16.354 26.3533 16.2954 26.7113 16.4013 26.7868C16.3699 26.8254 16.3372 26.8661 16.299 26.8984C16.1549 26.6612 16.179 26.4364 16.3329 26.2234Z" fill="#92D050" stroke="#92D050" stroke-width="1.9843" stroke-miterlimit="3.86369" stroke-linejoin="round"/>
<path fill-rule="evenodd" clip-rule="evenodd" d="M17.1231 27.0007C17.1126 26.8071 17.1604 26.6166 17.147 26.4263L17.3417 26.3473C17.4218 26.4818 17.4126 26.7051 17.3417 26.8428C17.2646 26.8876 17.1908 26.9426 17.1231 27.0007Z" fill="#92D050" stroke="#92D050" stroke-width="1.9843" stroke-miterlimit="3.86369" stroke-linejoin="round"/>
<path fill-rule="evenodd" clip-rule="evenodd" d="M24.8768 42.4688L24.7402 42.4442C24.7957 42.286 24.8376 42.0741 24.8201 41.9052C24.9431 41.7146 25.0207 41.5953 25.1846 41.4505C25.6119 41.3245 25.9864 41.7511 26.0638 42.1325C26.0171 42.3054 25.9472 42.4477 25.8595 42.6008C25.5995 42.8001 25.0814 42.7038 24.8768 42.4688Z" fill="#92D050" stroke="#92D050" stroke-width="1.9843" stroke-miterlimit="3.86369" stroke-linejoin="round"/>
<path fill-rule="evenodd" clip-rule="evenodd" d="M37.9024 86.344L37.9822 86.6488C38.1609 86.7725 38.3937 86.8368 38.5602 86.9536C38.8851 87.1818 38.8819 88.2524 38.9089 88.6198C38.7275 88.6843 38.7273 89.145 38.758 89.295C38.6674 89.5735 38.3589 89.6161 38.0986 89.6529C37.9815 89.8024 37.942 90.0023 37.8118 90.1374C36.4164 90.5024 35.7246 87.3028 36.6952 86.5551L36.8671 86.5115C36.9109 86.3761 36.9469 86.296 36.936 86.1506L37.9024 86.344Z" fill="#92D050" stroke="#92D050" stroke-width="1.9843" stroke-miterlimit="3.86369" stroke-linejoin="round"/>
<path fill-rule="evenodd" clip-rule="evenodd" d="M40.3019 123.371C40.1748 123.338 40.0382 123.303 39.9058 123.303C39.9773 123.024 40.4129 121.837 40.5342 121.651C40.5576 121.615 40.8164 121.469 40.8505 121.449C41.6615 121.713 42.2768 120.093 42.2186 119.476C42.1845 119.111 42.0806 118.829 42.0168 118.471C42.111 118.125 42.2963 117.849 42.4962 117.561C43.3924 117.292 45.0511 118.124 44.4957 119.187C44.3282 119.507 44.1777 119.902 43.9369 120.175L43.8896 120.648L43.822 120.659L43.607 120.366C43.3808 120.275 42.905 120.284 42.7458 120.498C42.4991 120.829 42.1305 121.21 41.9384 121.565C41.5042 122.369 41.9561 122.48 40.7448 123.114C40.5941 123.193 40.4492 123.286 40.3019 123.371Z" fill="#92D050" stroke="#92D050" stroke-width="1.9843" stroke-miterlimit="3.86369" stroke-linejoin="round"/>
<path fill-rule="evenodd" clip-rule="evenodd" d="M45.4652 144.322C45.5339 144.388 46.2154 144.796 46.2885 144.831L46.389 145.101C46.3418 145.697 45.6863 145.966 45.1777 145.998C45.0776 145.77 44.979 145.542 44.8872 145.31C45.0277 144.864 45.0874 144.645 45.4652 144.322Z" fill="#92D050" stroke="#92D050" stroke-width="1.9843" stroke-miterlimit="3.86369" stroke-linejoin="round"/>
<path fill-rule="evenodd" clip-rule="evenodd" d="M45.8271 159.741C45.7114 159.475 45.8794 159.134 46.1069 158.983C46.1556 158.995 46.2483 159.126 46.2505 159.176C46.344 159.145 46.4572 159.12 46.5347 159.197C46.5215 159.527 46.4122 159.661 46.1736 159.846C46.0309 159.823 45.9423 159.821 45.8271 159.741Z" fill="#92D050" stroke="#92D050" stroke-width="1.9843" stroke-miterlimit="3.86369" stroke-linejoin="round"/>
<path fill-rule="evenodd" clip-rule="evenodd" d="M46.4563 180.075L46.4894 180.379C46.4271 180.487 46.2301 180.599 46.1176 180.636L45.9725 180.602L45.9155 180.444C45.9365 180.326 46.0326 180.127 46.1422 180.063L46.4563 180.075Z" fill="#92D050" stroke="#92D050" stroke-width="1.9843" stroke-miterlimit="3.86369" stroke-linejoin="round"/>
<path fill-rule="evenodd" clip-rule="evenodd" d="M43.052 189.282C42.9431 189.066 42.7598 188.872 42.6724 188.652L42.8311 188.359C42.9911 188.321 43.0853 188.18 43.2353 188.147C43.3273 188.572 43.4259 188.898 43.5012 189.35L43.3999 189.395C43.3261 189.306 43.1576 189.306 43.052 189.282Z" fill="#92D050" stroke="#92D050" stroke-width="1.9843" stroke-miterlimit="3.86369" stroke-linejoin="round"/>
<path fill-rule="evenodd" clip-rule="evenodd" d="M39.7465 205.705L39.8234 205.929C39.8232 206.178 39.4735 206.642 39.2727 206.804C38.8573 206.896 37.8442 206.6 37.5581 206.924L37.5471 206.823C37.3905 206.785 37.1023 206.835 36.9856 206.957C36.7412 206.986 35.8493 206.602 35.7319 206.37C35.7431 206.062 35.7283 205.692 35.87 205.415C36.1554 205.062 37.7757 205.392 37.8656 205.374C38.6528 205.21 38.4675 205.229 39.1195 205.455C39.3391 205.531 39.5515 205.564 39.7465 205.705Z" fill="#92D050" stroke="#92D050" stroke-width="1.9843" stroke-miterlimit="3.86369" stroke-linejoin="round"/>
<path fill-rule="evenodd" clip-rule="evenodd" d="M56.6883 222.564L57.2686 222.438C57.2992 222.506 57.3129 222.59 57.3117 222.664C57.0687 222.896 56.8213 222.906 56.7044 223.268L56.5043 223.356C56.4848 223.434 56.3879 223.533 56.3117 223.557L56.2793 223.489C56.524 223.081 56.5861 223.063 56.6883 222.564Z" fill="#92D050" stroke="#92D050" stroke-width="1.9843" stroke-miterlimit="3.86369" stroke-linejoin="round"/>
<path fill-rule="evenodd" clip-rule="evenodd" d="M41.7338 267.882C41.3693 266.969 40.3039 267.512 40.0221 267.385C39.9128 267.129 39.3635 266.75 39.1385 266.617C39.1354 266.596 39.114 266.48 39.1176 266.47C39.2384 266.134 39.3947 265.781 39.4894 265.438C39.5564 265.196 39.5352 264.871 39.6231 264.641C39.6706 264.516 39.9357 264.241 39.9983 264.105C40.1702 263.73 40.2802 263.183 40.3521 262.769C40.1741 262.304 40.2194 262.49 40.2508 261.967L40.3988 261.789L40.4994 261.825L40.7468 261.669L40.7906 261.771C40.9744 261.627 41.7509 260.717 41.9776 260.729L42.0803 260.55C43.8203 260.071 43.5006 258.745 44.7698 258.333C45.016 258.434 45.3354 258.729 45.4428 258.974L45.688 259.056C45.7209 259.215 45.6848 259.811 45.5305 259.888C45.4372 259.796 44.9892 259.838 44.8721 259.856L44.7282 260.496L44.8146 260.723L44.7572 260.846C44.3688 260.925 44.26 261.393 43.765 261.52C43.6364 261.804 43.4828 262.112 43.4068 262.417L43.4918 262.756L43.2968 263.056L43.3033 263.44L43.578 263.714L43.6174 264.121L43.6829 264.212L44.0389 264.352L44.0676 264.656C43.7986 264.904 43.8203 264.969 43.7355 265.283L43.0883 265.173C42.9922 265.017 42.8772 264.857 42.7945 264.695C42.5242 264.567 42.0769 264.826 41.8741 264.975L41.6123 265.512C41.6552 266.001 41.7234 266.309 42.243 266.546C42.2106 266.995 41.9649 267.389 41.9574 267.805L41.8675 267.917C41.8466 267.911 41.7499 267.877 41.7338 267.882Z" fill="#92D050" stroke="#92D050" stroke-width="1.9843" stroke-miterlimit="3.86369" stroke-linejoin="round"/>
<path fill-rule="evenodd" clip-rule="evenodd" d="M37.7791 274.681C37.9067 274.799 37.9101 274.898 37.9308 275.054C37.7567 275.149 37.6572 275.123 37.4504 275.115C37.2376 275.837 37.2026 275.757 36.6518 276.367L36.3742 276.25C36.2145 276.163 36.3472 274.676 35.9883 274.227C35.8641 274.154 35.6465 274.062 35.5447 273.963C35.3054 273.732 35.5016 273.068 34.9896 272.952L34.6431 273.072L34.554 273.036C34.4174 272.845 34.2667 272.645 34.16 272.435L34.2635 272.221C34.3041 272.062 34.1154 271.779 34.0132 271.678C34.0867 270.963 34.8761 270.371 34.7071 269.895C34.7879 269.679 35.0188 269.542 35.1269 269.348C35.543 268.601 36.3182 268.246 36.7597 267.51C36.7738 267.487 36.8181 267.461 36.8395 267.443C37.9532 267.553 37.4173 268.996 37.6569 269.595C37.6591 269.769 37.3268 270.075 37.204 270.164C37.0762 270.879 37.3526 271.582 38.1429 271.754C38.2829 272.01 38.3881 272.443 38.2961 272.737C38.0908 273.393 37.9087 274.008 37.7791 274.681Z" fill="#92D050" stroke="#92D050" stroke-width="1.9843" stroke-miterlimit="3.86369" stroke-linejoin="round"/>
<path fill-rule="evenodd" clip-rule="evenodd" d="M33.5136 279.144C33.6341 279.157 33.817 279.25 33.889 279.351L33.8659 279.519L33.0975 280.265C32.7266 280.246 32.1703 280.471 32.0685 280.454L31.8917 280.317L31.8516 280.001L32.0225 279.688C32.3885 279.5 33.2925 279.358 33.5136 279.144Z" fill="#92D050" stroke="#92D050" stroke-width="1.9843" stroke-miterlimit="3.86369" stroke-linejoin="round"/>
<path fill-rule="evenodd" clip-rule="evenodd" d="M18.2426 311.708C18.8564 312.021 19.7052 311.887 20.2267 312.307C20.2467 312.375 20.0867 313.495 20.0772 313.625L19.7386 314.094C19.4194 314.223 19.0476 314.026 18.7581 314.105L17.9219 314.332L17.5151 314.935L17.5538 315.32C17.4764 315.429 17.258 315.504 17.1304 315.495C17.0602 315.645 16.8163 316.035 16.6329 316.076C16.3678 315.914 15.9246 316.241 15.5645 316.064C15.3515 316.187 14.8643 316.391 14.6054 316.346L14.4847 316.197C14.5188 316.004 14.566 315.552 14.4839 315.363C14.3176 315.248 13.7455 314.894 13.5319 314.923C13.0537 315.107 12.8638 315.98 12.3622 316.038C12.3255 315.894 12.3427 315.611 12.4355 315.487C12.5867 315.284 12.8548 315.134 12.998 314.928C13.3758 314.384 13.6834 313.805 14.0963 313.272C14.7216 313.052 14.9568 313.383 16.0461 312.956C16.5738 312.749 16.874 312.423 17.3028 312.103C17.4379 312.002 17.6738 311.922 17.8292 311.826C17.8608 311.807 18.1844 311.725 18.2426 311.708Z" fill="#92D050" stroke="#92D050" stroke-width="1.9843" stroke-miterlimit="3.86369" stroke-linejoin="round"/>
</svg>
