<svg width="124" height="197" viewBox="0 0 124 197" fill="none" xmlns="http://www.w3.org/2000/svg">
<g clip-path="url(#clip0)">
<path fill-rule="evenodd" clip-rule="evenodd" d="M113.298 0.487065C113.322 0.462711 113.371 0.462711 113.396 0.462711V0.487065C113.347 0.584481 113.127 0.511419 113.078 0.462711H113.054V0.414002L113.078 0.389648C113.151 0.438357 113.225 0.462711 113.298 0.487065Z" fill="#92D050" stroke="#92D050" stroke-miterlimit="3.8637" stroke-linejoin="round"/>
<path fill-rule="evenodd" clip-rule="evenodd" d="M114.349 0.608767C114.373 0.584413 114.593 0.560059 114.617 0.560059L114.569 0.657475C114.495 0.657475 114.398 0.681829 114.324 0.681829L114.349 0.608767Z" fill="#92D050" stroke="#92D050" stroke-miterlimit="3.8637" stroke-linejoin="round"/>
<path fill-rule="evenodd" clip-rule="evenodd" d="M113.616 0.38965C113.64 0.365296 113.689 0.340942 113.713 0.340942C113.982 0.487067 113.909 0.462713 114.227 0.608837L114.202 0.657545C114.007 0.584483 113.811 0.438359 113.616 0.38965Z" fill="#92D050" stroke="#92D050" stroke-miterlimit="3.8637" stroke-linejoin="round"/>
<path fill-rule="evenodd" clip-rule="evenodd" d="M112.907 0.779303C112.907 0.730595 112.907 0.657533 112.932 0.633179C112.956 0.657533 112.981 0.730595 113.005 0.754949C112.956 0.779303 112.932 0.779303 112.907 0.779303Z" fill="#92D050" stroke="#92D050" stroke-miterlimit="3.8637" stroke-linejoin="round"/>
<path fill-rule="evenodd" clip-rule="evenodd" d="M114.666 0.706239L114.715 0.681885L114.69 0.754947L114.715 0.779301L114.69 0.828009L114.666 0.803655L114.642 0.779301L114.666 0.706239Z" fill="#92D050" stroke="#92D050" stroke-miterlimit="3.8637" stroke-linejoin="round"/>
<path fill-rule="evenodd" clip-rule="evenodd" d="M114.739 1.19331C114.739 1.1446 114.69 0.998477 114.642 0.974123L114.666 0.925415C114.69 0.949769 114.764 0.998477 114.764 1.02283V1.12025L114.739 1.19331Z" fill="#92D050" stroke="#92D050" stroke-miterlimit="3.8637" stroke-linejoin="round"/>
<path fill-rule="evenodd" clip-rule="evenodd" d="M114.813 1.21765L114.935 1.43684C115.008 1.48555 115.008 1.48555 115.082 1.55861L115.033 1.58296L114.935 1.53425L114.862 1.46119L114.837 1.43684L114.789 1.29071L114.813 1.21765Z" fill="#92D050" stroke="#92D050" stroke-miterlimit="3.8637" stroke-linejoin="round"/>
<path fill-rule="evenodd" clip-rule="evenodd" d="M112.907 1.26648C112.932 1.29083 112.932 1.33954 112.932 1.3639C113.029 1.43696 113.298 1.82662 113.298 1.94839L113.249 2.02146C113.2 1.77791 112.932 1.53437 112.834 1.29083L112.907 1.26648Z" fill="#92D050" stroke="#92D050" stroke-miterlimit="3.8637" stroke-linejoin="round"/>
<path fill-rule="evenodd" clip-rule="evenodd" d="M115.277 2.14314L115.253 2.11878L115.277 1.99701L115.229 1.9483L115.277 1.92395L115.351 1.99701C115.326 2.02137 115.302 2.14314 115.277 2.14314Z" fill="#92D050" stroke="#92D050" stroke-miterlimit="3.8637" stroke-linejoin="round"/>
<path fill-rule="evenodd" clip-rule="evenodd" d="M113.787 2.43544C113.787 2.36238 113.762 2.24061 113.738 2.1919L113.689 2.14319L113.738 2.09448H113.762C113.811 2.1919 113.884 2.31367 113.86 2.41108C113.958 2.53286 114.055 2.65463 114.153 2.75204V2.80075L114.104 2.8251L113.787 2.43544Z" fill="#92D050" stroke="#92D050" stroke-miterlimit="3.8637" stroke-linejoin="round"/>
<path fill-rule="evenodd" clip-rule="evenodd" d="M114.789 2.80066L114.764 2.84937C114.715 2.87372 114.691 2.89808 114.642 2.89808L114.618 2.84937C114.642 2.82501 114.74 2.80066 114.789 2.80066Z" fill="#92D050" stroke="#92D050" stroke-miterlimit="3.8637" stroke-linejoin="round"/>
<path fill-rule="evenodd" clip-rule="evenodd" d="M69.1226 16.2928C69.147 16.2684 69.1959 16.2684 69.2203 16.2684C69.318 16.2928 69.3914 16.3902 69.4402 16.4633C69.4402 16.512 69.4402 16.5607 69.4646 16.6094L69.4402 16.6581H69.3913C69.4646 16.5607 69.3669 16.4146 69.2692 16.3902L69.2203 16.4146C69.1714 16.4633 69.147 16.585 69.147 16.6337L69.0981 16.6094C69.0981 16.4633 69.1226 16.3658 69.1226 16.2928Z" fill="#92D050" stroke="#92D050" stroke-miterlimit="3.8637" stroke-linejoin="round"/>
<path fill-rule="evenodd" clip-rule="evenodd" d="M69.4158 16.6338C69.5624 16.8043 69.3181 16.9747 69.147 16.926C69.1226 16.9017 69.0981 16.8773 69.0981 16.853L69.1226 16.8043L69.1715 16.7799C69.2203 16.7799 69.2692 16.7799 69.2936 16.7799C69.3181 16.8043 69.3914 16.6581 69.4158 16.6338Z" fill="#92D050" stroke="#92D050" stroke-miterlimit="3.8637" stroke-linejoin="round"/>
<path fill-rule="evenodd" clip-rule="evenodd" d="M70.4907 21.8699C70.8084 22.016 70.9305 22.3082 71.1993 22.5274C71.2482 22.5518 71.297 22.6248 71.3215 22.6736L71.297 22.7223C71.2726 22.7223 71.2482 22.6979 71.2237 22.6979C71.1993 22.6736 71.1993 22.6492 71.1749 22.6249C71.126 22.5761 71.0527 22.5274 71.0038 22.4787C70.8084 22.3326 70.7595 22.0404 70.4663 21.9429L70.4907 21.8699Z" fill="#92D050" stroke="#92D050" stroke-miterlimit="3.8637" stroke-linejoin="round"/>
<path fill-rule="evenodd" clip-rule="evenodd" d="M70.1243 22.3569H70.1731L70.1975 22.4056C70.1975 22.4787 70.1243 22.5761 70.1243 22.6735C70.1243 22.7466 70.1731 22.8197 70.1487 22.8684H70.1243C70.0754 22.6735 70.1243 22.5274 70.1243 22.3569Z" fill="#92D050" stroke="#92D050" stroke-miterlimit="3.8637" stroke-linejoin="round"/>
<path fill-rule="evenodd" clip-rule="evenodd" d="M0.708496 29.6633C0.73293 29.6389 0.757363 29.5902 0.781797 29.5659C0.855097 29.5659 0.903964 29.4928 0.977264 29.4928L1.0017 29.5172C1.0017 29.5415 0.928397 29.6876 0.903964 29.712C0.87953 29.712 0.830663 29.7363 0.80623 29.7363C0.80623 29.712 0.781797 29.6876 0.757363 29.6633H0.708496Z" fill="#92D050" stroke="#92D050" stroke-miterlimit="3.8637" stroke-linejoin="round"/>
<path fill-rule="evenodd" clip-rule="evenodd" d="M0.537734 30.2964V30.3694C0.488867 30.3694 0.415566 30.3694 0.366699 30.3451V30.2964H0.537734Z" fill="#92D050" stroke="#92D050" stroke-miterlimit="3.8637" stroke-linejoin="round"/>
<path fill-rule="evenodd" clip-rule="evenodd" d="M0.904355 30.4426C0.977656 30.467 1.07539 30.467 1.14869 30.5157L1.17312 30.5644L1.14869 30.6131C1.12426 30.6375 1.07539 30.6618 1.05096 30.6862C0.977656 30.6862 0.928789 30.6862 0.855488 30.6862L0.831055 30.6375L0.855488 30.6131C0.904355 30.6131 0.977656 30.6375 1.02652 30.5888V30.5644C0.977656 30.54 0.928789 30.54 0.904355 30.5157V30.4913V30.4426Z" fill="#92D050" stroke="#92D050" stroke-miterlimit="3.8637" stroke-linejoin="round"/>
<path fill-rule="evenodd" clip-rule="evenodd" d="M6.74365 39.9651C6.74365 39.9407 6.76809 39.8677 6.81695 39.8677H6.86582L6.93912 39.9651V40.0138L6.91469 40.0625L6.74365 39.9651Z" fill="#92D050" stroke="#92D050" stroke-miterlimit="3.8637" stroke-linejoin="round"/>
<path fill-rule="evenodd" clip-rule="evenodd" d="M39.8511 67.412L39.9 67.4364C39.9 67.4608 39.9244 67.5095 39.9244 67.5338C39.9 67.5582 39.8756 67.5582 39.8511 67.5582L39.7778 67.4364C39.8267 67.3633 39.8267 67.3146 39.8267 67.2416H39.8511L39.8756 67.2659C39.9 67.3146 39.8756 67.3877 39.8511 67.412Z" fill="#92D050" stroke="#92D050" stroke-miterlimit="3.8637" stroke-linejoin="round"/>
<path fill-rule="evenodd" clip-rule="evenodd" d="M40.1196 67.8016L40.1441 67.8503C40.1685 67.8503 40.2174 67.8747 40.2418 67.8747V67.8991C40.2174 67.9234 40.1685 67.9234 40.1441 67.9234L40.1196 67.8991V67.8016Z" fill="#92D050" stroke="#92D050" stroke-miterlimit="3.8637" stroke-linejoin="round"/>
<path fill-rule="evenodd" clip-rule="evenodd" d="M38.8003 68.1914C38.8492 68.2158 38.9713 68.2645 38.9713 68.3132L38.9469 68.3619H38.898L38.7759 68.2645L38.8003 68.1914Z" fill="#92D050" stroke="#92D050" stroke-miterlimit="3.8637" stroke-linejoin="round"/>
<path fill-rule="evenodd" clip-rule="evenodd" d="M40.9263 68.4105L40.9752 68.4592C40.9752 68.4836 40.9507 68.5079 40.9263 68.5323H40.9019L40.8774 68.5079V68.4836L40.9263 68.4105Z" fill="#92D050" stroke="#92D050" stroke-miterlimit="3.8637" stroke-linejoin="round"/>
<path fill-rule="evenodd" clip-rule="evenodd" d="M88.376 150.118C88.4249 150.167 88.4249 150.216 88.4249 150.289H88.4004L88.3516 150.24V150.167L88.376 150.118Z" fill="#92D050" stroke="#92D050" stroke-miterlimit="3.8637" stroke-linejoin="round"/>
<path fill-rule="evenodd" clip-rule="evenodd" d="M87.9852 149.972C87.9852 150.118 88.1073 150.289 88.0585 150.411C88.0096 150.459 87.9119 150.605 87.8141 150.605L87.7897 150.581C87.7408 150.435 87.692 150.313 87.5942 150.191C87.6187 150.118 87.692 150.094 87.692 150.021C87.7653 149.777 87.8141 149.704 88.0585 149.558L88.1562 149.607L88.254 149.704V149.802L88.1806 149.826L88.1318 149.802L88.0829 149.656C88.0829 149.802 88.0585 149.875 87.9852 149.972Z" fill="#92D050" stroke="#92D050" stroke-miterlimit="3.8637" stroke-linejoin="round"/>
<path fill-rule="evenodd" clip-rule="evenodd" d="M87.3742 150.849L87.423 150.873C87.3986 150.922 87.3253 150.947 87.2764 150.971L87.1787 150.922L87.2031 150.873C87.2764 150.898 87.3497 150.873 87.3742 150.849Z" fill="#92D050" stroke="#92D050" stroke-miterlimit="3.8637" stroke-linejoin="round"/>
<path fill-rule="evenodd" clip-rule="evenodd" d="M88.7427 151.166L88.6939 151.19L88.6694 151.044L88.7183 150.995L88.7427 151.019C88.7672 151.068 88.7672 151.117 88.7427 151.166Z" fill="#92D050" stroke="#92D050" stroke-miterlimit="3.8637" stroke-linejoin="round"/>
<path fill-rule="evenodd" clip-rule="evenodd" d="M100.568 155.72L100.666 155.744C100.739 155.842 100.788 155.939 100.861 156.012L100.812 156.134L100.763 156.158C100.715 156.158 100.617 156.11 100.592 156.061C100.641 155.915 100.641 155.939 100.544 155.963V155.915H100.47L100.568 155.72Z" fill="#92D050" stroke="#92D050" stroke-miterlimit="3.8637" stroke-linejoin="round"/>
<path fill-rule="evenodd" clip-rule="evenodd" d="M99.9331 155.988L100.006 155.89H100.153C100.177 155.939 100.177 156.037 100.177 156.085L100.275 156.231L100.348 156.256L100.397 156.231L100.446 156.134L100.495 156.11L100.544 156.158L100.52 156.256C100.495 156.28 100.324 156.377 100.275 156.353C100.202 156.28 99.9331 156.037 99.9331 155.988Z" fill="#92D050" stroke="#92D050" stroke-miterlimit="3.8637" stroke-linejoin="round"/>
<path fill-rule="evenodd" clip-rule="evenodd" d="M109.56 164.39L109.633 164.56L109.584 164.609C109.486 164.633 109.413 164.609 109.364 164.536V164.487C109.413 164.439 109.511 164.365 109.56 164.39Z" fill="#92D050" stroke="#92D050" stroke-miterlimit="3.8637" stroke-linejoin="round"/>
<path fill-rule="evenodd" clip-rule="evenodd" d="M117.989 165.072L117.916 165.145L117.867 165.096L117.818 164.828C117.818 164.804 117.452 164.463 117.574 164.317C117.72 164.146 117.916 163.952 117.891 163.708H117.94L117.989 163.757C117.989 164.195 118.014 164.633 117.989 165.072Z" fill="#92D050" stroke="#92D050" stroke-miterlimit="3.8637" stroke-linejoin="round"/>
<path fill-rule="evenodd" clip-rule="evenodd" d="M111.906 166.777L112.028 166.85C112.248 166.728 112.59 167.166 112.687 167.337C112.516 167.532 112.394 167.58 112.199 167.702C111.832 167.434 111.686 167.191 111.906 166.777Z" fill="#92D050" stroke="#92D050" stroke-miterlimit="3.8637" stroke-linejoin="round"/>
<path fill-rule="evenodd" clip-rule="evenodd" d="M123.511 170.016L123.414 170.04C123.267 169.991 123.267 169.967 123.145 169.87C123.096 169.699 123.047 169.529 123.145 169.358L123.316 169.309C123.389 169.334 123.585 169.383 123.633 169.456C123.682 169.602 123.633 169.894 123.511 170.016Z" fill="#92D050" stroke="#92D050" stroke-miterlimit="3.8637" stroke-linejoin="round"/>
<path fill-rule="evenodd" clip-rule="evenodd" d="M87.3984 185.602C87.3984 185.481 87.4962 185.432 87.5695 185.334C87.6672 185.334 87.8138 185.31 87.8871 185.261C87.9115 185.261 88.1314 185.359 88.1559 185.359C88.2536 185.359 88.5957 185.334 88.669 185.456C88.7423 185.554 88.9378 185.846 88.9378 185.943C88.8889 185.992 88.8644 186.138 88.8889 186.211C88.84 186.236 88.8156 186.309 88.8156 186.357L88.669 186.43C88.5468 186.406 88.4002 186.357 88.278 186.333C88.1559 186.309 88.107 186.333 88.0093 186.284C87.545 186.114 87.545 186.284 87.4717 185.724C87.4229 185.675 87.4229 185.651 87.3984 185.602Z" fill="#92D050" stroke="#92D050" stroke-miterlimit="3.8637" stroke-linejoin="round"/>
<path fill-rule="evenodd" clip-rule="evenodd" d="M115.009 195.661C115.204 195.928 115.277 196.123 115.522 196.342L115.571 196.489L115.522 196.586C115.375 196.586 115.204 196.562 115.058 196.586C114.911 196.61 114.764 196.683 114.618 196.683C114.569 196.683 114.325 196.513 114.227 196.489C114.08 196.318 114.325 195.855 114.471 195.782C114.667 195.685 114.813 195.636 115.009 195.661Z" fill="#92D050" stroke="#92D050" stroke-miterlimit="3.8637" stroke-linejoin="round"/>
<path fill-rule="evenodd" clip-rule="evenodd" d="M39.1179 137.406C38.6292 137.649 38.6292 138.623 39.3622 138.502C40.0952 138.38 39.6066 137.162 39.1179 137.406Z" fill="#92D050" stroke="#92D050" stroke-miterlimit="3.8637" stroke-linejoin="round"/>
</g>
<defs>
<clipPath id="clip0">
<rect width="124" height="197" fill="white"/>
</clipPath>
</defs>
</svg>
