<svg width="267" height="112" viewBox="0 0 267 112" fill="none" xmlns="http://www.w3.org/2000/svg">
<path fill-rule="evenodd" clip-rule="evenodd" d="M2.99395 35.8455C3.03312 35.8586 3.07978 35.8615 3.12069 35.8575L3.14785 35.8152L3.13583 35.7579C3.07403 35.6826 2.9231 35.6928 2.83118 35.6705C2.72168 35.6439 2.29568 35.4305 2.14648 35.369" fill="#92D050"/>
<path d="M2.99395 35.8455C3.03312 35.8586 3.07978 35.8615 3.12069 35.8575L3.14785 35.8152L3.13583 35.7579C3.07403 35.6826 2.9231 35.6928 2.83118 35.6705C2.72168 35.6439 2.29568 35.4305 2.14648 35.369" stroke="#92D050" stroke-width="2" stroke-miterlimit="3.8637"/>
<path fill-rule="evenodd" clip-rule="evenodd" d="M1.92894 35.2573C1.73744 35.233 1.5348 35.2175 1.5127 34.9859C1.5651 34.8063 1.80116 34.8543 1.85356 34.6933C1.83807 34.5148 1.68887 34.3867 1.72387 34.2046C1.74093 34.1679 1.77644 34.1439 1.8123 34.1284C2.02295 34.0361 2.27399 34.2043 2.46583 34.1263C2.5863 34.0774 2.54679 33.8773 2.66186 33.8368C2.74037 33.8091 2.83873 33.8693 2.90924 33.8126C2.93309 33.7924 2.94702 33.7396 2.94545 33.71C2.91812 33.6592 2.90524 33.5983 2.90019 33.5412C2.91934 33.4954 2.94737 33.4461 2.99367 33.4235C3.07062 33.4162 3.30564 33.4479 3.34655 33.4296" fill="#92D050"/>
<path d="M1.92894 35.2573C1.73744 35.233 1.5348 35.2175 1.5127 34.9859C1.5651 34.8063 1.80116 34.8543 1.85356 34.6933C1.83807 34.5148 1.68887 34.3867 1.72387 34.2046C1.74093 34.1679 1.77644 34.1439 1.8123 34.1284C2.02295 34.0361 2.27399 34.2043 2.46583 34.1263C2.5863 34.0774 2.54679 33.8773 2.66186 33.8368C2.74037 33.8091 2.83873 33.8693 2.90924 33.8126C2.93309 33.7924 2.94702 33.7396 2.94545 33.71C2.91812 33.6592 2.90524 33.5983 2.90019 33.5412C2.91934 33.4954 2.94737 33.4461 2.99367 33.4235C3.07062 33.4162 3.30564 33.4479 3.34655 33.4296" stroke="#92D050" stroke-width="2" stroke-miterlimit="3.8637"/>
<path fill-rule="evenodd" clip-rule="evenodd" d="M3.43089 33.3C3.4281 33.2447 3.4516 33.1876 3.48816 33.1463C3.52037 33.1326 3.56198 33.1265 3.59679 33.1314C3.74007 33.0675 3.74042 32.9371 3.99198 32.893C4.74961 32.7605 4.38159 33.5504 4.08546 33.8218" fill="#92D050"/>
<path d="M3.43089 33.3C3.4281 33.2447 3.4516 33.1876 3.48816 33.1463C3.52037 33.1326 3.56198 33.1265 3.59679 33.1314C3.74007 33.0675 3.74042 32.9371 3.99198 32.893C4.74961 32.7605 4.38159 33.5504 4.08546 33.8218" stroke="#92D050" stroke-width="2" stroke-miterlimit="3.8637"/>
<path fill-rule="evenodd" clip-rule="evenodd" d="M4.32717 33.9414C4.34493 34.1771 4.09389 34.6002 4.03383 34.9346C3.9642 35.3228 4.08188 35.6588 3.84686 36.0052C3.72604 36.1833 3.34078 36.6842 3.10402 36.4476C3.0229 36.3665 2.99818 36.2916 3.01454 36.1771" fill="#92D050"/>
<path d="M4.32717 33.9414C4.34493 34.1771 4.09389 34.6002 4.03383 34.9346C3.9642 35.3228 4.08188 35.6588 3.84686 36.0052C3.72604 36.1833 3.34078 36.6842 3.10402 36.4476C3.0229 36.3665 2.99818 36.2916 3.01454 36.1771" stroke="#92D050" stroke-width="2" stroke-miterlimit="3.8637"/>
<path fill-rule="evenodd" clip-rule="evenodd" d="M180.843 110.722C180.806 110.717 180.741 110.642 180.681 110.632C180.621 110.621 180.57 110.649 180.513 110.624L180.497 110.616C180.241 110.263 180.459 110.029 180.638 110.161" fill="#92D050"/>
<path d="M180.843 110.722C180.806 110.717 180.741 110.642 180.681 110.632C180.621 110.621 180.57 110.649 180.513 110.624L180.497 110.616C180.241 110.263 180.459 110.029 180.638 110.161" stroke="#92D050" stroke-width="2" stroke-miterlimit="3.8637"/>
<path fill-rule="evenodd" clip-rule="evenodd" d="M183.25 82.1189C182.887 82.0661 182.942 82.0541 182.87 81.7268C182.916 81.571 183.171 81.4995 183.302 81.579C183.321 81.6013 183.337 81.6339 183.341 81.6635" fill="#92D050"/>
<path d="M183.25 82.1189C182.887 82.0661 182.942 82.0541 182.87 81.7268C182.916 81.571 183.171 81.4995 183.302 81.579C183.321 81.6013 183.337 81.6339 183.341 81.6635" stroke="#92D050" stroke-width="2" stroke-miterlimit="3.8637"/>
<path fill-rule="evenodd" clip-rule="evenodd" d="M169.104 66.9485C168.938 66.7797 168.835 66.5756 168.704 66.4752C168.624 66.4134 168.514 66.3932 168.423 66.3556C168.249 66.284 167.87 66.0861 167.781 65.9204C167.747 65.8563 167.732 65.7844 167.703 65.7183" fill="#92D050"/>
<path d="M169.104 66.9485C168.938 66.7797 168.835 66.5756 168.704 66.4752C168.624 66.4134 168.514 66.3932 168.423 66.3556C168.249 66.284 167.87 66.0861 167.781 65.9204C167.747 65.8563 167.732 65.7844 167.703 65.7183" stroke="#92D050" stroke-width="2" stroke-miterlimit="3.8637"/>
<path fill-rule="evenodd" clip-rule="evenodd" d="M167.613 65.459C167.6 65.4045 167.594 65.346 167.597 65.2901C167.684 65.2072 167.737 64.9485 167.893 64.8949C168.048 64.9062 168.201 64.9799 168.358 64.9945C168.594 65.0164 168.864 64.8907 169.078 65.0638C169.179 65.1449 169.208 65.2626 169.289 65.3442H169.295" fill="#92D050"/>
<path d="M167.613 65.459C167.6 65.4045 167.594 65.346 167.597 65.2901C167.684 65.2072 167.737 64.9485 167.893 64.8949C168.048 64.9062 168.201 64.9799 168.358 64.9945C168.594 65.0164 168.864 64.8907 169.078 65.0638C169.179 65.1449 169.208 65.2626 169.289 65.3442H169.295" stroke="#92D050" stroke-width="2" stroke-miterlimit="3.8637"/>
<path fill-rule="evenodd" clip-rule="evenodd" d="M168.318 64.1478C168.198 64.0437 168.103 63.9125 168.155 63.8214C168.188 63.7824 168.231 63.7575 168.276 63.734L168.282 63.725" fill="#92D050"/>
<path d="M168.318 64.1478C168.198 64.0437 168.103 63.9125 168.155 63.8214C168.188 63.7824 168.231 63.7575 168.276 63.734L168.282 63.725" stroke="#92D050" stroke-width="2" stroke-miterlimit="3.8637"/>
<path fill-rule="evenodd" clip-rule="evenodd" d="M170.487 64.5192C170.7 64.4574 170.935 64.4088 171.099 64.4487Z" fill="#92D050"/>
<path d="M170.487 64.5192C170.7 64.4574 170.935 64.4088 171.099 64.4487" stroke="#92D050" stroke-width="2" stroke-miterlimit="3.8637"/>
<path fill-rule="evenodd" clip-rule="evenodd" d="M169.558 65.4922C169.581 65.5394 169.623 65.5643 169.654 65.6038C169.695 65.6555 169.721 65.7298 169.754 65.7878C169.804 65.8768 169.881 65.9426 169.938 66.0261C170.024 66.1529 170.068 66.2982 170.182 66.4121L170.191 66.4331" fill="#92D050"/>
<path d="M169.558 65.4922C169.581 65.5394 169.623 65.5643 169.654 65.6038C169.695 65.6555 169.721 65.7298 169.754 65.7878C169.804 65.8768 169.881 65.9426 169.938 66.0261C170.024 66.1529 170.068 66.2982 170.182 66.4121L170.191 66.4331" stroke="#92D050" stroke-width="2" stroke-miterlimit="3.8637"/>
<path fill-rule="evenodd" clip-rule="evenodd" d="M176.024 37.9747C176.001 37.966 175.978 37.9338 175.97 37.9113C175.836 37.856 175.696 37.8142 175.557 37.7726L175.581 37.7574" fill="#92D050"/>
<path d="M176.024 37.9747C176.001 37.966 175.978 37.9338 175.97 37.9113C175.836 37.856 175.696 37.8142 175.557 37.7726L175.581 37.7574" stroke="#92D050" stroke-width="2" stroke-miterlimit="3.8637"/>
<path fill-rule="evenodd" clip-rule="evenodd" d="M176.283 38.1287C176.359 38.0465 176.303 37.874 176.398 37.8209C176.408 37.7385 176.485 37.6318 176.446 37.5495C176.394 37.5077 176.363 37.4454 176.304 37.4078C176.118 37.288 176.024 37.3738 175.855 37.3414C175.807 37.3987 175.741 37.4669 175.701 37.5284" fill="#92D050"/>
<path d="M176.283 38.1287C176.359 38.0465 176.303 37.874 176.398 37.8209C176.408 37.7385 176.485 37.6318 176.446 37.5495C176.394 37.5077 176.363 37.4454 176.304 37.4078C176.118 37.288 176.024 37.3738 175.855 37.3414C175.807 37.3987 175.741 37.4669 175.701 37.5284" stroke="#92D050" stroke-width="2" stroke-miterlimit="3.8637"/>
<path fill-rule="evenodd" clip-rule="evenodd" d="M187.969 43.7711C187.99 43.3891 187.804 43.0081 187.337 43.0899C187.171 43.119 187.002 43.2316 186.824 43.2105C186.648 43.1895 186.51 43.0826 186.345 43.0537C186.148 43.0192 185.927 43.0403 185.718 43.0499" fill="#92D050"/>
<path d="M187.969 43.7711C187.99 43.3891 187.804 43.0081 187.337 43.0899C187.171 43.119 187.002 43.2316 186.824 43.2105C186.648 43.1895 186.51 43.0826 186.345 43.0537C186.148 43.0192 185.927 43.0403 185.718 43.0499" stroke="#92D050" stroke-width="2" stroke-miterlimit="3.8637"/>
<path fill-rule="evenodd" clip-rule="evenodd" d="M184.962 43.4946C184.966 43.7121 184.857 43.9542 184.927 44.1424C185.08 44.5555 185.585 44.5884 185.844 44.9114C185.882 44.9587 185.945 45.0141 185.973 45.0653C186.036 45.1796 186.047 45.3233 186.121 45.4312C186.141 45.4592 186.154 45.4686 186.185 45.4845C186.539 45.6671 187.204 45.24 187.5 45.0501C187.549 45.0181 187.766 44.8844 187.789 44.848C187.826 44.79 187.829 44.6899 187.816 44.6248" fill="#92D050"/>
<path d="M184.962 43.4946C184.966 43.7121 184.857 43.9542 184.927 44.1424C185.08 44.5555 185.585 44.5884 185.844 44.9114C185.882 44.9587 185.945 45.0141 185.973 45.0653C186.036 45.1796 186.047 45.3233 186.121 45.4312C186.141 45.4592 186.154 45.4686 186.185 45.4845C186.539 45.6671 187.204 45.24 187.5 45.0501C187.549 45.0181 187.766 44.8844 187.789 44.848C187.826 44.79 187.829 44.6899 187.816 44.6248" stroke="#92D050" stroke-width="2" stroke-miterlimit="3.8637"/>
<path fill-rule="evenodd" clip-rule="evenodd" d="M213.319 52.0351C213.267 51.9825 213.164 51.5847 213.192 51.5043C213.277 51.3793 213.442 51.4914 213.545 51.5193C213.642 51.5454 213.766 51.5257 213.862 51.5043" fill="#92D050"/>
<path d="M213.319 52.0351C213.267 51.9825 213.164 51.5847 213.192 51.5043C213.277 51.3793 213.442 51.4914 213.545 51.5193C213.642 51.5454 213.766 51.5257 213.862 51.5043" stroke="#92D050" stroke-width="2" stroke-miterlimit="3.8637"/>
<path fill-rule="evenodd" clip-rule="evenodd" d="M205.853 61.8107C206.059 61.6886 206.258 61.6011 206.467 61.4597H206.461" fill="#92D050"/>
<path d="M205.853 61.8107C206.059 61.6886 206.258 61.6011 206.467 61.4597H206.461" stroke="#92D050" stroke-width="2" stroke-miterlimit="3.8637"/>
<path fill-rule="evenodd" clip-rule="evenodd" d="M205.985 62.1433C206.19 62.1235 206.514 62.0168 206.656 62.1534Z" fill="#92D050"/>
<path d="M205.985 62.1433C206.19 62.1235 206.514 62.0168 206.656 62.1534" stroke="#92D050" stroke-width="2" stroke-miterlimit="3.8637"/>
<path fill-rule="evenodd" clip-rule="evenodd" d="M152.146 49.5741C152.112 49.5395 152.067 49.5144 152.035 49.4775C151.916 49.3424 151.696 48.9458 151.582 48.8744C151.482 48.8649 151.36 48.8746 151.266 48.8412C151.194 48.7599 151.078 48.5264 151.027 48.4854" fill="#92D050"/>
<path d="M152.146 49.5741C152.112 49.5395 152.067 49.5144 152.035 49.4775C151.916 49.3424 151.696 48.9458 151.582 48.8744C151.482 48.8649 151.36 48.8746 151.266 48.8412C151.194 48.7599 151.078 48.5264 151.027 48.4854" stroke="#92D050" stroke-width="2" stroke-miterlimit="3.8637"/>
<path fill-rule="evenodd" clip-rule="evenodd" d="M152.514 49.1337C152.445 49.1288 152.326 49.0127 152.273 48.9678C152.155 48.8684 151.993 48.8309 151.875 48.7355C151.787 48.6649 151.707 48.5585 151.61 48.5033L151.606 48.4882" fill="#92D050"/>
<path d="M152.514 49.1337C152.445 49.1288 152.326 49.0127 152.273 48.9678C152.155 48.8684 151.993 48.8309 151.875 48.7355C151.787 48.6649 151.707 48.5585 151.61 48.5033L151.606 48.4882" stroke="#92D050" stroke-width="2" stroke-miterlimit="3.8637"/>
<path fill-rule="evenodd" clip-rule="evenodd" d="M152.662 46.3439C152.678 46.3099 152.706 46.296 152.726 46.2685C152.746 46.2401 152.778 46.0942 152.789 46.0514C152.756 45.9809 152.6 45.9281 152.533 45.8855C152.396 45.6249 152.49 45.5048 152.508 45.24C152.516 45.1292 152.494 45.0283 152.478 44.9203C152.447 44.714 152.255 44.5191 152.246 44.311C152.24 44.1815 152.35 44.0203 152.303 43.9068C152.137 43.7726 152.212 43.5409 152.11 43.3971C152.022 43.2721 151.786 43.1619 151.667 43.005" fill="#92D050"/>
<path d="M152.662 46.3439C152.678 46.3099 152.706 46.296 152.726 46.2685C152.746 46.2401 152.778 46.0942 152.789 46.0514C152.756 45.9809 152.6 45.9281 152.533 45.8855C152.396 45.6249 152.49 45.5048 152.508 45.24C152.516 45.1292 152.494 45.0283 152.478 44.9203C152.447 44.714 152.255 44.5191 152.246 44.311C152.24 44.1815 152.35 44.0203 152.303 43.9068C152.137 43.7726 152.212 43.5409 152.11 43.3971C152.022 43.2721 151.786 43.1619 151.667 43.005" stroke="#92D050" stroke-width="2" stroke-miterlimit="3.8637"/>
<path fill-rule="evenodd" clip-rule="evenodd" d="M151.281 42.7702C151.212 42.7604 150.705 42.5068 150.521 42.4746C150.384 42.4506 149.62 42.7338 149.511 42.8456" fill="#92D050"/>
<path d="M151.281 42.7702C151.212 42.7604 150.705 42.5068 150.521 42.4746C150.384 42.4506 149.62 42.7338 149.511 42.8456" stroke="#92D050" stroke-width="2" stroke-miterlimit="3.8637"/>
<path fill-rule="evenodd" clip-rule="evenodd" d="M148.941 43.9554C148.905 43.8001 149.27 43.512 149.372 43.4187L149.388 43.3644C149.365 43.2803 149.347 43.2375 149.3 43.1654" fill="#92D050"/>
<path d="M148.941 43.9554C148.905 43.8001 149.27 43.512 149.372 43.4187L149.388 43.3644C149.365 43.2803 149.347 43.2375 149.3 43.1654" stroke="#92D050" stroke-width="2" stroke-miterlimit="3.8637"/>
<path fill-rule="evenodd" clip-rule="evenodd" d="M146.875 45.9036C146.932 45.8488 146.971 45.5267 147.125 45.3788C147.205 45.3027 147.322 45.2971 147.415 45.2491C147.758 45.0718 148.148 45.0111 148.359 44.6397C148.413 44.5445 148.449 44.4378 148.504 44.3412" fill="#92D050"/>
<path d="M146.875 45.9036C146.932 45.8488 146.971 45.5267 147.125 45.3788C147.205 45.3027 147.322 45.2971 147.415 45.2491C147.758 45.0718 148.148 45.0111 148.359 44.6397C148.413 44.5445 148.449 44.4378 148.504 44.3412" stroke="#92D050" stroke-width="2" stroke-miterlimit="3.8637"/>
<path fill-rule="evenodd" clip-rule="evenodd" d="M147.677 46.368C147.618 46.3717 147.553 46.3771 147.478 46.3841C147.386 46.3929 147.258 46.351 147.183 46.3649" fill="#92D050"/>
<path d="M147.677 46.368C147.618 46.3717 147.553 46.3771 147.478 46.3841C147.386 46.3929 147.258 46.351 147.183 46.3649" stroke="#92D050" stroke-width="2" stroke-miterlimit="3.8637"/>
<path fill-rule="evenodd" clip-rule="evenodd" d="M148.648 47.0014C148.588 46.9582 148.538 46.887 148.49 46.8305C148.426 46.7547 148.375 46.6901 148.329 46.6351" fill="#92D050"/>
<path d="M148.648 47.0014C148.588 46.9582 148.538 46.887 148.49 46.8305C148.426 46.7547 148.375 46.6901 148.329 46.6351" stroke="#92D050" stroke-width="2" stroke-miterlimit="3.8637"/>
<path fill-rule="evenodd" clip-rule="evenodd" d="M151.175 47.7916C151.111 47.7721 150.901 47.3827 150.774 47.297C150.558 47.1506 149.912 47.144 149.652 47.1612C149.558 47.1675 149.476 47.1914 149.378 47.1914" fill="#92D050"/>
<path d="M151.175 47.7916C151.111 47.7721 150.901 47.3827 150.774 47.297C150.558 47.1506 149.912 47.144 149.652 47.1612C149.558 47.1675 149.476 47.1914 149.378 47.1914" stroke="#92D050" stroke-width="2" stroke-miterlimit="3.8637"/>
<path fill-rule="evenodd" clip-rule="evenodd" d="M155.452 32.8175C155.454 32.8114 155.6 32.657 155.699 32.5511Z" fill="#92D050"/>
<path d="M155.452 32.8175C155.454 32.8114 155.6 32.657 155.699 32.5511" stroke="#92D050" stroke-width="2" stroke-miterlimit="3.8637"/>
<path fill-rule="evenodd" clip-rule="evenodd" d="M155.938 31.6896C155.913 31.6405 155.872 31.6177 155.838 31.578C155.8 31.5327 155.772 31.4394 155.727 31.4091C155.513 31.2666 155.19 31.2159 154.943 31.2342L154.931 31.2432" fill="#92D050"/>
<path d="M155.938 31.6896C155.913 31.6405 155.872 31.6177 155.838 31.578C155.8 31.5327 155.772 31.4394 155.727 31.4091C155.513 31.2666 155.19 31.2159 154.943 31.2342L154.931 31.2432" stroke="#92D050" stroke-width="2" stroke-miterlimit="3.8637"/>
<path fill-rule="evenodd" clip-rule="evenodd" d="M153.105 32.8085C153.323 32.7457 153.902 32.5937 154.013 32.3864Z" fill="#92D050"/>
<path d="M153.105 32.8085C153.323 32.7457 153.902 32.5937 154.013 32.3864" stroke="#92D050" stroke-width="2" stroke-miterlimit="3.8637"/>
<path fill-rule="evenodd" clip-rule="evenodd" d="M150.099 32.9834C150.254 33.0285 150.425 33.0046 150.578 33.0527C150.615 33.0644 150.997 33.2278 151.018 33.2426C151.058 33.2698 151.085 33.3053 151.133 33.3241V33.3302" fill="#92D050"/>
<path d="M150.099 32.9834C150.254 33.0285 150.425 33.0046 150.578 33.0527C150.615 33.0644 150.997 33.2278 151.018 33.2426C151.058 33.2698 151.085 33.3053 151.133 33.3241V33.3302" stroke="#92D050" stroke-width="2" stroke-miterlimit="3.8637"/>
<path fill-rule="evenodd" clip-rule="evenodd" d="M150.28 34.5456C150.366 34.4803 150.447 34.279 150.513 34.244C150.829 34.0753 151.002 34.0999 151.218 33.7705" fill="#92D050"/>
<path d="M150.28 34.5456C150.366 34.4803 150.447 34.279 150.513 34.244C150.829 34.0753 151.002 34.0999 151.218 33.7705" stroke="#92D050" stroke-width="2" stroke-miterlimit="3.8637"/>
<path fill-rule="evenodd" clip-rule="evenodd" d="M149.498 34.6965C149.464 34.6606 149.419 34.638 149.387 34.5999C149.208 34.387 149.148 34.0412 149.218 33.7766V33.7705" fill="#92D050"/>
<path d="M149.498 34.6965C149.464 34.6606 149.419 34.638 149.387 34.5999C149.208 34.387 149.148 34.0412 149.218 33.7766V33.7705" stroke="#92D050" stroke-width="2" stroke-miterlimit="3.8637"/>
<path fill-rule="evenodd" clip-rule="evenodd" d="M125.179 52.1347C124.956 52.0238 124.919 51.7169 124.814 51.5195C124.773 51.4425 124.724 51.3704 124.693 51.2872C124.665 51.2122 124.637 51.0136 124.603 50.9585C124.543 50.8633 124.206 50.7395 124.093 50.6932" fill="#92D050"/>
<path d="M125.179 52.1347C124.956 52.0238 124.919 51.7169 124.814 51.5195C124.773 51.4425 124.724 51.3704 124.693 51.2872C124.665 51.2122 124.637 51.0136 124.603 50.9585C124.543 50.8633 124.206 50.7395 124.093 50.6932" stroke="#92D050" stroke-width="2" stroke-miterlimit="3.8637"/>
<path fill-rule="evenodd" clip-rule="evenodd" d="M124.491 52.2596C124.407 52.1705 124.344 52.0648 124.264 51.9657C124.119 51.787 123.889 51.6728 123.812 51.4349C123.774 51.3201 123.761 51.0452 123.712 50.9736C123.641 50.8688 123.419 50.8415 123.332 50.7563" fill="#92D050"/>
<path d="M124.491 52.2596C124.407 52.1705 124.344 52.0648 124.264 51.9657C124.119 51.787 123.889 51.6728 123.812 51.4349C123.774 51.3201 123.761 51.0452 123.712 50.9736C123.641 50.8688 123.419 50.8415 123.332 50.7563" stroke="#92D050" stroke-width="2" stroke-miterlimit="3.8637"/>
<path fill-rule="evenodd" clip-rule="evenodd" d="M123.122 50.4065C123.053 50.3095 122.958 50.214 122.944 50.093C122.921 49.9053 123.009 49.918 123.064 49.7913C123.118 49.6682 123.073 49.5237 123.055 49.3992C123.002 49.0272 123.133 48.9511 122.636 48.8625C122.556 48.9029 122.526 48.988 122.425 49.0013C122.211 48.9557 122.264 48.8744 122.178 48.7299" fill="#92D050"/>
<path d="M123.122 50.4065C123.053 50.3095 122.958 50.214 122.944 50.093C122.921 49.9053 123.009 49.918 123.064 49.7913C123.118 49.6682 123.073 49.5237 123.055 49.3992C123.002 49.0272 123.133 48.9511 122.636 48.8625C122.556 48.9029 122.526 48.988 122.425 49.0013C122.211 48.9557 122.264 48.8744 122.178 48.7299" stroke="#92D050" stroke-width="2" stroke-miterlimit="3.8637"/>
<path fill-rule="evenodd" clip-rule="evenodd" d="M135.119 32.8809C135.088 32.8782 135.011 32.8269 134.985 32.8074C134.723 32.6051 134.866 32.4954 134.836 32.2987" fill="#92D050"/>
<path d="M135.119 32.8809C135.088 32.8782 135.011 32.8269 134.985 32.8074C134.723 32.6051 134.866 32.4954 134.836 32.2987" stroke="#92D050" stroke-width="2" stroke-miterlimit="3.8637"/>
<path fill-rule="evenodd" clip-rule="evenodd" d="M135.831 32.5309C135.821 32.3989 135.546 32.065 135.466 31.9397Z" fill="#92D050"/>
<path d="M135.831 32.5309C135.821 32.3989 135.546 32.065 135.466 31.9397" stroke="#92D050" stroke-width="2" stroke-miterlimit="3.8637"/>
<path fill-rule="evenodd" clip-rule="evenodd" d="M134.561 30.7697C134.06 30.5956 134.455 29.6433 133.529 29.0566Z" fill="#92D050"/>
<path d="M134.561 30.7697C134.06 30.5956 134.455 29.6433 133.529 29.0566" stroke="#92D050" stroke-width="2" stroke-miterlimit="3.8637"/>
<path fill-rule="evenodd" clip-rule="evenodd" d="M130.957 31.195H130.999C131.065 31.1198 131.132 31.1083 131.201 31.0501C131.275 30.9887 131.349 30.9086 131.416 30.8391C131.442 30.812 131.46 30.7933 131.494 30.7758C131.608 30.7167 131.755 30.7641 131.877 30.7545C131.994 30.7455 132.043 30.64 132.112 30.5675C132.201 30.4749 132.314 30.485 132.409 30.4197C132.424 30.4093 132.434 30.4032 132.444 30.3875L132.462 30.3593C132.54 30.1818 132.474 29.9654 132.541 29.7953" fill="#92D050"/>
<path d="M130.957 31.195H130.999C131.065 31.1198 131.132 31.1083 131.201 31.0501C131.275 30.9887 131.349 30.9086 131.416 30.8391C131.442 30.812 131.46 30.7933 131.494 30.7758C131.608 30.7167 131.755 30.7641 131.877 30.7545C131.994 30.7455 132.043 30.64 132.112 30.5675C132.201 30.4749 132.314 30.485 132.409 30.4197C132.424 30.4093 132.434 30.4032 132.444 30.3875L132.462 30.3593C132.54 30.1818 132.474 29.9654 132.541 29.7953" stroke="#92D050" stroke-width="2" stroke-miterlimit="3.8637"/>
<path fill-rule="evenodd" clip-rule="evenodd" d="M128.837 32.7602C128.823 32.6489 128.96 32.5313 129.021 32.4555C129.077 32.3857 129.065 32.2769 129.117 32.2022C129.222 32.0534 130.056 31.8746 130.288 31.7588C130.417 31.6942 130.473 31.528 130.662 31.4331" fill="#92D050"/>
<path d="M128.837 32.7602C128.823 32.6489 128.96 32.5313 129.021 32.4555C129.077 32.3857 129.065 32.2769 129.117 32.2022C129.222 32.0534 130.056 31.8746 130.288 31.7588C130.417 31.6942 130.473 31.528 130.662 31.4331" stroke="#92D050" stroke-width="2" stroke-miterlimit="3.8637"/>
<path fill-rule="evenodd" clip-rule="evenodd" d="M131.738 33.5533C131.592 33.464 131.446 33.431 131.295 33.3693C131.251 33.3517 131.206 33.31 131.162 33.291C130.828 33.1449 130.679 33.4358 130.387 33.4358C130.16 33.4358 129.978 33.2475 129.835 33.2126C129.7 33.1797 129.249 33.2696 129.075 33.2819L129.048 33.3061" fill="#92D050"/>
<path d="M131.738 33.5533C131.592 33.464 131.446 33.431 131.295 33.3693C131.251 33.3517 131.206 33.31 131.162 33.291C130.828 33.1449 130.679 33.4358 130.387 33.4358C130.16 33.4358 129.978 33.2475 129.835 33.2126C129.7 33.1797 129.249 33.2696 129.075 33.2819L129.048 33.3061" stroke="#92D050" stroke-width="2" stroke-miterlimit="3.8637"/>
<path fill-rule="evenodd" clip-rule="evenodd" d="M132.154 33.457C132.385 33.3679 132.49 33.544 132.688 33.5837C132.831 33.6123 132.977 33.5421 133.116 33.5324C133.421 33.5111 133.705 33.6619 134.009 33.5896C134.034 33.5837 134.065 33.5651 134.089 33.5545C134.127 33.5379 134.154 33.5035 134.19 33.4841C134.31 33.4199 134.463 33.3766 134.591 33.3243V33.3182" fill="#92D050"/>
<path d="M132.154 33.457C132.385 33.3679 132.49 33.544 132.688 33.5837C132.831 33.6123 132.977 33.5421 133.116 33.5324C133.421 33.5111 133.705 33.6619 134.009 33.5896C134.034 33.5837 134.065 33.5651 134.089 33.5545C134.127 33.5379 134.154 33.5035 134.19 33.4841C134.31 33.4199 134.463 33.3766 134.591 33.3243V33.3182" stroke="#92D050" stroke-width="2" stroke-miterlimit="3.8637"/>
<path fill-rule="evenodd" clip-rule="evenodd" d="M93.9424 44.0037C94.2538 43.9483 94.7436 43.7453 94.9498 44.1092C94.9768 44.1567 94.9793 44.2122 94.9981 44.2629" fill="#92D050"/>
<path d="M93.9424 44.0037C94.2538 43.9483 94.7436 43.7453 94.9498 44.1092C94.9768 44.1567 94.9793 44.2122 94.9981 44.2629" stroke="#92D050" stroke-width="2" stroke-miterlimit="3.8637"/>
<path fill-rule="evenodd" clip-rule="evenodd" d="M76.8993 45.2823C76.958 45.2331 77.1456 45.0303 77.1949 45.017C77.3333 44.9796 77.6625 45.1629 77.7377 44.9477C77.7403 44.8953 77.7405 44.824 77.7106 44.7789C77.6738 44.7595 77.5713 44.692 77.5476 44.6614C77.5802 44.5891 77.6632 44.4187 77.6531 44.3447C77.6345 44.2066 77.4499 44.0446 77.3063 44.0733C77.2924 44.0761 77.2226 44.1098 77.2099 44.1185C77.1796 44.1391 77.1624 44.1704 77.1425 44.2C77.0694 44.3099 76.9348 44.3734 76.8359 44.4594" fill="#92D050"/>
<path d="M76.8993 45.2823C76.958 45.2331 77.1456 45.0303 77.1949 45.017C77.3333 44.9796 77.6625 45.1629 77.7377 44.9477C77.7403 44.8953 77.7405 44.824 77.7106 44.7789C77.6738 44.7595 77.5713 44.692 77.5476 44.6614C77.5802 44.5891 77.6632 44.4187 77.6531 44.3447C77.6345 44.2066 77.4499 44.0446 77.3063 44.0733C77.2924 44.0761 77.2226 44.1098 77.2099 44.1185C77.1796 44.1391 77.1624 44.1704 77.1425 44.2C77.0694 44.3099 76.9348 44.3734 76.8359 44.4594" stroke="#92D050" stroke-width="2" stroke-miterlimit="3.8637"/>
<path fill-rule="evenodd" clip-rule="evenodd" d="M76.5315 45.4996C76.4674 45.5218 76.4121 45.5699 76.3506 45.596C76.2672 45.6313 76.1638 45.6198 76.0761 45.6282C75.8184 45.6527 75.7108 45.7487 75.6247 45.4391C75.6015 45.3558 75.5296 45.1991 75.5874 45.1225C75.7336 45.0198 76.0632 45.1686 76.2026 45.1435C76.3365 45.1195 76.3541 44.9559 76.4138 44.8631C76.4199 44.8535 76.5896 44.6834 76.6037 44.673" fill="#92D050"/>
<path d="M76.5315 45.4996C76.4674 45.5218 76.4121 45.5699 76.3506 45.596C76.2672 45.6313 76.1638 45.6198 76.0761 45.6282C75.8184 45.6527 75.7108 45.7487 75.6247 45.4391C75.6015 45.3558 75.5296 45.1991 75.5874 45.1225C75.7336 45.0198 76.0632 45.1686 76.2026 45.1435C76.3365 45.1195 76.3541 44.9559 76.4138 44.8631C76.4199 44.8535 76.5896 44.6834 76.6037 44.673" stroke="#92D050" stroke-width="2" stroke-miterlimit="3.8637"/>
<path fill-rule="evenodd" clip-rule="evenodd" d="M153.781 33.1795C153.834 33.1114 154.187 32.9911 154.282 32.9624Z" fill="#92D050"/>
<path d="M153.781 33.1795C153.834 33.1114 154.187 32.9911 154.282 32.9624" stroke="#92D050" stroke-width="2" stroke-miterlimit="3.8637"/>
<path fill-rule="evenodd" clip-rule="evenodd" d="M257.847 5.00798C257.755 5.01181 257.653 5.05968 257.56 5.03514C257.536 5.0287 257.512 5.01651 257.489 5.00694C257.423 4.97995 257.359 4.9091 257.292 4.87236C257.23 4.83859 257.16 4.83111 257.098 4.80203C257.078 4.79263 257.055 4.78097 257.039 4.76687C256.922 4.66903 256.308 3.82522 256.218 3.6661C256.163 3.56931 256.143 3.46416 256.083 3.36754C256.021 3.26743 255.901 3.20772 255.844 3.10518C255.806 3.03433 255.762 2.90446 255.772 2.82473C255.779 2.76223 255.835 2.61738 255.874 2.56829C255.957 2.46645 256.076 2.38881 256.161 2.28783C256.202 2.23909 256.288 2.13255 256.376 2.02722" fill="#92D050"/>
<path d="M257.847 5.00798C257.755 5.01181 257.653 5.05968 257.56 5.03514C257.536 5.0287 257.512 5.01651 257.489 5.00694C257.423 4.97995 257.359 4.9091 257.292 4.87236C257.23 4.83859 257.16 4.83111 257.098 4.80203C257.078 4.79263 257.055 4.78097 257.039 4.76687C256.922 4.66903 256.308 3.82522 256.218 3.6661C256.163 3.56931 256.143 3.46416 256.083 3.36754C256.021 3.26743 255.901 3.20772 255.844 3.10518C255.806 3.03433 255.762 2.90446 255.772 2.82473C255.779 2.76223 255.835 2.61738 255.874 2.56829C255.957 2.46645 256.076 2.38881 256.161 2.28783C256.202 2.23909 256.288 2.13255 256.376 2.02722" stroke="#92D050" stroke-width="2" stroke-miterlimit="3.8637"/>
<path fill-rule="evenodd" clip-rule="evenodd" d="M26.0653 21.0313C25.9438 21.1095 25.8837 21.1304 25.7406 21.152C25.2199 21.2301 25.3474 20.5623 25.1425 20.3165C25.0156 20.1642 24.5438 19.9802 24.5211 19.8672C24.5131 19.8273 24.5211 19.7672 24.5211 19.7255" fill="#92D050"/>
<path d="M26.0653 21.0313C25.9438 21.1095 25.8837 21.1304 25.7406 21.152C25.2199 21.2301 25.3474 20.5623 25.1425 20.3165C25.0156 20.1642 24.5438 19.9802 24.5211 19.8672C24.5131 19.8273 24.5211 19.7672 24.5211 19.7255" stroke="#92D050" stroke-width="2" stroke-miterlimit="3.8637"/>
<path fill-rule="evenodd" clip-rule="evenodd" d="M24.509 19.4901C24.6754 19.428 24.9113 18.8054 24.8528 18.6246L24.8408 18.5924C24.7955 18.4717 24.6537 18.4827 24.5934 18.3923C24.545 18.3197 24.477 18.0859 24.4938 18.0032C24.5102 17.924 24.6571 17.7143 24.7471 17.7167" fill="#92D050"/>
<path d="M24.509 19.4901C24.6754 19.428 24.9113 18.8054 24.8528 18.6246L24.8408 18.5924C24.7955 18.4717 24.6537 18.4827 24.5934 18.3923C24.545 18.3197 24.477 18.0859 24.4938 18.0032C24.5102 17.924 24.6571 17.7143 24.7471 17.7167" stroke="#92D050" stroke-width="2" stroke-miterlimit="3.8637"/>
<path fill-rule="evenodd" clip-rule="evenodd" d="M25.1641 17.8192C25.24 17.7579 25.2842 17.6597 25.363 17.596C25.6069 17.3991 26.2159 17.1944 26.4971 17.3819C26.6006 17.4508 26.6231 17.5805 26.6931 17.6714C26.7608 17.7593 26.8452 17.854 26.9253 17.9308L27.0122 18.0154" fill="#92D050"/>
<path d="M25.1641 17.8192C25.24 17.7579 25.2842 17.6597 25.363 17.596C25.6069 17.3991 26.2159 17.1944 26.4971 17.3819C26.6006 17.4508 26.6231 17.5805 26.6931 17.6714C26.7608 17.7593 26.8452 17.854 26.9253 17.9308L27.0122 18.0154" stroke="#92D050" stroke-width="2" stroke-miterlimit="3.8637"/>
<path fill-rule="evenodd" clip-rule="evenodd" d="M27.2994 19.0166C27.4444 19.0278 27.8246 19.3286 27.7788 19.4902C27.4883 19.9466 26.3633 19.2156 27.0158 19.0107C27.1126 18.9803 27.1989 19.0182 27.2842 19.0046L27.2994 19.0166Z" fill="#92D050" stroke="#92D050" stroke-width="2" stroke-miterlimit="3.8637"/>
<path fill-rule="evenodd" clip-rule="evenodd" d="M28.2788 19.0046C28.3107 19.0543 28.3404 19.1215 28.3784 19.1644C28.4607 19.219 28.968 19.0516 28.6951 19.5474C28.6878 19.6123 28.8357 19.7786 28.882 19.843V19.9154C28.858 19.9577 28.8195 19.9899 28.7856 20.024C28.7694 20.1435 28.8744 20.1965 28.855 20.3557C28.8439 20.4476 28.7536 20.5137 28.7586 20.6091C28.7631 20.6972 28.8281 20.7282 28.8491 20.7932C28.9235 21.0229 28.6082 21.1906 28.427 21.2063C28.374 21.1929 28.3364 21.1394 28.3364 21.0858C28.3364 21.0052 28.5809 20.536 28.6049 20.38C28.6202 20.2799 28.6071 20.1595 28.5897 20.0604C28.5741 19.9706 28.444 19.7087 28.3847 19.6382C28.2712 19.503 27.8493 19.2361 28.0046 19.011C28.0918 18.9328 28.2184 18.9591 28.2971 19.0321L28.2788 19.0046Z" fill="#92D050" stroke="#92D050" stroke-width="2" stroke-miterlimit="3.8637"/>
<path fill-rule="evenodd" clip-rule="evenodd" d="M26.4033 18.6003C26.3084 18.5054 26.1383 18.3971 26.0443 18.5672C26.0105 18.7361 26.6412 19.1086 26.0925 19.4298" fill="#92D050"/>
<path d="M26.4033 18.6003C26.3084 18.5054 26.1383 18.3971 26.0443 18.5672C26.0105 18.7361 26.6412 19.1086 26.0925 19.4298" stroke="#92D050" stroke-width="2" stroke-miterlimit="3.8637"/>
<path fill-rule="evenodd" clip-rule="evenodd" d="M26.1562 19.7072C26.323 19.7994 26.3869 20.0134 26.3432 20.1929C26.3274 20.2581 26.2812 20.3213 26.2647 20.3918C26.2879 20.5706 26.4548 20.5322 26.3201 20.8403C26.3042 20.8767 26.2826 20.9378 26.2497 20.962" fill="#92D050"/>
<path d="M26.1562 19.7072C26.323 19.7994 26.3869 20.0134 26.3432 20.1929C26.3274 20.2581 26.2812 20.3213 26.2647 20.3918C26.2879 20.5706 26.4548 20.5322 26.3201 20.8403C26.3042 20.8767 26.2826 20.9378 26.2497 20.962" stroke="#92D050" stroke-width="2" stroke-miterlimit="3.8637"/>
<path fill-rule="evenodd" clip-rule="evenodd" d="M75.8136 32.9502C75.9301 33.053 76.2135 33.1972 76.0789 33.4026C75.5617 33.7773 75.1483 32.7012 75.8136 32.9381V32.9502Z" fill="#92D050" stroke="#92D050" stroke-width="2" stroke-miterlimit="3.8637"/>
<path fill-rule="evenodd" clip-rule="evenodd" d="M84.4845 26.3452C84.5598 26.3645 84.7396 26.4034 84.765 26.4869C84.781 26.8374 84.0796 26.7472 84.1317 26.4869C84.1959 26.482 84.2588 26.4209 84.3005 26.3753C84.3366 26.3729 84.4567 26.3666 84.4845 26.3452Z" fill="#92D050" stroke="#92D050" stroke-width="2" stroke-miterlimit="3.8637"/>
<path fill-rule="evenodd" clip-rule="evenodd" d="M89.7052 42.3538C89.6489 42.6281 89.3408 42.8893 89.0779 42.6915C89.0407 42.6354 89.0452 42.5432 89.0708 42.4845C89.1874 42.2178 89.4271 42.2255 89.675 42.1548L89.7323 42.1698C89.771 42.2521 89.7266 42.2867 89.7113 42.3567L89.7052 42.3538Z" fill="#92D050" stroke="#92D050" stroke-width="2" stroke-miterlimit="3.8637"/>
<path fill-rule="evenodd" clip-rule="evenodd" d="M98.7856 38.2642C98.9485 38.5724 98.1695 38.7571 98.0889 38.4091L98.1009 38.3548C98.2652 38.1904 98.577 38.0179 98.7795 38.2131C98.7823 38.2209 98.7997 38.2613 98.7976 38.2674L98.7856 38.2642Z" fill="#92D050" stroke="#92D050" stroke-width="2" stroke-miterlimit="3.8637"/>
<path fill-rule="evenodd" clip-rule="evenodd" d="M257.459 1.46594L257.479 1.47308L257.488 1.49589L257.471 1.51782L257.445 1.50842C257.437 1.4696 257.425 1.47291 257.459 1.46594Z" fill="#92D050" stroke="#92D050" stroke-width="2" stroke-miterlimit="3.8637" stroke-linejoin="round"/>
<path fill-rule="evenodd" clip-rule="evenodd" d="M257.351 1.5032L257.355 1.52461C257.348 1.53663 257.324 1.53889 257.312 1.53854L257.298 1.522L257.303 1.50999C257.317 1.5039 257.335 1.50094 257.351 1.5032Z" fill="#92D050" stroke="#92D050" stroke-width="2" stroke-miterlimit="3.8637" stroke-linejoin="round"/>
<path fill-rule="evenodd" clip-rule="evenodd" d="M257.736 1.51943L257.772 1.51038C257.781 1.55999 257.786 1.61048 257.798 1.6594L257.757 1.66619C257.714 1.65121 257.665 1.61587 257.651 1.56887C257.673 1.56487 257.694 1.56086 257.716 1.55964L257.736 1.51943Z" fill="#92D050" stroke="#92D050" stroke-width="2" stroke-miterlimit="3.8637" stroke-linejoin="round"/>
<path fill-rule="evenodd" clip-rule="evenodd" d="M256.891 1.73523H256.912L256.919 1.74237L256.912 1.76117C256.903 1.76726 256.887 1.77057 256.876 1.76569V1.74915L256.891 1.73523Z" fill="#92D050" stroke="#92D050" stroke-width="2" stroke-miterlimit="3.8637" stroke-linejoin="round"/>
<path fill-rule="evenodd" clip-rule="evenodd" d="M256.743 1.84096L256.746 1.82442C256.752 1.81049 256.772 1.80057 256.787 1.79883L256.796 1.80823L256.791 1.82477L256.777 1.83643L256.743 1.84096Z" fill="#92D050" stroke="#92D050" stroke-width="2" stroke-miterlimit="3.8637" stroke-linejoin="round"/>
<path fill-rule="evenodd" clip-rule="evenodd" d="M258.291 1.93896L258.331 1.94158L258.358 1.96786L258.35 1.9844C258.331 1.98684 258.304 1.98179 258.29 1.96752L258.291 1.93896Z" fill="#92D050" stroke="#92D050" stroke-width="2" stroke-miterlimit="3.8637" stroke-linejoin="round"/>
<path fill-rule="evenodd" clip-rule="evenodd" d="M258.55 1.99063L258.555 2.02318L258.538 2.04198L258.509 2.04912L258.497 2.03485C258.501 2.01135 258.514 1.99515 258.526 1.97583L258.55 1.99011V1.99063Z" fill="#92D050" stroke="#92D050" stroke-width="2" stroke-miterlimit="3.8637" stroke-linejoin="round"/>
<path fill-rule="evenodd" clip-rule="evenodd" d="M258.664 2.20619L258.695 2.19226L258.714 2.2182V2.24187L258.683 2.23474L258.664 2.20619Z" fill="#92D050" stroke="#92D050" stroke-width="2" stroke-miterlimit="3.8637" stroke-linejoin="round"/>
<path fill-rule="evenodd" clip-rule="evenodd" d="M258.861 2.72791C258.888 2.73783 258.914 2.76325 258.928 2.78727L258.916 2.80868L258.875 2.80137C258.844 2.76063 258.832 2.80276 258.861 2.72791Z" fill="#92D050" stroke="#92D050" stroke-width="2" stroke-miterlimit="3.8637" stroke-linejoin="round"/>
<path fill-rule="evenodd" clip-rule="evenodd" d="M259.262 4.03044C259.255 4.04298 259.24 4.05412 259.226 4.05882C259.221 4.0435 259.21 4.02801 259.202 4.01373L259.205 3.99005L259.234 3.96655L259.262 4.03044Z" fill="#92D050" stroke="#92D050" stroke-width="2" stroke-miterlimit="3.8637" stroke-linejoin="round"/>
<path fill-rule="evenodd" clip-rule="evenodd" d="M259.109 4.19666L259.128 4.23008C259.122 4.28457 259.093 4.34689 259.069 4.39546C259.051 4.34724 259.05 4.26716 259.056 4.21546L259.065 4.20118L259.109 4.19666Z" fill="#92D050" stroke="#92D050" stroke-width="2" stroke-miterlimit="3.8637" stroke-linejoin="round"/>
<path fill-rule="evenodd" clip-rule="evenodd" d="M258.835 4.80945C258.824 4.90398 258.833 4.97588 258.752 5.04273C258.679 5.10296 258.477 5.11706 258.496 4.97553C258.551 4.91025 258.734 4.93183 258.835 4.80945Z" fill="#92D050" stroke="#92D050" stroke-width="2" stroke-miterlimit="3.8637" stroke-linejoin="round"/>
<path fill-rule="evenodd" clip-rule="evenodd" d="M244.717 20.7856L244.707 20.8165C244.693 20.8229 244.666 20.8266 244.652 20.8161L244.647 20.7902C244.668 20.7984 244.697 20.7945 244.717 20.7856Z" fill="#92D050" stroke="#92D050" stroke-width="2" stroke-miterlimit="3.8637" stroke-linejoin="round"/>
<path fill-rule="evenodd" clip-rule="evenodd" d="M244.912 21.1667L244.895 21.181C244.802 21.2061 244.589 21.1253 244.502 21.0884L244.53 21.0741C244.582 21.1072 244.63 21.1133 244.69 21.1026C244.741 21.1477 244.801 21.1479 244.865 21.1357L244.912 21.1667Z" fill="#92D050" stroke="#92D050" stroke-width="2" stroke-miterlimit="3.8637" stroke-linejoin="round"/>
<path fill-rule="evenodd" clip-rule="evenodd" d="M26.8721 18.4868L26.9314 18.4579L26.9793 18.4788L26.9868 18.4976L26.9659 18.5994C26.9299 18.605 26.9405 18.6104 26.9156 18.5832L26.9031 18.5101L26.8721 18.4868Z" fill="#92D050" stroke="#92D050" stroke-width="2" stroke-miterlimit="3.8637" stroke-linejoin="round"/>
<path fill-rule="evenodd" clip-rule="evenodd" d="M25.5697 19.6968L25.5479 19.6994C25.5475 19.674 25.5489 19.5795 25.566 19.5598L25.616 19.5264L25.6306 19.5356C25.6046 19.5669 25.5559 19.6528 25.5697 19.6968Z" fill="#92D050" stroke="#92D050" stroke-width="2" stroke-miterlimit="3.8637" stroke-linejoin="round"/>
<path fill-rule="evenodd" clip-rule="evenodd" d="M25.7832 19.8088L25.8046 19.8111L25.8457 19.8557L25.8534 19.9241L25.8321 19.9361L25.7832 19.8088Z" fill="#92D050" stroke="#92D050" stroke-width="2" stroke-miterlimit="3.8637" stroke-linejoin="round"/>
<path fill-rule="evenodd" clip-rule="evenodd" d="M34.4656 21.043L34.5276 21.0451L34.5324 21.0616L34.4597 21.2324L34.4357 21.2467L34.3855 21.2186L34.3564 21.1525C34.3716 21.1131 34.4223 21.0534 34.4656 21.043Z" fill="#92D050" stroke="#92D050" stroke-width="2" stroke-miterlimit="3.8637" stroke-linejoin="round"/>
<path fill-rule="evenodd" clip-rule="evenodd" d="M9.59812 23.1632C9.68639 23.0887 9.65905 23.1282 9.689 23.0058L9.85264 22.9325L9.94369 22.9691L9.93725 22.9976L9.8946 23.0337L9.90226 23.0739L9.87371 23.0789L9.87179 23.1049L9.8986 23.1566C9.89198 23.1705 9.88659 23.1884 9.88746 23.2039L9.98773 23.2168L10.1371 23.1392L10.1413 23.1035L10.0293 23.1312C10.018 23.0981 10.0173 23.0673 10.021 23.0318L10.0447 23.0197L10.0152 22.9752C10.0133 22.9384 10.1303 22.7967 10.1554 22.7628C10.1556 22.7097 10.0245 22.5685 9.9994 22.5257L10.0151 22.464L10.072 22.4256L10.103 22.425C10.131 22.451 10.1592 22.4722 10.1737 22.5093C10.138 22.5939 10.1662 22.6223 10.221 22.6766L10.2924 22.6569C10.3279 22.6893 10.3575 22.7595 10.3683 22.8049C10.3664 22.8986 10.3009 22.9583 10.2952 23.0448L10.2691 23.0311L10.2391 22.9275L10.2093 23.0389C10.2581 23.107 10.2934 23.1538 10.291 23.2462L10.3775 23.2828L10.4082 23.261C10.4096 23.234 10.4273 23.1891 10.4503 23.1728L10.5314 23.1813L10.553 23.1977C10.5133 23.2736 10.443 23.366 10.4682 23.4567C10.4224 23.4877 10.3763 23.5458 10.3531 23.5954L10.3223 23.6052L10.3028 23.5817L10.2898 23.4947C10.2511 23.5411 10.2344 23.5982 10.2132 23.6539L10.1777 23.6806L9.99609 23.6665C9.96945 23.6224 9.97485 23.5643 10.0065 23.5242L9.99887 23.496L9.93968 23.5443L9.91566 23.5352C9.90156 23.4616 9.96893 23.3846 9.96998 23.3096L9.95309 23.3026C9.84672 23.4396 9.68325 23.6096 9.78318 23.7852L9.76977 23.854L9.69631 23.874L9.64095 23.8534L9.61971 23.8775L9.63956 23.9149L9.58211 23.8968L9.56052 23.9182L9.57305 23.9631L9.56156 24.0037L9.5405 24.0206L9.47104 24.0143L9.4263 24.0409L9.41707 24.0721L9.38399 24.0961L9.31018 24.0925L9.27553 24.1733L9.31192 24.2062L9.25099 24.285C9.27257 24.3555 9.23253 24.4131 9.18414 24.4608L9.11468 24.4501L9.07324 24.3661C9.07498 24.234 9.13574 24.1437 9.16847 24.0234C9.20451 23.8909 9.16969 23.8299 9.31679 23.7326L9.32776 23.6498L9.2959 23.6075L9.36972 23.5852L9.36902 23.5237L9.4115 23.4877L9.41585 23.4654C9.42055 23.4421 9.44945 23.4181 9.46494 23.4001C9.52622 23.3293 9.56609 23.2527 9.59812 23.1632Z" fill="#92D050" stroke="#92D050" stroke-width="2" stroke-miterlimit="3.8637" stroke-linejoin="round"/>
<path fill-rule="evenodd" clip-rule="evenodd" d="M128.372 33.3076C128.377 33.2647 128.367 33.2306 128.367 33.1894C128.42 33.1187 128.486 33.0233 128.554 32.9731L128.557 32.9923C128.502 33.0637 128.391 33.1721 128.417 33.267C128.424 33.2889 128.441 33.3126 128.439 33.3356L128.411 33.3499C128.396 33.3412 128.376 33.325 128.372 33.3076Z" fill="#92D050" stroke="#92D050" stroke-width="2" stroke-miterlimit="3.8637" stroke-linejoin="round"/>
<path fill-rule="evenodd" clip-rule="evenodd" d="M107.57 38.3032L107.587 38.3264L107.574 38.3786L107.543 38.3631L107.546 38.3206L107.57 38.3032Z" fill="#92D050" stroke="#92D050" stroke-width="2" stroke-miterlimit="3.8637" stroke-linejoin="round"/>
<path fill-rule="evenodd" clip-rule="evenodd" d="M69.3767 45.6204C69.3769 45.661 69.374 45.7021 69.368 45.7423L69.3419 45.7609C69.3144 45.7538 69.2897 45.739 69.2615 45.7343L69.25 45.6963C69.266 45.6622 69.2897 45.6237 69.3196 45.5999C69.3303 45.5964 69.3659 45.6161 69.3767 45.6204Z" fill="#92D050" stroke="#92D050" stroke-width="2" stroke-miterlimit="3.8637" stroke-linejoin="round"/>
<path fill-rule="evenodd" clip-rule="evenodd" d="M101.524 45.7854C101.499 45.8201 101.458 45.8664 101.419 45.888L101.381 45.8746L101.379 45.8189L101.419 45.7786C101.444 45.7739 101.504 45.7628 101.524 45.7854Z" fill="#92D050" stroke="#92D050" stroke-width="2" stroke-miterlimit="3.8637" stroke-linejoin="round"/>
<path fill-rule="evenodd" clip-rule="evenodd" d="M68.6876 46.1843L68.6909 46.2167C68.663 46.236 68.6195 46.2275 68.5986 46.2019L68.611 46.1711C68.6369 46.1643 68.667 46.1653 68.6876 46.1843Z" fill="#92D050" stroke="#92D050" stroke-width="2" stroke-miterlimit="3.8637" stroke-linejoin="round"/>
<path fill-rule="evenodd" clip-rule="evenodd" d="M124.77 52.5745L124.791 52.5671L124.831 52.5805L124.844 52.6039C124.846 52.6488 124.803 52.8375 124.777 52.8626L124.72 52.8445C124.71 52.7908 124.731 52.6246 124.77 52.5745Z" fill="#92D050" stroke="#92D050" stroke-width="2" stroke-miterlimit="3.8637" stroke-linejoin="round"/>
<path fill-rule="evenodd" clip-rule="evenodd" d="M133.124 29.0525L133.119 29.048C133.134 29.044 133.152 29.041 133.167 29.0454L133.183 29.0596L133.153 29.0927L133.131 29.0952L133.112 29.0835L133.107 29.0718L133.124 29.0525Z" fill="#92D050" stroke="#92D050" stroke-width="2" stroke-miterlimit="3.8637" stroke-linejoin="round"/>
<path fill-rule="evenodd" clip-rule="evenodd" d="M132.552 29.3782L132.588 29.3945C132.589 29.4137 132.564 29.4321 132.55 29.4396H132.528C132.53 29.4257 132.545 29.4106 132.552 29.3994V29.3782H132.552Z" fill="#92D050" stroke="#92D050" stroke-width="2" stroke-miterlimit="3.8637" stroke-linejoin="round"/>
<path fill-rule="evenodd" clip-rule="evenodd" d="M134.736 30.9972C134.752 31.0242 134.786 31.0254 134.8 31.0515L134.774 31.0564C134.756 31.0419 134.735 31.0324 134.72 31.0137L134.736 30.9972Z" fill="#92D050" stroke="#92D050" stroke-width="2" stroke-miterlimit="3.8637" stroke-linejoin="round"/>
<path fill-rule="evenodd" clip-rule="evenodd" d="M135.295 31.5658L135.269 31.5729C135.26 31.5606 135.258 31.5449 135.255 31.5305C135.252 31.5181 135.25 31.5061 135.243 31.4949C135.24 31.4897 135.235 31.484 135.235 31.4777V31.4714C135.256 31.4716 135.302 31.5371 135.295 31.5658Z" fill="#92D050" stroke="#92D050" stroke-width="2" stroke-miterlimit="3.8637" stroke-linejoin="round"/>
<path fill-rule="evenodd" clip-rule="evenodd" d="M155.964 32.1472L155.976 32.1589C155.971 32.1876 155.955 32.2182 155.93 32.2346C155.898 32.2029 155.936 32.1629 155.964 32.1472Z" fill="#92D050" stroke="#92D050" stroke-width="2" stroke-miterlimit="3.8637" stroke-linejoin="round"/>
<path fill-rule="evenodd" clip-rule="evenodd" d="M135.661 32.868L135.699 32.8538C135.71 32.8611 135.72 32.8762 135.723 32.8893L135.711 32.9058L135.692 32.9103L135.661 32.868Z" fill="#92D050" stroke="#92D050" stroke-width="2" stroke-miterlimit="3.8637" stroke-linejoin="round"/>
<path fill-rule="evenodd" clip-rule="evenodd" d="M154.845 32.9949L154.871 33.0046C154.875 33.0152 154.883 33.0246 154.89 33.0332C154.912 33.0372 154.942 33.0384 154.959 33.0215L154.973 33.0384C154.941 33.0532 154.921 33.0636 154.887 33.0685C154.868 33.0551 154.851 33.0389 154.833 33.0231L154.831 33.002L154.845 32.9949Z" fill="#92D050" stroke="#92D050" stroke-width="2" stroke-miterlimit="3.8637" stroke-linejoin="round"/>
<path fill-rule="evenodd" clip-rule="evenodd" d="M152.837 33.1961L152.854 33.1796L152.88 33.1797L152.889 33.2128C152.883 33.2335 152.858 33.2445 152.839 33.2527L152.832 33.2335C152.837 33.2227 152.839 33.2079 152.837 33.1961Z" fill="#92D050" stroke="#92D050" stroke-width="2" stroke-miterlimit="3.8637" stroke-linejoin="round"/>
<path fill-rule="evenodd" clip-rule="evenodd" d="M136.013 33.2219C136.024 33.2355 136.062 33.2318 136.086 33.255L136.091 33.2715L136.06 33.2928H136.035L136.013 33.2644V33.2219H136.013Z" fill="#92D050" stroke="#92D050" stroke-width="2" stroke-miterlimit="3.8637" stroke-linejoin="round"/>
<path fill-rule="evenodd" clip-rule="evenodd" d="M145.867 33.407C145.852 33.3678 145.857 33.3248 145.857 33.2839L145.874 33.2911C145.882 33.3188 145.894 33.3645 145.883 33.3927L145.867 33.407Z" fill="#92D050" stroke="#92D050" stroke-width="2" stroke-miterlimit="3.8637" stroke-linejoin="round"/>
<path fill-rule="evenodd" clip-rule="evenodd" d="M151.624 33.4772L151.641 33.4775L151.662 33.4963L151.665 33.5151C151.652 33.5315 151.626 33.5444 151.605 33.5456L151.582 33.5385L151.579 33.5242C151.593 33.5059 151.612 33.497 151.624 33.4772Z" fill="#92D050" stroke="#92D050" stroke-width="2" stroke-miterlimit="3.8637" stroke-linejoin="round"/>
<path fill-rule="evenodd" clip-rule="evenodd" d="M149.872 34.88L149.863 34.8657L149.839 34.8751C149.825 34.8664 149.805 34.8584 149.804 34.8398L149.839 34.8281L149.863 34.8398L149.872 34.88Z" fill="#92D050" stroke="#92D050" stroke-width="2" stroke-miterlimit="3.8637" stroke-linejoin="round"/>
<path fill-rule="evenodd" clip-rule="evenodd" d="M151.002 44.8253C151.049 44.8119 151.1 44.8001 151.149 44.7978L151.177 44.8335L151.13 44.8544L151.158 44.8901C151.183 44.893 151.337 44.9024 151.357 44.9198C151.35 44.9614 151.097 45.0459 151.036 45.0685L150.997 45.158C150.91 45.1782 150.89 45.2844 150.83 45.2913C150.734 45.2372 150.746 44.9134 150.775 44.8213C150.833 44.7926 150.949 44.783 151.002 44.8253Z" fill="#92D050" stroke="#92D050" stroke-width="2" stroke-miterlimit="3.8637" stroke-linejoin="round"/>
<path fill-rule="evenodd" clip-rule="evenodd" d="M149.593 45.6343C149.623 45.6339 149.68 45.6355 149.707 45.6517L149.744 45.7133L149.718 45.7485C149.676 45.7567 149.616 45.7586 149.585 45.7239L149.533 45.7238L149.517 45.6858L149.484 45.6644L149.394 45.6992L149.375 45.6755C149.376 45.6466 149.392 45.6078 149.411 45.5862L149.404 45.5293L149.436 45.4917C149.492 45.5142 149.556 45.5927 149.593 45.6343Z" fill="#92D050" stroke="#92D050" stroke-width="2" stroke-miterlimit="3.8637" stroke-linejoin="round"/>
<path fill-rule="evenodd" clip-rule="evenodd" d="M151.266 45.6674C151.302 45.6564 151.337 45.6416 151.371 45.6258C151.374 45.6588 151.371 45.7058 151.356 45.7365L151.305 45.76C151.274 45.7581 151.229 45.7523 151.202 45.7356C151.186 45.7612 151.16 45.7845 151.135 45.8011C151.103 45.8072 151.067 45.8068 151.035 45.8005C150.957 45.745 151.008 45.6202 151.016 45.5406L151.044 45.5337C151.141 45.5617 151.211 45.5932 151.307 45.526L151.326 45.5594L151.321 45.5972C151.3 45.6117 151.268 45.6191 151.243 45.6177C151.243 45.6348 151.253 45.6564 151.266 45.6674Z" fill="#92D050" stroke="#92D050" stroke-width="2" stroke-miterlimit="3.8637" stroke-linejoin="round"/>
<path fill-rule="evenodd" clip-rule="evenodd" d="M148.28 45.6539C148.299 45.6288 148.292 45.5614 148.277 45.5357L148.3 45.5029L148.35 45.5127C148.375 45.5409 148.404 45.5675 148.435 45.5889C148.438 45.6095 148.441 45.6318 148.439 45.6526L148.477 45.6647L148.498 45.6342C148.556 45.6714 148.627 45.6716 148.687 45.7019L148.713 45.7562C148.671 45.8128 148.718 45.8972 148.709 45.957L148.681 45.9496C148.666 45.9263 148.637 45.9028 148.61 45.8952L148.58 45.8972L148.584 45.9281C148.62 45.9705 148.655 46.0114 148.685 46.0586C148.681 46.0898 148.686 46.1258 148.696 46.1554L148.675 46.181C148.608 46.189 148.46 46.259 148.411 46.2479C148.366 46.1415 148.437 46.0626 148.463 45.9672L148.439 45.9458L148.416 45.9646C148.42 46.0665 148.265 46.1368 148.226 46.2183L148.184 46.2367L148.16 46.1894C148.148 46.1918 148.137 46.205 148.132 46.2153C148.078 46.2212 148.042 46.1819 148.028 46.1342L147.997 46.1199C147.975 46.127 147.929 46.1324 147.907 46.1194L147.9 46.0908C147.914 46.0463 148.254 45.9394 148.321 45.9166L148.354 45.9263L148.347 45.9053C148.375 45.9073 148.42 45.8668 148.435 45.8468L148.437 45.8041L148.381 45.7165C148.287 45.6715 148.219 45.8231 148.144 45.8071L148.123 45.7763C148.093 45.7573 148.053 45.7561 148.019 45.7543L148.009 45.74L148.095 45.6133C148.12 45.6063 148.146 45.5996 148.171 45.5973C148.194 45.6006 148.246 45.6426 148.28 45.6539Z" fill="#92D050" stroke="#92D050" stroke-width="2" stroke-miterlimit="3.8637" stroke-linejoin="round"/>
<path fill-rule="evenodd" clip-rule="evenodd" d="M150.866 46.3211L150.757 46.2988C150.785 46.1287 150.601 45.9686 150.523 45.8323L150.54 45.7806C150.612 45.7466 150.817 45.8516 150.871 45.9007L150.878 45.9599L150.846 46.021C150.844 46.0697 150.882 46.1521 150.907 46.1914L150.866 46.3211Z" fill="#92D050" stroke="#92D050" stroke-width="2" stroke-miterlimit="3.8637" stroke-linejoin="round"/>
<path fill-rule="evenodd" clip-rule="evenodd" d="M150.568 46.444L150.587 46.4466C150.593 46.4727 150.61 46.5369 150.631 46.5556L150.614 46.5625L150.584 46.5505C150.571 46.5181 150.565 46.4784 150.568 46.444Z" fill="#92D050" stroke="#92D050" stroke-width="2" stroke-miterlimit="3.8637" stroke-linejoin="round"/>
<path fill-rule="evenodd" clip-rule="evenodd" d="M151.11 46.3135L151.176 46.3185C151.286 46.3875 151.268 46.481 151.195 46.5713L151.164 46.583L151.124 46.5612C151.069 46.4756 151.083 46.4033 151.11 46.3135Z" fill="#92D050" stroke="#92D050" stroke-width="2" stroke-miterlimit="3.8637" stroke-linejoin="round"/>
<path fill-rule="evenodd" clip-rule="evenodd" d="M152.437 47.1941L152.435 47.1612L152.461 47.1165L152.494 47.1001L152.508 47.1356C152.507 47.1723 152.464 47.1847 152.437 47.1941Z" fill="#92D050" stroke="#92D050" stroke-width="2" stroke-miterlimit="3.8637" stroke-linejoin="round"/>
<path fill-rule="evenodd" clip-rule="evenodd" d="M152.239 47.5566C152.249 47.5768 152.238 47.6144 152.227 47.632L152.127 47.6902L152.104 47.683C152.114 47.6466 152.179 47.5862 152.206 47.5634L152.239 47.5566Z" fill="#92D050" stroke="#92D050" stroke-width="2" stroke-miterlimit="3.8637" stroke-linejoin="round"/>
<path fill-rule="evenodd" clip-rule="evenodd" d="M151.692 47.9727L151.683 47.9539C151.727 47.8923 151.803 47.8357 151.878 47.8183C151.888 47.8002 151.912 47.7758 151.933 47.7715L151.951 47.7955C151.873 47.8244 151.755 47.9156 151.692 47.9727Z" fill="#92D050" stroke="#92D050" stroke-width="2" stroke-miterlimit="3.8637" stroke-linejoin="round"/>
<path fill-rule="evenodd" clip-rule="evenodd" d="M151.395 48.0297C151.435 48.0162 151.472 48.0637 151.577 47.998L151.606 48.0052C151.565 48.0605 151.499 48.0893 151.432 48.0936L151.39 48.0792L151.395 48.0297Z" fill="#92D050" stroke="#92D050" stroke-width="2" stroke-miterlimit="3.8637" stroke-linejoin="round"/>
<path fill-rule="evenodd" clip-rule="evenodd" d="M211.837 48.6065L211.87 48.6208L211.872 48.6514L211.856 48.6612C211.8 48.6375 211.732 48.4904 211.808 48.5523L211.837 48.6065Z" fill="#92D050" stroke="#92D050" stroke-width="2" stroke-miterlimit="3.8637" stroke-linejoin="round"/>
<path fill-rule="evenodd" clip-rule="evenodd" d="M216.701 49.6489C216.647 49.587 216.655 49.4237 216.729 49.3866L216.776 49.415C216.788 49.438 216.792 49.4698 216.788 49.4952C216.777 49.5165 216.76 49.5447 216.734 49.5497C216.703 49.5774 216.744 49.6503 216.701 49.6489Z" fill="#92D050" stroke="#92D050" stroke-width="2" stroke-miterlimit="3.8637" stroke-linejoin="round"/>
<path fill-rule="evenodd" clip-rule="evenodd" d="M216.31 49.6784L216.348 49.6568C216.427 49.6659 216.349 49.7606 216.235 49.7045C216.227 49.6962 216.217 49.681 216.218 49.6688L216.227 49.65C216.246 49.635 216.271 49.6244 216.294 49.6169L216.31 49.6784Z" fill="#92D050" stroke="#92D050" stroke-width="2" stroke-miterlimit="3.8637" stroke-linejoin="round"/>
<path fill-rule="evenodd" clip-rule="evenodd" d="M217.007 49.7052L217.004 49.6838C217.027 49.6605 217.057 49.6584 217.087 49.6647C217.097 49.6786 217.104 49.7075 217.087 49.7192C217.064 49.7346 217.024 49.7232 217.007 49.7052Z" fill="#92D050" stroke="#92D050" stroke-width="2" stroke-miterlimit="3.8637" stroke-linejoin="round"/>
<path fill-rule="evenodd" clip-rule="evenodd" d="M217.105 50.2204L217.067 50.204C217.064 50.1836 217.182 49.9822 217.189 49.9742C217.198 49.9653 217.253 49.8839 217.266 49.915C217.26 49.931 217.253 49.9521 217.256 49.9693L217.278 49.9836L217.285 50.0096C217.274 50.0209 217.255 50.0277 217.24 50.031L217.233 50.0475L217.243 50.0875C217.204 50.1272 217.203 50.1718 217.176 50.2108C217.153 50.211 217.128 50.2143 217.105 50.2204Z" fill="#92D050" stroke="#92D050" stroke-width="2" stroke-miterlimit="3.8637" stroke-linejoin="round"/>
<path fill-rule="evenodd" clip-rule="evenodd" d="M217.836 50.9924C217.846 51.0055 217.85 51.026 217.85 51.042L217.836 51.0633C217.792 51.0741 217.762 51.0734 217.72 51.0944L217.689 51.0542C217.689 51.045 217.698 51.0344 217.704 51.0283L217.718 51.0328C217.755 51.0196 217.798 51.0024 217.836 50.9924Z" fill="#92D050" stroke="#92D050" stroke-width="2" stroke-miterlimit="3.8637" stroke-linejoin="round"/>
<path fill-rule="evenodd" clip-rule="evenodd" d="M214.301 51.5018H214.308C214.339 51.5316 214.361 51.5831 214.377 51.6223L214.365 51.6366C214.337 51.646 214.298 51.5232 214.301 51.5018Z" fill="#92D050" stroke="#92D050" stroke-width="2" stroke-miterlimit="3.8637" stroke-linejoin="round"/>
<path fill-rule="evenodd" clip-rule="evenodd" d="M217.205 51.5116L217.219 51.573C217.238 51.5898 217.258 51.6068 217.273 51.6275C217.233 51.6818 217.157 51.6993 217.096 51.72C217.063 51.7022 217.029 51.6867 216.994 51.6728C216.984 51.6369 216.958 51.6042 216.923 51.5903L216.897 51.647L216.873 51.6376C216.862 51.6023 216.85 51.5678 216.835 51.5337C216.8 51.5281 216.762 51.5097 216.726 51.5149L216.712 51.5528C216.731 51.5776 216.765 51.5861 216.781 51.6143L216.776 51.6427C216.724 51.6564 216.682 51.6951 216.63 51.7069C216.612 51.6893 216.604 51.6641 216.599 51.6406C216.572 51.6521 216.499 51.6752 216.492 51.7095C216.492 51.7095 216.402 51.7174 216.374 51.7313C216.374 51.7313 216.29 51.7 216.26 51.6841C216.256 51.6425 216.253 51.5967 216.224 51.5636C216.198 51.5765 216.176 51.5957 216.151 51.6087C216.057 51.5936 216.009 51.5685 215.909 51.5833C215.882 51.5666 215.877 51.5307 215.85 51.5147C215.811 51.5177 215.776 51.5401 215.736 51.5339C215.748 51.4984 215.788 51.4818 215.807 51.451L215.781 51.439L215.769 51.4063L215.776 51.3732C215.658 51.3039 215.674 51.1782 215.742 51.0798L215.688 51.0349L215.61 50.9381L215.624 50.9026C215.656 50.9136 215.695 50.927 215.73 50.9213C215.739 50.8662 215.69 50.8377 215.673 50.7912C215.682 50.7425 215.696 50.6807 215.663 50.6375C215.635 50.6288 215.605 50.6223 215.576 50.6187C215.531 50.6344 215.513 50.6932 215.51 50.7372C215.415 50.7191 215.443 50.6498 215.476 50.5886L215.433 50.5626C215.412 50.5964 215.389 50.6215 215.346 50.6194C215.281 50.5612 215.295 50.3104 215.293 50.2176C215.393 50.1849 215.479 50.1157 215.562 50.0536C215.6 50.0536 215.639 50.0715 215.674 50.0841C215.676 50.0578 215.666 50.0294 215.65 50.0083L215.737 49.9775C215.786 50.0195 215.804 50.0846 215.849 50.1286L215.972 50.1567C215.96 50.1189 216.006 50.0041 216.022 49.965C215.945 49.9044 215.91 49.7716 215.983 49.6953C216.009 49.7108 216.06 49.7148 216.088 49.7023C216.225 49.7721 216.168 49.8656 216.131 49.9718C216.17 49.9878 216.206 49.9441 216.237 49.9267C216.23 49.8868 216.241 49.8508 216.28 49.8344L216.308 49.8367C216.387 49.8999 216.432 49.9291 216.405 49.8741L216.436 49.8127C216.486 49.8292 216.585 49.9135 216.631 49.9495L216.656 49.9258C216.645 49.829 216.81 49.8527 216.87 49.8353C216.882 49.8668 216.868 49.8948 216.877 49.923C216.912 49.9323 216.964 49.9472 217 49.9392C217.004 49.9476 217.017 50.2101 217.015 50.2134C217.024 50.2707 217.057 50.2984 217.112 50.3125L217.138 50.291L217.167 50.2865C217.191 50.3219 217.195 50.3659 217.212 50.4046C217.228 50.3581 217.295 50.3391 217.326 50.3027L217.311 50.2555L217.335 50.2225L217.394 50.2082C217.409 50.2663 217.434 50.3198 217.465 50.3711L217.434 50.3809C217.435 50.4261 217.473 50.563 217.511 50.5887L217.572 50.8323C217.542 50.8614 217.509 50.8997 217.464 50.9035L217.414 50.8372C217.37 50.8265 217.307 50.8206 217.262 50.8234C217.25 50.845 217.24 50.868 217.234 50.892C217.211 50.8821 217.189 50.8701 217.168 50.8567L217.137 50.8781C217.085 51.0294 217.271 51.0074 217.31 51.1094L217.332 51.1143L217.36 51.0952L217.382 51.0456L217.401 51.0078L217.424 51.0006L217.455 51.0194L217.526 51.012C217.549 51.0513 217.587 51.0807 217.604 51.123C217.531 51.213 217.485 51.1336 217.422 51.1354L217.406 51.1564C217.398 51.2346 217.395 51.3133 217.38 51.3906C217.34 51.4277 217.285 51.4414 217.235 51.462L217.205 51.5116Z" fill="#92D050" stroke="#92D050" stroke-width="2" stroke-miterlimit="3.8637" stroke-linejoin="round"/>
<path fill-rule="evenodd" clip-rule="evenodd" d="M214.397 51.7168C214.405 51.6989 214.42 51.7504 214.42 51.7546C214.425 51.7899 214.423 51.8322 214.404 51.8634C214.374 51.9095 214.226 52.0463 214.179 52.0578L214.163 52.039L214.16 52.0155L214.177 52.0084L214.198 52.0129C214.238 51.9854 214.365 51.8837 214.385 51.8515C214.388 51.8146 214.387 51.75 214.397 51.7168Z" fill="#92D050" stroke="#92D050" stroke-width="2" stroke-miterlimit="3.8637" stroke-linejoin="round"/>
<path fill-rule="evenodd" clip-rule="evenodd" d="M214.094 52.0583C214.015 52.0758 213.943 52.1119 213.862 52.1204L213.859 52.1013C213.91 52.0973 213.966 52.0685 214.013 52.0513L214.021 52.0466C214.035 52.0384 214.123 52.0166 214.094 52.0583Z" fill="#92D050" stroke="#92D050" stroke-width="2" stroke-miterlimit="3.8637" stroke-linejoin="round"/>
<path fill-rule="evenodd" clip-rule="evenodd" d="M213.805 52.1159C213.601 52.1766 213.671 52.2719 213.512 52.3673C213.484 52.3671 213.474 52.369 213.448 52.3532L213.443 52.3344L213.46 52.3107L213.512 52.3175C213.621 52.2802 213.632 52.0589 213.805 52.1159Z" fill="#92D050" stroke="#92D050" stroke-width="2" stroke-miterlimit="3.8637" stroke-linejoin="round"/>
<path fill-rule="evenodd" clip-rule="evenodd" d="M232.436 52.9303L232.443 52.9137C232.474 52.8991 232.528 52.8415 232.504 52.8027C232.488 52.7919 232.474 52.8001 232.471 52.7955L232.483 52.7861L232.519 52.7884C232.55 52.8474 232.508 52.9374 232.436 52.9303Z" fill="#92D050" stroke="#92D050" stroke-width="2" stroke-miterlimit="3.8637" stroke-linejoin="round"/>
<path fill-rule="evenodd" clip-rule="evenodd" d="M232.454 53.0319L232.459 53.0888C232.433 53.1024 232.391 53.1039 232.365 53.0888L232.351 53.0676L232.369 53.0345C232.389 53.0253 232.414 53.0188 232.436 53.0202L232.454 53.0319Z" fill="#92D050" stroke="#92D050" stroke-width="2" stroke-miterlimit="3.8637" stroke-linejoin="round"/>
<path fill-rule="evenodd" clip-rule="evenodd" d="M241.858 57.5102C241.849 57.4975 241.851 57.4741 241.856 57.4604L241.925 57.4484C241.94 57.4687 241.964 57.4806 241.965 57.51L241.939 57.5123L241.92 57.491L241.858 57.5102Z" fill="#92D050" stroke="#92D050" stroke-width="2" stroke-miterlimit="3.8637" stroke-linejoin="round"/>
<path fill-rule="evenodd" clip-rule="evenodd" d="M242.002 57.7988L241.955 57.7846C241.943 57.7461 241.93 57.7156 241.938 57.6735C241.962 57.6472 241.979 57.6575 242.007 57.6547C242.02 57.6456 242.032 57.6322 242.04 57.619C242.036 57.5727 242.009 57.5716 241.993 57.541L242.005 57.5267C242.025 57.5273 242.046 57.5313 242.066 57.5361C242.08 57.5492 242.09 57.5703 242.095 57.5884C242.048 57.6498 241.991 57.7172 242.002 57.7988Z" fill="#92D050" stroke="#92D050" stroke-width="2" stroke-miterlimit="3.8637" stroke-linejoin="round"/>
<path fill-rule="evenodd" clip-rule="evenodd" d="M205.57 62.0994C205.508 62.0848 205.447 62.0646 205.391 62.0338L205.4 61.9984C205.478 61.9833 205.525 62.0024 205.58 62.0569L205.587 62.0877L205.57 62.0994Z" fill="#92D050" stroke="#92D050" stroke-width="2" stroke-miterlimit="3.8637" stroke-linejoin="round"/>
<path fill-rule="evenodd" clip-rule="evenodd" d="M168.643 64.2754L168.687 64.2982L168.714 64.2933C168.741 64.2416 168.735 64.1692 168.742 64.1109L168.763 64.0989L168.787 64.1292C168.783 64.1757 168.781 64.265 168.754 64.3022L168.712 64.324C168.697 64.3219 168.627 64.2914 168.64 64.2778L168.643 64.2754Z" fill="#92D050" stroke="#92D050" stroke-width="2" stroke-miterlimit="3.8637" stroke-linejoin="round"/>
<path fill-rule="evenodd" clip-rule="evenodd" d="M171.072 65.0229C171.031 65.0105 170.988 65.001 170.949 64.9821C170.97 64.9661 171.075 64.9623 171.114 64.9564L171.145 64.9299L171.156 64.873C171.145 64.8598 171.143 64.8371 171.145 64.8213L171.179 64.8324L171.193 64.8725C171.169 64.9336 171.15 65.0126 171.072 65.0229Z" fill="#92D050" stroke="#92D050" stroke-width="2" stroke-miterlimit="3.8637" stroke-linejoin="round"/>
<path fill-rule="evenodd" clip-rule="evenodd" d="M265.809 66.6842L265.785 66.6628L265.776 66.632C265.813 66.6393 265.852 66.6309 265.892 66.6374C265.901 66.6523 265.901 66.675 265.899 66.6917C265.864 66.6915 265.843 66.6906 265.809 66.6842Z" fill="#92D050" stroke="#92D050" stroke-width="2" stroke-miterlimit="3.8637" stroke-linejoin="round"/>
<path fill-rule="evenodd" clip-rule="evenodd" d="M170.158 66.7555L170.173 66.7712L170.172 66.8171C170.01 66.8653 169.549 67.1559 169.479 67.1636L169.479 67.1021C169.698 67.0158 169.925 66.7945 170.158 66.7555Z" fill="#92D050" stroke="#92D050" stroke-width="2" stroke-miterlimit="3.8637" stroke-linejoin="round"/>
<path fill-rule="evenodd" clip-rule="evenodd" d="M264.538 67.0088C264.58 67.0319 264.608 67.189 264.709 67.2483C264.78 67.2899 265.125 67.3443 265.175 67.2456L265.197 67.2384L265.206 67.2572C265.154 67.3993 264.747 67.3248 264.643 67.2744C264.609 67.221 264.568 67.1608 264.547 67.1011C264.544 67.0929 264.527 67.0152 264.528 67.0111L264.538 67.0088Z" fill="#92D050" stroke="#92D050" stroke-width="2" stroke-miterlimit="3.8637" stroke-linejoin="round"/>
<path fill-rule="evenodd" clip-rule="evenodd" d="M265.36 67.2059C265.335 67.2049 265.308 67.2057 265.282 67.2078C265.26 67.1887 265.231 67.1728 265.203 67.165L265.167 67.1767C265.153 67.1984 265.145 67.2289 265.145 67.2547C265.121 67.275 265.036 67.2583 265.003 67.259C264.79 67.263 264.609 67.2529 264.581 66.9853C264.687 66.914 264.809 66.8738 264.91 66.7945C265.015 66.7131 265.091 66.6039 265.186 66.5117C265.19 66.4598 265.196 66.4035 265.222 66.3578C265.308 66.3033 265.665 66.2467 265.761 66.2864L265.815 66.3811C265.832 66.4972 265.692 66.6577 265.752 66.7716L265.783 66.7858C265.827 66.7803 265.868 66.771 265.911 66.7604C265.905 66.8649 265.88 66.9606 265.888 67.068C265.871 67.0964 265.841 67.1048 265.822 67.1272C265.75 67.2104 265.772 67.3024 265.623 67.3629C265.5 67.3755 265.43 67.2869 265.36 67.2059Z" fill="#92D050" stroke="#92D050" stroke-width="2" stroke-miterlimit="3.8637" stroke-linejoin="round"/>
<path fill-rule="evenodd" clip-rule="evenodd" d="M265.523 67.4007L265.521 67.4172L265.488 67.4195L265.337 67.3218C265.333 67.3112 265.316 67.2201 265.313 67.2175L265.344 67.2198C265.379 67.2699 265.453 67.3967 265.523 67.4007Z" fill="#92D050" stroke="#92D050" stroke-width="2" stroke-miterlimit="3.8637" stroke-linejoin="round"/>
<path fill-rule="evenodd" clip-rule="evenodd" d="M60.5532 52.5477L60.511 52.5176L60.499 52.4633C60.514 52.437 60.56 52.4128 60.5896 52.4121L60.6258 52.4515V52.5058C60.6124 52.5242 60.5775 52.5488 60.5532 52.5477Z" fill="#92D050" stroke="#92D050" stroke-width="2" stroke-miterlimit="3.8637" stroke-linejoin="round"/>
<path fill-rule="evenodd" clip-rule="evenodd" d="M170.124 64.9101L170.109 64.8528L170.149 64.8197H170.191C170.192 64.85 170.208 64.8968 170.23 64.9193L170.218 64.9464C170.189 64.9503 170.143 64.9322 170.124 64.9101Z" fill="#92D050" stroke="#92D050" stroke-width="2" stroke-miterlimit="3.8637" stroke-linejoin="round"/>
<path fill-rule="evenodd" clip-rule="evenodd" d="M185.026 42.9932C185.067 42.9554 185.126 42.9384 185.18 42.9359L185.21 42.9782C185.161 43.0106 185.081 43.0092 185.026 42.9932Z" fill="#92D050" stroke="#92D050" stroke-width="2" stroke-miterlimit="3.8637" stroke-linejoin="round"/>
<path fill-rule="evenodd" clip-rule="evenodd" d="M187.922 44.269L187.928 44.2058L187.967 44.1847L187.991 44.2298L187.97 44.2782L187.928 44.2479L187.922 44.269Z" fill="#92D050" stroke="#92D050" stroke-width="2" stroke-miterlimit="3.8637" stroke-linejoin="round"/>
<path fill-rule="evenodd" clip-rule="evenodd" d="M206.841 61.5655L206.802 61.5324L206.817 61.4751L206.874 61.46L206.916 61.4901L206.938 61.5413C206.909 61.5559 206.873 61.5653 206.841 61.5655Z" fill="#92D050" stroke="#92D050" stroke-width="2" stroke-miterlimit="3.8637" stroke-linejoin="round"/>
<path fill-rule="evenodd" clip-rule="evenodd" d="M123.622 45.8133V45.771L123.631 45.7228L123.67 45.6925L123.707 45.6594L123.728 45.6866L123.722 45.7499L123.694 45.7952L123.649 45.8222L123.622 45.8133Z" fill="#92D050" stroke="#92D050" stroke-width="2" stroke-miterlimit="3.8637" stroke-linejoin="round"/>
<path fill-rule="evenodd" clip-rule="evenodd" d="M123.532 45.7076L123.481 45.6865L123.447 45.6533V45.596L123.496 45.5779H123.553L123.586 45.6111V45.6684L123.532 45.7076Z" fill="#92D050" stroke="#92D050" stroke-width="2" stroke-miterlimit="3.8637" stroke-linejoin="round"/>
<path fill-rule="evenodd" clip-rule="evenodd" d="M125.89 43.9344L125.842 43.9133L125.797 43.886L125.806 43.8378L125.863 43.8226H125.918L125.975 43.8378L126.011 43.871L125.981 43.9133L125.927 43.9283L125.89 43.9344Z" fill="#92D050" stroke="#92D050" stroke-width="2" stroke-miterlimit="3.8637" stroke-linejoin="round"/>
<path fill-rule="evenodd" clip-rule="evenodd" d="M125.89 42.8938L125.902 42.8515L125.932 42.8093L125.974 42.7822L126.016 42.755L126.053 42.7883V42.8455L126.031 42.8938L125.98 42.9148L125.926 42.8997L125.89 42.8938Z" fill="#92D050" stroke="#92D050" stroke-width="2" stroke-miterlimit="3.8637" stroke-linejoin="round"/>
<path fill-rule="evenodd" clip-rule="evenodd" d="M125.567 43.3702L125.546 43.322V43.2496L125.594 43.2285L125.624 43.2586L125.651 43.2978L125.636 43.3551L125.567 43.3702Z" fill="#92D050" stroke="#92D050" stroke-width="2" stroke-miterlimit="3.8637" stroke-linejoin="round"/>
<path fill-rule="evenodd" clip-rule="evenodd" d="M94.7656 44.7094L94.7717 44.6612L94.814 44.634L94.8713 44.649L94.8924 44.6972L94.8591 44.7305L94.7656 44.7094Z" fill="#92D050" stroke="#92D050" stroke-width="2" stroke-miterlimit="3.8637" stroke-linejoin="round"/>
<path fill-rule="evenodd" clip-rule="evenodd" d="M92.624 44.3323V44.278C92.638 44.2553 92.6769 44.2339 92.7024 44.2297C92.7302 44.2438 92.7582 44.2658 92.7777 44.2901L92.7657 44.3445L92.7085 44.3594L92.624 44.3323Z" fill="#92D050" stroke="#92D050" stroke-width="2" stroke-miterlimit="3.8637" stroke-linejoin="round"/>
<path fill-rule="evenodd" clip-rule="evenodd" d="M32.1876 37.5707C32.1239 37.2553 32.4611 37.292 32.6521 37.2237L32.6611 37.2178L32.7032 37.2117C32.9917 37.1705 32.8886 37.4438 33.1195 37.5164C33.2756 37.5655 33.4879 37.5199 33.6172 37.649C33.8608 37.8926 33.3207 38.0293 33.1527 37.9838C32.9412 37.9267 32.8389 37.7152 32.6461 37.649C32.4978 37.5982 32.2933 37.7215 32.1876 37.5707Z" fill="#92D050" stroke="#92D050" stroke-width="2" stroke-miterlimit="3.8637" stroke-linejoin="round"/>
<path fill-rule="evenodd" clip-rule="evenodd" d="M159.621 51.2008L159.612 51.1865L159.588 51.1959C159.574 51.1872 159.554 51.1792 159.553 51.1606L159.588 51.1489L159.612 51.1606L159.621 51.2008Z" fill="#92D050" stroke="#92D050" stroke-width="2" stroke-miterlimit="3.8637" stroke-linejoin="round"/>
<path fill-rule="evenodd" clip-rule="evenodd" d="M158.604 49.4136L158.62 49.3971L158.646 49.3974L158.656 49.4305C158.649 49.4514 158.624 49.4624 158.606 49.4706L158.599 49.4514C158.604 49.4404 158.605 49.4256 158.604 49.4136Z" fill="#92D050" stroke="#92D050" stroke-width="2" stroke-miterlimit="3.8637" stroke-linejoin="round"/>
</svg>
