<svg width="124" height="156" viewBox="0 0 124 156" fill="none" xmlns="http://www.w3.org/2000/svg">
<path d="M108.132 19.919L112.093 20.759L123.495 20.399L123.734 21.239L123.134 24.239L122.894 25.199L121.214 30.358L119.054 34.198L117.493 40.679L114.734 46.679L111.613 51.118L104.052 53.998L101.652 56.758L100.212 60.477L97.812 61.558L95.411 62.758L90.611 66.598L86.65 72.477L82.929 73.437L80.89 74.997L77.409 79.678L75.368 81.357L72.128 82.077L70.689 83.518L69.368 86.397L68.529 86.997L64.568 86.397L62.287 88.916V92.397L59.887 94.916L57.847 99.836L55.686 109.196L56.407 112.676L56.527 118.676L55.927 119.635L54.126 120.715L56.167 122.276L55.927 131.754L55.206 135.594L53.646 137.875L53.286 141.116L51.366 141.956L50.046 143.514L48.846 143.155L47.765 143.754L47.886 144.956L44.045 146.754L44.885 148.674L44.285 149.635L42.125 153.235L38.405 155.514H37.564L37.325 153.834L34.924 154.914L30.484 155.034L24.242 152.034L20.282 151.194L15.842 146.875L14.161 141.594L13.321 140.995L13.081 138.834L14.402 135.116L14.882 134.036L12.841 132.956L12.361 130.676L13.201 128.276L11.881 126.715L11.161 123.116L8.641 119.155L5.76099 118.436L8.041 115.916L10.801 108.596L11.641 102.356L14.762 99.836L15.121 98.397L14.521 95.276V95.038L11.761 91.436L7.44099 88.797L6 84.957L4.43999 83.396L0.239998 80.997L0 79.797L0.119995 78.476L2.16 77.877L7.07999 78.957L9.361 80.277L11.881 80.037L13.681 80.997L14.762 80.396L15.962 80.518L15.482 84.597L16.562 87.957L17.282 89.038L17.762 89.516L18.242 88.557L19.442 82.557L17.162 81.717L16.802 80.877L17.162 78.957L20.402 79.797L22.082 79.437L23.042 74.397L24.363 71.757L25.803 71.277L30.003 70.437L33.724 67.437L36.124 67.917L38.764 65.758L40.204 65.397L43.325 65.997L46.926 66.718L48.606 65.157L49.806 64.917L52.686 65.758L54.726 65.157L56.647 62.758L56.527 61.438L54.846 59.518L55.927 56.998L59.167 54.958H61.087L63.608 55.918L66.968 54.477L68.167 52.198L67.208 47.638L67.927 44.038L69.247 41.518L71.769 36.599L73.329 34.799L75.968 29.999L77.409 28.679L79.81 22.679L80.05 20.399L79.449 15.6L80.288 12.239L85.691 2.04L87.73 0.360001L88.931 0.240002L90.011 0H90.251L92.411 0.479L93.611 1.2L95.052 3.601L99.132 6L99.972 9.479L100.812 10.68L104.773 13.439L106.572 18.239L108.132 19.919Z" fill="#92D050"/>
</svg>
