<svg width="177" height="157" viewBox="0 0 177 157" fill="none" xmlns="http://www.w3.org/2000/svg">
<path d="M176.521 138.76L176.118 136.265L175.452 134.222L174.808 131.729L174.023 129.719L173.157 128.084L172.527 127.334L171.422 126.87L169.952 125.888L168.287 125.144L166.122 124.372L163.987 123.407L162.382 122.471L161.162 122.072L158.954 121.795L157.217 121.545L155.157 121.356L153.229 121.25L152.138 120.595L150.488 120.064L148.817 119.815L147.02 119.175L146.032 119.015L144.877 118.534L143.789 117.9L143.083 117.463L141.812 116.646L141.06 115.846L140.187 114.862L139.474 114.028L138.565 113.741L137.26 113.503L135.168 113.065L133.21 112.501L132.427 112.407L131.137 111.451L129.543 109.76L127.744 108.865L126.247 108.551L123.992 108.337L122.558 107.938L121.236 107.043L119.531 105.503L117.755 104.715L115.697 104.441L114.046 104.212L112.728 103.057L111.72 102.641L111.147 101.984L110.425 101.158L109.674 100.635L109.031 99.2455L108.31 98.478L107.25 98.0752L106.095 98.0947L104.734 97.4909L103.573 96.6894L102.233 95.632L101.412 94.0756L100.103 92.7272L98.7218 91.151L97.1709 89.3756L96.1393 87.8321L95.6218 86.1272L95.4084 84.4549L95.277 82.3879L95.5171 81.0891L96.6127 79.0632L97.4186 77.5197L97.9885 76.4466L97.9823 75.2775L97.3183 73.3889L96.5917 71.6672L95.7743 69.5949L95.561 68.0626L96.0431 66.6984L96.2397 65.1972L96.3754 63.4514L97.2435 61.6224L98.1366 60.2639L98.5142 58.7484L98.773 57.0819L99.4246 55.6456L101.442 52.4988L104.451 49.7793L106.529 48.1221L109.034 46.6622L111.684 45.3785L114.023 43.3393L115.458 41.2478L115.972 38.8911L115.889 36.1399L114.837 34.0492L113.315 31.4594L111.449 28.9723L110.106 27.6285L107.834 27.2219L104.405 26.8248L100.092 26.3118L96.7457 25.9406L93.421 25.6084L90.3518 25.494L87.3807 24.178L83.6529 23.2434L81.9439 22.3487L79.3345 21.2079L77.2861 19.5569L75.7296 18.3079L74.1885 17.5808L72.2083 16.606L70.3198 15.4808L68.4185 14.2791L66.5791 12.8967L65.3732 11.8519L65.0243 10.4993L63.9464 8.63529L62.3886 6.33106L61.2631 4.66374L59.8314 3.49603L56.8491 2.65077L54.6811 2.2059L52.893 2.05195L51.2859 1.46127L49.8215 0.583056L47.7603 0.229962L45.8798 0L44.5832 0.699986L43.2114 1.08284L39.0864 0.916308L35.7588 0.926759L34.17 1.08391L32.34 1.49812L31.0414 2.53915L30.0874 3.68844L29.414 4.73301L29.4161 6.83793L29.3358 8.55627L29.986 10.0881L31.124 12.3081L32.2888 14.1647L33.3384 16.6854L34.4712 19.6172L35.3953 21.99L36.0067 23.2797L36.2919 25.0236L36.917 26.9395L36.9903 28.5512L37.2825 29.4333L37.5828 29.2765L37.7057 28.9025L38.0895 29.075L38.1602 29.4753L38.8348 29.5885L39.2079 30.1701L39.471 30.6889L40.3382 30.8882L40.6548 30.5616L40.1322 29.9649L40.0954 29.3312L40.1001 28.7941L39.7376 28.5551L39.7977 27.9768L40.1786 27.1186L39.5095 27.7158L39.0077 28.6334L38.5978 29.08L38.4022 28.9287L38.627 27.8572L38.4367 27.5335L37.7328 27.0761L37.3537 26.3637L37.4253 25.483L36.9825 24.7304L36.8831 23.6126L37.1085 22.5631L36.2873 20.5785L35.4325 18.0359L34.4857 15.9688L34.1969 14.656L34.8546 12.9428L36.4526 11.9278L36.7791 11.3932L38.1749 11.6443L38.3703 11.2145L39.1222 11.2443L39.1073 10.5763L39.6856 10.6052L41.1311 9.86501L42.0004 8.6934L42.3007 8.86774L42.0789 9.61573L42.8347 9.30038L43.0507 8.89484L44.8548 9.01921L45.9465 9.3103L46.5205 9.93747L46.641 10.7974L46.3299 11.9311L45.2139 12.0938L44.5254 12.3021L43.8421 11.5651L42.7732 11.2322L42.7663 11.8992L43.2137 12.3319L42.9295 13.2104L43.8008 14.2063L44.8285 14.2155L45.1055 14.5831L47.0415 14.2139L48.1378 14.0523L49.1408 14.6191L51.807 16.7463L54.3219 18.6394L54.9212 18.8803L55.3438 19.358L57.8585 19.2293L58.2651 19.3837L58.9909 19.8402L60.28 19.8526L61.1694 21.0407L61.7875 21.6282L62.5142 21.9116L63.1837 23.7232L63.9643 25.4247L65.5303 25.5484L66.0462 25.4661L66.2625 25.2769L66.8096 25.2481L66.8392 25.9411L67.5929 26.5993L67.7385 27.2531L67.1718 27.9323L67.0667 29.3752L67.2111 30.2557L67.8838 31.1428L67.8074 32.9633L67.2848 33.9005L67.1673 34.9761L67.9926 35.744L69.057 35.9057L69.5715 35.8944L69.963 36.2629L69.8769 37.4758L70.3305 37.7371L71.214 37.3507L71.7739 37.6L72.1415 38.5138L72.7194 38.7932L73.162 38.4636L73.5099 38.5726L73.5763 39.5148L73.1423 40.5879L73.3329 41.3646L73.6144 41.8826L73.6568 42.4607L73.3785 42.9442L73.5592 43.3545L74.1488 43.3899L74.8698 42.5007L75.2233 42.0328L76.2284 42.0426L77.4664 40.8696L78.3074 40.3926L79.0963 40.3239L80.4945 40.3507L81.4684 39.8595L81.5972 39.1153L81.0726 38.4282L81.402 37.3843L82.3311 36.7692L83.2568 37.1868L84.5361 38.4296L85.465 39.653L86.3372 40.5259L87.8918 41.7099L89.369 42.5721L90.5849 42.598L91.7425 41.9556L91.8912 40.8814L92.479 39.5794L93.449 38.4046L95.0337 37.7665L96.3327 38.0067L97.3729 39.0483L98.1069 40.2691L98.5225 41.3506L99.4413 41.8296L99.9572 41.9549L99.8723 42.9713L98.5225 42.9584L97.7561 43.5875L94.2193 43.4511L92.2926 43.2812L92.1077 43.8878L92.5412 44.3911L92.3307 46.028L92.3644 46.9836L93.447 48.2884L94.0776 49.128L94.2516 50.0399L94.1894 51.7108L94.0012 52.4671L93.2507 53.4169L92.6285 54.777L91.8345 55.286L90.8078 54.6427L89.7745 54.9042L89.0735 55.1714L88.2309 54.3164L87.0407 54.5763L85.9238 54.2329L85.1322 54.4067L84.7788 55.0739L84.6075 55.4047L83.7921 54.8647L83.3115 54.8278L83.1418 54.8732L83.0713 54.9609L83.2672 55.6635L83.655 56.6867L83.5657 57.795L83.8058 58.1894L83.8878 59.1776L83.4484 59.2157L82.8108 59.2738L82.5933 58.0567L82.6129 55.8244L82.0049 54.3925L80.7537 53.2574L80.0357 52.2947L80.2759 50.7794L80.6675 49.5538L81.7331 49.1535L82.778 47.8092L83.2259 47.0105L83.2188 44.6443L83.3347 41.8185L82.9175 40.8148L82.0396 40.4403L81.2966 40.4658L80.4242 40.8977L79.4866 42.0589L78.3489 42.2442L77.3314 42.3416L76.9553 43.6881L77.1698 45.1336L76.9 46.2246L76.3104 46.0058L75.9559 45.0601L74.9988 44.9159L74.2315 44.2262L73.2461 44.2035L73.0537 45.1109L73.2135 46.0212L74.1183 46.5642L75.078 46.4962L75.8967 46.4269L76.6357 46.9654L76.8692 48.0441L76.5242 49.1977L76.3768 50.6366L76.1862 51.4098L74.8036 52.9449L74.4611 53.9599L74.7272 54.9494L75.1471 55.3622L75.5344 56.3361L76.3767 57.0598L77.2182 56.6725L77.6886 56.2824L78.6752 56.3841L79.6255 57.1629L80.2389 58.2342L79.9193 59.7795L79.3637 60.9569L78.093 61.9762L75.8296 62.0033L73.5524 61.9521L71.849 62.6025L70.981 64.4485L70.5103 66.2666L70.745 68.7585L72.6831 70.8269L74.4457 72.4836L75.5257 73.7053L75.8836 74.7272L77.201 74.9972L78.6598 74.6436L79.5899 74.3357L80.7578 74.3934L81.3738 75.1275L81.0319 75.854L78.5976 76.8153L75.9812 77.1576L73.309 77.0556L71.2214 76.462L70.488 76.7588L70.3393 78.1992L71.0149 79.0404L70.9614 79.951L70.5482 80.2958L69.1897 79.357L66.9778 77.0302L64.304 75.1329L62.8618 75.5514L61.9283 76.7886L61.1846 77.9829L59.9301 78.9837L58.7469 79.4005L58.0521 80.2942L58.3914 81.0278L59.5268 81.0152L62.1333 80.0523L64.1126 79.6849L66.0847 80.0242L67.6423 81.0473L69.1546 82.563L69.7694 83.708L69.4319 85.0112L68.1341 85.9695L66.0416 87.0001L64.2811 87.0495L62.7212 86.3937L61.0186 84.7437L59.7432 83.2509L58.1177 82.4834L56.3958 83.0913L56.4673 84.3803L56.4828 85.1326L55.2514 85.9594L53.4068 85.8762L51.4385 84.9572L50.5023 84.0269L50.6226 82.6953L51.965 81.4853L52.6976 81.2562L52.5948 80.6513L51.5421 80.7729L50.4458 80.8902L49.9899 81.166L49.4154 80.9681L49.1199 80.277L48.0457 80.2681L46.9062 80.514L46.2785 80.9809L45.7597 81.4077L44.5433 80.5581L43.5969 80.677L42.2353 79.4218L40.6699 79.2335L39.5986 79.1134L37.0674 76.3244L35.221 74.2026L34.0244 73.3965L33.0762 73.6228L31.302 73.0289L30.3556 73.1701L29.9844 73.7032L29.3385 73.8037L29.3082 74.6645L28.8545 75.1553L29.3883 75.5863L29.297 76.0597L28.5062 75.6019L28.1646 75.4689L27.5172 76.0429L25.5898 75.5736L23.0797 75.1452L19.3847 75.1113L16.9575 75.387L15.2815 75.547L14.1455 75.6001L13.0235 76.386L12.2816 77.5592L12.252 78.3326L13.7908 79.0535L14.0853 79.9143L13.7122 80.5137L13.0223 81.1299L13.3123 82.1619L12.8788 82.6749L10.9696 82.4221L9.27026 82.4402L7.93123 82.49L6.64039 81.0508L6.04742 79.5862L6.81083 78.8949L8.45352 78.758L9.70024 78.4963L10.3494 77.1973L9.99806 75.7371L10.0147 73.8823L11.2276 70.7683L12.62 67.9554L13.1178 66.7168L14.7669 65.7597L16.0526 64.6475L17.0362 63.2918L18.2002 62.0563L21.3786 59.9302L23.9496 57.5227L25.2583 57.1721L26.4551 55.7854L28.6815 54.5318L30.9062 53.9422L32.1234 53.5281L32.236 51.3143L31.8748 50.7799L31.2485 51.3651L30.6961 51.9829L29.4937 52.3518L28.5279 53.3301L27.7195 53.7158L25.5418 54.516L24.4859 55.343L23.1706 56.4695L20.2089 58.4302L16.8783 60.3115L13.9496 61.9898L12.8095 63.7073L12.3756 64.7673L12.0649 65.6139L10.7774 66.9076L9.73001 68.5372L7.5831 70.7371L5.86848 72.269L3.6236 73.7959L1.89834 75.0539L0.646482 75.6221L0 76.7065L0.979024 79.2384L2.92538 82.293L4.03445 83.7278L5.14422 85.3789L7.34499 87.252L9.60616 88.6047L13.3113 88.6118L15.8742 87.2673L18.5903 85.7746L22.0888 85.137L25.703 85.0183L26.7384 84.7256L27.4791 83.3335L28.3072 82.4613L29.4763 82.6322L32.7247 84.0783L34.2224 84.8233L36.4416 86.1311L38.5306 88.0394L38.8249 88.7714L36.8495 88.7107L35.4678 87.3465L33.6098 86.3005L32.1065 86.0912L31.1442 85.5045L31.0046 84.5363L29.421 84.0894L29.0926 84.8839L28.5531 84.9859L28.5689 85.5454L30.0282 85.7277L32.035 87.0579L33.25 87.8411L34.6205 88.37L35.5818 88.7643L36.3281 89.5871L36.9083 91.6114L37.9346 94.7085L39.1261 98.2654L40.748 101.628L42.4809 104.543L44.9625 108.022L47.7316 110.475L50.486 111.897L54.4613 113.972L58.4645 115.318L60.0461 116.083L61.3956 116.204L62.9377 116.863L64.2457 117.195L65.1877 117.505L68.5949 118.114L71.1878 118.761L74.7159 120.339L76.6004 121.023L78.7884 120.978L79.7584 120.665L82.4343 120.578L83.9821 120.531L85.9568 120.489L87.8693 120.627L90.1085 121.316L92.9543 122.372L94.1008 123.175L95.3094 123.944L96.0064 124.071L97.0356 124.445L99.7878 125.746L101.21 126.243L102.923 126.32L103.911 126.391L105.697 127.015L107.725 127.609L109.359 128.17L111.795 129.226L113.485 130.258L114.989 131.757L116.689 133.508L118.046 134.824L119.747 135.993L122.046 137.247L122.879 137.403L123.832 137.823L125.335 139.356L126.327 140.654L128.005 141.759L130.204 143.176L133.069 144.319L135.467 145.413L137.384 146.763L139.195 148.495L140.244 149.525L141.558 151.465L143.277 153.196L144.467 154.043L146.225 154.771L148.587 155.31L151.847 155.9L154.303 156.228L156.291 156.349L157.592 156.774L160.869 156.729L162.13 156.662L164.826 155.73L165.177 155.491L168.366 155.369L170.739 155.27L173.214 154.928L174.327 154.451L175.531 153.337L176.076 152.591L176.696 151.118L176.76 150.161L176.956 148.585L176.908 146.897L176.97 144.486L177 142.709L176.945 140.798L176.521 138.76ZM106.804 34.789C107.038 34.3681 107.619 34.1459 107.732 33.6002C108.1 33.4704 108.323 33.8461 108.446 34.1255C108.836 34.522 109.065 35.1731 108.743 35.6763C108.541 36.1284 108.493 36.8906 107.804 36.715C107.4 36.5391 106.504 36.9788 106.556 36.276C106.685 35.7879 106.737 35.2888 106.804 34.789ZM71.2994 93.1949C71.1979 92.8429 71.5085 92.5236 71.7407 92.2974C71.8919 92.1941 72.0655 92.1321 72.2251 92.0418C72.2453 92.5972 72.2747 93.1528 72.3116 93.7126C71.9018 93.7803 71.4776 93.5755 71.2994 93.1949ZM73.8623 98.8947C73.8285 99.0503 73.762 99.2014 73.6488 99.3145C73.4724 99.5038 73.1724 99.6171 72.9265 99.4982C72.8376 99.4429 72.7244 99.4305 72.648 99.347C72.4854 99.1957 72.4841 98.9468 72.5362 98.7419C72.5773 98.6359 72.532 98.5158 72.57 98.4082C72.6609 98.0435 72.9616 97.7977 73.1428 97.4795C73.3009 97.5616 73.489 97.5727 73.6529 97.6381C73.8097 97.6932 73.9241 97.8202 73.964 97.9788C74.0575 98.2841 73.9489 98.6022 73.8623 98.8947ZM88.7518 86.9075C88.978 86.7886 89.3369 86.9851 89.4953 86.6743C89.569 86.3251 89.9209 86.3547 90.1937 86.3901C90.5243 86.4213 90.6531 86.8679 90.6118 87.1493C90.5853 87.2678 90.5427 87.384 90.5257 87.5026C90.2614 87.6794 90.0523 88.0326 89.6835 87.9605C89.3495 87.9042 88.8721 88.1134 88.7218 87.7049C88.5625 87.4698 88.612 87.1349 88.7518 86.9075ZM89.0179 88.6561C89.8036 88.4412 90.6193 88.5485 91.4208 88.5445L91.5067 88.5951C91.8954 88.7278 91.8658 89.3148 91.6468 89.5876C91.4741 90.1556 90.8877 90.1374 90.403 90.1264C89.8316 90.1969 89.2663 89.9537 88.7023 90.0655C88.2697 90.2309 87.8119 90.3464 87.3665 90.1372C86.582 90.2362 86.9592 89.4376 87.3851 89.2184C87.8471 88.8186 88.4394 88.7622 89.0179 88.6561ZM85.6558 88.5725C85.8496 88.2658 86.0376 87.9435 86.3375 87.7242C86.624 87.4529 86.9351 87.2042 87.2701 86.9891C87.6009 86.9075 87.775 87.3243 87.9294 87.5522C87.9674 87.6227 88.0055 87.6948 88.0466 87.7598C87.7256 88.1416 87.4092 88.5275 87.0896 88.9119C86.7306 88.9135 86.3545 89.0264 85.9996 88.9502C85.7665 88.9373 85.3369 88.8469 85.6558 88.5725ZM82.0768 88.9077C82.4838 88.9486 82.9265 88.9968 83.2615 88.7053C83.6205 88.3278 84.1436 88.6235 84.5777 88.6217C84.6046 88.6758 84.6312 88.7305 84.6583 88.786C84.9521 89.1337 84.7855 89.5435 84.5297 89.8488C84.2158 90.2221 83.7588 90.6125 83.3347 90.8271C82.8344 90.7819 82.3229 90.7366 81.8252 90.7056C81.5834 90.4749 81.411 90.0779 81.4209 89.7441C81.5976 89.4491 81.63 88.8694 82.0768 88.9077ZM80.5443 93.2107L81.954 91.934L83.3716 91.6895L84.405 91.2286L85.016 90.6109L85.4056 90.0343L85.8795 90.1246L86.152 90.6407L85.5853 91.4945L85.123 92.7582L84.5538 93.8496L83.6476 94.613L82.3316 95.0102L80.7197 95.1007L80.1259 94.1506L80.5443 93.2107ZM81.3472 100.588C80.8953 100.655 80.3803 100.999 79.8858 100.635C79.7102 100.457 79.5791 100.235 79.3399 100.143C78.7548 99.852 78.6853 100.926 78.3717 101.279C77.9065 101.688 77.3045 101.5 76.8066 101.259C76.216 101.124 75.9079 100.55 75.4922 100.156C75.126 99.5621 75.1216 98.5597 75.5004 97.9745C75.8143 97.299 76.6172 97.2324 77.2536 97.0641C78.2121 96.8139 79.2976 97.0217 80.157 96.452C80.5301 95.8937 81.2512 95.789 81.8336 96.0633C82.5208 96.8269 83.0991 95.5741 83.6727 95.3877C84.3582 95.5798 84.4996 95.0876 84.572 94.5111C85.1751 94.2229 85.5502 93.7748 85.5206 93.0707C85.823 92.0938 86.7177 91.5028 87.443 90.8528C88.2713 90.5415 89.1803 90.7931 90.0383 90.8046C90.5528 91.1694 91.6823 91.1933 91.6736 91.9101C91.4293 92.5194 92.0766 92.8516 91.9211 93.3985C91.3926 93.8565 90.6063 94.0715 90.0414 94.5506C89.5237 94.6695 88.9397 95.5911 89.8234 95.5727C90.3138 95.1556 90.7833 94.7003 91.3249 94.3557C92.0965 93.8466 92.3382 94.8702 92.0203 95.4171C91.8593 96.0152 91.6073 96.756 90.9814 96.9849C90.5757 96.3233 90.2095 97.0698 89.6808 97.2382C89.1902 97.3878 89.0377 98.5739 88.5246 98.1554C87.9379 97.7483 87.9295 98.7732 88.1145 99.1422C87.5164 98.9527 87.2226 99.5464 86.7025 99.6849C86.0353 99.9027 85.2917 99.2 85.0444 98.5854C84.4181 98.5652 84.6356 99.5692 84.4689 99.9833C84.2374 100.655 83.3779 100.448 82.8209 100.448C82.1828 100.075 81.8789 101.359 81.3472 100.588ZM93.3769 100.385C92.4117 99.7724 92.3692 101.257 91.5646 101.284C90.6398 101.183 89.9817 102.17 89.6126 102.881C89.6268 103.774 88.6488 102.676 88.5142 103.541C88.8111 104.019 88.6075 104.351 88.2727 104.739C87.8314 105.443 87.1131 105.881 87.0439 106.77C86.6158 107.384 86.3697 107.051 86.0066 106.632C85.0619 106.886 84.9857 105.577 84.0882 105.812C83.2668 106.054 83.4477 105.228 83.0562 104.792C82.2834 104.298 82.1528 102.975 83.117 102.652C83.7349 102.271 84.6156 102.641 84.9678 101.811C86.1157 102.129 86.2427 100.722 87.0922 100.289C87.7382 99.8477 88.6951 99.8915 89.0517 99.0956C88.9215 98.3097 89.7345 98.3903 90.0722 97.8645C90.8822 97.439 91.8757 97.0132 92.7805 97.2271C93.7321 97.4019 94.2902 98.3407 94.5363 99.2073C94.901 100.04 94.2468 100.731 93.3769 100.385ZM104.35 119.673C103.894 120.188 103.301 120.74 103.298 121.471C103.437 122.398 102.379 121.543 101.99 122.092C101.472 122.302 101.57 122.902 101.426 123.301C100.943 123.926 100.483 123.32 100.144 122.91C99.7792 122.586 99.7441 121.982 99.242 121.785C98.578 121.625 98.8194 120.814 98.3191 120.484C98.0518 120.048 97.1629 120.013 97.2645 119.388C97.2901 118.883 97.3791 118.375 97.6843 117.96C97.9047 117.598 98.0206 116.951 98.5425 117.367C99.0046 117.696 99.403 117.356 99.7281 117.041C100.055 116.617 100.479 116.934 100.819 117.165C101.268 117.803 101.713 116.88 102.171 116.681C102.611 116.307 103.289 116.487 103.753 116.764C104.167 116.989 104.435 117.409 104.638 117.818C104.67 118.46 105 119.254 104.35 119.673ZM118.965 129.909C118.295 129.908 117.556 130.292 116.942 129.921C116.04 129.504 115.348 128.778 114.56 128.187C112.933 127.027 111.212 126.003 109.499 124.971C108.953 124.583 108.354 124.244 107.684 124.12C107.173 124.036 106.589 124.215 106.168 123.827C105.561 123.554 105.144 123 105.066 122.345C105.418 121.74 105.15 121.175 104.929 120.606C105.037 119.999 105.526 119.638 105.977 119.274C106.428 118.804 107.174 119.16 107.762 119.074C108.485 119.221 109.183 119.511 109.885 119.746C110.441 119.915 110.991 120.12 111.367 120.59C111.898 120.977 112.143 121.589 112.469 122.133C112.831 122.683 113.696 122.361 114.273 122.399C115.132 123.031 115.811 123.871 116.556 124.628C117.047 125.066 117.403 125.898 118.17 125.568C118.805 125.341 119.246 125.571 119.536 126.156C120.115 126.701 119.789 127.574 119.911 128.28C119.998 128.954 119.27 129.364 118.965 129.909ZM153.269 145.972C152.093 145.975 150.869 145.627 149.731 145.89C148.354 146.761 147.091 144.728 145.65 144.546C144.511 143.934 143.201 144.919 142.08 144.071C141.014 143.617 139.707 144.071 138.839 143.185C137.803 142.596 136.822 141.759 137.12 140.448C136.46 138.98 134.773 139.614 133.573 139.181C132.468 138.699 131.28 138.889 130.121 138.949C128.85 138.746 127.474 138.274 126.652 137.227C125.551 135.27 124.127 133.449 122.319 132.095C121.097 131.36 121.69 130.015 122.498 129.255C123.546 129.501 124.245 128.309 125.336 128.638C126.874 128.408 127.591 130.055 128.408 131.038C128.95 132.585 130.414 131.99 131.633 132.283C133.076 133.081 134.018 134.546 135.26 135.615C135.721 136.642 138.189 135.644 137.38 137.039C136.423 138.064 137.956 137.544 138.47 137.249C139.489 136.911 141.528 136.946 140.983 138.517C141.331 140.009 142.913 138.315 143.522 138.973C143.566 139.666 143.473 141.802 144.594 141.098C145.64 140.028 145.408 141.796 145.392 142.449C146.078 144.181 147.219 142.134 148.177 141.868C149.506 140.869 150.425 142.47 151.817 142.166C152.97 142.759 154.15 144.96 153.269 145.972Z" fill="#92D050"/>
<path d="M10.2658 79.794C9.62359 79.8631 8.82563 79.671 8.28262 79.9042C7.8684 80.5645 8.34905 81.2953 8.95284 81.6103C9.622 81.8366 10.4171 81.9652 11.1026 81.7602C11.7352 81.3687 11.2188 80.4768 10.8095 80.1009C10.6506 79.9623 10.4667 79.8592 10.2658 79.794Z" fill="#ADDC7C"/>
<path d="M49.5519 22.8569C49.8899 22.9127 50.2078 23.0054 50.3188 23.3664C50.488 23.547 50.918 23.579 51.0073 23.2901C51.069 23.1218 51.0463 22.928 50.9572 22.7749C50.4285 22.4569 49.927 22.0807 49.3776 21.8015C49.0721 21.7337 48.6391 21.4911 48.4115 21.5337C48.3875 21.8292 48.145 22.2841 48.5628 22.4145C48.865 22.6172 49.1843 22.8004 49.5519 22.8569Z" fill="#ADDC7C"/>
<path d="M34.7808 43.3965C35.8337 43.2293 36.0883 42.0791 36.5519 41.3017C36.6593 40.1813 36.6345 39.0566 36.6869 37.9375C36.9217 37.3308 36.8283 36.1842 35.9212 36.7373C35.3562 37.1755 35.2967 37.9931 34.9418 38.5928C34.6026 39.5109 36.3342 39.2372 36.0061 40.1482C36.1312 40.7503 35.0365 42.1987 34.7363 41.2076C34.969 40.0323 33.6407 40.952 33.8379 41.6395C33.7642 42.3209 33.9664 43.3053 34.7808 43.3965Z" fill="#ADDC7C"/>
</svg>
