<svg width="140" height="132" viewBox="0 0 140 132" fill="none" xmlns="http://www.w3.org/2000/svg">
<path fill-rule="evenodd" clip-rule="evenodd" d="M109.606 98.4448C109.652 98.7096 110.018 100.85 109.735 101.575C109.501 102.176 109.204 102.468 108.873 102.795C108.694 102.971 108.505 103.158 108.309 103.409C107.26 104.759 106.183 105.588 104.581 106.62C104.387 106.746 104.156 106.899 103.906 107.065L103.906 107.066C103.072 107.621 102.017 108.323 101.314 108.64C101.12 108.727 100.921 108.811 100.72 108.896C99.9475 109.222 99.1469 109.559 98.4942 110.148C98.1317 110.476 97.5054 110.536 96.6919 110.491C95.8901 110.446 94.7345 111.196 93.7079 111.862C93.333 112.106 92.9752 112.338 92.6582 112.516C91.8515 113.146 90.9745 113.731 90.0674 114.187C89.7234 114.46 89.3405 114.666 88.9578 114.871L88.9578 114.871C88.4938 115.121 88.0302 115.37 87.6367 115.738C87.2487 116.101 86.7908 116.373 86.3268 116.648L86.3268 116.648L86.3267 116.648C86.0622 116.805 85.7957 116.964 85.5392 117.141C84.9409 117.553 84.2781 117.887 83.631 118.21C82.9586 118.545 82.3769 118.903 81.7895 119.264C81.4571 119.468 81.123 119.674 80.7695 119.877C80.2965 120.149 79.7965 120.342 79.298 120.534C78.7567 120.743 78.217 120.951 77.7154 121.259C76.919 121.748 75.9998 121.967 75.0793 122.188C74.7282 122.272 74.3769 122.356 74.0322 122.455C72.9669 122.761 71.8091 122.99 70.719 123.166C70.4337 123.213 70.1365 123.285 69.8368 123.358L69.8368 123.358C69.4377 123.455 69.0341 123.554 68.6482 123.593C68.3643 123.621 68.0999 123.669 67.8365 123.716C67.5742 123.763 67.313 123.809 67.0346 123.837C66.3342 123.908 65.902 123.85 65.2996 123.737C64.8589 123.653 64.4672 123.65 64.0621 123.646C63.8528 123.645 63.6399 123.643 63.4149 123.63C62.6941 123.588 61.9367 123.474 61.1872 123.361C60.6434 123.279 60.1038 123.198 59.5853 123.145C58.7268 123.058 57.9117 122.949 57.0552 122.799L56.8896 122.769C56.2148 122.65 55.4874 122.522 54.7621 122.463L52.3318 122.354C52.2421 122.444 52.1432 122.546 52.0373 122.655C51.336 123.377 50.3294 124.412 49.6841 124.465C49.3378 124.46 44.7787 121.389 41.1709 118.958L41.1702 118.958L41.1701 118.958L41.1698 118.958C39.1404 117.59 37.4122 116.426 36.9046 116.125C36.2671 115.66 35.7405 115.448 35.119 115.197L35.119 115.197L35.1189 115.197C34.7884 115.064 34.4311 114.92 34.0161 114.721C33.4213 114.437 32.9647 114.158 32.4526 113.733C31.9886 113.348 31.5498 113.156 31.0764 112.948C30.8674 112.857 30.6516 112.762 30.4239 112.647C29.693 112.276 29.0416 111.785 28.3937 111.298C27.9245 110.944 27.4571 110.592 26.9627 110.288C26.5517 110.036 26.06 109.851 25.5654 109.665C24.823 109.387 24.0739 109.106 23.5804 108.588C23.2713 108.043 22.8886 107.704 22.4803 107.342L22.4803 107.342L22.4802 107.342L22.4802 107.342C22.3769 107.251 22.2719 107.158 22.1661 107.059C22.0229 106.927 21.8845 106.794 21.7473 106.663L21.7472 106.662L21.7472 106.662L21.7472 106.662L21.7471 106.662C21.4358 106.364 21.1306 106.072 20.7895 105.796C20.5738 105.621 20.3246 105.466 20.0729 105.308C19.7952 105.135 19.5144 104.96 19.2717 104.755C18.8593 104.177 18.4119 103.661 17.9624 103.143L17.9624 103.143C17.6167 102.745 17.2698 102.345 16.9367 101.914C16.8308 101.79 16.7154 101.661 16.5954 101.527C16.2837 101.178 15.9413 100.794 15.6546 100.373C14.8005 99.0989 13.7133 97.2263 13.0974 95.7164C12.8687 95.1553 12.7966 94.7774 12.6876 94.2067L12.6728 94.1291C12.8487 93.6356 12.6434 93.1946 12.145 92.5303C11.5372 91.3369 11.1441 89.5605 10.7948 87.4158C10.6989 86.8272 10.5975 86.5053 10.5032 86.2058C10.3862 85.8344 10.28 85.4974 10.2086 84.729C10.0896 83.4457 9.96077 82.5666 9.84309 81.7635V81.7635L9.84307 81.7634C9.67582 80.622 9.53107 79.6342 9.46876 77.8575C9.45944 77.5919 9.41997 77.2759 9.37746 76.9356C9.30665 76.3688 9.22743 75.7346 9.26507 75.153C9.28991 74.7694 9.29103 74.349 9.29214 73.9386V73.9385V73.9384V73.9383V73.9382C9.2937 73.3529 9.29522 72.788 9.36531 72.379C9.88143 69.3669 10.8098 66.4027 11.7293 63.7981C11.8061 63.5805 11.8807 63.3605 11.9553 63.1399L11.9554 63.1398V63.1398C12.2458 62.2823 12.5388 61.4171 12.9799 60.6573C13.5128 59.7394 14.1021 58.7955 14.7357 57.8657L15.9199 56.0078C16.5458 55.1693 17.0899 54.5514 17.5741 54.0016L17.6399 53.9268L19.9584 51.6303C20.179 51.4558 20.4189 51.2914 20.6609 51.1257C21.1781 50.7712 21.7046 50.4104 22.071 49.9318L25.5344 47.1379C26.3549 46.5484 27.1576 45.9802 27.9455 45.4225L27.9456 45.4225L27.9456 45.4224L27.9458 45.4223L27.9459 45.4222C30.9545 43.2926 33.7478 41.3154 36.5008 38.8828C37.3745 38.0038 38.5077 37.1041 39.6164 36.2239C40.3783 35.6191 41.1285 35.0235 41.7751 34.4501C42.4543 33.8706 43.0316 33.3129 43.602 32.7619L43.602 32.7618C44.2276 32.1575 44.8449 31.5611 45.5795 30.9527C46.2849 30.4426 47.1112 29.6309 47.8127 28.9418C47.9819 28.7756 48.1439 28.6165 48.2952 28.4705C49.0404 27.7511 49.8168 27.0606 50.5943 26.3691L50.5943 26.369C51.8932 25.2138 53.1952 24.0557 54.3603 22.7558C54.9774 22.0828 55.6352 21.4503 56.2917 20.8189C57.031 20.1081 57.7686 19.3987 58.4449 18.6348C58.8088 18.2236 59.1249 17.9459 59.4374 17.6713C59.7489 17.3976 60.057 17.1269 60.4056 16.7301C60.5876 16.523 60.8037 16.2835 61.0351 16.0271C61.7075 15.282 62.5088 14.394 62.9767 13.7419C64.227 11.9992 65.8274 10.9625 67.6745 10.0778C68.5455 9.66057 69.4918 9.21492 70.444 9.01112C72.9987 8.46426 75.4485 8.24382 78.0905 8.4969C78.7444 8.55952 79.3933 8.64442 80.0405 8.7291L80.0406 8.72912C80.893 8.84065 81.7424 8.95179 82.5964 9.01112C83.3409 9.06288 84.1138 9.18451 84.8956 9.30756L84.8957 9.30758L84.8958 9.30759L84.8959 9.30761L84.8963 9.30767C85.2769 9.36756 85.6597 9.4278 86.0423 9.48046C86.7109 9.57245 87.4164 9.54192 88.1236 9.51131H88.1237H88.1237H88.1237H88.1238C88.6384 9.48904 89.1539 9.46673 89.6567 9.49157C90.6551 9.54094 91.659 9.52251 92.6666 9.50401H92.6666H92.6667H92.6667H92.6668C94.0667 9.4783 95.4737 9.45247 96.8827 9.6082C98.6185 9.80003 99.9478 10.2895 101.425 10.8336L101.425 10.8337L101.426 10.8338L101.427 10.8341L101.427 10.8343C101.826 10.9811 102.235 11.1319 102.667 11.2819C103.348 11.5189 103.979 11.8334 104.626 12.1564L104.626 12.1564L104.627 12.1568L104.628 12.1572L104.629 12.1577C104.84 12.2629 105.053 12.3691 105.269 12.4737C106.62 13.1247 107.842 13.869 109.087 14.6271L109.087 14.6272L109.087 14.6273L109.087 14.6274L109.087 14.6275L109.087 14.6276C109.452 14.8495 109.818 15.0726 110.19 15.2949C110.771 15.6421 111.322 16.1325 111.851 16.605C111.978 16.7182 112.104 16.8303 112.229 16.9391C112.422 17.1075 112.611 17.2768 112.799 17.445C113.737 18.284 114.643 19.0943 115.805 19.6059C116.712 20.102 117.357 20.8772 118.005 21.6573C118.502 22.2556 119.002 22.8567 119.624 23.3371C120.306 24.0132 120.977 24.8813 121.595 25.6814C121.742 25.8712 121.886 26.0572 122.026 26.2358C122.495 26.7579 122.953 27.2242 123.39 27.6696C125.08 29.3893 126.463 30.7973 126.972 33.9025C127.397 35.0181 127.759 36.1951 128.111 37.3772C128.176 37.594 128.243 37.8104 128.309 38.0267L128.31 38.0269L128.31 38.0272L128.31 38.0274C128.466 38.532 128.622 39.0361 128.747 39.5439C128.785 39.6968 128.841 39.8632 128.9 40.0354C129.027 40.4079 129.163 40.8079 129.138 41.1587C129.411 41.2028 129.551 42.8256 129.637 43.8217V43.8218V43.8219V43.8219V43.822C129.664 44.1353 129.686 44.3866 129.705 44.5072C130.128 47.2141 128.523 50.441 126.651 52.4006C126.202 52.8705 125.755 53.2788 125.294 53.7C125.108 53.8701 124.92 54.0423 124.728 54.2215C123.257 55.9319 121.551 57.8395 119.949 59.1444C119.498 59.512 119.081 59.9508 118.66 60.3947C118.377 60.6924 118.092 60.9924 117.793 61.2748C117.272 61.7671 116.914 62.4084 116.549 63.0645V63.0645L116.549 63.0645L116.549 63.0645L116.549 63.0645L116.549 63.0646L116.549 63.0646V63.0646C116.201 63.6881 115.846 64.325 115.336 64.86C114.778 65.4451 114.416 66.3129 114.099 67.0708L114.099 67.0708L114.099 67.0711L114.099 67.0715C114.02 67.2604 113.944 67.4424 113.869 67.6115C113.348 68.7784 112.958 70.0063 112.592 71.2349C112.384 71.9329 112.145 72.5949 111.906 73.2551L111.906 73.2552C111.6 74.1041 111.294 74.9502 111.058 75.8659C110.931 76.3549 110.759 76.8231 110.587 77.2904C110.342 77.9567 110.098 78.6212 109.988 79.3418C109.938 79.6682 109.804 79.933 109.668 80.2019L109.668 80.202C109.569 80.3991 109.468 80.5984 109.399 80.8259C109.121 81.7346 108.878 83.8132 108.83 84.7619C108.772 85.8936 108.789 86.5847 108.806 87.2501C108.825 87.9875 108.843 88.6934 108.757 89.9326C108.646 91.5319 108.57 94.2558 109.095 95.9194L109.215 96.4018L109.602 98.4178C109.602 98.4178 109.603 98.4268 109.606 98.4439L109.606 98.4448ZM35.7773 107.674C35.4179 107.674 35.1267 108.042 35.1267 108.496C35.1267 108.95 35.4179 109.041 35.7773 109.041C36.1368 109.041 36.4279 108.95 36.4279 108.496C36.4279 108.042 36.1368 107.674 35.7773 107.674ZM122.512 32.0822C122.506 32.0355 122.5 31.9918 122.495 31.9505C122.461 31.6754 122.439 31.5074 122.232 31.2775C122.119 31.1525 122.01 31.1075 121.9 31.0623C121.813 31.0264 121.726 30.9903 121.636 30.914C121.559 30.8483 121.5 30.7639 121.44 30.6773C121.377 30.5862 121.312 30.4926 121.222 30.4158C121.171 30.3725 121.105 30.3283 121.035 30.2818L121.035 30.2817C120.862 30.1668 120.668 30.0378 120.637 29.8739C120.89 29.6973 121.452 29.5807 121.745 29.7363C121.829 29.781 121.91 29.8713 121.989 29.9597C122.04 30.0178 122.091 30.075 122.142 30.1179L122.279 30.2343C122.379 30.3191 122.479 30.4038 122.577 30.4864C122.698 30.0672 122.189 29.8165 121.799 29.6244L121.798 29.6244C121.678 29.5649 121.568 29.511 121.492 29.4594C121.4 29.3968 121.312 29.3415 121.228 29.2896C120.813 29.0305 120.529 28.8532 120.567 28.2464C120.793 28.1298 120.931 28.2933 121.064 28.45C121.115 28.5108 121.166 28.5704 121.22 28.6124C121.331 28.6982 121.455 28.761 121.58 28.824C121.712 28.8909 121.845 28.9582 121.964 29.0535C122.087 29.1529 122.179 29.274 122.271 29.3951C122.338 29.4837 122.406 29.5724 122.485 29.6524C122.583 29.7509 122.684 29.8134 122.78 29.873L122.78 29.873C122.909 29.9533 123.031 30.0286 123.126 30.1802C123.238 30.3576 123.244 30.5078 123.25 30.6614C123.255 30.7751 123.259 30.8905 123.307 31.0203C123.339 31.1082 123.419 31.1754 123.5 31.2442C123.654 31.3749 123.814 31.511 123.669 31.8047C123.626 31.8911 123.552 31.9346 123.487 31.9722C123.386 32.0308 123.309 32.0754 123.415 32.2453C123.469 32.3326 123.571 32.3699 123.666 32.405C123.807 32.4568 123.935 32.5039 123.88 32.6994C123.81 32.7168 123.744 32.7369 123.68 32.7562C123.449 32.8259 123.248 32.8865 123.009 32.7824C122.768 32.6772 122.694 32.5186 122.614 32.3474L122.614 32.3473C122.584 32.2829 122.553 32.2167 122.512 32.1508L122.512 32.0822ZM124.924 35.8494L124.924 35.8494C124.947 35.9174 124.963 35.9681 124.97 35.9933V35.9587C125.202 35.7228 125.21 35.5495 125.225 35.2474L125.229 35.1679C125.277 35.1757 125.331 35.1691 125.386 35.1625C125.44 35.1559 125.495 35.1493 125.543 35.1573C125.563 34.9311 125.177 34.2707 124.936 34.6398C124.391 34.2337 124.778 35.4067 124.924 35.8494ZM126.958 40.5966C126.247 40.6567 126.323 39.4007 126.939 39.9304C127.055 40.0302 127.041 40.0841 127.025 40.1451C127.013 40.19 127 40.2388 127.037 40.3126C127.061 40.3601 127.124 40.3986 127.187 40.4379C127.252 40.478 127.318 40.5188 127.346 40.5706C127.56 40.9732 127.189 40.8032 126.969 40.7031L126.969 40.703C126.938 40.6885 126.909 40.6755 126.886 40.6659L126.958 40.5966ZM38.1523 82.6599C38.1618 83.4084 38.1765 84.5645 39.1992 84.6111L39.1509 84.7958C39.5708 84.727 39.5222 85.0032 39.4788 85.2504C39.4577 85.3701 39.4378 85.4831 39.473 85.5467C39.6468 85.8607 40.5854 85.9779 40.9338 85.9031C41.0502 85.8781 41.1436 85.8317 41.2387 85.7845C41.3228 85.7427 41.4082 85.7003 41.5121 85.6713C41.5927 85.6488 41.6737 85.6535 41.7541 85.6582C41.8516 85.6638 41.9482 85.6694 42.0422 85.6265C42.5968 85.3728 42.6445 84.2057 42.5843 83.6777C42.544 83.322 42.5847 82.9862 42.6244 82.6592C42.6748 82.2436 42.7235 81.8421 42.602 81.4315C42.482 81.0256 42.4727 80.8019 42.5595 80.4475C42.578 80.3718 42.6204 80.3198 42.6596 80.2716C42.7212 80.1959 42.7751 80.1296 42.7173 79.9961C42.518 79.536 42.3052 79.4886 42.0163 79.4244C41.9208 79.4031 41.817 79.38 41.7027 79.3396C41.6811 79.1702 41.7948 79.0543 41.8763 78.9713C41.99 78.8553 42.0408 78.8036 41.5714 78.7603C41.3845 78.7431 41.1824 78.661 40.9762 78.5772C40.7193 78.4729 40.4561 78.3661 40.208 78.3785C40.0866 78.3846 39.9067 78.4563 39.7309 78.5263C39.588 78.5833 39.4477 78.6391 39.3438 78.6579C38.9946 78.7207 38.9412 78.8409 38.8148 79.1257C38.7897 79.1821 38.7618 79.245 38.7281 79.3152C38.6801 79.4153 38.6505 79.5166 38.6222 79.6131C38.5541 79.8458 38.4941 80.0506 38.2053 80.1426C38.2144 80.5282 38.195 80.9344 38.176 81.3319C38.1573 81.7232 38.1391 82.1061 38.1487 82.4527C38.1505 82.5169 38.1513 82.5865 38.1523 82.6599Z" fill="#92D050"/>
</svg>
