<svg width="136" height="101" viewBox="0 0 136 101" fill="none" xmlns="http://www.w3.org/2000/svg">
<g clip-path="url(#clip0)">
<path d="M69.1944 7.08685V1.28601C65.9797 1.35514 63.2996 3.80761 59.8424 3.57187C59.697 6.55862 57.4993 8.69385 58.0898 11.8524C57.6323 13.7785 60.3435 12.5373 61.4631 12.8872H69.1929C69.1942 10.9552 69.1947 9.02175 69.1944 7.08685ZM99.503 31.5516C99.5429 27.1632 98.3602 23.0876 96.9993 19.0075C94.4151 17.4934 92.5899 15.0603 89.1172 15.9153C86.9638 15.2322 87.2988 17.0334 87.3635 18.5651V28.75C89.4265 30.4476 91.3308 33.0516 94.3601 32.4588C95.8948 32.1292 98.6734 33.0046 99.503 31.5516ZM128.564 51.532C128.8 47.3125 128.861 43.0874 129.001 38.8646C126.108 38.2798 123.022 37.7558 120.339 39.4042C118.633 39.7277 117.781 40.6715 118.071 42.4379C117.885 44.925 117.698 47.4115 117.512 49.8976C119.494 52.1542 122.459 52.3883 125.272 51.8406C126.369 51.7428 127.472 51.6773 128.564 51.532ZM93.3706 93.6805V87.0272C90.0061 86.3998 86.6028 86.1159 83.2079 85.7895C84.4327 89.2114 84.7553 93.2564 87.0195 96.0369C89.3928 96.5683 94.1358 103.318 93.3373 97.3952C93.3611 96.1575 93.3722 94.9194 93.3706 93.681V93.6805Z" fill="#92D050"/>
<path d="M110.199 100.116C111.994 100.114 113.79 100.113 115.586 100.112C115.549 97.3902 116.174 94.5726 115.498 91.9199C113.141 87.2133 106.874 89.1386 104.363 84.0689C98.8477 83.2469 97.4096 76.9224 92.722 74.8028C88.642 71.4838 82.7863 71.6477 80.1683 66.5868C78.6657 63.3058 74.3324 66.064 72.4793 64.0882C68.9345 59.1752 65.0268 53.4383 58.7288 52.1979C53.7809 52.0669 53.4431 45.4129 51.1815 42.0654C50.0768 39.558 48.9724 37.0506 47.8684 34.5433C42.7371 34.507 37.2528 35.0385 32.7421 32.0651C30.9352 27.2142 31.2021 21.62 28.8252 17.0482C24.7284 16.8897 20.4899 16.6291 18.9295 12.424C14.0915 11.4272 9.29178 10.0255 4.35803 9.25912C2.13806 8.33141 0.516529 8.21016 0.99623 11.0914C1.28442 14.8827 -1.98256 20.4795 3.04069 22.116C5.43443 25.0319 4.88024 29.8781 8.26163 32.7339C9.29625 34.2224 10.0958 36.1105 12.2531 35.6861C15.7443 36.0706 21.4254 36.6501 21.3829 41.2017C20.9236 43.4292 22.2304 44.4462 24.2278 44.9875C27.8724 46.6471 31.5167 48.306 35.1608 49.9642C36.0075 54.2632 35.4844 58.7136 36.4268 62.9744C39.7168 66.0958 44.2294 67.493 48.6418 69.2129C51.1481 70.4746 53.43 72.4538 55.9647 73.5012C58.8672 73.5156 62.06 72.3759 64.7381 73.7069C64.3764 78.7722 70.6416 78.6596 73.5894 81.6827C75.6958 82.9531 77.6674 84.6144 79.8546 85.6494C84.181 86.0836 88.5917 86.08 92.8234 87.1308C93.9697 91.5281 93.2613 96.2346 93.4537 100.772C99.031 100.436 104.61 100.121 110.198 100.116L110.199 100.116Z" fill="#92D050"/>
<path d="M104.744 128.759H98.4524V104.506L90.9414 106.835V101.719L104.069 97.0167H104.744V128.759Z" fill="#92D050"/>
</g>
<defs>
<clipPath id="clip0">
<rect width="136" height="101" fill="white"/>
</clipPath>
</defs>
</svg>
