<svg width="178" height="199" viewBox="0 0 178 199" fill="none" xmlns="http://www.w3.org/2000/svg">
<path d="M47.1503 88.3628V88.8073L47.3972 91.4792L47.1503 92.7533L47.0949 93.2581L46.5235 94.3824V95.2734L46.4449 95.8375L45.9864 96.3896L45.662 98.1766L45.1914 98.5708L45.0009 99.0696L44.8891 99.2828L45.0009 99.7393L44.3409 99.7434L43.6798 101.53L42.6389 102.099L42.3587 102.653L41.0608 103.031L40.1085 103.689L39.4263 104.397L38.6091 104.929L37.8704 105.443L36.8285 105.588L35.8772 106.346L35.3401 106.796L33.7389 107.584L32.9105 107.987H31.8474L30.6946 108.163L29.8774 108.824L29.8884 109.13L30.0003 109.999L29.564 110.465L28.7911 110.771L28.1189 110.594L27.213 111.076L27.1122 111.51L26.8764 111.882L26.6527 111.884V112.331L26.171 112.867L25.7569 112.907L25.0182 112.984L24.6605 113.233L24.4479 113.235L24.1002 113.773L23.6196 114.146L23.2497 114.421L22.2985 114.856L21.7946 114.894L21.2565 115.641L20.5632 116.39L19.8911 116.528L19.1413 117.117L18.9287 118.162L19.3207 118.711L20.0704 119.185L20.7083 119.519L20.8988 119.932L21.4137 120.72L21.1678 121.723V122.17L22.2199 122.904L23.7647 124.559L24.1567 124.912L25.0404 125.64L26.2275 126.605L26.6981 127.51L27.4145 127.925L28.0182 128.748L29.4289 130.141L30.5485 131.198L34.1873 133.562L35.7764 134.663L38.0599 136.355L41.7098 139.231L46.1658 143.523L46.3895 144.08L46.8259 144.298L46.8369 144.522L47.2733 144.519L47.6098 144.964L47.5091 145.411L48.7294 146.517L48.9531 147.183L49.333 147.753L49.6807 148.196L50.0495 148.94L50.4193 150.073L51.2033 151.406L51.3938 151.821L51.5389 152.517L51.5056 153.662L51.1247 154.701L50.901 155.642L50.4526 156.536L50.4647 156.759L51.3041 157.845L51.5832 158.75L51.561 160.047L51.2587 161.438L50.4082 162.79L50.0051 163.283L49.8369 164.347L48.7405 164.508L47.9676 165.099L47.2511 166.031L46.5014 166.358L45.7738 167.317L45.1239 167.691L44.6321 168.347L43.8259 168.657L43.4339 169.732L43.5015 170.041L43.8592 170.437L44.2955 171.01L44.9455 171.482L45.9643 172.014L46.6918 172.378L47.4526 172.359L47.9343 172.243L48.9975 172.264L49.8711 172.468L51.4603 172.446L52.1102 172.272L52.9718 172.357L54.4491 172.175L55.0316 171.917L55.9163 171.798L57.2263 171.829L58.9838 172.04L59.5098 172.23L60.461 172.838L61.8265 173.421L62.5994 173.621L63.07 174.116L63.5063 174.311L63.9648 174.409L64.7488 174.968L65.1519 175.037L65.3867 175.481L66.1707 175.994L66.6634 176.167L68.2526 177.799L68.7675 178.092L69.2038 178.226L69.35 178.856L69.9878 179.525L71.8803 181.52L72.1262 182.143L72.6522 182.455L73.671 183.617L74.0962 183.804L74.6454 184.633L75.9544 185.62L77.3874 186.487L78.4626 187.316L79.4138 187.444L81.3285 187.276L82.6717 186.745L84.5521 185.593L86.1201 184.744L88.0226 184.007L89.0414 183.648L89.3881 183.334L90.4965 183.042L90.8442 182.75L91.8176 182.613L93.6758 181.818L94.9858 181.514L97.1685 181.114L99.3068 180.639L100.718 180.121L101.502 180.171L103.27 179.907L104.949 179.757L107.793 179.852L108.207 179.899L108.442 179.642L108.845 179.447L109.092 178.846L109.595 178.577L109.975 178.123L110.49 177.122L110.983 177.095L111.017 176.854L110.871 176.586L110.95 176.153L111.095 176.076L111.32 175.594L111.61 175.208L111.969 174.382L112.17 173.603L112.595 172.895L112.92 172.279L113.368 171.79L113.402 171.18L113.794 170.495L114.05 170.323L114.263 169.835L114.42 169.339L114.712 169.152L114.98 168.449L115.249 167.887L115.641 167.485L115.898 166.934L116.614 166.115L116.793 165.574L117.376 165.203L117.689 164.584L118.305 164.071L119.267 162.799L119.469 162.422L119.839 162.249L120.096 161.66L120.577 161.56L121.708 160.404L122.794 159.533L122.895 159.131L123.41 159.05L124.541 158.119L125.413 157.473L125.749 157.397L126.175 157.049L126.353 156.616L126.791 156.446L127.015 156.106L127.63 155.652L129.186 154.244L129.679 153.619L130.597 153.004L130.731 152.671L131.101 152.565L131.693 151.752L132.164 151.24L132.578 151.119L132.948 150.543L133.809 149.962L134.224 149.618L134.526 148.993L134.694 148.603L135.523 147.906L136.866 146.188L137.604 145.022L139.206 143.334L140.056 142.642L140.615 142.029L141.064 141.491L141.713 140.907L142.451 140.465L143.594 139.584L144.198 139.416L144.568 138.986L146.259 137.5L146.527 137.034L146.885 136.868L147.49 135.804L147.837 135.683L148.273 134.564L149.404 133.449L149.907 132.392L150.177 131.938L150.545 131.437L150.68 130.638L153.087 128.135L153.781 127.214L154.162 125.753L154.598 125.283L155.024 125.01L155.595 123.854L156.211 123.184L156.502 122.635L156.826 122.407L157.598 121.11L157.912 120.343L158.427 119.742L158.941 118.565L159.502 118.304L159.883 117.518L160.308 117.147L160.845 116.104L161.136 115.961L161.371 115.7L161.573 114.804L161.842 114.596L162.368 113.213L162.591 112.077L163.251 110.596L163.599 110.301L163.867 109.501L164.472 108.641L164.964 107.045L164.774 104.557L164.517 103.974L164.438 103.45L164.024 102.866L164.147 102.599L164.158 102.186L163.778 101.803L163.073 100.072L161.919 98.6533L161.338 98.43L160.935 97.6507L160.129 96.6943L159.927 96.5264L159.759 96.1L159.39 95.6455L159.053 95.2955L158.93 94.5946L158.259 93.9852L158.214 93.781L158.248 93.4442L158.236 93.1515L158.069 93.0007L158.001 92.1077L157.666 91.7789L157.464 91.267L157.408 90.7964L157.017 90.0904L156.625 89.4981V88.8133L156.445 88.5558L156.009 88.5488L155.561 88.3266L155.348 87.9987L155.483 87.7503L155.304 87.5201L154.901 87.503L154.688 87.336L154.542 87.0444L154.598 86.2278L154.038 85.4746L153.647 84.5434L153.602 83.7621L153.77 83.2794L153.31 82.2255L153.008 81.8665L152.079 81.4371L151.833 81.0127L151.901 80.7915L152.191 80.4988L152.09 80.1891L151.688 79.808L151.598 79.0648L151.251 78.6595L151.016 77.5152L150.602 76.6654L150.188 75.0484L149.728 73.6586L149.202 72.8471L148.575 72.2859L148.005 71.4774L148.06 70.4306L147.993 69.4028L148.295 69.0358L148.329 68.4555L148.038 68.2252L148.34 67.5977L148.531 67.0648L149.147 66.4111L149.616 64.9761L149.706 64.4884L149.717 62.7275L149.247 61.4956L149.147 60.8229L148.744 60.133L148.632 59.5297L148.083 58.6879L148.15 58.165L148.262 57.802L148.06 57.4138L147.501 56.6868L146.706 56.0492L146.549 55.3764L146.034 54.8455L145.832 53.7031L145.094 52.7437L145.128 51.179L144.691 51.0372L144.322 50.6832L144.097 49.4704L143.75 48.9385L143.829 47.9389L143.28 47.1062L143.247 46.0976L143.135 45.3263L142.363 43.3784L142.25 42.6785L141.87 41.5854V41.0051L141.657 40.6683L141.691 39.7914L141.456 38.6148L141.533 38.4368L142.048 38.3221L141.948 37.4734L142.217 35.3938L142.083 33.9035L142.127 32.743L141.634 31.1229L141.433 30.6714L141.388 29.9624L141.154 29.351L141.22 28.3605L140.516 26.9707L140.157 26.0938L140.012 25.1636L139.71 24.7201L139.698 24.3571L138.702 23.3837L138.668 22.7049L138.209 22.6395L137.582 22.195L137.549 21.1291L137.291 20.9752L136.787 20.9491L136.261 20.7198L136.003 20.1224L134.627 19.2405L133.698 19.0887L132.802 18.7427L132.455 18.4873L130.485 17.4505L128.57 16.7788L127.843 16.4942L127.104 16.2005L123.98 16.287L123.678 16.1422L123.387 15.9763L123.062 15.5791L122.357 15.4705L121.675 15.8626L121.372 15.918L121.092 15.7591L120.062 15.4916L119.872 15.2814L118.82 15.1135L118.495 14.9184L117.823 14.9546L117.521 15.0511L117.297 14.9314L117.241 14.6096L116.245 14.3954L115.808 14.1129L115.058 14.0596L114.487 13.6251L113.457 13.5397L112.427 12.4516L111.196 12.1469L109.662 11.6913L108.643 11.1061L107.524 11.0135L106.629 11.1523L105.005 11.7527L104.356 12.0413L104.132 12.0423V12.2635L103.248 12.2696L102.587 12.2746L102.162 12.4797L101.255 12.9524L97.494 13.9781L96.8329 14.6499L95.7245 14.5463L95.5008 15.4383L94.8407 15.3317L94.1797 15.5579L93.956 15.3367L90.8553 15.6927L90.8442 15.2462L90.6195 15.2482L90.6316 16.1382L89.9594 15.92L89.9705 16.3655L88.1909 16.2649L87.7546 16.6018L87.7425 16.1573L85.5487 16.8512L84.4292 17.4022L83.6452 17.4747L82.2122 17.529L81.5633 17.2836L81.0262 17.355L80.3208 17.4204L79.4924 17.3982L78.9211 18.1062L78.8092 18.6734L78.3618 18.7649L77.9366 19.1711L77.3209 19.5905L76.8503 19.7333L75.7196 20.2713L75.2047 20.6112L74.7341 21.2135L74.4771 22.0331V22.2544L73.8161 22.7049L73.7607 23.2007L73.7385 23.5033L73.2457 23.8825L72.9323 24.2686L70.5028 25.1747L69.8427 26.2929L68.958 26.1863L68.2979 26.7475V27.8607L67.6369 27.8657L67.4242 29.2032L66.0921 29.2122L65.1065 30.777L64.9947 31.668L64.3346 32.4192L63.7078 33.0074L63.2372 33.8471L62.6558 34.7673L61.9272 37.0329L61.4798 37.036L60.976 38.9678L60.6072 39.0462L60.7301 40.3827L60.1698 41.0544L59.5098 41.0584L58.8598 43.0657L57.3271 46.1951L56.2186 46.6467L55.9949 47.5386L55.5576 47.5417V48.2094L54.8975 48.2134V48.8832L54.2365 48.8862V49.3317L53.7891 49.1114L53.3527 50.2287L52.6917 50.2327V50.9004L51.8079 51.1287L51.3706 52.246L50.4415 52.2057L49.2443 52.7447L48.5047 53.5261L48.3263 54.3065L48.2588 54.6202L47.3972 55.3885V55.835L47.1725 55.836L46.6807 56.7813L45.1914 57.8523L44.5313 59.1938L44.094 59.1958L43.6577 60.5363L43.2102 60.5373L42.785 63.2132L42.1804 66.3025L42.8404 69.261L43.3886 71.0068L43.7363 73.902L43.96 73.9L44.1837 75.2354L44.5535 76.0188L44.5978 76.6875L44.7097 77.9184L44.8891 79.3957L44.8447 80.5994L44.9898 81.6271L44.9677 82.6428L45.8857 83.8878L46.456 84.5092L46.8259 85.4847L47.1503 88.3628Z" fill="#92D050"/>
<path fill-rule="evenodd" clip-rule="evenodd" d="M91.2065 14.779L91.5714 30.1429L101.568 39.6816L108.791 29.4148L103.538 20.2401L105.435 19.1479L104.778 18.1285L102.151 18.347L101.568 12.7402" fill="#92D050"/>
<path fill-rule="evenodd" clip-rule="evenodd" d="M67.6387 28.6138L91.4253 53.662L101.568 39.7544" fill="#92D050"/>
<path fill-rule="evenodd" clip-rule="evenodd" d="M53.8486 49.4388L61.8748 52.4971L75.3004 64.293L97.3359 76.089L91.3528 53.5893" fill="#92D050"/>
<path fill-rule="evenodd" clip-rule="evenodd" d="M97.4814 76.0889L110.25 63.5648L111.71 54.463L122.217 53.9533L126.74 44.1961L133.672 45.798L135.131 44.9971L134.475 42.5214L141.844 40.9194" fill="#92D050"/>
<path fill-rule="evenodd" clip-rule="evenodd" d="M148.922 72.4482L134.913 78.7102L119.809 81.3316L115.796 83.516L106.31 91.5984L108.062 76.8171L97.4087 76.1617L79.6052 87.2295L73.3302 87.3752L52.0243 74.3414L43.1226 70.3365" fill="#92D050"/>
<path fill-rule="evenodd" clip-rule="evenodd" d="M106.31 91.5984L104.997 103.831L78.2189 131.355L74.2058 127.933L51.9514 121.962L51.4406 121.161L48.7409 123.418L44.4359 120.069L41.8822 123.127L20.3574 119.341L20.4304 119.414" fill="#92D050"/>
<path fill-rule="evenodd" clip-rule="evenodd" d="M50.4922 150.069L53.4838 150.141L56.6942 140.457L78.219 131.355L82.2321 137.035L78.3649 153.637L79.3135 153.855L79.4594 157.496L80.7728 157.714L80.6998 160.263H79.4594V161.865L80.6998 162.229L80.0431 187.423" fill="#92D050"/>
<path fill-rule="evenodd" clip-rule="evenodd" d="M61.6558 173.296L66.9093 162.447L71.3601 163.685L72.4546 161.573L74.7165 161.428L74.9354 157.496L78 157.423L78.2918 153.636" fill="#92D050"/>
<path fill-rule="evenodd" clip-rule="evenodd" d="M141.042 141.549L134.84 136.525L117.912 120.287L116.015 118.176L105.07 103.904" fill="#92D050"/>
<path fill-rule="evenodd" clip-rule="evenodd" d="M76.1015 37.3801L71.9224 39.0277L67.5369 39.1307L62.477 40.5209L60.6196 40.6239" fill="#92D050"/>
</svg>
