<svg width="188" height="167" viewBox="0 0 188 167" fill="none" xmlns="http://www.w3.org/2000/svg">
<g clip-path="url(#clip0)">
<path d="M143.09 137.526C143.201 137.526 143.312 137.554 143.423 137.609C143.617 137.692 143.755 137.802 143.866 137.941" stroke="#92D050" stroke-width="2" stroke-miterlimit="3.8637"/>
<path d="M144.199 144.44C144.088 144.274 143.672 143.887 143.506 143.776" stroke="#92D050" stroke-width="2" stroke-miterlimit="3.8637"/>
<path d="M143.145 142.642C143.117 142.338 143.034 142.062 143.062 141.73C143.089 141.481 143.284 141.26 143.367 141.011C143.395 140.9 143.395 140.734 143.395 140.596C143.395 140.485 143.45 140.402 143.45 140.292C143.45 139.766 143.339 139.241 143.034 138.798C143.006 138.743 142.868 138.549 142.84 138.521" stroke="#92D050" stroke-width="2" stroke-miterlimit="3.8637"/>
<path d="M183.829 138.328C184.301 138.743 184.578 139.13 185.271 138.964C185.327 138.964 185.576 138.853 185.576 138.826" stroke="#92D050" stroke-width="2" stroke-miterlimit="3.8637"/>
<path d="M186.741 140.153C186.963 140.513 186.686 141.038 186.769 141.426C186.824 141.73 186.991 142.034 187.074 142.338L187.102 142.366" stroke="#92D050" stroke-width="2" stroke-miterlimit="3.8637"/>
<path d="M3.95605 79.9431C4.06698 79.9708 4.17791 80.0261 4.26111 80.0814C4.34431 80.1091 4.48297 80.2473 4.53844 80.3303" stroke="#92D050" stroke-width="2" stroke-miterlimit="3.8637"/>
<path d="M2.5149 81.2429C2.15438 81.1046 1.76613 80.6344 1.59973 80.4685C1.29467 80.1643 0.712293 79.4728 1.29467 79.1133C1.4056 79.058 1.6552 79.0026 1.76613 79.0303C2.26531 79.1686 2.5981 79.4175 3.04182 79.5835C3.34688 79.6941 3.65193 79.8047 3.98472 79.9153" stroke="#92D050" stroke-width="2" stroke-miterlimit="3.8637"/>
<path d="M179.392 123.144C179.613 123.559 179.946 124.029 180.085 124.223C180.113 124.278 180.39 124.499 180.445 124.527" stroke="#92D050" stroke-width="2" stroke-miterlimit="3.8637"/>
<path d="M177.922 123.614C178.061 123.448 178.255 123.338 178.393 123.144" stroke="#92D050" stroke-width="2" stroke-miterlimit="3.8637"/>
<path d="M168.798 105.499C168.853 105.443 168.881 105.388 168.909 105.333C168.937 105.194 168.853 105.056 168.909 104.918C168.937 104.835 169.075 104.697 169.131 104.586C169.103 104.531 169.103 104.503 169.075 104.448" stroke="#92D050" stroke-width="2" stroke-miterlimit="3.8637"/>
<path d="M169.797 103.839C169.991 103.95 170.102 103.95 170.268 103.977" stroke="#92D050" stroke-width="2" stroke-miterlimit="3.8637"/>
<path d="M150.355 72.0053C150.439 71.9777 150.494 71.9223 150.522 71.867C150.577 71.8117 150.605 71.7287 150.661 71.6458L150.633 71.5628C150.799 71.3139 150.716 70.6778 150.827 70.3735C150.827 70.3182 150.855 70.2905 150.882 70.2352" stroke="#92D050" stroke-width="2" stroke-miterlimit="3.8637"/>
<path d="M151.243 73.6924C151.021 73.6647 150.827 73.72 150.633 73.6647C150.55 73.6371 150.494 73.5818 150.439 73.5264C150.355 73.3881 150.328 73.2499 150.217 73.1116" stroke="#92D050" stroke-width="2" stroke-miterlimit="3.8637"/>
<path d="M152.131 72.6139C152.131 72.7522 152.131 72.9181 152.159 73.0564" stroke="#92D050" stroke-width="2" stroke-miterlimit="3.8637"/>
<path d="M173.013 123.559H172.957C172.514 123.531 172.014 123.144 171.571 123.421C171.543 123.476 171.543 123.559 171.543 123.614L171.571 123.67C171.654 123.725 171.903 123.78 172.014 123.78" stroke="#92D050" stroke-width="2" stroke-miterlimit="3.8637"/>
<path d="M170.629 123.31C170.768 123.393 171.017 123.255 171.045 123.089L170.989 123.033C170.823 122.95 170.657 122.895 170.49 122.84" stroke="#92D050" stroke-width="2" stroke-miterlimit="3.8637"/>
<path d="M169.324 100.382C169.463 100.493 169.407 100.354 169.491 100.52C169.518 100.576 169.518 100.686 169.574 100.742C169.712 100.907 170.35 101.101 170.572 101.239C170.655 101.295 170.739 101.378 170.822 101.461" stroke="#92D050" stroke-width="2" stroke-miterlimit="3.8637"/>
<path d="M172.154 98.999C172.043 99.1097 171.932 99.2203 171.849 99.3586C171.738 99.5245 171.627 99.8011 171.572 99.9947C171.544 100.161 171.572 100.244 171.599 100.382C171.627 100.631 171.488 100.714 171.599 100.99" stroke="#92D050" stroke-width="2" stroke-miterlimit="3.8637"/>
<path d="M170.684 96.3993C170.711 96.4269 170.739 96.4269 170.767 96.4546C170.85 96.5099 170.905 96.6206 170.961 96.7035" stroke="#92D050" stroke-width="2" stroke-miterlimit="3.8637"/>
<path d="M167.162 98.0587C167.412 98.1417 167.661 98.28 167.855 98.5565C168.022 98.7502 168.216 98.9438 168.355 99.1927L168.382 99.2757" stroke="#92D050" stroke-width="2" stroke-miterlimit="3.8637"/>
<path d="M152.381 92.6654C152.298 92.4442 152.048 92.3612 151.965 92.1676C151.993 92.0017 151.993 91.6145 151.882 91.4762C151.826 91.4209 151.771 91.3932 151.688 91.3379" stroke="#92D050" stroke-width="2" stroke-miterlimit="3.8637"/>
<path d="M150.384 89.7061C150.439 89.4848 150.412 89.3189 150.633 89.1253C150.911 88.9317 151.105 89.0976 151.382 89.07C151.549 89.07 151.604 88.904 151.798 88.987C152.048 89.0699 152.159 89.4295 152.297 89.6231C152.436 89.8167 152.797 89.7891 152.88 90.1763C152.935 90.4252 152.907 90.6741 153.018 90.923C153.185 91.2549 153.49 91.2826 153.656 91.5038C153.767 91.6698 153.739 91.7804 153.934 92.0017C153.906 92.2782 153.906 92.5548 153.961 92.8037C153.906 92.8867 153.823 92.8867 153.767 92.942C153.684 93.025 153.628 93.1909 153.545 93.2739H153.49" stroke="#92D050" stroke-width="2" stroke-miterlimit="3.8637"/>
<path d="M152.464 87.7978L152.408 87.8254C152.381 87.8531 151.66 87.9914 151.604 88.019C151.521 88.0467 150.578 87.8807 150.495 87.8531C150.439 87.8254 149.996 87.3276 149.94 87.2723C149.829 87.1063 149.33 86.7744 149.33 86.6361L149.358 86.5532C149.386 86.5255 149.441 86.5255 149.496 86.5255" stroke="#92D050" stroke-width="2" stroke-miterlimit="3.8637"/>
<path d="M154.738 87.3552C154.544 87.2446 154.267 87.051 153.629 87.1063" stroke="#92D050" stroke-width="2" stroke-miterlimit="3.8637"/>
<path d="M152.297 84.7554C152.519 84.7554 152.768 84.8384 152.99 84.8107C153.323 84.7554 153.656 84.5065 153.961 84.3406" stroke="#92D050" stroke-width="2" stroke-miterlimit="3.8637"/>
<path d="M148.97 86.1107L148.914 86.166H148.831C148.637 86.0831 148.415 85.5576 148.415 85.364C148.554 85.1427 148.581 85.198 148.637 84.8938C148.692 84.8385 148.776 84.7832 148.859 84.7555" stroke="#92D050" stroke-width="2" stroke-miterlimit="3.8637"/>
<path d="M136.712 76.5135C136.878 76.5135 137.072 76.5965 137.377 76.8731C137.488 76.9837 137.599 77.122 137.71 77.2326C137.821 77.3433 137.988 77.3986 138.099 77.5092C138.209 77.6198 138.293 77.7858 138.404 77.8964C138.515 78.0071 138.653 77.9794 138.792 78.0624C138.875 78.1177 138.903 78.2007 138.986 78.256H139.041" stroke="#92D050" stroke-width="2" stroke-miterlimit="3.8637"/>
<path d="M135.963 77.9518C135.991 77.7305 136.018 77.4263 135.991 77.371C135.991 77.3433 135.991 77.3433 135.963 77.3157" stroke="#92D050" stroke-width="2" stroke-miterlimit="3.8637"/>
<path d="M146.862 57.9V57.8447C146.917 57.5128 147.111 57.4575 147.167 57.2639C147.222 57.015 146.945 56.7661 146.612 57.0426" stroke="#92D050" stroke-width="2" stroke-miterlimit="3.8637"/>
<path d="M145.447 57.3746C145.142 57.4022 144.948 57.1257 144.726 56.9597L144.671 57.015V57.098C144.726 57.1533 144.754 57.2363 144.782 57.3193C145.115 57.4576 145.392 58.4532 145.531 58.7021C145.531 58.7021 146.03 59.2 146.058 59.2C146.224 59.1723 146.279 59.117 146.363 59.0617" stroke="#92D050" stroke-width="2" stroke-miterlimit="3.8637"/>
<path d="M148.054 56.7383C148.054 56.7107 148.054 56.7107 148.054 56.683C148.303 56.2958 147.887 55.6874 148.276 55.4385C148.331 55.4108 148.414 55.4385 148.47 55.4661C148.497 55.5214 148.553 55.715 148.497 55.7703" stroke="#92D050" stroke-width="2" stroke-miterlimit="3.8637"/>
<path d="M148.47 55.0238C148.525 54.9685 148.664 54.9685 148.747 54.9408C149.052 55.1621 148.803 55.5493 148.941 55.8258C149.08 56.0471 149.357 56.1854 149.634 56.296" stroke="#92D050" stroke-width="2" stroke-miterlimit="3.8637"/>
<path d="M133.688 119.493C133.827 119.383 133.91 119.217 134.049 119.106C134.132 119.023 134.271 118.968 134.382 118.912" stroke="#92D050" stroke-width="2" stroke-miterlimit="3.8637"/>
<path d="M134.021 116.783C133.855 117.004 133.023 117.668 132.773 117.778C132.385 117.917 131.941 117.364 131.692 117.474C131.636 117.529 131.609 117.612 131.553 117.668C131.442 117.778 131.109 118.083 130.971 118.083C130.888 118.083 130.804 118.055 130.749 118.055C130.583 118.055 130.416 118.083 130.25 118.027C129.972 117.944 129.778 117.861 129.473 117.889C129.251 117.889 129.113 118.055 128.946 118.138" stroke="#92D050" stroke-width="2" stroke-miterlimit="3.8637"/>
<path d="M133.689 119.77C133.689 119.936 133.855 119.991 133.855 120.157C133.744 120.489 133.467 120.572 133.245 120.765C133.19 120.821 133.162 120.904 133.106 120.959" stroke="#92D050" stroke-width="2" stroke-miterlimit="3.8637"/>
<path d="M122.651 113.16C122.651 113.104 122.623 113.049 122.623 112.994C122.54 112.69 122.29 112.662 122.29 112.219C122.29 111.97 122.346 111.362 122.29 111.168C122.235 111.03 121.958 110.919 121.847 110.809C121.625 110.588 121.625 110.173 121.431 109.896C121.375 109.813 121.292 109.702 121.264 109.62C121.237 109.509 121.375 109.26 121.431 109.232" stroke="#92D050" stroke-width="2" stroke-miterlimit="3.8637"/>
<path d="M122.124 109.205C122.124 109.26 122.124 109.288 122.124 109.315C122.263 109.951 123.843 110.726 123.76 111.473C123.871 111.611 124.01 111.777 124.121 111.915" stroke="#92D050" stroke-width="2" stroke-miterlimit="3.8637"/>
<path d="M119.767 106.826C119.905 106.881 119.988 106.964 120.155 107.02C120.183 107.02 120.238 107.047 120.266 107.047C120.46 107.075 120.737 107.075 120.931 107.047C121.042 107.02 121.181 106.964 121.292 106.964C121.403 106.964 121.486 106.992 121.597 107.02" stroke="#92D050" stroke-width="2" stroke-miterlimit="3.8637"/>
<path d="M121.347 108.873L121.098 109.011C120.82 108.735 120.82 108.458 120.432 108.237C120.21 108.098 119.905 108.154 119.683 107.96C119.489 107.794 119.351 107.573 119.212 107.324" stroke="#92D050" stroke-width="2" stroke-miterlimit="3.8637"/>
<path d="M115.496 94.5185C115.413 94.3526 115.33 94.1866 115.274 94.0207C115.219 93.7994 115.08 93.5228 115.108 93.2739C115.108 93.2186 115.108 93.1356 115.08 93.0803" stroke="#92D050" stroke-width="2" stroke-miterlimit="3.8637"/>
<path d="M109.978 87.4658C109.645 87.7977 109.534 87.5211 109.201 87.6871C109.007 87.7701 109.007 87.9913 108.924 88.1296" stroke="#92D050" stroke-width="2" stroke-miterlimit="3.8637"/>
<path d="M115.192 92.7485C115.219 92.6102 115.275 92.5272 115.275 92.389C115.302 92.0571 115.136 91.6699 114.914 91.4209C114.803 91.2827 114.027 90.8954 113.805 90.7018C113.666 90.5912 113.555 90.4253 113.417 90.287C113.333 90.204 113.223 90.204 113.112 90.121C112.945 89.9828 112.834 89.7891 112.668 89.6785C112.446 89.4849 112.252 89.3743 112.086 89.1254C111.891 88.8765 111.559 88.0744 111.42 87.7148" stroke="#92D050" stroke-width="2" stroke-miterlimit="3.8637"/>
<path d="M107.454 88.7935L107.537 88.8211C107.565 88.7935 107.62 88.7658 107.648 88.7105L107.676 88.5998L107.648 88.5169C107.398 88.2956 107.065 88.4616 106.788 88.3786C106.566 88.2956 106.344 88.2403 106.123 88.102C105.901 87.9914 105.623 87.7701 105.374 87.7148C105.124 87.6595 104.902 87.6595 104.625 87.6318" stroke="#92D050" stroke-width="2" stroke-miterlimit="3.8637"/>
<path d="M101.408 88.9041C101.686 89.0424 101.963 89.153 102.185 88.9871L102.212 88.9041C102.212 88.8211 102.185 88.7658 102.129 88.6829" stroke="#92D050" stroke-width="2" stroke-miterlimit="3.8637"/>
<path d="M103.017 88.2126C102.878 88.1019 102.434 87.9637 102.24 87.936C102.074 87.9084 101.852 88.019 101.603 88.0743" stroke="#92D050" stroke-width="2" stroke-miterlimit="3.8637"/>
<path d="M112.418 94.2419C112.391 94.2973 112.391 94.3802 112.391 94.4355C112.335 94.6845 112.169 94.8781 112.196 95.1546C112.196 95.2929 112.307 95.4312 112.335 95.5695C112.391 95.7078 112.391 95.8737 112.418 96.0397C112.446 96.1503 112.529 96.2333 112.585 96.3163" stroke="#92D050" stroke-width="2" stroke-miterlimit="3.8637"/>
<path d="M82.0783 94.4079C81.9119 94.2973 81.7178 94.242 81.5514 94.1314C81.2464 93.9378 79.6379 92.4443 79.5547 92.1953C79.5824 92.14 79.6102 92.1124 79.6656 92.0847C79.7211 92.0847 79.7765 92.1124 79.832 92.14V92.1953" stroke="#92D050" stroke-width="2" stroke-miterlimit="3.8637"/>
<path d="M81.8018 92.6378C81.9682 93.0803 82.1068 93.5505 82.4119 93.9377L82.4951 94.0207" stroke="#92D050" stroke-width="2" stroke-miterlimit="3.8637"/>
<path d="M79.3604 90.4806C79.4435 90.6189 79.5822 90.7572 79.8318 90.8955C79.9427 90.9508 80.1091 90.9785 80.2478 91.0061" stroke="#92D050" stroke-width="2" stroke-miterlimit="3.8637"/>
<path d="M79.305 91.3103C79.3328 91.3656 79.3328 91.4486 79.305 91.5039L79.2496 91.5315C79.1109 91.4486 78.8613 91.006 78.7227 90.5912" stroke="#92D050" stroke-width="2" stroke-miterlimit="3.8637"/>
<path d="M86.4597 76.4582L86.432 76.4306C86.2933 76.0434 85.9605 75.7391 85.7664 75.3796C85.7387 75.3243 85.7109 75.269 85.7109 75.2137C85.7387 75.1583 85.7664 75.1307 85.8219 75.103C85.8773 75.103 85.9605 75.1307 85.9883 75.1583L86.016 75.2137" stroke="#92D050" stroke-width="2" stroke-miterlimit="3.8637"/>
<path d="M86.9315 74.9924C86.8483 75.0754 86.8206 75.186 86.8483 75.3243C86.876 75.4626 87.1256 75.7392 87.3197 76.0158" stroke="#92D050" stroke-width="2" stroke-miterlimit="3.8637"/>
<path d="M110.088 56.2683C109.95 56.2959 109.839 56.3789 109.7 56.4342C109.534 56.3236 109.561 55.9641 109.561 55.7981L109.617 55.7428" stroke="#92D050" stroke-width="2" stroke-miterlimit="3.8637"/>
<path d="M109.284 54.6918C108.841 55.1066 108.508 54.7194 108.591 54.4982C108.646 54.4429 108.73 54.4152 108.785 54.3599C108.868 54.2493 108.979 53.9174 109.09 53.862C109.146 53.8344 109.395 53.8897 109.506 53.8344C109.589 53.8067 109.617 53.7238 109.728 53.7514C109.783 53.7514 110.394 53.8897 110.421 53.8897" stroke="#92D050" stroke-width="2" stroke-miterlimit="3.8637"/>
<path d="M97.3873 53.7238C97.3595 53.8067 97.3041 53.945 97.2763 54.028C97.1654 54.3322 96.999 54.6088 96.8881 54.913C96.8049 55.1343 96.6939 55.4938 96.6662 55.7151C96.6662 55.8534 96.6939 55.9917 96.6662 56.13C96.6662 56.2959 96.6107 56.4619 96.583 56.6278C96.583 56.7108 96.6385 56.8767 96.7217 56.9597C96.7494 56.9873 96.9435 57.098 97.1377 57.2086" stroke="#92D050" stroke-width="2" stroke-miterlimit="3.8637"/>
<path d="M103.932 52.8664C103.654 52.811 103.46 53.06 103.266 53.1429C103.127 53.2259 102.323 53.5301 102.212 53.5578C102.018 53.5854 101.852 53.5301 101.685 53.5025C101.297 53.4195 101.103 53.2536 100.937 52.894C100.798 52.8387 100.548 52.7557 100.382 52.7557L100.299 52.7834C100.16 53.0876 99.2171 53.1982 98.6348 53.1982" stroke="#92D050" stroke-width="2" stroke-miterlimit="3.8637"/>
<path d="M101.602 57.4853C101.547 56.8215 101.38 56.0471 101.685 55.5216C102.351 54.3876 102.795 55.1897 103.183 55.0237C103.211 55.0237 103.266 54.9684 103.294 54.9408C103.543 54.7195 103.516 54.4706 103.599 54.2217" stroke="#92D050" stroke-width="2" stroke-miterlimit="3.8637"/>
<path d="M75.6719 49.3815C75.7551 49.3815 75.866 49.3539 76.0047 49.3539C76.1433 49.3262 76.4484 49.1326 76.4761 49.0496L76.5593 49.022C76.6425 49.0496 76.6702 49.1326 76.7257 49.1879C76.8089 49.2156 76.9198 49.1879 77.003 49.1879C77.2526 49.2985 77.0862 49.6857 77.3635 49.824C77.6409 49.9623 78.0569 50.0729 78.3619 50.1283" stroke="#92D050" stroke-width="2" stroke-miterlimit="3.8637"/>
<path d="M75.0345 52.175C75.0067 52.3133 75.0622 52.5346 75.0622 52.7005C75.0345 52.7558 74.9513 52.7835 74.8681 52.7835C74.4798 52.8111 74.4521 52.2857 74.2857 52.0644C74.147 51.8985 73.6478 51.5389 73.4537 51.3453C73.3982 51.29 73.3982 51.2347 73.3428 51.207C73.315 51.0687 73.2041 50.9028 73.2041 50.7922C73.2041 50.4603 73.5646 50.3496 73.5924 50.0454C73.7865 49.8518 73.842 49.8518 73.9806 49.6582" stroke="#92D050" stroke-width="2" stroke-miterlimit="3.8637"/>
<path d="M24.9772 55.3555C24.8385 55.3555 24.6721 55.4385 24.5334 55.4109C24.5057 55.4109 24.4502 55.3832 24.4225 55.3555C24.3116 55.3002 24.2284 55.1896 24.1175 55.1343C24.0065 55.079 23.8956 55.079 23.8124 55.0237C23.7847 54.996 23.7569 54.996 23.7292 54.9683C23.5351 54.8024 22.5644 53.4748 22.4258 53.2259C22.3426 53.06 22.3148 52.894 22.2039 52.7557C22.093 52.5898 21.9266 52.5068 21.8157 52.3409C21.7602 52.2302 21.677 52.009 21.7047 51.8984C21.7047 51.7877 21.8157 51.5665 21.8711 51.4835C22.0098 51.3176 22.2039 51.2069 22.3148 51.041C22.4258 50.9303 22.6754 50.5985 22.8695 50.3772" stroke="#92D050" stroke-width="2" stroke-miterlimit="3.8637"/>
<path d="M91.9795 57.8724C92.2845 57.9277 92.6451 57.9831 92.9501 58.0107C93.1165 57.9831 93.3661 58.066 93.5048 58.0107C93.9207 57.8724 94.3645 57.5959 94.8082 57.6235C94.9746 57.7065 95.0023 57.8724 95.0855 58.0107C95.1687 58.1213 95.3074 58.1767 95.4183 58.2873" stroke="#92D050" stroke-width="2" stroke-miterlimit="3.8637"/>
<path d="M153.379 40.9737C153.323 40.9184 153.24 40.8631 153.157 40.8077L153.129 40.7248C153.184 40.5865 153.268 40.4482 153.295 40.3099C153.323 40.1163 153.212 39.7844 153.323 39.6461L153.406 39.5908C153.545 39.5355 153.6 39.6738 153.739 39.7014C153.85 39.7291 153.989 39.6461 154.1 39.5908C154.155 39.5908 154.21 39.6185 154.238 39.6461" stroke="#92D050" stroke-width="2" stroke-miterlimit="3.8637"/>
<path d="M134.743 1.97678C134.771 1.83849 134.743 1.7002 134.687 1.64489C134.355 1.5066 134.493 1.42363 134.355 1.17471C134.299 1.14705 134.244 1.14705 134.216 1.09174C134.216 1.03642 134.05 0.870479 133.966 0.787507C133.966 0.787507 133.828 0.64922 133.772 0.64922L133.717 0.593905C133.772 0.510932 133.966 0.289673 133.966 0.289673C134.355 0.400303 134.715 0.234358 135.048 0.400303C135.131 0.455617 135.353 0.593905 135.547 0.759849" stroke="#92D050" stroke-width="2" stroke-miterlimit="3.8637"/>
<path fill-rule="evenodd" clip-rule="evenodd" d="M135.935 1.23001L135.962 1.14704L136.018 1.11938C136.045 1.11938 136.045 1.11938 136.073 1.14704C136.101 1.20236 136.073 1.34064 136.045 1.39596L135.99 1.3683C135.962 1.31299 135.962 1.25767 135.935 1.23001Z" fill="#92D050" stroke="#92D050" stroke-width="2" stroke-miterlimit="3.8637" stroke-linejoin="round"/>
<path fill-rule="evenodd" clip-rule="evenodd" d="M136.018 1.47885C136.129 1.45119 136.101 1.50651 136.046 1.61714C135.963 1.61714 135.99 1.50651 136.018 1.47885Z" fill="#92D050" stroke="#92D050" stroke-width="2" stroke-miterlimit="3.8637" stroke-linejoin="round"/>
<path fill-rule="evenodd" clip-rule="evenodd" d="M135.99 1.7002H136.046V1.72785L136.018 1.75551C135.99 1.78317 135.962 1.92145 135.962 1.94911C135.907 2.00443 135.519 2.281 135.436 2.22569C135.491 2.14271 135.546 2.14271 135.63 2.0874C135.852 1.97677 135.852 1.81083 135.99 1.7002Z" fill="#92D050" stroke="#92D050" stroke-width="2" stroke-miterlimit="3.8637" stroke-linejoin="round"/>
<path fill-rule="evenodd" clip-rule="evenodd" d="M135.27 2.33627V2.30861C135.325 2.30861 135.353 2.2533 135.408 2.2533L135.436 2.28095C135.38 2.30861 135.325 2.33627 135.27 2.33627Z" fill="#92D050" stroke="#92D050" stroke-width="2" stroke-miterlimit="3.8637" stroke-linejoin="round"/>
<path fill-rule="evenodd" clip-rule="evenodd" d="M135.186 2.36389V2.41921C135.103 2.47452 135.103 2.55749 135.048 2.61281H134.992C135.02 2.50218 135.103 2.41921 135.186 2.36389Z" fill="#92D050" stroke="#92D050" stroke-width="2" stroke-miterlimit="3.8637" stroke-linejoin="round"/>
<path fill-rule="evenodd" clip-rule="evenodd" d="M134.909 2.66808C134.854 2.69574 134.854 2.7234 134.798 2.75105H134.771C134.798 2.7234 134.798 2.69574 134.826 2.66808C134.854 2.64042 134.881 2.64042 134.909 2.66808Z" fill="#92D050" stroke="#92D050" stroke-width="2" stroke-miterlimit="3.8637" stroke-linejoin="round"/>
<path fill-rule="evenodd" clip-rule="evenodd" d="M154.433 40.2546L154.461 40.2823C154.433 40.31 154.405 40.31 154.377 40.31H154.35L154.377 40.2823L154.433 40.2546Z" fill="#92D050" stroke="#92D050" stroke-width="2" stroke-miterlimit="3.8637" stroke-linejoin="round"/>
<path fill-rule="evenodd" clip-rule="evenodd" d="M153.989 41.3056L153.962 41.3333L153.934 41.3056L153.906 41.2503V41.2227H153.934C153.962 41.2503 153.962 41.278 153.989 41.3056Z" fill="#92D050" stroke="#92D050" stroke-width="2" stroke-miterlimit="3.8637" stroke-linejoin="round"/>
<path fill-rule="evenodd" clip-rule="evenodd" d="M74.8955 49.2986C74.951 49.271 75.0064 49.2156 75.0619 49.188L75.0342 49.2986C74.9787 49.2986 74.9232 49.2986 74.8955 49.2986Z" fill="#92D050" stroke="#92D050" stroke-width="2" stroke-miterlimit="3.8637" stroke-linejoin="round"/>
<path fill-rule="evenodd" clip-rule="evenodd" d="M74.4521 49.5199C74.4521 49.4922 74.4521 49.4645 74.4521 49.4645L74.4799 49.4369L74.5076 49.4645V49.4922L74.4521 49.5199Z" fill="#92D050" stroke="#92D050" stroke-width="2" stroke-miterlimit="3.8637" stroke-linejoin="round"/>
<path fill-rule="evenodd" clip-rule="evenodd" d="M24.561 49.7964H24.5888L24.6165 49.8241L24.5888 49.8517L24.5333 49.8241C24.5333 49.7964 24.5056 49.7964 24.561 49.7964Z" fill="#92D050" stroke="#92D050" stroke-width="2" stroke-miterlimit="3.8637" stroke-linejoin="round"/>
<path fill-rule="evenodd" clip-rule="evenodd" d="M24.3947 49.8517V49.8793C24.3947 49.907 24.3393 49.907 24.3393 49.907L24.3115 49.8793V49.8517C24.3393 49.8517 24.367 49.8517 24.3947 49.8517Z" fill="#92D050" stroke="#92D050" stroke-width="2" stroke-miterlimit="3.8637" stroke-linejoin="round"/>
<path fill-rule="evenodd" clip-rule="evenodd" d="M25.0049 49.8793L25.0603 49.8517C25.0603 49.9347 25.0881 50.0176 25.0881 50.1006H25.0326C24.9771 50.0729 24.8939 50.0176 24.8662 49.9347C24.8939 49.9347 24.9217 49.9347 24.9771 49.907L25.0049 49.8793Z" fill="#92D050" stroke="#92D050" stroke-width="2" stroke-miterlimit="3.8637" stroke-linejoin="round"/>
<path fill-rule="evenodd" clip-rule="evenodd" d="M23.6459 50.2113H23.6736V50.239C23.6459 50.239 23.6459 50.2666 23.6182 50.239L23.6459 50.2113Z" fill="#92D050" stroke="#92D050" stroke-width="2" stroke-miterlimit="3.8637" stroke-linejoin="round"/>
<path fill-rule="evenodd" clip-rule="evenodd" d="M23.4248 50.3772C23.4525 50.3219 23.4803 50.3219 23.508 50.3219L23.5357 50.3496V50.3772L23.508 50.4049L23.4248 50.3772Z" fill="#92D050" stroke="#92D050" stroke-width="2" stroke-miterlimit="3.8637" stroke-linejoin="round"/>
<path fill-rule="evenodd" clip-rule="evenodd" d="M25.8926 50.5431H25.948L25.9758 50.5984V50.6261C25.948 50.6261 25.8926 50.6261 25.8926 50.5984V50.5431Z" fill="#92D050" stroke="#92D050" stroke-width="2" stroke-miterlimit="3.8637" stroke-linejoin="round"/>
<path fill-rule="evenodd" clip-rule="evenodd" d="M26.2809 50.6262V50.6815L26.2531 50.7092H26.1977L26.1699 50.6815C26.1699 50.6538 26.1977 50.6262 26.2254 50.5985L26.2809 50.6262Z" fill="#92D050" stroke="#92D050" stroke-width="2" stroke-miterlimit="3.8637" stroke-linejoin="round"/>
<path fill-rule="evenodd" clip-rule="evenodd" d="M79.3607 50.7092C79.3607 50.7368 79.333 50.7921 79.3052 50.8198C79.2775 50.7368 79.2498 50.6538 79.222 50.5432L78.917 50.3496C79.1943 50.4326 79.2775 50.3773 79.3607 50.7092Z" fill="#92D050" stroke="#92D050" stroke-width="2" stroke-miterlimit="3.8637" stroke-linejoin="round"/>
<path fill-rule="evenodd" clip-rule="evenodd" d="M26.4756 50.9581L26.5311 50.9304L26.5588 50.9857V51.0134H26.5033L26.4756 50.9581Z" fill="#92D050" stroke="#92D050" stroke-width="2" stroke-miterlimit="3.8637" stroke-linejoin="round"/>
<path fill-rule="evenodd" clip-rule="evenodd" d="M26.7799 51.7877C26.8354 51.8154 26.8631 51.843 26.8909 51.8707L26.8631 51.8984H26.8077C26.7522 51.843 26.7522 51.8984 26.7799 51.7877Z" fill="#92D050" stroke="#92D050" stroke-width="2" stroke-miterlimit="3.8637" stroke-linejoin="round"/>
<path fill-rule="evenodd" clip-rule="evenodd" d="M79.4164 52.4239L79.3887 52.3686C79.4164 52.2856 79.4996 52.175 79.4719 52.092L79.4996 52.0643H79.5273C79.5273 52.1196 79.5273 52.2579 79.4996 52.3409C79.4719 52.3686 79.4441 52.3962 79.4164 52.4239Z" fill="#92D050" stroke="#92D050" stroke-width="2" stroke-miterlimit="3.8637" stroke-linejoin="round"/>
<path fill-rule="evenodd" clip-rule="evenodd" d="M76.9756 52.4516C77.0033 52.4239 77.0311 52.4239 77.0588 52.3962H77.0865L77.1142 52.4516C77.0865 52.4516 77.0588 52.4792 77.0033 52.5069L76.9756 52.4516Z" fill="#92D050" stroke="#92D050" stroke-width="2" stroke-miterlimit="3.8637" stroke-linejoin="round"/>
<path fill-rule="evenodd" clip-rule="evenodd" d="M76.2822 52.5899C76.31 52.5623 76.3654 52.5623 76.3932 52.5623V52.5899H76.3654H76.2822Z" fill="#92D050" stroke="#92D050" stroke-width="2" stroke-miterlimit="3.8637" stroke-linejoin="round"/>
<path fill-rule="evenodd" clip-rule="evenodd" d="M75.8105 52.5899L75.8383 52.5623C75.8937 52.5899 75.9492 52.6452 76.0047 52.6729V52.7005C75.8937 52.7835 75.8105 52.6729 75.8105 52.5899Z" fill="#92D050" stroke="#92D050" stroke-width="2" stroke-miterlimit="3.8637" stroke-linejoin="round"/>
<path fill-rule="evenodd" clip-rule="evenodd" d="M97.7744 53.3366C97.7744 53.3089 97.8022 53.2536 97.8299 53.226L97.8576 53.2536V53.2813C97.8576 53.3089 97.8021 53.3366 97.7744 53.3366Z" fill="#92D050" stroke="#92D050" stroke-width="2" stroke-miterlimit="3.8637" stroke-linejoin="round"/>
<path fill-rule="evenodd" clip-rule="evenodd" d="M103.96 53.6686H103.904V53.6409L103.932 53.5856L103.904 53.5579L103.987 53.5303L104.015 53.5856L103.987 53.6409L103.96 53.6686Z" fill="#92D050" stroke="#92D050" stroke-width="2" stroke-miterlimit="3.8637" stroke-linejoin="round"/>
<path fill-rule="evenodd" clip-rule="evenodd" d="M27.4172 53.862C27.4172 53.8897 27.3894 53.8897 27.3617 53.9173C27.3617 53.8897 27.334 53.862 27.334 53.8344V53.8067L27.3894 53.7791L27.4172 53.862Z" fill="#92D050" stroke="#92D050" stroke-width="2" stroke-miterlimit="3.8637" stroke-linejoin="round"/>
<path fill-rule="evenodd" clip-rule="evenodd" d="M110.893 54.2769C110.893 54.2493 110.92 54.2216 110.948 54.194L110.976 54.2216V54.2769L110.948 54.3046L110.893 54.2769Z" fill="#92D050" stroke="#92D050" stroke-width="2" stroke-miterlimit="3.8637" stroke-linejoin="round"/>
<path fill-rule="evenodd" clip-rule="evenodd" d="M27.1965 54.1387L27.2242 54.194C27.2242 54.277 27.1687 54.3876 27.141 54.4429C27.1133 54.3599 27.1133 54.2493 27.1133 54.1663L27.141 54.1387H27.1965Z" fill="#92D050" stroke="#92D050" stroke-width="2" stroke-miterlimit="3.8637" stroke-linejoin="round"/>
<path fill-rule="evenodd" clip-rule="evenodd" d="M111.337 54.4429C111.365 54.4429 111.42 54.4429 111.448 54.4705C111.42 54.4982 111.42 54.4982 111.392 54.5258L111.365 54.4982L111.337 54.4429Z" fill="#92D050" stroke="#92D050" stroke-width="2" stroke-miterlimit="3.8637" stroke-linejoin="round"/>
<path fill-rule="evenodd" clip-rule="evenodd" d="M111.447 54.7195C111.419 54.6918 111.419 54.6642 111.392 54.6088V54.5812C111.419 54.6088 111.475 54.6088 111.53 54.6088V54.6365C111.53 54.6918 111.475 54.7195 111.447 54.7195Z" fill="#92D050" stroke="#92D050" stroke-width="2" stroke-miterlimit="3.8637" stroke-linejoin="round"/>
<path fill-rule="evenodd" clip-rule="evenodd" d="M26.7526 55.1067C26.7248 55.245 26.7526 55.3833 26.6139 55.4662C26.503 55.5492 26.1702 55.5769 26.1979 55.3556C26.3089 55.2726 26.5862 55.3003 26.7526 55.1067Z" fill="#92D050" stroke="#92D050" stroke-width="2" stroke-miterlimit="3.8637" stroke-linejoin="round"/>
<path fill-rule="evenodd" clip-rule="evenodd" d="M110.671 56.0194V55.9917C110.698 55.9641 110.809 55.9641 110.837 55.9641L110.865 55.9364L110.837 55.9917C110.809 55.9917 110.698 56.047 110.671 56.0194C110.643 56.0194 110.671 56.047 110.671 56.0194Z" fill="#92D050"/>
<path d="M110.671 56.0194V55.9917C110.698 55.9641 110.809 55.9641 110.837 55.9641L110.865 55.9364L110.837 55.9917C110.809 55.9917 110.698 56.047 110.671 56.0194ZM110.671 56.0194C110.671 56.047 110.643 56.0194 110.671 56.0194Z" stroke="#92D050" stroke-width="2" stroke-miterlimit="3.8637" stroke-linejoin="round"/>
<path fill-rule="evenodd" clip-rule="evenodd" d="M149.635 57.098V57.0703C149.69 57.015 149.801 56.9873 149.801 56.9044L149.829 56.8767C149.884 56.8767 149.912 56.9044 149.968 56.8767L149.995 56.9044L149.968 56.9597C149.857 57.015 149.746 57.0703 149.635 57.098Z" fill="#92D050" stroke="#92D050" stroke-width="2" stroke-miterlimit="3.8637" stroke-linejoin="round"/>
<path fill-rule="evenodd" clip-rule="evenodd" d="M148.331 57.2086L148.414 57.2363C148.442 57.2639 148.47 57.2916 148.47 57.3469H148.442L148.359 57.3192L148.331 57.2639V57.2086Z" fill="#92D050" stroke="#92D050" stroke-width="2" stroke-miterlimit="3.8637" stroke-linejoin="round"/>
<path fill-rule="evenodd" clip-rule="evenodd" d="M97.7744 57.5128V57.4575L97.8853 57.3745V57.3192L97.9408 57.3745V57.4298C97.8854 57.4852 97.8021 57.4852 97.7744 57.5128Z" fill="#92D050" stroke="#92D050" stroke-width="2" stroke-miterlimit="3.8637" stroke-linejoin="round"/>
<path fill-rule="evenodd" clip-rule="evenodd" d="M99.3564 58.066C99.3564 58.1214 99.3287 58.2043 99.301 58.232C99.2455 58.232 99.19 58.2597 99.1346 58.2597L99.1068 58.232L99.0791 58.1767L99.1068 58.149C99.1623 58.1767 99.2178 58.1767 99.2732 58.149C99.301 58.1214 99.3287 58.1214 99.3287 58.0937L99.3564 58.066Z" fill="#92D050" stroke="#92D050" stroke-width="2" stroke-miterlimit="3.8637" stroke-linejoin="round"/>
<path fill-rule="evenodd" clip-rule="evenodd" d="M91.3135 58.2873C91.3135 58.2596 91.3135 58.149 91.3412 58.1213H91.3689C91.3967 58.2043 91.3412 58.2596 91.3135 58.2873Z" fill="#92D050" stroke="#92D050" stroke-width="2" stroke-miterlimit="3.8637" stroke-linejoin="round"/>
<path fill-rule="evenodd" clip-rule="evenodd" d="M100.494 58.4809C100.438 58.4533 100.383 58.4256 100.327 58.398H100.355C100.41 58.4256 101.187 58.3427 101.242 58.2873C101.27 58.2044 101.27 58.149 101.298 58.0661C101.464 58.0108 101.298 58.232 101.298 58.3703C101.27 58.398 101.215 58.398 101.215 58.398C100.882 58.3703 100.743 58.4533 100.494 58.4809Z" fill="#92D050" stroke="#92D050" stroke-width="2" stroke-miterlimit="3.8637" stroke-linejoin="round"/>
<path fill-rule="evenodd" clip-rule="evenodd" d="M91.2578 58.5639C91.2578 58.5362 91.2855 58.5085 91.2855 58.5085C91.3133 58.5085 91.341 58.5362 91.3687 58.5639V58.5915C91.341 58.6192 91.2855 58.5915 91.2578 58.5639Z" fill="#92D050" stroke="#92D050" stroke-width="2" stroke-miterlimit="3.8637" stroke-linejoin="round"/>
<path fill-rule="evenodd" clip-rule="evenodd" d="M146.806 58.5085L146.834 58.5362C146.834 58.5639 146.806 58.5915 146.806 58.6192H146.779L146.751 58.5915V58.5639L146.806 58.5085Z" fill="#92D050" stroke="#92D050" stroke-width="2" stroke-miterlimit="3.8637" stroke-linejoin="round"/>
<path fill-rule="evenodd" clip-rule="evenodd" d="M92.4229 58.8405L92.4506 58.7852H92.506L92.5338 58.8128V58.8405C92.506 58.8405 92.4783 58.8405 92.4229 58.8405Z" fill="#92D050" stroke="#92D050" stroke-width="2" stroke-miterlimit="3.8637" stroke-linejoin="round"/>
<path fill-rule="evenodd" clip-rule="evenodd" d="M92.0902 58.7852C92.1457 58.7852 92.2289 58.7852 92.2844 58.7852V58.8405C92.2289 58.8681 92.118 58.8681 92.0625 58.8128L92.0902 58.7852Z" fill="#92D050" stroke="#92D050" stroke-width="2" stroke-miterlimit="3.8637" stroke-linejoin="round"/>
<path fill-rule="evenodd" clip-rule="evenodd" d="M93.4209 58.8681V58.8404C93.4486 58.8127 93.5041 58.8127 93.5318 58.8127V58.8681C93.4764 58.8404 93.4486 58.8681 93.4209 58.8681Z" fill="#92D050" stroke="#92D050" stroke-width="2" stroke-miterlimit="3.8637" stroke-linejoin="round"/>
<path fill-rule="evenodd" clip-rule="evenodd" d="M93.0879 58.951L93.1156 58.8957C93.1434 58.8957 93.1711 58.8957 93.1988 58.868H93.282V58.8957C93.2266 58.9234 93.1711 58.9234 93.0879 58.951Z" fill="#92D050" stroke="#92D050" stroke-width="2" stroke-miterlimit="3.8637" stroke-linejoin="round"/>
<path fill-rule="evenodd" clip-rule="evenodd" d="M94.3916 58.9234C94.4193 58.9234 94.5025 58.8958 94.5302 58.9234V58.9511C94.5025 58.9787 94.447 58.9511 94.4193 58.9511L94.3916 58.9234Z" fill="#92D050" stroke="#92D050" stroke-width="2" stroke-miterlimit="3.8637" stroke-linejoin="round"/>
<path fill-rule="evenodd" clip-rule="evenodd" d="M95.168 58.9235L95.2512 58.9511L95.2234 58.9788H95.1957C95.168 58.9511 95.168 58.9235 95.168 58.9235Z" fill="#92D050" stroke="#92D050" stroke-width="2" stroke-miterlimit="3.8637" stroke-linejoin="round"/>
<path fill-rule="evenodd" clip-rule="evenodd" d="M151.271 69.5715C151.299 69.5992 151.354 69.5992 151.382 69.6268L151.354 69.6545L151.299 69.6822L151.243 69.6545V69.5992L151.271 69.5715Z" fill="#92D050" stroke="#92D050" stroke-width="2" stroke-miterlimit="3.8637" stroke-linejoin="round"/>
<path fill-rule="evenodd" clip-rule="evenodd" d="M151.354 69.7375L151.438 69.7652V69.7929L151.382 69.8205L151.354 69.7929V69.7375Z" fill="#92D050" stroke="#92D050" stroke-width="2" stroke-miterlimit="3.8637" stroke-linejoin="round"/>
<path fill-rule="evenodd" clip-rule="evenodd" d="M151.465 69.931L151.493 69.8757L151.548 70.014C151.548 70.0417 151.52 70.0417 151.493 70.014C151.465 69.9863 151.465 69.9863 151.465 69.931Z" fill="#92D050" stroke="#92D050" stroke-width="2" stroke-miterlimit="3.8637" stroke-linejoin="round"/>
<path fill-rule="evenodd" clip-rule="evenodd" d="M151.632 70.2906L151.659 70.3183V70.346L151.632 70.3736C151.548 70.4013 151.576 70.3183 151.632 70.2906Z" fill="#92D050" stroke="#92D050" stroke-width="2" stroke-miterlimit="3.8637" stroke-linejoin="round"/>
<path fill-rule="evenodd" clip-rule="evenodd" d="M151.715 71.3969L151.743 71.3693C151.771 71.3969 151.771 71.4246 151.743 71.4522L151.715 71.4799L151.688 71.4522L151.715 71.3969Z" fill="#92D050" stroke="#92D050" stroke-width="2" stroke-miterlimit="3.8637" stroke-linejoin="round"/>
<path fill-rule="evenodd" clip-rule="evenodd" d="M151.659 72.0884H151.687C151.687 72.0884 151.715 72.116 151.715 72.1437V72.1713H151.687C151.687 72.1437 151.687 72.116 151.659 72.0884Z" fill="#92D050" stroke="#92D050" stroke-width="2" stroke-miterlimit="3.8637" stroke-linejoin="round"/>
<path fill-rule="evenodd" clip-rule="evenodd" d="M149.885 72.4479H149.94L149.968 72.4755C149.968 72.5032 149.968 72.5308 149.968 72.5308C149.94 72.5308 149.94 72.5032 149.913 72.5032L149.885 72.4479Z" fill="#92D050" stroke="#92D050" stroke-width="2" stroke-miterlimit="3.8637" stroke-linejoin="round"/>
<path fill-rule="evenodd" clip-rule="evenodd" d="M166.69 72.3373C166.69 72.5032 166.635 72.6968 166.44 72.6968V72.6691C166.468 72.6138 166.468 72.5585 166.468 72.5032L166.551 72.4756L166.579 72.4479L166.524 72.4756H166.496C166.496 72.4202 166.524 72.3649 166.551 72.3373C166.607 72.3096 166.635 72.3096 166.69 72.3373Z" fill="#92D050" stroke="#92D050" stroke-width="2" stroke-miterlimit="3.8637" stroke-linejoin="round"/>
<path fill-rule="evenodd" clip-rule="evenodd" d="M151.881 73.6095H151.909C151.909 73.6372 151.937 73.6371 151.909 73.6648C151.881 73.6925 151.853 73.6925 151.826 73.7201L151.798 73.6925V73.6371L151.881 73.6095Z" fill="#92D050" stroke="#92D050" stroke-width="2" stroke-miterlimit="3.8637" stroke-linejoin="round"/>
<path fill-rule="evenodd" clip-rule="evenodd" d="M85.4617 74.0244C85.4894 74.0521 85.5449 74.0797 85.5449 74.135L85.5172 74.1627H85.4894C85.4617 74.135 85.4339 74.0797 85.4617 74.0244Z" fill="#92D050" stroke="#92D050" stroke-width="2" stroke-miterlimit="3.8637" stroke-linejoin="round"/>
<path fill-rule="evenodd" clip-rule="evenodd" d="M86.71 74.1626C86.7377 74.1349 86.7654 74.1072 86.7932 74.0796H86.8209C86.8209 74.1072 86.8209 74.1349 86.8486 74.1626C86.8764 74.1902 86.9318 74.1626 86.9595 74.1626L87.015 74.2179C87.0427 74.2732 87.0427 74.3562 87.015 74.3838H86.9595C86.9041 74.3285 86.8486 74.2732 86.7654 74.2455L86.71 74.1626Z" fill="#92D050" stroke="#92D050" stroke-width="2" stroke-miterlimit="3.8637" stroke-linejoin="round"/>
<path fill-rule="evenodd" clip-rule="evenodd" d="M144.311 75.822L144.338 75.7944L144.366 75.7667L144.394 75.7944V75.8497H144.366L144.311 75.822Z" fill="#92D050" stroke="#92D050" stroke-width="2" stroke-miterlimit="3.8637" stroke-linejoin="round"/>
<path fill-rule="evenodd" clip-rule="evenodd" d="M135.657 76.3753L135.685 76.3477C135.74 76.3753 135.824 76.403 135.851 76.4306C135.851 76.4583 135.824 76.5136 135.796 76.5412C135.713 76.4859 135.685 76.4306 135.657 76.3753Z" fill="#92D050" stroke="#92D050" stroke-width="2" stroke-miterlimit="3.8637" stroke-linejoin="round"/>
<path fill-rule="evenodd" clip-rule="evenodd" d="M135.99 76.6795C135.935 76.6518 135.935 76.6242 135.907 76.5688C135.963 76.5688 136.046 76.5689 136.101 76.6242C136.046 76.6518 136.018 76.6518 135.99 76.6795Z" fill="#92D050" stroke="#92D050" stroke-width="2" stroke-miterlimit="3.8637" stroke-linejoin="round"/>
<path fill-rule="evenodd" clip-rule="evenodd" d="M87.1816 76.5688L87.2094 76.6242L87.1816 76.6795C87.1262 76.7071 87.0984 76.6518 87.043 76.6518L87.0707 76.6242C87.0984 76.5965 87.1262 76.5965 87.1816 76.5688Z" fill="#92D050" stroke="#92D050" stroke-width="2" stroke-miterlimit="3.8637" stroke-linejoin="round"/>
<path fill-rule="evenodd" clip-rule="evenodd" d="M139.513 78.5602L139.485 78.5325V78.5048L139.513 78.4772H139.541H139.569V78.5048L139.513 78.5602Z" fill="#92D050" stroke="#92D050" stroke-width="2" stroke-miterlimit="3.8637" stroke-linejoin="round"/>
<path fill-rule="evenodd" clip-rule="evenodd" d="M135.991 78.4772L136.046 78.5048C136.046 78.5325 136.046 78.5878 136.074 78.6155L136.046 78.6431C136.018 78.6431 135.963 78.6155 135.963 78.5878V78.5325L135.991 78.4772Z" fill="#92D050" stroke="#92D050" stroke-width="2" stroke-miterlimit="3.8637" stroke-linejoin="round"/>
<path fill-rule="evenodd" clip-rule="evenodd" d="M139.901 78.6708H139.957L139.985 78.7261L139.929 78.7537H139.901V78.6708Z" fill="#92D050" stroke="#92D050" stroke-width="2" stroke-miterlimit="3.8637" stroke-linejoin="round"/>
<path fill-rule="evenodd" clip-rule="evenodd" d="M140.04 78.8091V78.7814L140.096 78.7538L140.151 78.7814V78.8091C140.123 78.8091 140.096 78.8368 140.096 78.8368L140.04 78.8091Z" fill="#92D050" stroke="#92D050" stroke-width="2" stroke-miterlimit="3.8637" stroke-linejoin="round"/>
<path fill-rule="evenodd" clip-rule="evenodd" d="M140.316 78.9751C140.289 78.9475 140.233 78.9198 140.178 78.8922L140.205 78.8645L140.261 78.8922L140.316 78.9751Z" fill="#92D050" stroke="#92D050" stroke-width="2" stroke-miterlimit="3.8637" stroke-linejoin="round"/>
<path fill-rule="evenodd" clip-rule="evenodd" d="M136.822 79.141H136.878C136.905 79.1687 136.905 79.1963 136.905 79.224L136.878 79.2516L136.822 79.224V79.141Z" fill="#92D050" stroke="#92D050" stroke-width="2" stroke-miterlimit="3.8637" stroke-linejoin="round"/>
<path fill-rule="evenodd" clip-rule="evenodd" d="M140.566 79.4728L140.594 79.4452L140.622 79.4728V79.5005L140.594 79.5282L140.566 79.4728Z" fill="#92D050" stroke="#92D050" stroke-width="2" stroke-miterlimit="3.8637" stroke-linejoin="round"/>
<path fill-rule="evenodd" clip-rule="evenodd" d="M140.926 79.7494C140.898 79.6941 140.815 79.6664 140.76 79.6387L140.788 79.6111C140.843 79.6387 140.871 79.6664 140.926 79.7217V79.7494Z" fill="#92D050" stroke="#92D050" stroke-width="2" stroke-miterlimit="3.8637" stroke-linejoin="round"/>
<path fill-rule="evenodd" clip-rule="evenodd" d="M139.54 79.86C139.568 79.9153 139.679 79.8876 139.734 79.8876L139.762 79.9153C139.734 79.943 139.568 79.9706 139.568 79.8876L139.54 79.86Z" fill="#92D050" stroke="#92D050" stroke-width="2" stroke-miterlimit="3.8637" stroke-linejoin="round"/>
<path fill-rule="evenodd" clip-rule="evenodd" d="M139.402 79.9154V79.9707C139.374 79.9984 139.291 80.026 139.235 79.9984V79.9707C139.291 79.9431 139.346 79.9431 139.402 79.9154Z" fill="#92D050" stroke="#92D050" stroke-width="2" stroke-miterlimit="3.8637" stroke-linejoin="round"/>
<path fill-rule="evenodd" clip-rule="evenodd" d="M140.539 80.0261C140.567 80.0261 140.567 80.0537 140.595 80.0537C140.678 80.0261 140.733 80.0261 140.816 79.9984C140.816 79.9708 140.816 79.9708 140.816 79.9431C140.844 79.9431 140.927 79.9431 140.955 79.9708C140.9 80.0261 140.622 80.1091 140.539 80.0814V80.0261Z" fill="#92D050" stroke="#92D050" stroke-width="2" stroke-miterlimit="3.8637" stroke-linejoin="round"/>
<path fill-rule="evenodd" clip-rule="evenodd" d="M138.681 80.2473C138.681 80.275 138.653 80.3303 138.626 80.3579C138.57 80.4132 138.293 80.4409 138.237 80.4132L138.265 80.3856C138.404 80.3856 138.459 80.3579 138.515 80.3579C138.542 80.3303 138.598 80.3026 138.681 80.2473Z" fill="#92D050" stroke="#92D050" stroke-width="2" stroke-miterlimit="3.8637" stroke-linejoin="round"/>
<path fill-rule="evenodd" clip-rule="evenodd" d="M4.26132 80.4685L4.23359 80.5238C4.20586 80.5238 4.17812 80.5515 4.15039 80.5238V80.4962C4.17812 80.4962 4.23359 80.4962 4.26132 80.4685Z" fill="#92D050" stroke="#92D050" stroke-width="2" stroke-miterlimit="3.8637" stroke-linejoin="round"/>
<path fill-rule="evenodd" clip-rule="evenodd" d="M4.56597 81.077C4.39957 81.1323 4.03905 81.0217 3.90039 80.9664L3.95586 80.9387C4.03905 80.994 4.12225 80.994 4.20545 80.994C4.28864 81.077 4.37184 81.077 4.48277 81.0493L4.56597 81.077Z" fill="#92D050" stroke="#92D050" stroke-width="2" stroke-miterlimit="3.8637" stroke-linejoin="round"/>
<path fill-rule="evenodd" clip-rule="evenodd" d="M154.544 84.4235C154.572 84.3958 154.599 84.3682 154.599 84.3405L154.655 84.3129L154.71 84.3405L154.738 84.3958L154.71 84.4235C154.655 84.3958 154.627 84.4235 154.544 84.4235Z" fill="#92D050" stroke="#92D050" stroke-width="2" stroke-miterlimit="3.8637" stroke-linejoin="round"/>
<path fill-rule="evenodd" clip-rule="evenodd" d="M149.524 84.7001L149.552 84.6725H149.58V84.7001L149.552 84.7278L149.524 84.7001Z" fill="#92D050" stroke="#92D050" stroke-width="2" stroke-miterlimit="3.8637" stroke-linejoin="round"/>
<path fill-rule="evenodd" clip-rule="evenodd" d="M150.051 84.7554L150.079 84.7278C150.134 84.7278 150.217 84.7554 150.245 84.8107H150.217C150.162 84.7554 150.106 84.7554 150.051 84.7554Z" fill="#92D050" stroke="#92D050" stroke-width="2" stroke-miterlimit="3.8637" stroke-linejoin="round"/>
<path fill-rule="evenodd" clip-rule="evenodd" d="M155.181 84.8661C155.154 84.8661 155.126 84.8384 155.126 84.8107V84.7831H155.154C155.181 84.8107 155.181 84.8384 155.181 84.8661Z" fill="#92D050" stroke="#92D050" stroke-width="2" stroke-miterlimit="3.8637" stroke-linejoin="round"/>
<path fill-rule="evenodd" clip-rule="evenodd" d="M151.326 84.8938C151.354 84.8661 151.409 84.8108 151.465 84.8108L151.493 84.8384L151.465 84.8661C151.437 84.8661 151.382 84.8938 151.326 84.8938Z" fill="#92D050" stroke="#92D050" stroke-width="2" stroke-miterlimit="3.8637" stroke-linejoin="round"/>
<path fill-rule="evenodd" clip-rule="evenodd" d="M151.659 84.9213L151.715 84.8937L151.742 84.9213V84.9767C151.687 84.9767 151.687 84.949 151.659 84.9213Z" fill="#92D050" stroke="#92D050" stroke-width="2" stroke-miterlimit="3.8637" stroke-linejoin="round"/>
<path fill-rule="evenodd" clip-rule="evenodd" d="M155.403 85.0597C155.375 85.0321 155.348 85.0044 155.348 84.9767L155.375 84.9491H155.403C155.403 85.0044 155.431 85.0321 155.403 85.0597Z" fill="#92D050" stroke="#92D050" stroke-width="2" stroke-miterlimit="3.8637" stroke-linejoin="round"/>
<path fill-rule="evenodd" clip-rule="evenodd" d="M155.819 85.5575H155.847L155.875 85.5852C155.875 85.6128 155.903 85.6405 155.903 85.6681L155.819 85.5852V85.5575Z" fill="#92D050" stroke="#92D050" stroke-width="2" stroke-miterlimit="3.8637" stroke-linejoin="round"/>
<path fill-rule="evenodd" clip-rule="evenodd" d="M155.986 85.7788H156.097C156.208 85.8894 156.18 86.1936 155.986 86.2213L155.958 86.1936C156.097 85.9724 155.986 85.9724 155.986 85.7788Z" fill="#92D050" stroke="#92D050" stroke-width="2" stroke-miterlimit="3.8637" stroke-linejoin="round"/>
<path fill-rule="evenodd" clip-rule="evenodd" d="M155.625 86.9404L155.736 86.8574C155.791 86.8574 155.764 86.8574 155.764 86.9127C155.736 86.9404 155.653 86.9681 155.625 86.9404Z" fill="#92D050" stroke="#92D050" stroke-width="2" stroke-miterlimit="3.8637" stroke-linejoin="round"/>
<path fill-rule="evenodd" clip-rule="evenodd" d="M155.319 87.1617C155.375 87.134 155.403 87.0787 155.458 87.051V87.0787C155.43 87.134 155.403 87.1617 155.347 87.1893H155.319V87.1617Z" fill="#92D050" stroke="#92D050" stroke-width="2" stroke-miterlimit="3.8637" stroke-linejoin="round"/>
<path fill-rule="evenodd" clip-rule="evenodd" d="M110.616 87.217L110.477 87.2447L110.449 87.1894C110.477 87.0511 110.588 86.9128 110.727 86.8851C110.782 86.8851 110.948 86.9404 110.976 86.9958C111.004 87.0511 111.004 87.1341 110.976 87.1617H110.921L110.837 87.0511H110.727C110.671 87.1064 110.616 87.1617 110.616 87.217Z" fill="#92D050" stroke="#92D050" stroke-width="2" stroke-miterlimit="3.8637" stroke-linejoin="round"/>
<path fill-rule="evenodd" clip-rule="evenodd" d="M152.936 87.4105C152.963 87.3828 152.991 87.3275 153.046 87.3275H153.074C153.074 87.3552 153.019 87.3828 152.991 87.4105H152.936Z" fill="#92D050" stroke="#92D050" stroke-width="2" stroke-miterlimit="3.8637" stroke-linejoin="round"/>
<path fill-rule="evenodd" clip-rule="evenodd" d="M103.904 88.019L103.876 87.9914C103.931 87.9637 103.959 87.9637 104.015 87.936H104.07V87.9637C104.015 87.9914 103.959 87.9914 103.904 88.019Z" fill="#92D050" stroke="#92D050" stroke-width="2" stroke-miterlimit="3.8637" stroke-linejoin="round"/>
<path fill-rule="evenodd" clip-rule="evenodd" d="M99.9936 88.0743C100.077 88.0467 100.16 88.0743 100.188 88.1296L100.215 88.1849L100.188 88.2126C100.16 88.2126 99.9936 88.1573 99.9658 88.1296L99.9936 88.0743Z" fill="#92D050" stroke="#92D050" stroke-width="2" stroke-miterlimit="3.8637" stroke-linejoin="round"/>
<path fill-rule="evenodd" clip-rule="evenodd" d="M100.466 88.2404H100.521L100.577 88.268V88.2957C100.549 88.2957 100.494 88.2957 100.466 88.268V88.2404Z" fill="#92D050" stroke="#92D050" stroke-width="2" stroke-miterlimit="3.8637" stroke-linejoin="round"/>
<path fill-rule="evenodd" clip-rule="evenodd" d="M100.854 88.3509L100.909 88.3232L100.937 88.3509L100.964 88.3785V88.4062L100.937 88.4338C100.909 88.4062 100.881 88.3785 100.854 88.3509Z" fill="#92D050" stroke="#92D050" stroke-width="2" stroke-miterlimit="3.8637" stroke-linejoin="round"/>
<path fill-rule="evenodd" clip-rule="evenodd" d="M108.563 88.6828L108.591 88.6552H108.647C108.647 88.6828 108.619 88.7105 108.591 88.7105H108.563V88.6828Z" fill="#92D050" stroke="#92D050" stroke-width="2" stroke-miterlimit="3.8637" stroke-linejoin="round"/>
<path fill-rule="evenodd" clip-rule="evenodd" d="M78.8062 89.8998L78.8894 89.9274C78.9171 89.9828 78.9726 90.0104 78.9726 90.0934H78.9171C78.8894 90.0657 78.7784 89.9551 78.8062 89.8998Z" fill="#92D050" stroke="#92D050" stroke-width="2" stroke-miterlimit="3.8637" stroke-linejoin="round"/>
<path fill-rule="evenodd" clip-rule="evenodd" d="M150.578 90.3699H150.661V90.4252L150.634 90.4529L150.578 90.4252V90.3699Z" fill="#92D050" stroke="#92D050" stroke-width="2" stroke-miterlimit="3.8637" stroke-linejoin="round"/>
<path fill-rule="evenodd" clip-rule="evenodd" d="M151.243 90.8124C151.271 90.8124 151.326 90.8124 151.326 90.84L151.299 90.8677H151.271L151.243 90.84V90.8124Z" fill="#92D050" stroke="#92D050" stroke-width="2" stroke-miterlimit="3.8637" stroke-linejoin="round"/>
<path fill-rule="evenodd" clip-rule="evenodd" d="M106.206 91.1996L106.234 91.2273C106.206 91.2549 106.151 91.2273 106.123 91.2273C106.123 91.1996 106.179 91.1996 106.206 91.1996Z" fill="#92D050" stroke="#92D050" stroke-width="2" stroke-miterlimit="3.8637" stroke-linejoin="round"/>
<path fill-rule="evenodd" clip-rule="evenodd" d="M80.8305 91.1443L80.9137 91.1719L80.9414 91.2273L80.9137 91.2549C80.8859 91.2273 80.8305 91.1996 80.8027 91.1719L80.8305 91.1443Z" fill="#92D050" stroke="#92D050" stroke-width="2" stroke-miterlimit="3.8637" stroke-linejoin="round"/>
<path fill-rule="evenodd" clip-rule="evenodd" d="M106.372 91.3103L106.345 91.255C106.428 91.2827 106.456 91.2827 106.511 91.3933L106.483 91.4209C106.456 91.3656 106.4 91.338 106.372 91.3103Z" fill="#92D050" stroke="#92D050" stroke-width="2" stroke-miterlimit="3.8637" stroke-linejoin="round"/>
<path fill-rule="evenodd" clip-rule="evenodd" d="M106.927 91.6145C106.899 91.6422 106.844 91.6422 106.816 91.6145L106.788 91.5869L106.816 91.5592C106.844 91.5869 106.899 91.5869 106.927 91.6145Z" fill="#92D050" stroke="#92D050" stroke-width="2" stroke-miterlimit="3.8637" stroke-linejoin="round"/>
<path fill-rule="evenodd" clip-rule="evenodd" d="M109.756 91.6421H109.811L109.839 91.6698V91.6974C109.811 91.6974 109.811 91.6974 109.784 91.6974L109.756 91.6421Z" fill="#92D050" stroke="#92D050" stroke-width="2" stroke-miterlimit="3.8637" stroke-linejoin="round"/>
<path fill-rule="evenodd" clip-rule="evenodd" d="M108.036 91.6974C108.064 91.6698 108.119 91.6421 108.175 91.6421L108.203 91.6697C108.147 91.7251 108.092 91.7527 108.036 91.6974Z" fill="#92D050" stroke="#92D050" stroke-width="2" stroke-miterlimit="3.8637" stroke-linejoin="round"/>
<path fill-rule="evenodd" clip-rule="evenodd" d="M108.536 91.7252L108.591 91.6975H108.619L108.591 91.7252C108.536 91.7528 108.452 91.7252 108.397 91.7252L108.369 91.6975L108.536 91.7252Z" fill="#92D050" stroke="#92D050" stroke-width="2" stroke-miterlimit="3.8637" stroke-linejoin="round"/>
<path fill-rule="evenodd" clip-rule="evenodd" d="M107.01 91.6698C107.038 91.6698 107.177 91.7805 107.177 91.7805C107.121 91.7805 107.066 91.7805 107.01 91.7528L106.982 91.6975L107.01 91.6698Z" fill="#92D050" stroke="#92D050" stroke-width="2" stroke-miterlimit="3.8637" stroke-linejoin="round"/>
<path fill-rule="evenodd" clip-rule="evenodd" d="M107.564 91.8911C107.592 91.8635 107.62 91.8635 107.62 91.8358C107.648 91.8358 107.648 91.8635 107.648 91.8635C107.62 91.8911 107.592 91.9188 107.564 91.8911Z" fill="#92D050" stroke="#92D050" stroke-width="2" stroke-miterlimit="3.8637" stroke-linejoin="round"/>
<path fill-rule="evenodd" clip-rule="evenodd" d="M111.003 92.14H111.031V92.1953V92.223H111.003L110.976 92.1953L111.003 92.14Z" fill="#92D050" stroke="#92D050" stroke-width="2" stroke-miterlimit="3.8637" stroke-linejoin="round"/>
<path fill-rule="evenodd" clip-rule="evenodd" d="M81.4135 92.2782L81.3857 92.2506V92.1953L81.4135 92.1676H81.4412L81.4689 92.1953C81.4412 92.2229 81.4412 92.2506 81.4135 92.2782Z" fill="#92D050" stroke="#92D050" stroke-width="2" stroke-miterlimit="3.8637" stroke-linejoin="round"/>
<path fill-rule="evenodd" clip-rule="evenodd" d="M111.226 92.3059C111.254 92.3059 111.281 92.3612 111.281 92.3889V92.4165C111.281 92.4165 111.226 92.3612 111.198 92.3612L111.226 92.3059Z" fill="#92D050" stroke="#92D050" stroke-width="2" stroke-miterlimit="3.8637" stroke-linejoin="round"/>
<path fill-rule="evenodd" clip-rule="evenodd" d="M152.769 93.0527C152.824 93.0527 152.852 93.0527 152.879 93.108V93.1357H152.824C152.796 93.108 152.769 93.108 152.769 93.0527Z" fill="#92D050" stroke="#92D050" stroke-width="2" stroke-miterlimit="3.8637" stroke-linejoin="round"/>
<path fill-rule="evenodd" clip-rule="evenodd" d="M112.223 92.9973C112.251 93.025 112.251 93.1079 112.279 93.1356V93.1633C112.251 93.1356 112.195 93.0526 112.195 93.025L112.223 92.9973Z" fill="#92D050" stroke="#92D050" stroke-width="2" stroke-miterlimit="3.8637" stroke-linejoin="round"/>
<path fill-rule="evenodd" clip-rule="evenodd" d="M90.2871 94.2419V94.1866V94.1589H90.3426L90.3703 94.1866L90.2871 94.2419Z" fill="#92D050" stroke="#92D050" stroke-width="2" stroke-miterlimit="3.8637" stroke-linejoin="round"/>
<path fill-rule="evenodd" clip-rule="evenodd" d="M90.7861 94.4078H90.8139V94.4355V94.4632L90.7861 94.4355V94.4078Z" fill="#92D050" stroke="#92D050" stroke-width="2" stroke-miterlimit="3.8637" stroke-linejoin="round"/>
<path fill-rule="evenodd" clip-rule="evenodd" d="M82.6893 94.5739C82.717 94.6015 82.8279 94.6292 82.8279 94.6568C82.8002 94.6845 82.7447 94.6845 82.6893 94.6845C82.6615 94.6568 82.6615 94.6568 82.6338 94.6292L82.6893 94.5739Z" fill="#92D050" stroke="#92D050" stroke-width="2" stroke-miterlimit="3.8637" stroke-linejoin="round"/>
<path fill-rule="evenodd" clip-rule="evenodd" d="M90.2039 94.8505H90.1762L90.1484 94.8229V94.7952L90.1762 94.7676V94.7952L90.2039 94.8505Z" fill="#92D050" stroke="#92D050" stroke-width="2" stroke-miterlimit="3.8637" stroke-linejoin="round"/>
<path fill-rule="evenodd" clip-rule="evenodd" d="M90.9806 94.6567C91.0084 94.6844 91.0361 94.7397 91.0361 94.795C90.9529 94.878 90.842 94.878 90.7588 94.8503V94.8227C90.8143 94.8227 90.842 94.795 90.8974 94.795L90.9529 94.7674C90.9529 94.7397 90.9529 94.6844 90.9806 94.6567Z" fill="#92D050" stroke="#92D050" stroke-width="2" stroke-miterlimit="3.8637" stroke-linejoin="round"/>
<path fill-rule="evenodd" clip-rule="evenodd" d="M167.523 95.044L167.467 95.0717H167.439V95.044V95.0164H167.467L167.523 95.044Z" fill="#92D050" stroke="#92D050" stroke-width="2" stroke-miterlimit="3.8637" stroke-linejoin="round"/>
<path fill-rule="evenodd" clip-rule="evenodd" d="M168.16 95.2653H168.216H168.271L168.216 95.2929H168.188L168.16 95.2653Z" fill="#92D050" stroke="#92D050" stroke-width="2" stroke-miterlimit="3.8637" stroke-linejoin="round"/>
<path fill-rule="evenodd" clip-rule="evenodd" d="M166.08 95.044V95.127C166.052 95.127 166.025 95.1546 165.997 95.1546C165.941 95.21 165.941 95.3206 165.858 95.3482L165.803 95.3206C165.803 95.2653 165.886 95.0717 165.914 95.0164C165.997 95.044 166.052 95.044 166.08 95.044Z" fill="#92D050" stroke="#92D050" stroke-width="2" stroke-miterlimit="3.8637" stroke-linejoin="round"/>
<path fill-rule="evenodd" clip-rule="evenodd" d="M115.552 95.3759C115.607 95.2376 115.579 95.1823 115.579 95.044L115.607 95.0164L115.635 95.044C115.663 95.2376 115.663 95.21 115.607 95.4035L115.552 95.3759Z" fill="#92D050" stroke="#92D050" stroke-width="2" stroke-miterlimit="3.8637" stroke-linejoin="round"/>
<path fill-rule="evenodd" clip-rule="evenodd" d="M169.491 95.6524L169.547 95.6248L169.602 95.6801V95.7077C169.547 95.7354 169.491 95.6801 169.491 95.6524Z" fill="#92D050" stroke="#92D050" stroke-width="2" stroke-miterlimit="3.8637" stroke-linejoin="round"/>
<path fill-rule="evenodd" clip-rule="evenodd" d="M115.274 95.7077C115.274 95.6801 115.302 95.6248 115.33 95.6248H115.358C115.358 95.6524 115.33 95.7077 115.302 95.7077H115.274Z" fill="#92D050" stroke="#92D050" stroke-width="2" stroke-miterlimit="3.8637" stroke-linejoin="round"/>
<path fill-rule="evenodd" clip-rule="evenodd" d="M115.136 95.9844C115.136 95.9567 115.163 95.9014 115.191 95.8737L115.219 95.8461V95.8737C115.191 95.9014 115.191 95.9567 115.163 95.9844H115.136Z" fill="#92D050" stroke="#92D050" stroke-width="2" stroke-miterlimit="3.8637" stroke-linejoin="round"/>
<path fill-rule="evenodd" clip-rule="evenodd" d="M166.275 96.0673L166.303 96.0949L166.275 96.1502H166.247V96.0949L166.275 96.0673Z" fill="#92D050" stroke="#92D050" stroke-width="2" stroke-miterlimit="3.8637" stroke-linejoin="round"/>
<path fill-rule="evenodd" clip-rule="evenodd" d="M169.99 96.0949L170.046 96.0673L170.073 96.0949L170.046 96.1226C170.046 96.1503 170.018 96.1226 169.99 96.0949Z" fill="#92D050" stroke="#92D050" stroke-width="2" stroke-miterlimit="3.8637" stroke-linejoin="round"/>
<path fill-rule="evenodd" clip-rule="evenodd" d="M113.221 96.7864V96.814L113.166 96.8417C113.111 96.814 113.055 96.7864 113.027 96.7587V96.7311L113.221 96.7864Z" fill="#92D050" stroke="#92D050" stroke-width="2" stroke-miterlimit="3.8637" stroke-linejoin="round"/>
<path fill-rule="evenodd" clip-rule="evenodd" d="M115.08 97.146C115.052 97.0907 115.025 97.0077 115.053 96.9524H115.08C115.108 96.9801 115.136 97.0907 115.108 97.1184L115.08 97.146Z" fill="#92D050" stroke="#92D050" stroke-width="2" stroke-miterlimit="3.8637" stroke-linejoin="round"/>
<path fill-rule="evenodd" clip-rule="evenodd" d="M171.322 97.1735L171.378 97.1459L171.433 97.2012V97.2565C171.405 97.2565 171.378 97.2565 171.35 97.2289L171.322 97.1735Z" fill="#92D050" stroke="#92D050" stroke-width="2" stroke-miterlimit="3.8637" stroke-linejoin="round"/>
<path fill-rule="evenodd" clip-rule="evenodd" d="M114.137 97.5056C114.192 97.5056 114.248 97.5333 114.275 97.5609L114.303 97.6162V97.6439C114.248 97.6162 114.22 97.5886 114.164 97.5609L114.137 97.5056Z" fill="#92D050" stroke="#92D050" stroke-width="2" stroke-miterlimit="3.8637" stroke-linejoin="round"/>
<path fill-rule="evenodd" clip-rule="evenodd" d="M166.662 97.4502C166.69 97.4779 166.718 97.5608 166.718 97.6161H166.69L166.635 97.5608V97.4779L166.662 97.4502Z" fill="#92D050" stroke="#92D050" stroke-width="2" stroke-miterlimit="3.8637" stroke-linejoin="round"/>
<path fill-rule="evenodd" clip-rule="evenodd" d="M114.691 97.8927L114.719 97.8651C114.747 97.9204 114.802 97.9757 114.83 97.9757H114.913C114.969 97.948 114.996 97.8374 114.996 97.7821L115.08 97.8098C115.08 97.9204 115.08 98.031 115.052 98.114C114.996 98.1416 114.886 98.1693 114.802 98.1693C114.747 98.114 114.691 97.9757 114.691 97.8927Z" fill="#92D050" stroke="#92D050" stroke-width="2" stroke-miterlimit="3.8637" stroke-linejoin="round"/>
<path fill-rule="evenodd" clip-rule="evenodd" d="M172.292 98.1139L172.348 98.1416L172.375 98.1969C172.375 98.2522 172.292 98.3352 172.237 98.3352L172.209 98.3075C172.209 98.2798 172.209 98.2245 172.209 98.1969C172.237 98.1969 172.264 98.1692 172.292 98.1139Z" fill="#92D050" stroke="#92D050" stroke-width="2" stroke-miterlimit="3.8637" stroke-linejoin="round"/>
<path fill-rule="evenodd" clip-rule="evenodd" d="M168.77 99.7734L168.825 99.8011C168.853 99.8288 168.853 99.8564 168.853 99.8841H168.825L168.77 99.8288V99.7734Z" fill="#92D050" stroke="#92D050" stroke-width="2" stroke-miterlimit="3.8637" stroke-linejoin="round"/>
<path fill-rule="evenodd" clip-rule="evenodd" d="M171.627 101.599H171.682L171.71 101.654L171.627 101.737L171.571 101.765C171.571 101.682 171.599 101.627 171.627 101.599Z" fill="#92D050" stroke="#92D050" stroke-width="2" stroke-miterlimit="3.8637" stroke-linejoin="round"/>
<path fill-rule="evenodd" clip-rule="evenodd" d="M171.432 101.792L171.487 101.82V101.848L171.46 101.875L171.404 101.848L171.432 101.792Z" fill="#92D050" stroke="#92D050" stroke-width="2" stroke-miterlimit="3.8637" stroke-linejoin="round"/>
<path fill-rule="evenodd" clip-rule="evenodd" d="M169.159 103.729L169.187 103.784V103.839L169.131 103.867C169.104 103.839 169.104 103.811 169.104 103.784L169.159 103.729Z" fill="#92D050" stroke="#92D050" stroke-width="2" stroke-miterlimit="3.8637" stroke-linejoin="round"/>
<path fill-rule="evenodd" clip-rule="evenodd" d="M170.711 104.392H170.766L170.794 104.42V104.448L170.766 104.475H170.739L170.711 104.392Z" fill="#92D050" stroke="#92D050" stroke-width="2" stroke-miterlimit="3.8637" stroke-linejoin="round"/>
<path fill-rule="evenodd" clip-rule="evenodd" d="M109.589 104.697H109.672C109.672 104.724 109.672 104.724 109.672 104.752H109.644L109.617 104.724L109.589 104.697Z" fill="#92D050" stroke="#92D050" stroke-width="2" stroke-miterlimit="3.8637" stroke-linejoin="round"/>
<path fill-rule="evenodd" clip-rule="evenodd" d="M171.044 104.641H171.128L171.183 104.696L171.155 104.752L171.1 104.779C171.1 104.779 171.044 104.669 171.017 104.641H171.044Z" fill="#92D050" stroke="#92D050" stroke-width="2" stroke-miterlimit="3.8637" stroke-linejoin="round"/>
<path fill-rule="evenodd" clip-rule="evenodd" d="M168.715 106.024L168.77 105.996V106.052V106.079L168.715 106.107V106.079V106.024Z" fill="#92D050" stroke="#92D050" stroke-width="2" stroke-miterlimit="3.8637" stroke-linejoin="round"/>
<path fill-rule="evenodd" clip-rule="evenodd" d="M171.016 106.301C170.988 106.273 170.988 106.218 170.988 106.19H171.044L171.071 106.245C171.044 106.245 171.044 106.273 171.016 106.301Z" fill="#92D050" stroke="#92D050" stroke-width="2" stroke-miterlimit="3.8637" stroke-linejoin="round"/>
<path fill-rule="evenodd" clip-rule="evenodd" d="M169.519 106.494L169.547 106.522L169.574 106.55L169.547 106.577L169.519 106.55H169.491L169.519 106.494Z" fill="#92D050" stroke="#92D050" stroke-width="2" stroke-miterlimit="3.8637" stroke-linejoin="round"/>
<path fill-rule="evenodd" clip-rule="evenodd" d="M171.211 106.743C171.183 106.716 171.155 106.66 171.155 106.633H171.211L171.266 106.688L171.211 106.743Z" fill="#92D050" stroke="#92D050" stroke-width="2" stroke-miterlimit="3.8637" stroke-linejoin="round"/>
<path fill-rule="evenodd" clip-rule="evenodd" d="M118.907 106.66H118.935C118.935 106.715 119.018 106.743 119.046 106.771V106.798H118.99C118.963 106.826 118.907 106.743 118.907 106.66Z" fill="#92D050" stroke="#92D050" stroke-width="2" stroke-miterlimit="3.8637" stroke-linejoin="round"/>
<path fill-rule="evenodd" clip-rule="evenodd" d="M171.349 106.881C171.349 106.909 171.349 106.937 171.349 106.964H171.322C171.294 106.937 171.294 106.881 171.322 106.854L171.349 106.881Z" fill="#92D050" stroke="#92D050" stroke-width="2" stroke-miterlimit="3.8637" stroke-linejoin="round"/>
<path fill-rule="evenodd" clip-rule="evenodd" d="M170.323 106.854L170.379 106.909V106.992H170.323L170.268 106.909L170.323 106.854Z" fill="#92D050" stroke="#92D050" stroke-width="2" stroke-miterlimit="3.8637" stroke-linejoin="round"/>
<path fill-rule="evenodd" clip-rule="evenodd" d="M122.096 107.158C122.207 107.158 122.401 107.352 122.346 107.462C122.29 107.379 122.262 107.269 122.179 107.213C122.152 107.213 122.124 107.213 122.096 107.213L122.068 107.186L122.096 107.158Z" fill="#92D050" stroke="#92D050" stroke-width="2" stroke-miterlimit="3.8637" stroke-linejoin="round"/>
<path fill-rule="evenodd" clip-rule="evenodd" d="M171.405 107.462L171.377 107.49C171.321 107.435 171.294 107.379 171.238 107.296L171.266 107.269C171.377 107.352 171.405 107.352 171.405 107.462Z" fill="#92D050" stroke="#92D050" stroke-width="2" stroke-miterlimit="3.8637" stroke-linejoin="round"/>
<path fill-rule="evenodd" clip-rule="evenodd" d="M121.985 108.596C122.013 108.596 122.013 108.624 122.041 108.624L122.069 108.651L122.041 108.679H122.013C122.013 108.651 121.985 108.624 121.985 108.596Z" fill="#92D050" stroke="#92D050" stroke-width="2" stroke-miterlimit="3.8637" stroke-linejoin="round"/>
<path fill-rule="evenodd" clip-rule="evenodd" d="M124.205 112.745V112.772L124.177 112.8L124.149 112.772C124.177 112.689 124.121 112.634 124.094 112.551C124.094 112.524 124.121 112.524 124.121 112.496C124.149 112.579 124.177 112.662 124.205 112.745Z" fill="#92D050" stroke="#92D050" stroke-width="2" stroke-miterlimit="3.8637" stroke-linejoin="round"/>
<path fill-rule="evenodd" clip-rule="evenodd" d="M123.621 113.768C123.372 113.879 123.4 114.128 123.039 113.879C123.011 113.851 122.928 113.823 122.9 113.768L122.928 113.74H122.984C123.039 113.823 123.178 113.906 123.261 113.934C123.4 113.906 123.483 113.796 123.594 113.74C123.621 113.713 123.621 113.74 123.621 113.768Z" fill="#92D050" stroke="#92D050" stroke-width="2" stroke-miterlimit="3.8637" stroke-linejoin="round"/>
<path fill-rule="evenodd" clip-rule="evenodd" d="M134.659 116.423C134.632 116.423 134.604 116.34 134.632 116.34C134.826 116.34 135.297 116.312 135.269 116.644C135.186 116.783 135.186 116.949 135.02 116.976C134.992 116.976 134.992 116.949 134.992 116.949C135.048 116.893 135.186 116.755 135.186 116.672C135.131 116.423 134.881 116.34 134.659 116.423Z" fill="#92D050" stroke="#92D050" stroke-width="2" stroke-miterlimit="3.8637" stroke-linejoin="round"/>
<path fill-rule="evenodd" clip-rule="evenodd" d="M134.688 117.64C134.688 117.557 134.688 117.502 134.715 117.447H134.743H134.771V117.474C134.743 117.53 134.743 117.613 134.743 117.668C134.743 117.64 134.715 117.64 134.688 117.64Z" fill="#92D050" stroke="#92D050" stroke-width="2" stroke-miterlimit="3.8637" stroke-linejoin="round"/>
<path fill-rule="evenodd" clip-rule="evenodd" d="M134.632 118.221V118.11C134.66 118.055 134.66 118.055 134.687 118.027H134.715C134.715 118.083 134.715 118.11 134.715 118.166C134.715 118.193 134.66 118.221 134.632 118.221Z" fill="#92D050" stroke="#92D050" stroke-width="2" stroke-miterlimit="3.8637" stroke-linejoin="round"/>
<path fill-rule="evenodd" clip-rule="evenodd" d="M128.613 119.908C128.419 119.797 128.419 119.327 128.363 119.134C128.336 119.051 128.308 118.968 128.28 118.857C128.28 118.802 128.363 118.58 128.447 118.58L128.474 118.608C128.447 118.636 128.363 118.857 128.363 118.857C128.363 119.244 128.53 119.548 128.613 119.908Z" fill="#92D050" stroke="#92D050" stroke-width="2" stroke-miterlimit="3.8637" stroke-linejoin="round"/>
<path fill-rule="evenodd" clip-rule="evenodd" d="M129.778 120.516C129.584 120.516 129.417 120.461 129.251 120.406V120.378H129.279C129.362 120.406 129.722 120.461 129.778 120.489V120.516V120.516Z" fill="#92D050" stroke="#92D050" stroke-width="2" stroke-miterlimit="3.8637" stroke-linejoin="round"/>
<path fill-rule="evenodd" clip-rule="evenodd" d="M130.555 121.07L130.527 121.125C130.388 121.07 130.25 121.014 130.194 120.876V120.848H130.25C130.305 120.876 130.333 120.959 130.361 121.014C130.416 121.014 130.472 121.042 130.555 121.07Z" fill="#92D050" stroke="#92D050" stroke-width="2" stroke-miterlimit="3.8637" stroke-linejoin="round"/>
<path fill-rule="evenodd" clip-rule="evenodd" d="M132.857 121.374C132.857 121.484 132.857 121.54 132.774 121.65H132.718C132.552 121.567 132.524 121.567 132.358 121.595C132.302 121.595 132.247 121.567 132.191 121.54C132.108 121.512 131.748 121.54 131.664 121.54C131.637 121.512 131.581 121.485 131.553 121.457C131.553 121.402 131.553 121.319 131.553 121.263C131.526 121.236 130.805 121.263 130.721 121.236L130.666 121.18V121.125L130.694 121.097C130.749 121.125 131.359 121.18 131.47 121.208C131.498 121.18 131.553 121.18 131.581 121.153C131.609 121.236 131.637 121.291 131.692 121.374C131.942 121.429 132.607 121.485 132.829 121.429L132.857 121.374Z" fill="#92D050" stroke="#92D050" stroke-width="2" stroke-miterlimit="3.8637" stroke-linejoin="round"/>
<path fill-rule="evenodd" clip-rule="evenodd" d="M169.463 122.618L169.491 122.563C169.518 122.563 169.602 122.508 169.629 122.508L169.657 122.535C169.629 122.535 169.491 122.618 169.463 122.618Z" fill="#92D050" stroke="#92D050" stroke-width="2" stroke-miterlimit="3.8637" stroke-linejoin="round"/>
<path fill-rule="evenodd" clip-rule="evenodd" d="M179.003 122.093C178.948 122.148 178.92 122.231 178.865 122.287C178.865 122.397 178.865 122.508 178.892 122.619V122.646H178.865L178.837 122.619C178.837 122.425 178.837 122.259 178.837 122.065H178.865C178.92 122.038 178.948 122.093 179.003 122.093Z" fill="#92D050" stroke="#92D050" stroke-width="2" stroke-miterlimit="3.8637" stroke-linejoin="round"/>
<path fill-rule="evenodd" clip-rule="evenodd" d="M169.713 122.536V122.48C169.768 122.48 169.824 122.508 169.852 122.563L169.879 122.619V122.674L169.852 122.701C169.824 122.674 169.824 122.619 169.796 122.591C169.768 122.563 169.741 122.563 169.713 122.536Z" fill="#92D050" stroke="#92D050" stroke-width="2" stroke-miterlimit="3.8637" stroke-linejoin="round"/>
<path fill-rule="evenodd" clip-rule="evenodd" d="M173.54 123.918L173.568 123.891C173.623 123.974 173.651 124.057 173.706 124.14H173.651L173.54 123.918Z" fill="#92D050" stroke="#92D050" stroke-width="2" stroke-miterlimit="3.8637" stroke-linejoin="round"/>
<path fill-rule="evenodd" clip-rule="evenodd" d="M174.345 124.084V124.057C174.483 123.974 174.567 124.278 174.622 124.333C174.539 124.25 174.456 124.14 174.345 124.084Z" fill="#92D050" stroke="#92D050" stroke-width="2" stroke-miterlimit="3.8637" stroke-linejoin="round"/>
<path fill-rule="evenodd" clip-rule="evenodd" d="M177.783 124.167L177.838 124.195C177.811 124.25 177.783 124.306 177.755 124.361C177.755 124.333 177.728 124.223 177.728 124.195L177.783 124.167Z" fill="#92D050" stroke="#92D050" stroke-width="2" stroke-miterlimit="3.8637" stroke-linejoin="round"/>
<path fill-rule="evenodd" clip-rule="evenodd" d="M183.052 124.61L183.163 124.555C183.218 124.61 183.218 124.61 183.274 124.61C183.329 124.499 183.662 124.306 183.607 124.167L183.579 124.14C183.551 124.14 183.496 124.14 183.468 124.14L183.44 124.112V124.084L183.468 124.057C183.551 124.029 183.69 124.112 183.745 124.195L183.329 124.72H183.302C183.246 124.72 183.218 124.693 183.163 124.665C183.052 124.638 183.024 124.72 183.052 124.61Z" fill="#92D050" stroke="#92D050" stroke-width="2" stroke-miterlimit="3.8637" stroke-linejoin="round"/>
<path fill-rule="evenodd" clip-rule="evenodd" d="M182.498 124.776C182.442 124.776 182.137 124.776 182.109 124.72L182.137 124.693C182.22 124.693 182.442 124.665 182.498 124.776Z" fill="#92D050" stroke="#92D050" stroke-width="2" stroke-miterlimit="3.8637" stroke-linejoin="round"/>
<path fill-rule="evenodd" clip-rule="evenodd" d="M182.859 124.776L182.775 124.748C182.637 124.748 182.415 125.025 182.248 124.969L182.221 124.914C182.387 124.859 182.637 124.693 182.72 124.665C182.775 124.665 182.831 124.693 182.859 124.72C182.859 124.72 182.997 124.693 182.942 124.72L182.859 124.776Z" fill="#92D050" stroke="#92D050" stroke-width="2" stroke-miterlimit="3.8637" stroke-linejoin="round"/>
<path fill-rule="evenodd" clip-rule="evenodd" d="M174.761 124.555V124.472L174.705 124.389L174.761 124.361C174.789 124.416 174.872 124.499 174.844 124.555C174.733 124.665 174.511 124.693 174.373 124.693C173.846 124.693 173.291 125.301 172.736 125.108C173.291 125.052 173.707 124.886 174.234 124.693C174.4 124.61 174.594 124.665 174.761 124.555Z" fill="#92D050" stroke="#92D050" stroke-width="2" stroke-miterlimit="3.8637" stroke-linejoin="round"/>
<path fill-rule="evenodd" clip-rule="evenodd" d="M172.32 125.218L172.209 125.246C172.042 125.218 171.904 125.163 171.765 125.108C171.21 124.914 170.683 124.693 170.157 124.472C169.99 124.416 169.796 124.389 169.657 124.333C169.408 124.223 169.297 123.974 169.075 123.835C169.047 123.835 169.047 123.78 169.02 123.78C169.047 123.642 169.103 123.587 169.158 123.476L169.186 123.448C169.186 124.14 169.519 124.195 170.046 124.416C170.739 124.693 171.515 125.08 172.236 125.218C172.292 125.191 172.32 125.191 172.32 125.218Z" fill="#92D050" stroke="#92D050" stroke-width="2" stroke-miterlimit="3.8637" stroke-linejoin="round"/>
<path fill-rule="evenodd" clip-rule="evenodd" d="M177.562 125.052L177.728 125.412C177.645 125.357 177.562 125.329 177.478 125.301C177.451 125.274 177.451 125.246 177.423 125.191C177.451 125.163 177.534 124.942 177.562 124.942H177.589C177.589 124.969 177.589 124.997 177.562 125.052Z" fill="#92D050" stroke="#92D050" stroke-width="2" stroke-miterlimit="3.8637" stroke-linejoin="round"/>
<path fill-rule="evenodd" clip-rule="evenodd" d="M181.61 125.052L181.638 125.08L181.61 125.108V125.135L181.555 125.163C181.416 125.274 181.416 125.384 181.333 125.495C181.25 125.606 181 125.744 180.889 125.854L180.861 125.827C180.917 125.661 181.194 125.633 181.277 125.523C181.361 125.384 181.416 125.218 181.499 125.08L181.61 125.052Z" fill="#92D050" stroke="#92D050" stroke-width="2" stroke-miterlimit="3.8637" stroke-linejoin="round"/>
<path fill-rule="evenodd" clip-rule="evenodd" d="M180.834 126.767L180.806 126.878L180.723 126.933C180.584 126.905 180.418 126.712 180.279 126.656C180.196 126.629 180.085 126.601 180.002 126.546C179.918 126.491 179.918 126.38 179.807 126.352C179.641 126.408 179.53 126.242 179.419 126.159C179.281 126.159 178.726 126.352 178.476 126.352C178.227 126.242 178.144 126.103 178.033 125.882C178.005 125.827 178.005 125.771 177.977 125.716C177.977 125.716 177.894 125.633 177.922 125.633L178.005 125.661C178.116 125.993 178.282 126.076 178.504 126.297C178.809 126.408 179.225 125.965 179.502 126.103C179.558 126.159 179.586 126.214 179.641 126.242C179.724 126.297 179.807 126.269 179.891 126.325C179.946 126.352 180.528 126.767 180.612 126.85C180.639 126.878 180.695 126.933 180.723 126.933C180.75 126.878 180.778 126.822 180.834 126.767Z" fill="#92D050" stroke="#92D050" stroke-width="2" stroke-miterlimit="3.8637" stroke-linejoin="round"/>
<path fill-rule="evenodd" clip-rule="evenodd" d="M142.563 137.858C142.563 137.885 142.563 137.913 142.563 137.941C142.563 137.941 142.535 137.941 142.535 137.913V137.885V137.858H142.563Z" fill="#92D050" stroke="#92D050" stroke-width="2" stroke-miterlimit="3.8637" stroke-linejoin="round"/>
<path fill-rule="evenodd" clip-rule="evenodd" d="M182.803 138.632V138.577L182.941 138.521H182.997C183.052 138.577 182.83 138.632 182.803 138.632Z" fill="#92D050" stroke="#92D050" stroke-width="2" stroke-miterlimit="3.8637" stroke-linejoin="round"/>
<path fill-rule="evenodd" clip-rule="evenodd" d="M144.145 138.715L144.089 138.687L144.006 138.549V138.521H144.034C144.117 138.577 144.117 138.66 144.145 138.715Z" fill="#92D050" stroke="#92D050" stroke-width="2" stroke-miterlimit="3.8637" stroke-linejoin="round"/>
<path fill-rule="evenodd" clip-rule="evenodd" d="M144.172 138.826H144.2C144.255 138.881 144.338 138.992 144.311 139.075H144.283C144.227 138.936 144.311 138.964 144.172 138.826Z" fill="#92D050" stroke="#92D050" stroke-width="2" stroke-miterlimit="3.8637" stroke-linejoin="round"/>
<path fill-rule="evenodd" clip-rule="evenodd" d="M180.197 139.324L180.141 139.296C180.114 139.213 180.114 139.102 180.169 139.019L180.28 138.964V138.992L180.224 139.019L180.169 139.102C180.197 139.158 180.169 139.241 180.197 139.324Z" fill="#92D050" stroke="#92D050" stroke-width="2" stroke-miterlimit="3.8637" stroke-linejoin="round"/>
<path fill-rule="evenodd" clip-rule="evenodd" d="M180.279 139.6C180.307 139.711 180.307 139.821 180.335 139.932H180.307C180.279 139.877 180.251 139.821 180.224 139.738C180.224 139.711 180.251 139.655 180.279 139.6Z" fill="#92D050" stroke="#92D050" stroke-width="2" stroke-miterlimit="3.8637" stroke-linejoin="round"/>
<path fill-rule="evenodd" clip-rule="evenodd" d="M180.39 140.43L180.335 140.375C180.335 140.319 180.307 140.264 180.335 140.181C180.362 140.264 180.362 140.347 180.39 140.43Z" fill="#92D050" stroke="#92D050" stroke-width="2" stroke-miterlimit="3.8637" stroke-linejoin="round"/>
<path fill-rule="evenodd" clip-rule="evenodd" d="M144.726 139.766C144.92 140.098 144.892 140.375 144.948 140.458H144.92L144.864 140.43C144.837 140.347 144.837 140.236 144.809 140.153C144.754 140.015 144.698 139.904 144.643 139.766H144.726Z" fill="#92D050" stroke="#92D050" stroke-width="2" stroke-miterlimit="3.8637" stroke-linejoin="round"/>
<path fill-rule="evenodd" clip-rule="evenodd" d="M145.392 140.817H145.364C145.336 140.762 145.308 140.679 145.253 140.651L145.308 140.624C145.364 140.679 145.392 140.762 145.392 140.817Z" fill="#92D050" stroke="#92D050" stroke-width="2" stroke-miterlimit="3.8637" stroke-linejoin="round"/>
<path fill-rule="evenodd" clip-rule="evenodd" d="M145.474 140.9L145.558 141.121H145.502L145.419 140.9H145.474Z" fill="#92D050" stroke="#92D050" stroke-width="2" stroke-miterlimit="3.8637" stroke-linejoin="round"/>
<path fill-rule="evenodd" clip-rule="evenodd" d="M180.695 141.232C180.612 141.232 180.612 141.149 180.418 141.177C180.362 141.177 180.307 141.177 180.224 141.149C180.307 141.011 180.335 140.845 180.335 140.679C180.39 140.817 180.445 140.983 180.529 141.094L180.501 141.121C180.584 141.149 180.695 141.204 180.695 141.232Z" fill="#92D050" stroke="#92D050" stroke-width="2" stroke-miterlimit="3.8637" stroke-linejoin="round"/>
<path fill-rule="evenodd" clip-rule="evenodd" d="M145.725 141.287C145.78 141.26 145.836 141.287 145.863 141.343C145.863 141.343 145.863 141.37 145.836 141.37C145.808 141.37 145.78 141.315 145.725 141.287Z" fill="#92D050" stroke="#92D050" stroke-width="2" stroke-miterlimit="3.8637" stroke-linejoin="round"/>
<path fill-rule="evenodd" clip-rule="evenodd" d="M183.219 141.398C183.163 141.398 182.72 141.37 182.72 141.37V141.343L182.747 141.315C182.886 141.315 183.025 141.315 183.163 141.315L183.219 141.398Z" fill="#92D050" stroke="#92D050" stroke-width="2" stroke-miterlimit="3.8637" stroke-linejoin="round"/>
<path fill-rule="evenodd" clip-rule="evenodd" d="M181.999 141.647L181.943 141.73C181.694 141.923 181.416 141.702 181.222 141.536L181.167 141.481C181.111 141.426 181.028 141.398 180.973 141.315C181.056 141.343 181.139 141.398 181.222 141.453C181.333 141.564 181.666 141.84 181.86 141.73C181.888 141.73 181.943 141.675 181.999 141.647Z" fill="#92D050" stroke="#92D050" stroke-width="2" stroke-miterlimit="3.8637" stroke-linejoin="round"/>
<path fill-rule="evenodd" clip-rule="evenodd" d="M146.695 141.536C146.779 141.536 146.834 141.647 146.889 141.702C146.889 141.702 147 141.813 146.973 141.785C146.834 141.757 146.751 141.674 146.695 141.536Z" fill="#92D050" stroke="#92D050" stroke-width="2" stroke-miterlimit="3.8637" stroke-linejoin="round"/>
<path fill-rule="evenodd" clip-rule="evenodd" d="M183.995 141.979C183.801 141.923 183.663 141.702 183.552 141.564C183.885 141.84 183.801 141.896 184.273 141.813C184.356 141.785 184.495 141.73 184.606 141.73C184.661 141.73 185.077 141.84 185.16 141.896C185.271 141.951 185.354 142.034 185.438 142.089C185.521 142.145 185.632 142.172 185.743 142.228C185.548 142.394 185.243 142.006 185.022 141.979C184.911 141.979 184.8 141.868 184.661 141.84C184.578 141.813 184.106 141.951 183.995 141.979Z" fill="#92D050" stroke="#92D050" stroke-width="2" stroke-miterlimit="3.8637" stroke-linejoin="round"/>
<path fill-rule="evenodd" clip-rule="evenodd" d="M147.61 142.504H147.555C147.582 142.449 147.582 142.366 147.582 142.311C147.555 142.228 147.471 142.2 147.416 142.145H147.471C147.666 142.228 147.666 142.366 147.61 142.504Z" fill="#92D050" stroke="#92D050" stroke-width="2" stroke-miterlimit="3.8637" stroke-linejoin="round"/>
<path fill-rule="evenodd" clip-rule="evenodd" d="M186.63 142.836C186.685 142.836 186.741 142.864 186.769 142.891L186.796 142.974H186.769C186.685 142.947 186.658 142.919 186.63 142.836Z" fill="#92D050" stroke="#92D050" stroke-width="2" stroke-miterlimit="3.8637" stroke-linejoin="round"/>
<path fill-rule="evenodd" clip-rule="evenodd" d="M143.09 143.362C143.006 143.362 142.784 143.306 142.784 143.279C142.757 143.251 142.757 143.196 142.784 143.168H142.868C142.923 143.223 143.006 143.306 143.09 143.362Z" fill="#92D050" stroke="#92D050" stroke-width="2" stroke-miterlimit="3.8637" stroke-linejoin="round"/>
<path fill-rule="evenodd" clip-rule="evenodd" d="M146.363 143.583L146.335 143.555C146.612 143.472 146.723 143.14 146.973 143.03C147.084 142.974 147.638 142.836 147.527 142.587L147.583 142.642L147.555 142.753C147.389 142.974 147.333 142.891 147.111 142.974C146.945 143.057 146.806 143.196 146.668 143.334C146.668 143.417 146.474 143.583 146.363 143.583Z" fill="#92D050" stroke="#92D050" stroke-width="2" stroke-miterlimit="3.8637" stroke-linejoin="round"/>
<path fill-rule="evenodd" clip-rule="evenodd" d="M146.307 143.666C146.362 143.693 146.39 143.721 146.418 143.749L146.445 143.804H146.418C146.362 143.749 146.334 143.749 146.307 143.666Z" fill="#92D050" stroke="#92D050" stroke-width="2" stroke-miterlimit="3.8637" stroke-linejoin="round"/>
<path fill-rule="evenodd" clip-rule="evenodd" d="M186.962 143.583L187.018 143.611C187.046 143.666 187.073 143.749 187.101 143.804V143.832H187.073L187.045 143.804C187.045 143.721 186.99 143.666 186.935 143.611L186.962 143.583Z" fill="#92D050" stroke="#92D050" stroke-width="2" stroke-miterlimit="3.8637" stroke-linejoin="round"/>
<path fill-rule="evenodd" clip-rule="evenodd" d="M187.296 144.108C187.435 144.136 187.518 144.219 187.518 144.385C187.407 144.412 187.296 144.164 187.296 144.108Z" fill="#92D050" stroke="#92D050" stroke-width="2" stroke-miterlimit="3.8637" stroke-linejoin="round"/>
<path fill-rule="evenodd" clip-rule="evenodd" d="M144.588 145.076V145.104C144.588 145.132 144.561 145.132 144.533 145.132C144.477 145.076 144.422 144.993 144.422 144.91L144.45 144.883H144.477L144.588 145.076Z" fill="#92D050" stroke="#92D050" stroke-width="2" stroke-miterlimit="3.8637" stroke-linejoin="round"/>
<path fill-rule="evenodd" clip-rule="evenodd" d="M144.727 145.159C144.782 145.187 144.837 145.298 144.81 145.353C144.782 145.325 144.754 145.215 144.727 145.159Z" fill="#92D050" stroke="#92D050" stroke-width="2" stroke-miterlimit="3.8637" stroke-linejoin="round"/>
<path fill-rule="evenodd" clip-rule="evenodd" d="M145.669 145.989C145.558 145.961 145.253 145.74 145.197 145.629L145.225 145.602C145.391 145.712 145.475 145.823 145.669 145.851L145.724 145.795C145.807 145.63 145.946 145.076 145.974 144.883C145.974 144.827 145.974 144.744 145.974 144.689C146.001 144.579 146.085 144.496 146.085 144.385C146.085 144.274 146.057 144.191 146.085 144.081C146.112 143.998 146.196 143.942 146.251 143.887L146.307 143.915C146.112 144.053 146.14 144.164 146.14 144.357C146.14 144.468 146.057 144.523 146.029 144.634C146.029 144.938 145.974 145.906 145.669 145.989Z" fill="#92D050" stroke="#92D050" stroke-width="2" stroke-miterlimit="3.8637" stroke-linejoin="round"/>
<path fill-rule="evenodd" clip-rule="evenodd" d="M137.516 148.423V148.395C137.543 148.34 137.627 148.174 137.682 148.146C137.71 148.146 137.737 148.146 137.793 148.174L137.821 148.229C137.765 148.285 137.599 148.423 137.516 148.423Z" fill="#92D050" stroke="#92D050" stroke-width="2" stroke-miterlimit="3.8637" stroke-linejoin="round"/>
<path fill-rule="evenodd" clip-rule="evenodd" d="M120.737 148.257C120.82 148.312 120.876 148.312 120.959 148.368V148.423C120.931 148.451 120.904 148.451 120.876 148.451C120.82 148.423 120.765 148.368 120.737 148.312C120.737 148.312 120.737 148.285 120.737 148.257Z" fill="#92D050" stroke="#92D050" stroke-width="2" stroke-miterlimit="3.8637" stroke-linejoin="round"/>
<path fill-rule="evenodd" clip-rule="evenodd" d="M121.182 148.506V148.451C121.265 148.423 121.32 148.395 121.404 148.395L121.431 148.285H121.459C121.514 148.589 121.459 149.197 121.071 149.197C120.987 149.142 120.904 148.921 120.904 148.838L120.932 148.81H120.96C121.015 148.893 121.071 149.142 121.209 149.087C121.237 149.059 121.293 149.031 121.293 149.004C121.348 148.838 121.431 148.644 121.404 148.478C121.404 148.451 121.376 148.451 121.348 148.451H121.32C121.293 148.478 121.265 148.506 121.209 148.534L121.182 148.506Z" fill="#92D050" stroke="#92D050" stroke-width="2" stroke-miterlimit="3.8637" stroke-linejoin="round"/>
<path fill-rule="evenodd" clip-rule="evenodd" d="M130.389 164.132V164.215C130.361 164.243 130.333 164.271 130.305 164.298C130.195 164.243 130.305 164.132 130.389 164.132Z" fill="#92D050" stroke="#92D050" stroke-width="2" stroke-miterlimit="3.8637" stroke-linejoin="round"/>
<path fill-rule="evenodd" clip-rule="evenodd" d="M130.083 164.575C130.138 164.658 130.138 164.741 130.166 164.824L130.138 164.851L130.111 164.879C130.028 164.824 129.972 164.741 129.944 164.685C129.972 164.63 130.028 164.602 130.083 164.575Z" fill="#92D050" stroke="#92D050" stroke-width="2" stroke-miterlimit="3.8637" stroke-linejoin="round"/>
<path fill-rule="evenodd" clip-rule="evenodd" d="M132.024 164.658C132.024 164.768 132.024 164.907 131.969 164.99L131.941 165.017H131.913C131.886 164.934 131.913 164.851 131.886 164.768C131.886 164.741 131.913 164.685 131.941 164.658C131.969 164.658 131.997 164.658 132.024 164.658Z" fill="#92D050" stroke="#92D050" stroke-width="2" stroke-miterlimit="3.8637" stroke-linejoin="round"/>
<path fill-rule="evenodd" clip-rule="evenodd" d="M130.36 165.156C130.277 165.183 130.249 165.128 130.222 165.045L130.249 165.017H130.277C130.333 165.073 130.333 165.1 130.36 165.156Z" fill="#92D050" stroke="#92D050" stroke-width="2" stroke-miterlimit="3.8637" stroke-linejoin="round"/>
<path fill-rule="evenodd" clip-rule="evenodd" d="M130.583 165.46C130.833 165.543 130.777 165.875 131.359 165.57C131.554 165.487 131.637 165.322 131.831 165.239C131.886 165.211 131.97 165.073 131.997 165.128V165.183C131.997 165.239 131.942 165.266 131.914 165.294C131.886 165.322 131.831 165.322 131.803 165.349C131.637 165.405 131.498 165.57 131.359 165.681L131.332 165.709C131.138 165.764 130.555 165.847 130.583 165.46Z" fill="#92D050" stroke="#92D050" stroke-width="2" stroke-miterlimit="3.8637" stroke-linejoin="round"/>
<path fill-rule="evenodd" clip-rule="evenodd" d="M135.131 114.128V114.017C135.159 113.962 135.159 113.962 135.186 113.934H135.214C135.214 113.989 135.214 114.017 135.214 114.072C135.186 114.1 135.159 114.128 135.131 114.128Z" fill="#92D050" stroke="#92D050" stroke-width="2" stroke-miterlimit="3.8637" stroke-linejoin="round"/>
</g>
<defs>
<clipPath id="clip0">
<rect width="187" height="166" fill="white" transform="translate(0.87793 0.123657)"/>
</clipPath>
</defs>
</svg>
