<svg width="165" height="77" viewBox="0 0 165 77" fill="none" xmlns="http://www.w3.org/2000/svg">
<path d="M69.921 40.4274L69.434 42.5314C69.05 42.9824 67.973 44.1504 67.389 44.3474L66.163 44.3944L65.085 43.1954C64.66 43.3984 63.939 43.5474 63.469 43.4624C62.925 42.4084 61.924 41.3304 61.011 40.5914L61.236 40.0944L60.771 39.0374L59.935 39.2254C59.589 39.0734 58.6 38.7284 58.21 38.8534L56.901 39.0664L55.717 41.1094L53.71 41.4814L52.489 40.7804C50.529 41.3444 48.849 41.8614 46.853 42.1264L46.248 41.3744C45.976 41.7914 44.979 42.2734 44.542 42.4424C44.542 42.4424 41.954 43.5084 41.526 43.4454C40.563 42.2724 38.279 42.5164 37.403 43.7474C36.771 43.9774 35.067 43.6374 34.453 43.4764C33.793 44.0924 33.072 44.3594 32.162 44.5384C30.716 43.8474 29.779 42.4864 29.349 40.9704C28.775 40.4114 27.529 39.8644 26.712 39.9234L25.953 37.3684C25.676 37.0744 25.015 36.8844 24.622 36.9414L24.209 36.3564L24.693 34.7804C24.293 33.4814 21.819 30.8844 20.417 30.3114C20.059 29.3504 19.216 28.2834 18.435 27.6334L18.332 26.5244C17.106 25.1204 15.424 24.7104 14.077 23.0254L14.116 21.6124L13.787 21.1104L11.59 20.8984C11.024 20.0344 10.298 19.8684 9.685 19.2474C9.171 18.7264 8.811 17.9974 8.308 17.4624C7.107 16.1824 4.754 15.0714 3.062 14.4934C1.825 13.0324 1.4 11.4314 0 10.0454L0.00699997 9.10339C0.116 8.98739 0.905001 8.1744 0.936001 8.1134C1.169 7.6314 1.308 6.66339 1.813 6.37539C2.621 6.24639 5.376 5.9064 5.376 5.9064L5.565 6.62939C6.348 7.06639 10.343 9.17941 11.216 9.17141L12.461 8.88641C13.299 8.69441 14.422 8.67239 15.28 8.78939L15.703 8.1834C17.107 7.7194 18.298 8.93439 19.391 9.65539L20.256 9.2174L19.849 8.10641C20.45 8.20841 21.614 7.45641 22.026 7.09741L25.921 6.99041C26.247 6.72341 26.479 6.4824 26.597 6.0534C28.035 5.6684 29.31 5.51641 30.144 4.27941L30.73 4.1444C31.861 4.8184 35.275 4.3604 36.376 3.9114C36.441 3.8844 37.641 2.9194 37.776 2.8124C38.652 2.5684 38.989 2.95439 39.72 3.04839C40.697 3.17439 43.305 3.43539 43.305 3.43539C43.4 3.43339 44.324 3.20241 44.474 3.16641C45.039 2.23941 45.647 1.81241 46.493 1.10241C47.473 0.99941 48.488 0.840398 49.471 0.790398C50.129 0.757398 50.66 0.963391 51.362 0.776391C52.002 -0.752609 54.191 0.3584 55.088 0.8854L57.065 0.677392C57.706 1.48939 58.444 2.3004 59.022 3.1574C59.622 4.0464 60.177 5.22041 60.864 6.02441C62.108 7.48041 63.702 8.6974 64.98 10.1274C65.605 10.8254 65.862 11.8234 66.635 12.4394C66.359 14.3424 67.941 14.6074 68.279 15.9704L69.861 16.5634C70.083 16.6384 70.337 16.9524 70.385 17.1764C70.118 17.2384 69.669 17.4884 69.547 17.7534C69.73 18.6694 70.607 19.2664 70.978 20.0634C71.289 20.7284 71.194 21.7624 71.85 22.8684L72.348 23.2044C72.781 25.7674 74.316 26.2954 74.685 27.4884L74.375 28.0684C73.347 28.3404 70.966 31.6034 70.952 32.1754L71.583 33.6484L71.266 35.1164L68.808 36.2924C69.141 36.7774 68.869 37.6584 68.518 38.0634C68.631 38.6134 69.627 39.2794 69.921 40.4274Z" fill="#92D050"/>
<path d="M79.3898 45.4744L79.8078 45.5834L80.1718 46.1634L80.1188 46.8554L79.9518 47.0224L79.2828 46.7484C79.1438 46.5504 79.0488 46.2404 79.0308 46.0014C79.1028 45.8624 79.2588 45.5644 79.3898 45.4744Z" fill="#92D050"/>
<path d="M82.437 48.9524L82.798 48.6754L84.412 48.5583L85.141 49.4403L85.196 49.8293L84.728 50.9663L83.417 50.2243L82.437 48.9524Z" fill="#92D050"/>
<path d="M130.133 71.4134C129.565 71.9474 127.785 72.5574 127.507 72.7044C127.086 72.9274 126.468 73.0424 125.998 73.1964L124.214 73.2154L123.771 72.8254L122.542 73.3174L122.071 72.6774C122.333 71.7424 121.098 69.7464 120.557 69.0954L119.221 68.5624C118.178 68.8994 114.653 68.8624 113.902 68.0924L113.378 67.1474L113.826 66.5944C114.057 67.2394 114.801 66.8774 114.801 66.8774L115.082 66.4064L114.527 65.7954C114.097 66.0314 112.925 66.5114 112.408 66.3654L111.768 65.9744C111.401 66.2234 110.09 66.9284 109.618 66.7104C109.079 67.1384 107.357 68.2654 106.601 68.1074L106.267 67.9114L105.344 68.4614L104.316 68.3164L102.488 66.1454L102.238 66.1714C99.0552 64.9734 100.134 61.0394 97.7882 60.0224L97.4192 61.2394L96.1302 62.2304L95.6892 61.7284L95.3922 60.0644C94.6962 59.9234 94.3622 59.3664 93.9232 58.8644L93.8722 57.8394C93.1722 57.5124 92.3722 57.2114 91.7062 56.8284C91.5922 56.7634 91.4082 56.4274 91.2912 56.3544C90.4952 55.8634 89.6002 55.7304 89.0442 54.8734C89.0652 54.1134 88.4512 52.9234 87.9742 52.3724L87.9512 51.6794C88.9902 51.1024 89.3512 50.2554 90.0812 49.4194C90.1642 49.3234 92.0882 47.7554 92.1522 47.7134C93.8732 46.5864 95.9622 46.9184 97.9232 46.6384C99.1112 46.4674 99.4452 45.8374 100.354 45.3764C101.059 45.0194 105.262 43.3324 106.102 43.3294C106.16 43.3294 107.331 43.6934 107.435 43.7254C107.757 43.7024 108.183 43.2644 108.331 43.0094C108.822 43.0254 111.634 42.9644 111.839 43.3054L112.285 42.9474C112.285 42.9474 113.947 42.6314 114.542 42.7104C115.144 43.0764 115.798 43.4264 116.375 43.8274C116.503 43.9164 117.649 44.4404 117.789 44.8054L117.591 45.4134C117.754 45.7724 120.072 47.1074 120.479 46.9794L120.264 45.3994L120.378 45.1224L120.796 45.1524L121.789 46.9034C122.121 47.1194 122.689 47.4664 123.095 47.3254L123.71 46.7744L125.155 47.3624L125.733 48.5854C127.674 48.1244 127.813 50.0654 129.011 50.3744C129.11 50.6714 129.461 51.2644 129.786 51.3764L130.317 50.9074C130.733 50.7534 131.627 51.1414 131.957 51.3584C133.151 50.5874 134.311 51.6844 135.38 52.1494C135.909 52.3794 136.545 52.5114 137.105 52.6834L138.024 52.4654L138.887 52.8294L139.774 53.7204L141.37 52.1484L142.063 52.4834C142.396 52.2574 143.104 52.2924 143.457 52.4344L143.846 52.7684C144.051 53.1194 143.929 53.8654 143.784 54.2084L144.117 54.4874L144.786 54.4894L145.568 53.9114C146.098 54.6154 146.803 55.6984 147.005 56.5784C147.788 56.3584 147.898 56.2934 148.789 56.5294L149.205 56.9474L149.34 57.5024C148.603 59.0994 146.25 59.5714 145.622 60.7574C149.634 61.3334 148.721 59.6194 151.313 58.6744L151.646 59.0354L151.448 59.5604L151.576 59.9714L152.368 59.9514L153.258 60.2604L153.451 60.5664L153.198 60.8704L152.445 61.3394L152.637 61.6724L154.395 61.3184L156.062 62.1564L156.314 61.9634C157.458 62.9744 157.702 65.0354 159.701 65.0254L159.982 64.3344C160.378 64.2984 161.027 64.6234 161.317 64.8654C161.78 65.7574 162.177 66.5974 162.981 67.2544L163.333 69.8334C163.297 70.3914 161.954 72.8144 161.62 73.3184C161.052 73.3544 159.098 73.3544 158.667 72.8914C157.939 73.3884 156.693 72.4304 155.769 72.6584L155.187 72.2964C155.085 72.3494 154.05 72.9004 154.014 72.9014C150.013 72.9934 146.108 73.0334 142.112 72.8524C141.448 72.8224 141.034 72.3944 140.528 72.0134C139.761 72.0364 139.263 72.3874 138.827 72.4504C138.153 72.5464 136.169 72.8914 136.093 72.9364L135.063 72.6824C133.211 73.2904 131.649 72.3094 130.133 71.4134Z" fill="#92D050"/>
<path d="M162.308 74.9004C162.583 74.7614 163.496 74.3684 163.815 74.4624L163.674 74.8774L164.088 75.6004L163.389 76.0404L162.416 75.3984L162.308 74.9004Z" fill="#92D050"/>
</svg>
