<svg width="318" height="220" viewBox="0 0 318 220" fill="none" xmlns="http://www.w3.org/2000/svg">
<path fill-rule="evenodd" clip-rule="evenodd" d="M1.38668 1.59032C1.06832 1.67723 0.836887 1.99559 1.01071 2.45848C1.18405 2.92137 1.5605 3.15282 1.61812 2.71873C1.67623 2.28465 1.58932 1.87986 2.457 2.16893C3.32516 2.45848 3.67233 1.99559 2.91989 1.61961C2.16794 1.24315 1.70504 1.5039 1.38668 1.59032Z" fill="#92D050" stroke="#92D050" stroke-width="1.5591" stroke-miterlimit="3.86369" stroke-linejoin="round"/>
<path fill-rule="evenodd" clip-rule="evenodd" d="M5.49448 2.40034C4.88706 2.68989 5.17662 3.18159 5.87095 2.7768C6.56529 2.37153 6.81039 1.96674 7.08578 2.40034C7.36166 2.83442 7.94027 3.45747 8.05599 3.63081C8.17171 3.80464 8.80794 4.05122 8.46078 3.42817C8.11361 2.80561 7.52134 2.05317 7.24595 1.82172C6.97007 1.59027 6.62289 1.56146 6.33383 1.85101C6.04428 2.14008 6.10239 2.11128 5.49448 2.40034Z" fill="#92D050" stroke="#92D050" stroke-width="1.5591" stroke-miterlimit="3.86369" stroke-linejoin="round"/>
<path fill-rule="evenodd" clip-rule="evenodd" d="M8.95247 4.18065C8.75032 4.38329 8.66341 4.46972 9.01058 4.875C9.35775 5.27979 9.76254 5.80078 10.0233 5.62695C10.2835 5.45361 10.0521 5.10644 9.73374 4.81689C9.41537 4.52783 9.1551 3.97802 8.95247 4.18065Z" fill="#92D050" stroke="#92D050" stroke-width="1.5591" stroke-miterlimit="3.86369" stroke-linejoin="round"/>
<path fill-rule="evenodd" clip-rule="evenodd" d="M10.6309 5.80079C10.4282 5.97413 10.5728 6.23487 10.9488 6.52393C11.3252 6.81348 12.1929 7.59424 12.5113 7.65235C12.8296 7.70997 13.2344 7.62354 13.1475 8.02833C13.0611 8.4336 12.9453 9.56152 13.1187 9.82178C13.2925 10.0825 13.6397 10.9351 13.3501 11.0371C13.0611 11.1392 12.8296 11.0371 12.6558 10.9502C12.4824 10.8633 12.3086 10.8482 12.2798 11.0659C12.251 11.2837 11.8169 11.5732 12.6846 11.6597C13.5528 11.7466 14.3047 11.7617 14.0445 11.168C13.7842 10.5742 13.437 9.3589 13.6973 8.63575C13.9575 7.9126 13.9868 7.33399 13.3501 7.13136C12.7139 6.92872 11.1807 5.94532 10.9487 5.80079C10.7178 5.65626 10.8335 5.62696 10.6309 5.80079Z" fill="#92D050" stroke="#92D050" stroke-width="1.5591" stroke-miterlimit="3.86369" stroke-linejoin="round"/>
<path fill-rule="evenodd" clip-rule="evenodd" d="M4.01954 13.2797C3.70118 13.4824 3.78809 13.7138 4.07716 13.9741C4.36671 14.2348 4.39552 14.1191 4.68458 13.9741C4.97413 13.8296 5.40821 13.3378 5.17677 13.3667C4.94533 13.3955 4.71388 13.7426 4.56886 13.4824C4.42433 13.2221 4.33741 13.0776 4.01954 13.2797Z" fill="#92D050" stroke="#92D050" stroke-width="1.5591" stroke-miterlimit="3.86369" stroke-linejoin="round"/>
<path fill-rule="evenodd" clip-rule="evenodd" d="M3.70111 10.6611C3.49847 10.7476 3.35393 11.2261 3.81682 11.1968C4.27972 11.168 3.90375 10.5742 3.70111 10.6611Z" fill="#92D050" stroke="#92D050" stroke-width="1.5591" stroke-miterlimit="3.86369" stroke-linejoin="round"/>
<path fill-rule="evenodd" clip-rule="evenodd" d="M8.25807 11.5733C7.85328 11.6021 7.99782 12.4122 8.31618 12.3252C8.63454 12.2383 8.66334 11.544 8.25807 11.5733Z" fill="#92D050" stroke="#92D050" stroke-width="1.5591" stroke-miterlimit="3.86369" stroke-linejoin="round"/>
<path fill-rule="evenodd" clip-rule="evenodd" d="M10.9782 10.979C10.6311 11.1392 10.5442 11.7178 11.007 11.6021C11.4699 11.4864 11.3254 10.8194 10.9782 10.979Z" fill="#92D050" stroke="#92D050" stroke-width="1.5591" stroke-miterlimit="3.86369" stroke-linejoin="round"/>
<path fill-rule="evenodd" clip-rule="evenodd" d="M156.591 141.165C156.779 141.321 157.372 140.603 157.122 140.353C156.872 140.103 156.404 141.009 156.591 141.165Z" fill="#92D050" stroke="#92D050" stroke-width="1.5591" stroke-miterlimit="3.86369" stroke-linejoin="round"/>
<path fill-rule="evenodd" clip-rule="evenodd" d="M175.716 137.165C175.279 136.978 174.31 137.446 174.216 138.009C174.122 138.571 174.529 139.196 175.154 138.759C175.779 138.321 176.154 137.353 175.716 137.165Z" fill="#92D050" stroke="#92D050" stroke-width="1.5591" stroke-miterlimit="3.86369" stroke-linejoin="round"/>
<path fill-rule="evenodd" clip-rule="evenodd" d="M174.154 145.571C173.748 145.634 173.654 148.134 174.216 147.946C174.779 147.759 174.56 145.509 174.154 145.571Z" fill="#92D050" stroke="#92D050" stroke-width="1.5591" stroke-miterlimit="3.86369" stroke-linejoin="round"/>
<path fill-rule="evenodd" clip-rule="evenodd" d="M174.435 149.009C174.123 149.196 174.123 150.603 174.435 151.665C174.748 152.728 176.498 157.634 176.904 158.384C177.31 159.134 178.435 161.884 178.654 162.384C178.873 162.884 178.123 164.071 178.654 164.165C179.185 164.259 179.654 163.759 179.279 162.54C178.904 161.321 176.185 154.196 175.966 153.915C175.748 153.634 174.748 150.415 174.716 149.915C174.685 149.415 174.748 148.821 174.435 149.009Z" fill="#92D050" stroke="#92D050" stroke-width="1.5591" stroke-miterlimit="3.86369" stroke-linejoin="round"/>
<path fill-rule="evenodd" clip-rule="evenodd" d="M170.529 166.978C170.029 166.821 169.935 167.571 170.279 167.634C170.622 167.696 171.029 167.134 170.529 166.978Z" fill="#92D050" stroke="#92D050" stroke-width="1.5591" stroke-miterlimit="3.86369" stroke-linejoin="round"/>
<path fill-rule="evenodd" clip-rule="evenodd" d="M167.091 166.853C167.497 167.009 167.685 166.353 167.247 166.196C166.81 166.04 166.685 166.696 167.091 166.853Z" fill="#92D050" stroke="#92D050" stroke-width="1.5591" stroke-miterlimit="3.86369" stroke-linejoin="round"/>
<path fill-rule="evenodd" clip-rule="evenodd" d="M156.935 157.665C156.716 157.821 156.779 158.259 157.123 158.602C157.466 158.946 158.591 160.04 158.748 160.165C158.904 160.29 159.466 160.102 158.716 159.509C157.966 158.915 157.154 157.509 156.935 157.665Z" fill="#92D050" stroke="#92D050" stroke-width="1.5591" stroke-miterlimit="3.86369" stroke-linejoin="round"/>
<path fill-rule="evenodd" clip-rule="evenodd" d="M162.779 164.478C162.56 164.79 163.873 165.665 164.091 165.353C164.31 165.04 162.998 164.165 162.779 164.478Z" fill="#92D050" stroke="#92D050" stroke-width="1.5591" stroke-miterlimit="3.86369" stroke-linejoin="round"/>
<path fill-rule="evenodd" clip-rule="evenodd" d="M156.904 151.009C157.185 151.071 157.404 149.946 157.216 149.821C157.029 149.696 156.623 150.946 156.904 151.009Z" fill="#92D050" stroke="#92D050" stroke-width="1.5591" stroke-miterlimit="3.86369" stroke-linejoin="round"/>
<path fill-rule="evenodd" clip-rule="evenodd" d="M174.029 142.727C174.279 142.821 174.529 142.196 174.216 142.134C173.904 142.071 173.779 142.634 174.029 142.727Z" fill="#92D050" stroke="#92D050" stroke-width="1.5591" stroke-miterlimit="3.86369" stroke-linejoin="round"/>
<path fill-rule="evenodd" clip-rule="evenodd" d="M310.745 218.542C310.882 219.205 311.271 219 311.73 218.496C312.188 217.991 311.98 217.074 311.546 217.441C311.112 217.808 310.607 217.877 310.745 218.542Z" fill="#92D050" stroke="#92D050" stroke-width="1.5591" stroke-miterlimit="3.86369" stroke-linejoin="round"/>
<path fill-rule="evenodd" clip-rule="evenodd" d="M313.472 215.148C313.793 215.377 314.022 214.828 314.022 214.231C314.022 213.635 313.838 212.535 313.701 212.26C313.563 211.985 313.426 211.618 313.151 211.755C312.876 211.893 313.197 212.26 313.334 212.626C313.472 212.993 313.518 213.635 313.518 214.094C313.518 214.552 313.151 214.919 313.472 215.148Z" fill="#92D050" stroke="#92D050" stroke-width="1.5591" stroke-miterlimit="3.86369" stroke-linejoin="round"/>
<path fill-rule="evenodd" clip-rule="evenodd" d="M313.059 208.891C312.784 209.074 312.876 209.166 312.876 209.625C312.876 210.083 313.059 210.703 312.968 210.908C312.876 211.113 312.784 211.389 313.105 211.389C313.426 211.389 313.518 210.633 313.518 210.037C313.518 209.441 313.335 208.708 313.059 208.891Z" fill="#92D050" stroke="#92D050" stroke-width="1.5591" stroke-miterlimit="3.86369" stroke-linejoin="round"/>
<path fill-rule="evenodd" clip-rule="evenodd" d="M312.784 206.46C312.326 206.415 312.188 207.103 312.692 207.103C313.197 207.103 313.243 206.506 312.784 206.46Z" fill="#92D050" stroke="#92D050" stroke-width="1.5591" stroke-miterlimit="3.86369" stroke-linejoin="round"/>
<path fill-rule="evenodd" clip-rule="evenodd" d="M313.426 202.542C313.243 202.862 314.068 203.367 314.206 202.954C314.343 202.542 313.61 202.22 313.426 202.542Z" fill="#92D050" stroke="#92D050" stroke-width="1.5591" stroke-miterlimit="3.86369" stroke-linejoin="round"/>
<path fill-rule="evenodd" clip-rule="evenodd" d="M314.802 195.343C314.526 195.481 314.71 195.985 315.076 196.489C315.444 196.993 315.856 197.543 316.039 197.911C316.223 198.277 316.177 198.828 315.764 198.828C315.352 198.828 314.985 198.919 315.352 199.286C315.719 199.653 316.544 199.332 316.727 198.965C316.91 198.598 316.865 197.911 316.498 197.452C316.131 196.993 315.397 195.664 315.397 195.664C315.397 195.664 315.076 195.205 314.802 195.343Z" fill="#92D050" stroke="#92D050" stroke-width="1.5591" stroke-miterlimit="3.86369" stroke-linejoin="round"/>
<path fill-rule="evenodd" clip-rule="evenodd" d="M308.865 190.552C309.003 191.057 308.498 191.194 309.553 191.057C310.608 190.919 310.767 190.919 311.225 191.653C311.684 192.386 313.197 194.129 313.564 194.496C313.93 194.862 314.985 194.954 314.435 194.312C313.61 193.349 312.072 191.607 311.547 191.194C311.02 190.782 310.47 190.552 310.057 190.506C309.645 190.46 308.728 190.048 308.865 190.552Z" fill="#92D050" stroke="#92D050" stroke-width="1.5591" stroke-miterlimit="3.86369" stroke-linejoin="round"/>
<path fill-rule="evenodd" clip-rule="evenodd" d="M296.404 202.478C296.373 202.821 296.716 202.728 297.279 202.665C297.841 202.603 298.56 201.978 297.841 202.009C297.123 202.04 296.435 202.134 296.404 202.478Z" fill="#92D050" stroke="#92D050" stroke-width="1.5591" stroke-miterlimit="3.86369" stroke-linejoin="round"/>
<path fill-rule="evenodd" clip-rule="evenodd" d="M302.966 207.134C303.154 207.353 303.529 207.103 303.341 206.853C303.154 206.603 302.779 206.915 302.966 207.134Z" fill="#92D050" stroke="#92D050" stroke-width="1.5591" stroke-miterlimit="3.86369" stroke-linejoin="round"/>
</svg>
