<svg width="154" height="444" viewBox="0 0 154 444" fill="none" xmlns="http://www.w3.org/2000/svg">
<path d="M136.583 199.005C136.421 199.177 136.19 199.194 136.033 199.369C135.873 199.547 135.819 199.762 135.764 199.972C135.606 200.128 135.388 200.204 135.185 200.276C134.932 200.331 134.9 199.898 134.63 200.094C134.401 200.259 134.2 199.845 134.033 200.02C133.856 200.101 133.689 200.217 133.481 200.223C133.256 200.271 133.258 200.516 133.08 200.6C132.964 200.76 132.753 200.854 132.946 201.062C132.831 201.391 133.186 201.333 133.202 201.606C133.309 201.78 132.776 201.904 132.956 202.108C133.157 202.269 133.492 201.856 133.508 202.13C133.469 202.364 133.542 202.55 133.405 202.681C133.388 202.924 133.573 203.089 133.594 203.32C133.686 203.489 133.732 203.78 133.943 203.529C134.18 203.456 134.473 203.502 134.705 203.421C134.996 203.502 135.023 203.161 135.228 203.097C135.425 202.966 135.511 202.768 135.703 202.647C135.779 202.398 136.028 202.338 136.223 202.257C135.897 202.15 136.505 201.657 136.146 201.903C135.919 202.061 135.858 201.935 135.868 201.715C135.74 201.674 135.704 201.279 135.943 201.362C136.144 201.298 136.269 200.895 136.504 201.091C136.865 201.169 136.604 201.284 136.484 201.438C136.636 201.463 136.711 201.568 136.897 201.383C137.088 201.333 137.513 201.153 137.394 201.053C137.441 201.199 137.007 201.452 137.33 201.469C137.674 201.433 137.931 201.154 137.821 201.219C138.017 201.165 138.314 200.714 138.228 200.845C138.377 200.749 138.646 200.503 138.533 200.312C138.681 200.075 138.487 199.911 138.259 199.897C138.159 199.837 137.728 199.633 137.941 199.516C138.248 199.533 137.654 199.338 137.877 199.205C138.161 199.16 138.477 199.176 138.66 199.409C138.884 199.473 138.964 199.868 138.828 200.046C138.699 200.249 138.962 200.513 138.735 200.682C138.685 200.882 138.374 200.873 138.33 201.12C138.282 201.28 138.211 201.651 137.961 201.49C137.738 201.423 137.52 201.534 137.43 201.741C137.185 201.775 136.966 201.601 136.732 201.72C136.345 201.82 137.096 202.455 136.851 202.209C137.057 202.273 137.314 202.172 137.38 201.959C137.552 202.184 137.791 201.899 137.992 202.065C138.15 202.152 138.249 202.801 138.224 202.612C138.168 202.858 138.234 203.048 138.172 203.311C138.14 203.569 137.836 203.632 137.647 203.693C137.517 203.803 137.111 203.89 137.284 203.578C137.494 203.5 137.71 203.483 137.811 203.237C137.856 202.986 137.566 202.854 137.61 202.604C137.572 202.417 137.404 202.123 137.353 202.472C137.187 202.589 136.866 202.525 136.792 202.737C136.577 202.828 136.574 203.014 136.36 203.143C136.254 203.519 136.032 203.444 136.223 203.667C136.358 204.051 136.012 203.888 135.948 203.693C135.768 204.033 136.557 204.106 136.4 204.018C136.475 204.213 136.608 204.459 136.81 204.56C136.994 204.627 137.142 204.766 137.327 204.834C137.498 205.075 137.329 205.148 137.126 205.158C136.945 205.298 136.765 205.434 136.52 205.429C136.389 205.617 136.449 205.89 136.693 205.667C136.883 205.572 137.096 205.522 137.332 205.538C137.543 205.53 137.842 205.54 137.915 205.727C138.088 205.879 138.005 206.248 138.226 205.834C138.255 205.548 138.285 205.335 137.993 205.21C137.74 205.172 137.947 204.726 137.737 204.668C137.56 205.054 137.328 204.583 137.521 204.408C137.724 204.532 138.072 204.402 137.967 204.084C137.978 203.795 138.294 204.242 138.429 203.99C138.446 203.756 138.836 203.87 138.838 203.612C138.605 203.418 138.868 203.156 138.735 202.93C138.962 202.673 138.45 202.532 138.614 202.276C138.829 202.102 139.001 202.414 139.22 202.392C139.411 202.573 139.002 203.405 139.15 203.008C138.82 203.161 139.106 203.549 139.341 203.3C139.492 203.189 139.644 203.069 139.609 202.827C139.402 202.663 139.689 202.361 139.43 202.284C139.309 202.087 139.949 202.135 139.851 202.026C139.924 202.141 140.267 202.061 140.094 202.392C139.733 202.527 140.318 202.68 140.377 202.417C140.573 202.13 140.167 202.239 140.171 201.985C140.475 201.765 140.046 201.734 140.018 201.55C139.874 201.347 140.073 201.005 139.851 200.83C139.652 200.706 139.609 200.388 139.892 200.384C140.088 200.592 140.129 200.861 140.367 201.05C140.526 201.18 140.861 201.219 140.996 201.008C140.958 200.78 141.233 200.597 141.115 200.381C141.149 200.149 140.813 200.077 140.864 199.898C141.001 199.862 140.969 199.417 141.226 199.735C141.412 199.807 141.353 200.173 141.627 200.168C141.742 200.342 141.763 200.507 141.969 200.632C141.989 200.766 141.849 201.084 142.148 200.926C142.307 201.126 142.007 201.339 142.395 201.362C142.629 201.323 142.823 201.489 143.032 201.347C143.22 201.132 142.994 200.877 143.221 200.708C143.241 200.497 143.166 200.24 143.093 200.035C142.789 199.939 143.06 199.655 142.77 199.627C142.618 199.71 142.035 199.429 142.196 199.516C141.974 199.454 141.98 199.132 142.164 199.01C142.394 198.985 142.378 198.565 142.148 198.598C141.921 198.57 141.634 198.403 141.81 198.133C142.008 197.952 141.833 197.715 141.81 197.498C141.778 197.278 141.385 197.367 141.452 197.049C141.295 196.946 141.096 196.682 140.902 196.872C140.932 197.047 140.691 197.441 140.585 197.111C140.365 196.732 140.374 197.265 140.155 197.241C140.259 197.137 139.039 196.472 139.713 196.89C139.957 197.09 139.565 197.281 139.39 197.13C139.171 196.931 139.205 196.741 138.923 196.648C138.732 196.335 138.561 196.796 138.357 196.806C138.184 196.908 138.038 197.08 137.846 197.131C137.632 197.19 137.399 197.297 137.147 197.202C137.003 197.156 136.572 196.96 136.834 197.26C136.926 197.49 136.96 197.75 136.942 198.025C136.813 198.222 136.824 198.468 136.737 198.677C136.75 198.806 136.588 198.885 136.583 199.005L136.583 199.005V199.005ZM65.3536 366.811C65.5778 366.667 65.7447 366.977 65.9626 366.813C66.1536 366.765 66.3656 366.734 66.5251 366.597C66.5962 366.42 67.1297 366.38 66.7919 366.216C66.5959 366.168 66.4228 366.063 66.2232 365.998C66.048 365.867 65.8025 365.917 65.6246 365.805C65.348 365.863 65.3399 365.524 65.0995 365.511C64.9432 365.52 64.6833 365.835 64.6082 365.548C64.3461 365.537 64.1058 365.931 64.1561 365.907C63.9477 365.972 63.3063 366.288 63.5522 365.998C63.3223 366.022 62.9044 365.496 63.0158 365.656C63.0397 365.425 62.6558 365.262 62.605 365.539C62.482 365.721 62.4899 365.966 62.2717 366.107C61.9635 366.164 62.0957 366.326 62.2999 366.461C62.3156 366.832 61.6581 366.738 61.8327 366.779C61.6389 366.75 61.4889 366.611 61.3221 366.509C61.1115 366.451 60.8746 366.448 60.7036 366.292C60.4874 366.274 60.2292 366.124 60.4027 365.872C60.5531 365.859 60.909 364.893 60.7106 365.429C60.8228 365.179 61.0867 365.088 61.2485 364.86C61.4278 364.766 61.6566 364.791 61.8108 364.645C62.0266 364.62 62.221 364.545 62.3769 364.37C62.6465 364.306 62.6812 364.602 62.8678 364.677C63.0854 364.788 63.3537 364.756 63.5899 364.804C63.7792 364.897 64.0315 364.844 64.1813 365.038C64.3646 365.297 64.5503 364.912 64.771 364.967C65.0379 364.9 65.2495 365.136 65.4843 365.046C65.641 365.021 65.794 364.513 65.9388 364.773C66.0103 364.988 66.682 364.725 66.5251 364.752C66.699 364.656 66.9201 364.543 66.9156 364.307C66.8856 364.117 67.0312 363.56 66.703 363.702C66.4854 363.916 66.2937 364.201 66.0125 364.261C65.8165 364.442 65.6561 364.065 65.4172 364.156C65.1996 364.269 64.9444 364.275 64.6776 364.264C64.4441 364.245 64.2533 364.119 64.0999 363.917C63.8743 363.891 63.7377 363.669 63.5559 363.558C63.3797 363.426 63.1397 363.427 62.945 363.341C62.7602 363.269 62.5472 363.232 62.375 363.125C62.1649 363.104 62.0243 362.922 61.8146 362.909C61.6053 362.8 61.5027 362.648 61.3368 362.462C61.2171 362.274 61.0877 362.134 60.8899 362.044C60.6897 361.962 60.3682 361.927 60.2081 362.11C60.0518 362.347 60.1516 362.454 59.8132 362.472C59.6142 362.602 59.4184 362.759 59.2472 362.96C59.0048 362.86 58.787 362.965 58.53 362.963C58.306 363.072 58.035 363.08 57.7564 363.072C57.4972 363.09 57.2947 362.983 57.0633 362.927C56.8131 362.905 56.6037 362.804 56.3453 362.8C56.145 362.71 55.867 362.791 55.7129 362.584C55.4666 362.524 55.4393 362.229 55.2821 362.075C55.1914 361.879 55.1429 361.668 55.1243 361.442C55.1143 361.169 55.1779 360.922 55.2255 360.673C55.2549 360.385 55.3702 360.135 55.602 359.931C55.8309 359.659 56.1763 359.438 56.1982 359.084C56.3762 358.925 56.0987 358.501 55.9056 358.747C55.7304 358.935 55.5756 359.13 55.4452 359.336C55.1511 359.606 54.9696 359.922 54.6868 360.197C54.4772 360.336 54.2866 360.514 54.1012 360.706C53.9567 360.89 53.8986 361.132 53.9954 361.347C54.0208 361.604 54.108 361.848 54.0954 362.123C54.2028 362.343 54.1791 362.624 54.2479 362.867C54.2766 363.149 54.1208 363.374 54.3508 363.581C54.2184 363.795 54.4402 363.962 54.457 364.169C54.5088 364.391 54.5561 364.604 54.642 364.812C54.7256 365.002 54.6989 365.313 54.9354 365.402C55.1312 365.477 55.3591 365.492 55.558 365.563C55.7394 365.669 55.9252 365.771 56.1221 365.838C56.3936 365.957 56.5439 366.365 56.8356 366.434C56.906 366.636 57.4626 366.908 57.3012 366.81C57.4179 367.003 57.788 366.824 57.8353 367.058C58.0169 367.184 58.1195 367.387 58.3231 367.51C58.4912 367.597 58.5708 367.852 58.787 367.9C59.0153 368.042 59.2985 367.895 59.5365 367.898C59.7569 367.817 60.0582 367.813 60.2566 367.933C60.4646 368.006 60.6914 368.019 60.8879 368.115C61.057 368.264 61.296 368.266 61.499 368.332C61.7406 368.333 61.9477 368.419 62.1142 368.597C62.2778 368.684 62.4352 368.795 62.5815 368.929C62.6352 368.906 62.9292 369.204 63.0152 369.227C63.2028 369.317 63.367 369.444 63.5559 369.527C63.7253 369.698 63.6815 369.947 63.786 370.141C63.8274 370.317 64.1198 370.378 64.0403 370.637C64.1053 370.842 64.3735 370.894 64.4017 371.116C64.441 371.341 64.5029 371.505 64.7349 371.584C64.9326 371.63 65.0748 371.791 65.2475 371.911C65.4598 371.943 65.6446 372.037 65.8433 372.107C66.0489 372.14 66.2335 372.223 66.4237 372.293C66.6149 372.371 66.7934 372.465 66.9926 372.506C67.1783 372.607 67.3895 372.666 67.5967 372.724C67.8581 372.742 68.0861 372.68 68.2843 372.547C68.4597 372.468 68.6079 372.321 68.7797 372.235C68.9248 372.051 69.1251 372.006 69.2737 371.83C69.372 371.721 69.682 371.275 69.5525 371.367C69.6127 371.16 69.7689 370.924 69.6311 370.697C69.5675 370.434 69.7531 370.208 69.6296 369.986C69.51 369.822 69.432 369.638 69.3383 369.462C69.1484 369.266 69.3997 369.019 69.4059 368.813C69.4356 368.598 69.4575 368.245 69.7475 368.222C69.9438 368.084 69.9182 367.766 70.1626 367.68C70.3257 367.514 70.4785 367.332 70.5512 367.118C70.6014 366.925 70.7192 366.755 70.8095 366.577C70.9328 366.331 71.1899 366.343 71.397 366.269C71.6279 366.234 71.8341 366.151 72.0586 366.109C72.2522 366.039 72.4343 365.964 72.6248 365.894C72.7777 365.772 73.0061 365.791 73.1385 365.621C73.3598 365.535 73.4147 365.274 73.6325 365.158C73.6891 364.988 73.9334 364.778 73.7704 364.603C73.698 364.403 73.5213 364.243 73.4083 364.059C73.1873 364.041 73.1739 363.758 72.9556 363.742C72.7881 363.66 72.6306 363.582 72.43 363.505C72.1953 363.508 72.0505 363.296 71.819 363.288C71.6358 363.207 71.461 363.106 71.2549 363.071C71.0403 363.152 70.8271 363.119 70.634 363.018C70.4657 362.909 70.2124 362.77 70.0154 362.909C69.8255 362.983 69.6252 363.02 69.4474 363.125C69.2355 363.216 68.9751 363.206 68.7518 363.267C68.5811 363.365 68.3005 363.322 68.2135 363.511C68.1774 363.75 68.0923 363.977 68.0938 364.238C67.9893 364.445 68.0175 364.719 67.9065 364.921C67.9025 365.096 67.4902 365.357 67.8092 365.458C68.0311 365.321 68.2544 365.504 68.2477 365.754C68.3744 365.965 68.0572 366.594 68.1426 366.405C67.9027 366.516 67.8675 366.713 67.6779 366.846C67.5131 367.062 67.2948 366.927 67.1001 366.866C66.9488 367 67.3893 367.297 67.0396 367.462C66.8164 367.639 66.3054 367.161 66.4859 367.246C66.372 367.4 65.9737 367.035 66.1592 367.342C66.3495 367.528 66.1785 367.704 65.9715 367.789C65.8095 367.659 65.6741 367.613 65.5001 367.736C65.3518 367.872 64.9614 367.381 65.0129 367.543C64.8158 367.388 64.8696 367.185 64.9631 367.002C65.0568 366.851 65.2444 366.916 65.3537 366.811L65.3536 366.811V366.811ZM95.1628 306.913C95.2908 307.033 95.2998 306.692 95.1628 306.913V306.913ZM97.4195 307.404C97.5473 307.635 97.6745 307.277 97.4195 307.404V307.404ZM90.0899 320.958C90.2982 321.017 90.0819 320.773 90.0899 320.958V320.958ZM97.9799 309.194C98.1623 309.226 97.9894 309.039 97.9799 309.194V309.194ZM98.2362 312.124C98.4261 312.182 98.2748 311.897 98.2362 312.124V312.124ZM90.0402 321.343C90.2542 321.402 90.0252 321.145 90.0402 321.343V321.343ZM105.108 311.416C105.329 311.572 105.274 311.183 105.108 311.416V311.416ZM104.183 309.63C104.407 309.788 104.348 309.373 104.183 309.63V309.63ZM88.4434 297.425C88.6488 297.721 88.6509 297.132 88.4434 297.425V297.425ZM88.6527 321.231C88.8609 321.384 88.8236 320.996 88.6527 321.231V321.231ZM93.3163 297.64C93.5239 297.797 93.4925 297.407 93.3163 297.64V297.64ZM94.8023 308.814C94.9432 308.954 94.9456 308.575 94.8023 308.814V308.814ZM74.2433 360.767C74.4442 360.865 74.4855 360.451 74.2769 360.732L74.2444 360.766L74.2433 360.767L74.2433 360.767V360.767ZM65.2203 367.436C65.4561 367.741 65.3801 367.176 65.2203 367.436V367.436ZM66.5533 363.207C66.7467 363.336 66.7411 363.08 66.5533 363.207V363.207ZM59.9399 359.683C60.1932 359.7 60.0242 359.341 59.9399 359.683V359.683ZM136.326 201.765C136.533 201.91 136.322 201.537 136.326 201.765V201.765ZM137.199 209.033C137.331 209.256 137.336 208.907 137.199 209.033V209.033ZM133.61 206.646C133.787 206.78 133.815 206.533 133.61 206.646V206.646ZM132.174 205.782C132.398 205.909 132.16 205.555 132.174 205.782V205.782ZM136.485 202.745C136.629 202.878 136.616 202.509 136.485 202.745V202.745ZM137.965 206.27C138.165 206.303 138.047 205.956 137.965 206.27V206.27ZM136.485 201.606C136.706 201.635 136.479 201.388 136.485 201.606V201.606ZM93.06 292.649C93.362 292.832 93.2881 292.386 93.06 292.649V292.649ZM96.2855 294.06C96.5731 294.373 96.4822 293.748 96.2855 294.06V294.06ZM93.8307 285.769C94.0994 286.131 94.0574 285.693 93.8307 285.769V285.769ZM110.848 284.903C111.121 285.174 110.96 284.483 110.848 284.903V284.903ZM132.277 213.048C132.569 213.34 132.655 212.8 132.281 212.992L132.278 213.038L132.277 213.048H132.277V213.048ZM133.043 208.815C133.491 208.984 133.194 208.507 133.043 208.815V208.815ZM133.204 212.996C133.439 213.354 133.661 212.872 133.225 212.965L133.204 212.996ZM93.6711 287.127C93.9663 287.283 93.9118 286.728 93.6711 287.127V287.127ZM104.595 279.695C104.826 279.865 104.763 279.43 104.595 279.695V279.695ZM102.031 274.705C102.337 274.881 102.051 274.44 102.031 274.705V274.705ZM67.5821 366.353C67.9521 366.5 67.6884 366.165 67.5821 366.353V366.353ZM75.6307 356.811C75.9632 357.159 75.6861 356.233 75.6307 356.811V356.811ZM57.6354 358.923C57.8544 359.195 57.88 358.616 57.6354 358.923V358.923ZM65.7844 363.26C66.2534 363.422 65.7521 362.84 65.7844 363.26V363.26ZM65.6849 361.037C65.8848 361.307 66.0125 360.881 65.6849 361.037V361.037ZM1.92334 442.795C2.14267 443.104 2.23393 442.436 1.92334 442.795V442.795ZM150.929 25.2721C151.153 25.4101 150.962 24.9982 150.929 25.2721V25.2721ZM67.2197 361.852C67.4899 362.104 67.4854 361.536 67.2197 361.852V361.852ZM66.143 362.394C66.528 362.553 66.1022 362.003 66.143 362.394V362.394ZM65.5826 365.319C65.9721 365.69 65.6934 364.965 65.5826 365.319V365.319ZM66.7072 363.424C66.9391 363.555 66.7379 363.155 66.7072 363.424V363.424ZM72.3978 361.254C72.6667 361.353 73.0426 361.227 72.5896 361.172C72.4976 361.159 72.4516 361.177 72.3978 361.254ZM75.474 359.032C75.7435 359.35 75.7871 358.675 75.4848 358.963C75.4579 358.977 75.4751 359.008 75.474 359.032ZM78.1437 385.497C78.3603 385.833 78.5293 385.14 78.2371 385.286C78.1713 385.351 78.1196 385.396 78.1437 385.497ZM89.5257 291.243C89.7387 291.57 89.9112 291.103 89.5571 291.111C89.529 291.128 89.5411 291.208 89.5257 291.243ZM109.055 291.3C109.441 291.433 109.091 290.856 109.055 291.282L109.055 291.3ZM90.0861 319.821C90.1936 320.13 90.6932 319.889 90.4315 319.647C90.2967 319.488 90.0138 319.581 90.0861 319.821ZM136.534 225.628C136.914 225.769 136.662 225.221 136.534 225.628V225.628ZM108.747 287.069C109.009 287.192 108.872 286.686 108.747 287.069V287.069ZM102.132 274.11C102.476 274.428 102.354 273.81 102.132 274.101L102.132 274.11ZM94.2898 286.528C94.53 286.671 94.3089 286.25 94.2898 286.528V286.528ZM108.897 282.242C109.116 282.386 108.947 281.971 108.897 282.242V282.242ZM88.3946 289.51C88.7757 289.655 88.3897 289.098 88.3946 289.51V289.51ZM104.135 275.574C104.487 275.722 104.163 275.285 104.135 275.574V275.574ZM112.59 268.686C112.895 268.977 112.733 268.28 112.59 268.681L112.59 268.686ZM140.734 202.365C140.976 202.482 140.724 202.018 140.734 202.35L140.734 202.365ZM141.046 199.979C141.424 200.338 141.043 199.479 141.046 199.979V199.979ZM140.377 203.068C140.692 203.23 140.475 202.683 140.377 203.068V203.068ZM136.021 201.767C136.249 201.906 136.059 201.501 136.021 201.767V201.767ZM134.229 204.86C134.735 204.98 134.195 204.442 134.229 204.86V204.86ZM135.868 209.794C136.057 210.096 136.447 209.611 136.005 209.659C135.933 209.637 135.85 209.725 135.868 209.794ZM134.634 211.855C134.859 211.998 134.673 211.577 134.634 211.855V211.855ZM135.611 204.808C135.85 205.199 136.091 204.628 135.655 204.724C135.604 204.718 135.607 204.774 135.611 204.808ZM127.151 212.125C127.492 212.241 127.172 211.713 127.151 212.125V212.125ZM134.326 206.217C134.609 206.316 134.674 205.954 134.326 206.217V206.217ZM132.843 207.297C133.149 207.477 132.944 206.903 132.843 207.297V207.297ZM131.869 206.052C132.188 206.174 131.936 205.533 131.869 206.052V206.052ZM129.511 209.524C129.751 209.851 129.88 209.172 129.556 209.366C129.492 209.401 129.514 209.465 129.511 209.524ZM131.148 206.485C131.36 206.633 131.205 206.207 131.148 206.485V206.485ZM127.817 206.215C127.972 206.232 127.82 205.914 127.817 206.215V206.215ZM134.481 208.061C134.847 208.147 134.479 207.669 134.481 208.061V208.061ZM136.381 209.087C136.753 209.391 136.408 208.609 136.381 209.087V209.087ZM132.484 203.286C132.714 203.394 132.664 202.951 132.484 203.286V203.286ZM140.225 210.063C140.399 210.204 140.392 209.661 140.225 210.063V210.063ZM92.2405 291.354C92.4202 291.656 92.641 290.935 92.3325 291.144C92.2617 291.191 92.27 291.284 92.2405 291.354ZM130.538 204.157C130.719 204.504 130.966 204.202 130.631 204.093C130.588 204.027 130.508 204.095 130.538 204.157ZM137.403 215.541C137.681 215.782 137.424 215.044 137.403 215.516V215.541ZM91.6228 288.587C91.875 288.597 91.7096 288.033 91.6228 288.464C91.6228 288.505 91.6228 288.546 91.6228 288.587ZM107.468 282.461C107.833 282.604 107.612 282.109 107.468 282.451V282.461ZM70.2969 361.199C70.5083 361.39 70.8653 361.146 70.4001 361.174C70.3677 361.187 70.3137 361.149 70.2969 361.199ZM137.151 208.164C137.503 208.197 137.151 207.812 137.151 208.164V208.164ZM137.341 206.091C137.628 206.488 137.452 205.685 137.341 206.091V206.091ZM91.6247 322.422C91.7175 322.592 91.9813 322.997 91.9852 322.556C91.8976 322.461 91.7055 322.102 91.6247 322.422ZM119.87 271.509C120.079 271.669 120.228 271.036 119.954 271.364C119.922 271.412 119.844 271.438 119.87 271.509ZM92.0312 275.03C92.2583 275.211 92.4966 274.588 92.1799 274.715C92.099 274.801 92.0242 274.909 92.0312 275.03ZM61.6334 365.756C61.7324 366.158 61.9108 365.916 61.8391 365.599C61.7785 365.282 61.5596 365.562 61.6334 365.756ZM67.6844 360.711C67.8769 360.953 68.1054 360.768 67.7616 360.685C67.7384 360.699 67.6937 360.664 67.6844 360.711ZM136.534 211.53C136.724 211.699 137.221 211.383 136.972 211.23C136.784 211.23 136.461 211.252 136.534 211.53ZM137.609 207.352C137.862 207.618 137.936 207.213 137.631 207.219C137.589 207.25 137.62 207.309 137.609 207.352ZM138.482 212.885C138.748 213.024 138.696 212.457 138.477 212.833L138.482 212.88L138.482 212.885H138.482ZM132.176 208.603C132.406 208.793 132.726 208.327 132.412 208.248C132.188 208.308 132.368 208.484 132.176 208.603ZM104.697 310.275C104.752 310.436 105.03 310.834 105.055 310.456C105.066 310.276 104.787 309.955 104.697 310.275ZM73.5759 361.257C73.8019 361.483 74.0315 361.068 73.6711 361.208C73.6539 361.257 73.5867 361.193 73.5759 361.257ZM60.5576 360.874C60.761 361.153 60.9475 360.595 60.6357 360.794C60.6087 360.818 60.5837 360.848 60.5576 360.874ZM99.3129 294.171C99.4644 294.348 99.7261 294.479 99.935 294.364C100.015 294.163 99.2476 294.105 99.3986 294.159L99.3523 294.165L99.3129 294.171V294.171V294.171ZM49.9932 310.716C50.0311 310.946 50.4715 311.056 50.2909 310.756C50.2535 310.592 50.0334 310.465 49.9932 310.716ZM90.3396 284.032C90.47 284.269 90.9225 283.916 90.5315 283.897C90.4665 283.906 90.3213 283.946 90.3396 284.032ZM90.9554 287.342C91.1003 287.585 91.46 287.502 91.4689 287.235C91.4784 286.948 90.8113 287.315 90.9554 287.285V287.332V287.342V287.342ZM92.2396 287.828C92.4599 287.987 92.6681 287.559 92.4686 287.423C92.2544 287.38 92.2303 287.683 92.2396 287.828ZM134.125 205.727C134.278 205.904 134.637 205.779 134.689 205.57C134.633 205.28 134.235 205.468 134.138 205.652C134.106 205.667 134.124 205.7 134.125 205.727H134.125V205.727ZM132.843 202.58C133.005 202.84 133.338 202.419 132.988 202.414C132.901 202.328 132.811 202.504 132.843 202.58ZM131.815 207.083C131.979 207.206 132.183 207.355 132.121 207.029C131.981 206.865 131.73 206.744 131.815 207.083ZM133.82 207.459C134.038 207.665 134.249 207.072 134.005 207.109C133.705 207.139 133.912 207.342 133.82 207.459ZM106.337 287.829C106.452 287.993 106.944 287.827 106.627 287.746C106.518 287.74 106.432 287.798 106.337 287.829ZM98.239 308.057C98.3846 308.252 98.6568 308.205 98.8437 308.12C98.7745 307.885 98.1018 307.963 98.3131 307.97C98.2884 307.999 98.2637 308.028 98.239 308.057V308.057ZM71.7303 361.257C71.8816 361.425 72.1784 361.218 71.8627 361.174C71.8357 361.249 71.7609 361.195 71.7303 361.257ZM108.233 287.342C108.311 287.478 108.561 287.034 108.619 287.154C108.473 287.163 108.352 287.264 108.233 287.342ZM128.688 206.541C128.722 206.903 129.109 206.634 128.997 206.361C128.982 205.903 128.904 206.357 128.722 206.455C128.68 206.471 128.691 206.508 128.688 206.541ZM136.223 215.053C136.305 215.363 136.625 215.21 136.4 214.966C136.373 214.752 136.182 214.91 136.223 215.053ZM98.3901 275.033C98.5092 275.204 98.8655 274.756 98.8718 274.89C98.7177 274.825 98.4526 274.609 98.3901 274.915C98.3901 274.955 98.3901 274.994 98.3901 275.033ZM94.6484 292.164C94.8723 292.217 94.9482 292.476 95.1844 292.463C95.3543 292.321 95.2589 291.868 94.9953 291.921C94.8427 291.891 94.6057 291.972 94.6484 292.164ZM133.459 205.402C133.553 205.602 133.968 205.792 133.918 205.423C133.918 205.233 133.756 204.927 133.536 205.104C133.496 205.194 133.504 205.309 133.459 205.402V205.402V205.402ZM134.689 209.198C134.751 209.375 135.013 209.619 135.185 209.429C135.285 209.167 135.131 208.959 134.873 208.954C134.819 209.032 134.678 209.091 134.689 209.198V209.198ZM131.662 206.376C131.814 206.55 132.041 206.712 132.176 206.431C132.179 206.172 131.85 206.113 131.747 206.296C131.713 206.305 131.692 206.355 131.662 206.376ZM125.922 170.261C126.134 170.342 126.341 170.14 126.38 169.936C126.301 169.572 125.7 170.43 125.938 170.134C125.896 170.16 125.933 170.222 125.922 170.261ZM139.559 204.263C139.764 204.311 139.912 204.495 140.133 204.507C140.402 204.328 140.063 204.007 139.814 204.127C139.731 204.12 139.538 204.156 139.559 204.263ZM87.2071 308.167C87.4755 308.312 87.3432 308.51 87.4173 308.762C87.7208 309.101 87.781 308.703 87.7318 308.433C87.6915 308.269 87.4196 307.865 87.2453 308.107L87.2203 308.147L87.2071 308.167H87.2071V308.167ZM89.2638 290.809C89.4849 290.918 89.718 291.065 89.9529 291.105C90.2532 291.282 90.3485 290.991 90.2898 290.707C90.0867 290.641 89.9611 290.415 89.7571 290.35C89.5706 290.399 89.4229 290.684 89.2638 290.809V290.809ZM107.001 287.719C107.237 287.817 107.475 287.68 107.679 287.604C108.075 287.431 107.645 287.367 107.449 287.477C107.295 287.568 107.114 287.526 107.001 287.719ZM69.2737 361.201C69.4863 361.173 69.9958 361.013 69.7308 360.889C69.5652 360.659 69.2213 360.849 69.5797 360.984C69.4991 361.101 69.3494 361.076 69.2737 361.201V361.201ZM140.171 201.333C140.43 201.618 140.458 201.728 140.585 201.651C140.635 202.073 140.91 201.347 140.562 201.362C140.371 201.455 140.309 201.099 140.171 201.333V201.333ZM129.816 212.183C129.968 212.395 130.215 212.612 130.4 212.323C130.444 212.172 129.933 211.874 130.067 211.956C129.952 211.869 129.939 212.148 129.816 212.183V212.183ZM141.56 205.239C141.634 205.364 141.579 205.938 141.76 205.564C141.726 205.28 141.921 204.973 141.917 205.028C141.956 204.663 141.421 204.871 141.559 205.156L141.56 205.202L141.56 205.239H141.56V205.239ZM87.6257 286.69C87.8777 286.953 88.0421 286.288 87.9843 286.418C88.2835 286.206 87.7593 285.978 87.7475 286.345C87.7192 286.465 87.6063 286.552 87.6257 286.69V286.69ZM111.103 281.645C111.341 281.702 111.972 281.976 111.676 281.913C111.703 281.768 111.195 281.5 111.334 281.564C111.268 281.448 111.085 281.522 111.103 281.645V281.645ZM104.643 312.885C104.84 312.961 105.125 312.301 105.11 312.504C105.321 312.189 104.943 312.052 104.955 312.432C104.86 312.613 104.722 312.684 104.643 312.885ZM76.7553 362.611C76.9296 362.776 77.0218 363.082 77.2951 363.072C77.5727 362.859 77.4484 362.49 77.4725 362.177C77.3091 361.876 77.132 362.229 76.9385 362.259C76.8358 362.361 76.7127 362.446 76.7553 362.611V362.611ZM103.979 316.134C104.209 316.068 104.449 316.049 104.62 315.872C104.676 315.741 104.927 315.259 104.644 315.392C104.411 315.511 104.422 315.822 104.18 315.882C104.08 315.933 103.937 315.996 103.979 316.134H103.979V316.134ZM141.71 203.016C141.733 203.171 141.858 203.644 142.017 203.294C141.961 203.123 142.147 202.942 141.97 202.752C141.867 202.618 141.74 202.952 141.71 203.016ZM92.8563 311.198C92.9333 311.463 93.4053 311.561 93.2628 311.522C93.3542 311.71 93.6601 312.011 93.7785 311.693C93.7845 311.412 93.4404 311.465 93.4149 311.202C93.2767 311.097 92.9752 310.966 92.8563 311.198V311.198V311.198ZM59.9418 358.328C60.1619 358.422 59.8674 358.928 60.136 358.718C60.1234 358.485 60.5476 358.362 60.4204 358.129C60.4078 357.877 60.0042 357.96 59.9944 358.164C59.9236 358.2 59.9403 358.263 59.9418 358.328V358.328ZM92.0875 277.687C92.2496 277.841 92.5055 277.788 92.6752 277.933C92.9855 278.076 93.1304 277.651 92.8828 277.553C92.6286 277.559 92.6067 277.226 92.3323 277.281C92.1139 277.343 92.0463 277.416 92.0875 277.687ZM141.762 204.534C141.9 204.818 142.169 204.558 142.122 204.34C142.249 204.193 142.304 203.793 142.001 203.801C141.705 203.848 141.698 204.463 141.81 204.316C141.836 204.405 141.712 204.428 141.762 204.534V204.534ZM139.457 203.721C139.619 203.849 140.166 203.503 140.071 203.672C140.098 203.494 140.095 202.843 140.095 203.041C139.886 203.118 139.843 203.418 139.58 203.424C139.477 203.511 139.432 203.583 139.456 203.721H139.457V203.721ZM108.904 264.077C109.012 264.307 109.461 264.36 109.361 263.999C109.288 263.788 109.427 263.573 109.14 263.46C109.074 263.083 108.836 263.514 109.001 263.69C108.998 263.831 108.857 263.917 108.904 264.077V264.077ZM102.802 278.556C102.872 278.814 103.473 278.645 103.32 278.781C103.451 278.796 103.732 279.205 103.721 278.879C103.678 278.629 103.609 278.408 103.341 278.312C103.136 278.295 102.864 278.384 102.802 278.556V278.556ZM136.021 208.114C136.252 208.234 136.442 208.422 136.276 208.704C136.659 209.235 136.342 207.846 136.545 208.369C136.741 208.388 136.708 207.979 136.468 208.03C136.336 207.833 136.011 207.605 136.021 207.99C136.021 208.031 136.021 208.072 136.021 208.114ZM51.5337 324.651C51.6368 324.832 51.8151 325.062 52.0209 325.112C52.1298 325.221 52.6455 325.317 52.5606 325.085C52.4958 324.768 51.9842 324.622 52.1232 324.73C51.8961 324.798 51.7342 324.546 51.5337 324.651ZM92.908 286.802C92.9696 286.953 93.3097 287.189 93.3163 286.908C93.4139 286.683 93.7208 286.555 93.5745 286.278C93.5652 285.974 93.208 286.065 93.2121 286.302C93.0575 286.397 92.8343 286.568 92.908 286.802V286.802V286.802ZM50.3527 325.789C50.493 326.047 50.6747 326.155 50.7099 325.795C50.8241 325.631 50.9336 325.424 50.7648 325.253C50.6413 324.853 50.3387 325.621 50.4588 325.408C50.3684 325.512 50.3374 325.641 50.3527 325.789V325.789V325.789ZM106.643 266.409C106.7 266.652 107.081 266.687 107.209 266.465C107.17 266.156 107.638 266.309 107.566 265.998C107.54 265.82 106.985 265.897 107.129 265.788C107.002 265.983 106.642 265.946 106.643 266.232C106.643 266.291 106.643 266.35 106.643 266.409H106.643ZM137.458 206.812C137.617 206.99 138.056 207.145 137.971 206.975C138.12 207.026 138.006 206.427 138.018 206.543C137.923 206.383 137.741 206.502 137.539 206.459C137.464 206.553 137.439 206.674 137.458 206.812V206.812ZM149.082 26.5194C149.182 26.7107 149.291 26.8148 149.414 26.9784C149.633 26.9234 149.521 26.5889 149.698 26.4649C149.664 26.3111 149.857 26.0201 149.519 26.2758C149.328 26.4406 149.022 26.0868 149.082 26.5194V26.5194ZM128.128 206.646C128.29 206.773 128.458 206.82 128.625 206.661C128.411 206.65 128.826 206.174 128.52 206.398C128.562 206.175 128.358 206.274 128.18 206.376C128.341 206.502 128.09 206.527 128.128 206.646V206.646ZM152.412 19.9032C152.504 20.1135 152.487 20.3664 152.667 20.5475C152.828 20.781 153.117 20.6674 153.306 20.5794C153.56 20.4881 153.558 20.2003 153.543 19.9541C153.419 19.7622 153.288 19.5619 153.104 19.3902C152.903 19.3159 152.755 18.957 152.511 19.0979C152.275 19.2819 152.504 19.6283 152.433 19.8292C152.4 19.8437 152.413 19.8761 152.412 19.9032H152.412V19.9032ZM139.253 205.727C139.43 205.801 139.402 206.189 139.674 206.19C139.976 206.051 139.746 205.797 139.866 205.578C139.648 205.394 139.77 205.103 139.988 205.001C140.109 204.749 139.515 205.01 139.638 204.887C139.349 204.895 139.348 205.145 139.249 205.347C139.25 205.474 139.251 205.6 139.253 205.727H139.253V205.727ZM130.33 207.244C130.523 207.593 130.679 207.04 130.952 207.163C131.205 207.081 131.462 207.349 131.662 207.137C131.601 206.978 131.434 206.649 131.25 206.872C131.068 207.088 130.673 206.803 130.908 206.58C131.17 206.268 130.59 206.444 130.604 206.685C130.546 206.877 130.383 207.029 130.35 207.224L130.33 207.244ZM135.353 203.99C135.583 204.086 135.545 204.349 135.713 204.471C135.902 204.792 136.187 204.277 135.95 204.182C135.85 203.991 135.55 203.895 135.716 203.672C135.942 203.638 135.668 203.353 136.083 203.423C136.133 203.295 135.631 203.221 135.628 203.482C135.551 203.653 135.375 203.802 135.353 203.99ZM111.056 284.52C111.238 284.668 111.459 284.758 111.682 284.819C111.892 284.653 111.886 284.365 112.129 284.196C112.191 283.975 112.366 283.797 112.528 283.613C112.801 283.436 112.837 283.163 112.8 282.86C112.654 282.686 112.335 282.781 112.217 282.499C112.063 282.381 111.829 281.884 111.826 282.33C111.792 282.583 111.76 282.835 111.723 283.089C111.738 283.36 111.733 283.615 111.569 283.816C111.507 284.069 111.178 284.131 111.103 284.353C111.043 284.398 111.053 284.451 111.056 284.52V284.52ZM1.00057 442.251C1.16234 442.466 1.42701 442.053 1.44164 442.445C1.36274 442.668 1.75716 442.942 1.81821 442.63C1.87276 442.292 2.06346 442.452 2.29171 442.494C2.5566 442.478 2.5348 441.981 2.22053 442.061C2.07662 441.952 2.02472 441.546 1.75999 441.714C1.5229 441.951 1.5269 441.457 1.24914 441.571C1.03289 441.636 1.02965 441.96 1 442.168L1.00034 442.215L1.00058 442.251H1.00057ZM116.796 160.988C116.893 161.16 116.998 161.336 117.085 161.51C117.245 161.596 117.779 161.668 117.625 161.685C117.831 161.612 118.003 161.002 117.871 161.151C117.959 160.967 118.236 160.71 117.982 160.509C117.969 160.289 117.656 160.046 117.492 160.307C117.306 160.479 117.172 160.523 116.945 160.506C116.86 160.65 116.762 160.796 116.796 160.988ZM129.97 208.385C130.142 208.508 130.278 208.664 130.453 208.418C130.614 208.139 130.896 208.48 131.072 208.355C131.503 208.275 131.337 208.614 131.585 208.359C131.716 208.417 131.412 207.947 131.542 207.923C131.378 208.099 130.925 207.707 131.028 207.871C130.81 207.837 130.651 208.114 130.464 207.975C130.315 208.214 130.007 208.04 129.969 208.314L129.969 208.36L129.97 208.385H129.97V208.385ZM111.054 280.457C111.21 280.698 111.515 280.661 111.739 280.592C111.895 280.485 112.072 280.415 112.208 280.263C112.38 280.168 112.564 280.092 112.654 279.899C112.82 279.706 112.956 279.497 113.158 279.316C113.1 279.13 112.601 279.496 112.721 279.449C112.514 279.486 112.312 279.554 112.164 279.716C112.018 279.88 111.733 279.468 111.722 279.842C111.649 280.028 111.598 280.281 111.393 280.373C111.325 280.502 111.131 280.362 111.054 280.457V280.457ZM140.892 201.767C140.957 201.965 141.071 202.064 141.257 202.153C141.427 202.486 141.739 202.185 141.558 201.935C141.637 201.749 141.839 201.623 142.034 201.74C142.132 201.951 142.451 201.728 142.43 202.014C142.506 202.425 142.871 201.928 142.62 201.753C142.421 201.671 142.344 201.513 142.146 201.47C141.979 201.293 141.351 201.564 141.531 201.466C141.287 201.484 141.058 201.528 140.892 201.715V201.761V201.767V201.767V201.767ZM87.1104 306.425C87.2278 306.693 87.4488 306.729 87.7027 306.835C87.8633 307.056 88.1281 307.08 88.2969 307.298C88.366 307.504 89.098 307.387 88.912 307.451C89.0673 307.564 89.2453 305.574 89.0374 306.825C89.3558 306.689 89.2971 306.575 89.1671 306.316C89.3102 306.119 89.3341 305.883 89.4174 305.676C89.4796 305.46 89.3245 305.034 89.0751 305.274C88.9965 305.568 88.776 305.438 88.5955 305.559C88.5487 305.847 88.1861 305.501 88.0164 305.697C87.81 305.833 87.221 305.699 87.4131 305.727C87.34 305.97 87.3283 306.19 87.1186 306.369C87.0994 306.381 87.1105 306.405 87.1104 306.425H87.1104ZM73.4726 269.392C73.6304 269.54 73.6157 269.818 73.8526 269.851C74.0712 270.064 74.2016 269.643 74.4235 269.688C74.5998 269.573 74.8669 269.541 74.9424 269.3C75.1048 269.159 75.3164 269.111 75.3213 268.857C75.3485 268.619 75.4582 268.407 75.4233 268.141C75.2693 267.963 75.2323 267.734 75.2214 267.496C75.1269 267.29 74.9209 267.145 74.6944 267.14C74.4761 267.035 74.204 267.078 74.0631 267.303C73.8268 267.336 73.7316 267.594 73.6997 267.801C73.6996 268.03 73.4273 268.211 73.559 268.452C73.573 268.691 73.5282 268.964 73.4956 269.206C73.4474 269.249 73.4861 269.334 73.4726 269.392H73.4726V269.392ZM134.225 204.316C134.309 204.543 134.556 204.55 134.752 204.615C135.002 204.647 135.393 205.549 135.129 205.11C135.5 205.425 135.058 205.223 134.995 205.456C134.985 205.628 134.911 205.749 134.881 205.957C134.612 206.115 135.03 206.261 134.824 206.466C135.02 206.602 135.21 206.749 135.381 206.949C135.483 207.131 135.755 207.163 135.819 206.866C135.66 206.631 135.947 206.391 135.898 206.125C135.936 205.874 136.024 205.605 135.916 205.361C135.787 205.172 135.599 205.026 135.399 204.96C135.272 204.829 135.212 204.565 134.978 204.459C134.82 204.363 134.357 204.076 134.508 204.18C134.371 204.123 134.165 204.046 134.225 204.316V204.316V204.316ZM118.488 267.602C118.565 267.826 118.725 267.915 118.897 268.091C119.102 268.247 119.214 268.458 119.424 268.648C119.532 268.786 119.034 268.952 119.336 269.148C119.534 269.194 119.709 269.309 119.87 269.446C119.917 269.657 120.133 269.81 120.127 270.042C120.309 270.246 120.701 270.239 120.867 270.019C120.843 269.844 120.773 269.584 120.69 269.392C120.618 269.218 120.324 269.222 120.218 268.999C120.026 268.821 119.906 268.615 119.771 268.414C119.735 268.202 119.633 268.024 119.565 267.825C119.418 267.638 119.255 267.457 119.204 267.23C119.041 267.057 119.278 266.734 118.984 266.707C118.63 266.654 118.471 266.715 118.587 267.077C118.563 267.26 118.44 267.388 118.488 267.602V267.602V267.602ZM95.6199 211.966C95.739 212.152 95.8279 212.348 95.8283 212.583C95.7995 212.872 96.1439 212.973 96.29 213.159C96.4511 213.288 96.4625 213.562 96.676 213.616C96.8365 213.863 97.091 213.742 97.3202 213.725C97.5543 213.75 97.7894 213.852 97.9311 213.645C97.9601 213.407 98.0673 213.211 98.2113 213.021C98.3428 212.858 98.3859 212.66 98.5422 212.506C98.6199 212.319 98.7736 212.172 98.805 211.96C98.7488 211.729 98.6171 211.651 98.4234 211.508C98.1342 211.396 97.9008 211.06 97.9309 211.105C97.7738 211.022 97.7494 210.79 97.6088 210.649C97.5191 210.406 96.7486 210.616 96.9373 210.583C97.0196 210.181 95.2928 211.339 96.3487 210.702C96.2059 210.884 95.9886 210.894 95.8283 211.042C95.7712 211.258 95.6794 211.455 95.6744 211.692C95.5748 211.749 95.637 211.874 95.6199 211.966V211.966ZM116.537 274.218C116.746 274.323 116.708 274.628 117.011 274.464C117.193 274.339 117.422 274.593 117.667 274.513C117.893 274.411 118.143 274.394 118.415 274.409C118.657 274.404 118.869 274.335 119.078 274.245C119.235 274.188 120.082 273.655 119.592 273.92C119.821 273.821 119.682 273.482 119.819 273.296C119.743 272.993 120.049 272.844 120.024 272.565C119.981 272.414 119.955 271.985 119.744 272.074C119.5 272.054 119.97 271.566 119.609 271.729C119.452 271.945 119.223 271.956 119.072 272.186C118.802 272.255 119.157 272.51 118.946 272.648C118.775 272.795 118.566 272.855 118.366 272.942C118.125 272.936 117.898 272.814 117.717 273.025C117.615 273.139 117.259 273.61 117.338 273.486C117.171 273.625 116.978 273.711 116.788 273.791C116.624 273.838 116.518 274.049 116.537 274.218V274.218ZM149.491 27.2226C149.739 27.3822 149.542 27.6188 149.644 27.8134C149.842 27.8741 149.948 28.0605 150.085 28.2271C150.261 28.3451 150.466 28.3856 150.641 28.4982C150.891 28.4817 151.055 28.2646 151.234 28.0939C151.228 27.8276 151.51 27.7609 151.593 27.5499C151.726 27.287 152.031 27.0939 152.169 26.8323C152.345 26.7211 152.533 26.6065 152.635 26.3969C152.777 26.2221 152.839 26.0253 152.877 25.8132C153.054 25.5797 152.765 25.386 152.773 25.162C152.685 24.9427 152.268 24.8208 152.346 25.1424C152.297 25.3367 152.124 25.5408 151.952 25.7035C151.881 25.9289 151.593 26.0214 151.383 25.9161C151.151 25.8477 150.896 25.9148 150.698 26.0041C150.541 26.2258 150.246 26.1162 150.035 26.2201C149.833 26.2705 149.445 27.1101 149.666 26.7138C149.702 26.8394 149.83 27.1964 149.519 27.1412C149.476 27.1532 149.492 27.192 149.491 27.2226V27.2226V27.2226ZM130.739 206C130.933 206.235 131.099 205.804 131.311 205.83C131.533 205.712 131.597 205.613 131.832 205.483C131.935 205.408 132.088 205.205 132.388 205.355C132.526 205.452 132.397 205.635 132.661 205.698C132.949 205.6 132.539 206.613 132.792 206.215C132.953 206.383 133.224 206.316 133.376 206.508C133.617 206.708 133.094 206.222 133.281 206.188C133.113 206.126 132.81 206.013 133.028 205.802C133.318 205.694 132.645 205.427 132.822 205.427C132.686 205.199 132.944 204.991 132.945 204.766C133.19 204.69 133.145 204.345 132.94 204.587C132.781 204.798 132.482 204.704 132.302 204.885C132.139 205.081 131.555 205.31 131.692 205.156C131.535 205.337 131.364 205.489 131.125 205.481C130.921 204.992 130.474 206.533 130.794 205.834C130.724 205.871 130.737 205.934 130.739 206V206V206ZM128.176 205.292C128.292 205.471 128.222 205.757 128.509 205.753C128.58 206.069 128.857 205.708 129.097 205.808C129.211 205.912 129.521 205.984 129.509 205.782C129.72 205.615 129.724 205.369 129.799 205.149C129.887 204.884 130.106 204.615 130.073 204.697C130.161 204.514 130.16 204.224 130.349 204.125C130.503 203.967 130.674 203.849 130.869 203.8C131.072 203.641 131.369 203.705 131.635 203.693C131.945 203.72 132.171 203.281 132.092 203.416C132.051 203.268 131.726 203.429 131.585 203.258C131.414 203.333 131.225 203.602 131.023 203.421C130.772 203.389 130.605 203.226 130.438 203.55C130.258 203.779 129.686 203.638 129.861 203.563C129.557 203.513 129.404 203.702 129.455 203.937C129.447 204.161 129.195 204.18 129.073 204.344C128.928 204.453 128.834 204.64 128.708 204.787C128.718 205.029 128.496 205.135 128.306 205.158C128.273 205.247 128.15 205.166 128.176 205.292V205.292V205.292ZM113.722 278.665C113.963 278.711 114.218 278.74 114.453 278.802C114.662 278.859 114.853 278.955 115.081 278.961C115.283 279.073 115.517 279.135 115.773 279.126C116.009 279.13 116.182 279.009 116.351 278.862C116.628 278.822 116.554 278.47 116.31 278.475C116.211 278.301 116.125 278.116 116.079 277.923C116.165 277.673 116.045 277.443 116.079 277.159C116.151 276.944 116.162 276.708 116.233 276.495C116.4 276.3 116.505 276.057 116.385 275.806C116.341 275.566 116.308 275.356 116.467 275.161C116.486 274.976 115.942 274.581 116.102 274.681C115.899 274.566 115.562 275.187 115.685 275.064C115.496 275.277 115.444 275.429 115.679 275.64C115.778 275.825 115.887 276.065 115.769 276.27C115.749 276.494 115.651 276.675 115.568 276.875C115.537 277.086 115.428 277.268 115.358 277.463C115.225 277.612 114.815 278.078 114.899 277.898C114.742 277.98 114.729 278.242 114.511 278.312C114.337 278.447 114.096 278.441 113.902 278.53C113.815 278.502 113.783 278.628 113.722 278.665H113.722V278.665ZM34.156 3.565C34.2189 3.78166 34.2278 4.01167 34.3907 4.19167C34.4759 4.40762 34.732 4.46495 34.7727 4.69391C34.8757 4.90939 35.1562 4.92794 35.2327 5.12779C35.385 5.34409 35.6061 5.43375 35.7668 5.64842C35.9658 5.71224 36.1787 5.75756 36.3669 5.84697C36.5954 5.88814 36.8428 5.8287 37.0333 5.72324C37.198 5.57756 37.435 5.60754 37.6103 5.48745C37.8298 5.49353 38.0443 5.36548 38.1249 5.16241C38.3544 5.07604 38.4517 4.86975 38.6211 4.6949C38.6444 4.48621 38.9617 4.32711 38.8196 4.11081C38.9711 3.93491 38.9549 3.68604 39.0223 3.47448C38.991 3.18053 39.1176 2.9497 39.0758 2.6516C39.0912 2.39524 38.9484 2.19763 38.8196 1.99696C38.7413 1.75512 38.4809 1.68005 38.3324 1.47457C38.1521 1.37216 37.9908 1.21804 37.7899 1.16745C37.6179 1.14515 37.4236 0.910866 37.2557 1.03717C37.0172 0.89804 36.3482 1.29018 36.6091 1.12956C36.3934 1.13372 36.2416 1.29808 36.024 1.31178C35.8612 1.43709 35.6561 1.46439 35.4799 1.56259C35.2816 1.62554 35.1189 1.77842 34.9492 1.90847C34.7648 1.98741 34.5575 2.15381 34.5108 2.36221C34.4788 2.59456 34.3701 2.7857 34.3066 3.00739C34.2168 3.17989 34.1362 3.35057 34.156 3.565V3.565ZM68.8099 274.003C68.8886 274.234 69.1799 274.345 69.2737 274.538C69.383 274.797 69.6747 274.906 69.8422 275.149C70.0402 275.2 69.9941 275.461 70.2012 275.528C70.3815 275.603 70.7148 276.026 70.6076 275.892C70.7597 276.026 70.9274 276.168 71.132 276.197C71.3142 276.333 71.5441 276.31 71.7383 276.219C72.0726 276.238 72.5188 276.255 72.4068 276.23C72.6076 276.288 73.1103 275.956 72.9385 276.032C73.0944 275.851 73.2587 275.8 73.3523 275.594C73.5638 275.448 73.5291 275.196 73.681 275.03C73.7045 274.811 73.7937 274.626 73.8838 274.435C74.1049 274.141 73.759 273.81 73.7506 273.858C73.6944 273.633 73.6329 273.421 73.5759 273.203C73.4618 273.017 73.2892 272.848 73.2191 272.648C73.2395 272.409 73.0187 272.299 72.8363 272.237C72.6067 272.093 72.6504 271.834 72.5273 271.642C72.3703 271.419 71.7489 271.195 72.033 271.389C71.8714 271.218 71.6824 271.384 71.552 271.207C71.3238 271.296 71.0728 271.257 70.8376 271.207C70.6444 271.138 70.4914 270.958 70.2766 270.938C70.0913 271.039 69.8868 271.233 69.8848 271.452C69.7944 271.664 69.5823 271.733 69.4774 271.939C69.4182 272.138 69.2882 272.308 69.2735 272.524C69.1798 272.704 69.0313 272.861 69.0118 273.079C68.8612 273.264 68.9203 273.528 68.8081 273.727C68.8086 273.819 68.8094 273.911 68.8099 274.003H68.8099V274.003ZM77.2697 380.126C77.3848 380.414 77.2871 380.783 77.3195 381.102C77.3906 381.322 77.6224 381.325 77.7695 381.47C77.9754 381.551 77.9927 381.802 78.1678 381.943C78.2492 382.149 78.4883 382.302 78.5473 382.513C78.6982 382.727 78.958 382.711 79.1425 382.864C79.3559 382.929 79.5796 382.989 79.7243 383.213C79.709 383.496 80.064 383.464 80.1715 383.686C80.2882 383.889 80.4954 384.057 80.6111 384.26C80.7883 384.522 81.2447 384.505 81.142 384.49C81.3068 384.706 81.6058 384.566 81.626 384.31C81.6207 384.06 81.8265 383.899 81.7813 383.636C81.8303 383.347 81.7098 383.12 81.6771 382.862C81.6733 382.587 81.5948 382.341 81.6282 382.052C81.6332 381.789 81.6677 381.535 81.7099 381.287C81.7768 381.035 81.773 380.824 81.7268 380.561C81.6071 380.353 81.5737 380.116 81.5423 379.874C81.5137 379.639 81.4064 379.409 81.5729 379.205C81.6288 378.964 81.6595 378.709 81.7107 378.466C81.7949 378.203 81.6329 377.965 81.6282 377.709C81.6669 377.445 81.6025 377.228 81.4677 377.034C81.2742 376.828 81.4381 376.56 81.4198 376.312C81.4305 376.07 81.2845 375.893 81.2133 375.68C81.0791 375.507 80.9768 375.321 80.9608 375.105C81.065 374.854 80.9386 374.647 80.9085 374.401C80.868 374.18 81.2403 374.023 81.1129 373.836C80.9775 373.667 81.2106 373.215 80.8908 373.212C80.6334 373.159 80.6192 373.49 80.388 373.518C80.2808 373.702 80.1394 373.866 80.038 374.053C80.0141 374.272 79.7644 374.323 79.7273 374.541C79.6565 374.741 79.587 374.929 79.5255 375.129C79.6153 375.467 79.2199 375.61 79.165 375.891C79.2157 376.181 78.8653 376.193 78.8042 376.434C78.8084 376.725 78.0566 377.004 78.3718 376.792C78.1817 376.862 78.0917 377.11 78.0883 377.305C77.9211 377.482 77.9699 377.746 77.8865 377.957C77.6626 378.107 77.6396 378.34 77.5748 378.554C77.4973 378.752 77.3619 378.926 77.318 379.143C77.2755 379.409 77.2531 379.684 77.2694 379.974C77.2695 380.025 77.2696 380.075 77.2696 380.126H77.2697V380.126Z" fill="#92D050" stroke="#92D050" stroke-width="0.6" stroke-linecap="round"/>
<path d="M59.5328 358.919C59.4373 359.382 58.9947 359.689 58.544 359.741C58.4286 359.759 58.3133 359.778 58.198 359.797L59.5328 358.919ZM69.2064 361.954C69.0627 362.05 68.7166 362.181 68.4744 362.247C68.1452 362.377 67.8245 362.568 67.4564 362.537C66.9228 362.596 66.3803 362.618 65.8553 362.485C65.2768 362.36 64.6759 362.381 64.1063 362.541C63.5438 362.65 62.8978 362.692 62.4203 362.316C62.1384 362.057 62.0645 361.672 61.9918 361.313C61.9513 360.593 62.0969 359.834 61.785 359.153C61.6956 358.808 61.5061 358.498 61.23 358.27L69.2064 361.954ZM73.3601 350.246C72.8972 350.093 72.391 350.295 71.9342 350.113C71.8515 349.744 72.0446 349.417 72.1168 349.067C72.1566 348.587 72.7678 348.745 73.0854 348.601C73.405 348.464 73.7515 348.38 74.0269 348.157C74.4369 347.919 74.8873 347.715 75.3538 347.641C75.7158 347.751 75.968 348.137 75.9023 348.515C75.9294 348.968 75.6081 349.311 75.3394 349.635C75.114 349.975 74.8193 350.294 74.3951 350.359C74.0407 350.494 73.7036 350.326 73.3601 350.246V350.246ZM68.7034 361.23C67.8839 361.417 67.0355 361.704 66.1896 361.516C65.7451 361.406 65.4221 361.052 65.2198 360.657C65.2037 360.284 65.2203 359.873 65.4604 359.567C65.7004 359.226 66.0966 359.115 66.4911 359.087C67.065 358.966 67.5489 359.37 68.0411 359.589C68.4377 359.802 68.8937 359.837 69.3351 359.817C69.6141 359.924 69.9076 359.986 70.2068 359.95C70.7784 359.971 71.2697 359.658 71.7773 359.448C72.257 359.266 72.8324 359.311 73.2288 358.938C73.5489 358.715 73.8717 358.426 73.9134 358.012C73.992 357.636 73.9716 357.254 73.8929 356.88C73.8303 356.476 73.6858 356.082 73.7431 355.668C73.7741 355.251 73.8117 354.7 74.2057 354.477C74.5543 354.331 75.0059 354.449 75.1917 354.788C75.4938 355.107 75.5602 355.557 75.7304 355.947C75.8896 356.435 76.1142 356.944 76.0065 357.466C75.8243 357.792 75.5595 358.064 75.1939 358.173C74.8418 358.317 74.6551 358.661 74.4946 358.985C74.3586 359.278 74.408 359.608 74.3674 359.916C74.2674 360.267 73.9992 360.463 73.6843 360.619L68.7034 361.23ZM61.8793 357.092C61.4434 357.197 61.0018 357.164 60.5533 357.101C60.1588 357.03 59.6843 357.442 59.4121 357.034C59.2623 356.753 59.4383 356.446 59.7724 356.441C60.2102 356.268 60.6741 356.18 61.1115 356.003C61.5271 355.858 61.9418 355.715 62.3324 355.512C62.6263 355.403 63.0296 355.31 63.2778 355.548C63.6257 355.832 63.3911 356.369 63.0319 356.547C62.738 356.784 62.3923 356.934 62.0322 357.038C61.9812 357.056 61.9303 357.074 61.8793 357.092V357.092ZM122.951 170.654C122.96 170.34 122.932 169.951 123.253 169.741C123.746 169.481 124.321 169.485 124.864 169.49C125.248 169.433 125.55 169.171 125.878 168.985C126.238 168.685 126.668 168.368 127.166 168.441C127.525 168.434 127.872 168.832 127.742 169.19C127.729 169.494 127.536 169.676 127.227 169.826C126.691 170.108 126.054 169.951 125.507 170.192C125.21 170.252 125.009 170.475 124.799 170.673C124.511 170.956 124.062 170.906 123.71 171.063C123.412 171.167 123.136 170.882 122.954 170.658L122.951 170.654V170.654H122.951ZM83.5494 236.694C83.438 236.296 83.3863 235.847 83.5484 235.444C83.6346 235.099 83.8783 234.812 84.1813 234.632C84.6158 234.59 85.0272 234.996 85.0245 235.42C85.0218 235.898 84.691 236.292 84.5263 236.725C84.4318 237.031 84.0009 237.619 83.7098 237.398C83.641 237.167 83.4941 236.944 83.5495 236.694H83.5494ZM88.6529 225.075C88.5753 224.65 88.7303 224.179 88.9597 223.839C89.2312 223.644 89.5756 223.475 89.9115 223.611C90.3274 223.647 90.3879 224.113 90.2939 224.443C90.2009 224.82 89.8212 225.007 89.5951 225.296C89.3773 225.532 88.9726 225.461 88.7616 225.279C88.7254 225.211 88.6891 225.143 88.6529 225.075V225.075ZM109.402 286.671C109.681 286.426 110.072 286.389 110.358 286.15C110.642 286.05 110.872 285.866 111.073 285.643C111.137 285.593 111.2 285.542 111.261 285.488L109.402 286.671ZM103.735 301.333C103.927 300.977 104.066 300.598 104.134 300.199C104.257 299.761 104.35 299.311 104.509 298.886C104.734 298.422 105.045 297.992 105.48 297.706C105.773 297.492 106.018 297.197 106.038 296.822C106.128 296.194 106.208 295.538 106.556 294.991C106.836 294.53 107.115 294.065 107.494 293.676C107.85 293.378 107.752 292.915 107.502 292.585C107.23 292.161 107.041 291.692 106.752 291.278C106.364 290.653 105.861 290.055 105.775 289.299C105.727 288.912 105.673 288.542 105.793 288.16L103.735 301.333ZM96.1965 305.916C95.7739 305.943 95.5207 305.555 95.5049 305.167C95.5114 304.749 95.9296 304.511 96.0561 304.137C96.1872 303.849 96.2039 303.413 96.5421 303.301C96.9721 303.176 97.3811 303.605 97.3915 304.016C97.4088 304.518 97.1852 305 96.9368 305.426C96.7643 305.724 96.5432 305.891 96.1965 305.916ZM98.9387 309.113C98.5683 308.99 98.3083 308.72 98.2126 308.34C98.0989 307.948 97.8371 307.645 97.5355 307.383C97.2707 307.111 96.9779 306.743 97.1081 306.341C97.1728 305.978 97.5451 305.705 97.8998 305.681C98.3844 305.61 98.9033 305.832 99.1784 306.24C99.3843 306.633 99.5017 307.076 99.577 307.511C99.765 307.977 100.189 308.365 100.191 308.893C100.27 309.267 99.8231 309.452 99.5219 309.337C99.3231 309.3 99.0549 309.308 98.9387 309.113V309.113ZM98.603 316.804C98.3561 316.566 98.3377 316.228 98.4267 315.916C98.5915 315.644 98.5114 315.373 98.3589 315.115C98.1335 314.554 98.0422 313.936 98.1637 313.339C98.1778 312.936 98.3843 312.589 98.5129 312.217C98.6609 311.799 98.9909 311.484 99.2776 311.16C99.6598 310.861 99.9537 310.471 100.171 310.04C100.314 309.772 100.492 309.475 100.818 309.42C101.145 309.414 101.513 309.354 101.812 309.503C102.261 309.816 102.837 309.882 103.364 309.786C103.762 309.799 104.218 309.708 104.563 309.945C104.941 310.124 105.146 310.5 105.266 310.885C105.398 311.277 105.511 311.675 105.681 312.052C105.795 312.476 105.747 312.959 105.47 313.311C105.192 313.668 105.11 314.14 105.2 314.578C105.204 315.095 105.273 315.645 105.053 316.129C104.819 316.486 104.704 316.942 104.318 317.179C104.095 317.449 103.615 317.329 103.573 316.984C103.442 316.643 103.63 316.293 103.663 315.949C103.763 315.4 103.907 314.853 103.874 314.291C103.861 313.872 103.922 313.39 103.615 313.056C103.238 312.81 102.765 312.868 102.354 312.991C101.721 313.14 100.995 313.229 100.568 313.78C100.297 314.206 100.157 314.743 100.244 315.249C100.327 315.918 100.173 316.612 99.8521 317.201C99.6278 317.482 99.0771 317.797 98.7929 317.505C98.587 317.337 98.6636 317.036 98.603 316.804V316.804ZM92.2685 317.492C92.2222 317.094 92.1035 316.625 92.4104 316.299C92.7112 316.094 92.708 315.711 92.7246 315.384C92.6631 314.88 93.0453 314.455 93.4448 314.205C93.8126 314.136 94.2274 314.113 94.5411 314.355C94.6884 314.582 94.5457 314.958 94.5043 315.232C94.3693 315.687 94.671 316.072 94.907 316.43C95.1084 316.701 95.3026 317.215 95.0015 317.463C94.7365 317.744 94.3476 317.664 94.0184 317.785C93.6846 317.935 93.4316 318.241 93.0631 318.336C92.7228 318.384 92.2388 318.094 92.2904 317.692C92.2831 317.625 92.2758 317.559 92.2685 317.492H92.2685ZM99.4516 328.258C99.3063 327.914 99.2986 327.489 99.2339 327.111C99.1865 326.683 99.1561 326.247 99.2852 325.83C99.3623 325.487 99.6175 325.216 99.6803 324.865C99.8361 324.424 99.6769 323.973 99.6015 323.537C99.6191 323.194 99.7119 322.778 100.065 322.632C100.472 322.393 100.9 322.635 101.193 322.94C101.461 323.102 101.62 323.367 101.766 323.633C101.97 323.937 102.04 324.34 101.815 324.652C101.678 325.106 101.061 325.127 100.926 325.58C100.757 325.93 100.715 326.316 100.727 326.699C100.633 327.18 100.513 327.658 100.45 328.146C100.418 328.443 100.195 328.842 99.8465 328.739C99.511 328.768 99.6247 328.429 99.4516 328.258V328.258ZM91.2396 323.753C90.8695 323.698 90.5654 323.456 90.1979 323.391C89.9018 323.277 89.6473 323.073 89.3345 322.995C88.8887 322.869 88.4625 322.691 88.047 322.488C87.662 322.322 87.2475 322.182 86.9234 321.91C86.7117 321.657 86.4963 321.371 86.5187 321.024C86.5033 320.663 86.7721 320.316 87.1313 320.255C87.5284 320.201 87.9628 320.216 88.2893 319.943C88.6909 319.697 88.9604 319.306 89.1336 318.876C89.2568 318.484 89.5156 318.048 89.9883 318.092C90.3134 318.096 90.6021 318.344 90.595 318.68C90.6107 319.144 90.5621 319.629 90.6587 320.079C90.7186 320.51 91.1603 320.66 91.4662 320.883C91.7052 321.128 92.0596 321.237 92.2413 321.543C92.5014 321.924 92.7542 322.37 92.7197 322.846C92.7254 323.242 92.6778 323.667 92.413 323.982C92.0062 324.081 91.5716 324.017 91.2396 323.753V323.753ZM73.7569 340.846C73.3635 340.717 72.9337 340.442 72.8317 340.016C72.7459 339.585 73.0533 339.259 73.3527 338.995C73.7011 338.68 74.0735 338.312 74.5765 338.312C75.0459 338.234 75.4048 338.69 75.5184 339.096C75.5856 339.397 75.524 339.732 75.3815 340.004C75.2458 340.366 74.8943 340.542 74.578 340.717C74.3426 340.886 74.0328 340.867 73.7569 340.846V340.846ZM84.2011 313.502C84.0192 313.125 83.739 312.694 83.9889 312.273C84.1772 311.834 84.711 311.704 84.9269 311.282C85.0913 310.934 85.6015 310.712 85.8966 311.041C86.1894 311.25 86.3304 311.768 86.0411 312.041C85.7137 312.372 85.562 312.816 85.3728 313.23C85.2046 313.549 84.8589 313.582 84.5413 313.528C84.4279 313.519 84.3146 313.509 84.2011 313.502ZM50.0468 326.372C49.8464 326.78 50.0822 327.186 50.5204 327.278C50.8563 327.349 51.207 327.275 51.5481 327.269C51.8919 327.182 52.2726 327.039 52.447 326.7C52.6286 326.452 52.6656 326.153 52.6997 325.856L50.0468 326.372ZM49.7124 311.62C49.6719 311.279 49.6667 310.909 49.6082 310.557C49.5773 310.056 49.6603 309.557 49.7312 309.062C49.8922 308.732 50.2596 308.31 50.5588 308.747C50.9904 309.442 50.8319 310.293 50.8749 311.066C50.8606 311.414 50.9641 311.916 50.5457 312.059C50.1287 312.176 50.0182 311.801 49.7124 311.62H49.7124ZM87.8056 298.751C87.721 298.422 87.8447 298.035 88.0804 297.786C88.2954 297.525 88.5159 297.253 88.8431 297.13C89.1728 296.901 89.5608 297.071 89.882 297.229C90.318 297.376 90.523 297.879 90.2958 298.282C90.1092 298.674 89.6242 298.772 89.2441 298.893C88.918 298.943 88.5825 298.928 88.2542 298.91C88.0995 298.874 87.9575 298.797 87.8056 298.751V298.751ZM95.7079 292.774C95.9888 292.993 96.2229 293.295 96.5836 293.383C96.9344 293.564 97.3171 293.593 97.7042 293.583C98.4526 293.637 99.24 293.567 99.9436 293.878C100.143 294.083 100.624 294.164 100.617 294.486C100.647 294.669 100.605 294.821 100.415 294.893C99.9827 295.228 99.4259 295.167 98.9212 295.084L95.7079 292.774ZM98.9212 295.084C98.4547 294.992 97.9824 294.914 97.53 294.768C96.948 294.698 96.3768 294.487 95.8939 294.155C95.6456 293.876 95.2574 293.789 94.9069 293.902C94.5128 294.07 94.0316 293.991 93.7507 293.648C93.5135 293.328 93.2426 293.033 92.8957 292.829C92.6164 292.637 92.3581 292.423 92.0411 292.295C91.604 292.083 91.2938 291.639 91.2871 291.147C91.2163 290.659 91.4783 290.17 91.9315 289.969C92.3625 289.764 92.8281 289.993 93.1313 290.317C93.5256 290.596 93.6975 291.07 94.0504 291.387C94.1458 291.416 94.2411 291.446 94.3365 291.476L98.9212 295.084ZM87.4256 287.226C87.3821 287.577 87.4152 288.045 87.8611 288.079C88.2275 288.235 88.6274 288.155 89.0092 288.21C89.4608 288.056 89.9347 288.198 90.3963 288.188C90.6845 288.119 90.99 288.294 91.2717 288.15C91.6179 288.104 92.0358 288.027 92.3126 288.293C92.7575 288.554 93.1216 288.128 93.4039 287.844C93.69 287.692 94.1139 287.733 94.3517 287.971C94.6373 288.217 95.0133 288.245 95.3679 288.173C95.7388 288.114 95.8007 287.664 95.8714 287.36C95.6918 286.823 95.2023 286.47 94.6902 286.281C94.6389 286.259 94.5877 286.237 94.5365 286.215L87.4256 287.226ZM88.5268 285.585C88.9116 285.28 89.2874 285.637 89.5179 285.954C89.8893 286.331 90.3952 286.601 90.9381 286.548C91.4906 286.538 91.9872 286.281 92.5154 286.157L88.5268 285.585ZM102.243 285.484C101.9 285.275 101.511 285.055 101.326 284.683C101.172 284.34 101.292 283.979 101.512 283.698C101.777 283.324 101.523 282.902 101.545 282.489C101.566 282.052 101.548 281.592 101.811 281.218C102.016 280.851 102.311 280.515 102.68 280.309C103.088 280.488 102.765 281.009 102.941 281.336C103.067 281.792 103.32 282.198 103.635 282.547C103.856 282.826 103.872 283.207 103.895 283.549C103.857 284.233 103.603 284.898 103.231 285.469C103.018 285.771 102.517 285.581 102.243 285.485V285.484ZM93.51 278.049C93.816 278.131 94.1638 278.469 94.4617 278.317C94.7647 278.089 94.5188 277.713 94.3887 277.459C94.1094 277.144 93.651 277.05 93.346 276.772C93.0664 276.368 92.7729 275.965 92.4436 275.605C92.2214 275.258 91.7346 275.527 91.624 275.824C91.4569 276.328 91.7564 276.805 91.8673 277.285L93.51 278.049ZM103.198 277.66C102.93 277.477 102.75 277.13 102.398 277.057C101.873 276.857 101.225 276.778 100.902 276.259C100.695 276.038 100.55 275.776 100.455 275.489C100.33 275.232 100.125 274.655 100.525 274.566C100.858 274.466 101.201 274.69 101.378 274.964C101.582 275.213 101.885 275.423 102.219 275.323C102.555 275.267 102.961 275.347 103.08 275.713C103.332 276.179 103.772 276.482 104.177 276.8C104.268 277.087 104.525 277.719 104.081 277.821C103.779 277.843 103.495 277.698 103.198 277.66H103.198ZM101.648 272.273C101.361 272.009 100.973 271.885 100.709 271.592C100.424 271.345 100.212 271.029 99.9846 270.735C99.8861 270.431 99.8755 269.868 100.334 269.904C100.707 269.977 101.091 269.79 101.442 269.892C101.845 270.064 102.285 270.23 102.54 270.608C102.82 270.903 102.836 271.332 102.85 271.715C102.747 271.958 102.766 272.368 102.51 272.476C102.211 272.589 101.924 272.359 101.648 272.273V272.273ZM108.379 264.987C108.129 264.582 107.949 264.095 108.078 263.617C108.195 263.15 108.397 262.712 108.595 262.276C108.924 261.833 108.992 262.541 109.077 262.771C109.269 263.056 109.651 263.197 109.69 263.569C109.818 264.075 109.659 264.612 109.332 265.009C109.226 265.366 108.745 265.359 108.549 265.084C108.488 265.064 108.456 264.889 108.379 264.987V264.987ZM110.046 273.47C110.164 273.229 110.206 272.905 110.357 272.655C110.616 272.186 110.707 271.624 111.101 271.236C111.431 270.852 112.019 270.779 112.381 271.158C112.61 271.378 112.376 271.725 112.284 271.965C112.027 272.43 111.712 272.882 111.641 273.424C111.571 273.811 111.329 274.163 111.015 274.395C110.665 274.663 110.201 274.346 110.158 273.953C110.018 273.775 110.229 273.59 110.046 273.47V273.47ZM113.372 272.712C113.58 272.452 113.552 272.075 113.793 271.829C113.942 271.458 114.266 271.225 114.518 270.933C114.898 270.38 114.866 269.662 114.78 269.026C114.759 268.462 114.815 267.888 115.058 267.37C115.11 266.929 115.806 266.667 116.01 267.122C116.219 267.423 116.133 267.822 116.121 268.169C116.066 268.564 115.904 268.991 116.111 269.371C116.293 269.742 116.317 270.204 116.088 270.562C115.785 271.113 115.367 271.603 115.168 272.209C114.921 272.775 114.598 273.316 114.174 273.769C114.001 274.113 113.54 273.944 113.394 273.662C113.273 273.353 113.352 273.031 113.372 272.712H113.372Z" stroke="#92D050" stroke-width="0.5" stroke-linecap="round"/>
</svg>
