<svg width="136" height="173" viewBox="0 0 136 173" fill="none" xmlns="http://www.w3.org/2000/svg">
<path fill-rule="evenodd" clip-rule="evenodd" d="M13.2056 11.5178L13.2677 11.6603L13.2854 11.8473L13.1879 11.9541L13.0018 11.9363L12.922 11.8027L12.8511 11.6603L12.8954 11.5L12.9751 11.3754L13.1614 11.3932L13.2056 11.5178Z" stroke="#92D050" stroke-width="0.2835" stroke-miterlimit="3.86369"/>
<path fill-rule="evenodd" clip-rule="evenodd" d="M43.8362 56.8999L43.916 57.0334L44.0047 57.1492L44.0844 57.2916L44.0225 57.4162L43.8362 57.3985L43.7121 57.3183L43.6234 57.1936L43.5703 57.0512L43.5879 56.8643L43.7387 56.9177L43.8362 56.8999Z" stroke="#92D050" stroke-width="0.2835" stroke-miterlimit="3.86369"/>
<path fill-rule="evenodd" clip-rule="evenodd" d="M11.0304 10.4169L11.0927 10.3746C11.2195 10.427 11.2992 10.547 11.4486 10.5399L11.4763 10.6166L11.5603 10.6579L11.5469 10.6933C11.4052 10.7051 11.1106 10.7082 11.0249 10.5635L11.0304 10.4169Z" fill="#92D050" stroke="#92D050" stroke-width="2.5512" stroke-miterlimit="3.86369" stroke-linejoin="round"/>
<path fill-rule="evenodd" clip-rule="evenodd" d="M12.7747 11.4327V11.4049L12.8231 11.4395C12.8723 11.5642 12.9812 11.648 13.0882 11.7236C13.1876 11.6431 12.986 11.3016 12.919 11.2295L12.9743 11.1874C13.2591 11.51 13.3909 11.9877 13.5997 12.3694L13.5927 12.404C13.4144 12.3408 13.3424 12.1418 13.264 11.9875L13.1809 11.9605C13.1316 11.8957 12.3953 11.3056 12.7747 11.4327Z" fill="#92D050" stroke="#92D050" stroke-width="2.5512" stroke-miterlimit="3.86369" stroke-linejoin="round"/>
<path fill-rule="evenodd" clip-rule="evenodd" d="M48.7125 24.5647C48.7814 24.7796 48.6833 24.748 48.6575 24.8581C48.5568 24.9124 48.3096 24.9208 48.207 24.8758C48.1692 24.834 48.0372 24.6091 48.0166 24.5563C48.0919 24.5081 48.6306 24.5342 48.7125 24.5647Z" fill="#92D050" stroke="#92D050" stroke-width="2.5512" stroke-miterlimit="3.86369" stroke-linejoin="round"/>
<path fill-rule="evenodd" clip-rule="evenodd" d="M18.6428 29.6571C19.0416 29.9726 18.8841 30.1207 18.6557 30.4596H18.6138L18.5506 30.4184C18.5129 30.2136 18.3742 30.1028 18.4501 29.8813L18.6428 29.6571Z" fill="#92D050" stroke="#92D050" stroke-width="2.5512" stroke-miterlimit="3.86369" stroke-linejoin="round"/>
<path fill-rule="evenodd" clip-rule="evenodd" d="M43.8147 57.13C43.9017 57.2934 44.1128 57.5343 43.9928 57.7278L43.9587 57.721C43.947 57.5955 43.7561 57.3442 43.6694 57.2633L43.6829 57.2L43.7386 57.1443L43.8147 57.13Z" fill="#92D050" stroke="#92D050" stroke-width="2.5512" stroke-miterlimit="3.86369" stroke-linejoin="round"/>
<path fill-rule="evenodd" clip-rule="evenodd" d="M43.7026 58.9841C43.7096 58.9275 43.7115 58.866 43.7021 58.8096L43.7431 58.7328L43.7985 58.7531C43.7987 58.8046 43.8266 58.7131 43.8833 58.8432C43.9462 58.8604 44.0019 58.8997 44.0572 58.9327C44.1548 58.9511 44.206 58.8613 44.2937 58.8475C44.3009 58.879 44.2964 58.927 44.2735 58.952C44.1269 59.0356 43.838 59.1499 43.7026 58.9841Z" fill="#92D050" stroke="#92D050" stroke-width="2.5512" stroke-miterlimit="3.86369" stroke-linejoin="round"/>
<path fill-rule="evenodd" clip-rule="evenodd" d="M89.4553 65.5745C89.4449 65.4918 89.4019 65.4176 89.3774 65.3384C89.3978 65.2931 89.4293 65.2507 89.4599 65.2119C89.4788 65.2104 89.5715 65.26 89.5715 65.26C89.5321 65.2511 89.5796 65.1979 89.7593 65.367L90.077 65.6664L90.029 65.7499C90.0537 65.879 90.0302 65.8137 89.9322 65.883C90.0279 66.017 90.1166 66.1253 90.1517 66.2928L90.2499 66.34C90.2754 66.284 90.3151 66.2369 90.3388 66.179C90.3396 66.0993 90.2838 66.0391 90.2185 65.9995C90.2024 66.0062 90.1772 65.9948 90.1701 65.9792C90.2694 65.8479 90.1756 65.8692 90.2873 65.9286L90.3154 65.8797L90.3638 65.8519L90.4468 65.8721C90.5285 65.9499 90.5826 66.1305 90.6382 66.1697L90.646 66.2321L90.3707 66.5972L90.1959 66.5846C90.1452 66.3505 89.6607 65.7017 89.4553 65.5745Z" fill="#92D050" stroke="#92D050" stroke-width="2.5512" stroke-miterlimit="3.86369" stroke-linejoin="round"/>
<path fill-rule="evenodd" clip-rule="evenodd" d="M82.3438 81.1616L82.4138 80.9922C82.4256 81.0444 82.3769 81.1262 82.3438 81.1616Z" fill="#92D050" stroke="#92D050" stroke-width="2.5512" stroke-miterlimit="3.86369" stroke-linejoin="round"/>
<path fill-rule="evenodd" clip-rule="evenodd" d="M82.3283 81.1768C82.2622 81.2929 81.8975 81.8065 81.8925 81.9094L81.7676 81.9439C81.7861 81.7284 82.1723 81.3261 82.3283 81.1768Z" fill="#92D050" stroke="#92D050" stroke-width="2.5512" stroke-miterlimit="3.86369" stroke-linejoin="round"/>
<path fill-rule="evenodd" clip-rule="evenodd" d="M105.099 98.1702C105.732 97.3472 105.231 97.4645 105.343 96.7732C105.173 96.4759 105.002 96.2017 104.965 95.8501L105.042 95.8703C105.108 96.18 105.512 96.6595 105.505 96.8828C105.503 96.9286 105.453 97.0085 105.458 97.0507C105.477 97.2132 105.58 97.8532 105.53 97.984C105.429 98.121 105.287 98.179 105.142 98.2529L105.099 98.1702Z" fill="#92D050" stroke="#92D050" stroke-width="2.5512" stroke-miterlimit="3.86369" stroke-linejoin="round"/>
<path fill-rule="evenodd" clip-rule="evenodd" d="M102.386 100.867L102.479 101.145L102.36 101.048L102.294 100.764L102.488 100.581L102.489 100.692L102.386 100.867Z" fill="#92D050" stroke="#92D050" stroke-width="2.5512" stroke-miterlimit="3.86369" stroke-linejoin="round"/>
<path fill-rule="evenodd" clip-rule="evenodd" d="M125.03 123.771L124.939 123.745L124.889 123.668C124.921 123.545 124.83 123.349 124.792 123.23L124.603 123.1L124.491 123.15L124.399 123.13L124.545 122.982L124.784 123.077C124.887 123.22 124.959 123.36 125.026 123.52L124.988 123.723L125.03 123.771Z" fill="#92D050" stroke="#92D050" stroke-width="2.5512" stroke-miterlimit="3.86369" stroke-linejoin="round"/>
<path fill-rule="evenodd" clip-rule="evenodd" d="M125.344 124.304L125.449 124.289C125.902 124.616 125.819 124.997 125.807 125.491L125.682 125.534L125.631 125.424L125.698 125.13C125.62 124.878 125.551 124.475 125.344 124.304Z" fill="#92D050" stroke="#92D050" stroke-width="2.5512" stroke-miterlimit="3.86369" stroke-linejoin="round"/>
<path fill-rule="evenodd" clip-rule="evenodd" d="M80.5128 83.9672L80.3266 83.9494L80.2646 83.807C80.2863 83.5929 80.4952 82.9009 80.6813 82.783L80.8408 82.8186C80.8417 83.024 80.6532 83.8299 80.5128 83.9672Z" fill="#92D050" stroke="#92D050" stroke-width="2.5512" stroke-miterlimit="3.86369" stroke-linejoin="round"/>
<path fill-rule="evenodd" clip-rule="evenodd" d="M114.339 165.559C114.346 165.502 114.348 165.441 114.338 165.384L114.379 165.307L114.435 165.328C114.435 165.379 114.463 165.288 114.52 165.418C114.582 165.435 114.638 165.474 114.693 165.507C114.791 165.526 114.842 165.436 114.93 165.422C114.937 165.454 114.932 165.502 114.91 165.527C114.763 165.61 114.474 165.725 114.339 165.559Z" fill="#92D050" stroke="#92D050" stroke-width="2.5512" stroke-miterlimit="3.86369" stroke-linejoin="round"/>
</svg>
