<svg width="115" height="212" viewBox="0 0 115 212" fill="none" xmlns="http://www.w3.org/2000/svg">
<path d="M15.8365 61.1631C15.6739 61.1941 15.67 61.408 15.8012 61.213C15.8879 61.0498 16.075 61.1004 15.9997 61.2913C16.001 61.4437 16.0023 61.604 15.9377 61.7395C15.948 61.884 16.027 62.0361 15.9526 62.1709C15.9749 62.3112 15.9876 62.4669 15.817 62.5028C15.6061 62.6403 15.93 62.574 15.9329 62.4436C16.1156 62.472 16.0774 62.677 16.1075 62.8151C16.1445 62.9633 16.052 63.0765 16.0419 63.2109C16.0498 63.3393 16.1447 63.4726 15.9979 63.5681C16.1484 63.7018 15.7467 63.6428 15.8396 63.6908C16.0141 63.7974 16.0665 63.6639 16.0569 63.5078C16.1907 63.4669 16.148 63.7315 16.1788 63.8306C16.1712 63.9639 16.3208 64.0279 16.3258 64.1482C16.3375 64.2881 16.3412 64.429 16.3659 64.5674C16.5398 64.4974 16.4468 64.9133 16.5192 64.6885C16.5109 64.5821 16.3604 64.4517 16.4805 64.3591C16.6089 64.2736 16.7786 64.3818 16.9125 64.4057C17.0537 64.3903 17.2161 64.4046 17.1495 64.5845C17.1979 64.6604 16.9205 64.8695 17.096 64.8034C17.1665 64.6901 17.1711 64.5605 17.2191 64.4744C17.211 64.3101 17.4112 64.5124 17.51 64.4752C17.7343 64.4781 17.9593 64.4438 18.181 64.4236C18.2734 64.3846 18.5064 64.336 18.4852 64.497C18.4493 64.6578 18.2407 64.5982 18.2267 64.7462C18.2701 64.9371 18.2986 64.6949 18.3811 64.6353C18.5719 64.709 18.4749 64.3813 18.6364 64.4291C18.8372 64.4966 19.03 64.3877 19.193 64.2892C19.3189 64.2447 19.4523 64.2316 19.5828 64.2067C19.5242 64.0917 19.5721 63.9366 19.6219 63.8291C19.6718 63.7042 19.7116 63.596 19.8439 63.5307C19.9184 63.4331 19.946 63.3114 20.0843 63.2573C20.1935 63.1969 20.3359 63.132 20.3427 62.9835C20.4131 62.8399 20.4216 62.664 20.4693 62.5164C20.5718 62.4206 20.7491 62.2961 20.6465 62.1371C20.5914 61.9827 20.5631 61.8268 20.5811 61.6612C20.5839 61.4716 20.5975 61.2781 20.4737 61.1228C20.3684 61.0148 20.4499 60.8495 20.4858 60.7258C20.5506 60.5629 20.5979 60.389 20.709 60.2465C20.7903 60.0813 20.7188 59.8906 20.7742 59.7285C20.8161 59.5471 20.6121 59.4125 20.6801 59.2318C20.5361 59.1724 20.6809 58.981 20.5497 58.9146C20.5911 58.6562 20.7017 58.3463 20.9957 58.2934C21.1206 58.2375 21.298 58.2426 21.3863 58.1407C21.3661 57.958 21.5663 58.0191 21.6811 57.9655C21.8265 57.936 21.9021 58.0814 22.0233 58.1264C22.257 58.3384 22.6132 58.3618 22.9089 58.2797C23.0856 58.3118 23.3198 58.2093 23.4458 58.3719C23.5167 58.5208 23.3025 58.6432 23.1882 58.5566C23.0815 58.5693 22.9281 58.6083 22.8423 58.6863C22.7435 58.7921 22.5792 58.8058 22.4981 58.939C22.4235 59.0617 22.5961 59.1556 22.6199 59.2779C22.7323 59.4301 22.5087 59.4992 22.5625 59.6309C22.6695 59.6927 22.8063 59.6918 22.8911 59.7963C23.0353 59.8275 22.9292 60.0512 23.0087 60.1541C23.0878 60.2946 23.071 60.4809 23.0329 60.6278C22.9573 60.732 22.9021 60.8684 22.7503 60.8704C22.8769 60.8752 23.0889 60.8666 22.9932 61.0504C22.9463 61.2018 23.1082 61.2715 23.0593 61.4219C23.0664 61.5787 23.1294 61.6585 23.2819 61.5756C23.2041 61.7016 23.0471 61.7757 23.0107 61.9227C23.0824 62.0509 23.0751 62.1397 23.0661 62.2857C23.0488 62.4909 23.2339 62.6202 23.3399 62.7746C23.5005 62.9329 23.5583 63.1476 23.6622 63.3387C23.7237 63.5346 23.6817 63.7937 23.8431 63.9389C23.9601 64.0356 24.0575 63.8447 24.1498 63.7864C24.2543 63.6259 24.4455 63.5237 24.5018 63.3359C24.6687 63.2837 24.6954 63.4583 24.8527 63.4542C25.0428 63.4739 25.128 63.6593 25.1107 63.8317C25.0707 63.9659 24.9861 64.0967 24.9714 64.2406C24.9821 64.371 25.1407 64.4554 25.125 64.5999C25.1055 64.7437 25.2363 64.8207 25.3195 64.8871C25.2766 64.9773 25.1383 65.1255 25.2501 65.2454C25.3204 65.3842 25.4255 65.513 25.4871 65.6513C25.5035 65.8183 25.4833 65.9863 25.385 66.1275C25.4086 66.2453 25.3173 66.3885 25.4321 66.4672C25.5269 66.5882 25.4106 66.7468 25.349 66.8598C25.2558 67.0493 25.1596 66.7819 25.0025 66.8692C24.8468 66.833 24.7567 67.0018 24.8967 67.094C24.9773 67.2403 25.0954 67.3841 25.2781 67.3849C25.5705 67.4098 25.7377 67.6774 25.9797 67.8094C26.1265 67.9581 26.2152 68.1436 26.2364 68.3515C26.3295 68.437 26.4093 68.5419 26.415 68.6803C26.4732 68.9264 26.4329 69.179 26.4334 69.4288C26.2908 69.4473 26.1659 69.4088 26.0732 69.2958C25.9569 69.2373 25.9617 69.0477 25.8426 69.0192C25.6329 68.9723 25.7644 69.1606 25.7528 69.2784C25.7249 69.4418 25.8119 69.5766 25.9354 69.6758C26.1057 69.7796 25.9733 69.8561 25.9589 69.9905C25.9135 70.1357 25.9561 70.274 25.9536 70.4104C25.9573 70.5098 25.962 70.7077 26.1048 70.6877C26.0941 70.8431 26.3021 70.8785 26.3278 71.0263C26.4108 71.2546 26.3282 71.5236 26.4366 71.7514C26.5061 71.8734 26.5416 71.9713 26.6123 72.0793C26.6651 72.2148 26.7996 72.2636 26.7194 72.4274C26.6554 72.5768 26.7865 72.6891 26.9047 72.5759C27.0349 72.5249 27.1873 72.6344 27.1606 72.7734C27.1347 72.904 27.018 72.9994 27.08 73.1562C27.1969 73.343 27.3122 73.542 27.4894 73.6798C27.6519 73.6412 27.634 73.4413 27.6672 73.3194C27.7982 73.1664 27.809 73.4645 27.7945 73.5569C27.789 73.7439 27.8059 73.9453 27.7643 74.123C27.6986 74.2562 27.5615 74.2804 27.4267 74.2639C27.2929 74.2816 27.163 74.2569 27.055 74.1797C26.8728 74.136 26.6934 74.0874 26.5122 74.0502C26.2439 73.9888 25.97 73.9908 25.6967 74.0018C25.5841 74.066 25.4225 73.9437 25.4455 74.1138C25.342 74.1793 25.2238 74.2039 25.1252 74.2881C24.9979 74.3627 25.114 74.5578 24.9826 74.647C24.9578 74.8217 24.7682 74.9369 24.82 75.1262C24.7298 75.2054 24.7287 75.1718 24.656 75.2571C24.53 75.2929 24.4974 75.4634 24.3988 75.5469C24.3239 75.7268 24.1141 75.8045 23.9978 75.9349C23.9555 76.0438 23.9564 76.1719 23.8475 76.2476C23.7441 76.3173 23.6422 76.4251 23.5106 76.4387C23.2694 76.5267 23.4311 76.327 23.253 76.3547C23.1034 76.4809 22.8824 76.4158 22.7006 76.4332C22.5017 76.4468 22.6123 76.2641 22.4083 76.2619C22.2714 76.2065 22.2695 76.0539 22.1897 75.9531C22.0704 76.1321 22.1207 75.7528 21.9698 75.806C21.827 75.7524 21.7499 75.879 21.6472 75.9478C21.5124 75.9279 21.365 75.9257 21.2388 75.9111C21.1249 75.7774 20.9168 75.8694 20.8108 75.9696C20.58 75.7825 20.2459 75.7772 19.9635 75.823C19.7874 75.8515 19.6104 75.9212 19.433 75.8946C19.2229 75.9589 18.9908 75.9683 18.8158 76.1172C18.6675 76.2562 18.6249 76.0567 18.467 76.0961C18.2031 76.106 18.4867 76.1821 18.603 76.1757C18.7387 76.2078 18.4979 76.3868 18.4547 76.4666C18.3893 76.6248 18.6707 76.6562 18.646 76.8212C18.6916 76.9747 18.5755 77.106 18.4305 77.1387C18.3167 77.197 18.1404 77.1739 18.06 77.062C17.9772 76.9195 17.8261 76.9846 17.6944 76.9962C17.5514 76.9683 17.6662 76.7582 17.6184 76.6487C17.5139 76.5467 17.6108 76.8493 17.5797 76.9194C17.5681 77.0983 17.3151 77.0393 17.2408 77.182C17.1056 77.3241 17.0769 77.5422 17.1234 77.7208C17.2575 77.8358 17.1306 77.9319 17.041 77.996C16.9482 78.1268 16.8018 78.1853 16.6428 78.1675C16.4489 78.1712 16.2468 78.2047 16.0693 78.1156C15.935 78.1145 15.8538 77.9979 15.7375 77.9689C15.6632 77.8358 15.5357 77.838 15.4014 77.8117C15.2575 77.8062 15.1419 77.6656 15.1598 77.52C15.2045 77.3582 15.0161 77.3127 15.0076 77.1823C15.086 77.0631 15.2724 77.1479 15.2899 76.9768C15.3951 76.7466 15.3121 76.4957 15.3206 76.2546C15.2286 76.1464 15.444 76.0173 15.2967 75.9113C15.178 75.8188 15.1548 75.6276 15.0024 75.5922C14.922 75.5043 14.7421 75.5401 14.7706 75.3635C14.7864 75.19 14.587 75.2327 14.5097 75.1342C14.3824 75.0502 14.2996 74.9305 14.2046 74.817C13.9941 74.6746 13.7525 74.5734 13.5954 74.3642C13.4057 74.2017 13.404 73.9471 13.2738 73.7454C13.2219 73.628 13.1897 73.5143 13.1853 73.3847C13.0984 73.2343 13.0899 73.0439 12.9549 72.9225C12.8309 72.6916 12.6989 72.4648 12.4947 72.2942C12.317 72.0943 12.0888 71.908 12.0018 71.6513C11.9795 71.4846 12.0194 71.2834 11.857 71.175C11.7571 71.0611 11.7017 70.9133 11.5686 70.8289C11.4753 70.7383 11.4146 70.6199 11.4086 70.4898C11.427 70.3752 11.4958 70.2659 11.5661 70.1647C11.6857 69.9705 11.8371 69.7803 11.8301 69.541C11.9046 69.4339 11.93 69.2963 12.0332 69.2019C12.0647 68.8854 12.0329 68.5657 12.0227 68.2492C12.0257 68.0854 11.9872 67.8973 12.1357 67.7828C12.2524 67.6853 12.2577 67.5301 12.2838 67.3986C12.4049 67.2895 12.2292 67.1857 12.3083 67.043C12.3497 66.7375 12.3735 66.4184 12.2437 66.1284C12.1929 66.0168 12.1734 65.8966 12.0875 65.8005C12.011 65.6751 11.9705 65.5392 11.882 65.4204C11.8319 65.2746 11.7826 65.1334 11.7801 64.9757C11.7066 64.8304 11.6901 64.6681 11.6102 64.5258C11.5364 64.3195 11.3811 64.1388 11.378 63.9138C11.3272 63.7897 11.3721 63.6393 11.3758 63.5054C11.4352 63.3846 11.3885 63.2292 11.3683 63.0986C11.2614 62.9963 11.3592 62.8313 11.2768 62.7148C11.21 62.6182 11.1563 62.5056 11.1119 62.3975C11.1298 62.1659 11.0472 61.946 10.9568 61.7414C10.9191 61.6315 10.8785 61.514 10.8152 61.4236C10.8319 61.3163 11.1622 61.346 10.8864 61.291C10.8089 61.2092 10.8634 61.0177 10.8365 60.8935C10.8422 60.679 10.7491 60.4718 10.8098 60.2581C11.0742 60.2055 10.8674 60.239 10.8054 60.1017C10.7852 59.9612 10.7684 59.8189 10.677 59.7076C10.6843 59.5385 10.5121 59.4202 10.4985 59.2689C10.5193 59.1649 10.3305 59.0941 10.2897 58.9821C10.2313 58.8542 10.0788 58.8099 10.0254 58.6892C10.0192 58.5513 9.96563 58.42 9.89939 58.3041C9.87381 58.159 9.74593 58.0411 9.69699 57.9079C9.71502 57.6948 9.59174 57.5146 9.55568 57.3097C9.46184 57.2067 9.39744 57.0904 9.4002 56.9481C9.3588 56.7685 9.20074 56.6156 9.21914 56.4161C9.21914 56.2061 9.20589 55.9713 9.01877 55.8367C8.88261 55.7181 8.91223 55.5321 8.99098 55.3913C9.12825 55.0839 9.09145 54.7311 9.13597 54.4021C9.13726 54.1849 9.16744 53.9698 9.21086 53.7602C9.22116 53.6254 9.20185 53.4948 9.19357 53.3824C9.03312 53.261 9.37812 53.2096 9.26017 53.0914C9.21712 52.9401 9.24288 52.7695 9.29109 52.6199C9.31758 52.442 9.27986 52.234 9.44859 52.1121C9.4013 51.8828 9.68595 51.7994 9.80003 51.6457C9.74649 51.5203 9.81788 51.3653 9.85265 51.2303C9.90749 51.126 9.58512 51.1705 9.77077 50.9948C9.71631 50.836 9.91945 50.8091 9.88725 50.6752C9.9671 50.5617 10.0793 50.69 10.1864 50.6088C10.0985 50.4901 10.2972 50.423 10.3789 50.3601C10.4893 50.2063 10.5684 50.3933 10.6873 50.3409C10.7819 50.1646 10.9252 49.997 11.1206 49.9323C11.2886 49.9561 11.2729 50.1102 11.1951 50.213C11.3534 50.2802 11.3832 50.3438 11.3591 50.5188C11.2674 50.6167 11.4915 50.6666 11.5672 50.7326C11.7416 50.7361 11.6739 50.9503 11.7048 51.039C11.8492 51.0964 11.9313 51.221 11.8135 51.3547C11.9295 51.3712 12.0645 51.4726 12.013 51.6176C11.9845 51.854 12.0676 52.0805 12.1624 52.2918C12.2275 52.3591 12.381 52.3992 12.4988 52.4158C12.5819 52.5153 12.5698 52.6628 12.6839 52.7438C12.7236 52.8663 12.5565 53.0233 12.7098 53.0994C12.85 53.1783 12.8454 53.2902 12.875 53.3998C12.9575 53.5003 12.9372 53.6648 13.0033 53.7655C13.1464 53.8761 13.2857 54.0061 13.328 54.1884C13.427 54.383 13.5623 54.6395 13.8202 54.6067C13.9437 54.6293 14.0471 54.7246 14.0633 54.855C14.1386 54.92 14.3134 54.9994 14.3925 54.8886C14.5586 54.7907 14.5478 54.9972 14.6344 55.083C14.7938 55.1932 14.6149 55.3249 14.5608 55.4357C14.4543 55.6647 14.7763 55.8186 14.704 56.0454C14.7925 56.1474 14.7772 56.2974 14.8632 56.4062C14.9141 56.5824 14.9923 56.7449 15.0795 56.9053C15.0871 57.1003 15.084 57.3174 15.2255 57.4696C15.1553 57.5881 15.254 57.7365 15.2385 57.8766C15.3859 57.9509 15.3103 58.0941 15.2705 58.2137C15.1916 58.4262 15.2992 58.6342 15.3482 58.8377C15.3653 59.0389 15.4076 59.2351 15.4941 59.4143C15.518 59.5671 15.4534 59.7033 15.4577 59.8532C15.4439 60.0386 15.3235 60.2515 15.4829 60.4052C15.4878 60.5574 15.7164 60.5765 15.6961 60.7338C15.7425 60.8517 15.9815 60.9425 15.8687 61.1006C15.8586 61.1208 15.8476 61.1419 15.8365 61.1631ZM11.1386 61.2636C11.3339 61.3234 11.2091 60.9893 11.1418 61.2589L11.1386 61.2636ZM18.0653 76.1154C18.2675 76.2027 18.2125 76.0184 18.0653 76.1154V76.1154ZM28.1218 84.1131C28.1719 84.2367 28.4201 84.2174 28.3851 84.3439C28.332 84.5154 28.5369 84.2609 28.6304 84.3845C28.7818 84.4408 28.9049 84.5567 29.0236 84.6665C29.2308 84.6574 29.4004 84.8021 29.6104 84.7723C29.6921 84.8855 29.8317 84.897 29.8474 85.041C29.8945 85.2075 29.6166 85.1494 29.6365 85.3121C29.6157 85.4916 29.7765 85.6213 29.8455 85.7753C29.9337 85.8868 29.9749 86.0214 30.1004 86.1016C30.0991 86.2587 30.2014 86.421 30.376 86.4067C30.5271 86.3893 30.5652 86.5444 30.6908 86.5833C30.8022 86.6948 30.9534 86.8045 30.997 86.96C31.0114 87.0779 30.8095 87.1773 30.9668 87.2824C31.0984 87.3336 31.2263 87.4046 31.3593 87.4579C31.4877 87.3512 31.6263 87.406 31.4911 87.5551C31.443 87.7589 31.5367 87.9788 31.4844 88.179C31.3924 88.3243 31.2956 88.4611 31.1641 88.5753C31.0851 88.6722 31.1621 88.9311 31.3041 88.844C31.4349 88.7514 31.5258 88.9612 31.6686 88.9331C31.8384 88.8999 31.9663 89.0322 31.7794 89.1354C31.6717 89.1979 31.4905 89.3276 31.6018 89.4583C31.6887 89.5539 31.8844 89.4774 31.903 89.6502C31.9636 89.8627 32.1809 89.9542 32.327 90.1C32.5126 90.1527 32.6819 90.27 32.8238 90.3977C32.9544 90.5479 33.019 90.7679 33.1967 90.8723C33.2852 90.7425 33.4713 90.9361 33.4972 90.8787C33.4854 90.7179 33.2582 90.6245 33.3053 90.441C33.3158 90.3133 33.2977 90.1835 33.2269 90.0797C33.2407 89.9805 33.148 89.7509 33.3173 89.7853C33.4656 89.8132 33.5276 89.9168 33.5182 90.0566C33.6339 90.1431 33.5874 90.3078 33.6363 90.4301C33.6641 90.628 33.8654 90.3986 33.9436 90.5237C34.0176 90.6564 33.973 90.8657 33.868 90.9805C33.767 91.0616 33.6433 91.1696 33.7708 91.2857C33.8216 91.3981 33.9817 91.4588 34.0838 91.45C34.1874 91.3922 34.3754 91.3262 34.3867 91.5028C34.4374 91.6838 34.6187 91.8927 34.8244 91.7951C34.9515 91.7139 34.7109 91.5182 34.8917 91.4832C35.0575 91.4183 35.091 91.6453 35.1549 91.7518C35.2154 91.905 35.1223 92.1008 35.2077 92.2386C35.316 92.4071 35.5893 92.2763 35.6592 92.4816C35.7337 92.6041 35.6708 92.79 35.8292 92.8527C35.935 92.9441 36.0876 92.8993 36.1948 92.8537C36.3209 92.8612 36.4456 92.854 36.55 92.9389C36.7143 93.0583 36.8839 93.179 37.0158 93.3374C37.1603 93.4832 37.0501 93.742 37.2302 93.8722C37.41 94.0143 37.5872 94.1856 37.8024 94.2658C37.978 94.2929 38.1857 94.3538 38.3436 94.2582C38.3697 94.0875 38.5557 94.133 38.6855 94.1255C38.7957 94.1453 39.0293 94.1372 38.9773 94.3063C38.9546 94.5199 38.7127 94.6019 38.5728 94.7356C38.5513 94.9108 38.698 95.0624 38.8726 95.0532C39.0006 95.1305 39.0702 95.2803 39.1248 95.4096C39.2159 95.4593 39.3707 95.3555 39.4853 95.3239C39.6833 95.4055 39.6364 95.7322 39.8686 95.7628C39.9451 95.8767 40.0855 95.8954 40.2088 95.9374C40.3473 96.0241 40.3937 96.2484 40.5829 96.2409C40.7234 96.3489 40.8968 96.1804 40.8931 96.0292C41.1159 95.994 41.2394 96.2433 41.2997 96.4199C41.3676 96.6236 41.3306 96.8362 41.3231 97.044C41.4436 97.1195 41.4552 97.2393 41.4743 97.3693C41.4874 97.5054 41.6422 97.5846 41.6753 97.6981C41.6576 97.8437 41.3917 97.8767 41.4795 98.0475C41.4948 98.1903 41.7421 98.1436 41.6539 98.3191C41.6479 98.4827 41.5008 98.5014 41.3917 98.5672C41.3726 98.6866 41.3115 98.8069 41.273 98.9298C41.2434 99.0671 41.1895 99.1955 41.1146 99.3145C41.2228 99.4242 41.1531 99.5859 41.2293 99.7103C41.3858 99.5463 41.423 99.7314 41.3658 99.8695C41.3553 100.048 41.5669 99.7796 41.5113 99.6993C41.556 99.5619 41.3192 99.4917 41.4024 99.3813C41.4283 99.2679 41.5776 99.2072 41.543 99.0759C41.5724 98.9639 41.4237 98.7717 41.6059 98.7548C41.8396 98.7484 41.97 98.5388 42.0817 98.3649C42.2442 98.3156 42.2273 98.5518 42.3737 98.5575C42.5379 98.5817 42.4906 98.7862 42.5901 98.8808C42.6256 99.0117 42.667 99.1293 42.7741 99.2206C42.8466 99.3637 42.8932 99.5553 42.8442 99.704C42.7403 99.7574 42.6731 99.9975 42.5526 99.8401C42.4683 99.7732 42.331 99.5696 42.2348 99.7158C42.3086 99.7596 42.3752 99.8808 42.3375 100.036C42.3174 100.126 42.1165 100.264 42.0328 100.131C41.9561 99.9898 41.8468 100.076 41.7702 100.165C41.6219 100.238 41.7548 100.359 41.7119 100.49C41.7498 100.647 41.5995 100.675 41.4938 100.72C41.34 100.825 41.3156 101.017 41.214 101.161C41.1562 101.292 41.1181 101.42 41.1457 101.566C41.1796 101.659 41.2042 101.885 41.0574 101.857C40.9238 101.748 40.823 101.892 40.6852 101.89C40.561 101.993 40.4669 101.835 40.3484 101.807C40.3578 101.654 40.2581 101.555 40.1477 101.464C40.0344 101.349 39.8636 101.264 39.8702 101.077C39.8321 100.929 39.6395 101.087 39.542 101.027C39.4124 100.889 39.1874 101.098 39.0779 100.926C38.9927 100.786 38.8536 100.805 38.7276 100.74C38.5878 100.75 38.4924 100.666 38.3863 100.591C38.2562 100.561 38.1441 100.692 38.0019 100.663C37.8663 100.622 37.7279 100.778 37.6184 100.673C37.4766 100.596 37.3627 100.828 37.2607 100.65C37.1215 100.536 36.9641 100.447 36.8449 100.31C36.6922 100.311 36.5822 100.445 36.5895 100.592C36.4732 100.639 36.7176 100.824 36.4959 100.851C36.3494 100.85 36.3301 101.008 36.2042 100.999C36.0601 101.009 36.0854 101.227 36.0506 101.326C36.1166 101.44 36.228 101.539 36.3626 101.569C36.3904 101.734 36.329 101.909 36.1648 101.974C36.0289 102.049 35.8839 102.128 35.7216 102.1C35.7291 101.974 35.7203 101.821 35.5632 101.8C35.4402 101.751 35.2824 101.736 35.2031 101.863C35.144 101.958 35.1909 102.089 35.1085 102.197C35.0818 102.304 35.1138 102.526 34.9804 102.535C34.7837 102.394 34.9466 102.641 34.9296 102.74C34.871 102.808 34.6893 102.808 34.5848 102.863C34.4432 102.78 34.617 102.542 34.4236 102.52C34.302 102.434 34.1476 102.55 34.1326 102.672C34.1228 102.784 34.1706 103.009 34.0181 103.013C33.8371 103.007 33.9263 102.813 33.953 102.723C33.9526 102.581 33.7785 102.544 33.6729 102.491C33.5156 102.45 33.3732 102.628 33.2321 102.513C33.1169 102.503 32.9537 102.525 33.008 102.341C33.067 102.116 32.8952 102.256 32.8028 102.121C32.7145 102.024 32.6506 101.913 32.566 101.814C32.4554 101.741 32.3514 101.648 32.2265 101.611C32.1654 101.483 32.0046 101.479 31.9695 101.34C31.9319 101.176 31.9139 100.988 31.9871 100.838C31.9363 100.701 31.8982 100.525 32.0018 100.399C32.1514 100.422 32.1809 100.64 32.3562 100.59C32.5373 100.544 32.4398 100.779 32.5855 100.849C32.6276 100.953 32.9209 100.948 32.8519 100.868C32.7393 100.814 32.6986 100.677 32.6986 100.571C32.6804 100.402 32.4329 100.693 32.4933 100.45C32.5836 100.338 32.6048 100.177 32.6039 100.043C32.5284 99.9362 32.4256 99.844 32.4482 99.6961C32.464 99.5537 32.4026 99.4392 32.2806 99.3651C32.241 99.2384 32.0769 99.2386 32.0541 99.0999C31.9545 98.9402 31.8 98.8294 31.6843 98.6844C31.5499 98.6096 31.4907 98.5179 31.6561 98.4363C31.6445 98.318 31.6434 98.2567 31.6798 98.1267C31.6452 97.8929 31.7717 97.6697 31.7015 97.4362C31.692 97.3023 31.5654 97.187 31.4281 97.2231C31.269 97.3209 31.2456 97.1406 31.165 97.1441C31.1043 97.0568 31.2644 96.9154 31.1865 96.7815C31.2123 96.5917 31.0463 96.626 30.9201 96.653C30.8756 96.4857 31.1032 96.4184 31.0791 96.2517C31.1538 96.1318 31.0384 95.9997 31.0697 95.8635C31.0675 95.6903 30.8875 95.4919 31.0541 95.3458C31.1315 95.2273 31.0787 95.0696 31.0557 94.9388C31.1087 94.8159 31.1976 94.7457 31.2988 94.6527C31.4622 94.55 31.3455 94.4187 31.2038 94.3985C31.1604 94.2825 31.0817 94.1456 31.055 94.0508C31.1426 93.9408 31.1836 93.7121 31.0022 93.6785C30.8276 93.6021 30.9177 93.3868 30.8953 93.2377C30.9087 93.0154 30.8494 92.7788 30.9589 92.576C30.9591 92.4157 31.0656 92.2813 31.1037 92.1381C31.0883 91.9693 30.9368 92.2795 30.8174 92.1746C30.5865 92.061 30.4529 91.8186 30.273 91.6429C30.1269 91.4239 29.9425 91.2321 29.7889 91.0208C29.663 90.7903 29.6461 90.5176 29.5464 90.2831C29.5495 90.0703 29.4354 90.1668 29.3003 90.2049C29.2034 90.3164 29.125 90.2321 29.1163 90.3766C28.9756 90.3186 28.8924 90.4509 28.7541 90.4164C28.6326 90.409 28.5837 90.6055 28.5726 90.7129C28.5327 90.9007 28.331 90.9719 28.1965 91.0799C28.1152 91.1993 28.0103 91.2844 27.8841 91.3363C27.7603 91.4459 27.6629 91.6392 27.4675 91.5938C27.3017 91.6187 27.1545 91.5384 27.0649 91.4012C26.922 91.3288 27.0532 91.1345 26.9378 91.1012C26.7937 91.1455 26.6776 91.087 26.5483 91.0274C26.475 90.9457 26.3703 90.8375 26.2413 90.8252C26.0855 90.7173 26.0355 91.0117 25.9418 90.9378C25.8095 90.8923 25.7926 90.7824 25.7479 90.6687C25.7273 90.5266 25.5609 90.4675 25.5819 90.3073C25.5675 90.0593 25.4973 89.8004 25.295 89.6377C25.1948 89.5532 24.9609 89.6632 25.0027 89.4501C24.9134 89.3612 24.852 89.2201 24.9315 89.1062C24.8433 88.9592 25.0176 88.8801 24.9925 88.7749C24.9375 88.6443 25.058 88.5126 25.0488 88.3738C25.0779 88.2544 25.1063 88.0736 25.2654 88.0781C25.3256 87.9287 25.5243 87.8139 25.4697 87.6393C25.3764 87.5205 25.3907 87.4256 25.5052 87.3319C25.5197 87.1793 25.7219 87.1898 25.7427 87.0862C25.7431 86.978 25.7072 86.7902 25.8772 86.8271C25.949 86.7746 25.9337 86.6158 26.0603 86.54C25.9383 86.3326 25.8139 86.112 25.8288 85.8637C25.799 85.7133 25.7227 85.5818 25.7359 85.4228C25.7442 85.2952 25.664 85.1776 25.7223 85.0619C25.7508 84.8853 25.7 84.6742 25.8583 84.5484C25.9698 84.4351 26.0213 84.2275 26.2152 84.2412C26.3138 84.1668 26.4345 84.186 26.5297 84.0951C26.6835 84.0978 26.7109 83.9691 26.7807 83.8602C27.1328 83.8169 27.4721 84.0014 27.8269 84.0135C27.9305 84.0241 28.0344 84.0557 28.1218 84.1131ZM56.2282 135.497C56.3524 135.295 56.2276 135.553 56.1292 135.51C56.2379 135.364 55.9951 135.29 56.0838 135.18C56.2575 135.103 56.0735 134.976 55.9991 135.146C55.9861 135.367 55.8841 135.208 55.8149 135.141C55.6913 135.28 55.5645 135.021 55.4613 135.206C55.3901 135.309 55.3612 135.446 55.2462 135.523C55.1084 135.632 55.1547 135.335 55.1426 135.247C55.1588 135.096 55.1834 134.94 55.1991 134.79C55.3454 134.546 55.5292 134.318 55.6525 134.061C55.5627 133.919 55.4092 134.125 55.4329 134.242C55.3222 134.393 55.2401 134.566 55.1663 134.734C55.0695 134.815 54.956 134.871 54.8848 134.979C54.7978 135.125 54.6357 134.961 54.5509 135.082C54.4029 135.28 54.4048 135.095 54.3937 134.943C54.2721 134.846 54.1898 135.204 54.0715 135.001C53.9481 134.934 53.894 135.189 53.7703 135.202C53.6268 135.158 53.7241 134.953 53.8246 134.895C53.9155 134.795 54.0695 134.793 54.1663 134.69C54.3185 134.62 54.4714 134.557 54.609 134.457C54.7266 134.347 54.722 134.587 54.9137 134.494C55.0627 134.52 55.2072 134.393 55.1614 134.241C55.17 134.103 55.1569 133.974 55.1196 133.846C55.1316 133.749 55.0977 133.444 55.0361 133.682C54.9906 133.806 54.8486 133.884 54.7264 133.912C54.6081 133.848 54.6859 133.648 54.6817 133.528C54.7159 133.387 54.6598 133.274 54.5805 133.169C54.4715 133.018 54.3164 132.922 54.1453 132.86C53.9781 132.873 53.954 132.806 53.8927 132.672C53.783 132.627 53.6579 132.53 53.5398 132.574C53.3968 132.73 53.1837 132.795 53.0608 132.974C52.9033 133.158 52.6921 133.278 52.5425 133.471C52.3594 133.602 52.3644 133.861 52.1802 133.994C52.0632 134.1 51.9095 134.157 51.7526 134.164C51.7071 134.069 51.89 133.875 51.6628 133.884C51.4972 133.926 51.4258 133.82 51.4856 133.668C51.5367 133.521 51.6679 133.381 51.6654 133.228C51.5804 133.147 51.4206 133.274 51.3095 133.294C51.1745 133.394 51.053 133.284 51.1653 133.147C51.297 132.926 51.5327 132.784 51.6221 132.537C51.7202 132.404 51.7702 132.248 51.8391 132.102C51.8641 131.97 51.9055 131.847 51.93 131.712C52.0181 131.618 51.973 131.457 52.1331 131.43C52.2558 131.282 52.3556 131.046 52.5861 131.068C52.677 130.943 52.815 131.071 52.8818 130.944C53.026 130.827 53.206 130.723 53.2914 130.558C53.305 130.423 53.4358 130.313 53.3679 130.162C53.3506 130.027 53.3388 129.892 53.3911 129.767C53.3867 129.624 53.4837 129.524 53.618 129.494C53.7909 129.348 54.0456 129.431 54.2187 129.293C54.1989 129.161 54.2607 129.009 54.388 128.979C54.542 128.901 54.5352 128.904 54.3775 128.81C54.2931 128.684 54.5052 128.608 54.5742 128.521C54.689 128.42 54.8688 128.463 54.9753 128.341C55.0914 128.271 55.168 128.123 55.324 128.164C55.4729 128.142 55.6554 128.248 55.6164 128.416C55.5895 128.639 55.8543 128.703 55.9419 128.864C56.0707 128.783 56.2218 128.747 56.3614 128.696C56.5092 128.674 56.6306 128.596 56.7854 128.617C57.0023 128.584 57.2339 128.513 57.4016 128.366C57.4965 128.21 57.6985 128.294 57.8474 128.297C57.9902 128.389 58.0397 128.338 58.1917 128.338C58.3346 128.35 58.4734 128.376 58.6191 128.37C58.7624 128.509 58.9704 128.63 58.9713 128.854C58.9669 129.034 59.1481 129.125 59.1716 129.293C59.1369 129.431 59.3382 129.496 59.4035 129.604C59.5584 129.739 59.6835 129.921 59.8569 130.027C60.0015 130.045 60.0813 130.175 60.0556 130.313C60.01 130.469 60.1846 130.546 60.1573 130.695C60.1958 130.825 59.9899 130.947 60.1884 131.015C60.2063 131.124 60.267 131.265 60.3343 131.368C60.4823 131.357 60.6111 131.417 60.715 131.517C60.6644 131.656 60.8295 131.749 60.9292 131.817C61.077 131.943 61.192 132.107 61.2807 132.277C61.164 132.358 61.1101 132.563 61.3121 132.485C61.4799 132.365 61.645 132.595 61.8288 132.548C62.0343 132.56 62.2667 132.514 62.4527 132.605C62.5659 132.675 62.5147 132.875 62.4227 132.95C62.3707 133.069 62.2709 133.157 62.2288 133.286C62.1754 133.4 62.0792 133.478 62.0393 133.598C61.9213 133.75 61.7946 133.894 61.6718 134.041C61.7905 134.182 61.757 134.403 61.6829 134.554C61.5145 134.643 61.6536 134.838 61.6176 134.982C61.6429 135.264 61.4036 135.455 61.2264 135.643C61.0216 135.682 60.8122 135.706 60.6265 135.803C60.4762 135.834 60.3086 135.843 60.1599 135.801C60.0847 135.895 60.1093 136.058 59.9881 136.14C59.7866 136.139 59.5389 136.172 59.3991 135.996C59.2118 135.845 59.2752 136.042 59.1632 136.051C59.181 135.927 59.1503 135.917 59 136.04C58.8441 136.034 58.9696 135.68 58.8704 135.776C58.829 135.872 58.8546 136.08 58.7177 136.05C58.5332 136.236 58.2491 136.353 57.9905 136.322C57.8676 136.307 57.7166 136.343 57.5837 136.355C57.3414 136.418 57.0301 136.42 56.8468 136.221C56.7011 135.989 56.8779 135.751 56.9644 135.535C57.0286 135.373 56.7881 135.348 56.7305 135.467C56.5857 135.624 56.4473 135.838 56.2081 135.839C56.063 135.73 56.1896 135.6 56.249 135.592C56.2554 135.559 56.2339 135.528 56.2282 135.497ZM51.1511 89.6836C51.2808 89.7001 51.412 89.7006 51.5421 89.716C51.6363 89.7244 51.7559 89.8701 51.8174 89.8673C51.8056 90.0459 51.9723 90.1543 51.9868 90.3258C52.0115 90.4529 52.0727 90.5528 52.1366 90.6656C52.1609 90.8013 52.0805 90.9306 52.1533 91.0597C52.198 91.1863 52.0659 91.3601 52.2382 91.4223C52.4542 91.5259 52.3103 91.8017 52.4148 91.9752C52.5193 92.1256 52.5846 92.2908 52.6395 92.4641C52.631 92.5938 52.7291 92.6932 52.7088 92.8258C52.7337 92.965 52.8908 93.0352 52.8393 93.2014C52.7589 93.3347 52.8225 93.4262 52.8612 93.5603C52.9458 93.6817 53.1109 93.6928 53.247 93.693C53.3913 93.6065 53.5238 93.7939 53.6465 93.8557C53.7451 93.95 53.8796 93.9527 53.9733 94.0576C54.0901 94.117 54.229 94.1038 54.3146 94.2219C54.3626 94.3587 54.5253 94.321 54.6156 94.4172C54.7485 94.457 54.7636 94.6258 54.9212 94.6606C55.0686 94.7193 55.1976 94.8264 55.2173 94.9925C55.2519 95.1211 55.2736 95.2465 55.3766 95.3404C55.3365 95.4694 55.3914 95.6361 55.2661 95.7377C55.202 95.8394 55.237 96.0019 55.0817 96.0228C55.0616 96.1446 55.0239 96.2434 54.8933 96.31C54.7188 96.4287 54.5339 96.5297 54.3527 96.6293C54.2377 96.6476 54.0969 96.6188 53.9748 96.6553C53.7534 96.6416 53.5455 96.7828 53.3223 96.7041C53.1887 96.6412 53.0686 96.7175 52.9462 96.6542C52.8349 96.5798 52.7254 96.5174 52.5855 96.5446C52.4371 96.5636 52.3062 96.6579 52.1642 96.7052C52.0566 96.7857 51.9881 96.8637 51.8681 96.8155C51.7546 96.8111 51.6295 96.7969 51.5126 96.7755C51.3987 96.6537 51.2409 96.7091 51.1542 96.8292C51.0206 96.9361 50.9034 97.0856 50.7476 97.1523C50.5446 97.1624 50.3085 97.1347 50.1858 96.9532C50.0857 96.8516 49.9028 96.8996 49.8033 96.7802C49.6969 96.6682 49.5387 96.6783 49.4145 96.5924C49.2986 96.5376 49.1871 96.5237 49.0664 96.4927C48.8978 96.436 48.6178 96.4811 48.5729 96.2568C48.3909 96.2486 48.4262 96.0005 48.5011 95.8935C48.4187 95.798 48.3348 96.0362 48.392 96.127C48.3144 96.2218 48.125 96.2194 48.0667 96.0914C48.081 95.9421 47.981 95.8209 47.8435 95.7833C47.7296 95.752 47.5999 95.5986 47.7622 95.5315C47.9815 95.4606 47.8006 95.3905 47.6799 95.5033C47.5653 95.5814 47.5701 95.7655 47.4352 95.8367C47.3292 96.0258 47.3117 95.7127 47.1357 95.7969C46.9951 95.8305 46.8884 95.7518 46.766 95.7114C46.6519 95.814 46.5774 95.5961 46.5524 95.5053C46.5156 95.3069 46.2797 95.3555 46.1481 95.2823C46.0133 95.157 45.9917 94.9513 45.83 94.8489C45.8204 94.6872 45.6243 94.661 45.5019 94.7132C45.3945 94.6639 45.3026 94.5607 45.1578 94.5794C44.9906 94.574 44.8737 94.4073 44.9415 94.2516C44.9898 94.153 45.0986 94.0028 44.961 93.9221C44.8377 93.9197 44.6954 93.8368 44.7512 93.6954C44.813 93.5608 44.7264 93.444 44.7319 93.3099C44.7172 93.1742 44.9058 93.1495 45.0027 93.1021C45.1858 93.0559 45.3729 93.1067 45.5564 93.1047C45.6675 92.9844 45.8202 92.9255 45.9831 92.9486C46.1386 92.9453 46.2604 92.837 46.3984 92.7946C46.4902 92.6827 46.5656 92.5887 46.6961 92.539C46.8197 92.476 46.9537 92.4141 47.0996 92.4263C47.2091 92.3935 47.3336 92.39 47.4358 92.3044C47.5454 92.4513 47.6531 92.2679 47.7868 92.3161C47.9405 92.3891 48.0306 92.1511 48.1458 92.2776C48.2408 92.4595 48.3234 92.3137 48.4684 92.3044C48.5668 92.2133 48.7315 92.2114 48.7147 92.0355C48.7626 91.8883 48.962 91.8235 49.0986 91.8958C49.2778 91.8599 49.1385 91.6899 49.1983 91.6196C49.3002 91.5378 49.4552 91.5433 49.4147 91.3469C49.501 91.2297 49.5978 91.2437 49.7085 91.216C49.8973 91.1962 49.9306 90.9636 50.0636 90.8587C50.2206 90.6929 50.2653 90.4582 50.3687 90.2611C50.4252 90.1083 50.4302 89.93 50.5238 89.798C50.6368 89.7373 50.7317 89.6342 50.8749 89.6821C51.002 89.7329 51.0307 89.5715 51.1511 89.6836ZM76.1804 158.149C76.22 158.252 76.392 158.147 76.4846 158.254C76.6062 158.282 76.8246 158.26 76.8191 158.434C76.9468 158.346 77.0599 158.538 77.1444 158.62C77.2272 158.72 77.3271 158.806 77.3543 158.935C77.4644 159.047 77.3163 159.232 77.5201 159.218C77.6307 159.345 77.7807 159.453 77.7759 159.638C77.7899 159.77 77.7785 159.906 77.8189 160.026C77.7928 160.15 77.7556 160.273 77.69 160.392C77.8099 160.476 77.8072 160.617 77.8699 160.727C77.8386 160.839 77.7875 161.057 77.9836 160.98C78.0696 161.011 78.0876 161.213 78.2239 161.25C78.4087 161.379 78.6074 161.509 78.8416 161.471C78.9807 161.483 79.0685 161.362 79.1791 161.313C79.3693 161.202 79.5737 161.091 79.8019 161.103C79.996 161.047 79.9923 161.294 80.0542 161.415C80.0889 161.606 80.2104 161.79 80.3826 161.89C80.4873 161.985 80.5859 162.082 80.5416 162.234C80.4082 162.229 80.2844 162.191 80.1432 162.217C79.9878 162.226 79.8352 162.234 79.6972 162.31C79.5502 162.323 79.3817 162.274 79.2484 162.335C79.1239 162.416 78.9141 162.278 78.8006 162.422C78.7169 162.556 78.5461 162.464 78.449 162.557C78.4617 162.686 78.5599 162.788 78.5925 162.915C78.7261 163.224 79.0103 163.417 79.267 163.616C79.4142 163.769 79.5973 163.879 79.7798 163.98C79.9613 164.008 80.1362 164.089 80.286 164.191C80.4008 164.36 80.636 164.331 80.7631 164.478C80.884 164.577 81.0529 164.588 81.1642 164.709C81.3175 164.804 81.4769 164.922 81.5142 165.107C81.6117 165.306 81.8627 165.416 81.8738 165.655C81.8857 165.801 81.9965 165.901 82.0563 166.026C81.9761 166.118 82.1321 166.216 82.1157 166.332C82.1799 166.464 82.1527 166.628 82.1448 166.771C82.1542 166.917 82.1266 167.02 81.9904 167.099C81.857 167.316 81.6625 167.491 81.514 167.7C81.4202 167.807 81.335 167.958 81.1668 167.914C80.997 167.851 80.928 168.091 80.7817 168.115C80.6349 168.087 80.4658 168.105 80.3331 168.044C80.2281 167.973 80.045 168.089 79.9368 167.985C79.7876 168.006 79.7346 167.847 79.5899 167.844C79.4622 167.694 79.2687 167.63 79.1338 167.488C78.9264 167.462 78.7443 167.363 78.5577 167.279C78.4158 167.283 78.2951 167.249 78.2066 167.144C78.0664 167.136 77.9511 167.084 77.8651 166.972C77.7562 166.92 77.6738 166.725 77.547 166.804C77.4053 166.805 77.2544 166.709 77.124 166.816C77.0011 166.913 76.8338 166.917 76.6986 166.852C76.5792 166.765 76.4524 166.666 76.2908 166.677C76.1605 166.661 76.056 166.559 75.9239 166.553C75.8325 166.444 75.712 166.361 75.5649 166.36C75.5686 166.196 75.3622 166.248 75.268 166.152C75.1007 166.111 74.8819 166.156 74.7956 165.97C74.6628 165.893 74.8104 165.637 74.6317 165.662C74.4435 165.652 74.2753 165.537 74.0806 165.557C73.8823 165.517 73.6786 165.448 73.5294 165.304C73.3741 165.32 73.2522 165.252 73.1457 165.145C73.0211 165.065 72.9361 164.958 72.9571 164.803C72.9711 164.589 72.8401 164.373 72.9271 164.165C73.0716 164.164 73.0984 164.001 73.2051 163.943C73.2603 163.831 73.4188 163.807 73.4583 163.679C73.5691 163.593 73.628 163.47 73.5095 163.358C73.3547 163.28 73.4478 163.091 73.4202 162.966C73.3781 162.839 73.3731 162.694 73.2747 162.586C73.1626 162.377 72.9391 162.235 72.8579 162.013C72.8618 161.883 72.8106 161.744 72.9304 161.653C72.8925 161.415 73.016 161.185 72.9794 160.945C73.1271 160.938 73.1998 160.817 73.2009 160.68C73.2556 160.561 73.2602 160.419 73.2403 160.297C73.1159 160.127 73.0427 159.877 73.1623 159.686C73.1676 159.512 73.315 159.408 73.407 159.278C73.3989 159.099 73.6261 159.031 73.6986 158.882C73.8661 158.704 74.0683 158.553 74.2206 158.36C74.3873 158.398 74.4171 158.254 74.5476 158.225C74.8052 158.218 75.0595 158.263 75.3158 158.271C75.4356 158.283 75.5412 158.179 75.6759 158.191C75.797 158.079 75.9618 158.104 76.1155 158.092C76.1368 158.111 76.1587 158.13 76.1804 158.149ZM82.0025 177.037C82.0993 177.145 82.2305 177.082 82.3485 177.125C82.4729 177.115 82.6304 177.154 82.6109 177.328C82.5667 177.433 82.6291 177.604 82.5255 177.673C82.3814 177.705 82.2576 177.815 82.2699 177.971C82.2095 178.096 82.2062 178.21 82.2235 178.347C82.2204 178.48 82.1545 178.585 82.221 178.717C82.1943 178.839 82.1301 178.98 82.2018 179.1C82.2751 179.201 82.2154 179.291 82.3027 179.396C82.3816 179.525 82.2903 179.634 82.3096 179.757C82.3339 179.988 82.3231 180.257 82.5139 180.423C82.6105 180.543 82.6166 180.694 82.7016 180.822C82.7735 180.932 82.8421 181.067 82.9761 181.089C83.0409 181.209 83.191 181.227 83.3001 181.261C83.4173 181.299 83.5654 181.33 83.6186 181.199C83.7634 181.188 83.8394 181.376 83.9958 181.329C84.1274 181.356 84.2689 181.27 84.3881 181.326C84.5149 181.409 84.4039 181.582 84.5491 181.642C84.6711 181.611 84.7763 181.699 84.872 181.776C85.027 181.782 85.0093 182.059 85.1672 182.012C85.3061 182.141 85.077 182.227 85.2076 182.323C85.346 182.389 85.5044 182.312 85.6353 182.299C85.7339 182.365 85.9545 182.249 85.9468 182.417C86.1059 182.488 86.1089 182.588 86.0049 182.713C86.0351 182.893 86.2575 182.75 86.1562 182.634C86.2031 182.487 86.436 182.485 86.3691 182.671C86.3115 182.788 86.3503 182.917 86.3376 183.02C86.2677 183.194 86.1687 183.121 86.0439 183.172C85.9416 183.245 85.7506 183.211 85.772 183.388C85.8332 183.499 85.6331 183.606 85.5434 183.659C85.4064 183.712 85.429 183.902 85.3392 184.004C85.3042 184.137 85.4014 184.253 85.372 184.392C85.3366 184.537 85.4522 184.658 85.3937 184.789C85.3718 184.921 85.4424 185.115 85.326 185.2C85.2036 185.304 85.3322 185.518 85.1777 185.612C85.0945 185.709 84.9361 185.714 84.9164 185.864C84.8056 185.973 84.8836 186.091 84.7338 186.157C84.6234 186.247 84.4613 186.165 84.3278 186.187C84.2067 186.118 84.1007 186.01 83.9507 186.067C83.8087 186.17 83.6996 185.984 83.5568 185.971C83.4309 185.916 83.3518 185.777 83.2164 185.857C83.1233 185.803 82.9792 185.769 82.8729 185.696C82.7373 185.687 82.6335 185.612 82.5264 185.539C82.3494 185.579 82.3602 185.46 82.287 185.344C82.2215 185.233 82.0342 185.327 81.9891 185.17C81.9416 185.038 81.8404 184.997 81.7461 184.925C81.7273 184.799 81.6909 184.648 81.5887 184.568C81.3815 184.531 81.335 184.297 81.1777 184.197C81.0596 184.132 80.9061 184.171 80.8086 184.069C80.6367 184.128 80.6067 183.942 80.5674 183.821C80.5015 183.693 80.5296 183.529 80.429 183.41C80.3569 183.308 80.2586 183.271 80.1942 183.161C80.1635 183.051 80.0878 182.919 80.0391 182.812C79.9478 182.701 79.7776 182.758 79.7219 182.598C79.64 182.492 79.5977 182.372 79.5406 182.258C79.5158 182.038 79.3272 181.884 79.3198 181.658C79.2733 181.525 79.2466 181.383 79.1312 181.283C78.9894 181.174 79.1399 181.049 79.028 180.954C78.9445 180.813 78.8931 180.619 78.9728 180.471C79.0087 180.188 79.1805 179.958 79.3136 179.716C79.3986 179.591 79.4369 179.433 79.5233 179.302C79.5944 179.147 79.6072 178.971 79.7003 178.83C79.6672 178.688 79.6437 178.546 79.6534 178.399C79.497 178.307 79.6496 178.175 79.638 178.049C79.5923 177.926 79.5772 177.801 79.6851 177.699C79.7953 177.648 79.9392 177.612 80.0459 177.529C80.1684 177.482 80.2051 177.33 80.3524 177.338C80.5035 177.217 80.7118 177.224 80.8774 177.139C81.0025 177.112 81.1205 177.093 81.1906 176.981C81.3015 176.898 81.4224 177.027 81.5269 177.052C81.6638 177.152 81.7444 176.894 81.8419 177C81.8892 177.023 81.951 177.023 82.0025 177.037ZM52.1925 102.43C52.2371 102.576 52.2735 102.613 52.4073 102.676C52.4126 102.793 52.6593 102.875 52.5482 102.965C52.401 103.043 52.4166 103.214 52.5672 103.279C52.7171 103.36 52.8783 103.471 52.8805 103.661C52.9199 103.822 52.8387 104.019 52.9311 104.159C53.0365 104.206 53.1985 104.186 53.2456 104.335C53.3136 104.464 53.0796 104.612 53.2459 104.714C53.2211 104.845 53.1425 104.955 53.2676 105.06C53.3046 105.173 53.3749 105.274 53.4389 105.372C53.5582 105.571 53.8506 105.609 54.0178 105.455C54.1829 105.52 54.1959 105.294 54.3356 105.322C54.4782 105.32 54.6112 105.286 54.7518 105.322C54.887 105.301 54.9978 105.332 55.1154 105.4C55.3076 105.504 55.4697 105.673 55.4878 105.899C55.5089 106.099 55.5805 106.278 55.7064 106.434C55.8238 106.536 55.718 106.686 55.7873 106.777C55.8687 106.896 55.9706 106.936 56.0939 106.852C56.223 106.801 56.4115 106.841 56.3695 107.018C56.3962 107.134 56.1938 107.266 56.359 107.351C56.5546 107.486 56.6188 107.755 56.8498 107.854C57.1094 107.958 57.4181 107.917 57.6673 108.053C57.7889 108.053 57.9317 108.008 58.0152 107.926C58.1606 107.759 58.3114 107.5 58.5667 107.558C58.7208 107.547 58.8296 107.682 58.9623 107.729C59.1442 107.87 59.3258 108.014 59.4357 108.219C59.4997 108.344 59.6158 108.377 59.7317 108.43C59.9134 108.44 59.8103 108.683 59.6668 108.609C59.5529 108.557 59.3568 108.568 59.3836 108.737C59.4366 108.848 59.3389 109.008 59.441 109.082C59.4488 109.201 59.6517 109.284 59.584 109.398C59.5021 109.513 59.565 109.658 59.5442 109.789C59.3878 109.882 59.3474 109.685 59.2316 109.647C59.0666 109.666 58.8949 109.675 58.7525 109.579C58.5597 109.506 58.4147 109.338 58.2226 109.256C58.0748 109.139 57.8859 109.122 57.7166 109.049C57.6014 108.961 57.4227 109.058 57.3109 108.94C57.1833 108.889 57.089 108.789 57.1138 108.645C57.0514 108.52 56.8639 108.61 56.7528 108.552C56.5756 108.612 56.5627 108.391 56.4405 108.357C56.4289 108.155 56.1706 108.186 56.0262 108.198C55.7653 108.289 55.4918 108.229 55.2204 108.233C55.1045 108.238 54.9959 108.322 54.8857 108.363C54.7676 108.414 54.6688 108.495 54.5547 108.559C54.4303 108.617 54.3895 108.815 54.2285 108.77C54.1076 108.778 53.9565 108.813 53.9611 108.972C53.9886 109.139 53.9308 109.223 53.7574 109.201C53.7022 109.036 53.5212 109.056 53.5514 109.235C53.5022 109.305 53.3766 109.153 53.2386 109.21C53.0494 109.246 53.1469 108.958 52.9675 109.008C52.8336 108.989 52.7399 108.893 52.5957 108.92C52.4637 108.897 52.2891 108.945 52.2038 108.815C52.0477 108.911 51.8821 108.774 51.7162 108.794C51.5599 108.683 51.6023 108.464 51.5224 108.314C51.3954 108.172 51.1353 108.215 51.074 108.004C51.0282 107.841 51.1351 107.614 50.9888 107.492C50.948 107.344 51.0052 107.164 50.9025 107.041C50.9542 106.913 50.9927 106.813 50.8539 106.747C50.8705 106.605 50.7947 106.421 50.6239 106.446C50.5373 106.39 50.4488 106.262 50.4099 106.16C50.3343 106.006 50.3281 105.803 50.1536 105.719C50.08 105.613 50.1343 105.434 50.2925 105.498C50.448 105.434 50.3766 105.279 50.3952 105.152C50.4475 104.978 50.3455 104.763 50.5115 104.635C50.3698 104.521 50.5857 104.419 50.5102 104.27C50.632 104.075 50.9408 104.012 50.986 103.754C51.083 103.725 51.2591 103.604 51.2239 103.509C51.1691 103.411 51.1886 103.254 51.2576 103.177C51.4004 103.148 51.4291 102.936 51.2738 102.894C51.1702 102.81 51.1242 102.695 51.1213 102.564C50.9546 102.432 51.1169 102.374 51.2624 102.405C51.3965 102.376 51.5566 102.467 51.6705 102.404C51.7202 102.233 51.8564 102.217 52.0012 102.292C52.0919 102.303 52.1342 102.368 52.1925 102.43ZM53.5668 87.0079C53.3716 87.0391 53.1514 86.9809 52.9828 87.1029C52.8374 87.1043 52.7451 87.0128 52.6019 87.0312C52.4573 86.9518 52.4794 87.3334 52.3817 87.1243C52.3333 87.0099 52.231 86.9387 52.1934 86.8247C51.9809 86.8839 52.0698 86.7022 51.9673 86.6037C51.8492 86.5043 51.8733 86.3693 51.9596 86.2622C52.1077 86.0772 52.0569 85.83 52.0497 85.611C51.9787 85.5275 51.8181 85.3873 51.8584 85.2996C52.005 85.125 51.9925 84.8659 51.9881 84.6504C51.9565 84.5088 51.8702 84.3892 51.8118 84.2649C51.7235 84.1558 51.7401 83.9937 51.6696 83.8713C51.6403 83.6744 51.5737 83.4899 51.4554 83.3296C51.4085 83.0571 51.4183 82.776 51.3929 82.5042C51.4124 82.2269 51.4286 81.9424 51.394 81.6677C51.3505 81.4645 51.3237 81.2503 51.17 81.0952C51.0742 80.8788 50.7623 80.803 50.7732 80.5347C50.7778 80.3942 50.7062 80.2791 50.7229 80.1395C50.6662 80.0139 50.4316 80.0189 50.4778 79.8443C50.5095 79.7152 50.5249 79.582 50.5144 79.4425C50.4626 79.3133 50.3755 79.1954 50.3087 79.0804C50.2839 78.9594 50.4399 78.8112 50.2894 78.7171C50.1608 78.6574 50.1153 78.5447 50.0114 78.4499C49.9895 78.2616 50.1547 78.111 50.2327 77.9478C50.1612 77.7586 49.9486 77.5854 50.0349 77.3648C50.0752 77.2416 50.2968 77.1697 50.267 77.0609C50.1807 76.9329 50.2729 76.7954 50.3755 76.7079C50.4318 76.5889 50.3384 76.4521 50.3864 76.3175C50.4499 76.1711 50.2303 76.0758 50.3873 75.9553C50.3518 75.7994 50.4957 75.7396 50.499 75.5978C50.4799 75.4462 50.5969 75.3475 50.6164 75.2182C50.5411 75.1249 50.5045 74.9738 50.6657 74.9167C50.782 74.8445 50.9226 74.8082 50.9963 74.6827C50.915 74.5765 50.7592 74.5703 50.6854 74.4496C50.8714 74.3376 50.7691 74.0895 50.8394 73.9152C50.6727 73.8505 50.7958 73.6972 50.7761 73.5716C50.8131 73.4404 50.6841 73.3155 50.7489 73.2031C50.8304 73.0687 50.844 72.8904 50.8611 72.7346C50.8981 72.5994 50.7139 72.4776 50.8497 72.3685C50.9104 72.2357 51.0037 72.1541 51.1568 72.1824C51.2672 72.1314 51.4271 72.0927 51.5044 72.2234C51.5077 72.4158 51.52 72.6221 51.4985 72.8132C51.4028 73.0018 51.207 73.1958 51.2935 73.421C51.4304 73.6295 51.6668 73.765 51.9167 73.7713C52.1167 73.7621 52.176 73.9787 52.1934 74.139C52.2308 74.3389 52.2032 74.5509 52.198 74.748C52.3123 74.9353 52.2842 75.1595 52.2659 75.3673C52.2882 75.4792 52.3114 75.5861 52.2291 75.6921C52.1173 75.7722 52.0464 75.8992 51.9806 76.0136C51.9618 76.2005 52.0017 76.3928 52.1204 76.5438C52.1901 76.6622 52.084 76.8093 52.2126 76.9219C52.2882 77.0655 52.297 77.2357 52.3716 77.3815C52.4028 77.6216 52.6711 77.7521 52.6862 78.0037C52.7604 78.2579 52.8518 78.5061 52.8608 78.7745C52.8621 78.9086 52.9775 79.0146 52.9999 79.1272C52.9883 79.3623 52.9618 79.5993 53.0555 79.8228C53.0847 80.0662 53.3208 80.249 53.2754 80.5028C53.3293 80.7649 53.5488 80.9552 53.6307 81.2045C53.7039 81.4627 53.7494 81.727 53.7287 81.9964C53.6923 82.1829 53.8287 82.3347 53.9635 82.4447C53.9878 82.5713 53.8147 82.6478 53.9104 82.784C53.9238 82.9106 54.1056 82.9779 54.1124 83.0853C54.0362 83.195 53.9105 83.3232 54.0616 83.4275C54.2027 83.6162 54.1426 83.8746 54.2675 84.0729C54.3904 84.4378 54.4163 84.8349 54.367 85.215C54.3749 85.3588 54.2456 85.4131 54.1564 85.4969C54.0938 85.6306 54.16 85.7414 54.1889 85.8613C54.1646 85.9862 54.2693 86.1551 54.1841 86.2475C54.0101 86.3449 53.9142 86.5212 53.7977 86.6692C53.7517 86.8036 53.6309 86.885 53.5668 87.0079ZM50.9029 70.4125C50.7277 70.4176 50.5555 70.4211 50.3906 70.3567C50.2513 70.3439 50.1334 70.2714 50.0609 70.1519C50.1948 70.1159 50.4304 70.1245 50.4189 69.9353C50.3998 69.7985 50.3527 69.6717 50.3717 69.5289C50.3332 69.3747 50.5358 69.3451 50.5078 69.1916C50.4749 69.0684 50.2957 69.0396 50.2083 68.9776C50.2053 68.8481 50.1702 68.7051 50.0136 68.686C49.9591 68.6262 50.067 68.4564 50.0694 68.3444C50.0933 68.1839 50.1739 67.9822 50.0086 67.8672C49.8874 67.7795 49.8979 67.6383 49.8669 67.5077C49.855 67.3502 49.8118 67.1782 49.8324 67.0276C49.9314 66.9376 49.8993 66.7923 49.9912 66.699C50.0953 66.5138 50.021 66.2869 50.0452 66.0831C50.034 65.8699 49.8452 65.6889 49.9358 65.4726C50.0338 65.1667 49.8123 64.8772 49.8191 64.5687C49.7832 64.2846 49.7913 63.9857 49.6785 63.7209C49.6542 63.5373 49.5043 63.4188 49.393 63.2809C49.2969 63.1632 49.3076 62.9978 49.2058 62.8866C49.0859 62.4669 49.2178 62.0163 49.1061 61.5961C49.0102 61.4731 48.8947 61.3597 48.903 61.1892C48.8071 60.9471 48.9503 60.6825 48.9589 60.4312C48.9926 60.284 48.9582 60.166 48.8297 60.0815C48.6494 59.935 48.7455 59.676 48.7208 59.475C48.6921 59.3213 48.8106 59.1851 48.7464 59.0309C48.6485 58.7666 48.5556 58.4983 48.5077 58.2173C48.4529 57.9441 48.4708 57.6545 48.5488 57.3862C48.6299 57.2129 48.8327 57.1946 49.004 57.214C49.1569 57.2166 49.2557 57.3675 49.383 57.4377C49.4196 57.7134 49.4977 58.002 49.7236 58.1852C49.8027 58.2967 49.813 58.4334 49.8784 58.5553C49.9755 58.7758 49.857 58.9973 49.7873 59.2023C49.7827 59.3212 49.8105 59.4591 49.9078 59.5339C50.0164 59.6646 50.2326 59.7474 50.2044 59.9489C50.2197 60.1169 50.0392 60.2284 50.0349 60.4C50.1273 60.5418 50.3168 60.5491 50.3959 60.7059C50.5071 60.7945 50.5062 60.9273 50.5827 61.0342C50.6929 61.1356 50.7376 61.2601 50.6764 61.4036C50.6357 61.5376 50.5989 61.6808 50.4673 61.756C50.4808 61.9042 50.5487 62.0346 50.5408 62.1883C50.5871 62.4689 50.6289 62.7616 50.7584 63.0163C50.8574 63.1183 50.9448 63.2345 50.9124 63.3846C50.9257 63.5846 50.8911 63.7961 50.9367 63.9888C50.9829 64.1563 50.9592 64.3791 51.1191 64.4999C51.2826 64.6879 51.4782 64.8821 51.5235 65.1347C51.513 65.3267 51.4895 65.5167 51.5051 65.7112C51.6276 65.8255 51.5071 65.9634 51.5384 66.0986C51.5518 66.321 51.5489 66.548 51.5018 66.7633C51.4966 66.9328 51.7 67.0265 51.6514 67.2051C51.6448 67.3816 51.6087 67.5585 51.6597 67.7342C51.6229 67.8382 51.4591 67.8984 51.4041 68.0155C51.3921 68.1859 51.6346 68.0632 51.6996 68.1936C51.6994 68.3213 51.6264 68.4467 51.6407 68.5839C51.5474 68.6391 51.3435 68.748 51.5103 68.8281C51.6619 68.8151 51.7806 68.9109 51.7397 69.0689C51.7401 69.304 51.7208 69.5878 51.495 69.7218C51.3456 69.7728 51.4503 69.9745 51.309 70.0459C51.1761 70.1218 51.2079 70.2494 51.2122 70.3629C51.1614 70.4249 50.9857 70.3884 50.9029 70.4125ZM47.1162 67.2712C47.1747 67.4201 47.4256 67.2064 47.3278 67.4369C47.1559 67.6372 47.3706 67.9249 47.23 68.1395C47.1447 68.2602 47.0448 68.3893 46.9292 68.4748C46.7643 68.5351 46.8617 68.278 46.8267 68.1828C46.6668 68.1382 46.5535 68.3 46.4815 68.4203C46.3743 68.538 46.3505 68.7003 46.2442 68.8236C46.1766 68.9363 46.0764 69.0411 45.9724 69.115C45.8261 69.1568 45.7726 69.3132 45.7106 69.4355C45.6348 69.5509 45.5074 69.6228 45.5336 69.7798C45.5527 69.9747 45.4114 70.131 45.4278 70.3239C45.3937 70.502 45.3365 70.6793 45.2134 70.8157C45.1269 70.8961 45.0476 71.0244 44.9313 71.0607C44.7689 71.168 44.7039 71.3991 44.4969 71.453C44.3243 71.4989 44.3672 71.7288 44.2042 71.7906C44.084 71.899 43.9904 72.0822 43.8029 72.0617C43.6544 72.1875 43.5201 72.3349 43.4617 72.5209C43.3708 72.6517 43.2179 72.7564 43.0518 72.7291C42.9051 72.7518 42.9314 72.9581 42.7346 72.8833C42.5977 72.9016 42.5474 72.6438 42.4105 72.7725C42.2324 72.8171 42.4514 72.5591 42.2595 72.5526C42.0376 72.5367 41.8035 72.5774 41.5892 72.5471C41.3926 72.4908 41.1741 72.421 40.9661 72.4822C40.7858 72.4584 40.7367 72.7291 40.5501 72.683C40.4119 72.6392 40.317 72.7452 40.1805 72.7291C40.0436 72.6905 39.9359 72.7564 39.7963 72.7298C39.6831 72.6645 39.5357 72.6882 39.4253 72.6067C39.3304 72.5237 39.2106 72.4637 39.1158 72.3912C38.9756 72.3832 38.9692 72.1549 38.7953 72.2069C38.6562 72.1552 38.7171 71.9652 38.6106 71.8957C38.4961 71.8051 38.6268 71.6755 38.5912 71.5653C38.6687 71.4787 38.6812 71.3388 38.7973 71.2794C38.9346 71.2111 39.0553 71.1022 39.1434 70.9821C39.3249 70.9034 39.4505 70.7261 39.5561 70.5771C39.7252 70.4928 39.8042 70.3004 39.9519 70.1845C40.0724 70.0895 40.1624 69.9479 40.3144 69.8942C40.3996 69.7759 40.5186 69.7007 40.669 69.7119C40.8073 69.7137 40.9264 69.6862 41.0243 69.5857C41.2064 69.4722 41.2421 69.2349 41.416 69.1087C41.554 68.9503 41.6821 68.7825 41.8681 68.675C41.9938 68.6028 42.097 68.4815 42.217 68.4159C42.3526 68.4012 42.4654 68.4848 42.6059 68.4674C42.688 68.3456 42.8354 68.3552 42.9463 68.2893C43.0337 68.1773 43.1633 68.1692 43.2823 68.1144C43.4761 67.9875 43.6555 67.7953 43.9079 67.8068C44.0526 67.8122 44.137 67.6741 44.2691 67.6319C44.3981 67.5125 44.6161 67.6396 44.7562 67.5343C44.9468 67.5026 45.1733 67.6341 45.3262 67.4703C45.4495 67.3907 45.6331 67.4947 45.7363 67.3605C45.8683 67.3381 45.9895 67.2816 46.1387 67.3053C46.288 67.2682 46.3765 67.4111 46.5261 67.3715C46.6079 67.485 46.6858 67.4789 46.7174 67.3089C46.8611 67.1666 46.8311 67.5576 46.9303 67.3144C46.9274 67.1327 47.0315 67.1248 47.1162 67.2712ZM33.3782 25.0714C33.4825 25.191 33.6065 25.2952 33.7478 25.3625C33.8759 25.3438 34.0043 25.3212 34.1 25.4657C34.2529 25.6007 34.3528 25.7747 34.4836 25.926C34.7053 25.9565 34.4507 26.0958 34.6111 26.2C34.6115 26.3436 34.7475 26.4234 34.7458 26.5618C34.7042 26.6985 34.8231 26.8223 34.942 26.8754C34.8016 27.0185 35.1913 27.0418 34.9151 27.075C34.9074 27.1357 35.1311 27.2149 35.1192 27.3392C35.1762 27.4472 35.3646 27.5347 35.2574 27.6703C35.1687 27.8307 35.3534 27.8498 35.4292 27.9519C35.554 27.9798 35.549 28.3033 35.471 28.1295C35.4585 27.9734 35.2713 27.9239 35.2068 28.079C35.1565 28.2025 34.9663 28.2292 35.0071 28.3833C34.9685 28.5107 35.0699 28.6176 35.0044 28.7418C35.0082 28.8841 35.1033 29.0026 35.0737 29.151C35.0459 29.305 35.2321 29.3237 35.3229 29.3828C35.4518 29.526 35.6748 29.4359 35.7479 29.2784C35.811 29.0908 35.9198 29.237 35.9998 29.3325C36.1102 29.3686 36.29 29.4293 36.1256 29.5339C35.9983 29.6694 35.8187 29.6694 35.6467 29.6846C35.5321 29.7451 35.4724 29.9089 35.321 29.9216C35.1495 29.9379 35.2424 30.1253 35.1558 30.2091C35.0868 30.0983 34.9322 30.0727 34.8323 30.155C35.0082 30.3105 34.7217 30.2709 34.6623 30.1644C34.5578 30.0107 34.4242 30.1365 34.3081 30.1783C34.2063 30.2607 34.0796 30.2951 33.9618 30.3481C33.7839 30.3758 33.5973 30.3641 33.4297 30.2905C33.3507 30.3045 33.2109 30.535 33.3257 30.5917C33.5193 30.6676 33.2919 30.7947 33.4253 30.9064C33.5368 31.0217 33.7079 31.1116 33.6794 31.2983C33.7031 31.4996 33.3791 31.4786 33.3645 31.6689C33.2234 31.8336 33.0002 31.8901 32.7884 31.8831C32.6664 31.781 32.5386 31.6476 32.5741 31.4752C32.5581 31.2198 32.586 30.9564 32.6795 30.7208C32.7154 30.4362 32.4445 30.2317 32.2247 30.1062C32.0806 30.104 32.027 30.0116 31.9746 29.8994C31.786 29.6865 31.5619 29.4999 31.4217 29.2513C31.2912 29.095 31.0875 28.9848 31.0038 28.7999C30.9727 28.6123 30.905 28.437 30.919 28.2444C30.9238 28.1364 31.1221 28.0469 31.0123 27.9011C30.9643 27.7838 31.1499 27.6723 31.034 27.5565C31.0476 27.437 30.9874 27.2875 31.0861 27.1958C31.0713 27.0524 31.1015 26.9013 31.0498 26.7645C31.1788 26.6688 31.1643 26.485 31.2517 26.3739C31.3172 26.2748 31.3989 26.1806 31.4644 26.0753C31.5032 25.9352 31.6863 25.9805 31.7588 25.8473C31.8672 25.758 31.9606 25.6524 32.0697 25.5651C32.2098 25.3672 32.4385 25.2623 32.6773 25.2504C32.8103 25.2372 32.8129 25.0369 32.9759 25.1154C33.1112 25.1187 33.2343 25.1484 33.3349 25.063L33.3576 25.0676L33.3782 25.0714ZM35.2472 38.0738C35.3295 38.1758 35.455 38.0557 35.5724 38.1516C35.7295 38.1268 35.8215 38.3845 35.9963 38.3242C36.1418 38.2349 36.2092 38.4441 36.3459 38.3959C36.3113 38.5563 36.5558 38.4283 36.6136 38.5611C36.768 38.653 36.6258 38.8098 36.763 38.8879C36.7967 38.9693 37.0055 39.0884 36.9347 39.1736C36.8618 39.247 36.7014 39.3369 36.7435 39.4141C36.9351 39.3906 36.913 39.5751 36.8784 39.7024C36.9126 39.8247 37.0517 39.8973 36.9858 40.0534C36.9722 40.1768 36.8863 40.2824 36.8149 40.3882C36.7459 40.5524 36.8521 40.7723 36.7144 40.9228C36.639 41.0347 36.5069 41.1161 36.4419 41.2274C36.4469 41.394 36.3242 41.5205 36.354 41.6914C36.3347 41.8218 36.2988 41.9526 36.2451 42.0732C36.204 42.2143 36.1718 42.3667 36.0787 42.4879C35.9687 42.4239 35.8822 42.6115 35.807 42.6804C35.7231 42.7874 35.5738 42.7787 35.4623 42.8343C35.2627 42.893 35.0579 42.8752 34.8538 42.8572C34.7265 42.8369 34.6051 42.8338 34.4868 42.7703C34.3804 42.7883 34.2568 42.8658 34.1243 42.8079C33.874 42.829 33.6726 42.6234 33.4223 42.6397C33.3305 42.7212 33.1651 42.7151 33.0547 42.6781C32.9345 42.7067 32.7984 42.7039 32.6782 42.7569C32.5321 42.7345 32.3603 42.8449 32.2361 42.7428C32.308 42.5843 32.1958 42.5049 32.0407 42.5367C31.9119 42.5126 31.8175 42.4483 31.6971 42.4101C31.6024 42.3001 31.7601 42.173 31.839 42.1013C31.9647 42.0234 32.0331 41.8794 32.0771 41.7472C32.0167 41.6248 32.1777 41.521 32.1579 41.3741C32.2537 41.2639 32.3172 41.1755 32.1748 41.0675C32.2267 40.9492 32.0791 40.8869 32.0443 40.7609C32.0366 40.6318 31.9371 40.5227 31.9485 40.4222C32.0891 40.349 32.1225 40.1535 31.9961 40.0517C32.0005 39.889 31.9864 39.7322 31.9468 39.5769C32.0675 39.481 32.058 39.3405 32.0554 39.2015C32.0767 39.0623 32.1939 38.9554 32.1943 38.8092C32.2723 38.6814 32.4162 38.6704 32.5432 38.7317C32.6981 38.7599 32.6545 38.5301 32.816 38.5134C32.9101 38.4267 33.0666 38.4896 33.1147 38.3779C33.0639 38.2042 33.2002 38.1835 33.3119 38.3067C33.4278 38.3141 33.5517 38.4298 33.6507 38.3515C33.7417 38.1874 33.8319 38.3555 33.9408 38.2829C34.1123 38.3211 34.1791 38.1026 34.3445 38.092C34.4752 38.0735 34.5972 38.0333 34.702 37.9519C34.8746 37.9409 35.0581 37.9682 35.2014 38.063C35.2169 38.0667 35.232 38.0704 35.2472 38.0738ZM94.9878 199.212C95.1528 199.186 95.2272 199.236 95.298 199.372C95.3041 199.494 95.4202 199.58 95.5093 199.654C95.5976 199.76 95.751 199.683 95.8664 199.722C95.9825 199.589 96.1179 199.739 96.2247 199.793C96.3608 199.9 96.4605 200.052 96.4423 200.232C96.5294 200.315 96.5667 200.439 96.5621 200.558C96.4946 200.707 96.7862 200.752 96.5742 200.837C96.6285 200.948 96.4561 201.066 96.5327 201.198C96.6252 201.371 96.4129 201.356 96.3546 201.461C96.3238 201.583 96.3948 201.77 96.2258 201.814C96.0955 201.855 95.9685 201.945 95.9696 202.096C95.9709 202.29 95.7669 202.191 95.6874 202.292C95.5749 202.332 95.4031 202.455 95.3238 202.299C95.2662 202.183 95.093 202.191 95.0121 202.278C94.873 202.376 94.7688 202.241 94.6838 202.144C94.5335 202.063 94.355 201.998 94.1872 202.066C94.0798 201.951 93.9239 201.966 93.7806 201.96C93.73 202.08 93.5848 202.224 93.5642 202.006C93.5927 201.817 93.4694 201.789 93.3081 201.811C93.1233 201.753 93.2208 201.483 93.0716 201.382C92.9574 201.317 92.8804 201.217 92.8657 201.082C92.7314 201.023 92.6887 200.889 92.6856 200.753C92.5213 200.664 92.6092 200.459 92.5866 200.308C92.5467 200.171 92.655 200.088 92.7055 199.984C92.6858 199.836 92.7629 199.714 92.8965 199.652C92.9767 199.568 92.9737 199.403 93.1279 199.404C93.2348 199.356 93.366 199.209 93.4461 199.372C93.5543 199.37 93.6676 199.274 93.7911 199.258C93.9228 199.234 94.0531 199.153 94.1845 199.216C94.3096 199.24 94.4152 199.159 94.5409 199.207C94.6857 199.176 94.8417 199.191 94.9878 199.212ZM25.3826 77.0701C25.5011 77.1519 25.6941 77.0039 25.8029 77.1332C25.9144 77.1977 26.0713 77.1376 26.199 77.1897C26.3735 77.2907 26.5926 77.2273 26.7847 77.2685C26.9643 77.2904 27.1487 77.2847 27.3273 77.3032C27.4429 77.3786 27.6136 77.4389 27.58 77.6098C27.7008 77.7545 27.6179 77.9597 27.6026 78.1283C27.5386 78.2909 27.3619 78.3687 27.2548 78.5022C27.1326 78.5902 27.1036 78.7646 27.1028 78.9064C27.1947 78.9917 27.2206 79.1243 27.2933 79.2143C27.3207 79.341 27.481 79.3365 27.5034 79.4799C27.593 79.6033 27.5362 79.713 27.5122 79.8367C27.4618 80.035 27.3476 80.2319 27.1713 80.3394C27.0986 80.459 26.9429 80.4419 26.8265 80.5013C26.6704 80.4793 26.6222 80.5389 26.4958 80.5116C26.3687 80.4918 26.259 80.4351 26.1308 80.401C26.0088 80.3627 25.8973 80.3051 25.7839 80.2543C25.6522 80.2248 25.5731 80.1265 25.4663 80.055C25.38 79.9422 25.2645 79.9173 25.153 79.8474C25.0534 79.7482 24.9327 79.7093 24.7964 79.6737C24.69 79.5816 24.578 79.5277 24.468 79.445C24.3239 79.4423 24.1642 79.4148 24.0569 79.3095C23.9255 79.2785 23.8328 79.1756 23.722 79.1131C23.6033 78.9339 23.4103 78.8026 23.2964 78.626C23.2696 78.4424 23.2655 78.2445 23.2915 78.0652C23.3106 77.9447 23.3452 77.8187 23.3647 77.6982C23.398 77.5618 23.4085 77.4741 23.5205 77.3916C23.6909 77.31 23.7956 77.1119 24.0035 77.1106C24.2856 77.0534 24.5866 77.1182 24.8718 77.0767C25.0391 77.0158 25.2115 77.056 25.3826 77.0701ZM9.55439 7.65661C9.68301 7.68723 9.82082 7.6964 9.91153 7.80571C10.0608 7.7727 10.1505 7.91592 10.1583 8.03219C10.2948 8.1437 10.2731 8.34543 10.2111 8.49195C10.2516 8.61373 10.2183 8.74925 10.2983 8.85397C10.316 8.9917 10.224 9.16005 10.4249 9.05075C10.5715 9.00307 10.4334 9.33207 10.3233 9.15931C10.2105 9.282 10.2146 9.46668 10.1826 9.62311C10.3005 9.72251 10.3914 9.9081 10.2667 10.0365C10.177 10.271 10.2131 10.5498 10.1069 10.7869C10.161 10.9797 10.0389 10.9828 9.88817 10.9226C9.70877 10.8104 9.552 10.6672 9.36395 10.5672C9.26901 10.4876 9.06348 10.3983 9.161 10.2487C9.23809 10.1293 9.15033 9.96954 9.22853 9.84831C9.13119 9.74727 9.19449 9.61247 9.12493 9.50977C9.18694 9.39204 9.08685 9.23506 9.2024 9.15161C9.36837 9.19159 9.35898 9.02599 9.42559 8.91742C9.34868 8.80574 9.55071 8.76301 9.56285 8.63775C9.53949 8.48132 9.51152 8.31938 9.36579 8.22861C9.20865 8.1514 9.30378 8.03641 9.2311 7.90767C9.21141 7.76243 9.20001 7.65477 9.21399 7.60086C9.30783 7.49486 9.44969 7.63497 9.55439 7.65661ZM26.2299 75.6242C26.4158 75.6684 26.606 75.6213 26.793 75.6083C26.8697 75.7095 27.0539 75.6945 27.0027 75.8705C27.0351 76.0077 26.9935 76.1282 26.9159 76.2392C26.8347 76.4148 26.6885 76.5605 26.4907 76.5889C26.3718 76.6333 26.2224 76.6494 26.1011 76.6342C25.8527 76.5058 25.5675 76.6179 25.3064 76.5849C25.1692 76.5348 24.9979 76.6177 24.8829 76.51C24.7405 76.4778 24.5879 76.4479 24.454 76.4057C24.325 76.343 24.2229 76.2744 24.2814 76.1071C24.3879 75.8384 24.6505 75.6717 24.8413 75.4645C24.9738 75.3565 25.1109 75.2364 25.1353 75.0589C25.2115 74.89 25.3793 74.7762 25.5521 74.7341C25.6754 74.6521 25.7589 74.4909 25.9249 74.5013C26.0844 74.3161 26.3473 74.4174 26.5453 74.4678C26.7466 74.5505 26.5657 74.6715 26.4217 74.633C26.2912 74.6528 26.0815 74.6207 26.024 74.7629C26.0458 74.8966 26.2421 74.9176 26.3221 75.0051C26.337 75.1194 26.3628 75.269 26.4001 75.3651C26.3446 75.4291 26.0848 75.5151 26.2299 75.6242ZM29.7269 20.3907C29.8566 20.4518 30.0058 20.4199 30.0531 20.2737C30.1548 20.1527 30.2816 19.9708 30.4595 20.0027C30.482 20.143 30.5278 20.2776 30.5065 20.4175C30.4204 20.5831 30.2489 20.6867 30.1624 20.8569C29.9432 20.8798 29.7712 21.0619 29.5403 21.0269C29.2264 21.0434 28.9579 20.8382 28.7546 20.6209C28.7093 20.4962 28.6793 20.383 28.6144 20.2794C28.4576 20.1773 28.7125 20.1166 28.6805 19.9766C28.7358 19.6893 28.9822 19.4982 29.1898 19.3157C29.4084 19.1866 29.6963 19.2278 29.9199 19.3245C30.0908 19.3808 30.2299 19.5152 30.4021 19.5768C30.3116 19.7435 30.0842 19.69 29.9605 19.8195C29.7616 19.902 29.652 20.1169 29.6512 20.328C29.6764 20.3489 29.7017 20.3698 29.7269 20.3907ZM11.134 11.7791C11.2669 11.8399 11.4003 11.7184 11.5451 11.7625C11.7506 11.9129 11.668 11.6543 11.7714 11.6499C11.896 11.63 12.0995 11.6393 12.0389 11.8163C12.0505 11.9377 12.1376 12.0571 12.19 12.1678C12.2082 12.3116 12.2119 12.4567 12.2261 12.6008C12.0474 12.5946 12.0239 12.3655 11.9054 12.2674C11.7771 12.3699 11.9366 12.5123 11.8899 12.645C11.9179 12.8447 11.6724 12.8523 11.5364 12.9047C11.3795 12.9568 11.2314 13.0448 11.0873 13.1132C10.957 13.1141 10.9922 12.899 10.851 12.8363C10.8032 12.6885 10.6163 12.7664 10.5461 12.6406C10.4584 12.537 10.4816 12.3628 10.6457 12.3661C10.7949 12.265 10.5066 12.2476 10.4415 12.1955C10.2893 12.0787 10.4709 11.9894 10.5649 11.9192C10.6981 11.846 10.6332 11.6868 10.764 11.6138C10.9097 11.5997 11.013 11.7136 11.134 11.7791ZM54.9356 128.308C54.8254 128.402 54.6752 128.25 54.5682 128.368C54.4653 128.45 54.3203 128.439 54.2215 128.535C54.0452 128.589 54.0425 128.869 53.8322 128.843C53.6925 128.856 53.5771 128.933 53.4325 128.908C53.2445 128.901 53.1679 129.091 53.0398 129.198C52.9149 129.313 52.8052 129.488 52.6137 129.46C52.4621 129.397 52.627 129.233 52.7013 129.166C52.7686 129.047 52.9081 129.015 52.9935 128.933C53.0216 128.817 52.9337 128.67 52.9488 128.582C52.8406 128.444 53.0034 128.35 53.0995 128.301C53.1994 128.148 53.3679 128.079 53.5479 128.094C53.6964 128.108 53.8375 128.072 53.9843 128.067C53.9685 127.882 54.1731 127.806 54.2866 127.693C54.4221 127.651 54.5234 127.62 54.643 127.714C54.7672 127.764 54.7928 127.938 54.9006 128.023C54.9527 128.099 55.0662 128.251 54.9356 128.308ZM39.5802 23.3098C39.5657 23.4435 39.6018 23.5524 39.6277 23.6786C39.6038 23.8024 39.6787 23.9898 39.5963 24.0708C39.4708 24.0639 39.3628 24.1486 39.2216 24.1183C39.0967 24.1394 38.9762 24.1886 38.8452 24.1888C38.7283 24.2485 38.654 24.3307 38.6078 24.4464C38.4442 24.4671 38.3079 24.5819 38.1342 24.5576C37.9426 24.5559 37.7618 24.588 37.6004 24.6936C37.4775 24.7483 37.4339 24.9388 37.281 24.8996C37.1384 24.7556 37.3066 24.7056 37.4122 24.6282C37.5294 24.4917 37.6979 24.3865 37.7581 24.2155C37.8317 24.1071 37.989 24.1189 38.0527 23.9936C38.1622 23.8698 38.1482 23.6969 38.1077 23.5432C38.0725 23.3762 38.2225 23.3222 38.3598 23.3499C38.5123 23.3648 38.675 23.3019 38.8194 23.3288C39.0216 23.4565 39.259 23.3712 39.4656 23.3044C39.5037 23.3061 39.542 23.3079 39.5802 23.3098ZM56.4094 116.772C56.2597 116.788 56.1117 116.771 56.0079 116.65C55.8985 116.596 55.7101 116.619 55.7704 116.446C55.7905 116.318 55.6986 116.149 55.8569 116.086C55.991 115.991 56.182 115.997 56.277 115.845C56.408 115.719 56.6181 115.754 56.7379 115.603C56.9029 115.427 56.9044 115.105 57.1708 115.023C57.2914 114.965 57.4533 114.98 57.5824 115.009C57.719 115.078 57.8901 115.056 57.9878 115.188C58.0982 115.291 58.2233 115.375 58.3593 115.441C58.4244 115.61 58.2423 115.699 58.1378 115.798C57.8991 115.902 57.6237 115.811 57.378 115.862C57.1975 116.016 57.0372 116.197 56.8983 116.387C56.7382 116.518 56.6255 116.737 56.4094 116.772ZM62.1743 110.554C62.2998 110.584 62.5094 110.54 62.5249 110.725C62.59 110.84 62.6371 110.953 62.5554 111.067C62.5657 111.202 62.5567 111.392 62.3828 111.406C62.2524 111.479 62.2895 111.657 62.1318 111.689C61.9887 111.772 62.0213 111.907 61.9876 111.965C61.8961 112.068 61.785 112.14 61.6426 112.139C61.5528 112.238 61.4372 112.281 61.3167 112.318C61.1598 112.361 60.9896 112.293 60.8451 112.258C60.7796 112.158 60.8299 112.009 60.7954 111.888C60.792 111.677 60.7706 111.453 60.7739 111.249C60.8768 111.107 60.8356 110.9 60.9237 110.76C61.0516 110.682 61.2508 110.86 61.3638 110.705C61.4497 110.617 61.4385 110.464 61.5839 110.417C61.6538 110.286 61.8019 110.334 61.916 110.379C62.0168 110.41 62.0937 110.49 62.1743 110.554ZM53.4562 98.6747C53.6158 98.7218 53.8281 98.6385 53.9247 98.8164C53.9843 98.9343 53.9177 99.0704 53.8187 99.1493C53.7317 99.4759 53.6717 99.8181 53.7273 100.157C53.7433 100.321 53.6437 100.454 53.5506 100.573C53.5155 100.701 53.4038 100.83 53.3138 100.896C53.195 100.809 53.0849 100.939 52.9556 100.888C52.7705 100.876 52.6281 100.699 52.6012 100.527C52.6049 100.38 52.6597 100.239 52.679 100.088C52.7359 99.9289 52.7859 99.7633 52.7707 99.5883C52.7887 99.4304 52.9701 99.3426 52.9644 99.1718C53.0667 99.0448 53.0264 98.8469 53.1611 98.7339C53.2124 98.6242 53.3602 98.6974 53.4562 98.6747ZM57.0522 127.12C56.7881 127.116 56.4954 127.153 56.2702 126.998C55.9448 126.917 55.8976 126.529 55.7165 126.297C55.6825 126.102 55.5553 125.941 55.4598 125.769C55.4602 125.661 55.5853 125.538 55.5548 125.43C55.6952 125.248 55.9568 125.137 56.1737 125.235C56.2764 125.337 56.3375 125.486 56.3042 125.631C56.5027 125.918 56.6856 126.218 56.8713 126.512C56.9922 126.672 57.1353 126.845 57.1304 127.055C57.1044 127.077 57.0781 127.098 57.0522 127.12ZM56.2334 100.081C56.426 100.252 56.5342 100.495 56.5679 100.745C56.6567 100.854 56.7162 100.975 56.6867 101.122C56.7278 101.28 56.5859 101.348 56.4622 101.378C56.323 101.449 56.1496 101.503 55.9976 101.479C55.8357 101.389 55.6258 101.381 55.4955 101.242C55.2668 101.211 55.2217 100.956 55.1996 100.768C55.2206 100.612 54.9919 100.634 55.0193 100.473C55.0296 100.327 55.1928 100.254 55.3286 100.257C55.4131 100.146 55.4905 100.094 55.6374 100.115C55.7526 100.028 55.8889 100.047 56.0295 100.059C56.0974 100.066 56.1653 100.074 56.2334 100.081ZM24.916 58.8357C25.0707 58.9538 25.1471 58.7688 25.2341 58.7869C25.4198 58.822 25.3401 58.9291 25.3372 59.0659C25.344 59.179 25.2654 59.332 25.162 59.3566C25.0505 59.3182 24.9129 59.3316 24.8004 59.2861C24.6744 59.1601 24.5331 59.031 24.3502 59.016C24.1973 59.0021 24.1344 58.8321 24.0429 58.7281C24.0072 58.5808 23.8321 58.5428 23.778 58.4194C23.7539 58.2656 23.9885 58.2632 24.0913 58.3094C24.3415 58.3732 24.5876 58.4975 24.7519 58.6998C24.8286 58.7099 24.8615 58.7904 24.916 58.8357ZM11.4374 14.2679C11.576 14.2998 11.7832 14.2255 11.8432 14.4017C11.875 14.5796 11.6678 14.5048 11.5705 14.5451C11.4619 14.6467 11.6062 14.8074 11.7311 14.8123C11.9122 14.8802 12.0975 14.9602 12.1944 15.139C12.2669 15.313 12.27 15.5389 12.1885 15.7139C12.0995 15.799 12.0472 15.9593 11.9394 16.0024C11.8215 15.9584 11.6914 15.8404 11.7409 15.7009C11.833 15.5708 11.695 15.4749 11.7466 15.3737C11.7046 15.2167 11.5434 15.0799 11.3662 15.0981C11.2317 15.0643 11.0731 15.063 10.9946 14.9325C11.0843 14.7971 10.9263 14.7032 10.9607 14.5952C11.1638 14.5208 10.9325 14.3441 11.1026 14.3165C11.2374 14.3427 11.3418 14.1382 11.4374 14.2679ZM13.2585 17.7585C13.117 17.7437 12.9269 17.8176 12.8583 17.6483C12.7354 17.521 12.8469 17.2863 12.6798 17.1995C12.6851 17.057 12.523 17.0431 12.4848 16.9245C12.4965 16.7886 12.3495 16.6661 12.5161 16.5703C12.6461 16.4871 12.8397 16.5017 12.9448 16.3627C13.0699 16.2391 13.2486 16.3574 13.3672 16.4284C13.5047 16.4906 13.5332 16.6871 13.5718 16.8243C13.65 17.0363 13.4502 17.1889 13.3687 17.3554C13.3396 17.4937 13.3945 17.6701 13.2585 17.7585ZM52.7633 130.725C52.6017 130.74 52.4853 130.612 52.3307 130.599C52.2266 130.516 52.1003 130.469 52.0047 130.377C52.1368 130.157 52.3868 130.024 52.4606 129.767C52.3195 129.623 52.5613 129.621 52.5924 129.761C52.6041 129.896 52.5981 130.033 52.7186 130.128C52.764 130.249 52.8157 130.371 52.8834 130.479C52.935 130.609 52.829 130.635 52.7633 130.725ZM105.363 182.431C105.245 182.527 105.437 182.682 105.436 182.762C105.357 182.896 105.196 182.9 105.102 183.014C104.993 183.081 105.07 183.324 104.895 183.224C104.729 183.266 104.648 183.193 104.628 183.03C104.61 182.909 104.414 182.843 104.414 182.74C104.569 182.687 104.507 182.527 104.414 182.426C104.635 182.372 104.851 182.468 105.073 182.418C105.19 182.454 105.324 182.193 105.383 182.34C105.378 182.37 105.37 182.401 105.363 182.431ZM28.1513 76.0719C28.0015 76.1196 27.8933 76.0451 27.8065 75.9276C27.6594 75.8331 27.7194 75.6321 27.8434 75.5469C27.9684 75.4335 28.1857 75.4555 28.2624 75.2767C28.3231 75.1667 28.3476 75.0352 28.3699 74.9178C28.3242 74.7955 28.4286 74.5632 28.559 74.6957C28.6832 74.8425 28.7618 75.0093 28.7851 75.2008C28.8319 75.4056 28.7564 75.614 28.6 75.7515C28.4751 75.8953 28.3461 76.0317 28.1513 76.0719ZM39.4875 29.0268C39.3241 29.1198 39.1348 29.0686 38.964 29.0376C38.8282 29.064 38.6682 29.0061 38.6825 28.8452C38.6676 28.6807 38.551 28.4709 38.7258 28.3512C38.8939 28.2164 39.1088 28.1557 39.3232 28.1452C39.4354 28.1949 39.5692 28.2571 39.563 28.4042C39.5773 28.5691 39.6884 28.7644 39.594 28.9138C39.5584 28.9514 39.523 28.9892 39.4875 29.0268ZM27.7941 72.4884C27.669 72.6608 27.6449 72.3647 27.6445 72.2709C27.6324 72.0799 27.3869 72.0118 27.3818 71.8128C27.3809 71.6771 27.3472 71.5513 27.2178 71.4847C27.23 71.3668 27.3426 71.1963 27.4732 71.2359C27.6322 71.3494 27.7168 71.5374 27.8298 71.6927C27.95 71.869 27.9027 72.0978 27.8775 72.2959C27.8228 72.3555 27.8679 72.432 27.7941 72.4884ZM60.1338 127.033C60.0381 127.14 60.0307 127.326 59.8567 127.345C59.7303 127.369 59.6219 127.532 59.494 127.432C59.351 127.307 59.3994 127.258 59.4333 127.157C59.3025 127.213 59.3338 127.099 59.374 126.953C59.4278 126.78 59.6039 126.652 59.7895 126.692C59.9143 126.696 60.1389 126.667 60.1616 126.831C60.1522 126.898 60.143 126.966 60.1338 127.033ZM48.2776 45.7319C48.0829 45.7697 47.9013 45.624 47.863 45.4388C47.7979 45.2811 47.8523 45.0893 47.8345 44.918C47.9237 44.81 48.0625 44.7047 48.2014 44.7948C48.3802 44.8461 48.5072 44.9921 48.6089 45.1458C48.6857 45.3253 48.6303 45.5248 48.4827 45.6494C48.4286 45.6888 48.3488 45.7255 48.2776 45.7319ZM63.977 114.198C64.0081 114.378 63.763 114.182 63.6857 114.33C63.5718 114.41 63.3843 114.357 63.2844 114.429C63.2533 114.56 63.0761 114.603 63.0068 114.459C62.9586 114.301 63.1196 114.169 63.2018 114.043C63.347 113.844 63.6117 113.979 63.8073 114.005C63.864 114.069 63.9205 114.134 63.977 114.198ZM26.0342 67.3887C25.8969 67.3882 25.7758 67.3225 25.631 67.3443C25.431 67.3638 25.6008 67.1598 25.641 67.074C25.6824 66.908 25.9238 66.9464 26.0027 67.0689C26.1368 67.1494 26.1906 67.293 26.0364 67.3863L26.0342 67.3887ZM42.9394 100.389C42.7675 100.513 42.591 100.649 42.3726 100.665C42.272 100.758 42.0637 100.709 42.1735 100.554C42.1419 100.334 42.3299 100.466 42.4295 100.381C42.5461 100.328 42.6306 100.174 42.7403 100.151C42.8536 100.204 42.9493 100.248 42.9394 100.389ZM62.3028 113.117C62.206 113.257 62.0803 113.049 62.0343 112.957C62.0555 112.825 61.845 112.722 61.9013 112.653C62.0525 112.655 62.1017 112.842 62.2174 112.909C62.2514 112.976 62.2974 113.04 62.3028 113.117ZM27.1917 70.8473C27.0495 70.8731 26.9203 70.8376 26.8373 70.7143C26.7952 70.5977 26.7207 70.4816 26.7302 70.3646C26.7326 70.2074 26.9507 70.2602 27.0517 70.2879C27.1844 70.3463 27.3516 70.4031 27.3547 70.5771C27.4184 70.7039 27.2622 70.7695 27.1917 70.8473ZM57.8993 127.641C57.7745 127.593 57.6345 127.743 57.5466 127.65C57.4406 127.572 57.484 127.403 57.3578 127.331C57.2555 127.263 57.1313 127.068 57.3475 127.106C57.5177 127.073 57.6656 127.146 57.794 127.253C57.9337 127.323 57.9874 127.447 57.9571 127.598C57.9377 127.612 57.9186 127.626 57.8993 127.641ZM10.6232 11.395C10.4676 11.3985 10.3344 11.4258 10.391 11.2474C10.3686 11.1102 10.5806 11.1174 10.6753 11.0913C10.8041 10.9664 10.9167 11.1278 10.9222 11.2595C10.8902 11.3626 10.7169 11.3602 10.6232 11.395ZM42.9704 101.192C43.0545 101.267 42.9421 101.541 42.8827 101.447C42.8109 101.245 42.6716 101.371 42.6453 101.27C42.6492 101.17 42.6865 100.925 42.819 101.065C42.8952 101.088 42.9498 101.107 42.9704 101.192ZM50.5006 102.918C50.3652 103.04 50.3592 102.815 50.3731 102.723C50.4506 102.575 50.7207 102.618 50.7275 102.791C50.6664 102.858 50.5847 102.889 50.5006 102.918ZM33.5782 103.292C33.3995 103.349 33.3106 103.146 33.1758 103.068C33.122 102.927 33.2806 102.843 33.4111 102.866C33.5318 102.943 33.619 103.067 33.5798 103.216C33.5791 103.241 33.5785 103.267 33.5782 103.292ZM58.7157 118.035C58.574 118.063 58.3898 118.005 58.4001 117.834C58.2439 117.701 58.3917 117.639 58.54 117.679C58.6242 117.762 58.8027 117.766 58.8119 117.902C58.8292 117.97 58.7628 118.005 58.7157 118.035ZM24.2096 62.8749C24.0963 62.9672 23.9299 62.8082 24.0486 62.7007C24.1254 62.5641 24.2902 62.5809 24.426 62.5793C24.5316 62.6233 24.7232 62.6849 24.5896 62.8217C24.4838 62.8767 24.3312 62.8524 24.2096 62.8749ZM58.5302 121.26C58.4647 121.373 58.3762 121.115 58.2136 121.179C58.0746 121.121 58.0599 120.923 58.0903 120.802C58.1907 120.698 58.3289 120.904 58.3643 120.998C58.3591 121.12 58.4794 121.158 58.5302 121.26ZM35.0962 22.5104C34.9668 22.6538 34.983 22.3956 34.8873 22.3312C34.8181 22.2501 34.8866 21.9435 34.9641 22.1271C34.9536 22.2846 35.1696 22.3499 35.0962 22.5104ZM23.4043 60.588C23.4961 60.6819 23.6904 60.5202 23.7198 60.6788C23.6968 60.7892 23.7884 61.0247 23.6188 61.0238C23.5032 60.9997 23.32 61.0305 23.2469 60.9693C23.1893 60.8427 23.3257 60.7692 23.3649 60.6474C23.3779 60.6276 23.391 60.6078 23.4043 60.588ZM20.0934 77.3144C20.0315 77.4758 19.8884 77.4325 19.757 77.3929C19.5973 77.3622 19.5688 77.2352 19.6085 77.0892C19.6751 76.9614 19.8689 76.9254 19.9399 77.067C19.9977 77.1447 20.0437 77.2313 20.0934 77.3144ZM29.2113 84.4496C29.0911 84.557 28.9003 84.4026 29.0177 84.282C29.0889 84.1611 29.2661 84.244 29.3289 84.3383C29.4396 84.4364 29.2886 84.4481 29.2113 84.4496ZM62.3946 114.849C62.2557 114.903 62.1158 114.744 62.2525 114.647C62.3495 114.552 62.4719 114.526 62.5355 114.67C62.5322 114.753 62.4652 114.815 62.3946 114.849ZM32.6733 89.4C32.8004 89.4651 33.0109 89.3542 33.0619 89.5383C33.1259 89.6997 32.8733 89.6801 32.7986 89.603C32.7588 89.5495 32.5371 89.4637 32.6733 89.4ZM27.8381 79.6851C27.6672 79.7428 27.6778 79.5264 27.7408 79.4322C27.8151 79.2702 27.9196 79.2062 27.8823 79.4349C27.8793 79.5228 27.9084 79.6154 27.8381 79.6851ZM26.6863 68.0126C26.5968 67.99 26.3672 67.9569 26.4007 67.8652C26.4173 67.7551 26.5757 67.5725 26.6642 67.7056C26.7209 67.7969 26.8051 67.9383 26.6863 68.0126ZM50.9809 131.395C50.9007 131.522 50.6659 131.471 50.869 131.36C50.9665 131.309 51.0972 131.145 51.1818 131.171C51.235 131.278 51.0558 131.35 50.9809 131.395ZM32.7722 89.0637C32.6442 89.175 32.4913 88.9368 32.663 88.9036C32.7676 88.8502 32.9919 88.919 32.9314 89.0584C32.8784 89.0606 32.8254 89.0622 32.7722 89.0637ZM36.5969 101.157C36.5025 101.211 36.3428 101.057 36.5179 100.976C36.6554 100.824 36.6456 101.08 36.5969 101.157ZM41.6491 101.995C41.5198 102.121 41.3639 101.941 41.5154 101.836C41.5588 101.751 41.7544 101.559 41.7097 101.765C41.6707 101.832 41.672 101.921 41.6491 101.995ZM62.8003 113.854C62.724 114.019 62.5808 113.73 62.7067 113.66C62.8366 113.621 62.7195 113.816 62.8003 113.854ZM21.905 76.8069C21.8097 76.8099 21.5696 76.6544 21.7183 76.5898C21.7952 76.5454 21.9862 76.7558 21.905 76.8069ZM25.8595 76.6496C25.9725 76.8317 25.733 76.7618 25.625 76.7582C25.5208 76.5937 25.7593 76.6434 25.8211 76.5977C25.8342 76.6149 25.8469 76.6322 25.8595 76.6496ZM43.1896 101.167C43.1949 101.325 42.9506 101.142 42.9968 101.059C43.0643 101.119 43.2194 101.04 43.1896 101.167ZM36.5925 29.6855C36.3952 29.7921 36.4946 29.5757 36.5715 29.4877C36.6891 29.4915 36.9334 29.3778 36.7601 29.5612C36.8298 29.7066 36.6892 29.6496 36.5925 29.6855ZM26.0892 70.3076C25.9256 70.3701 26.1444 69.9864 26.0884 70.2852L26.0892 70.3076ZM41.4716 101.138C41.2988 101.235 41.3288 101.007 41.4594 100.966C41.5783 101.018 41.6847 101.106 41.4823 101.134L41.4716 101.138ZM31.4428 86.8313C31.3232 86.854 31.1265 86.8338 31.1589 86.6684C31.1256 86.4909 31.3461 86.5169 31.4038 86.655C31.4425 86.7069 31.4357 86.7704 31.4428 86.8313ZM38.1866 101.195C38.0878 101.246 37.8339 101.075 37.998 101.025C38.1125 100.994 38.2501 101.062 38.1866 101.195ZM54.7087 134.322C54.5394 134.468 54.6359 134.234 54.706 134.165C54.9008 134.147 54.8031 134.255 54.7087 134.322ZM51.6065 70.1111C51.4435 70.1746 51.334 69.9514 51.5459 69.9659C51.6352 69.9428 51.5846 70.0649 51.6065 70.1111ZM61.7465 109.478C61.5885 109.587 61.5515 109.293 61.631 109.279C61.8645 109.24 61.7154 109.341 61.7465 109.478ZM41.8812 41.5649C41.7492 41.7085 41.7551 41.2881 41.8387 41.3692C41.9158 41.4105 41.9599 41.4989 41.8812 41.5649ZM34.8299 22.307C34.7182 22.4594 34.6075 22.2683 34.6919 22.1496C34.7966 21.9855 34.7431 22.2985 34.8299 22.307ZM56.4913 109.594C56.3868 109.78 56.253 109.479 56.3846 109.418C56.5399 109.378 56.4803 109.491 56.4913 109.594ZM27.8593 79.1912C27.7076 79.3689 27.7577 79.0749 27.885 79.1054C27.9413 79.1413 27.8791 79.1571 27.8593 79.1912ZM26.0056 77.0945C25.8268 77.1515 25.7536 77.0008 25.9769 77.0404C25.9867 77.0586 25.9961 77.0765 26.0056 77.0945ZM20.99 76.126C20.9105 76.2183 20.661 76.1717 20.737 76.0178C20.7885 76.1231 21.04 75.9916 20.99 76.126ZM11.2612 62.8586C11.2189 63.0851 11.1729 62.567 11.2569 62.8256L11.2601 62.8483L11.2612 62.8586ZM10.6746 60.6449C10.5463 60.7668 10.6788 60.4169 10.6746 60.6449V60.6449ZM34.6553 22.7275C34.5765 22.8504 34.5403 22.4141 34.6836 22.5245C34.7151 22.569 34.6844 22.6767 34.6553 22.7275ZM37.5548 25.1354C37.4902 25.2332 37.2423 24.946 37.439 24.9762C37.5412 24.9265 37.5459 25.072 37.5548 25.1354ZM43.307 101.564C43.0893 101.735 43.2534 101.372 43.3055 101.556L43.307 101.564ZM30.2023 85.4912C30.2047 85.6403 29.8518 85.6499 30.0113 85.5263C30.0566 85.4624 30.1916 85.3326 30.2023 85.4912ZM21.8242 75.9987C21.8471 76.1757 21.6104 75.969 21.8242 75.9987V75.9987ZM31.0754 86.3972C30.9563 86.5804 30.8533 86.3924 30.9322 86.2534C31.0609 86.2505 31.066 86.2721 31.0754 86.3972ZM8.96964 55.9194C8.82906 56.0412 9.00901 55.7456 8.96964 55.9194V55.9194ZM81.165 160.194C81.0732 160.399 80.9508 160.067 81.165 160.194V160.194ZM27.5439 76.1423C27.419 76.2892 27.2572 76.0686 27.4042 75.9855C27.5106 75.8869 27.5709 76.0506 27.5439 76.1423ZM34.2882 21.8947C34.1116 22.106 34.1837 21.6616 34.2882 21.8498V21.8727V21.8947ZM57.6619 128.016C57.4172 128.059 57.7269 127.82 57.6619 128.016V128.016ZM32.5428 89.7866C32.4552 89.9777 32.2747 89.6351 32.5428 89.7866V89.7866ZM43.3508 101.134C43.1649 101.194 43.3234 100.816 43.3508 101.091V101.114V101.134ZM41.4168 101.519C41.2813 101.68 41.228 101.341 41.4007 101.41C41.4061 101.446 41.4114 101.483 41.4168 101.519ZM11.7381 65.0624C11.5929 65.2192 11.7532 64.8104 11.7381 65.0624V65.0624ZM27.7233 73.0135C27.7706 73.215 27.5897 73.2303 27.6975 73.0454L27.7119 73.0274L27.7233 73.0135ZM37.1445 29.5458C37.1176 29.8079 37.1045 29.5429 36.9516 29.5214C37.0267 29.5109 37.1001 29.4526 37.1445 29.5458ZM39.811 101.134C39.6597 101.278 39.7918 100.997 39.811 101.134V101.134ZM43.2389 101.402C43.0577 101.441 43.134 101.274 43.2389 101.402V101.402ZM16.4487 64.2949C16.3179 64.4528 16.4691 64.069 16.4487 64.2949V64.2949ZM50.7124 62.6202C50.8212 62.7792 50.5463 62.5897 50.7124 62.6202V62.6202ZM35.4739 27.0122C35.3337 27.2231 35.3052 26.8732 35.4739 27.0122V27.0122ZM35.0018 21.8771C34.902 22.0605 34.9118 21.7075 35.0018 21.8771V21.8771ZM48.6816 44.8054C48.73 45.0333 48.5223 44.8439 48.6816 44.8054V44.8054ZM50.642 61.7032C50.7115 61.8054 50.4964 61.7527 50.642 61.7032V61.7032ZM26.1306 69.9345C26.0336 70.0774 26.0338 69.7983 26.1306 69.9345V69.9345ZM31.2265 97.3168C31.1621 97.4498 31.1339 97.2611 31.2265 97.3168V97.3168ZM59.2916 121.416C59.1632 121.569 59.1107 121.211 59.2916 121.416V121.416ZM37.8562 12.6582C37.761 12.8106 37.706 12.6199 37.8562 12.6582V12.6582ZM10.3 12.4976C10.1502 12.5377 10.2659 12.3923 10.3 12.4976V12.4976ZM9.72551 51.4722C9.76415 51.5967 9.58549 51.4429 9.72551 51.4722V51.4722ZM50.7045 62.1644C50.6403 62.3146 50.5198 62.1087 50.7045 62.1644V62.1644ZM27.6922 79.3909C27.5976 79.4502 27.6372 79.2701 27.6922 79.3909V79.3909ZM23.1954 61.2785C23.0937 61.3357 23.1509 61.1316 23.1954 61.2785V61.2785ZM92.5759 201.373C92.7066 201.488 92.4727 201.458 92.5759 201.373V201.373ZM20.5598 76.3987C20.7254 76.4871 20.4334 76.4711 20.5598 76.3987V76.3987ZM49.722 57.3792C49.8793 57.4722 49.5895 57.4487 49.722 57.3792V57.3792ZM88.651 175.248C88.6678 175.082 88.7105 174.914 88.7649 174.756C88.8002 174.628 89.0268 174.644 89.0829 174.738C89.102 174.958 89.0759 175.184 89.0788 175.405C89.0468 175.582 89.0137 175.821 88.8271 175.891C88.6192 175.928 88.5125 175.71 88.5241 175.533C88.5233 175.418 88.5415 175.308 88.651 175.248ZM93.2435 202.37C93.123 202.338 93.3182 202.225 93.3579 202.276C93.4687 202.263 93.3815 202.312 93.3294 202.293C93.2801 202.291 93.2532 202.331 93.2435 202.37Z" fill="#92D050" stroke="#92D050" stroke-width="0.6" stroke-linecap="round"/>
<path d="M34.2858 39.9355L34.217 39.8162L34.2095 39.673L34.2858 39.5695L34.4005 39.5059L34.5536 39.4738L34.7218 39.5059L34.867 39.5456L34.9741 39.6332L35.058 39.7285L35.1498 39.8239L35.2186 39.9513L35.2874 40.0628L35.3336 40.1982L35.3106 40.3731L35.2418 40.5004L35.1805 40.6278L35.1117 40.7551L35.0197 40.771L34.8745 40.7948L34.7218 40.8188L34.5306 40.8108L34.4235 40.771L34.3929 40.6197L34.4235 40.4448L34.4693 40.3016L34.4618 40.1662L34.2858 39.9355Z" fill="#92D050" stroke="#92D050" stroke-width="0.75" stroke-linecap="round"/>
</svg>
