<svg width="211" height="183" viewBox="0 0 211 183" fill="none" xmlns="http://www.w3.org/2000/svg">
<path d="M80.1366 179.23L80.7228 178.802L81.4598 178.292L82.2386 177.72L82.7494 177.328L83.4528 176.853L83.7124 176.609L84.1479 176.308L84.4493 176.063L84.7676 175.67L85.2951 175.308L85.8981 174.915L86.3084 174.564L86.8108 174.207L87.3803 173.834L87.9749 173.493L88.5024 173.064L88.9714 172.819L89.432 172.656L89.6246 172.437L90.3699 172.126L90.9393 171.871L91.3664 171.743L91.693 171.555L92.1452 171.407L92.5471 171.243L92.9742 171.055L93.4683 170.871L93.9289 170.733L94.2974 170.535L94.6826 170.3L94.9757 170.152L95.3106 170.014L95.6372 169.897L95.9387 169.759L96.2653 169.632H96.55L96.617 169.662L97.0189 169.606L97.1864 169.387L97.4125 169.188L97.58 169.081L97.8145 168.989L98.1411 168.749L98.4426 168.571L98.6938 168.341L98.9785 168.132L99.1879 167.979L99.2632 167.867L99.4475 167.714L99.5396 167.668L99.5228 167.495L99.5814 167.378L99.5061 167.286L99.5144 167.077L99.4893 166.995L99.4223 166.985L99.347 167.015L99.2632 167.194L99.28 167.296L98.8864 167.276L98.3086 167.041L97.982 166.903L97.647 166.694L97.3707 166.567L97.1194 166.403L96.8933 166.215L96.7761 166.067L96.7342 165.802L96.8766 165.73L96.9854 165.684L96.9938 165.593L96.9268 165.511L96.8515 165.465L96.7761 165.475L96.7007 165.485L96.6337 165.521L96.617 165.603H96.4914H96.2904L96.1062 165.531L96.0392 165.429L95.9052 165.266L95.7712 165.287L95.7461 165.45L95.6791 165.531L95.6037 165.577L95.5367 165.496L95.4027 165.542L95.319 165.567L95.118 165.623L94.7412 165.684L94.3895 165.649L94.1634 165.72L93.9038 165.786L93.6023 165.832L92.8654 165.822L92.2624 165.858H91.9191L91.3915 165.868L91.0147 165.812L90.6797 165.802L90.3029 165.695L89.926 165.649L89.5241 165.669L89.1975 165.684H88.963L88.628 165.776L88.3098 165.751L87.9414 165.669L87.5896 165.613L87.1626 165.496L86.7104 165.383L86.1744 165.139L85.9399 164.975L85.6803 164.802L85.3789 164.557L85.0606 164.17L84.7508 163.751L84.4912 163.343L84.307 163.022L84.2651 162.731L84.106 162.369L83.9636 162.043L83.771 161.885L83.704 161.788L83.6789 161.558V161.232L83.7124 161.033L83.637 160.86L83.5114 160.824L83.3104 160.676L83.1262 160.615L82.9252 160.64L82.7912 160.63L82.4647 160.523L82.2051 160.457L81.9622 160.595L81.845 160.63L81.6021 160.605L81.2755 160.503L80.9489 160.442L80.5637 160.467L80.2874 160.477L80.1031 160.36L80.0194 160.268L79.8184 160.176L79.6258 160.13L79.4081 160.12L79.2992 160.151L79.1987 160.187H79.0731L78.9726 160.283L78.914 160.294H78.847H78.7884L78.3529 160.13L78.0766 160.105L77.7919 160.059L77.5574 159.993L77.2978 159.942L76.9712 159.911L76.7451 159.942L76.5106 159.993L76.251 159.957H76.0752L75.9579 160.003L75.7905 159.977H75.6816L75.5978 160.085L75.4974 160.141L75.3634 160.166L75.0703 160.202L74.7772 160.314L74.6097 160.431L74.526 160.584L74.4171 160.686L74.2245 160.712H73.9314H73.6718L73.3703 160.686L73.1358 160.732L72.8511 160.85L72.5078 160.967L72.1896 161.13L71.8881 161.196L71.6034 161.278L71.3438 161.349L71.0088 161.451L70.7827 161.477L70.6487 161.513L70.5482 161.66L70.3556 161.696L70.0876 161.625L69.7611 161.594L69.4931 161.615L69.2084 161.604L69.0241 161.722L68.7729 161.849L68.6138 161.951L68.4128 162.043L68.237 162.104L68.0444 162.206L67.8601 162.359L67.6508 162.568L67.433 162.742L67.0311 163.16L66.7715 163.415L66.5119 163.614L66.2188 163.726L66.0094 163.853L65.9676 163.879L65.708 164.042L65.2976 164.216L64.9292 164.542L64.6947 164.69L64.3262 164.863L64.1001 165.052L63.6982 165.297L63.5139 165.47L63.3716 165.572L63.1287 165.71L62.9277 165.863L62.6933 166.097L62.4672 166.301L62.2662 166.516L62.0736 166.755L61.9312 166.954L61.8307 167.092L61.6046 167.531L61.4623 167.877L61.2613 168.275L61.0854 168.704L61.0184 168.959L61.0352 169.157L61.1022 169.545L61.1859 169.963L61.2194 170.203L61.2278 170.489L61.2027 170.621L61.1357 170.744L60.8761 170.943L60.6081 171.208L60.4155 171.427L60.2815 171.488L60.2229 171.672L60.1475 171.871L60.0638 172.08L59.9633 172.218L59.9298 172.437L59.8712 172.626L59.8042 172.881L59.7288 172.983L59.7037 173.079L59.6953 173.309L59.7288 173.498V173.717L59.8293 173.865L59.9214 173.88L60.0052 173.865L60.0554 173.901L60.0721 173.962L60.0219 174.099L60.0387 174.273L60.1559 174.365L60.2815 174.441L60.4322 174.477L60.4657 174.523L60.516 174.553L60.6751 174.635L60.8091 174.671L60.9682 174.65L61.1022 174.696L61.3199 174.798L61.5125 174.89L61.68 174.926L61.8559 174.972L62.0485 175.017L62.2243 175.216L62.4085 175.38L62.442 175.563L62.5174 175.645L62.5676 175.762L62.576 175.89L62.6346 175.981L62.7351 175.971L62.8021 176.043L62.911 176.053L63.0282 176.017L63.0701 175.961L63.1873 175.925L63.3297 175.961H63.4637L63.5558 175.844L63.6563 175.726L63.8238 175.645L63.9996 175.624L64.2843 175.635H64.5523L64.7114 175.578L64.8538 175.543L65.0045 175.497L65.1301 175.39L65.2725 175.298L65.4651 175.262H66.0597L66.5956 175.298L67.2404 175.344L67.9104 175.451L68.3291 175.507L68.7897 175.614L69.1832 175.67L69.6522 175.808L70.029 175.997L70.4226 176.216L70.6822 176.389L70.7241 176.517L71.0172 176.655L71.4443 176.935L71.9383 177.19L72.3152 177.389L72.759 177.726L73.1023 178.037L73.3201 178.256L73.3452 178.501L73.3201 178.674L73.2196 178.817L73.2447 179.072L73.2615 179.281L73.2531 179.49L73.228 179.694L73.3117 179.919L73.3871 180.031L73.3954 180.138L73.4206 180.347L73.4122 180.52L73.3871 180.658L73.4206 180.811L73.5462 180.893L73.6718 181.066L73.6969 181.214L73.789 181.377L73.9063 181.505L74.0068 181.693L74.1491 181.785L74.2329 181.831L74.258 181.714V181.586L74.3333 181.494H74.4255L74.5762 181.612L74.6934 181.76L74.8274 181.785L74.8525 181.678L74.886 181.586L75.0117 181.52L75.154 181.54L75.3131 181.576H75.5392L75.6983 181.622L75.8574 181.724L75.9747 181.775L76.1589 181.76H76.3013L76.3934 181.795L76.519 181.923L76.5274 182.061L76.5944 182.157L76.6027 182.295L76.6865 182.458L76.8121 182.504L76.8958 182.433L76.9628 182.341L77.0549 182.224L77.1219 182.122L77.1554 181.994L77.3062 181.948L77.4737 181.795L77.616 181.693L77.75 181.576L77.9007 181.54L78.0012 181.413L78.1352 181.321L78.2608 181.168L78.3697 181.183L78.4534 181.158L78.5204 181.041L78.4869 180.939L78.5707 180.811L78.6963 180.786L78.8303 180.658L78.9475 180.474L79.0899 180.332L79.1234 180.204V180.102L79.1485 179.919L79.2657 179.801L79.4834 179.602L79.8017 179.403L80.1366 179.23L80.1366 179.23Z" fill="#92D050" stroke="#92D050" stroke-width="0.6"/>
<path d="M96.358 165.266L96.425 165.332L96.5171 165.327L96.6008 165.302L96.6092 165.246L96.5841 165.154L96.5422 165.098L96.4752 165.093H96.425L96.3664 165.118L96.3496 165.159L96.358 165.266L96.358 165.266Z" fill="#92D050" stroke="#92D050" stroke-width="0.6"/>
<path d="M59.1602 146.692L59.3025 146.738L59.3946 146.702L59.4282 146.641L59.4198 146.549L59.3528 146.478L59.2523 146.457L59.1518 146.478L59.1099 146.529L59.1016 146.605L59.1602 146.692H59.1602Z" fill="#92D050" stroke="#92D050" stroke-width="0.6"/>
<path d="M60.7675 147.11L60.6084 147.105L60.5582 147.181L60.5498 147.304L60.6335 147.442L60.734 147.513L60.8596 147.503L60.9099 147.401L60.9183 147.319L60.8848 147.232L60.8429 147.156L60.7675 147.11V147.11Z" fill="#92D050" stroke="#92D050" stroke-width="0.6"/>
<path d="M35.9049 131.091L36.0389 131.086L36.0891 131.009V130.882L36.0054 130.815L35.9133 130.8L35.8379 130.836L35.7793 130.917V131.004L35.8212 131.045L35.9049 131.091V131.091Z" fill="#92D050" stroke="#92D050" stroke-width="0.6"/>
<path d="M29.4568 125.812L29.5405 125.797L29.5824 125.746L29.6075 125.669L29.574 125.618L29.5238 125.598L29.4568 125.603L29.3982 125.649L29.3814 125.705L29.373 125.771L29.3898 125.807L29.4568 125.812L29.4568 125.812Z" fill="#92D050" stroke="#92D050" stroke-width="0.6"/>
<path d="M26.8102 123.66L26.8772 123.635L26.919 123.584V123.512L26.8855 123.451L26.8102 123.415L26.7348 123.425L26.6929 123.487L26.6846 123.584L26.7181 123.65L26.7432 123.655L26.8102 123.66L26.8102 123.66Z" fill="#92D050" stroke="#92D050" stroke-width="0.6"/>
<path d="M23.3597 121.742L23.4602 121.62L23.5774 121.436L23.5942 121.232L23.5356 121.135L23.4435 121.171L23.3513 121.345L23.2509 121.533L23.209 121.742L23.2341 121.804H23.3095L23.3597 121.742V121.742Z" fill="#92D050" stroke="#92D050" stroke-width="0.6"/>
<path d="M23.9966 121.197L23.8794 121.334L23.8291 121.472L23.8626 121.559L23.9463 121.533L24.0468 121.38L24.0887 121.258L24.0552 121.197H23.9966Z" fill="#92D050" stroke="#92D050" stroke-width="0.6"/>
<path d="M16.1673 119.84L16.3097 119.789L16.3264 119.708L16.2678 119.59L16.1171 119.606L16.0836 119.682L16.0752 119.799L16.1673 119.84H16.1673Z" fill="#92D050" stroke="#92D050" stroke-width="0.6"/>
<path d="M27.874 154.046L28.008 154.036L28.0583 154.061L28.2006 154.072L28.343 153.995L28.3765 153.944L28.3514 153.862L28.2425 153.653L28.2258 153.485L28.2928 153.276L28.4267 153.092L28.7031 152.899L28.9208 152.797L29.0883 152.715L29.4149 152.638L29.7582 152.623L30.1183 152.649L30.3779 152.689L30.8469 152.766L31.1065 152.873L31.567 153.108L31.8518 153.184L32.371 153.148L32.6641 153.092L33.0828 153.016L33.4596 153.006L33.8532 152.939L34.3221 152.924L34.6069 153.006L34.9753 153.041L35.3857 153.031L35.7123 153.092L36.1645 153.199L36.5664 153.317L36.9768 153.434L37.4206 153.551L37.8058 153.592L38.124 153.628L38.5678 153.684L39.1205 153.653H39.4806L39.9328 153.709L40.4353 153.72H40.8037L41.1471 153.76H41.5658L41.8924 153.72L42.1939 153.628L42.4953 153.419L42.7047 153.291L43.0396 153.067L43.2992 153.041H43.5505L43.7347 153.108L43.9692 153.159L44.2958 153.148L44.5972 153.031L44.815 152.914L45.3593 152.664L45.7194 152.521L46.0543 152.404L46.4144 152.287L46.9085 152.154L47.5198 152.128L47.7459 152.088L47.9469 152.062L48.1646 152.052H48.2735L48.3907 152.179L48.508 152.261L48.7341 152.348L48.9937 152.404L49.136 152.496L49.3035 152.638L49.4124 152.756L49.5045 152.883L49.6804 152.924L49.873 152.99L50.1242 153.041L50.3 153.159L50.5178 153.291L50.7774 153.449L50.9197 153.602L51.1961 153.709L51.4138 153.735H51.6483L51.8828 153.72H52.0419L52.2177 153.709L52.3852 153.694L52.5778 153.827L52.8542 153.954L53.1305 154.021L53.2812 154.087L53.5827 154.128H53.9261L54.2024 154.112L54.4955 154.128L54.7718 154.112L54.9728 154.138L55.291 154.163L55.6176 154.112L55.8605 154.102H56.1285H56.4299L56.8989 154.128L57.1669 154.179L57.326 154.23H57.6442L57.7447 154.153H57.9959L58.1718 154.189L58.3895 154.204L58.6407 154.245L59.2688 154.255L59.989 154.219L60.7008 154.23H61.4544L62.317 154.245L62.811 154.27L63.2381 154.204L63.4559 154.245L63.6066 154.321L63.8494 154.337L64.0337 154.23L64.2598 154.163L64.6031 154.087L65.0302 153.944L65.3652 153.862L65.6415 153.786L65.8341 153.643L65.9681 153.618L66.2361 153.602L66.5627 153.577L66.8055 153.536L66.8893 153.434L67.0316 153.317L67.1823 153.092L67.2996 152.939L67.4085 152.781L67.6262 152.623L67.869 152.521L68.1035 152.496H68.3547L68.539 152.404L68.8153 152.348L69.0582 152.312L69.0917 152.205L69.1587 152.154L69.3596 152.128L69.4936 152.154L69.6109 152.052L69.7616 151.97L69.9542 151.894L70.1049 151.853L70.2892 151.726L70.264 151.567L70.1803 151.527L70.1384 151.45L70.1552 151.307V151.134L70.1384 151.098L70.1803 150.991L70.2389 150.925L70.264 150.848L70.2138 150.808L70.1133 150.838L69.9626 150.874L69.7532 150.889L69.5941 150.823L69.5187 150.746H69.368L69.2926 150.864L69.2173 150.899H69.1084L68.9912 150.864L68.8656 150.955L68.7902 151.042L68.6395 151.083L68.5725 151.032L68.5222 150.925L68.4134 150.864H68.271L68.1789 150.899L68.0784 150.94H67.9528L67.9193 150.808L67.7769 150.731L67.6346 150.746L67.5341 150.797L67.4336 150.706L67.3247 150.68L67.2493 150.69L67.107 150.706H66.9646H66.8055L66.6799 150.797H66.5543L66.4789 150.731L66.3366 150.757L66.2612 150.808L66.1858 150.874L66.0351 150.864L65.7922 150.782L65.7169 150.797L65.6415 150.772L65.4908 150.746L65.3484 150.797L65.2395 150.838L65.1893 150.848L64.8041 150.69L64.4356 150.614L64.0839 150.456L63.7322 150.236L63.5898 150.119L63.4391 149.961L63.28 149.803L63.0874 149.619L62.8697 149.543L62.7441 149.441L62.6352 149.359L62.4761 149.283L62.3253 149.14L62.1662 148.966L61.7308 148.497L61.6052 148.344L61.5298 148.263L61.3204 148.186L61.1865 148.069L60.9352 147.952L60.7594 147.768L60.6086 147.635L60.4077 147.518L60.2402 147.452L59.9638 147.243L59.8131 147.09L59.5702 147.064L59.4697 147.09L59.2604 147.023L58.9673 146.957L58.7244 146.947L58.5235 146.906H58.3727L58.1466 146.921L57.9122 146.891L57.6526 146.748L57.46 146.631L57.1836 146.529L57.0664 146.473L56.9073 146.488L56.6895 146.503L56.6142 146.554L56.4969 146.677L56.4132 146.743L56.1452 146.794L55.9275 146.753L55.5758 146.626L55.3245 146.559L55.0482 146.416L54.8807 146.35L54.6379 146.182L54.4034 146.059L54.3029 146.008L54.2526 145.917V145.815L54.3113 145.738L54.4285 145.657L54.4369 145.59L54.3866 145.473L54.3029 145.447L54.2108 145.498L54.127 145.539L54.0852 145.616L54.1103 145.682L54.1354 145.708L54.1522 145.799L54.1103 145.866L54.0098 145.917H53.7921L53.3482 145.901L52.8877 145.891L52.4438 145.85L52.0251 145.815L51.7153 145.718L51.2631 145.631L50.9114 145.269L50.6685 144.922L50.3587 144.585L49.9065 144.152L49.4375 143.82L49.0607 143.596L48.5247 143.275L47.9469 142.953L47.5366 142.719L47.1932 142.545L46.9671 142.347L47.0006 142.173L46.942 142.035L46.7243 141.872L46.5819 141.811L46.4814 141.933V142.061L46.3307 142.071L46.1632 141.888L45.7361 141.551L45.2504 141.194L44.9071 140.908L44.5386 140.424L44.212 140.052L43.9524 139.705L43.6007 139.246L43.2992 138.736L43.0061 138.256L42.6042 137.695L42.2441 137.226L41.8505 136.767L41.3732 136.497L40.9042 136.17L40.3767 135.936L40.0417 135.778L39.8742 135.564L39.6397 135.258L39.4639 135.033L39.1038 134.773L38.7186 134.584L38.2161 134.324L37.8393 134.115L37.3117 133.779L36.759 133.432L36.3068 133.172L36.131 132.927L35.997 132.59L35.9132 132.417L35.8127 131.994L35.7457 131.897L35.8379 131.647L35.8881 131.412L35.7039 131.239L35.6118 131.361L35.5783 131.596V131.698L35.394 131.769L35.1763 131.55L35.0591 131.29L34.8413 130.866L34.4729 130.443L33.9788 129.902L33.7778 129.688L33.3424 129.479L32.9237 129.132L32.5049 128.944L32.1449 128.709L31.8518 128.378L31.6424 128.041L31.5922 127.791L31.7429 127.546L31.8518 127.398V127.097L31.7848 126.924L31.6173 126.904L31.5084 126.939H31.2907L31.1735 127.052L31.0897 127.113L30.8134 127.062L30.5203 126.95L30.1016 126.812L29.6912 126.679L29.5154 126.593L29.6242 126.465L29.7582 126.429L29.7917 126.317V126.159L29.6829 126.098L29.373 126.072L29.0799 125.935L28.8706 125.787L28.6947 125.573L28.6277 125.251L28.5272 125.006L28.3597 124.721L28.1001 124.461L27.874 124.349L27.6814 124.287L27.4135 124.323L27.1957 124.384L26.9948 124.262L26.8356 124.073L26.576 124.012L26.3918 123.986L26.1406 123.864L25.8894 123.803H25.6381L25.3534 123.828L25.2529 123.951L25.0519 124.063L24.6416 124.185H24.3569L24.248 124.027L24.0973 123.747L23.9801 123.538L23.9633 123.288L23.7707 123.191L23.5446 123.104L23.3436 122.966L23.151 122.706L22.8747 122.36L22.6569 122.334L22.4643 122.411L22.0791 122.288L21.719 122.099L21.3924 121.941L20.9151 121.778L20.4713 121.63L19.7846 121.421L19.1147 121.345L18.7295 121.37L18.4364 121.579L18.2521 121.691L17.9925 121.64L17.6659 121.544L17.4231 121.396L17.2723 121.329H17.1384L16.8871 121.431L16.7113 121.523L16.5522 121.554L16.2591 121.329L16.1502 121.12L16.1251 120.85V120.6L16.1418 120.355L16.033 120.09L15.8069 119.917L15.5054 119.595L15.1956 119.187L15.0448 118.744L15.0616 118.382L15.003 118.111L14.9276 117.948L15.0281 117.764L15.0951 117.678L14.9527 117.617L14.9778 117.367L14.8103 117.28L14.7015 117.428V117.489L14.5591 117.611L14.3581 117.596L14.2409 117.729L14.065 117.754H13.8389H13.7133L13.4621 117.713L13.236 117.637L13.0518 117.596L12.9932 117.52L13.0266 117.336L13.0936 117.259L13.1355 117.178L13.1439 117.035L13.0769 116.969L12.968 117.025L12.9178 117.168L12.8675 117.336L12.8005 117.479L12.7168 117.56L12.5912 117.535L12.4739 117.479L12.3735 117.535L12.3483 117.688L12.3232 117.831L12.2478 117.897L12.1474 117.989L12.072 118.081L11.9548 118.147L11.7873 118.223L11.5277 118.397L11.2429 118.473L10.975 118.448L10.774 118.407L10.5479 118.29L10.2548 118.106L9.93658 117.912L9.65186 117.729L9.31689 117.509L9.10754 117.326L8.91493 117.142L8.74745 116.959L8.39573 116.658L8.11939 116.438L7.81792 116.204L7.5332 115.995L7.22335 115.786L6.90513 115.551L6.51155 115.276L6.2352 115.066L5.93373 114.791L5.65738 114.623L5.24705 114.465L4.96233 114.347L4.59386 114.179L4.15841 114.103L3.83182 114.021L3.56384 113.919L3.32936 113.878L3.01115 113.929L2.69293 113.995L2.5087 114.154L2.31609 114.363L2.17373 114.505L2.08999 114.806L1.93926 115.184L1.88901 115.561L1.78852 115.862L1.67965 116.035L1.52892 116.387L1.42843 116.581L1.31957 116.673L1.16883 116.739L1.07672 116.806V116.882L1.16883 116.908L1.30282 116.999L1.52892 117.117L1.62941 117.3L1.67128 117.56L1.65453 117.846L1.52892 118.03L1.49542 118.188L1.32794 118.565L1.12696 118.907L0.934359 119.177L0.783623 119.493L0.658006 119.753L0.55752 120.014L0.5324 120.172L0.574266 120.498L0.582638 120.784L0.532399 121.085L0.473778 121.243L0.457031 121.385L0.507275 121.477L0.632882 121.569L0.825488 121.763L0.88411 121.895L0.951103 122.145L0.934358 122.431L1.15209 122.65L1.42006 122.768L1.62104 122.885L1.69641 123.15L1.73827 123.395L1.78014 123.665L1.88064 123.91L1.9895 124.303L2.09836 124.67L2.1821 125.022L2.32446 125.414L2.40821 125.741L2.5087 126.042L2.63431 126.343L2.84367 126.613L2.95253 126.904L3.04464 127.307L3.14514 127.567L3.17863 127.959L3.19538 128.219L3.22887 128.403L3.37124 128.612L3.47173 128.745L3.61409 128.954L3.74807 129.306L3.94068 129.591L4.0328 129.918L4.16678 130.244L4.23377 130.53L4.35939 130.831L4.40963 131.04L4.485 131.264L4.59386 131.473L4.76135 131.657L4.88696 131.917L4.98745 132.09L5.11306 132.386L5.2638 132.702L5.4229 133.014L5.54852 133.33L5.65738 133.524L5.79974 133.758L5.88349 134.085L5.90861 134.36L5.85836 134.595L5.7495 134.661L5.59876 134.819L5.64901 134.962L5.78299 135.003L5.88349 134.987L6.04259 135.089L6.16821 135.237L6.32731 135.538L6.51992 136.058L6.76277 136.66L6.88838 137.231V137.389L6.78789 137.598L6.76277 137.899L6.88838 138.353L7.04749 138.97L7.2401 139.44L7.40758 139.975L7.48295 140.403L7.45783 140.613L7.43271 140.822L7.30709 140.98L7.26522 141.214L7.35734 141.347L7.59181 141.423L7.88491 141.531L8.17801 141.607L8.35386 141.791L8.55484 142.005L8.84794 142.316L9.08242 142.449L9.37551 142.668L9.82771 142.943L10.2715 143.193L10.6903 143.336L10.9833 143.387L11.2262 143.27L11.4104 143.178H11.6784L11.9548 143.076H12.273L12.407 143.137L12.5996 143.321L12.7419 143.504L12.8424 143.729L12.8508 144.147L12.8257 144.458L12.6414 144.795L12.5158 144.978L12.1557 145.07L11.9464 144.978L11.8794 145.136L12.1055 145.213L12.6247 145.085L12.7 145.305L12.6247 145.437L12.4572 145.488L12.4237 145.697L12.5158 145.896L12.5661 145.881L12.5912 145.804L12.6247 145.662L12.6749 145.595L12.8005 145.58L12.9764 145.764L13.0434 146.024V146.223L12.9513 146.299L12.901 146.416L12.767 146.636L12.5912 146.758L12.4572 146.814L12.4656 146.881L12.5242 146.937L12.6079 146.962L12.6833 147.039L12.767 147.197L12.901 147.324L13.0015 147.508L13.0769 147.748L13.2025 147.957L13.3616 148.135L13.5375 148.319L13.6966 148.502L13.8892 148.706L14.1404 148.936L14.3832 149.13L14.6261 149.318L14.7266 149.507L14.9192 149.68L15.0699 149.813L15.2793 149.828L15.5975 149.895L15.8404 149.946L16.2172 150.032L16.5438 150.083L16.8536 150.185L17.0462 150.241L17.2975 150.333L17.4901 150.445L17.6241 150.68L17.7078 150.853L17.8669 150.935L18.0511 151.124L18.1516 151.256L18.2354 151.307L18.3526 151.297L18.5368 151.323L18.8048 151.384L19.0058 151.45L19.2068 151.511L19.4161 151.557L19.6757 151.629L19.8097 151.761L19.8934 151.919L19.9353 152.042L20.1028 152.159L20.2954 152.144L20.5048 152.052L20.6555 151.93L20.8983 151.884L21.0658 151.858L21.384 151.894L21.5432 151.991L21.6688 152.134L21.853 152.22L22.1042 152.287L22.2466 152.429L22.3889 152.547L22.4392 152.72L22.4978 152.827L22.5229 152.975L22.5146 153.097L22.5481 153.23L22.6569 153.322L22.7155 153.393L22.816 153.414L22.9584 153.419L23.1343 153.47H23.2934L23.486 153.551L23.5613 153.669L23.62 153.709L23.8042 153.832L23.9884 153.852L24.1224 153.832L24.2061 153.786L24.3318 153.735L24.4741 153.709L24.7002 153.618L24.8426 153.546L25.0436 153.526L25.3283 153.567L25.5711 153.592L25.6381 153.669V153.735V153.776L25.9228 153.801L26.1573 153.806L26.4169 153.801L26.7351 153.791L26.9947 153.806L27.2543 153.852L27.5223 153.893L27.874 154.046L27.874 154.046Z" fill="#92D050" stroke="#92D050" stroke-width="0.6"/>
<path d="M21.0704 151.832C21.0762 151.628 21.0191 151.3 21.0704 151.115C21.1647 150.991 21.249 150.843 21.3889 150.701C21.5027 150.503 21.5482 150.319 21.6755 150.223C21.7774 150.061 21.8964 149.944 21.9621 149.873C22.1186 149.657 22.2454 149.641 22.2805 149.395C22.3805 149.24 22.4796 149.078 22.5672 148.95C22.6795 148.815 22.7687 148.693 22.8538 148.536C23.0131 148.411 22.9837 148.276 23.013 148.096C23.013 147.891 23.013 148.003 23.013 147.736C23.013 147.546 23.013 147.356 23.013 147.166C22.9556 146.98 22.8601 146.844 22.8856 146.596C22.8627 146.313 22.934 146.068 22.9493 145.8C22.9339 145.645 22.9829 145.425 22.9175 145.319C22.7905 145.125 22.7247 145.046 22.6309 144.842C22.4991 144.726 22.4089 144.525 22.5035 144.3C22.4845 144.01 22.7157 143.867 22.8219 143.695C22.9406 143.604 22.8398 143.158 22.9352 143.118C23.1647 143.045 23.3071 142.873 23.3633 142.676C23.4026 142.567 23.561 142.499 23.6499 142.358C23.8306 142.291 23.675 141.927 23.8091 141.784C23.8255 141.63 23.9859 141.565 24.1276 141.466C24.2522 141.361 24.2204 141.151 24.2231 140.969C24.2343 140.727 24.186 140.461 24.2868 140.256C24.2645 139.989 24.3323 139.758 24.446 139.619C24.5834 139.464 24.7017 139.329 24.7008 139.077C24.8122 138.974 25.0008 138.859 24.9874 138.609C24.9961 138.319 24.9634 138.011 25.0193 137.74C25.1352 137.652 25.1557 137.479 25.2649 137.326C25.4016 137.245 25.6266 137.132 25.5925 136.88C25.6015 136.614 25.568 136.409 25.4333 136.211C25.3874 135.978 25.2527 135.818 25.274 135.524C25.2456 135.263 25.3778 135.079 25.4651 134.906C25.5209 134.74 25.6415 134.548 25.6243 134.317C25.625 134.136 25.6234 134.164 25.6243 134.11C25.635 133.971 25.5873 133.94 25.5647 133.846C25.4644 133.666 25.4002 133.543 25.274 133.409C25.1268 133.279 25.118 133.182 24.8919 133.027C24.7471 132.913 24.6108 132.849 24.5734 132.677C24.5332 132.612 24.4585 132.531 24.446 132.454" fill="#92D050"/>
<path d="M21.0704 151.832C21.0762 151.628 21.0191 151.3 21.0704 151.115C21.1647 150.991 21.249 150.843 21.3889 150.701C21.5027 150.503 21.5482 150.319 21.6755 150.223C21.7774 150.061 21.8964 149.944 21.9621 149.873C22.1186 149.657 22.2454 149.641 22.2805 149.395C22.3805 149.24 22.4796 149.078 22.5672 148.95C22.6795 148.815 22.7687 148.693 22.8538 148.536C23.0131 148.411 22.9837 148.276 23.013 148.096C23.013 147.891 23.013 148.003 23.013 147.736C23.013 147.546 23.013 147.356 23.013 147.166C22.9556 146.98 22.8601 146.844 22.8856 146.596C22.8627 146.313 22.934 146.068 22.9493 145.8C22.9339 145.645 22.9829 145.425 22.9175 145.319C22.7905 145.125 22.7247 145.046 22.6309 144.842C22.4991 144.726 22.4089 144.525 22.5035 144.3C22.4845 144.01 22.7157 143.867 22.8219 143.695C22.9406 143.604 22.8398 143.158 22.9352 143.118C23.1647 143.045 23.3071 142.873 23.3633 142.676C23.4026 142.567 23.561 142.499 23.6499 142.358C23.8306 142.291 23.675 141.927 23.8091 141.784C23.8255 141.63 23.9859 141.565 24.1276 141.466C24.2522 141.361 24.2204 141.151 24.2231 140.969C24.2343 140.727 24.186 140.461 24.2868 140.256C24.2645 139.989 24.3323 139.758 24.446 139.619C24.5834 139.464 24.7017 139.329 24.7008 139.077C24.8122 138.974 25.0008 138.859 24.9874 138.609C24.9961 138.319 24.9634 138.011 25.0193 137.74C25.1352 137.652 25.1557 137.479 25.2649 137.326C25.4016 137.245 25.6266 137.132 25.5925 136.88C25.6015 136.614 25.568 136.409 25.4333 136.211C25.3874 135.978 25.2527 135.818 25.274 135.524C25.2456 135.263 25.3778 135.079 25.4651 134.906C25.5209 134.74 25.6415 134.548 25.6243 134.317C25.625 134.136 25.6234 134.164 25.6243 134.11C25.635 133.971 25.5873 133.94 25.5647 133.846C25.4644 133.666 25.4002 133.543 25.274 133.409C25.1268 133.279 25.118 133.182 24.8919 133.027C24.7471 132.913 24.6108 132.849 24.5734 132.677C24.5332 132.612 24.4585 132.531 24.446 132.454" stroke="#92D050" stroke-width="0.6"/>
<path d="M28.952 152.763C28.886 152.437 28.7517 151.889 28.6495 151.561C28.5752 151.333 28.5147 151.164 28.5221 150.88C28.4791 150.719 28.4909 150.503 28.4902 150.3C28.4828 150.127 28.5483 150.027 28.5221 149.835C28.5348 149.608 28.418 149.461 28.3629 149.268C28.3175 149.085 28.2054 148.92 28.2355 148.682C28.3198 148.575 28.263 148.297 28.331 148.185C28.3171 148.04 28.3644 147.834 28.2992 147.739C28.24 147.579 28.1847 147.389 28.0621 147.265C28.0363 147.17 27.8088 147.161 27.8533 146.918C27.8607 146.658 27.8576 146.385 27.7896 146.147C27.7207 145.998 27.5282 145.793 27.4393 145.638C27.3687 145.401 27.2619 145.221 27.2164 145.033C27.1089 144.85 27.0404 144.731 26.9935 144.491C26.9164 144.367 26.9865 144.094 26.9616 143.918C27.0479 143.732 27.2332 143.611 27.2483 143.377C27.2879 143.234 27.3884 143.09 27.4373 142.929C27.5085 142.76 27.5597 142.645 27.6623 142.453C27.7328 142.248 27.9492 142.263 27.8852 141.953C27.8852 141.695 27.8851 141.437 27.8852 141.179C28.0503 141.1 28.1463 141.018 28.2355 140.893C28.4024 140.687 28.4132 140.397 28.5221 140.192C28.5932 139.986 28.6314 139.827 28.7768 139.746C28.883 139.641 29.0196 139.591 29.0635 139.396C29.1627 139.264 29.1559 139.09 29.2227 139.014" fill="#92D050"/>
<path d="M28.952 152.763C28.886 152.437 28.7517 151.889 28.6495 151.561C28.5752 151.333 28.5147 151.164 28.5221 150.88C28.4791 150.719 28.4909 150.503 28.4902 150.3C28.4828 150.127 28.5483 150.027 28.5221 149.835C28.5348 149.608 28.418 149.461 28.3629 149.268C28.3175 149.085 28.2054 148.92 28.2355 148.682C28.3198 148.575 28.263 148.297 28.331 148.185C28.3171 148.04 28.3644 147.834 28.2992 147.739C28.24 147.579 28.1847 147.389 28.0621 147.265C28.0363 147.17 27.8088 147.161 27.8533 146.918C27.8607 146.658 27.8576 146.385 27.7896 146.147C27.7207 145.998 27.5282 145.793 27.4393 145.638C27.3687 145.401 27.2619 145.221 27.2164 145.033C27.1089 144.85 27.0404 144.731 26.9935 144.491C26.9164 144.367 26.9865 144.094 26.9616 143.918C27.0479 143.732 27.2332 143.611 27.2483 143.377C27.2879 143.234 27.3884 143.09 27.4373 142.929C27.5085 142.76 27.5597 142.645 27.6623 142.453C27.7328 142.248 27.9492 142.263 27.8852 141.953C27.8852 141.695 27.8851 141.437 27.8852 141.179C28.0503 141.1 28.1463 141.018 28.2355 140.893C28.4024 140.687 28.4132 140.397 28.5221 140.192C28.5932 139.986 28.6314 139.827 28.7768 139.746C28.883 139.641 29.0196 139.591 29.0635 139.396C29.1627 139.264 29.1559 139.09 29.2227 139.014" stroke="#92D050" stroke-width="0.6"/>
<path d="M12.8545 143.735C12.957 143.74 13.1214 143.41 13.2685 143.313C13.3722 143.182 13.5613 143.122 13.778 143.09C14.0572 143.12 14.2233 143.026 14.4468 142.963C14.5479 142.815 14.6908 142.649 14.7355 142.486C14.821 142.236 14.7648 141.877 14.9245 141.721C15.0261 141.576 15.2061 141.433 15.3703 141.338C15.5745 141.217 15.628 141.166 15.7524 141.052C15.8981 141.001 15.9975 140.875 16.1346 140.797C16.267 140.694 16.3328 140.654 16.4849 140.574C16.7656 140.523 16.9743 140.448 17.2492 140.383C17.5588 140.394 17.8133 140.368 18.0453 140.256C18.2861 140.169 18.4764 140.039 18.7459 139.969C18.9511 139.931 19.0813 139.842 19.2555 139.714C19.4625 139.555 19.5927 139.378 19.5739 139.081C19.5728 138.841 19.5666 138.6 19.6058 138.377C19.7157 138.22 19.75 137.937 19.8605 137.772C19.9334 137.608 20.0072 137.52 20.0516 137.358" fill="#92D050"/>
<path d="M12.8545 143.735C12.957 143.74 13.1214 143.41 13.2685 143.313C13.3722 143.182 13.5613 143.122 13.778 143.09C14.0572 143.12 14.2233 143.026 14.4468 142.963C14.5479 142.815 14.6908 142.649 14.7355 142.486C14.821 142.236 14.7648 141.877 14.9245 141.721C15.0261 141.576 15.2061 141.433 15.3703 141.338C15.5745 141.217 15.628 141.166 15.7524 141.052C15.8981 141.001 15.9975 140.875 16.1346 140.797C16.267 140.694 16.3328 140.654 16.4849 140.574C16.7656 140.523 16.9743 140.448 17.2492 140.383C17.5588 140.394 17.8133 140.368 18.0453 140.256C18.2861 140.169 18.4764 140.039 18.7459 139.969C18.9511 139.931 19.0813 139.842 19.2555 139.714C19.4625 139.555 19.5927 139.378 19.5739 139.081C19.5728 138.841 19.5666 138.6 19.6058 138.377C19.7157 138.22 19.75 137.937 19.8605 137.772C19.9334 137.608 20.0072 137.52 20.0516 137.358" stroke="#92D050" stroke-width="0.6"/>
<path d="M160.646 117.675L160.721 117.593L160.806 117.486L160.881 117.435L160.915 117.333L160.94 117.211L161.025 117.13L161.1 117.068L161.21 117.007L161.302 116.961L161.353 116.951L161.378 116.834L161.437 116.773L161.454 116.666L161.462 116.544L161.403 116.442L161.361 116.401V116.335L161.378 116.274L161.446 116.182L161.488 116.106L161.563 116.004L161.589 115.861L161.547 115.729L161.471 115.632L161.42 115.576L161.353 115.5L161.302 115.433L161.227 115.418L161.21 115.428L161.201 115.5L161.21 115.632L161.227 115.739L161.235 115.892L161.218 116.05L161.193 116.167L161.176 116.274L161.126 116.355L161.041 116.401L160.966 116.442L160.865 116.523L160.772 116.641L160.721 116.727L160.705 116.763L160.688 116.951L160.671 117.114L160.679 117.186V117.282L160.646 117.333L160.62 117.389L160.604 117.517V117.593L160.62 117.649L160.646 117.675Z" fill="#92D050" stroke="#92D050" stroke-width="14.9931"/>
<path d="M157.631 112.653L157.597 112.576L157.58 112.51L157.555 112.459H157.521V112.561V112.627V112.709L157.572 112.78L157.614 112.805L157.698 112.81L157.724 112.765V112.703L157.69 112.683H157.656L157.631 112.653V112.653Z" fill="#92D050" stroke="#92D050" stroke-width="14.9931"/>
<path d="M162.902 109.52L163.012 109.576L163.104 109.556L163.138 109.479V109.388L163.129 109.301L163.062 109.22L162.986 109.194L162.894 109.209L162.868 109.27L162.852 109.342V109.413L162.902 109.52Z" fill="#92D050" stroke="#92D050" stroke-width="14.9931"/>
<path d="M162.683 111.175L162.784 111.068L162.868 111.002L162.902 110.916L162.944 110.824L162.961 110.737L162.986 110.564V110.432L163.028 110.31L163.053 110.228L163.045 110.121L163.011 110.029L162.919 109.978L162.792 109.968H162.691L162.599 110.004L162.464 110.014L162.38 110.004L162.296 109.953L162.237 109.851L162.169 109.775L162.094 109.673L162.043 109.576L162.026 109.495L162.06 109.408V109.301L162.026 109.209L161.934 109.158H161.782L161.681 109.138L161.572 109.087L161.445 109.006L161.386 108.899L161.344 108.756L161.31 108.619L161.243 108.512L161.201 108.415V108.298V108.186L161.226 108.079L161.209 107.798L161.193 107.549V107.335L161.176 107.157L161.1 107.024L160.982 106.861L160.873 106.79L160.763 106.78L160.671 106.8L160.586 106.821L160.494 106.78L160.41 106.729L160.317 106.703L160.199 106.744L160.132 106.836L160.073 106.882L160.022 106.897H159.93L159.862 106.882L159.786 106.826L159.728 106.703L159.652 106.571L159.551 106.459L159.467 106.316L159.408 106.169L159.374 106.031L159.332 105.934L159.264 105.695L159.189 105.522L159.079 105.308L159.029 105.201L158.919 104.885L158.886 104.748L158.734 104.534L158.641 104.462L158.591 104.355L158.557 104.248L158.448 104.208L158.397 104.233L158.305 104.223L158.17 104.106L158.094 103.963L158.069 103.785L157.976 103.698L157.884 103.663L157.791 103.678L157.648 103.698L157.564 103.714L157.513 103.632L157.437 103.545L157.311 103.51L157.227 103.535L157.126 103.556L157.067 103.561L156.983 103.571L156.966 103.591V103.617L157.058 103.663L157.185 103.678H157.277L157.353 103.739L157.378 103.831V103.963L157.353 104.045L157.429 104.126L157.454 104.187L157.471 104.315L157.454 104.472L157.437 104.625V104.768L157.395 104.86L157.437 105.002L157.479 105.089L157.496 105.16L157.488 105.267L157.505 105.374L157.538 105.471L157.488 105.608L157.454 105.685L157.463 105.838L157.479 105.975L157.496 106.158L157.513 106.367L157.505 106.5L157.479 106.586L157.437 106.658L157.378 106.729L157.37 106.805L157.353 106.856L157.319 106.928L157.395 106.989L157.446 106.978L157.404 106.912L157.412 106.877L157.471 106.882H157.505L157.589 106.856L157.656 106.831H157.732H157.816L157.926 106.795L157.993 106.81L158.077 106.877L158.195 106.917L158.279 106.943L158.372 106.978L158.498 107.096L158.591 107.238L158.641 107.34L158.734 107.498L158.81 107.625L158.86 107.778L158.894 107.961L158.902 108.079L158.961 108.206L158.995 108.425L159.003 108.613L158.987 108.873L158.995 109.051L158.961 109.204L158.919 109.398L158.86 109.612L158.734 109.765L158.599 109.892L158.481 110.014L158.364 110.141L158.262 110.248L158.145 110.284L158.027 110.264L157.926 110.238L157.833 110.31L157.698 110.345L157.614 110.432L157.572 110.595V110.717L157.555 110.834L157.538 111.038L157.53 111.186L157.505 111.343L157.463 111.435V111.512L157.429 111.603L157.378 111.654L157.429 111.69H157.538L157.656 111.664L157.707 111.557L157.749 111.471L157.884 111.364L158.06 111.247L158.271 111.14L158.465 111.104L158.709 111.068L158.877 111.007L159.012 110.987L159.104 110.997L159.273 110.936L159.408 110.89L159.593 110.865L159.736 110.834L159.845 110.819L159.938 110.87L159.997 110.936L160.014 111.079L160.132 111.094L160.275 111.104L160.401 111.114L160.527 111.155L160.612 111.211L160.713 111.293L160.881 111.369L160.991 111.389L161.066 111.364L161.134 111.354L161.226 111.364L161.344 111.471L161.462 111.547L161.614 111.603L161.757 111.639L161.908 111.675L162.085 111.71H162.195L162.287 111.725L162.388 111.756H162.481L162.59 111.766L162.616 111.746V111.7L162.565 111.664L162.489 111.583L162.481 111.542L162.489 111.471L162.557 111.405L162.624 111.328V111.272L162.683 111.175V111.175Z" fill="#92D050" stroke="#92D050" stroke-width="14.9931"/>
<path d="M155.745 102.797L155.669 102.68L155.568 102.603L155.475 102.557L155.433 102.496L155.374 102.389L155.349 102.282L155.273 102.216L155.13 102.191L154.978 102.216L154.877 102.262L154.717 102.323L154.684 102.405L154.759 102.532L154.827 102.593L154.86 102.751L154.886 102.888L154.961 102.985L155.071 103.067L155.138 103.153L155.281 103.199L155.349 103.102L155.374 103.036H155.441H155.551L155.694 102.975L155.761 103L155.837 103.056L155.921 103.031L155.913 102.95L155.829 102.904L155.745 102.797Z" fill="#92D050" stroke="#92D050" stroke-width="14.9931"/>
<path d="M156.789 105.598L156.738 105.629L156.747 105.7L156.789 105.715L156.822 105.71L156.848 105.68V105.629L156.839 105.598L156.822 105.593L156.789 105.598V105.598Z" fill="#92D050" stroke="#92D050" stroke-width="14.9931"/>
<path d="M156.941 105.68L156.915 105.669L156.898 105.69L156.915 105.72L156.957 105.715L156.966 105.7L156.941 105.68V105.68Z" fill="#92D050" stroke="#92D050" stroke-width="14.9931"/>
<path d="M162.009 99.3485L161.883 99.267L161.79 99.2364L161.706 99.216L161.614 99.2364L161.529 99.2313L161.496 99.1956L161.454 99.2007L161.437 99.2771L161.42 99.3943V99.5013L161.428 99.6388L161.487 99.7661L161.571 99.8527L161.681 99.9036L161.79 99.9138L161.858 99.8833L161.883 99.8374L161.967 99.7967H162.035L162.085 99.7865L162.195 99.7457L162.253 99.7152V99.6439V99.5624L162.211 99.4758L162.152 99.4299L162.119 99.4096L162.009 99.3485Z" fill="#92D050" stroke="#92D050" stroke-width="14.9931"/>
<path d="M172.593 98.9156H172.433L172.29 98.9767L172.138 99.0989L172.012 99.1753L171.928 99.3281L171.869 99.43L171.844 99.5573L171.785 99.6286L171.776 99.7509L171.877 99.7814L171.995 99.7916H172.113L172.197 99.7611L172.282 99.7305L172.366 99.6898L172.383 99.6286L172.458 99.5879L172.559 99.5268L172.627 99.4962L172.745 99.4707L172.896 99.43L172.955 99.4504L173.023 99.4555L173.073 99.4096L173.124 99.3281V99.2161V99.1091L173.107 99.0378L173.065 98.9767L172.972 98.9054H172.888L172.795 98.885H172.728L172.593 98.9156V98.9156Z" fill="#92D050" stroke="#92D050" stroke-width="14.9931"/>
<path d="M196.951 50.3551L196.69 50.3399L196.539 50.3144L196.387 50.3297L196.261 50.401V50.4672L196.202 50.5538H196.05L195.899 50.5691L195.739 50.6404L195.587 50.7117L195.562 50.8645L195.638 50.9511L195.672 51.0224L195.629 51.1191L195.528 51.1905L195.444 51.3178L195.394 51.4451L195.352 51.5725L195.377 51.6438L195.503 51.6845H195.655L195.781 51.6692H195.975H196.135L196.387 51.7151L196.497 51.6998L196.673 51.6845L196.825 51.7253L196.951 51.7813L197.111 51.8271H197.347L197.473 51.8526L197.608 51.8984H197.819L197.903 51.8679L198.063 51.7813L198.214 51.7405L198.282 51.654L198.315 51.5877L198.467 51.5164L198.551 51.5266L198.661 51.5012L198.736 51.4146V51.3331L198.77 51.1905L198.837 51.1039L198.93 51.0631L198.989 50.9918L199.014 50.8798V50.7524L198.93 50.6098L198.88 50.5283L198.753 50.4264L198.627 50.3551L198.517 50.2991L198.467 50.2431L198.408 50.1565L198.273 50.0597L198.164 50.0444H198.038L197.979 50.0037L197.869 49.9324L197.718 49.8916L197.566 49.9069L197.499 49.9884L197.431 50.1005L197.372 50.1871L197.305 50.2991L197.238 50.3551L197.187 50.3704L197.061 50.3857L196.951 50.3551V50.3551Z" fill="#92D050" stroke="#92D050" stroke-width="14.9931"/>
<path d="M194.847 52.8712H194.982L195.133 52.8559L195.226 52.8152L195.31 52.7286L195.327 52.6318V52.53L195.285 52.4485L195.217 52.4332L195.142 52.4179L195.133 52.4739L195.116 52.5452L195.066 52.6165L195.024 52.6318L194.923 52.6471L194.83 52.6726L194.721 52.7286L194.695 52.7592V52.7999L194.729 52.8305L194.847 52.8712V52.8712Z" fill="#92D050" stroke="#92D050" stroke-width="14.9931"/>
<path d="M197.946 54.5775L197.76 54.6641L197.651 54.6896H197.525H197.373L197.297 54.603L197.238 54.5775L197.171 54.5623L197.129 54.6183L197.146 54.7303L197.154 54.8577L197.129 55.0309L197.07 55.1429V55.255L197.104 55.4383L197.07 55.5809L197.062 55.7337L197.129 55.8611L197.146 56.0444L197.087 56.2023L197.129 56.3297L197.222 56.3857L197.365 56.4112L197.491 56.513L197.541 56.6811L197.676 56.8085L197.819 56.8645L198.055 56.8798H198.249H198.552L198.695 56.839L198.847 56.7932L198.973 56.7371L199.167 56.6557L199.251 56.5538L199.36 56.4112L199.444 56.2584L199.47 56.1005V55.8764V55.693L199.377 55.5249L199.318 55.367L199.225 55.1837L199.141 55.0003L199.124 54.8882V54.7864L199.15 54.6896L199.141 54.5368L199.032 54.4196L198.905 54.3636L198.695 54.3942L198.586 54.4502L198.426 54.5062L198.274 54.5215H198.207H198.106L197.946 54.5775Z" fill="#92D050" stroke="#92D050" stroke-width="14.9931"/>
<path d="M167.095 93.9393L167.246 93.7406L167.398 93.486L167.533 93.3332L167.617 93.1753L167.794 93.0785L168.004 92.9665L168.164 92.7372L168.248 92.4724L168.358 92.2839L168.459 92.0904L168.568 91.8612L168.686 91.6371L168.922 91.4945L169.158 91.3671L169.377 91.2143L169.57 91.1125L169.655 90.9851L169.848 90.8883L170 90.8476H170.126L170.16 90.8731V90.9291L170.151 91.0004L170.16 91.1838L170.261 91.2551H170.328L170.412 91.199L170.454 91.143L170.463 91.0564L170.438 91.0157L170.387 90.9291V90.8883L170.412 90.817L170.606 90.8323L170.8 90.8883L170.934 90.9851L170.951 91.1023L171.002 91.2143L171.019 91.3264L171.069 91.4384L171.145 91.5658L171.254 91.8052L171.406 91.8612L171.541 91.7899L171.608 91.7237L171.776 91.7084L171.978 91.8052L172.147 91.907L172.298 91.9783L172.467 92.0904L172.585 92.1006L172.686 92.0904L172.795 92.0038L173.031 91.9325L173.225 91.8765L173.385 91.8917H173.62L173.772 91.8612L173.907 91.9325L173.974 92.0598V92.1617L174.1 92.2737L174.21 92.3858L174.336 92.5131L174.429 92.7118L174.58 92.8799L174.732 92.9512L174.791 93.0327L174.917 93.1906L174.942 93.3586V93.5165L175.026 93.6439L175.22 93.6846L175.313 93.7254L175.439 93.7967L175.7 93.8425L175.826 93.9138L175.986 93.924L176.247 94.0106L176.475 94.0666L176.55 94.2092L176.677 94.3773L176.778 94.4639L177.039 94.576L177.199 94.6014H177.435L177.721 94.5301L177.872 94.4894L178.015 94.4741L178.209 94.4486L178.428 94.3213L178.512 94.2092L178.588 94.0972L178.689 93.9393L178.74 93.7967L178.908 93.6133L179.009 93.4758L179.118 93.3485L179.253 93.2211L179.346 93.104L179.582 93.0632L179.725 92.9766L179.91 92.8646L180.095 92.7271L180.272 92.6558L180.365 92.7372L180.449 92.7831L180.609 92.7423L180.71 92.671L180.828 92.6456L181.038 92.5437L181.089 92.4622L181.148 92.3756L181.383 92.3043L181.543 92.3196L181.762 92.2636L181.88 92.1362L181.914 91.9936L181.931 91.8663L181.914 91.7389L181.973 91.5963L182.032 91.4588V91.3162L182.082 91.1481L182.192 90.9902L182.251 90.8476L182.335 90.6795L182.369 90.5267L182.343 90.4401L182.301 90.3128V90.1549L182.318 90.0174L182.234 89.9155L182.15 89.8748H182.015L181.88 89.89L181.754 89.8748L181.611 89.7067L181.476 89.5233L181.282 89.396L181.131 89.2126L180.979 89.126L180.819 89.0853L180.609 88.8866L180.39 88.8001L180.196 88.688L180.062 88.6167L179.977 88.4639L179.834 88.3773L179.683 88.3366L179.497 88.2754L179.245 88.2907L179.093 88.306H178.933H178.807L178.655 88.2754H178.487H178.361L178.184 88.306L178.175 88.362L178.1 88.4333L178.024 88.5046L177.788 88.6167L177.594 88.7186L177.291 88.7287L177.098 88.744L176.921 88.7186L176.618 88.5861L176.407 88.4639L176.205 88.306L176.104 88.1787L175.969 88.0106L175.86 87.8985L175.801 87.7712L175.843 87.6693H175.885L175.91 87.6439L175.927 87.542L175.843 87.4707H175.776L175.675 87.4299L175.624 87.3892L175.599 87.2873L175.498 86.9053L175.456 86.5386L175.414 86.2992V86.1311L175.456 85.8612L175.532 85.6218L175.649 85.3671L175.793 85.1837L176.02 85.0411L176.205 84.9596L176.315 84.8323L176.475 84.8017L176.643 84.761L176.752 84.7457L176.921 84.6489L176.988 84.491V84.3077L176.887 84.2262H176.795L176.618 84.2516L176.399 84.1651L176.214 84.109L176.054 84.0938L175.826 84.1243L175.666 84.2109L175.456 84.2822L175.296 84.3382L175.153 84.4503L174.993 84.5623L174.841 84.6591L174.605 84.761L174.344 84.6642L174.176 84.5114L174.083 84.3382L174.05 84.2007V84.0836L174.134 83.89L174.26 83.6455L174.429 83.4214L174.622 83.3348L174.774 83.2635L174.824 83.1668L174.807 83.0241L174.715 82.9987L174.538 83.0241H174.412L174.344 82.9121L174.328 82.8L174.302 82.6421L174.353 82.5861L174.386 82.4893L174.243 82.418L174.235 82.2652L174.302 82.0819L174.344 81.9087L174.429 81.7559L174.58 81.6285L174.74 81.4707L174.909 81.272L175.018 81.1905L175.102 81.0326L175.237 80.9206L175.38 80.8085L175.49 80.7932L175.582 80.6659L175.666 80.4978L175.759 80.3959L175.91 80.3297L176.121 80.2431L176.256 80.0852L176.382 79.9019L176.365 79.7185L176.323 79.5504L176.247 79.4384L176.129 79.3976L175.978 79.3671L175.885 79.4078L175.801 79.5097L175.666 79.581L175.532 79.5912L175.405 79.5097L175.388 79.3365V79.1837L175.405 79.0411V78.8883L175.321 78.6998L175.279 78.5267L175.195 78.5012L175.085 78.4859L174.925 78.3993L174.909 78.3433L174.892 78.2313V78.0632L174.951 77.9511L175.043 77.9053L175.077 77.7932L175.043 77.6812L175.001 77.5793L175.035 77.4112L175.077 77.2839L175.144 77.0852L175.186 76.9019L175.228 76.6778L175.321 76.4384L175.38 76.2397L175.473 76.0564L175.565 75.9545L175.607 75.7864V75.6336V75.5317L175.624 75.3789L175.708 75.1803L175.818 75.0377L175.885 74.8289L175.995 74.6862L176.121 74.4876L176.188 74.345L176.315 74.2177L176.407 74.0903L176.466 73.9935L176.601 73.907H176.769L176.921 73.9222H177.014L177.123 73.8102L177.249 73.7949L177.384 73.7694L177.418 73.5963V73.4587L177.443 73.3314L177.536 73.1888L177.51 73.0462L177.426 72.9341L177.359 72.8068L177.182 72.7202L177.072 72.6387L177.005 72.4808L176.854 72.3687L176.66 72.2974L176.433 72.2567L176.357 72.1854L176.34 72.0581L176.357 71.8339L176.188 71.7626L176.02 71.7168H175.868L175.801 71.62L175.868 71.4621L175.885 71.3501L175.868 71.1412L175.818 70.9681L175.801 70.7592L175.902 70.6013L176.079 70.4485L176.172 70.2906L176.315 70.1786L176.399 70.0513L176.466 69.8985L176.55 69.8119L176.71 69.7966L176.904 69.7151L177.039 69.5878H177.207L177.443 69.6285L177.527 69.7558L177.637 69.9239L177.83 70.0105L178.032 70.0665L178.159 70.148L178.209 70.3059L178.268 70.4485L178.445 70.5046L178.571 70.4485L178.664 70.418L178.891 70.3925L179.085 70.2906L179.22 70.2754L179.371 70.1633L179.464 70.0665L179.649 69.9545L179.725 69.8271L179.784 69.5878L179.809 69.4299L179.758 69.2312L179.809 68.9664L179.826 68.7932L179.742 68.4366L179.674 68.294L179.615 68.1107L179.657 67.9273L179.725 67.8305L179.834 67.6726L179.986 67.6166L180.045 67.474V67.3467L179.986 67.2091L179.918 67.1225H179.809L179.742 67.1786L179.657 67.1073L179.649 66.9952V66.8832L179.607 66.6692L179.531 66.4706L179.422 66.2465L179.312 66.1344L179.135 65.9613L178.9 65.8798L178.664 65.8085L178.462 65.7779L178.31 65.6811L178.201 65.5385L178.133 65.3857L178.142 65.1718L178.209 65.0444L178.243 64.8458L178.184 64.6523L178.209 64.4536L178.243 64.2702L178.327 64.0971L178.394 63.929L178.42 63.7303L178.462 63.5062L178.554 63.3382L178.639 63.2108L178.765 63.1395L178.849 63.1242L178.891 63.0122L178.832 62.8543L178.782 62.8288V62.7575L178.857 62.5589L178.942 62.4621L179.043 62.2787L179.194 62.0903L179.38 61.8407L179.573 61.6268L179.716 61.4128L179.851 61.2193L180.137 60.878L180.264 60.6539L180.407 60.4247L180.541 60.3432L180.668 60.0733L180.802 59.7881L181.005 59.5079L181.19 59.3398L181.341 59.1259L181.451 58.7694L181.518 58.5962L181.56 58.4841L181.611 58.2753L181.695 58.1021L181.838 57.9901L182.065 57.8933L182.166 57.766L182.343 57.6539H182.47L182.604 57.7354L182.672 57.9188L182.756 58.0461L183.749 57.3127L183.943 57.2261L184.053 57.1853H184.145L185.433 58.1021L185.501 58.2448L185.551 58.4281L185.652 58.5147L185.787 58.5402L185.871 58.4841L185.998 58.204L185.955 58.0767L185.585 57.8373L185.526 57.8933L184.381 57.0325L184.423 56.9612L184.634 56.9459L184.684 56.9154L184.709 56.732L184.701 56.5894L184.726 56.406L184.827 56.1972L184.937 56.0699L185.071 55.9986L185.156 55.8152L185.164 55.5605L185.223 55.3619L185.316 55.1378L185.374 54.9086L185.585 54.5877L185.678 54.3891L185.812 54.1599L185.955 53.951L186.023 53.7677L186.149 53.569L186.191 53.3704L186.309 53.131L186.435 52.9884L186.528 52.861L186.696 52.6624L186.806 52.423L186.974 52.1123L187.092 51.8322L187.235 51.5469L187.429 51.2515L187.581 51.0529L187.715 50.6301L187.799 50.462L187.976 50.2227L188.128 50.0495L188.254 49.7846L188.448 49.7541L188.599 49.642L188.641 49.53L188.54 49.4281L188.582 49.26L188.785 48.8016L188.919 48.5469L189.071 48.3687L189.138 48.17L189.172 48.0987L189.197 47.9459L189.248 47.7727L189.366 47.676L189.5 47.5333L189.584 47.406V47.2634V47.1106L189.526 47.024L189.433 46.9425L189.349 46.9119L189.264 46.9272L189.239 46.8152L189.222 46.642L189.214 46.4332V46.1632L189.172 46.0817L189.071 45.9391L188.987 45.9238L188.877 45.9646H188.726L188.566 45.9391L188.422 45.9085L188.313 45.8372L188.263 45.7252L188.187 45.5571L188.119 45.4298L188.035 45.2719L188.027 45.1038L187.968 44.895L187.926 44.6658L187.917 44.4264L187.85 44.299L187.833 44.0444V43.9323L187.858 43.7184L187.892 43.4535L187.917 43.3109L187.833 43.1428L187.766 43.0562L187.74 42.8729V42.659V42.4756L187.707 42.277L187.639 42.0681L187.513 41.9255L187.378 41.7574V41.6148V41.4722L187.362 41.2736L187.227 41.1921L187.117 41.1055L186.983 40.9527L186.856 40.7795L186.713 40.5554L186.579 40.372L186.402 40.1734L186.014 39.8474L185.821 39.7659L185.56 39.7201L185.341 39.664L185.189 39.6793H184.996L184.76 39.7099L184.457 39.664L184.187 39.5927L183.867 39.5265L183.632 39.496L183.396 39.4807H183.11L182.79 39.3839L182.672 39.3279L182.562 39.17L182.461 38.9459L182.335 38.8185L182.108 38.5078L181.956 38.3245L181.788 38.0291L181.745 37.8151L181.703 37.6471L181.611 37.3618L181.501 37.1072L181.35 36.9391L181.198 36.7251L180.988 36.5723L180.642 36.2209L180.491 36.0936L180.339 35.8796L180.255 35.737L180.036 34.9883L180.028 34.7438L180.011 34.4229L179.944 34.153L179.952 33.8983V33.6284L179.843 33.3737L179.708 33.2362L179.666 33.0375L179.649 32.6708L179.666 32.3601L179.725 31.9628L179.75 31.7947L179.725 31.6521L179.624 31.4535L180.533 30.9034L180.449 30.7608L179.531 31.3414L179.363 31.1988L179.236 30.9747L179.144 30.7353L178.992 30.5774L178.866 30.3941L178.773 30.1699L178.622 29.8847L178.285 29.63L178.125 29.4772L177.914 29.3346L177.679 29.1513L177.451 29.0239L177.3 28.8711L177.157 28.5553L177.081 28.3873L177.039 28.1631L176.997 27.9645V27.7811V27.6844L177.089 27.5265L177.216 27.4297L177.241 27.3024L177.131 27.1037L176.963 26.9204L176.912 26.7777L176.887 26.5944V26.3957L176.912 26.2124L176.87 25.9577L176.778 25.8049L176.744 25.647L176.786 25.5604L176.811 25.4331L176.744 25.3108H176.651L176.542 25.3669L176.441 25.3108L176.348 25.1122L176.205 25.0103L175.986 24.8422L175.894 24.6996L175.809 24.501L175.784 24.3482L175.649 24.0731L175.532 23.9153L175.363 23.8287L175.186 23.8185L174.934 23.8439L174.807 23.9153L174.698 23.8592H174.479L174.344 23.9153L174.26 23.9458L174.134 24.012H173.982L173.873 23.9458L173.763 23.8439L173.629 23.6453L173.46 23.5893L173.326 23.3804L173.199 23.3244L173.048 23.2633L172.921 23.1818L172.804 22.9679L172.618 22.7692L172.399 22.6572L172.206 22.5604L172.029 22.3872L171.827 22.2344L171.549 22.0358L171.372 21.883L171.204 21.8371L171.069 21.6996L170.985 21.5825L170.791 21.3991L170.53 21.3176L170.404 21.2718L170.278 21.0884L170.084 21.0324L169.882 20.9356L169.747 20.8337L169.663 20.793L169.579 20.6809L169.646 19.9882L169.553 19.973L169.495 20.6351L169.301 20.7217L169.149 20.793L168.989 20.8083H168.754L168.585 20.793L168.425 20.7523L168.307 20.6657V19.6215H168.198V20.7064L168.122 20.8337L167.996 20.9203L167.777 20.9916L167.625 21.0324L167.44 21.0477L167.171 21.119L166.96 21.175L166.783 21.2005L166.59 21.231L166.354 21.3431L166.202 21.4297L165.941 21.5723L165.706 21.6538L165.445 21.7556L165.209 21.883L165.049 21.9645L164.813 22.0765L164.619 22.2039L164.451 22.2905L164.148 22.4025L163.946 22.5044L163.727 22.5859L163.533 22.6979L163.356 22.8151L163.121 22.8966L162.885 22.9679L162.708 22.9984L162.447 23.0799L162.262 23.0392L162.085 23.0086L161.849 22.9984L161.731 23.0086L161.656 23.1258L161.647 23.1818L161.689 23.3652L161.613 23.4467L161.504 23.63L161.411 23.6606L161.395 23.7574L161.428 23.8592L161.538 24.0731L161.588 24.1546L161.546 24.338L161.386 24.5366L161.327 24.7608L161.235 24.9441L161.024 25.158L160.847 25.3414L160.738 25.4687L160.544 25.6266L160.435 25.8813L160.325 26.0901L160.199 26.248L159.988 26.4416L159.837 26.7421L159.677 26.8389L159.576 26.9968L159.416 27.1241L159.163 27.1801L159.045 27.2209L158.894 27.1801L158.751 27.2514L158.658 27.4042L158.667 27.5316L158.574 27.7149L158.464 27.9136L158.33 28.0969L158.246 28.1937L158.052 28.4637L157.942 28.647L157.816 28.8609L157.58 29.0137L157.42 29.1564L157.319 29.299L157.227 29.4823L157.117 29.7064L157.185 29.8338L157.277 29.9764L157.446 30.0477L157.572 30.1445L157.622 30.3126L157.723 30.4705L157.69 30.6385L157.614 30.939L157.555 31.1632L157.496 31.3771L157.404 31.6419L157.294 31.9934L157.193 32.1818L157.058 32.2939L156.907 32.5333L156.881 32.6199L156.814 32.7778L156.839 33.063L156.865 33.2158L156.78 33.3839L156.646 33.5112L156.604 33.6844L156.646 33.7659L156.738 33.9798L156.772 34.1071L156.73 34.2345L156.629 34.3771V34.5452L156.511 34.6725L156.359 34.8406L156.208 35.0545L156.166 35.2073L156.124 35.3499L156.014 35.4773L155.905 35.7472L155.888 35.956L155.947 36.1394L156.065 36.1954L156.166 36.2667L156.174 36.4807L156.132 36.5927L156.04 36.664V36.7353L155.905 36.8881L155.955 37.0308L156.056 37.1021L156.082 37.3262L156.023 37.6674L155.913 37.9781L155.753 38.3601L155.543 38.5995L155.383 38.8949L155.24 39.2362L155.046 39.4909L154.852 39.6029L154.659 39.6589L154.44 39.6844L154.347 39.8016L154.372 39.9289L154.499 40.0257V40.209L154.389 40.4331L154.372 40.5605L154.347 40.7897L154.322 41.0698L154.33 41.2837L154.457 41.3958L154.549 41.4671L154.591 41.6097L154.524 41.7778L154.457 41.9306L154.473 42.1292L154.541 42.2464L154.566 42.3992L154.583 42.6131L154.566 42.8678V42.9798L154.65 43.1785L154.566 43.3771L154.398 43.4637L154.221 43.5605L154.196 43.8304L154.128 43.9578L153.985 44.0291L153.867 44.2124L153.85 44.4518L153.876 44.6046L153.96 44.8033L154.095 44.9153L154.238 45.114L154.499 45.3432L154.633 45.4145L154.844 45.552L154.995 45.7201L155.113 45.8474L155.265 45.99L155.366 46.1734L155.45 46.4434L155.501 46.7235L155.56 47.0647L155.602 47.4468V47.844L155.568 48.2108L155.543 48.6895L155.408 48.8882L155.299 49.041L155.265 49.2396L155.214 49.3975L155.105 49.5656L155.113 49.8356L155.08 50.1004L155.004 50.3856L154.928 50.625L155.004 50.7676L155.105 50.895L155.113 51.2057L155.198 51.3585L155.24 51.5979L155.282 51.715L155.349 51.8525L155.416 52.0665V52.2651L155.433 52.4637L155.517 52.6726L155.534 53.0138L155.501 53.2125L155.433 53.3093L155.307 53.3806L155.172 53.6199L155.13 53.8593L155.113 54.002L154.953 54.3279L154.894 54.5011L154.777 54.6132L154.625 54.5724L154.414 54.5571L154.153 54.7405L154.044 54.9086L153.909 55.2193L153.892 55.4026V55.6166L153.935 55.8814L153.766 56.1514L153.682 56.3347L153.564 56.4213L153.412 56.4926L153.261 56.62L153 56.788L152.697 56.9408L152.486 57.0682L152.352 57.114L152.074 57.17L151.897 57.1853L151.745 57.3534L151.535 57.44L151.358 57.4247L151.232 57.5062L151.03 57.5673L150.844 57.6081L150.659 57.6335L150.466 57.7201L150.339 57.6488H150.23L150.019 57.7201L149.784 57.7609L149.649 57.6794L149.598 57.5775L149.43 57.5928L149.177 57.6234L148.95 57.5928L148.655 57.6081L148.394 57.7049L148.133 57.7762L147.931 57.9595L147.679 58.0716L147.443 58.1327L147.241 58.2448L146.963 58.3568L146.744 58.4383L146.576 58.5656L146.155 58.7897L146.037 59.0444L145.784 59.2125L145.607 59.3704L145.414 59.4825L145.22 59.6098L144.984 59.6658L144.757 59.62L144.698 59.5079L144.631 59.4111L144.496 59.3959L144.311 59.5232L144.134 59.5385L144.007 59.676L143.873 59.7218L143.679 59.7473L143.502 59.7779L143.334 59.8186L143.073 60.002L142.837 60.0733L142.467 60.1752L142.265 60.2872L141.995 60.44L141.751 60.5113L141.448 60.496H141.229L141.094 60.5572L140.968 60.822L140.909 61.0359L140.858 61.3314L140.943 61.5147L140.968 61.6726L140.976 61.912L140.951 62.1208L141.018 62.3042L141.145 62.5487L141.229 62.8288L141.313 63.0835L141.397 63.3076L141.423 63.5521L141.507 63.8017L141.423 63.9748L141.448 64.255L141.549 64.4944L141.599 64.749L141.684 64.9782L141.751 65.131L141.844 65.3297L141.945 65.4876L142.096 65.6964L142.231 65.8543L142.357 66.165L142.374 66.3738L142.357 66.6132L142.222 66.9392L142.096 67.1073L142.012 67.3925L141.961 67.7338L141.86 67.8866L141.776 68.0445L141.641 68.2278L141.549 68.4366L141.49 68.5385L141.271 68.7626L141.162 68.9613L141.119 69.2312L141.06 69.4553L141.01 69.7507V70.0462L141.077 70.2754L141.145 70.5148L141.313 70.8662L141.507 71.0954L141.658 71.3603L141.776 71.5589L141.886 71.7728L141.961 71.9613L142.037 72.0988L142.062 72.272L142.037 72.4248L141.978 72.5114L141.936 72.6642L142.037 72.8221L142.197 72.9596L142.366 73.1735L142.416 73.3416L142.5 73.5148L142.584 73.7694L142.627 73.9935L142.669 74.1362L142.761 74.345L142.955 74.4163L143.056 74.3603L143.149 74.3195L143.317 74.4163L143.477 74.5182L143.629 74.5997L143.839 74.7015L144.033 74.7423L144.294 74.7117L144.572 74.6302L144.774 74.5284L145.052 74.4876L145.254 74.4723L145.557 74.4469H145.818L146.096 74.4723L146.348 74.5997L146.441 74.7576L146.533 74.9409L146.685 75.0122L146.702 75.1956L146.912 75.3076L147.156 75.3789L147.35 75.3331L147.527 75.2363L147.544 75.1396L147.594 75.0937L147.805 74.9664L148.049 74.9256L148.31 74.9002L148.521 74.839L148.731 74.7576L148.933 74.6862L149.169 74.6557H149.388H149.522L149.632 74.7423L149.657 74.8645L149.598 74.9766L149.531 75.0988L149.447 75.2873L149.48 75.5317L149.405 75.6336L149.32 75.8017L149.337 76.0207L149.371 76.2856L149.472 76.5759L149.531 76.688L149.556 76.8102L149.64 76.9528L149.809 77.1107L149.986 77.2075L150.129 77.3501L150.247 77.5182L150.432 77.564L150.609 77.671L150.954 77.7372L151.105 77.6761L151.181 77.5946L151.358 77.5487L151.56 77.62L151.712 77.7423L151.737 77.8492L151.754 78.0071L151.888 78.1956L152.099 78.3484L152.267 78.4401L152.503 78.4605L152.697 78.4401L152.773 78.3637L152.975 78.3942L153.05 78.4808L153.227 78.4605L153.463 78.5063L153.606 78.4299L153.766 78.2975L153.892 78.0937L153.993 77.9817L154.069 78.0173L153.909 78.4859L153.867 78.6285L153.825 78.6744L153.572 78.6489L153.328 78.6183L153.126 78.6591L153 78.7508L152.958 78.9138L153 79.036L153.16 79.092L153.253 79.1175L153.278 79.0054L153.109 78.9494L153.118 78.8272L153.21 78.7712L153.337 78.761L153.48 78.7712L153.606 78.8272L153.8 78.8476L153.867 78.7966L153.96 78.6591L153.993 78.5725L154.095 78.6387L153.935 78.8934L154.061 78.929L154.137 78.7966L154.204 78.6846L154.212 78.6082L154.128 78.4401L154.111 78.3739L154.128 78.2262L154.187 78.0835L154.305 78.0173L154.49 77.9817L154.692 78.0071L154.878 78.0479L155.038 78.1192L155.046 78.2873L154.953 78.4452L155.08 78.598L155.13 78.6693L155.021 78.8679L154.995 79.1633L154.894 79.4486L154.844 79.5861L154.852 79.8255V80.07L154.777 80.3348L154.675 80.508L154.633 80.7015V80.9868L154.541 81.3688L154.507 81.5369L154.541 81.6489L154.633 81.7763L154.81 81.8883L155.046 81.9902L155.231 82.1328L155.517 82.2601L155.795 82.5148L155.997 82.6269H156.191L156.452 82.6676L156.671 82.7644L156.949 82.8204H157.1L157.328 82.8866L157.42 83.0547L157.564 83.126L157.723 83.2075L157.875 83.3501L157.985 83.5895L158.102 83.8747L158.128 84.2262L158.178 84.3943L158.22 84.6642L158.33 84.8476L158.347 85.0055L158.279 85.1583L158.136 85.4435L158.069 85.6523L158.212 85.8255L158.321 85.8815L158.372 86.0751L158.439 86.233L158.557 86.3603L158.624 86.5844L158.709 86.8238L158.843 86.941L158.894 87.0785L158.978 87.2364L159.172 87.379L159.323 87.6184L159.45 87.817V88.0259L159.433 88.2092L159.382 88.5199L159.298 88.6931L159.146 88.8612L159.13 89.0445L159.062 89.1413L158.936 89.2686L158.885 89.3247L158.717 89.3858L158.591 89.4673L158.515 89.6659L158.582 90.0479L158.54 90.3179L158.523 90.486L158.481 90.6388L158.431 90.7559L158.405 90.9495L158.431 91.1226L158.389 91.3875L155.593 90.4147L155.526 90.6133L158.456 91.6727L158.481 91.9478L158.523 92.0649L158.54 92.2585L158.481 92.4724L158.431 92.7271L158.439 93.0072L158.389 93.2619L158.279 93.3892L158.17 93.5878L158.086 93.6744L158.178 93.8272L158.473 94.0106L158.633 94.1227L158.885 94.2398L159.02 94.1532L158.978 94.0106V93.9291L159.172 93.7712L159.231 93.5726L159.163 93.4911L159.088 93.3332L159.146 93.1906L159.214 93.0785L159.189 92.9104L159.231 92.8544L159.382 92.8238L159.466 92.9817L159.534 93.1804L159.652 93.3077L159.879 93.4045L159.946 93.5013L159.778 93.5726L159.61 93.6592L159.694 93.812L159.803 93.8425L160.081 93.7712L160.216 93.8833L160.409 94.0666L160.485 94.2398L160.384 94.3111L160.182 94.3671L160.123 94.4792L160.14 94.632L160.056 94.744L159.997 94.9019L160.106 94.9885L160.275 94.9987L160.536 94.9019L160.729 94.7339L160.898 94.5607L161.117 94.4079L161.31 94.3213L161.529 94.25L161.832 94.2092L161.992 94.2245L162.262 94.3366L162.397 94.4232L162.464 94.5607L162.641 94.6473L162.893 94.5912L163.045 94.6778L163.137 94.8612L163.331 94.9427L163.508 95.0853L163.744 95.2534L163.761 95.452L163.786 95.6354L163.912 95.7933L164.156 95.8086L164.325 95.7373L164.56 95.722L164.653 95.8086L164.847 95.8646L164.956 95.8901L165.091 96.104L165.301 96.16H165.436L165.731 96.1753L165.967 96.0174L166.101 95.8493L166.194 95.6812L166.379 95.5233L166.573 95.4266L166.758 95.3247L166.8 95.1872L166.817 94.9885L166.64 94.8154L166.573 94.6473L166.733 94.6065L166.884 94.5505L166.817 94.3926L166.8 94.2958L166.901 94.2092L167.011 94.0972L167.095 93.9393V93.9393Z" fill="#92D050" stroke="#92D050" stroke-width="14.9931"/>
<path d="M186.604 21.0579L186.621 20.844V20.7065L186.537 20.5791L186.427 20.4518L186.276 20.3398L186.082 20.3092L185.914 20.2684L185.804 20.2379L185.585 20.2226L185.451 20.1819L185.35 20.1564L185.223 20.2124L185.156 20.3499L185.147 20.4926L185.265 20.7319L185.459 20.7472L185.568 20.788L185.678 20.8593L185.737 20.9611L185.779 21.1853L185.787 21.3279L185.821 21.496L185.804 21.5927L185.939 21.6233H186.082L186.276 21.552L186.385 21.4399L186.478 21.2973L186.537 21.226L186.604 21.0579Z" fill="#92D050" stroke="#92D050" stroke-width="14.9931"/>
<path d="M181.594 12.8474L181.409 12.6487L181.266 12.5214L181.072 12.3635L180.92 12.2514L180.769 12.1547L180.592 12.0426L180.415 11.9407L180.179 11.844L180.028 11.7879L179.784 11.7727L179.615 11.8287L179.396 11.9L179.228 11.956L179.102 12.0681L178.992 12.1394L178.9 12.226H178.756H178.681L178.799 12.3228H178.95L179.177 12.3075L179.337 12.2514H179.481L179.615 12.3075L179.75 12.4806L179.893 12.6487L180.078 12.7048L180.196 12.8015L180.331 12.9441L180.525 13.0002L180.744 13.0868L180.895 13.1581L181.114 13.1835L181.257 13.3567L181.476 13.5248L181.628 13.6521L181.804 13.7795L181.973 13.8049L182.082 13.7947L182.15 13.6929L182.158 13.6216L182.082 13.4535L182.007 13.3262L181.914 13.1835L181.821 13.0868L181.737 13.0002L181.594 12.8474V12.8474Z" fill="#92D050" stroke="#92D050" stroke-width="14.9931"/>
<path d="M177.737 10.4636L177.948 10.4789L178.074 10.4381L178.167 10.3515L178.184 10.2089L178.142 10.1274L178.032 10.0663L177.923 10.0816L177.881 10.1937L177.813 10.265L177.67 10.2802L177.561 10.2955V10.377L177.603 10.4076L177.737 10.4636Z" fill="#92D050" stroke="#92D050" stroke-width="14.9931"/>
<path d="M174.715 8.45679L174.984 8.41604L175.085 8.31417L175.094 8.16137L175.195 7.97801L175.346 7.88123L175.439 7.7539L175.456 7.63675L175.329 7.596L175.203 7.62656L175.195 7.82011L175.111 7.9067L175.052 8.09006L174.934 8.24796L174.74 8.31417L174.572 8.27342L174.462 8.2174L174.378 8.12062L174.336 8.16137L174.412 8.30399L174.521 8.37529L174.631 8.41604L174.715 8.45679Z" fill="#92D050" stroke="#92D050" stroke-width="14.9931"/>
<path d="M173.461 6.91861L173.595 6.79127L173.722 6.64866L173.789 6.4653V6.32268L173.764 6.05782V5.85918L173.696 5.56377L173.57 5.40587L173.334 5.20723L173.166 5.02386L172.905 4.6877L172.593 4.4585L172.383 4.17836L172.223 4.09177L172.012 3.92369L171.836 3.70977L171.6 3.58243L171.255 3.31758L170.994 3.10365L170.674 2.94576L170.387 2.77768L170.177 2.60959L169.907 2.48226L169.655 2.31418L169.419 2.18684L169.234 2.04423H169.107L168.973 2.141L168.762 2.24287L168.67 2.41095L168.459 2.51282L168.198 2.64015L168.063 2.86426L167.87 3.1444L167.701 3.3736L167.466 3.51113L167.264 3.61299L166.901 3.74033H166.741H166.506L166.321 3.85238L166.211 3.97972L166.169 4.13761L166.203 4.29042L166.337 4.3057L166.489 4.25986L166.624 4.19364L166.792 4.09177L167.053 3.94916L167.205 3.81164L167.373 3.74033L167.525 3.69449L167.642 3.70977L167.853 3.6843L168.03 3.59771L168.24 3.51113L168.417 3.41435L168.569 3.3023L168.72 3.19024H168.956L169.124 3.26155L169.276 3.32776L169.453 3.41435L169.63 3.52641L169.848 3.75561L170.126 3.94916L170.328 4.13761L170.598 4.34644L170.951 4.61639L171.145 4.85578L171.465 5.07989L171.684 5.27853L171.92 5.4619L172.054 5.60451L172.189 5.74713L172.248 5.98652L172.374 6.18516L172.526 6.33796L172.678 6.43983L172.787 6.56716L172.854 6.67922L172.972 6.77599L173.056 6.95936L173.166 7.06122L173.25 7.07141L173.317 7.03066L173.461 6.91861V6.91861Z" fill="#92D050" stroke="#92D050" stroke-width="14.9931"/>
<path d="M166.396 2.3957L166.531 2.22761L166.556 2.10028L166.548 2.0035L166.573 1.88636L166.657 1.76412L166.708 1.56547L166.682 1.42286L166.657 1.25478L166.724 1.11216L166.792 0.969545L166.724 0.85749L166.64 0.745435L166.514 0.58754L166.421 0.562073L166.27 0.633381L166.185 0.770902L166.093 0.913517L166.051 1.0816V1.23949L165.983 1.35155L165.992 1.6215L166.059 1.70299V1.87617L166.034 2.04425L166.051 2.24289L166.034 2.38042L166.118 2.51284L166.228 2.60962L166.312 2.57906L166.32 2.51284L166.396 2.3957Z" fill="#92D050" stroke="#92D050" stroke-width="14.9931"/>
<path d="M169.57 1.62142L169.545 1.53484L169.537 1.42278L169.435 1.32601L169.326 1.29545L169.301 1.4075L169.326 1.55012L169.419 1.69273L169.503 1.76404L169.562 1.73348L169.57 1.62142Z" fill="#92D050" stroke="#92D050" stroke-width="14.9931"/>
<path d="M206.104 52.5147L206.281 52.1786L206.525 52.0716H206.769L206.997 52.036L207.258 51.9443L207.569 51.7304L207.67 51.6947L207.746 51.4247V51.2465L207.67 51.0529L207.485 51.0682L207.182 51.1752L206.921 51.2108H206.837L206.963 51.0886L207.148 50.9612L207.325 50.9256L207.502 50.9103L207.569 50.7983L207.409 50.62L207.207 50.4417L207.047 50.3908L206.946 50.5843L206.82 50.6556L206.769 50.783L206.719 50.9612L206.626 51.1395L206.542 51.2821L206.348 51.3025L206.298 51.4095L206.348 51.4808L206.382 51.6234L206.315 51.8933L206.214 52.036L206.054 52.2295L205.91 52.4434L205.894 52.5708L205.927 52.6981L206.037 52.7134L206.054 52.6981L206.07 52.6268L206.104 52.5147Z" fill="#92D050" stroke="#92D050" stroke-width="14.9931"/>
<path d="M208.579 59.8644L208.335 59.7931H208.091L207.956 59.8644L207.796 59.8492L207.695 59.9561L207.746 60.0631L207.864 60.1344L207.956 60.2413L208.074 60.4043L208.201 60.5622L208.419 60.5979H208.647L208.824 60.5622L208.933 60.5266L209.101 60.5826L209.312 60.6539L209.59 60.6335L209.868 60.6539L210.162 60.6692H210.39L210.482 60.6183L210.499 60.4553V60.2974L210.432 60.1853L210.407 60.0274V59.9001L210.322 59.7575L210.238 59.6862L210.078 59.6709L209.884 59.7065L209.64 59.7778L209.522 59.7931L209.413 59.7575L209.295 59.7778L209.118 59.9001L208.984 59.9561H208.824L208.579 59.8644V59.8644Z" fill="#92D050" stroke="#92D050" stroke-width="14.9931"/>
<path d="M185.795 115.693L185.913 115.408L185.989 115.265L186.124 114.853L186.14 114.552L186.174 114.267L186.317 114.048L186.418 113.763V113.549L186.385 113.243L186.443 113.029L186.494 112.836L186.477 112.622L186.401 112.459L186.385 112.26V111.832L186.334 111.547L186.216 111.119L186.107 110.758L185.93 110.386L185.862 110.172V109.866L185.829 109.561L185.694 109.276L185.551 109.006L185.5 108.685L185.45 108.079L185.425 107.844L185.391 107.488V107.182L185.374 106.846L185.425 106.184L185.408 105.644L185.34 105.323L185.256 105.13L185.096 105.002L185.012 104.916L184.642 104.88L184.473 104.804L184.381 104.88L184.28 105.023L184.12 105.094L183.926 105.201L183.707 105.216L183.581 105.287L183.37 105.359L183.235 105.466L183.075 105.593L182.974 105.613L182.899 105.7L182.882 105.899L183.059 106.113L183.269 106.199L183.387 106.327L183.53 106.449L183.682 106.683L183.808 106.897L183.985 107.182L184.086 107.417L184.187 107.758L184.246 108.114L184.313 108.42V108.827V109.133L184.296 109.617V109.917L184.229 110.116L184.136 110.243L183.926 110.422L183.808 110.564L183.741 110.814L183.724 111.028L183.682 111.313L183.842 111.583L184.019 111.726L184.296 111.782L184.524 111.746L184.768 111.69L184.936 111.639L185.13 111.67L185.147 111.853L185.374 112.189L185.467 112.495L185.484 112.872L185.467 113.157L185.408 113.355L185.324 113.712L185.206 113.997L185.029 114.425L184.852 114.675L184.717 115.031L184.397 115.408L184.28 115.551H184.12H184.002L183.875 115.658V115.872L183.968 116.091L184.103 116.213L184.17 116.376L184.28 116.554L184.296 116.783V117.018L184.381 117.053L184.49 116.982L184.574 116.967H184.785L184.919 116.946L185.113 116.804L185.324 116.59L185.5 116.32L185.652 116.07L185.728 115.892L185.795 115.693V115.693Z" fill="#92D050" stroke="#92D050" stroke-width="14.9931"/>
<path d="M161.076 79.2499L161.202 79.204L161.294 79.1888L161.446 79.1327L161.547 79.036L161.614 78.9341L161.707 78.7813L161.766 78.6845L161.791 78.44L161.766 78.3738L161.724 78.2872L161.699 78.2006L161.631 78.1039L161.505 78.0326L161.337 77.9765L161.202 77.9612L161.033 77.9918L160.873 78.0478L160.705 78.1446L160.604 78.3178L160.579 78.4706L160.57 78.5979L160.579 78.7405L160.646 78.9341L160.722 79.0767L160.831 79.1786H160.84L160.949 79.2193H160.966L161.076 79.2499Z" fill="#92D050" stroke="#92D050" stroke-width="14.9931"/>
<path d="M162.877 75.6438L162.987 75.6591L163.088 75.6285L163.13 75.491L163.138 75.3076L163.13 75.1905L163.088 75.0529L162.987 74.9664L162.81 74.9409L162.675 74.9816L162.608 75.1243L162.574 75.3076L162.608 75.4757L162.658 75.5623L162.743 75.5878H162.759L162.877 75.6438Z" fill="#92D050" stroke="#92D050" stroke-width="14.9931"/>
<path d="M149.321 65.9L149.186 66.1293L149.06 66.2973L149.001 66.4399L148.934 66.552V66.7201L149.001 66.9034L149.043 67.0308V67.2447L149.144 67.3975L149.27 67.5401L149.414 67.6827L149.607 67.8508L149.759 67.9068L149.986 67.9629L150.146 68.0495L150.399 68.0902L150.618 68.0189L150.811 67.9374L150.971 67.8101L151.114 67.698L151.182 67.5554V67.4281L151.232 67.3568L151.359 67.3007L151.401 67.2141L151.443 67.0868L151.46 66.9034L151.384 66.6488L151.316 66.5214L151.249 66.3839L151.14 66.2006L151.055 66.114L150.988 66.0885L150.862 66.0274L150.744 65.9L150.592 65.8033L150.441 65.7472L150.213 65.6912L150.062 65.7065L149.902 65.7727L149.708 65.8033L149.599 65.7727L149.498 65.8033L149.405 65.844L149.321 65.9V65.9Z" fill="#92D050" stroke="#92D050" stroke-width="14.9931"/>
<path d="M146.458 63.7405L146.593 63.6845L146.677 63.6539L146.77 63.5877L146.812 63.4603V63.333L146.762 63.2311L146.694 63.1344L146.526 63.0325L146.433 63.007L146.307 63.0631L146.197 63.2311L146.155 63.333V63.5266L146.197 63.6437L146.29 63.7252L146.349 63.7405H146.458Z" fill="#92D050" stroke="#92D050" stroke-width="14.9931"/>
<path d="M175.153 64.2447L175.052 64.0206L174.934 63.9085L174.833 63.8066L174.766 63.6691L174.698 63.5825L174.606 63.5978L174.37 63.7659L174.16 63.8779L174.008 64.0053L173.806 64.1632L173.503 64.372L173.309 64.5554L173.099 64.7693L173.031 64.9374L172.989 65.0953L172.897 65.2633L172.854 65.4212V65.5893L172.972 65.6708L173.183 65.6301L173.292 65.4773L173.36 65.406H173.486L173.638 65.4773L173.873 65.518L174.075 65.5893L174.303 65.6708L174.412 65.7421L174.505 65.7982H174.749L174.917 65.8287L175.069 65.8847L175.288 65.9L175.355 65.7574V65.6708L175.524 65.5588L175.658 65.4773L175.801 65.3907L175.844 65.2786L175.785 65.1055L175.633 65.0647L175.566 64.9679L175.482 64.7999L175.33 64.6725L175.237 64.6012L175.22 64.4993V64.428V64.4026L175.153 64.2447Z" fill="#92D050" stroke="#92D050" stroke-width="14.9931"/>
<path d="M185.317 43.2956L185.199 43.0817L185.131 42.9543L185.114 42.8779L185.03 42.7862H184.853L184.719 42.8168L184.651 42.8779L184.702 43.0918L184.769 43.2192L184.862 43.3465L184.896 43.5248L184.853 43.6623L184.811 43.7998L184.752 43.8966L184.786 44.0341L184.853 44.0443L184.921 43.9424L184.929 43.8253L185.013 43.7183L185.089 43.6521L185.216 43.5503L185.3 43.4942L185.342 43.4637L185.35 43.3974L185.317 43.2956V43.2956Z" fill="#92D050" stroke="#92D050" stroke-width="14.9931"/>
</svg>
