<svg width="12" height="12" viewBox="0 0 12 12" fill="none" xmlns="http://www.w3.org/2000/svg">
<path d="M11.7608 4.4172H11.6006C11.4445 3.62529 10.644 2.23098 10.2895 1.64042C10.4557 1.52612 10.5649 1.33474 10.5649 1.11827C10.5649 0.769023 10.2808 0.484863 9.93153 0.484863C9.58228 0.484863 9.29814 0.768999 9.29814 1.11827C9.29814 1.33474 9.40737 1.52612 9.57356 1.64042C9.21917 2.23098 8.41861 3.62529 8.26253 4.4172H8.10234C7.97033 4.4172 7.86328 4.52422 7.86328 4.65626C7.86328 5.79672 8.79112 6.72455 9.93158 6.72455C11.072 6.72455 11.9999 5.79672 11.9999 4.65626C11.9999 4.52422 11.8928 4.4172 11.7608 4.4172ZM9.93155 0.963009C10.0172 0.963009 10.0868 1.03267 10.0868 1.11827C10.0868 1.20388 10.0172 1.27351 9.93155 1.27351C9.84595 1.27351 9.77631 1.20388 9.77631 1.11827C9.77631 1.03267 9.84593 0.963009 9.93155 0.963009ZM9.93118 1.97326C10.3357 2.6561 10.9605 3.79354 11.1141 4.4172H8.74972C8.89479 3.83327 9.4569 2.77035 9.93118 1.97326ZM9.93155 6.24643C9.13599 6.24643 8.47496 5.65915 8.35931 4.89532H11.5038C11.3881 5.65915 10.7272 6.24643 9.93155 6.24643Z" fill="white"/>
<path d="M8.12846 10.1414H7.49643V9.53427C7.49643 9.40223 7.38938 9.29521 7.25737 9.29521H6.65024V2.61717C6.8066 2.46261 6.90732 2.25187 6.919 2.01801L7.92985 1.80049C8.05894 1.77271 8.14107 1.64555 8.11329 1.51647C8.08549 1.38739 7.95833 1.30535 7.82928 1.33305L6.81605 1.55111C6.66404 1.26252 6.3612 1.06519 6.01298 1.06519C5.53076 1.06519 5.13538 1.44341 5.10755 1.91876L2.57982 2.46271C2.46449 2.30498 2.27822 2.20227 2.06832 2.20227C1.71907 2.20227 1.43491 2.4864 1.43491 2.83568C1.43491 3.05214 1.54414 3.24355 1.71032 3.35782C1.35592 3.94838 0.55538 5.34269 0.399295 6.1346H0.239108C0.107026 6.1346 0 6.24163 0 6.37366C0 7.51412 0.927836 8.44196 2.06829 8.44196C3.20875 8.44196 4.13659 7.51412 4.13659 6.37366C4.13659 6.24163 4.02956 6.1346 3.89753 6.1346H3.73734C3.58126 5.34267 2.7807 3.94838 2.42631 3.35782C2.56868 3.25991 2.66915 3.10542 2.69505 2.92702L5.2064 2.38662C5.25058 2.47227 5.30785 2.55009 5.37575 2.61722V9.29528H4.76864C4.6366 9.29528 4.52958 9.4023 4.52958 9.53434V10.1415H3.89755C3.76551 10.1415 3.65849 10.2485 3.65849 10.3805V11.2764C3.65849 11.4085 3.76551 11.5155 3.89755 11.5155H8.12846C8.26047 11.5155 8.36752 11.4085 8.36752 11.2764V10.3805C8.36752 10.2484 8.26047 10.1414 8.12846 10.1414ZM2.06829 2.68037C2.1539 2.68037 2.22356 2.75003 2.22356 2.83563C2.22356 2.92123 2.1539 2.99087 2.06829 2.99087C1.98269 2.99087 1.91303 2.92123 1.91303 2.83563C1.91303 2.75003 1.98269 2.68037 2.06829 2.68037ZM2.06829 7.96379C1.2727 7.96379 0.611705 7.37651 0.496054 6.61268H3.64053C3.52488 7.37651 2.86388 7.96379 2.06829 7.96379ZM3.25087 6.13455H0.886465C1.03156 5.55063 1.59366 4.48771 2.06794 3.69062C2.47246 4.37344 3.0972 5.51087 3.25087 6.13455ZM6.013 1.54326C6.24958 1.54326 6.44202 1.7357 6.44202 1.97228C6.44202 2.20885 6.24956 2.40129 6.013 2.40129C5.77645 2.40129 5.58399 2.20885 5.58399 1.97228C5.58399 1.7357 5.77643 1.54326 6.013 1.54326ZM6.17214 2.86521V9.29523H5.85387V2.86519C5.90558 2.8744 5.9587 2.87946 6.01303 2.87946C6.06736 2.87946 6.12043 2.87438 6.17214 2.86521ZM5.00768 9.77333H7.01831V10.1414H5.00768V9.77333ZM7.8894 11.0373H4.13661V10.6195H7.8894V11.0373Z" fill="white"/>
<path d="M9.03574 1.33286C9.00796 1.20378 8.88078 1.12167 8.75169 1.14944L8.57749 1.18692C8.44843 1.2147 8.36629 1.34186 8.39407 1.47094C8.41824 1.58308 8.51734 1.65975 8.62758 1.65975C8.64424 1.65975 8.66117 1.65801 8.67812 1.65436L8.85232 1.61688C8.98136 1.5891 9.06352 1.46194 9.03574 1.33286Z" fill="white"/>
</svg>
