<svg width="14" height="10" viewBox="0 0 14 10" fill="none" xmlns="http://www.w3.org/2000/svg">
<path d="M7.00789 1.4917C4.87223 1.4917 3.13477 3.22916 3.13477 5.36482C3.13477 7.50048 4.87226 9.23797 7.00789 9.23797C9.14352 9.23797 10.881 7.50048 10.881 5.36482C10.881 3.22916 9.14355 1.4917 7.00789 1.4917ZM7.00789 8.72675C5.1541 8.72675 3.64593 7.21858 3.64593 5.3648C3.64593 3.51104 5.15408 2.00287 7.00789 2.00287C8.86168 2.00287 10.3698 3.51101 10.3698 5.3648C10.3698 7.21858 8.86168 8.72675 7.00789 8.72675Z" fill="white"/>
<path d="M9.29986 4.1154C9.23221 3.99151 9.07696 3.94591 8.95305 4.01355C8.9489 4.01582 8.94507 4.01843 8.94108 4.02088C8.82645 4.09181 8.78581 4.24062 8.85119 4.36036C9.01825 4.66634 9.10653 5.01366 9.10653 5.36475C9.10653 6.52237 8.16474 7.46416 7.00712 7.46416C5.84947 7.46416 4.9077 6.52234 4.9077 5.36475C4.9077 4.20713 5.8495 3.26534 7.00712 3.26534C7.1182 3.26534 7.22969 3.27408 7.33845 3.29134C7.47335 3.31275 7.59972 3.22442 7.62801 3.09266C7.62901 3.08809 7.63016 3.08359 7.6309 3.07888C7.65298 2.93946 7.55787 2.80852 7.41845 2.78643C7.28329 2.76501 7.14488 2.75415 7.00709 2.75415C5.56763 2.75415 4.39648 3.92526 4.39648 5.36475C4.39648 6.80424 5.5676 7.97535 7.00709 7.97535C8.44658 7.97535 9.61772 6.80421 9.61772 5.36475C9.61772 4.9283 9.50782 4.49629 9.29986 4.1154Z" fill="white"/>
<path d="M8.64135 3.22906C8.6296 3.2173 8.61656 3.20657 8.6025 3.19736C8.5887 3.18816 8.57388 3.18024 8.55829 3.17385C8.54295 3.16746 8.52685 3.1626 8.51049 3.15928C8.47752 3.15264 8.44352 3.15264 8.41055 3.15928C8.39419 3.1626 8.37835 3.16746 8.36276 3.17385C8.34742 3.18024 8.3326 3.18816 8.31879 3.19736C8.30474 3.20657 8.2917 3.2173 8.27969 3.22906C8.26793 3.24082 8.25745 3.25385 8.24799 3.26791C8.23879 3.28171 8.23087 3.29654 8.22448 3.31213C8.22044 3.32179 8.21724 3.33181 8.21446 3.34196C8.21282 3.34791 8.21116 3.35387 8.20993 3.35992C8.20664 3.37626 8.20508 3.39313 8.20508 3.40974C8.20508 3.42661 8.20661 3.44325 8.20993 3.45986C8.21326 3.47622 8.21811 3.49207 8.2245 3.50763C8.23089 3.52299 8.23882 3.53782 8.24802 3.55162C8.25748 3.56568 8.26795 3.57871 8.27971 3.59047C8.29172 3.60223 8.30476 3.61296 8.31882 3.62242C8.33262 3.63162 8.34744 3.63955 8.36278 3.64594C8.37837 3.65233 8.39422 3.65718 8.41058 3.6605C8.42719 3.66383 8.44406 3.66534 8.46067 3.66534C8.47729 3.66534 8.49416 3.6638 8.51052 3.6605C8.52687 3.65721 8.54298 3.65233 8.55831 3.64594C8.57171 3.64044 8.58436 3.63364 8.59645 3.62605C8.59844 3.6248 8.60056 3.62372 8.6025 3.62242C8.61656 3.61296 8.6296 3.60223 8.64135 3.59047C8.65311 3.57871 8.66385 3.56568 8.67305 3.55162C8.68225 3.53782 8.69017 3.52299 8.69656 3.50763C8.70295 3.49207 8.70781 3.47596 8.71113 3.45986C8.71446 3.44325 8.71624 3.42661 8.71624 3.40974C8.71624 3.34252 8.6889 3.27657 8.64135 3.22906Z" fill="white"/>
<path d="M13.5376 9.02534L12.7086 2.2739C12.6509 1.80402 12.5033 1.35685 12.27 0.944881C12.1267 0.691968 11.9527 0.456794 11.7528 0.245877L11.7305 0.222336C11.5602 0.0426265 11.3054 -0.00527203 11.0813 0.100315C10.8573 0.205876 10.7321 0.432922 10.7623 0.678703L11.8131 9.23711C11.8165 9.26458 11.8211 9.2916 11.8269 9.31813C11.9142 9.71591 12.2695 10.0001 12.6747 10C12.7098 10 12.7454 9.99789 12.7812 9.99349C13.0635 9.95883 13.2978 9.79165 13.4293 9.56199C13.4432 9.53781 13.4559 9.51297 13.4674 9.48749C13.4789 9.462 13.4892 9.43593 13.4982 9.4093C13.5389 9.28953 13.554 9.15905 13.5376 9.02534ZM11.2697 0.616388C11.2684 0.606139 11.2651 0.578816 11.2993 0.562688C11.3087 0.558266 11.3169 0.556554 11.3241 0.556554C11.343 0.556554 11.3544 0.568567 11.3595 0.573985L11.3818 0.597525C11.5533 0.778385 11.7024 0.979999 11.8252 1.1968C12.0253 1.54998 12.1518 1.93335 12.2012 2.33619L12.6431 5.93447L11.9333 6.02161L11.2697 0.616388ZM13.0081 9.26192C12.9615 9.37991 12.8535 9.46957 12.7189 9.48608C12.5232 9.51026 12.3445 9.37048 12.3205 9.17479L11.9956 6.52899L12.7053 6.44186L13.0302 9.08766C13.0377 9.14877 13.0292 9.20827 13.0081 9.26192Z" fill="white"/>
<path d="M3.6092 0.290099C3.46903 0.272821 3.34157 0.372554 3.32437 0.512646L3.0919 2.4059C3.05566 2.70096 2.81721 2.92356 2.52213 2.94155L2.35269 2.92074L2.65841 0.430907C2.67561 0.290814 2.57598 0.163272 2.43586 0.146045C2.29572 0.12869 2.16823 0.2285 2.15103 0.368592L1.84531 2.85843L1.67572 2.83762C1.3938 2.74873 1.21634 2.47509 1.25256 2.18005L1.48502 0.286827C1.50222 0.146735 1.40259 0.0191926 1.26247 0.00196542C1.12238 -0.0154151 0.99484 0.0844207 0.977638 0.224513L0.745174 2.11774C0.687025 2.59143 0.928794 3.03556 1.33662 3.24857L0.467085 8.84451C0.466983 8.84513 0.466881 8.84579 0.466778 8.84643C0.431481 9.08564 0.492747 9.32332 0.63928 9.51566C0.785813 9.70799 0.998699 9.83017 1.2385 9.85961L1.24315 9.86018C1.28019 9.86473 1.31715 9.86697 1.35382 9.86697C1.55598 9.86697 1.7503 9.79863 1.91036 9.6695C2.09947 9.51693 2.21577 9.29965 2.23783 9.05768L2.75178 3.42238C3.19907 3.31439 3.54116 2.94193 3.59931 2.46821L3.83178 0.57496C3.84895 0.434868 3.74932 0.307326 3.6092 0.290099ZM1.72878 9.01129C1.71938 9.11427 1.66989 9.20672 1.58941 9.27167C1.50892 9.33661 1.40816 9.3656 1.30564 9.35284L1.30099 9.35228C1.19886 9.33976 1.10825 9.28777 1.04591 9.2059C0.983696 9.12426 0.957599 9.02343 0.972373 8.92191L1.83478 3.3722L2.03647 3.39697C2.03657 3.39697 2.03665 3.397 2.03675 3.39702C2.03683 3.39702 2.0369 3.39702 2.03698 3.39702L2.23852 3.42176L1.72878 9.01129Z" fill="white"/>
</svg>
