<svg width="16" height="16" viewBox="0 0 16 16" fill="none" xmlns="http://www.w3.org/2000/svg">
<path d="M14.1034 8.46631H13.6481H13.2217H12.7663C12.2043 8.46631 11.6745 8.71331 11.3127 9.14403C11.2295 9.24315 11.2423 9.391 11.3414 9.47425C11.4406 9.55753 11.5884 9.54462 11.6717 9.44553C11.9441 9.12112 12.3431 8.93506 12.7663 8.93506H12.9253L12.5663 10.4515C12.5481 10.5286 12.5699 10.6096 12.6245 10.667L13.2649 11.341C13.3092 11.3875 13.3706 11.4139 13.4348 11.4139C13.4991 11.4139 13.5605 11.3875 13.6047 11.341L14.2452 10.667C14.2997 10.6096 14.3216 10.5286 14.3034 10.4515L13.9444 8.93506H14.1034C14.8912 8.93506 15.5322 9.576 15.5322 10.3638V11.8673H12.205C12.0755 11.8673 11.9706 11.9722 11.9706 12.1017C11.9706 12.2311 12.0755 12.336 12.205 12.336H15.6368C15.8376 12.336 16.0009 12.1727 16.0009 11.9719V10.3638C16.0009 9.31753 15.1497 8.46631 14.1034 8.46631ZM13.818 10.4361L13.4348 10.8393L13.0517 10.4361L13.407 8.93506H13.4627L13.818 10.4361Z" fill="white"/>
<path d="M13.4333 8.11117C14.4907 8.11117 15.351 7.25089 15.351 6.19345V5.47954V5.09786C15.351 5.00508 15.3439 4.91389 15.3303 4.82486C15.1984 3.9642 14.453 3.30286 13.5561 3.30286H13.3106C12.4136 3.30286 11.6682 3.9642 11.5363 4.82486C11.5227 4.91389 11.5156 5.00504 11.5156 5.09786V5.39632V6.19345C11.5156 7.25086 12.3759 8.11117 13.4333 8.11117ZM13.3105 3.77164H13.5561C14.2873 3.77164 14.8823 4.36657 14.8823 5.09782V5.15404C14.5718 5.02673 14.3526 4.85348 14.2967 4.68117C14.2692 4.59651 14.1961 4.5347 14.1081 4.52167C14.02 4.50867 13.9322 4.54664 13.8813 4.6197C13.6226 4.99182 12.6729 5.32157 11.9843 5.20939V5.09782C11.9843 4.36657 12.5793 3.77164 13.3105 3.77164ZM11.9843 5.68142C12.6723 5.76361 13.5433 5.52811 14.0286 5.13614C14.2587 5.40511 14.623 5.56632 14.8823 5.65329V6.19345C14.8823 6.99242 14.2323 7.64242 13.4333 7.64242C12.6343 7.64242 11.9843 6.99242 11.9843 6.19345V5.68142Z" fill="white"/>
<path d="M4.66038 9.47565C4.75956 9.3925 4.77256 9.24465 4.68944 9.14547C4.32762 8.71384 3.79738 8.46631 3.23463 8.46631H2.77928H2.35287H1.89753C0.851219 8.46628 0 9.31747 0 10.3638V11.9719C0 12.1727 0.163344 12.336 0.364094 12.336H3.79581C3.92528 12.336 4.03019 12.2311 4.03019 12.1016C4.03019 11.9722 3.92528 11.8672 3.79581 11.8672H0.46875V10.3638C0.46875 9.57597 1.10969 8.93503 1.89753 8.93503H2.05656L1.69756 10.4515C1.67931 10.5285 1.70119 10.6096 1.75572 10.6669L2.39619 11.3409C2.44044 11.3875 2.50184 11.4139 2.56609 11.4139C2.63034 11.4139 2.69175 11.3875 2.736 11.3409L3.37647 10.6669C3.431 10.6096 3.45287 10.5285 3.43462 10.4515L3.07562 8.93503H3.23466C3.65841 8.93503 4.05769 9.1215 4.33022 9.44659C4.41334 9.54578 4.56109 9.55872 4.66038 9.47565ZM2.94925 10.436L2.56606 10.8392L2.18287 10.436L2.53822 8.93503H2.59387L2.94925 10.436Z" fill="white"/>
<path d="M0.648531 6.19342C0.648531 7.25089 1.50872 8.11121 2.56603 8.11121C3.62353 8.11121 4.48384 7.25089 4.48384 6.19342V5.0978C4.48384 5.06755 4.48281 5.03708 4.48125 5.00655C4.86269 4.71555 5.10944 4.25655 5.10944 3.74086V3.19458C5.10944 3.06511 5.00453 2.96021 4.87506 2.96021H2.23787C2.13216 2.96021 2.02644 2.97067 1.92362 2.9913C1.79672 3.01677 1.7145 3.14033 1.73997 3.26724C1.76547 3.39414 1.88906 3.47633 2.01591 3.45089C2.08837 3.43633 2.16306 3.42896 2.23787 3.42896H4.64072V3.74086C4.64072 4.35996 4.13709 4.86358 3.518 4.86358H1.11719V4.54964C1.11719 4.28914 1.2085 4.03546 1.37431 3.83536C1.45691 3.73567 1.44303 3.58792 1.34338 3.50533C1.24363 3.42274 1.09594 3.43661 1.01334 3.53627C0.778031 3.8203 0.648438 4.18017 0.648438 4.54964V5.09795C0.648438 5.09858 0.648531 5.09917 0.648531 5.09977V6.19342ZM4.01509 5.25236V6.19345C4.01509 6.99246 3.36503 7.64249 2.56603 7.64249C1.76719 7.64249 1.11728 6.99246 1.11728 6.19345V5.3323H3.518C3.69159 5.3323 3.85859 5.30399 4.01509 5.25236Z" fill="white"/>
<path d="M10.0253 8.8882C10.0216 8.88626 10.0181 8.88417 10.0143 8.88242C9.98906 8.8707 9.96359 8.85954 9.93806 8.8487C9.93503 8.84739 9.93197 8.84617 9.92894 8.84488C9.77472 8.78001 9.61603 8.73085 9.45384 8.69757C9.45381 8.69757 9.45378 8.69757 9.45375 8.69757C9.41209 8.68904 9.37025 8.68151 9.32816 8.67507C9.32775 8.67501 9.32734 8.67495 9.32697 8.67489C9.285 8.66848 9.24281 8.66307 9.20044 8.65876C9.19953 8.65867 9.19863 8.6586 9.19769 8.65851C9.15538 8.65426 9.11291 8.65095 9.07022 8.64879C9.06928 8.64876 9.06834 8.64873 9.06741 8.6487C9.02431 8.64657 8.98106 8.64539 8.93762 8.64539H8.92381H7.07822H7.06438C7.02094 8.64539 6.97769 8.64657 6.93463 8.6487C6.93369 8.64873 6.93275 8.64876 6.93178 8.64879C6.88906 8.65095 6.84653 8.65426 6.80419 8.65854C6.80334 8.65864 6.80247 8.6587 6.80163 8.65879C6.75916 8.6631 6.71688 8.66854 6.67481 8.67495C6.67453 8.67498 6.67425 8.67501 6.674 8.67507C6.46788 8.7066 6.26697 8.76335 6.07306 8.84492C6.07003 8.8462 6.06694 8.84745 6.06391 8.84873C6.03838 8.8596 6.01294 8.87073 5.98766 8.88245C5.98391 8.8842 5.98041 8.88629 5.97678 8.8882C5.10513 9.2982 4.5 10.1845 4.5 11.2098V13.332C4.5 13.6336 4.74534 13.8789 5.04688 13.8789H10.9552C11.2567 13.8789 11.5021 13.6336 11.5021 13.332V11.2099C11.502 10.1845 10.8969 9.2982 10.0253 8.8882ZM8.75834 10.72L8.60328 9.8681C8.87616 9.70279 9.06616 9.43389 9.13216 9.12351C9.1345 9.12373 9.13688 9.12382 9.13919 9.12404C9.14619 9.1247 9.15316 9.12535 9.16012 9.12607C9.22737 9.13323 9.29375 9.14335 9.35897 9.15673C9.3595 9.15682 9.36003 9.15695 9.36056 9.15707C9.39184 9.16351 9.42281 9.17076 9.45356 9.17857C9.45878 9.17989 9.464 9.18129 9.46922 9.18264C9.49628 9.18976 9.52313 9.19742 9.54975 9.20557C9.55494 9.20717 9.56016 9.20867 9.56534 9.21029C9.571 9.21207 9.57653 9.21417 9.58219 9.21601L8.75834 10.72ZM6.41966 9.21604C6.42528 9.2142 6.43075 9.21214 6.43641 9.21035C6.44172 9.20867 6.44703 9.20714 6.45234 9.20551C6.47884 9.19742 6.50553 9.18979 6.53244 9.18273C6.53778 9.18132 6.54313 9.17992 6.54847 9.17854C6.57906 9.17076 6.60984 9.16357 6.64097 9.15714C6.64166 9.15701 6.64234 9.15682 6.64303 9.15667C6.70819 9.14332 6.7745 9.1332 6.84169 9.12607C6.84872 9.12532 6.85575 9.1247 6.86278 9.12401C6.86509 9.12379 6.86744 9.1237 6.86978 9.12348C6.93578 9.43389 7.12578 9.70279 7.39866 9.8681L7.24359 10.72L6.41966 9.21604ZM8.11072 9.77942L8.40072 11.3727L8.00097 12.1024L7.60122 11.3727L7.89122 9.77942C7.91122 9.66954 7.85091 9.56085 7.74713 9.51964C7.55916 9.44498 7.41856 9.29617 7.35316 9.11414H8.64878C8.58338 9.29617 8.44278 9.44498 8.25481 9.51964C8.15103 9.56085 8.09072 9.66957 8.11072 9.77942ZM11.0332 13.332C11.0332 13.3751 10.9982 13.4101 10.9551 13.4101H5.04681C5.00372 13.4101 4.96869 13.3751 4.96869 13.332V11.2098C4.96869 10.446 5.37953 9.77667 5.99166 9.41039L7.79544 12.7029C7.83653 12.7779 7.91538 12.8246 8.00097 12.8246C8.08656 12.8246 8.16541 12.7779 8.2065 12.7029L10.0103 9.41039C10.6224 9.7767 11.0332 10.4461 11.0332 11.2098V13.332Z" fill="white"/>
<path d="M7.99341 8.20393C8.55931 8.20393 9.11 8.00468 9.54403 7.64287C9.64347 7.55999 9.65684 7.41218 9.57397 7.31277C9.49109 7.21337 9.34325 7.19996 9.24387 7.28284C8.89397 7.57455 8.44987 7.73521 7.99341 7.73521C6.91584 7.73521 6.03916 6.85852 6.03916 5.78096V4.87825C6.37669 5.14568 6.76322 5.3555 7.09781 5.44222C7.18684 5.46531 7.281 5.43422 7.33881 5.36281C7.39662 5.29137 7.40734 5.19275 7.36625 5.11053C7.29434 4.96669 7.19762 4.73934 7.15756 4.49262C7.47841 4.72278 7.88125 4.93393 8.14869 5.0645C8.73941 5.35287 9.39734 5.60606 9.94769 5.75887V5.781C9.94769 6.06859 9.88675 6.34546 9.76653 6.60387C9.71197 6.72124 9.76284 6.86065 9.88022 6.91524C9.99756 6.96974 10.137 6.9189 10.1916 6.80156C10.3408 6.48071 10.4164 6.13737 10.4164 5.781V5.57846V4.37212C10.4164 3.13081 9.40659 2.12097 8.16528 2.12097H7.82156C7.78341 2.12097 7.74537 2.12197 7.70753 2.12388C7.69959 2.12428 7.69178 2.12513 7.68387 2.1256C7.65369 2.12741 7.62356 2.12947 7.59362 2.13247C7.58784 2.13307 7.58219 2.13394 7.57644 2.13457C7.54416 2.13803 7.51197 2.142 7.47997 2.14685C7.47816 2.14713 7.47637 2.1475 7.47456 2.14778C7.01053 2.21928 6.58156 2.4335 6.24131 2.76916C5.97369 3.03316 5.78037 3.35306 5.67197 3.70278C5.67125 3.70509 5.67066 3.70744 5.66994 3.70978C5.66037 3.741 5.65131 3.77237 5.64309 3.80406C5.63856 3.82141 5.63475 3.83903 5.63062 3.85653C5.62669 3.87337 5.62247 3.89009 5.61894 3.90703C5.61328 3.93384 5.60847 3.96097 5.60378 3.98812C5.60241 3.99609 5.60078 4.00397 5.59953 4.01197C5.59434 4.04406 5.59006 4.07641 5.58625 4.10894C5.58587 4.11228 5.58534 4.11562 5.58497 4.11897C5.58109 4.15334 5.57816 4.18797 5.57584 4.22278C5.57572 4.22462 5.57553 4.22644 5.57544 4.22828C5.57325 4.26278 5.57197 4.29753 5.57134 4.33244C5.57131 4.33428 5.57116 4.33609 5.57113 4.3379C5.57113 4.33834 5.57116 4.33878 5.57116 4.33922C5.571 4.35022 5.57031 4.36109 5.57031 4.37215V5.78103C5.57041 7.11699 6.65734 8.20393 7.99341 8.20393ZM8.16528 2.58966C9.14809 2.58966 9.94769 3.38925 9.94769 4.37206V5.2715C8.82069 4.93744 7.421 4.23794 7.12594 3.84109C7.08119 3.78091 7.01106 3.74659 6.93787 3.74659C6.92225 3.74659 6.90647 3.74816 6.89078 3.75134C6.80162 3.76962 6.73112 3.83787 6.70991 3.92637C6.67028 4.09178 6.637 4.38784 6.74244 4.78722C6.49384 4.64706 6.24159 4.45637 6.04366 4.25284C6.09978 3.4145 6.74462 2.72991 7.56225 2.60875C7.56375 2.60853 7.56525 2.60838 7.56675 2.60816C7.59309 2.60431 7.61959 2.60103 7.64625 2.59838C7.65644 2.59738 7.66675 2.59685 7.67697 2.59603C7.6955 2.59453 7.71403 2.59285 7.73272 2.59191C7.76216 2.59047 7.79175 2.58966 7.82153 2.58966H8.16528Z" fill="white"/>
</svg>
