<svg width="12" height="13" viewBox="0 0 12 13" fill="none" xmlns="http://www.w3.org/2000/svg">
<path d="M11.4723 2.18638H9.83149C9.98836 2.06421 10.0896 1.87376 10.0896 1.65999C10.0896 1.29219 9.79031 0.99292 9.42249 0.99292C9.05467 0.99292 8.75542 1.29216 8.75542 1.65999C8.75542 1.77237 8.78345 1.87823 8.83274 1.97123L8.59764 2.18636H5.37216C5.2704 1.94786 5.03356 1.78024 4.7583 1.78024C4.48303 1.78024 4.24622 1.94784 4.14443 2.18636H0.527522C0.236644 2.18638 0 2.42303 0 2.71388V4.01251C0 4.10961 0.0787252 4.18836 0.175849 4.18836C0.272949 4.18836 0.351697 4.10963 0.351697 4.01251V2.71388C0.351697 2.61692 0.430563 2.53803 0.527546 2.53803H4.09767C4.10693 2.60539 4.12603 2.66963 4.15388 2.72909L2.67087 4.0726C2.56608 4.004 2.44097 3.96392 2.30663 3.96392C1.93883 3.96392 1.63957 4.26317 1.63957 4.63099C1.63957 4.99881 1.93881 5.29806 2.30663 5.29806C2.67446 5.29806 2.9737 4.99881 2.9737 4.63099C2.9737 4.52494 2.94872 4.42465 2.90449 4.33554L4.38157 2.9974C4.48886 3.07111 4.61861 3.11438 4.75832 3.11438C4.94713 3.11438 5.1177 3.03542 5.23918 2.90893L6.43665 3.62015C6.42796 3.66309 6.42336 3.70745 6.42336 3.7529C6.42336 4.1207 6.72261 4.41996 7.09043 4.41996C7.45825 4.41996 7.75749 4.12072 7.75749 3.7529C7.75749 3.6572 7.7371 3.56624 7.70064 3.48389L8.73428 2.53803H11.4723C11.5693 2.53803 11.6481 2.6169 11.6481 2.71388V7.05886C11.6481 7.15599 11.7269 7.23471 11.824 7.23471C11.9211 7.23471 11.9998 7.15601 11.9998 7.05886V2.71388C11.9998 2.42303 11.7632 2.18638 11.4723 2.18638ZM2.30661 4.94643C2.13271 4.94643 1.99122 4.80497 1.99122 4.63106C1.99122 4.45714 2.13271 4.31567 2.30661 4.31567C2.48051 4.31567 2.622 4.45714 2.622 4.63106C2.62198 4.80497 2.48051 4.94643 2.30661 4.94643ZM4.7583 2.7627C4.58439 2.7627 4.4429 2.62124 4.4429 2.44731C4.4429 2.27341 4.58439 2.13192 4.7583 2.13192C4.9322 2.13192 5.07369 2.27338 5.07369 2.44731C5.07369 2.62124 4.9322 2.7627 4.7583 2.7627ZM7.0904 4.06827C6.91652 4.06827 6.77501 3.9268 6.77501 3.75287C6.77501 3.57897 6.9165 3.43748 7.0904 3.43748C7.26431 3.43748 7.4058 3.57895 7.4058 3.75287C7.40577 3.9268 7.26428 4.06827 7.0904 4.06827ZM7.47822 3.21068C7.36884 3.13221 7.23496 3.08583 7.09038 3.08583C6.89445 3.08583 6.71804 3.17074 6.59588 3.30569L5.40755 2.59991C5.41231 2.57964 5.41617 2.55899 5.41903 2.53806H8.2133L7.47822 3.21068ZM9.42247 1.97538C9.24859 1.97538 9.10707 1.83391 9.10707 1.65999C9.10707 1.48606 9.24856 1.34459 9.42247 1.34459C9.59637 1.34459 9.73786 1.48606 9.73786 1.65999C9.73788 1.83391 9.59639 1.97538 9.42247 1.97538Z" fill="white"/>
<path d="M11.9998 7.76225C11.9998 7.66513 11.9211 7.5864 11.824 7.5864C11.7269 7.5864 11.6481 7.6651 11.6481 7.76225V9.08506H10.3535V4.91966V4.20201V3.47443C10.3535 3.37731 10.2748 3.29858 10.1776 3.29858H8.85484C8.75774 3.29858 8.679 3.37729 8.679 3.47443V4.20201V4.91966V9.08506H8.02135V8.18984V7.47219V6.74461C8.02135 6.64749 7.94263 6.56876 7.8455 6.56876H6.52271C6.42561 6.56876 6.34686 6.64747 6.34686 6.74461V7.47219V8.18984V9.08506H5.68924V5.92007V5.20243V4.47487C5.68924 4.37775 5.61052 4.29902 5.51339 4.29902H4.1906C4.0935 4.29902 4.01475 4.37772 4.01475 4.47487V5.20243V5.92007V6.90405C4.01475 7.00118 4.09348 7.0799 4.1906 7.0799C4.28772 7.0799 4.36645 7.0012 4.36645 6.90405V6.0959H5.33757V9.08506H4.36645V7.6074C4.36645 7.51028 4.28772 7.43155 4.1906 7.43155C4.09348 7.43155 4.01475 7.51026 4.01475 7.6074V9.08506H3.35713V8.18984V7.47219V6.74461C3.35713 6.64749 3.27841 6.56876 3.18128 6.56876H1.85861C1.76151 6.56876 1.68276 6.64747 1.68276 6.74461V7.47219V8.18984V9.08506H0.351697V4.71587C0.351697 4.61875 0.272972 4.54002 0.175849 4.54002C0.0787487 4.54002 0 4.61873 0 4.71587V10.5357C0 10.8266 0.236621 11.0633 0.527522 11.0633H4.37878L4.27849 11.937H3.44364C3.34654 11.937 3.26779 12.0157 3.26779 12.1128V12.7299C3.26779 12.827 3.34651 12.9057 3.44364 12.9057H8.55628C8.65338 12.9057 8.73213 12.827 8.73213 12.7299V12.1128C8.73213 12.0157 8.6534 11.937 8.55628 11.937H7.72143L7.62114 11.0633H11.4724C11.7632 11.0633 11.9999 10.8266 11.9999 10.5357C11.9999 10.5346 11.9998 9.26541 11.9997 9.26429C11.9998 9.26316 11.9999 9.26206 11.9999 9.26091V7.76225H11.9998ZM9.03074 3.65026H10.0019V4.02614H9.03074V3.65026ZM9.03074 4.37784H10.0019V4.74381H9.03074V4.37784ZM9.03074 5.09551H10.0019V9.08509H9.03074V5.09551ZM6.69863 6.92046H7.66975V7.29634H6.69863V6.92046ZM6.69863 7.64804H7.66975V8.01401H6.69863V7.64804ZM6.69863 8.36569H7.66975V9.08506H6.69863V8.36569ZM4.36652 5.02655V4.65067H5.33764V5.02655H4.36652ZM4.36654 5.74422V5.37825H5.33766V5.74422H4.36654ZM2.03446 6.92046H3.00555V7.29634H2.03446V6.92046ZM2.03446 7.64804H3.00555V8.01401H2.03446V7.64804ZM2.03446 8.36569H3.00555V9.08506H2.03446V8.36569ZM8.38041 12.2886V12.554H3.61946V12.2886H8.38041ZM4.63246 11.9369L4.73275 11.0632H7.26707L7.36736 11.9369H4.63246ZM11.4723 10.7116H0.527546C0.43061 10.7116 0.351697 10.6327 0.351697 10.5357V9.44349H11.6481V10.5357H11.6481C11.6481 10.6327 11.5693 10.7116 11.4723 10.7116Z" fill="white"/>
</svg>
