<svg width="12" height="12" viewBox="0 0 12 12" fill="none" xmlns="http://www.w3.org/2000/svg">
<path d="M7.44505 4.55513C7.35341 4.46372 7.20505 4.46372 7.11365 4.55513C7.02201 4.64677 7.02201 4.79513 7.11365 4.88651C7.20505 4.97815 7.35341 4.97815 7.44505 4.88651C7.53645 4.7951 7.53645 4.64677 7.44505 4.55513Z" fill="white"/>
<path d="M11.7251 4.58344L11.3937 4.25206C11.4059 4.2342 11.7654 3.94147 11.7654 3.39509C11.7654 3.08202 11.6434 2.78774 11.422 2.56647L11.2563 2.40074L11.4219 2.23499C11.8799 1.77766 11.8804 1.0356 11.4221 0.577943C10.9643 0.119835 10.223 0.119554 9.7651 0.577802L9.59919 0.743598L9.43351 0.577919C8.97566 0.119742 8.2342 0.119578 7.77618 0.577872L7.74785 0.606208L7.41649 0.27485C7.05014 -0.0914761 6.45722 -0.0917339 6.09071 0.27478C5.72426 0.640943 5.72407 1.23419 6.09064 1.60047L7.41642 2.92625L2.92626 7.41639L1.60062 6.09075C1.23488 5.72442 0.640972 5.72388 0.274927 6.09054C-0.0916109 6.45679 -0.0916578 7.04994 0.27488 7.41651L0.606238 7.74786L0.577972 7.77613C0.119794 8.23398 0.11963 8.97544 0.577925 9.43346L0.743651 9.59918L0.578042 9.76493C0.120052 10.2223 0.119583 10.9643 0.577878 11.422C1.03568 11.8801 1.77689 11.8804 2.2349 11.4221L2.40082 11.2563L2.56649 11.422C3.02434 11.8802 3.76581 11.8804 4.22382 11.4221L4.25214 11.3937L4.58349 11.7251C4.94987 12.0915 5.54281 12.0917 5.9093 11.7252C6.27574 11.359 6.27593 10.7658 5.90937 10.3995L4.58359 9.07372L9.07372 4.58358L10.3994 5.90922C10.7651 6.27555 11.359 6.27609 11.7251 5.90943C12.0916 5.54313 12.0916 4.94998 11.7251 4.58344ZM10.0966 0.909277C10.3706 0.63506 10.8151 0.633583 11.0907 0.909441C11.3654 1.18373 11.3657 1.62871 11.0906 1.90351L10.9249 2.06931L9.93064 1.07505L10.0966 0.909277ZM8.1077 0.909277C8.38239 0.634403 8.82716 0.634239 9.10201 0.909324L11.0907 2.89796C11.3655 3.17265 11.3657 3.61742 11.0906 3.89227L11.0623 3.92061L8.07932 0.93766L8.1077 0.909277ZM1.9034 11.0906C1.6294 11.3649 1.18486 11.3663 0.909236 11.0905C0.63455 10.8162 0.634245 10.3712 0.9094 10.0964L1.07506 9.93061L2.06932 10.9249L1.9034 11.0906ZM3.89225 11.0906C3.61757 11.3655 3.1728 11.3657 2.89795 11.0906L0.909307 9.10196C0.634433 8.82727 0.634269 8.3825 0.909353 8.10765L0.937666 8.07932L3.92061 11.0623L3.89225 11.0906ZM5.57792 10.731C5.76111 10.914 5.76125 11.2104 5.57787 11.3936C5.39422 11.5773 5.09785 11.5766 4.9149 11.3936C4.71896 11.1977 0.82076 7.29951 0.606308 7.08505C0.424598 6.90334 0.421481 6.60677 0.606448 6.42194C0.788768 6.23932 1.08558 6.23831 1.26902 6.42208L5.57792 10.731ZM4.25209 8.7422L3.25776 7.74786L7.74789 3.25773L8.74222 4.25208L4.25209 8.7422ZM11.3935 5.57798C11.2112 5.76061 10.9144 5.76161 10.7309 5.57784L6.42204 1.26897C6.23888 1.086 6.23874 0.789512 6.42211 0.606302C6.60576 0.422647 6.90211 0.423373 7.08508 0.606302C7.29956 0.820778 11.2009 4.72207 11.3937 4.91489C11.5754 5.09658 11.5785 5.39318 11.3935 5.57798Z" fill="white"/>
<path d="M6.78177 5.21832C6.69023 5.12677 6.54182 5.12677 6.4503 5.21832L4.55497 7.11362C4.46345 7.20515 4.46345 7.35355 4.55497 7.4451C4.64649 7.53662 4.7949 7.53662 4.88642 7.4451L6.78175 5.54979C6.8733 5.45825 6.8733 5.30986 6.78177 5.21832Z" fill="white"/>
</svg>
