<svg width="33" height="33" viewBox="0 0 33 33" fill="none" xmlns="http://www.w3.org/2000/svg">
<path d="M3.72567 28.9349L22.3371 30.1795C22.6843 30.2027 22.9845 29.9401 23.0077 29.5931L24.7964 2.85502C24.8197 2.50791 24.557 2.20779 24.2099 2.18455L5.5984 0.939908C5.25123 0.916666 4.95106 1.17925 4.92781 1.5263L3.13912 28.2644C3.11594 28.6115 3.3785 28.9117 3.72567 28.9349Z" fill="#001E73"/>
<path d="M2.96521 32.8883L17.1672 31.7726L21.7962 26.3796L20.0407 4.03459C20.0134 3.6878 19.7102 3.42877 19.3633 3.45602L0.767668 4.91697C0.420813 4.94422 0.161734 5.24743 0.18898 5.59422L2.28786 32.3098C2.31511 32.6566 2.61836 32.9156 2.96521 32.8883Z" fill="#E6E6E6"/>
<path d="M19.3632 3.45652L16.8516 3.65381C17.1984 3.62657 17.5016 3.8856 17.5288 4.2324L19.2846 26.5773L19.4662 29.0951L21.7963 26.38L20.0405 4.03511C20.0132 3.68831 19.71 3.42928 19.3632 3.45652Z" fill="white"/>
<path d="M17.3686 14.881L4.52228 15.8902C4.26216 15.9107 4.06783 16.1381 4.08827 16.3982C4.1087 16.6583 4.33616 16.8525 4.59628 16.8321L17.4426 15.8229C17.7028 15.8024 17.8971 15.575 17.8766 15.3149C17.8562 15.0548 17.6288 14.8605 17.3686 14.881Z" fill="white"/>
<path d="M17.6264 18.1637L4.7801 19.173C4.51997 19.1934 4.32565 19.4208 4.34608 19.6809C4.36651 19.941 4.59397 20.1353 4.85409 20.1148L17.7004 19.1056C17.9606 19.0851 18.1549 18.8577 18.1344 18.5976C18.114 18.3375 17.8866 18.1433 17.6264 18.1637Z" fill="white"/>
<path d="M4.33896 13.5494L17.1853 12.5401C17.4455 12.5197 17.6397 12.2923 17.6193 12.0322C17.5989 11.7721 17.3715 11.5778 17.1113 11.5983L4.26496 12.6075C4.00483 12.628 3.81051 12.8554 3.83094 13.1155C3.85138 13.3755 4.07883 13.5698 4.33896 13.5494Z" fill="white"/>
<path d="M6.34434 10.088L14.6648 9.4344C14.9249 9.41397 15.1192 9.18655 15.0988 8.92647C15.0784 8.66639 14.8509 8.4721 14.5908 8.49253L6.27033 9.14611C6.01021 9.16654 5.81588 9.39396 5.83632 9.65404C5.85676 9.91412 6.08422 10.1084 6.34434 10.088Z" fill="white"/>
<path d="M13.7742 27.9074C12.9272 27.9762 10.6638 28.1583 10.3791 28.1806C9.94345 28.2149 9.50353 28.1217 9.34734 27.587C9.21193 27.115 8.53823 27.2328 8.43897 27.6584C8.19972 28.6836 7.61592 28.3371 7.26679 27.6839C6.91145 27.0192 6.77367 26.2548 6.58455 25.5326C6.44554 25.0019 5.64311 25.2167 5.66919 25.7305C5.70351 26.407 5.69265 27.0763 5.5727 27.7445C5.44898 28.4339 5.23502 29.1039 5.02272 29.77C4.83763 30.3507 5.76841 30.5211 5.95076 29.9491C6.13888 29.3588 6.32708 28.7655 6.45418 28.1586C6.9843 29.1956 8.08315 29.8195 8.94237 28.7116C9.48875 29.251 10.214 29.1417 10.9044 29.0866C11.8857 29.0082 12.867 28.929 13.8482 28.8493C14.4541 28.8001 14.3813 27.8581 13.7742 27.9074Z" fill="#001E73"/>
<path d="M17.1679 31.7731L16.8213 27.3618C16.7941 27.015 17.0531 26.7118 17.3999 26.6846L21.7928 26.3395L17.1679 31.7731Z" fill="#D3D3D3"/>
<path d="M29.0385 13.0643L26.9809 12.6325L27.6542 9.5022C27.7758 8.93662 28.3345 8.57482 28.9024 8.69395L28.9028 8.69404C29.4711 8.81327 29.8333 9.36908 29.7115 9.93515L29.0385 13.0643L29.0385 13.0643Z" fill="#001E73"/>
<path d="M24.6258 28.5814C24.1238 27.8114 23.9498 26.8729 24.1423 25.9741L25.1182 21.4183C25.1268 21.3787 25.166 21.3533 25.2059 21.3616L27.0575 21.7501C27.0974 21.7585 27.1228 21.7975 27.1142 21.8371L26.137 26.3995C25.9452 27.2944 25.4059 28.0765 24.6375 28.5739L24.6258 28.5814Z" fill="#001E73"/>
<path d="M25.0869 26.4359L25.0862 26.4358C24.1965 26.2491 23.6295 25.379 23.8201 24.4927L26.6481 11.3445C26.7378 10.9271 27.148 10.6606 27.5658 10.7483L29.2688 11.1057C29.6895 11.1939 29.9583 11.6076 29.8678 12.0279L27.0411 25.1706C26.8506 26.056 25.9759 26.6225 25.0869 26.4359Z" fill="#00C6EC"/>
<path d="M29.2693 11.1057L27.8041 10.7982C28.1654 10.9268 28.3848 11.3058 28.3019 11.6911L25.4751 24.8338C25.3451 25.4386 24.8956 25.8944 24.3405 26.0632C24.5459 26.2436 24.7993 26.3755 25.0867 26.4358L25.0873 26.4359C25.9764 26.6224 26.8511 26.056 27.0416 25.1706L29.8683 12.0279C29.9588 11.6076 29.6901 11.1939 29.2693 11.1057Z" fill="#00C6EC"/>
<path d="M30.4415 13.3222L26.0262 12.3957C25.5758 12.3012 25.1326 12.5881 25.0361 13.0364C24.9397 13.4847 25.2266 13.9247 25.677 14.0192L29.2769 14.7745L28.2506 19.5461C28.1541 19.9944 28.441 20.4344 28.8914 20.5289C29.3418 20.6234 29.785 20.3366 29.8814 19.8883L31.0823 14.305C31.1787 13.8568 30.8918 13.4167 30.4415 13.3222Z" fill="#001E73"/>
<path d="M30.4404 13.3227L28.0708 12.8253L27.712 14.4432L29.2758 14.7752L28.2495 19.5467C28.1531 19.995 28.4399 20.435 28.8902 20.5295C29.3405 20.624 29.7837 20.3371 29.8801 19.8888L31.081 14.3055C31.1775 13.8572 30.8906 13.4172 30.4404 13.3227Z" fill="#001E73"/>
</svg>
