<svg width="188" height="46" viewBox="0 0 188 46" fill="none" xmlns="http://www.w3.org/2000/svg">
<path d="M32 13C34.7614 13 37 10.7614 37 8C37 5.23858 34.7614 3 32 3C29.2386 3 27 5.23858 27 8C27 10.7614 29.2386 13 32 13Z" fill="white"/>
<path d="M20 9C20 15.6274 25.3726 21 32 21C38.4266 21 43.6732 15.9481 43.9853 9.59893C46.0237 11.9554 47.2015 13.9288 48.4693 17.1133C48.8152 17.9819 49.5242 18.6613 50.4178 18.9362L58.0094 21.2721C56.0096 28.4396 51.1266 34.4047 44.6892 37.8385C44.8927 36.9248 45 35.9749 45 35C45 27.8203 39.1797 22 32 22C24.8203 22 19 27.8203 19 35C19 35.9749 19.1073 36.9248 19.3108 37.8385C12.8598 34.3975 7.96986 28.4145 5.97802 21.2268C6.96358 21.0774 7.97276 21 9.00002 21C13.3056 21 17.2934 22.3605 20.557 24.6751C20.9161 24.9298 21.4072 24.9056 21.7261 24.6022C22.1029 24.2438 22.0962 23.6394 21.6964 23.307C17.7111 19.993 12.5883 18 7.00002 18C4.92767 18 2.91933 18.2741 1.00928 18.788C0.978708 18.7962 0.961627 18.8287 0.972059 18.8585C3.69719 29.6517 11.906 38.2626 22.4616 41.5543L22.5141 41.5728L22.5125 41.5702L22.5176 41.5717L22.4986 41.5465C21.546 39.9181 21 38.0228 21 36C21 29.9249 25.9249 25 32 25C38.0751 25 43 29.9249 43 36C43 38.0232 42.4538 39.9187 41.5008 41.5474C41.5006 41.5479 41.501 41.5484 41.5016 41.5483L41.4849 41.571C42.1675 41.3594 42.8403 41.1256 43.5026 40.8704L43.6227 40.8297L43.6264 40.8224C52.0013 37.555 58.6617 30.8615 61.885 22.4646L66.7745 23.9691C67.5254 24.2001 68.2306 23.5169 68.0026 22.765C67.1985 20.1126 65.8452 16.2336 64.3639 13.6133C64.158 13.249 63.7202 13.0933 63.3231 13.2256C62.8629 13.379 62.6051 13.8678 62.7384 14.3343L64.5 20.5L51 17C49.2796 13.2431 45.5941 7.95034 42.1512 5.34155C41.9993 5.22648 41.7928 5.37673 41.8398 5.56136C42.0449 6.36581 42.1538 7.20864 42.1538 8.07692C42.1538 13.6847 37.6078 18.2308 32 18.2308C26.3922 18.2308 21.8462 13.6847 21.8462 8.07692C21.8462 7.2061 21.9558 6.36088 22.162 5.55431C22.2944 5.03617 21.923 4.5 21.3882 4.5C21.0763 4.5 20.7935 4.68839 20.6891 4.98221C20.2429 6.23835 20 7.59081 20 9Z" fill="white"/>
<path d="M10 11C10 13.7614 7.76142 16 5 16C2.23858 16 0 13.7614 0 11C0 8.23858 2.23858 6 5 6C7.76142 6 10 8.23858 10 11Z" fill="white"/>
<path d="M61 11C61 13.7614 58.7614 16 56 16C53.2386 16 51 13.7614 51 11C51 8.23858 53.2386 6 56 6C58.7614 6 61 8.23858 61 11Z" fill="white"/>
<path d="M80.9365 8.02734C80.9365 9.07096 80.5947 9.87077 79.9111 10.4268C79.2275 10.9827 78.2546 11.2607 76.9922 11.2607H75.9531V15H74.3193V5.00586H77.1973C78.446 5.00586 79.3802 5.26107 80 5.77148C80.6243 6.2819 80.9365 7.03385 80.9365 8.02734ZM75.9531 9.88672H76.8213C77.6598 9.88672 78.2751 9.74089 78.667 9.44922C79.0589 9.15755 79.2549 8.70182 79.2549 8.08203C79.2549 7.50781 79.0794 7.07943 78.7285 6.79688C78.3776 6.51432 77.8307 6.37305 77.0879 6.37305H75.9531V9.88672ZM89.1328 15L88.1348 12.2246H84.3135L83.3359 15H81.6133L85.3525 4.96484H87.1299L90.8691 15H89.1328ZM87.7041 10.8164L86.7676 8.0957C86.6992 7.91341 86.6035 7.6263 86.4805 7.23438C86.362 6.84245 86.2799 6.55534 86.2344 6.37305C86.1113 6.93359 85.9313 7.54655 85.6943 8.21191L84.792 10.8164H87.7041ZM96.4404 6.26367C95.5016 6.26367 94.7633 6.59635 94.2256 7.26172C93.6878 7.92708 93.4189 8.84538 93.4189 10.0166C93.4189 11.2425 93.6764 12.1699 94.1914 12.7988C94.7109 13.4277 95.4606 13.7422 96.4404 13.7422C96.8643 13.7422 97.2744 13.7012 97.6709 13.6191C98.0674 13.5326 98.4798 13.4232 98.9082 13.291V14.6924C98.1243 14.9886 97.2357 15.1367 96.2422 15.1367C94.7793 15.1367 93.6559 14.6947 92.8721 13.8105C92.0882 12.9219 91.6963 11.6527 91.6963 10.0029C91.6963 8.96387 91.8854 8.05469 92.2637 7.27539C92.6465 6.49609 93.1979 5.89909 93.918 5.48438C94.638 5.06966 95.4834 4.8623 96.4541 4.8623C97.4749 4.8623 98.4183 5.0765 99.2842 5.50488L98.6963 6.86523C98.359 6.70573 98.0013 6.56673 97.623 6.44824C97.2493 6.3252 96.8551 6.26367 96.4404 6.26367ZM101.062 15V5.00586H102.695V15H101.062ZM106.961 15H105.341V5.00586H110.98V6.38672H106.961V9.51074H110.728V10.8984H106.961V15ZM112.792 15V5.00586H114.426V15H112.792ZM121.323 6.26367C120.384 6.26367 119.646 6.59635 119.108 7.26172C118.571 7.92708 118.302 8.84538 118.302 10.0166C118.302 11.2425 118.559 12.1699 119.074 12.7988C119.594 13.4277 120.343 13.7422 121.323 13.7422C121.747 13.7422 122.157 13.7012 122.554 13.6191C122.95 13.5326 123.363 13.4232 123.791 13.291V14.6924C123.007 14.9886 122.118 15.1367 121.125 15.1367C119.662 15.1367 118.539 14.6947 117.755 13.8105C116.971 12.9219 116.579 11.6527 116.579 10.0029C116.579 8.96387 116.768 8.05469 117.146 7.27539C117.529 6.49609 118.081 5.89909 118.801 5.48438C119.521 5.06966 120.366 4.8623 121.337 4.8623C122.358 4.8623 123.301 5.0765 124.167 5.50488L123.579 6.86523C123.242 6.70573 122.884 6.56673 122.506 6.44824C122.132 6.3252 121.738 6.26367 121.323 6.26367Z" fill="white"/>
<path d="M82.4473 23.9072C82.4473 25.557 81.9893 26.8193 81.0732 27.6943C80.1572 28.5648 78.8379 29 77.1152 29H74.3193V19.0059H77.4092C78.9997 19.0059 80.237 19.4342 81.1211 20.291C82.0052 21.1478 82.4473 22.3532 82.4473 23.9072ZM80.7246 23.9619C80.7246 21.5693 79.6058 20.373 77.3682 20.373H75.9531V27.626H77.1152C79.5215 27.626 80.7246 26.4046 80.7246 23.9619ZM90.8008 29L89.8027 26.2246H85.9814L85.0039 29H83.2812L87.0205 18.9648H88.7979L92.5371 29H90.8008ZM89.3721 24.8164L88.4355 22.0957C88.3672 21.9134 88.2715 21.6263 88.1484 21.2344C88.0299 20.8424 87.9479 20.5553 87.9023 20.373C87.7793 20.9336 87.5993 21.5465 87.3623 22.2119L86.46 24.8164H89.3721ZM97.3086 29H95.6748V20.4072H92.7354V19.0059H100.248V20.4072H97.3086V29ZM107.986 29L106.988 26.2246H103.167L102.189 29H100.467L104.206 18.9648H105.983L109.723 29H107.986ZM106.558 24.8164L105.621 22.0957C105.553 21.9134 105.457 21.6263 105.334 21.2344C105.215 20.8424 105.133 20.5553 105.088 20.373C104.965 20.9336 104.785 21.5465 104.548 22.2119L103.646 24.8164H106.558Z" fill="white"/>
<path d="M81.6543 42H80.9502V37.085H75.1123V42H74.415V32.0059H75.1123V36.4424H80.9502V32.0059H81.6543V42ZM91.8398 32.0059V38.4727C91.8398 39.6211 91.5072 40.5189 90.8418 41.166C90.1764 41.8132 89.249 42.1367 88.0596 42.1367C86.902 42.1367 85.9974 41.8132 85.3457 41.166C84.6986 40.5143 84.375 39.6074 84.375 38.4453V32.0059H85.0791V38.4727C85.0791 39.4342 85.3457 40.1839 85.8789 40.7217C86.4121 41.2549 87.1663 41.5215 88.1416 41.5215C89.0941 41.5215 89.8324 41.2594 90.3564 40.7354C90.8805 40.2067 91.1426 39.4753 91.1426 38.541V32.0059H91.8398ZM94.5674 32.0059H97.3086C98.5436 32.0059 99.4505 32.2155 100.029 32.6348C100.608 33.054 100.897 33.6875 100.897 34.5352C100.897 35.1139 100.72 35.597 100.364 35.9844C100.013 36.3672 99.4984 36.6133 98.8193 36.7227V36.7637C99.6169 36.8822 100.202 37.1351 100.576 37.5225C100.954 37.9053 101.144 38.4408 101.144 39.1289C101.144 40.0495 100.838 40.7581 100.228 41.2549C99.6169 41.7516 98.751 42 97.6299 42H94.5674V32.0059ZM95.2646 36.4561H97.4658C98.4046 36.4561 99.0859 36.3011 99.5098 35.9912C99.9382 35.6768 100.152 35.1868 100.152 34.5215C100.152 33.8561 99.9108 33.373 99.4277 33.0723C98.9492 32.7715 98.2337 32.6211 97.2812 32.6211H95.2646V36.4561ZM95.2646 37.0713V41.3848H97.6162C99.4665 41.3848 100.392 40.6328 100.392 39.1289C100.392 37.7572 99.4163 37.0713 97.4658 37.0713H95.2646Z" fill="white"/>
<path d="M146.937 14.0273C146.937 15.071 146.595 15.8708 145.911 16.4268C145.228 16.9827 144.255 17.2607 142.992 17.2607H141.953V21H140.319V11.0059H143.197C144.446 11.0059 145.38 11.2611 146 11.7715C146.624 12.2819 146.937 13.0339 146.937 14.0273ZM141.953 15.8867H142.821C143.66 15.8867 144.275 15.7409 144.667 15.4492C145.059 15.1576 145.255 14.7018 145.255 14.082C145.255 13.5078 145.079 13.0794 144.729 12.7969C144.378 12.5143 143.831 12.373 143.088 12.373H141.953V15.8867ZM157.806 15.9893C157.806 17.6162 157.398 18.8809 156.582 19.7832C155.771 20.6855 154.62 21.1367 153.13 21.1367C151.621 21.1367 150.462 20.6901 149.65 19.7969C148.844 18.8991 148.44 17.6253 148.44 15.9756C148.44 14.3258 148.846 13.0589 149.657 12.1748C150.473 11.2907 151.635 10.8486 153.144 10.8486C154.629 10.8486 155.778 11.2975 156.589 12.1953C157.4 13.0931 157.806 14.3577 157.806 15.9893ZM150.177 15.9893C150.177 17.2197 150.425 18.154 150.922 18.792C151.419 19.4255 152.155 19.7422 153.13 19.7422C154.101 19.7422 154.832 19.4277 155.324 18.7988C155.821 18.1699 156.069 17.2334 156.069 15.9893C156.069 14.7633 155.823 13.8337 155.331 13.2002C154.843 12.5667 154.114 12.25 153.144 12.25C152.164 12.25 151.423 12.5667 150.922 13.2002C150.425 13.8337 150.177 14.7633 150.177 15.9893ZM159.952 21V11.0059H161.586V19.5986H165.817V21H159.952ZM167.54 21V11.0059H169.174V21H167.54ZM176.071 12.2637C175.132 12.2637 174.394 12.5964 173.856 13.2617C173.319 13.9271 173.05 14.8454 173.05 16.0166C173.05 17.2425 173.307 18.1699 173.822 18.7988C174.342 19.4277 175.091 19.7422 176.071 19.7422C176.495 19.7422 176.905 19.7012 177.302 19.6191C177.698 19.5326 178.111 19.4232 178.539 19.291V20.6924C177.755 20.9886 176.867 21.1367 175.873 21.1367C174.41 21.1367 173.287 20.6947 172.503 19.8105C171.719 18.9219 171.327 17.6527 171.327 16.0029C171.327 14.9639 171.516 14.0547 171.895 13.2754C172.277 12.4961 172.829 11.8991 173.549 11.4844C174.269 11.0697 175.114 10.8623 176.085 10.8623C177.106 10.8623 178.049 11.0765 178.915 11.5049L178.327 12.8652C177.99 12.7057 177.632 12.5667 177.254 12.4482C176.88 12.3252 176.486 12.2637 176.071 12.2637ZM183.516 15.5654L185.881 11.0059H187.658L184.329 17.124V21H182.688V17.1787L179.373 11.0059H181.15L183.516 15.5654Z" fill="white"/>
<path d="M140.415 24.0059H143.156C144.391 24.0059 145.298 24.2155 145.877 24.6348C146.456 25.054 146.745 25.6875 146.745 26.5352C146.745 27.1139 146.567 27.597 146.212 27.9844C145.861 28.3672 145.346 28.6133 144.667 28.7227V28.7637C145.465 28.8822 146.05 29.1351 146.424 29.5225C146.802 29.9053 146.991 30.4408 146.991 31.1289C146.991 32.0495 146.686 32.7581 146.075 33.2549C145.465 33.7516 144.599 34 143.478 34H140.415V24.0059ZM141.112 28.4561H143.313C144.252 28.4561 144.934 28.3011 145.357 27.9912C145.786 27.6768 146 27.1868 146 26.5215C146 25.8561 145.758 25.373 145.275 25.0723C144.797 24.7715 144.081 24.6211 143.129 24.6211H141.112V28.4561ZM141.112 29.0713V33.3848H143.464C145.314 33.3848 146.239 32.6328 146.239 31.1289C146.239 29.7572 145.264 29.0713 143.313 29.0713H141.112ZM154.005 30.4727H149.944L148.55 34H147.777L151.797 23.9648H152.241L156.179 34H155.393L154.005 30.4727ZM150.197 29.8438H153.772L152.412 26.2412C152.298 25.9587 152.161 25.5667 152.002 25.0654C151.879 25.5029 151.744 25.8994 151.599 26.2549L150.197 29.8438ZM164.867 34H164.163L158.243 25.127H158.188C158.243 26.1842 158.271 26.9818 158.271 27.5195V34H157.601V24.0059H158.298L164.211 32.8652H164.252C164.211 32.0449 164.19 31.2656 164.19 30.5273V24.0059H164.867V34ZM174.424 34H173.569L169.734 28.7227L168.401 29.8984V34H167.704V24.0059H168.401V29.2012L169.509 28.0938L173.426 24.0059H174.314L170.22 28.2305L174.424 34Z" fill="white"/>
<rect x="132" y="11" width="1" height="23" fill="white"/>
</svg>
