<svg width="140" height="30" viewBox="0 0 140 30" fill="none" xmlns="http://www.w3.org/2000/svg">
<path d="M110.663 17.9928V11.6993H113.85C114.975 11.6993 115.755 12.3592 115.755 13.2749C115.755 13.9162 115.433 14.3842 114.875 14.6764C115.61 15.0065 116.03 15.5925 116.03 16.2895C116.03 17.2973 115.17 17.9924 113.969 17.9924H110.663V17.9928ZM112.009 14.2379H113.512C114.017 14.2379 114.373 13.9449 114.373 13.542C114.373 13.1468 114.015 12.855 113.512 12.855H112.009V14.2379ZM112.009 16.8399H113.723C114.263 16.8399 114.648 16.519 114.648 16.0701C114.648 15.6215 114.263 15.3006 113.723 15.3006H112.009V16.8399ZM121.857 12.9177H118.367V14.1728H121.526V15.3912H118.367V16.7745H121.857V17.9928H117.012V11.6993H121.857V12.9177ZM124.513 17.9928V12.9177H122.553V11.6993H127.83V12.9177H125.869V17.9928H124.513ZM133.354 17.9928L132.952 17.0036H130.148L129.745 17.9928H128.234L130.799 11.6993H132.311L134.875 17.9928H133.354ZM130.615 15.8584H132.484L131.549 13.5594L130.615 15.8584Z" fill="white"/>
<path opacity="0.5025" fill-rule="evenodd" clip-rule="evenodd" d="M113.786 7H131.192C135.49 7 138.978 10.4867 138.978 14.7866C138.978 19.0865 135.49 22.5733 131.192 22.5733H113.786C109.486 22.5733 106 19.0865 106 14.7866C106 10.4867 109.486 7 113.786 7Z" stroke="white" stroke-width="2" stroke-linejoin="round"/>
<circle cx="24.0809" cy="3.98253" r="3.98253" fill="white"/>
<circle cx="4.3214" cy="5.97374" r="3.98253" fill="white"/>
<circle cx="42.7682" cy="6.28014" r="3.98253" fill="white"/>
<path d="M16.8817 1.83804C16.8817 1.49965 16.6074 1.22534 16.269 1.22534C15.9548 1.22534 15.6958 1.46183 15.6604 1.76651C15.2622 2.78556 15.0436 3.89461 15.0436 5.05471C15.0436 10.0459 19.0897 14.092 24.0809 14.092V11.488C19.9357 11.488 16.5753 8.12768 16.5753 3.98249C16.5753 3.34835 16.654 2.73258 16.802 2.1444C16.8007 2.14395 16.8817 1.91473 16.8817 1.83804Z" fill="white"/>
<path d="M31.2801 1.83804C31.2801 1.49965 31.5544 1.22534 31.8928 1.22534C32.207 1.22534 32.4659 1.46183 32.5013 1.76651C32.8996 2.78556 33.1182 3.89461 33.1182 5.05471C33.1182 10.0459 29.072 14.092 24.0809 14.092V11.488C28.2261 11.488 31.5864 8.12768 31.5864 3.98249C31.5864 3.34835 31.5078 2.73258 31.3597 2.1444C31.3611 2.14395 31.2801 1.91473 31.2801 1.83804Z" fill="white"/>
<path d="M24.0808 14.5515C18.4975 14.5515 13.9713 19.0777 13.9713 24.661C13.9713 26.1553 14.2955 27.5739 14.8774 28.8503L16.44 29.4397C15.9371 28.36 15.6562 27.156 15.6562 25.8864C15.6562 21.2336 19.428 17.4618 24.0808 17.4618V14.5515Z" fill="white"/>
<path d="M2.25663 11.3468C3.98525 18.5866 8.81966 24.6208 15.2734 27.9629V29.0105C7.87954 26.0773 2.19337 19.7661 0.119263 11.9813L2.25663 11.3468Z" fill="white"/>
<path d="M24.0808 14.5515C29.6641 14.5515 34.1903 19.0777 34.1903 24.661C34.1903 26.1553 33.8661 27.5739 33.2842 28.8503L31.7216 29.4397C32.2245 28.36 32.5054 27.156 32.5054 25.8864C32.5054 21.2336 28.7336 17.4618 24.0808 17.4618V14.5515Z" fill="white"/>
<path d="M0.729043 13.9423C2.02417 13.7384 3.35187 13.6325 4.70431 13.6325C8.57421 13.6325 12.2416 14.4996 15.5227 16.0502C16.3062 16.4205 16.8456 15.4166 16.1158 14.9754C12.2935 12.6646 7.81175 11.3348 3.01939 11.3348C1.99768 11.3348 0.990094 11.3953 0 11.5128C0.251589 12.5043 0.414964 13.0313 0.729043 13.9423Z" fill="white"/>
<path d="M32.8118 29.0296C39.785 26.4534 45.1815 20.6441 47.1587 13.4027L44.2073 12.6368C42.7443 19.2225 38.483 24.7547 32.7352 27.9213L32.8118 29.0296Z" fill="white"/>
<circle cx="47.976" cy="7.65874" r="0.459523" fill="white"/>
<path d="M38.9388 10.6457L49.4312 13.4794C48.9575 11.2124 48.4779 9.93783 47.5931 7.88852C47.8995 7.58217 47.8995 7.50558 48.2058 7.27582C49.5307 7.87028 52.099 14.2287 52.4181 16.9258L37.2539 12.3306C36.3348 8.96074 33.6798 5.25903 32.3523 3.75281V1.4552C35.1933 4.92854 36.6809 6.92105 38.9388 10.6457Z" fill="white"/>
<path d="M60.1546 4.68105C60.2147 4.68963 60.2747 4.69821 60.3348 4.70679C60.3948 4.70679 60.4677 4.70679 60.5535 4.70679C61.0424 4.70679 61.4327 4.55239 61.7244 4.24359C62.0246 3.92621 62.1747 3.45872 62.1747 2.84112C62.1747 2.6181 62.149 2.40795 62.0975 2.21066C62.0546 2.00479 61.9731 1.82466 61.853 1.67026C61.7415 1.51586 61.5914 1.39148 61.4027 1.29713C61.214 1.20277 60.9824 1.15559 60.7079 1.15559C60.4849 1.15559 60.3004 1.17704 60.1546 1.21993V4.68105ZM59.1768 0.512262C59.374 0.460796 59.5885 0.422196 59.8201 0.396463C60.0603 0.362151 60.3219 0.344996 60.605 0.344996C61.0081 0.344996 61.3727 0.396463 61.6986 0.499396C62.0332 0.593751 62.3119 0.75244 62.535 0.975462C62.9553 1.39577 63.1654 1.99621 63.1654 2.77679C63.1654 3.17995 63.1182 3.52306 63.0239 3.80612C62.9381 4.08061 62.8094 4.32937 62.6379 4.55239C62.4063 4.87834 62.1018 5.12281 61.7244 5.28579C61.3555 5.44019 60.9781 5.51739 60.5921 5.51739C60.5063 5.51739 60.4291 5.51739 60.3605 5.51739C60.2919 5.51739 60.2232 5.5131 60.1546 5.50452V9.05571H59.1768V0.512262Z" fill="white"/>
<path d="M68.2917 5.65892L67.8413 3.45872C67.7727 3.14992 67.7084 2.82397 67.6483 2.48086C67.5969 2.13775 67.5454 1.80322 67.4939 1.47726H67.4553C67.4039 1.80322 67.3481 2.14204 67.2881 2.49372C67.228 2.84541 67.1637 3.16708 67.0951 3.45872L66.6447 5.65892H68.2917ZM66.5032 6.45665L65.9371 9.05571H64.9721L66.9535 0.383596H68.0472L69.9772 9.05571H68.9993L68.4332 6.45665H66.5032Z" fill="white"/>
<path d="M76.0061 8.90131C75.8689 8.96993 75.693 9.02569 75.4786 9.06858C75.2727 9.11147 75.0325 9.13291 74.7581 9.13291C74.3377 9.13291 73.9475 9.04713 73.5872 8.87558C73.2355 8.70402 72.931 8.4424 72.6737 8.09071C72.4163 7.73045 72.2148 7.28012 72.0689 6.73972C71.9231 6.19932 71.8502 5.56027 71.8502 4.82259C71.8502 3.96481 71.9446 3.24857 72.1333 2.67386C72.3306 2.09915 72.575 1.63595 72.8667 1.28426C73.1669 0.932573 73.4971 0.683817 73.8574 0.537995C74.2262 0.383596 74.5822 0.306396 74.9253 0.306396C75.1827 0.306396 75.4014 0.327841 75.5815 0.37073C75.7702 0.413618 75.9075 0.465085 75.9933 0.525129L75.7745 1.36146C75.6716 1.31857 75.5558 1.27997 75.4271 1.24566C75.307 1.20277 75.1355 1.18133 74.9125 1.18133C74.6809 1.18133 74.445 1.24137 74.2048 1.36146C73.9646 1.48155 73.7459 1.68313 73.5486 1.96619C73.3599 2.24068 73.2012 2.60524 73.0725 3.05986C72.9524 3.51448 72.8924 4.07203 72.8924 4.73252C72.8924 5.39301 72.9482 5.95056 73.0597 6.40518C73.1712 6.85123 73.3213 7.21149 73.51 7.48598C73.6987 7.76047 73.9174 7.95776 74.1662 8.07785C74.4149 8.19794 74.6723 8.25798 74.9382 8.25798C75.1269 8.25798 75.2985 8.24083 75.4529 8.20651C75.6073 8.16363 75.7359 8.12074 75.8389 8.07785L76.0061 8.90131Z" fill="white"/>
<path d="M79.1591 0.383596V9.05571H78.1683V0.383596H79.1591Z" fill="white"/>
<path d="M81.8896 0.383596H85.1963V1.24566H82.8803V4.28219H85.0419V5.11852H82.8803V9.05571H81.8896V0.383596Z" fill="white"/>
<path d="M88.4738 0.383596V9.05571H87.4831V0.383596H88.4738Z" fill="white"/>
<path d="M95 8.90131C94.8628 8.96993 94.6869 9.02569 94.4725 9.06858C94.2666 9.11147 94.0264 9.13291 93.7519 9.13291C93.3316 9.13291 92.9413 9.04713 92.5811 8.87558C92.2294 8.70402 91.9249 8.4424 91.6675 8.09071C91.4102 7.73045 91.2086 7.28012 91.0628 6.73972C90.917 6.19932 90.8441 5.56027 90.8441 4.82259C90.8441 3.96481 90.9384 3.24857 91.1271 2.67386C91.3244 2.09915 91.5689 1.63595 91.8605 1.28426C92.1608 0.932573 92.491 0.683817 92.8513 0.537995C93.2201 0.383596 93.5761 0.306396 93.9192 0.306396C94.1765 0.306396 94.3953 0.327841 94.5754 0.37073C94.7641 0.413618 94.9014 0.465085 94.9871 0.525129L94.7684 1.36146C94.6655 1.31857 94.5497 1.27997 94.421 1.24566C94.3009 1.20277 94.1294 1.18133 93.9063 1.18133C93.6747 1.18133 93.4388 1.24137 93.1987 1.36146C92.9585 1.48155 92.7398 1.68313 92.5425 1.96619C92.3538 2.24068 92.1951 2.60524 92.0664 3.05986C91.9463 3.51448 91.8863 4.07203 91.8863 4.73252C91.8863 5.39301 91.942 5.95056 92.0535 6.40518C92.1651 6.85123 92.3152 7.21149 92.5039 7.48598C92.6926 7.76047 92.9113 7.95776 93.1601 8.07785C93.4088 8.19794 93.6662 8.25798 93.9321 8.25798C94.1208 8.25798 94.2923 8.24083 94.4467 8.20651C94.6011 8.16363 94.7298 8.12074 94.8327 8.07785L95 8.90131Z" fill="white"/>
<path d="M60.1546 18.3675C60.2232 18.3846 60.2919 18.3932 60.3605 18.3932C60.4291 18.3932 60.4849 18.3932 60.5278 18.3932C60.8022 18.3932 61.0682 18.3375 61.3255 18.226C61.5828 18.1059 61.8101 17.9043 62.0074 17.6212C62.2133 17.3382 62.3763 16.9564 62.4964 16.4761C62.6164 15.9957 62.6765 15.3867 62.6765 14.649C62.6765 13.5511 62.5049 12.7147 62.1618 12.14C61.8273 11.5567 61.3126 11.2651 60.6178 11.2651C60.5406 11.2651 60.4591 11.2694 60.3734 11.278C60.2962 11.2865 60.2232 11.2994 60.1546 11.3166V18.3675ZM59.1768 10.6218C59.3655 10.5617 59.5713 10.5188 59.7944 10.4931C60.0174 10.4674 60.2533 10.4545 60.502 10.4545C60.9652 10.4545 61.3598 10.5103 61.6858 10.6218C62.0117 10.7333 62.2948 10.8963 62.535 11.1107C62.8695 11.4023 63.1483 11.8355 63.3713 12.4102C63.5943 12.9764 63.7058 13.714 63.7058 14.6233C63.7058 15.1208 63.6758 15.5626 63.6157 15.9486C63.5643 16.3346 63.4871 16.6777 63.3841 16.9779C63.2898 17.2695 63.1783 17.5226 63.0496 17.737C62.9295 17.9515 62.8009 18.1359 62.6636 18.2903C62.3806 18.6077 62.0374 18.8435 61.6343 18.9979C61.2311 19.1438 60.7765 19.2167 60.2704 19.2167C60.0731 19.2167 59.8758 19.2081 59.6786 19.1909C59.4898 19.1824 59.3226 19.1609 59.1768 19.1266V10.6218Z" fill="white"/>
<path d="M68.8822 15.7684L68.4319 13.5682C68.3633 13.2594 68.2989 12.9335 68.2389 12.5904C68.1874 12.2473 68.136 11.9127 68.0845 11.5868H68.0459C67.9944 11.9127 67.9387 12.2515 67.8786 12.6032C67.8186 12.9549 67.7543 13.2766 67.6856 13.5682L67.2353 15.7684H68.8822ZM67.0938 16.5662L66.5276 19.1652H65.5626L67.5441 10.4931H68.6378L70.5678 19.1652H69.5899L69.0238 16.5662H67.0938Z" fill="white"/>
<path d="M73.8175 11.3809H72.2349V10.4931H76.3908V11.3809H74.8082V19.1652H73.8175V11.3809Z" fill="white"/>
<path d="M81.3382 15.7684L80.8879 13.5682C80.8193 13.2594 80.755 12.9335 80.6949 12.5904C80.6434 12.2473 80.592 11.9127 80.5405 11.5868H80.5019C80.4504 11.9127 80.3947 12.2515 80.3346 12.6032C80.2746 12.9549 80.2103 13.2766 80.1416 13.5682L79.6913 15.7684H81.3382ZM79.5498 16.5662L78.9836 19.1652H78.0186L80.0001 10.4931H81.0938L83.0238 19.1652H82.0459L81.4798 16.5662H79.5498Z" fill="white"/>
<path d="M59.6889 24.9919V29.0449H59.1577V20.8323H59.6889V24.5508H62.5802V20.8323H63.1114V29.0449H62.5802V24.9919H59.6889Z" fill="white"/>
<path d="M68.1905 28.7324C68.6384 28.7324 68.9995 28.5335 69.2547 28.157C69.5197 27.7785 69.6298 27.1816 69.6298 26.4183V20.8323H70.161V26.2639C70.161 26.8163 70.1064 27.2743 70.0024 27.6424C69.8968 28.0159 69.754 28.308 69.5802 28.5272L69.5787 28.5291L69.5772 28.5311C69.4121 28.7488 69.2131 28.9023 68.979 28.9975L68.9778 28.9979L68.9766 28.9984C68.7423 29.0967 68.4771 29.1478 68.1777 29.1478C67.5881 29.1478 67.1311 28.9421 66.7837 28.5348C66.4507 28.1344 66.2587 27.4348 66.2587 26.3797V20.8323H66.7899V26.4183C66.7899 26.8149 66.8206 27.1589 66.8856 27.4467C66.9492 27.7285 67.0385 27.9699 67.1599 28.1622L67.1622 28.1657L67.1646 28.1692C67.2911 28.3541 67.4399 28.5017 67.6147 28.6L67.622 28.6041L67.6295 28.6076C67.8063 28.6908 67.9941 28.7324 68.1905 28.7324Z" fill="white"/>
<path fill-rule="evenodd" clip-rule="evenodd" d="M76.4819 23.6873C76.6838 23.3951 76.7877 23.0518 76.7877 22.6483C76.7877 22.0616 76.6151 21.6353 76.2947 21.3368L76.2933 21.3355L76.2919 21.3342C76.09 21.1397 75.8464 21.004 75.5565 20.9277L75.5538 20.927L75.5511 20.9262C75.249 20.8387 74.9106 20.7937 74.5342 20.7937C74.2692 20.7937 74.0228 20.8103 73.7947 20.8429L73.7907 20.8434L73.7867 20.8439C73.6228 20.8614 73.4682 20.8851 73.3229 20.9147V29.0399C73.4099 29.0516 73.507 29.0621 73.6144 29.0715C73.8115 29.0879 74.066 29.0964 74.3798 29.0964C74.8586 29.0964 75.2761 29.0386 75.6353 28.9271C75.9958 28.8093 76.2813 28.628 76.4998 28.387L76.501 28.3857C76.677 28.1943 76.8115 27.972 76.9045 27.7165L76.9051 27.7147L76.9058 27.7129C77.0058 27.4512 77.0579 27.1536 77.0579 26.8171C77.0579 26.2907 76.9269 25.8646 76.6778 25.5248C76.3369 25.06 75.4496 24.5949 75.4496 24.5949C75.4496 24.5949 76.1913 24.0956 76.4819 23.6873ZM73.8412 24.8118V28.6631L74.0079 28.7107C74.0828 28.7321 74.1645 28.7471 74.2515 28.7568L74.2527 28.7569L74.254 28.757C74.3492 28.7665 74.4557 28.771 74.5728 28.771C75.1321 28.771 75.6017 28.6114 75.9541 28.2697C76.3218 27.9217 76.4881 27.4239 76.4881 26.8171C76.4881 26.4943 76.4375 26.2044 76.3278 25.9542C76.2221 25.705 76.0757 25.4929 75.8864 25.3228C75.7002 25.1471 75.484 25.0192 75.2401 24.9402C75.0086 24.8542 74.7642 24.8118 74.5085 24.8118H73.8412ZM73.8412 21.2347V24.5122H74.5213C74.7532 24.5122 74.9741 24.4734 75.1821 24.3942L75.1865 24.3925L75.1908 24.3907C75.3976 24.3021 75.5807 24.1784 75.7388 24.0203C75.8964 23.8627 76.0197 23.6803 76.1083 23.4745C76.2084 23.2532 76.2565 23.0109 76.2565 22.7513C76.2565 22.5339 76.2281 22.327 76.1696 22.132C76.1093 21.931 76.0126 21.7517 75.8787 21.5972C75.7402 21.4374 75.5627 21.319 75.3537 21.2387C75.1377 21.147 74.8832 21.1062 74.5985 21.1062C74.3646 21.1062 74.1606 21.1282 73.9983 21.1823L73.8412 21.2347Z" fill="white"/>
</svg>
