<?xml version="1.0" encoding="UTF-8"?>
<svg enable-background="new 0 0 144.1 144.1" version="1.1" viewBox="0 0 144.1 144.1" xml:space="preserve" xmlns="http://www.w3.org/2000/svg">
<style type="text/css">
	.st0{fill:#4D91CE;}
</style>
		<path class="st0" d="m67 25.5c-1.4-1.2-2.7-2.5-4.1-3.6 0.2 2.1 0.6 4.2 1 6.2 0.9-0.9 1.9-1.9 3.1-2.6z"/>
		<path class="st0" d="m69.8 27.7c-0.4-0.3-0.7-0.5-1.1-0.8-0.3-0.2-0.5-0.4-0.8-0.7 0 0.1-0.1 0.2-0.2 0.2-1.3 0.9-2.4 2-3.5 3.1 0.1 0.5 0.3 1.1 0.4 1.6 1.7-1.2 3.4-2.4 5.2-3.4z"/>
		<path class="st0" d="m72.7 29.7c-0.6-0.4-1.2-0.8-1.9-1.2l-0.1 0.1c-2.1 1.1-4 2.6-5.9 4 0.3 1.1 0.5 2.2 0.8 3.3 2.4-2.1 4.8-4.2 7.1-6.2z"/>
		<path class="st0" d="m69.8 38.3c2.2-1.6 4.3-3.3 6.6-4.7 0.1-0.4 0.2-0.8 0.2-1.2-0.9-0.7-1.9-1.3-2.8-2-2.6 2.2-5.2 4.5-7.8 6.8 0.1 0.5 0.2 1.1 0.3 1.6 1.1-0.2 2.2-0.3 3.4-0.4 0 0 0-0.1 0.1-0.1z"/>
		<path class="st0" d="m71.8 38.4c1.2 0 2.4 0 3.6 0.1 0.3-1.1 0.5-2.1 0.7-3.2-1.5 1-2.9 2-4.3 3.1z"/>
		<path class="st0" d="m77.6 23.2c0-0.8 0.1-1.6 0.1-2.4-0.9-0.1-1.7-0.2-2.6-0.2 0.8 0.9 1.6 1.8 2.5 2.6z"/>
		<path class="st0" d="m73.2 20.6h-1.1c-0.8 0-1.6 0-2.4 0.1 2.7 2.1 4.7 5.1 7.5 7 0.1-0.9 0.1-1.8 0.2-2.6-1.4-1.6-2.7-3.1-4.2-4.5z"/>
		<path class="st0" d="m67.6 20.8c-1.2 0.1-2.4 0.3-3.6 0.5 2.1 1.7 4 3.6 6.2 5.2s4.5 3 6.7 4.6l0.3-2.1c-3.8-2.2-5.8-6.2-9.6-8.2z"/>
		<path class="st0" d="m47.1 29.8c-0.4-0.7-0.7-1.5-1-2.2-0.9 0.5-1.8 1.1-2.7 1.7 1.2 0.2 2.5 0.3 3.7 0.5z"/>
		<path class="st0" d="m42 30.2c-0.9 0.7-1.8 1.3-2.7 2.1 3.1 0.1 6.2 0.2 9.4 0.4-0.3-0.5-0.6-1-0.9-1.5-1.9-0.4-3.9-0.5-5.8-1z"/>
		<path class="st0" d="m37.9 33.5c-0.8 0.7-1.6 1.5-2.4 2.3 5.1 0.3 10.3-0.2 15.4 0.4-0.5-0.7-0.9-1.5-1.4-2.2-3.9-0.3-7.8-0.4-11.6-0.5z"/>
		<path class="st0" d="m38.8 37.2c-1.3 0-2.6 0-3.8-0.1 1.3 1.3 2.5 2.5 3.8 3.7v-3.6z"/>
		<path class="st0" d="m43 37.1h-3v4.7c1 1 2.1 1.9 3.2 2.8-0.1-2.4-0.2-4.9-0.2-7.5z"/>
		<path class="st0" d="m52 45c0.1-2.2 0.2-4.4 0.2-6.6-0.2-0.3-0.3-0.5-0.5-0.8h-0.1c-0.8-0.1-1.5-0.2-2.3-0.2 0 3.3 0.1 6.6 0 9.9 0.8-0.9 1.7-1.6 2.7-2.3z"/>
		<path class="st0" d="m53.2 44.1c0.6-0.4 1.1-0.8 1.7-1.1-0.5-0.9-1-1.8-1.6-2.7 0 1.2 0 2.5-0.1 3.8z"/>
		<path class="st0" d="m48 37.2c-1.3-0.1-2.5-0.1-3.8-0.1 0 2.9 0.2 5.8 0.2 8.7 1.1 1 2.2 1.9 3.2 2.9l0.2-0.2c0.3-3.7 0.2-7.5 0.2-11.3z"/>
		<path class="st0" d="m35.8 39.7-2.1-2.1c-0.8 0.9-1.6 1.8-2.3 2.7 1.5-0.1 3-0.3 4.4-0.6z"/>
		<path class="st0" d="m30.4 41.7c-0.4 0.5-0.7 1-1.1 1.5-0.3 0.5-0.6 1-0.9 1.5 3.5-0.5 7-1.3 10.4-2.1-0.6-0.6-1.3-1.2-1.9-1.8-2.1 0.3-4.3 0.8-6.5 0.9z"/>
		<path class="st0" d="m39.6 45.7c0.7-0.2 1.4-0.4 2.2-0.6-0.6-0.5-1.2-1.1-1.8-1.6-4.1 1-8.2 2-12.4 2.5-0.4 0.7-0.8 1.5-1.2 2.2 4.4-0.5 8.8-1.4 13.1-2.5 0 0.1 0 0 0.1 0z"/>
		<path class="st0" d="m31.3 48.9v-0.1c-1.9 0.3-3.7 0.6-5.6 0.8v0.1c2.4 0.5 4.5 1.5 6.6 2.7-0.3-1.2-0.6-2.3-1-3.5z"/>
		<path class="st0" d="m35.5 48c-1 0.2-1.9 0.4-2.9 0.6 0.5 1.5 0.9 3 1.2 4.6 1.2 0.7 2.3 1.3 3.5 2-0.7-2.4-1.3-4.8-1.8-7.2z"/>
		<path class="st0" d="m46.9 49.7c-0.5-0.5-1-0.9-1.6-1.4 0.2 0.9 0.4 1.7 0.6 2.6 0.3-0.4 0.6-0.8 1-1.2z"/>
		<path class="st0" d="m43.7 46.9c-0.3-0.3-0.6-0.5-0.9-0.8-0.8 0.2-1.6 0.4-2.4 0.7 0.4 3 1.3 6 2.1 8.9 0.7-1.2 1.4-2.4 2.2-3.5-0.1-1.7-0.7-3.5-1-5.3z"/>
		<path class="st0" d="m39.3 47.1c-0.9 0.2-1.7 0.4-2.6 0.6 0.6 2.7 1.4 5.4 2 8.1 1 0.4 1.9 0.8 3 1-0.9-3.2-1.9-6.4-2.4-9.7z"/>
		<path class="st0" d="m28.3 51.7c-1-0.4-2.1-0.7-3.2-0.9-0.4 1-0.8 2-1.2 2.9 1.4-0.6 2.9-1.3 4.4-2z"/>
		<path class="st0" d="m23.3 55.6c-0.3 0.9-0.6 1.8-0.8 2.7 3-1.5 6-3.2 8.6-5.2l-1.2-0.6c-2.2 1-4.5 1.9-6.6 3.1z"/>
		<path class="st0" d="m32.3 53.7c-3.1 2.5-6.7 4.4-10.3 6.2-0.3 1.2-0.5 2.4-0.7 3.5 1-0.9 2-1.8 3.1-2.6 1.9-1.3 3.9-2.6 5.9-3.7 1.5-0.8 3-1.4 4.5-2-0.9-0.4-1.7-0.9-2.5-1.4z"/>
		<path class="st0" d="m24.3 62.7s0-0.1-0.1-0.1c-1.1 0.9-2 1.9-3.2 2.7v0.1c1.8 0.1 3.5 0.4 5.2 0.7-0.5-1.3-1.1-2.5-1.9-3.4z"/>
		<path class="st0" d="m27.8 60c-0.8 0.5-1.6 1-2.3 1.6-0.1 0.1-0.2 0.2-0.3 0.2 1.2 1.3 1.9 2.9 2.5 4.5 1.1 0.2 2.2 0.5 3.3 0.7-1.1-2.3-2.3-4.6-3.2-7z"/>
		<path class="st0" d="m37.2 56.5c-0.4-0.2-0.7-0.4-1.1-0.6-0.8 0.3-1.7 0.7-2.5 1 1.9 3.7 3.1 7.7 4.9 11.5h0.1c0.2-1.9 0.6-3.8 1.1-5.7-1-2-2.3-4-2.5-6.2z"/>
		<path class="st0" d="m40.2 61.1c0.3-1 0.7-2 1.2-3-1-0.2-1.9-0.6-2.9-1 0.3 1.4 1 2.7 1.7 4z"/>
		<path class="st0" d="m32.5 57.5c-0.1 0-0.1-0.1 0 0-0.3 0-0.6 0.2-0.8 0.3-0.9 0.5-1.9 1-2.8 1.6l0.2 0.2c1 2.6 2.3 5.2 3.5 7.7l4.5 0.9c-1.7-3.5-2.9-7.2-4.6-10.7z"/>
		<path class="st0" d="m48.4 113.9c0.4 1.2 0.8 2.5 1.3 3.7 0.4-1.4 0.9-2.7 1.6-4-1 0-2 0.2-2.9 0.3z"/>
		<path class="st0" d="m52.1 99.2c-0.7-0.5-1.4-1.1-2.1-1.7-0.8 0.7-1.5 1.5-2.3 2.3 1.5-0.3 3-0.5 4.4-0.6z"/>
		<path class="st0" d="m53.8 100.3c-2.5 0.2-5 0.5-7.4 1h-0.1c-0.5 0.5-1.1 1.1-1.7 1.6 0.3 0.6 0.6 1.2 0.9 1.9 3.9-0.9 7.8-1.4 11.7-1.9 0.1-0.1 0.1-0.3 0.2-0.4-1.3-0.8-2.5-1.5-3.6-2.2z"/>
		<path class="st0" d="m45.9 105.9 0.9 2.7c2.6-0.2 5.1-0.6 7.7-1 0.7-1.2 1.4-2.3 2-3.5-3.6 0.5-7.1 1-10.6 1.8z"/>
		<path class="st0" d="m47.2 109.8c0.3 0.9 0.6 1.9 0.8 2.8 1.3-0.1 2.6-0.3 3.9-0.5 0.6-1.1 1.2-2.1 1.8-3.2-2.2 0.4-4.3 0.7-6.5 0.9z"/>
		<path class="st0" d="m45.5 116.1c0.9 0.6 1.9 1.1 2.9 1.6-1.8-4.6-2.6-9.6-4.8-14-0.4 0.3-0.8 0.7-1.2 1 1.2 3.8 2.3 7.6 3.1 11.4z"/>
		<path class="st0" d="m38.8 108.1-1.5 1.8 2.1 1.8c-0.3-1.1-0.5-2.3-0.6-3.6z"/>
		<path class="st0" d="m41.4 105.6c-0.5 0.4-1 0.9-1.5 1.4 0.3 2 0.6 4 1 6 0.8 0.6 1.6 1.2 2.4 1.7 0.3 0.2 0.5 0.3 0.8 0.5-0.8-3.2-1.8-6.4-2.7-9.6z"/>
		<path class="st0" d="m59.7 122c1.3 0.3 2.6 0.6 3.9 0.8-1.3-1.7-2.9-3.1-4.1-4.9-1.7-2.6-3.4-5.2-5.3-7.6l-1.2 2.1c2 3.5 4.5 6.5 6.7 9.6z"/>
		<path class="st0" d="m51.9 115.7c1 1.7 1.9 3.4 3.1 4.9 0.9 0.3 1.9 0.6 2.9 0.9-1.9-2.5-3.8-5-5.4-7.7-0.3 0.6-0.5 1.1-0.8 1.7 0.1 0 0.1 0.1 0.2 0.2z"/>
		<path class="st0" d="m51.2 116.9c-0.2 0.6-0.4 1.3-0.6 1.9 0.8 0.4 1.5 0.7 2.3 1-0.6-0.9-1.2-1.9-1.7-2.9z"/>
		<path class="st0" d="m61.2 103.9c-0.9-0.3-1.8-0.6-2.7-1-0.4 0.8-0.8 1.7-1.2 2.5l3.9-1.5z"/>
		<path class="st0" d="m63.2 104.5c-0.1 0.1-0.2 0.1-0.3 0.2-2.2 0.7-4.4 1.6-6.6 2.3-0.4 0.8-0.9 1.5-1.3 2.2 0.4 0.5 0.7 1 1.1 1.5 0 0 0-0.1 0.1-0.1 3.4-2 7.7-2.6 10.7-5.3-1.3-0.2-2.5-0.5-3.7-0.8z"/>
		<path class="st0" d="m56.8 111.6c0.6 0.8 1.2 1.7 1.7 2.5 0.1-0.1 0.2-0.2 0.3-0.2 2.9-0.6 5.5-1.9 8-3.3 0.2-1.4 0.3-2.7 0.4-4.1-2.9 2.5-7 3.2-10.4 5.1z"/>
		<path class="st0" d="m59.2 115.1c0.3 0.5 0.6 0.9 0.9 1.4 0.4 0.6 0.8 1.2 1.3 1.7 0.1-0.1 0.2-0.2 0.3-0.2 1.4-0.4 2.9-0.9 4.3-1.4 0.3-1.5 0.5-2.9 0.7-4.4-2.4 1.2-4.8 2.4-7.5 2.9z"/>
		<path class="st0" d="m62.3 119.1c0.9 1 1.8 2 2.6 3.2 0.3-1.4 0.6-2.9 0.9-4.3-1.2 0.4-2.4 0.8-3.5 1.1z"/>
		<path class="st0" d="m79.7 116c-0.4-1.3-0.7-2.5-1-3.8-1.7 1.5-3.4 3.1-5 4.6 1 0.8 1.9 1.5 2.9 2.3 1.1-1 2.1-2 3.1-3.1z"/>
		<path class="st0" d="m77.6 119.8c1.3 1 2.7 1.9 4.1 2.7-0.5-1.7-1.1-3.4-1.6-5.2-0.8 1-1.6 1.8-2.5 2.5z"/>
		<path class="st0" d="m71 105.7c-0.8 0-1.6-0.1-2.4-0.2 0 1.1-0.1 2.1-0.2 3.2 1-0.8 1.8-1.9 2.6-3z"/>
		<path class="st0" d="m72.5 105.7c-1.2 1.8-2.5 3.5-4.3 4.7-0.1 0.6-0.2 1.2-0.2 1.9 0.6 0.4 1.2 0.9 1.8 1.3 2.8-2.2 5.6-5.1 7.3-8.3-1.5 0.3-3.1 0.4-4.6 0.4z"/>
		<path class="st0" d="m70.8 114.5c0.7 0.5 1.3 1 1.9 1.6 1.9-1.8 3.8-3.5 5.7-5.2-0.3-1.3-0.5-2.7-0.6-4.1-1.8 2.9-4.4 5.6-7 7.7z"/>
		<path class="st0" d="m77.5 123.2 2.4-0.3c-4.3-2.7-8-6.2-12.1-9.2-0.1 0.9-0.3 1.8-0.5 2.8 3.9 1.4 7 4.2 10.2 6.7z"/>
		<path class="st0" d="m66.4 120.8c-0.2 0.8-0.3 1.6-0.5 2.4 1.5 0.2 3.1 0.3 4.7 0.3-1.4-0.9-2.7-1.8-4.2-2.7z"/>
		<path class="st0" d="m72.9 123.5c0.9 0 1.9-0.1 2.8-0.1-2.7-2.2-5.4-4.4-8.6-5.6-0.1 0.6-0.2 1.2-0.4 1.7 2.1 1.2 4.1 2.6 6.2 4z"/>
		<path class="st0" d="m96.5 116.8c-0.7-1.3-1.3-2.6-2-3.9-0.3 1-0.5 2.1-0.9 3.1 1 0.2 1.9 0.5 2.9 0.8z"/>
		<path class="st0" d="m93.7 111.4v0c-0.5-1.2-1.1-2.3-1.7-3.4-0.2 2.4-0.8 4.7-1.4 7 0.6 0.2 1.3 0.4 1.9 0.6 0.4-1.4 0.7-2.9 1.2-4.2z"/>
		<path class="st0" d="m90.8 106v0c-0.7-1.1-1.4-2.2-2.1-3.3-0.4 3.7-1.1 7.4-2.3 11 1 0.3 1.9 0.6 2.9 0.8 0.7-2.8 1.4-5.6 1.5-8.5z"/>
		<path class="st0" d="m83.9 103.6c-1 3-1.8 6-3 8.9 1.4 0.2 2.9 0.6 4.3 0.9 1.2-3.7 2-7.5 2.3-11.4-1.2 0.6-2.4 1.1-3.6 1.6z"/>
		<path class="st0" d="m82.4 104.1c-0.4 0.1-0.7 0.2-1.1 0.3l-2.4 0.6c0.1 2.2 0.5 4.4 1 6.6 1-2.4 1.7-5 2.5-7.5z"/>
		<path class="st0" d="m93.7 118.7c0.6-0.3 1.3-0.6 1.9-0.9-5.1-1.5-10-3.4-15.2-4.2l0.6 2.1c4.2 0.6 8.6 1.5 12.7 3z"/>
		<path class="st0" d="m82.2 119.8c0.3 0.8 0.5 1.7 0.8 2.5 1.5-0.3 3-0.7 4.5-1.2-1.8-0.5-3.5-1-5.3-1.3z"/>
		<path class="st0" d="m81.8 118.5c2.6 0.3 5.1 1.2 7.6 1.9 0.9-0.3 1.7-0.6 2.5-1-3.5-1.2-7.1-1.9-10.7-2.4 0.3 0.5 0.4 1 0.6 1.5z"/>
		<path class="st0" d="m106.9 34.2c-1-0.9-1.9-1.7-3-2.5 0.3 1.7 0.7 3.3 1 5 0.8-0.8 1.4-1.7 2-2.5z"/>
		<path class="st0" d="m102.5 30.6c-0.6-0.4-1.1-0.8-1.7-1.2-0.2-0.2-0.5-0.3-0.7-0.5 0.7 3.7 1.1 7.4 2 11 0.6-0.7 1.2-1.3 1.8-2-0.4-2.5-1-4.9-1.4-7.3z"/>
		<path class="st0" d="m98.6 28c-1.1-0.6-2.1-1.2-3.2-1.8 1.9 5.3 2.8 10.9 4 16.5 0.6-0.5 1.1-1.1 1.7-1.7-1.1-4.3-1.5-8.7-2.5-13z"/>
		<path class="st0" d="m95.5 30.9c-0.4-1.4-0.8-2.9-1.3-4.3-0.6 1.4-1.3 2.7-2 4l3.3 0.3z"/>
		<path class="st0" d="m96.5 35.1c-0.2-1-0.4-2-0.7-3-1.5-0.1-2.9-0.3-4.4-0.3l-2.1 3.9c2.5-0.3 4.8-0.5 7.2-0.6z"/>
		<path class="st0" d="m97.4 39.2c-0.2-1-0.4-1.9-0.6-2.9-2.7 0.1-5.4 0.3-8.1 0.7-0.6 1.2-1.1 2.4-1.6 3.6 3.4-0.5 6.9-0.9 10.3-1.4z"/>
		<path class="st0" d="m97.6 44.3c0.3-0.2 0.5-0.5 0.8-0.7-0.2-1.1-0.5-2.1-0.7-3.2-3.5 0.5-7 0.8-10.5 1.5l1.2 0.6c1 0.6 2 1.2 3 1.9 2 0 4.1 0 6.2-0.1z"/>
		<path class="st0" d="m93 45.7c0.5 0.4 1.1 0.9 1.6 1.3 0.5-0.4 1.1-0.9 1.6-1.4-1.1 0-2.1 0.1-3.2 0.1z"/>
		<path class="st0" d="m86.9 26.5c-0.9-1.5-1.6-3.2-2.8-4.5-1.3-0.3-2.5-0.6-3.8-0.8 3.2 4 6 8.2 8.8 12.4 0.4-0.7 0.8-1.4 1.1-2.1-1.2-1.6-2.4-3.2-3.3-5z"/>
		<path class="st0" d="m92.4 27.4c0.4-0.7 0.7-1.4 1-2.1-0.9-0.4-1.8-0.8-2.7-1.1 0.6 1 1.2 2.1 1.7 3.2z"/>
		<path class="st0" d="m89.2 23.5c-1-0.4-2-0.7-3-1 0.6 0.9 1.1 1.9 1.6 2.8 0.9 1.8 2 3.4 3.2 5 0.3-0.5 0.6-1.1 0.8-1.6-1-1.7-1.9-3.4-2.6-5.2z"/>
		<path class="st0" d="m81.5 24.8c-0.8-1.1-1.7-2.3-2.6-3.4 0 1.4-0.1 2.9-0.2 4.3 0.9-0.3 1.9-0.6 2.8-0.9z"/>
		<path class="st0" d="m86.3 31.8c-0.5-0.7-1-1.5-1.5-2.2-0.1 0-0.1 0.1-0.2 0.1-2.3 0.9-4.6 1.7-6.8 2.7-0.2 1.6-0.5 3.1-0.8 4.6 3.1-1.8 6.4-3.1 9.3-5.2z"/>
		<path class="st0" d="m87.6 36.6c0.3-0.6 0.6-1.1 0.9-1.7-0.5-0.7-0.9-1.4-1.4-2.1-3.2 2.3-7 3.8-10.4 5.9 1.5 0.2 3 0.5 4.5 0.9 2-1.2 4.2-2 6.4-3z"/>
		<path class="st0" d="m82.8 40.1c1 0.3 1.9 0.7 2.8 1.1 0.3-1 0.7-1.9 1.1-2.9-1.3 0.6-2.6 1.1-3.9 1.8z"/>
		<path class="st0" d="m84.1 28.5c-0.6-0.9-1.2-1.8-1.8-2.6-1.2 0.4-2.5 0.8-3.7 1.2-0.1 1.3-0.3 2.6-0.5 3.8l6-2.4z"/>
		<path class="st0" d="m115.1 47.4c0.5-0.3 1.1-0.6 1.6-0.9-0.5-0.8-0.9-1.6-1.4-2.3 0 1.1-0.1 2.1-0.2 3.2z"/>
		<path class="st0" d="m114.1 42.4c-0.6-0.8-1.1-1.6-1.7-2.3 0 3-0.2 6.1-0.4 9.1 0.6-0.4 1.2-0.7 1.9-1.1 0.1-1.9 0.2-3.8 0.2-5.7z"/>
		<path class="st0" d="m110.7 50c0.3-3.8 0.5-7.6 0.5-11.4-0.8-0.9-1.6-1.8-2.4-2.6 0.6 5.1 0.3 10.3-0.4 15.4 0.7-0.5 1.5-1 2.3-1.4z"/>
		<path class="st0" d="m103.6 40.2c-0.9 1-1.8 1.9-2.7 2.8 2.3 0.5 4.6 0.7 7 0.6v-2.8c-1.5-0.1-2.9-0.4-4.3-0.6z"/>
		<path class="st0" d="m107.8 39.6c-0.1-1.3-0.2-2.7-0.3-4-0.9 1.2-1.9 2.4-2.9 3.5 1 0.1 2.1 0.4 3.2 0.5z"/>
		<path class="st0" d="m99.8 44.1c-1.1 1.1-2.3 2.1-3.5 3.1 3.7-0.1 7.4-0.3 11.1 0h0.1c0.1-0.8 0.1-1.5 0.2-2.3-2.6 0.1-5.4-0.2-7.9-0.8z"/>
		<path class="st0" d="m99.4 52.4c0.7 0.9 1.3 1.9 1.9 2.9 1.6-0.8 3.1-1.6 4.6-2.5-2.2-0.1-4.4-0.3-6.5-0.4z"/>
		<path class="st0" d="m107 51.5c0.2-1 0.3-2.1 0.4-3.1-3.8-0.3-7.6-0.1-11.4 0 0.8 0.8 1.6 1.7 2.3 2.6 2.9 0.3 5.8 0.5 8.7 0.5z"/>
		<path class="st0" d="m119 51c-0.4-0.9-0.8-1.7-1.2-2.6-1 5.3-2.8 10.4-4.8 15.5 0.9-0.2 1.7-0.3 2.6-0.5 1.1-4.1 2.3-8.3 3.4-12.4z"/>
		<path class="st0" d="m121 56.1c-0.4-1.1-0.7-2.2-1.2-3.2-0.9 3.4-1.9 6.9-2.8 10.3 0.6-0.1 1.1-0.2 1.7-0.3 0.7-2.3 1.4-4.6 2.3-6.8z"/>
		<path class="st0" d="m120.1 62.7c0.8-0.1 1.7-0.3 2.5-0.4v-0.1c-0.3-1.4-0.6-2.8-1-4.1-0.5 1.5-1 3-1.5 4.6z"/>
		<path class="st0" d="m111.8 63.5c0.4-1 0.7-1.9 1.1-2.9-3.6-1.3-7-3.1-10.8-3.7 0.5 1.1 1 2.2 1.4 3.3 2.8 1.3 5.4 2.6 8.3 3.3z"/>
		<path class="st0" d="m104.2 61.9 0.3 0.9c0.2 0.7 0.4 1.5 0.5 2.2 1.8-0.1 3.5-0.3 5.2-0.6-2.1-0.7-4.1-1.6-6-2.5z"/>
		<path class="st0" d="m113.1 50c0.9 0.4 1.9 0.8 2.8 1.2 0.3-1 0.5-2.1 0.7-3.1-1.2 0.6-2.4 1.3-3.5 1.9z"/>
		<path class="st0" d="m111.7 50.8c-1.3 0.7-2.5 1.5-3.8 2.2 2.1 1 4.4 1.8 6.7 2.3 0.3-0.9 0.6-1.9 0.8-2.9-1.2-0.4-2.4-1-3.7-1.6z"/>
		<path class="st0" d="m106.7 53.8c-1.2 0.7-2.5 1.4-3.7 2 3.6 0.7 6.9 2.4 10.4 3.6 0.3-1 0.7-2 1-2.9-2.7-0.6-5.3-1.5-7.7-2.7z"/>
		<path class="st0" d="m117.4 64.4c0.8 0.8 1.8 1.5 2.7 2 0.6-0.9 1.2-1.8 1.7-2.8-1.4 0.2-2.9 0.5-4.4 0.8z"/>
		<path class="st0" d="m116 64.6c-1.6 0.3-3.1 0.6-4.7 0.8 1.9 1.6 3.8 3.2 5.9 4.6 0.8-0.9 1.5-1.7 2.2-2.6-1.2-0.7-2.5-1.6-3.4-2.8z"/>
		<path class="st0" d="m110 65.9c-0.1-0.1-0.1-0.2-0.2-0.2-1.3 0.2-2.7 0.4-4 0.5 2.8 2.3 5.8 4.5 8.7 6.5 0.1 0 0.1 0.1 0.1 0.1 0.6-0.6 1.2-1.2 1.7-1.8-2.1-1.6-4.3-3.3-6.3-5.1z"/>
		<path class="st0" d="m112.4 75.1 1.4-1.4c-2.9-2-5.7-4-8.4-6.3 0.2 1.1 0.2 2.2 0.3 3.3 2.2 1.5 4.4 3.1 6.7 4.4z"/>
		<path class="st0" d="m105.7 72.3c0 1 0 2.1-0.1 3.1 1.7 0 3.4 0 5.1 0.1-1.7-1-3.3-2.2-5-3.2z"/>
		<path class="st0" d="m115.7 75.9c2.5-2.9 5.4-5.5 7.6-8.6-0.1-1-0.2-1.9-0.3-2.9-2.3 4.3-5.8 7.9-9.3 11.3 0.6 0 1.3 0.1 2 0.2z"/>
		<path class="st0" d="m119.4 76.2 4.1-4.1c0-1 0-1.9-0.1-2.9-1.9 2.5-4.2 4.6-6.3 7 0.7 0.1 1.4 0.2 2.1 0.3 0-0.1 0-0.2 0.2-0.3z"/>
		<path class="st0" d="m120.6 76.7c0.9 0.1 1.8 0.3 2.7 0.5 0.1-1.1 0.2-2.2 0.2-3.4l-2.9 2.9z"/>
		<path class="st0" d="m103.9 82.8c-0.3 1-0.7 1.9-1.1 2.8 1.6 0.6 3 1.4 4.5 2.1-1.1-1.6-2.1-3.4-3.4-4.9z"/>
		<path class="st0" d="m104.5 81.5c1.8 2.1 3 4.6 4.8 6.7 0.6-0.3 1.2-0.6 1.8-1 0 0-0.1 0-0.1-0.1-2.1-3-2.8-7.2-5.7-9.5-0.3 1.3-0.6 2.5-0.8 3.9-0.1-0.1 0-0.1 0 0z"/>
		<path class="st0" d="m110.4 76.8v0c-1.5-0.2-2.9-0.2-4.4-0.2 3 2.5 3.8 6.7 6 9.9v0.1c0.8-0.5 1.5-1 2.3-1.5-1.5-2.7-2.3-5.7-3.9-8.3z"/>
		<path class="st0" d="m118.1 82.2c-0.6-1.7-1.6-3.3-2.4-5-1.3-0.2-2.6-0.4-3.9-0.4 1.3 2.4 2.1 5.1 3.5 7.5 0.4-0.3 0.8-0.6 1.2-0.8 0.6-0.5 1.1-0.8 1.6-1.3v0z"/>
		<path class="st0" d="m117.3 77.5c0.7 1.3 1.4 2.7 1.9 4.1 1.3-1 2.7-1.9 3.8-3.2-1.9-0.4-3.8-0.6-5.7-0.9z"/>
		<path class="st0" d="m112.6 89.9c3.6-1.8 6.6-4.4 9.7-6.8 0.2-0.9 0.4-1.9 0.6-2.8-1.5 1.4-3.2 2.5-4.9 3.7-2.6 1.8-5 3.8-7.8 5.2 0.5 0.2 1 0.5 1.5 0.7 0.2 0.1 0.5 0.2 0.7 0.3 0-0.2 0.1-0.2 0.2-0.3z"/>
		<path class="st0" d="m120.9 88.1c0.3-1 0.6-2 0.9-3-2.6 2-5.2 4.1-8.1 5.6 0.5 0.3 1.1 0.5 1.6 0.8 2-1 3.9-2 5.6-3.4z"/>
		<path class="st0" d="m116.7 92.2c0.7 0.4 1.4 0.7 2.2 1.1 0.5-1 0.9-2 1.3-3.1-1.1 0.8-2.3 1.4-3.5 2z"/>
		<path class="st0" d="m114.1 92.3c0.4 0.9 0.8 1.8 1.1 2.7 0.8-0.3 1.6-0.6 2.4-1-1.2-0.5-2.3-1.1-3.5-1.7z"/>
		<path class="st0" d="m112.3 91.7c-0.1-0.1-0.1-0.2-0.1-0.3-0.3-0.1-0.6-0.3-0.9-0.4-0.8-0.3-1.6-0.7-2.4-1.1 1 2.1 1.9 4.3 3.1 6.3 0.7-0.3 1.3-0.5 2-0.8-0.4-1.2-0.9-2.5-1.7-3.7z"/>
		<path class="st0" d="m107.1 89-3.6-1.8c1.2 3.5 2.8 6.9 4.5 10.3 0 0.1 0.1 0.2 0.1 0.3 0.9-0.3 1.9-0.7 2.8-1-1.5-2.6-2.6-5.2-3.8-7.8z"/>
		<path class="st0" d="m99 92.2c-0.6 0.8-1.2 1.6-1.9 2.3 1.5 1.5 3 2.9 4.5 4.3-0.8-2.2-1.6-4.5-2.6-6.6z"/>
		<path class="st0" d="m100 91.2c1.2 2.5 2.1 5.1 3.1 7.8v0.3l3.9-1.2c-1.7-3.6-3.5-7.2-4.8-11l-0.6 1.2c-0.5 0.9-1.1 1.8-1.7 2.7 0 0.1 0 0.2 0.1 0.2z"/>
		<path class="st0" d="m105.5 102c3.4-1.7 7.1-2.7 10.8-3.7 0.6-1 1.1-2 1.7-3-4.8 1.9-9.5 3.8-14.5 5.2 0.6 0.6 1.3 1.1 1.9 1.6l0.1-0.1z"/>
		<path class="st0" d="m107.8 104.2c1.8-1 3.8-1.4 5.8-1.8 0.6-0.8 1.2-1.6 1.7-2.5-3.1 0.9-6.1 1.7-9 3.1l1.5 1.2z"/>
		<path class="st0" d="m108.8 105.1c0.5 0.4 1 0.9 1.5 1.3 0.7-0.8 1.4-1.6 2.1-2.5-1.3 0.3-2.5 0.6-3.6 1.2z"/>
		<path class="st0" d="m105.1 106.6c1.2 0 2.5 0.1 3.7 0.1-1.3-1.1-2.5-2.1-3.8-3.2 0.1 1 0.1 2.1 0.1 3.1z"/>
		<path class="st0" d="m103.4 102.2c-0.7-0.6-1.3-1.2-2-1.8 0.1 2 0.2 4.1 0.2 6.1 0.7 0 1.4 0.1 2.2 0.1 0-1.5 0-3-0.4-4.4z"/>
		<path class="st0" d="m100.4 106.5c0-2.4-0.2-4.8-0.3-7.3-1.1-1-2.2-2.1-3.2-3.1 0 3.5 0.6 6.9 0.2 10.3 1.1 0 2.2 0 3.3 0.1z"/>
		<path class="st0" d="m91.5 99.6c-0.8 0.5-1.6 1.1-2.4 1.6 0.9 1.3 1.8 2.6 2.6 4-0.2-2-0.2-3.8-0.2-5.6z"/>
		<path class="st0" d="m95.7 96c-0.9 0.9-1.9 1.8-3 2.6 0 2.6 0 5.2 0.4 7.7v0.1h2.7c0.5-3.5-0.1-6.9-0.1-10.4z"/>
		<path class="st0" d="m93.2 107.7c0.4 0.7 0.8 1.5 1.2 2.2 3.9-0.9 7.9 0.1 11.9 0.6 0.9-0.8 1.7-1.6 2.6-2.5-1.4-0.1-12.2-0.4-15.7-0.3z"/>
		<path class="st0" d="m96.4 113.9c0.5 0.9 0.9 1.8 1.4 2.6 1.2-0.7 2.4-1.5 3.6-2.3-1.6-0.1-3.3-0.3-5-0.3z"/>
		<path class="st0" d="m102.9 113.2c0.7-0.5 1.4-1.1 2.1-1.7-3.3-0.5-6.7-1.2-10-0.5 0.3 0.5 0.6 1.1 0.8 1.6 2.4 0 4.7 0.3 7.1 0.6z"/>
		<path class="st0" d="m36.2 105.1c0.1 1.3 0.2 2.5 0.3 3.8 1-1.3 2.1-2.4 3.3-3.5l-3.6-0.3z"/>
		<path class="st0" d="m44.3 91.2-1.2-1.8c-1 0.5-2 1.1-3 1.7 1.4 0 2.8 0 4.2 0.1z"/>
		<path class="st0" d="m45.3 92.5c-2.4-0.2-4.8-0.2-7.2-0.3l-2.4 1.5c0.1 0.8 0.1 1.6 0.2 2.4 4-0.1 8.1-0.4 12.1-0.5-0.9-1-1.8-2-2.7-3.1z"/>
		<path class="st0" d="m35.9 97.3c0 0.9 0.1 1.7 0.1 2.6 3.3 0 6.6 0 9.9-0.1l3-3c-4.3 0.1-8.7 0.5-13 0.5z"/>
		<path class="st0" d="m36 101.1c0 0.9 0 1.8 0.1 2.7 1.7 0.1 3.3 0.2 5 0.4 0.4-0.3 0.8-0.7 1.2-1 0.8-0.7 1.5-1.4 2.3-2.1h-8.6z"/>
		<path class="st0" d="m33 105.6c0.7 0.8 1.4 1.6 2.1 2.3-0.4-4.5-0.3-9.1-0.7-13.6-0.6 0.4-1.3 0.7-1.9 1.1 0.1 3.4 0.9 6.8 0.5 10.2z"/>
		<path class="st0" d="m29 97.1-1.5 0.6c0.5 0.8 1 1.7 1.5 2.5v-3.1z"/>
		<path class="st0" d="m31.3 96.1c-0.4 0.2-0.7 0.3-1.1 0.5v5.5c0.5 0.7 1.1 1.4 1.6 2.1 0.1-2.7-0.4-5.4-0.5-8.1z"/>
		<path class="st0" d="m23.4 82.2c-0.6 0-1.2 0.1-1.8 0.1 0.2 1 0.5 2 0.7 3.1 0.4-1.1 0.7-2.1 1.1-3.2z"/>
		<path class="st0" d="m24.8 82.1c-0.8 1.7-1.3 3.6-1.9 5.4 0.2 0.7 0.5 1.5 0.7 2.2 0.9-2.5 1.8-5.1 2.5-7.7-0.4 0.1-0.8 0.1-1.3 0.1z"/>
		<path class="st0" d="m27.5 81.9c-0.8 3.3-2 6.5-3.1 9.7 0.5 1.2 1 2.4 1.6 3.5 1.7-4.4 2.5-9.2 4.2-13.6-0.9 0.2-1.8 0.3-2.7 0.4z"/>
		<path class="st0" d="m28.2 92.4c-0.4 1.4-0.9 2.8-1.5 4.2 0 0 0 0.1 0.1 0.1 2-0.7 3.9-1.7 5.8-2.7-1.5-0.4-3-1-4.4-1.6z"/>
		<path class="st0" d="m33.9 80.8c-0.8 0.1-1.5 0.3-2.3 0.4-0.1 0.3-0.3 0.7-0.4 1.1 3.4 1.3 6.8 2.4 10.2 3.6-0.4-0.9-0.8-1.8-1.1-2.8-2.2-0.5-4.4-1.1-6.4-2.3z"/>
		<path class="st0" d="m39.8 81.8c0-0.2-0.1-0.3-0.1-0.5-0.2-0.5-0.3-1.1-0.4-1.6-1.1 0.3-2.2 0.5-3.3 0.7 1.2 0.6 2.5 1 3.8 1.4z"/>
		<path class="st0" d="m30.8 83.5c-0.3 0.9-0.6 1.9-0.9 2.9 3 1.4 6.2 2.4 9.3 3.7l3.3-1.8-0.3-0.6c-3.8-1.5-7.6-2.7-11.4-4.2z"/>
		<path class="st0" d="m29.6 87.6c-0.3 1.2-0.6 2.4-1 3.6 1.8 0.9 3.7 1.5 5.6 1.9 1.2-0.7 2.5-1.5 3.7-2.2-2.8-1.1-5.6-2.1-8.3-3.3z"/>
		<path class="st0" d="m35.4 69.2c0.9 1 1.9 1.8 3 2.6 0-0.7 0-1.4 0.1-2.1-1.1-0.1-2.1-0.3-3.1-0.5z"/>
		<path class="st0" d="m33.5 68.8c-0.5-0.1-1-0.2-1.4-0.3-0.2 0.5-0.5 1-0.8 1.5 2.5 2 5 3.8 7.3 5.9-0.1-0.8-0.2-1.7-0.2-2.5-1.8-1.4-3.7-2.7-4.9-4.6z"/>
		<path class="st0" d="m30.6 71.1-1.5 2.1c0.1 0 0.1 0.1 0.2 0.1 2.3 2.3 5.3 3.8 8.1 5.6 0.6-0.1 1.1-0.2 1.7-0.4 0-0.2-0.1-0.4-0.1-0.5-2.7-2.6-5.6-4.7-8.4-6.9z"/>
		<path class="st0" d="m26.1 76.7c1.7 1.3 3.6 2.3 5.5 3.3 1.3-0.2 2.6-0.5 3.9-0.8-2.5-1.5-5.1-2.9-7.2-5-0.7 0.8-1.4 1.7-2.2 2.5z"/>
		<path class="st0" d="m25.3 77.6c-1.1 1.1-2.1 2.3-3.2 3.4 2.5-0.1 5-0.3 7.5-0.7-1.5-0.8-3-1.6-4.3-2.7z"/>
		<path class="st0" d="m23.2 66.8c-0.8-0.1-1.6-0.2-2.4-0.2-0.1 1.2-0.2 2.5-0.2 3.7 0.9-1.1 1.8-2.3 2.6-3.5z"/>
		<path class="st0" d="m24.6 67c-1.3 1.8-2.6 3.6-4 5.3 0 0.9 0 1.9 0.1 2.8 2.2-2.5 4.4-4.9 6-7.8-0.7-0.1-1.4-0.2-2.1-0.3z"/>
		<path class="st0" d="m27.9 67.6c-1.9 3.5-4.6 6.3-7.1 9.3 0.1 1.1 0.2 2.1 0.4 3.2 3.4-3.7 7.3-7.3 9.6-11.9-1-0.2-1.9-0.4-2.9-0.6z"/>
		<path class="st0" d="m61.8 23.7c-0.1-0.7-0.2-1.3-0.2-2l-3.6 0.9c1.2 0.4 2.5 0.8 3.8 1.1z"/>
		<path class="st0" d="m56.2 23.1c-1.1 0.4-2.3 0.8-3.4 1.2 1.1 0.3 2.2 0.7 3.3 1.1 2 0.7 4.1 1 6.2 1.4-0.1-0.6-0.2-1.2-0.3-1.7-2-0.5-4-1.1-5.8-2z"/>
		<path class="st0" d="m62.4 28c-2-0.4-4-0.6-6-1.2-1.9-0.6-3.8-1.5-5.8-1.6-0.8 0.4-1.7 0.8-2.5 1.2 4.7 2.3 9.9 3.6 15 4.1-0.2-0.8-0.4-1.7-0.6-2.5 0.1 0 0 0.1-0.1 0z"/>
		<path class="st0" d="m51.7 29.3c-1.4-0.5-2.8-1.1-4.2-1.8 0.8 1.9 1.7 3.6 2.7 5.3 0.5-1.2 1-2.3 1.5-3.5z"/>
		<path class="st0" d="m55.6 30.5c-0.9-0.2-1.9-0.5-2.8-0.8-0.6 1.5-1.3 3-1.9 4.5 0.6 1 1.3 2 1.9 3 1.1-2.2 1.8-4.6 2.8-6.7z"/>
		<path class="st0" d="m56.1 42.4c1.4-3.7 2.6-7.4 4.1-11l-3.3-0.6c-1.3 2.5-2 5.2-3.1 7.7 0.8 1.3 1.5 2.5 2.3 3.9z"/>
		<path class="st0" d="m63.8 33.4c0-0.1 0.1-0.1 0 0-0.1-0.6-0.2-1-0.3-1.5-0.7-0.1-1.4-0.2-2.1-0.3v0.1c-1.4 3.2-2.5 6.6-3.7 9.8 1.1-0.5 2.1-0.9 3.3-1.3 0.8-2.3 1.6-4.7 2.8-6.8z"/>
		<path class="st0" d="m64.3 35.2c-0.7 1.5-1.3 3-1.8 4.6 0.1 0 0.2-0.1 0.3-0.1 0.8-0.2 1.5-0.4 2.3-0.6-0.2-1.3-0.5-2.6-0.8-3.9z"/>
		<path class="st0" d="m85.3 60.3c2.5-3.1 4.8-6.4 7.8-9-0.7-0.7-1.4-1.3-2.1-2-2.9 3.9-6.1 7.6-9.1 11.5-2.7 3.5-6 6.5-8.6 10.2 0.9 0 1.7-0.1 2.6-0.2 3.1-3.6 6.4-6.9 9.4-10.5z"/>
		<path class="st0" d="m80.5 69.9c2.6-3.2 5.9-5.7 8.6-8.7 2.2-2.4 4-5 6.5-7-0.5-0.7-1.1-1.4-1.7-2.1-3 2.7-5.3 5.9-7.8 9-2.6 3.2-5.5 6.2-8.3 9.3 0.9-0.1 1.8-0.3 2.7-0.5v0z"/>
		<path class="st0" d="m100 62.4c-0.4-1.1-0.8-2.1-1.3-3.1-1.9 1.4-3.4 3.4-5 5.2-1.6 1.6-3.3 3.1-5 4.6 1.3 0 2.5-0.1 3.8-0.1 2.8-2 5-4.4 7.5-6.6z"/>
		<path class="st0" d="m100.4 63.7c-1.9 1.7-3.7 3.5-5.7 5.1 2.2-0.2 4.4-0.4 6.6-1-0.2-1.3-0.5-2.6-0.8-3.9 0-0.1 0-0.2-0.1-0.2z"/>
		<path class="st0" d="m93.4 63c1.5-1.7 3-3.6 4.8-4.9-0.5-1-1.1-2-1.8-2.9-2.7 2.2-4.6 5.1-7 7.6-2.3 2.4-4.8 4.5-7 6.9 1.4-0.2 2.9-0.4 4.4-0.5 2.1-2.1 4.5-3.9 6.6-6.2z"/>
		<path class="st0" d="m101.6 72.4c0-1.1 0-2.2-0.1-3.4-4.1 1.1-8.4 1.2-12.6 1.3-5.2 0.1-10.2 1.5-15.4 1.8 0.7 0.5 1.4 1.1 2.2 1.6 8.7 0.1 17.3-0.3 25.9-1.3z"/>
		<path class="st0" d="m101.4 75.8c0.1-0.7 0.2-1.4 0.2-2.1-8.1 0.9-16.2 1.3-24.3 1.3 0.8 0.6 1.6 1.2 2.4 1.9 7.2-0.5 14.5-0.5 21.7-1.1z"/>
		<path class="st0" d="m85.7 81.3c4.9-0.7 9.9-0.5 14.8-1.2 0.3-1 0.5-2 0.7-3.1-6.7 0.6-13.4 0.6-20 1 1.5 1.2 3 2.3 4.5 3.3z"/>
		<path class="st0" d="m99.2 83.9c0.3-0.8 0.7-1.6 0.9-2.4-4.2 0.5-8.5 0.5-12.7 0.9 1.1 0.7 2.3 1.5 3.4 2.3 2.7-0.9 5.5-0.8 8.4-0.8z"/>
		<path class="st0" d="m92.1 85.6c1.5 1 2.9 2.1 4.3 3.3 0.5-0.8 1.1-1.6 1.5-2.5 0.2-0.4 0.5-0.8 0.7-1.3-2.2 0-4.4 0-6.5 0.5z"/>
		<path class="st0" d="m71.4 73.5c-0.7 0.5-1.3 1.1-1.8 1.8 0.7 4.1 0.4 8.1 0.5 12.2 0.1 4.7 1 9.4 1.3 14.2 1.2 0 2.5 0 3.7-0.1-2-9.4-3.5-18.7-3.7-28.1z"/>
		<path class="st0" d="m63.4 100.3c0.8 0.2 1.6 0.5 2.4 0.6-0.4-6.6-0.1-13.3-0.6-20-0.6 0.9-1.2 1.8-1.9 2.7 0.9 5.6 0.7 11.2 0.1 16.7z"/>
		<path class="st0" d="m58 91.1c-1.2 1.6-2.3 3.2-3.6 4.7 1.1 0.8 2.2 1.5 3.4 2.2 0.2-2.3 0.2-4.6 0.2-6.9z"/>
		<path class="st0" d="m62.3 85.2-3 4.2c0 3.1 0 6.2-0.2 9.2 1 0.5 2 0.9 3.1 1.3 0.5-4.9 0.7-9.8 0.1-14.7z"/>
		<path class="st0" d="m67.1 101.2c1 0.2 2 0.3 3 0.4-0.3-4.4-1-8.7-1.2-13.1-0.2-4 0.2-8.1-0.3-12.1-0.8 0.9-1.5 1.9-2.2 2.9 0.6 7.3 0.3 14.6 0.7 21.9z"/>
		<path class="st0" d="m42.4 71.6c0 1.1 0 2.1 0.1 3.2 4.6-0.7 9.3-1 13.9-1.7s9.1-1.5 13.8-1.7c-0.7-0.5-1.5-1.1-2.2-1.6-8.6 0.1-17.1 0.8-25.6 1.8z"/>
		<path class="st0" d="m53.7 59.1c-2.7-0.2-5.5-0.1-8.2-0.1-0.5 0.9-0.9 1.9-1.2 2.9 4.2-0.2 8.3-0.3 12.5-0.3-1.1-0.8-2.1-1.7-3.1-2.5z"/>
		<path class="st0" d="m52.1 57.7c-1.3-1.1-2.6-2.2-3.9-3.2-0.8 1-1.4 2.1-2 3.2h5.9z"/>
		<path class="st0" d="m58.4 62.8c-4.9 0-9.7 0.1-14.6 0.3-0.3 1-0.6 2-0.8 3 6.3-0.7 12.6-0.8 18.9-0.8-1-0.7-2-1.5-3-2.2-0.2 0-0.3-0.1-0.5-0.3z"/>
		<path class="st0" d="m42.8 67.4c-0.2 1-0.3 1.9-0.3 2.9 7.9-1 15.8-1.6 23.8-1.8-0.9-0.6-1.8-1.3-2.6-1.9-7 0-14 0.1-20.9 0.8z"/>
		<path class="st0" d="m60.1 59.8c-1.8-1.6-3.7-3.1-5.5-4.8-1.3-1.2-2.3-2.7-3.8-3.7-0.7 0.7-1.3 1.4-2 2.2 3.6 2.8 6.9 5.9 10.6 8.5 3.8 2.8 7.7 5.5 11.5 8.3-0.2-1.1-0.5-2.1-0.7-3.2-3.5-2.2-6.9-4.6-10.1-7.3z"/>
		<path class="st0" d="m67.2 46.4c-0.1-1.2-0.1-2.3-0.2-3.5-0.9 0.1-1.7 0.3-2.6 0.6 1.1 0.8 1.9 1.9 2.8 2.9z"/>
		<path class="st0" d="m67.3 48.4c-1.4-1.5-2.6-3.3-4.3-4.5-0.9 0.3-1.8 0.6-2.6 1 1.2 1.3 2.2 2.7 3.2 4.1 1.2 1.5 2.7 2.8 4.2 3.9-0.2-1.5-0.3-3-0.5-4.5z"/>
		<path class="st0" d="m63.3 50.5c-1.4-1.7-2.6-3.5-4.1-5.1-1.1 0.6-2.3 1.2-3.3 1.9 4.3 3.8 8.2 8.1 12.8 11.5l-0.6-4.2c-1.8-1.2-3.5-2.5-4.8-4.1z"/>
		<path class="st0" d="m54.8 48c-1.1 0.8-2.1 1.6-3 2.5 2.7 1.9 5 4.9 7.5 7 3.4 2.9 6.9 5.5 10.6 8-0.3-1.6-0.6-3.3-0.9-4.9-5.2-3.8-9.4-8.5-14.2-12.6z"/>
		<path class="st0" d="m76.6 42.8c-1.2-0.2-2.4-0.3-3.5-0.3 0.3 3.6-0.1 7.2 0 10.8 0.1 4.5 1.1 9 2 13.4 0.8-0.9 1.6-1.8 2.5-2.7-1.1-7.1-1-14.2-1-21.2z"/>
		<path class="st0" d="m86.6 46.3c0 2.1 0 4.3 0.1 6.4 1.1-1.4 2.2-2.8 3.3-4.2-1.1-0.8-2.2-1.6-3.4-2.2z"/>
		<path class="st0" d="m85.4 45.6c-1-0.5-2-0.9-3-1.3 0 4.4 0 8.8 0.5 13.1 0.9-1.1 1.7-2.1 2.6-3.2-0.1-2.8-0.1-5.7-0.1-8.6z"/>
		<path class="st0" d="m81.1 43.9c-1.1-0.3-2.1-0.6-3.2-0.9 0 6.5-0.1 13.1 0.8 19.6 0.7-0.8 1.4-1.6 2.1-2.5 0.3-0.4 0.7-0.9 1-1.3-0.7-4.9-0.7-9.9-0.7-14.9z"/>
		<path class="st0" d="m74.1 67.5c-0.9-3.9-1.7-8-2.1-12-0.5-4.4 0.3-8.7-0.2-13.1-1.2 0-2.4 0.1-3.6 0.2 0.2 9.3 1.9 18.5 3.9 27.6 0.6-0.9 1.3-1.7 2-2.5v-0.2z"/>
		<path class="st0" d="m60.1 73.8c-2.4 2.5-4.6 5.1-6.6 7.9-1.8 2.5-3.9 4.8-5.7 7.3 0.8 1.1 1.7 2.2 2.6 3.2 2.4-3.2 4.4-6.7 6.9-9.8 2.6-3.2 5.6-6.1 8.1-9.4-1.8 0.3-3.6 0.6-5.3 0.8z"/>
		<path class="st0" d="m55.6 74.5c-0.8 0.1-1.5 0.2-2.3 0.3-3.3 2.7-5.6 6.2-8.2 9.5 0.6 1.2 1.2 2.4 1.9 3.6 1.9-2.6 4.1-5.1 6-7.7 1.5-2.1 3.2-4.1 5-6l-2.4 0.3z"/>
		<path class="st0" d="m47.5 75.5c-1.4 1.3-2.8 2.6-4.1 4 0.1 0.2 0.1 0.5 0.2 0.7 0.3 1 0.6 1.9 1 2.8 2.1-2.7 4.1-5.6 6.6-8-1.3 0.2-2.5 0.3-3.7 0.5z"/>
		<path class="st0" d="m45.4 75.7c-0.9 0.1-1.8 0.2-2.7 0.3 0.1 0.7 0.2 1.3 0.3 2 0.8-0.7 1.6-1.5 2.4-2.3z"/>
		<path class="st0" d="m67.1 72.9c-2.5 3.4-5.5 6.4-8.2 9.6-2.8 3.3-5 7.1-7.6 10.6 0.7 0.7 1.4 1.3 2.2 1.9 3.6-4.4 6.9-9.1 10.1-13.8 2.1-3.1 4.1-6.2 6.9-8.6-1.2 0.1-2.3 0.2-3.4 0.3z"/>
		<path class="st0" d="m83.5 85.4c3.3 2.4 6.8 4.5 10.2 6.8 0.7-0.8 1.4-1.5 2-2.4-3.6-3-7.6-5.6-11.5-8.1-4-2.6-7.6-5.8-11.5-8.7 0 0.9 0.1 1.8 0.1 2.7 3.6 3.2 6.8 6.8 10.7 9.7z"/>
		<path class="st0" d="m90.3 95.3c0.9-0.7 1.7-1.4 2.5-2.2-3.6-2.4-7.3-4.7-10.8-7.3-3.3-2.5-6.1-5.6-9.2-8.4 0.1 1.2 0.2 2.3 0.3 3.5 5.8 4.8 11 10.2 17.2 14.4z"/>
		<path class="st0" d="m81.5 100.1c1.4-0.5 2.8-1.1 4.1-1.8-3.8-3.4-7.5-7-11.6-10 0.2 1.5 0.5 3 0.7 4.5 2.4 2.3 4.7 4.7 6.8 7.3z"/>
		<path class="st0" d="m75.1 95c0.4 2.1 0.8 4.3 1.2 6.4 1.3-0.2 2.6-0.5 3.9-0.8-1.6-2-3.3-3.9-5.1-5.6z"/>
		<path class="st0" d="m86.8 97.7c0.8-0.5 1.6-1 2.4-1.6-5.7-4-10.6-8.9-15.9-13.4 0.1 1.3 0.3 2.6 0.5 3.9 4.7 3.3 8.8 7.3 13 11.1z"/>
		<path class="st0" d="m143.9 66.8c0-0.6-0.1-1.2-0.1-1.8l-16.2 2c0 0.4 0.1 0.8 0.1 1.2 5.4 0 10.8-0.5 16.2-1.4z"/>
		<path class="st0" d="m127.7 69.3c0 0.5 0 0.9 0.1 1.4 3.3 0 6.6-0.1 9.9 0 2.1 0 4.3 0.2 6.4 0.1 0-1-0.1-1.9-0.1-2.8-5.4 0.8-10.9 1.2-16.3 1.3z"/>
		<path class="st0" d="m138.7 71.7h-10.9v1.4l16.3 0.9v-2.2c-1.8 0.1-3.6-0.1-5.4-0.1z"/>
		<path class="st0" d="m90 9.1c0.5-2.1 1.1-4.3 1.7-6.4-0.6-0.2-1.2-0.3-1.8-0.5l-3.7 15.9c0.3 0.1 0.6 0.2 0.9 0.2 0.8-3 2.1-6 2.9-9.2z"/>
		<path class="st0" d="m92.8 3.1c-0.6 2.1-1.1 4.2-1.7 6.4-0.8 3.2-2.1 6.2-2.9 9.3 0.5 0.2 1.1 0.3 1.6 0.5 1.1-2.9 1.9-5.8 2.8-8.8 0.7-2.3 1.6-4.5 2.2-6.8-0.7-0.2-1.4-0.4-2-0.6z"/>
		<path class="st0" d="m95.8 4c-0.7 2.3-1.5 4.5-2.2 6.7-0.9 3-1.7 6-2.8 8.9 0.5 0.2 0.9 0.3 1.4 0.5l6.4-15.1c-1-0.3-1.9-0.6-2.8-1z"/>
		<path class="st0" d="m104.8 7.9c-3.1 4.5-5.1 9.6-7.2 14.7 0.4 0.2 0.9 0.5 1.3 0.7 1.3-2.9 2.4-5.8 3.9-8.6 1.1-2 2.7-3.8 3.7-5.9-0.6-0.3-1.2-0.6-1.7-0.9z"/>
		<path class="st0" d="m103.8 7.4c-0.7-0.3-1.3-0.6-2-1l-6.4 15.1c0.4 0.2 0.8 0.4 1.1 0.6 2.2-5.1 4.2-10.2 7.3-14.7z"/>
		<path class="st0" d="m107.4 9.3c-0.9 1.8-2.3 3.3-3.3 5-1.7 3-2.9 6.3-4.4 9.4 0.4 0.2 0.7 0.4 1.1 0.6l8.9-13.7c-0.7-0.4-1.5-0.8-2.3-1.3z"/>
		<path class="st0" d="m79.8 0.4c-0.8-0.1-1.5-0.2-2.3-0.2l-0.9 16.3c0.5 0 0.9 0.1 1.4 0.1 0.5-5.4 0.7-10.8 1.8-16.2z"/>
		<path class="st0" d="m80.9 0.6c-1.1 5.3-1.4 10.8-1.7 16.2 0.4 0.1 0.8 0.1 1.2 0.2 0.7-5.4 1.6-10.8 2.6-16.2-0.7-0.1-1.4-0.1-2.1-0.2z"/>
		<path class="st0" d="m84.1 1c-1 5.3-1.9 10.7-2.6 16.1 0.5 0.1 0.9 0.2 1.4 0.3l3.7-15.9c-0.9-0.2-1.7-0.3-2.5-0.5z"/>
		<path class="st0" d="m136.1 83.3c-3.1-0.5-6.2-0.6-9.3-1.2 0 0.2-0.1 0.5-0.1 0.7l15.9 3.7c0.1-0.6 0.3-1.3 0.4-1.9-2.3-0.2-4.6-0.9-6.9-1.3z"/>
		<path class="st0" d="m137.1 78.6c2.2 0 4.4 0.3 6.6 0.3 0-0.4 0.1-0.9 0.1-1.3l-16.3-0.9c0 0.5-0.1 1-0.2 1.5 3.3 0.4 6.6 0.4 9.8 0.4z"/>
		<path class="st0" d="m137.1 79.7c-3.3 0-6.6-0.1-9.9-0.4l-0.3 1.8c3.1 0.5 6.2 0.7 9.3 1.2 2.3 0.4 4.5 1 6.9 1.2 0.2-1.2 0.3-2.3 0.5-3.5-2.1 0-4.3-0.3-6.5-0.3z"/>
		<path class="st0" d="m38.1 116.2c-0.3-0.2-0.6-0.4-0.9-0.7-3.9 3.8-7.9 7.6-10.9 12.2 0.7 0.6 1.5 1.2 2.3 1.8 3.6-4.1 5.6-9.4 9.5-13.3z"/>
		<path class="st0" d="m38.9 116.8c-3.9 3.9-5.9 9.2-9.5 13.3 0.6 0.5 1.3 0.9 1.9 1.4l8.9-13.7c-0.4-0.3-0.8-0.7-1.3-1z"/>
		<path class="st0" d="m36.4 114.8c-0.3-0.3-0.7-0.6-1-0.8l-11.1 11.9c0.4 0.4 0.8 0.7 1.2 1.1 3-4.6 7-8.4 10.9-12.2z"/>
		<path class="st0" d="m61.9 17.3c0.5-0.1 1.1-0.2 1.6-0.3l-2-16.2c-0.9 0.1-1.8 0.3-2.7 0.5 0.8 5.3 2.7 10.5 3.1 16z"/>
		<path class="st0" d="m59.6 17.7 1.2-0.3c-0.3-5.4-2.3-10.6-3.1-16-0.8 0.2-1.6 0.3-2.4 0.5 1.2 5.4 2.9 10.6 4.3 15.8z"/>
		<path class="st0" d="m54.3 2.2c-0.6 0.1-1.1 0.3-1.7 0.4l4.8 15.7c0.4-0.1 0.7-0.2 1.1-0.3-1.4-5.3-3-10.5-4.2-15.8z"/>
		<path class="st0" d="m134.4 89.4c2.4 0.5 4.7 1.2 7.1 1.7 0.1-0.4 0.2-0.8 0.3-1.1l-15.9-3.7c-0.1 0.4-0.2 0.8-0.3 1.1 2.8 1 5.8 1.4 8.8 2z"/>
		<path class="st0" d="m134.1 90.4c-3-0.6-6-0.9-8.9-2-0.1 0.5-0.3 0.9-0.4 1.4 5.3 1.3 10.2 4.1 15.5 5.3 0.3-1 0.6-2 0.9-2.9-2.3-0.6-4.7-1.3-7.1-1.8z"/>
		<path class="st0" d="m124.4 90.9c-0.2 0.4-0.3 0.9-0.5 1.3l15.1 6.4c0.3-0.8 0.6-1.6 0.9-2.5-5.3-1.2-10.1-3.9-15.5-5.2z"/>
		<path class="st0" d="m114.6 13.9c-0.6-0.5-1.2-0.9-1.9-1.3l-8.9 13.7c0.3 0.2 0.5 0.4 0.8 0.6 3.7-4.1 6.8-8.5 10-13z"/>
		<path class="st0" d="m115.4 14.6c-3.2 4.4-6.3 8.9-10 12.9 0.4 0.3 0.8 0.6 1.1 0.9 2.2-2.2 3.9-4.6 5.7-7.1 1.4-1.9 3.1-3.7 4.5-5.7-0.4-0.3-0.8-0.7-1.3-1z"/>
		<path class="st0" d="m117.6 16.3c-1.5 2.2-3.3 4.2-4.9 6.3-1.7 2.3-3.3 4.5-5.2 6.5 0.4 0.3 0.8 0.7 1.3 1l11.1-11.9c-0.8-0.6-1.5-1.3-2.3-1.9z"/>
		<path class="st0" d="m31.6 110.4c-1.9 1.9-4.2 3.4-6.1 5.2-2 1.9-4 3.8-5.9 5.8 0.7 0.7 1.3 1.4 2 2.1l11.1-11.9c-0.3-0.4-0.7-0.8-1.1-1.2z"/>
		<path class="st0" d="m24.7 114.8c1.9-1.8 4.3-3.4 6.1-5.2-0.3-0.3-0.6-0.6-0.9-1-4.5 3-9 6.3-12.3 10.6 0.4 0.5 0.8 0.9 1.3 1.4 1.8-2 3.8-3.9 5.8-5.8z"/>
		<path class="st0" d="m29.3 107.8c-0.2-0.3-0.5-0.5-0.7-0.8l-13 9.8c0.4 0.5 0.9 1.1 1.3 1.6 3.4-4.3 7.9-7.6 12.4-10.6z"/>
		<path class="st0" d="m46.5 121.6c-0.5-0.2-0.9-0.5-1.3-0.7-1.6 2-2.8 4.4-4 6.6-1.4 2.5-2.7 5.1-3.8 7.7 0.6 0.3 1.1 0.6 1.7 0.9 2.2-5 5.9-9.3 7.4-14.5z"/>
		<path class="st0" d="m47.5 122.1c-1.6 5.2-5.2 9.6-7.5 14.5 0.7 0.4 1.5 0.7 2.3 1.1l6.4-15c-0.4-0.3-0.8-0.5-1.2-0.6z"/>
		<path class="st0" d="m40.2 126.9c1.2-2.2 2.4-4.6 4-6.6-0.3-0.2-0.7-0.4-1-0.6l-8.9 13.7 2.1 1.2c1.1-2.6 2.4-5.2 3.8-7.7z"/>
		<path class="st0" d="m118.7 27.3c1.9-1.5 3.7-3.2 5.4-5-0.6-0.6-1.1-1.2-1.7-1.7l-11.1 11.9 0.7 0.7c1.9-2.3 4.3-4 6.7-5.9z"/>
		<path class="st0" d="m119.5 28.1c-2.4 1.9-4.8 3.6-6.8 5.9 0.4 0.4 0.8 0.8 1.1 1.3 4.1-3.6 8.8-6.4 12.9-10.1-0.6-0.7-1.2-1.4-1.9-2.1-1.7 1.7-3.4 3.5-5.3 5z"/>
		<path class="st0" d="m114.5 36.1c0.3 0.3 0.6 0.7 0.9 1l13-9.8c-0.3-0.4-0.7-0.9-1.1-1.3-4 3.7-8.7 6.5-12.8 10.1z"/>
		<path class="st0" d="m62 126.9c-0.3-0.1-0.6-0.1-0.8-0.2l-3.7 15.9c0.5 0.1 1.1 0.2 1.6 0.3 1.5-5.3 1.2-10.9 2.9-16z"/>
		<path class="st0" d="m64.4 127.2c-0.4-0.1-0.8-0.1-1.3-0.2-1.8 5.1-1.5 10.8-2.8 16.1 0.9 0.1 1.7 0.3 2.6 0.4 0.1-5.5 0.4-10.9 1.5-16.3z"/>
		<path class="st0" d="m65.4 127.4c-1 5.3-1.4 10.8-1.5 16.2 0.8 0.1 1.7 0.2 2.5 0.3l0.9-16.3c-0.6-0.1-1.2-0.1-1.9-0.2z"/>
		<path class="st0" d="m137 103.2c0.2-0.5 0.5-0.9 0.7-1.4l-15.1-6.4c-0.2 0.4-0.4 0.8-0.6 1.1 5.4 1.3 9.9 4.7 15 6.7z"/>
		<path class="st0" d="m121.5 97.5c-0.2 0.4-0.4 0.8-0.6 1.1 4.6 3 9.5 5.5 14 8.6 0.6-1 1.1-2.1 1.7-3.1-5.2-2-9.7-5.4-15.1-6.6z"/>
		<path class="st0" d="m120.4 99.6c-0.2 0.4-0.5 0.8-0.7 1.3l13.7 8.9c0.3-0.5 0.6-1 0.9-1.6-4.4-3.1-9.3-5.6-13.9-8.6z"/>
		<path class="st0" d="m101.5 137.8c0.6-0.3 1.1-0.5 1.7-0.8l-7.4-14.6c-0.4 0.2-0.8 0.4-1.2 0.5 2.7 4.8 4.3 10.1 6.9 14.9z"/>
		<path class="st0" d="m93.5 123.4c-0.5 0.2-0.9 0.4-1.4 0.6 0.6 0.9 0.9 1.7 1.2 2.8 0.5 1.9 1.4 3.6 2.2 5.3 1 2.2 2.2 4.6 2.8 7.1 0.8-0.3 1.5-0.6 2.2-0.9-2.6-4.9-4.2-10.2-7-14.9z"/>
		<path class="st0" d="m94.6 132.9c-0.6-1.4-1.3-2.7-1.9-4.1-0.6-1.5-0.7-3.1-1.7-4.5-0.4 0.1-0.7 0.3-1.1 0.4l4.8 15.7c0.8-0.3 1.6-0.6 2.5-0.9-0.6-2.2-1.7-4.4-2.6-6.6z"/>
		<path class="st0" d="m89.6 141.9c0.6-0.2 1.2-0.3 1.8-0.5l-4.8-15.7c-0.5 0.1-1 0.3-1.5 0.4 2.1 5.1 3.4 10.5 4.5 15.8z"/>
		<path class="st0" d="m84.1 126.4c-0.4 0.1-0.8 0.2-1.1 0.3 1.4 5.3 2.1 10.7 3.1 16 0.8-0.2 1.6-0.3 2.4-0.5-1.1-5.4-2.3-10.7-4.4-15.8z"/>
		<path class="st0" d="m81.9 126.9c-0.4 0.1-0.9 0.2-1.3 0.2l2 16.2c0.8-0.1 1.7-0.3 2.5-0.4-1.1-5.3-1.9-10.8-3.2-16z"/>
		<path class="st0" d="m76.4 143.9c0.9-0.1 1.8-0.1 2.7-0.2l-2-16.2c-0.6 0.1-1.3 0.1-1.9 0.1-0.1 5.5 0.5 10.9 1.2 16.3z"/>
		<path class="st0" d="m74.1 127.7h-1.4c-0.3 5.4-0.2 10.9-0.1 16.3 0.9 0 1.8 0 2.7-0.1-0.7-5.3-1.3-10.7-1.2-16.2z"/>
		<path class="st0" d="m71.6 127.8h-0.8l-0.8 16.2h1.5c0-5.4-0.1-10.8 0.1-16.2z"/>
		<path class="st0" d="m112.1 131.9c0.6-0.4 1.3-0.9 1.9-1.3l-9.8-13.1c-0.5 0.3-0.9 0.6-1.4 0.9 2.6 4.9 5.8 9.3 9.3 13.5z"/>
		<path class="st0" d="m101.8 119.1-0.9 0.6c3 4.6 6.2 9 8.8 13.8 0.5-0.3 0.9-0.6 1.4-0.9-3.4-4.3-6.6-8.8-9.3-13.5z"/>
		<path class="st0" d="m100 120.2c-0.4 0.2-0.7 0.4-1.1 0.6l7.4 14.6c0.9-0.5 1.7-0.9 2.5-1.4-2.6-4.8-5.9-9.2-8.8-13.8z"/>
		<path class="st0" d="m23.9 44.1c0.2-0.3 0.3-0.6 0.5-0.9l-13.7-8.9c-0.3 0.5-0.6 0.9-0.8 1.4 5.1 1.7 9.9 4.9 14 8.4z"/>
		<path class="st0" d="m22.6 46.5c0.2-0.5 0.5-1 0.8-1.4-4-3.5-8.9-6.8-14.1-8.4-0.5 0.9-1 1.8-1.4 2.7 5.1 1.8 9.6 5.1 14.7 7.1z"/>
		<path class="st0" d="m7.3 40.3c-0.3 0.7-0.7 1.3-1 2l15.1 6.4 0.6-1.2c-5-2.1-9.5-5.3-14.7-7.2z"/>
		<path class="st0" d="m69.5 16.4h1.3c0-5.4-0.2-10.9-0.2-16.3-0.8 0-1.5 0-2.3 0.1 0.2 5.4 1.1 10.7 1.2 16.2z"/>
		<path class="st0" d="m67.2 0.2c-0.7 0-1.5 0.1-2.2 0.2l2 16.2c0.5 0 1-0.1 1.5-0.1-0.2-5.5-1.1-10.9-1.3-16.3z"/>
		<path class="st0" d="m71.9 0h-0.3c0 5.4 0.2 10.9 0.2 16.3h1.3l0.9-16.3h-2.1z"/>
		<path class="st0" d="m116.3 105.8c-0.3 0.4-0.6 0.8-0.9 1.2 4.6 3 8.7 6.7 13.5 9.3 0.4-0.6 0.9-1.2 1.3-1.7-4.3-3.5-9.4-5.8-13.9-8.8z"/>
		<path class="st0" d="m130.8 113.7c0.2-0.3 0.4-0.6 0.7-0.9l-13.7-8.9c-0.3 0.4-0.5 0.7-0.8 1.1 4.5 3 9.6 5.2 13.8 8.7z"/>
		<path class="st0" d="m114.7 107.8c-0.2 0.3-0.5 0.6-0.7 0.9l12 11.2c0.8-0.9 1.5-1.8 2.3-2.7-4.9-2.7-9-6.4-13.6-9.4z"/>
		<path class="st0" d="m49.7 133.5c1.4-2.9 2.6-5.9 3.7-8.9l-1.5-0.6-6.4 15c0.6 0.2 1.2 0.4 1.8 0.7 1-2 1.4-4.2 2.4-6.2z"/>
		<path class="st0" d="m53.4 133.1c0.8-2.6 1.1-5.3 1.9-7.9-0.3-0.1-0.6-0.2-0.8-0.3-1.1 2.8-2.1 5.5-3.4 8.2-1 2.2-1.6 4.7-2.7 6.9 0.8 0.3 1.6 0.5 2.4 0.8 0.8-2.5 1.8-5.1 2.6-7.7z"/>
		<path class="st0" d="m56.3 125.5c-0.7 2.6-1.1 5.3-1.9 7.8-0.8 2.6-1.8 5.2-2.7 7.8 0.8 0.2 1.6 0.5 2.4 0.7l3.7-15.9c-0.5-0.1-1-0.2-1.5-0.4z"/>
		<path class="st0" d="m109.7 113.1-0.9 0.9c4.1 3.6 7.6 7.8 11 12.1 0.2-0.1 0.3-0.3 0.5-0.4 0.3-0.3 0.7-0.6 1-0.9-3.2-4.7-7.7-8-11.6-11.7z"/>
		<path class="st0" d="m122 123.9c0.5-0.5 1-1 1.5-1.4l-12-11.1c-0.4 0.4-0.7 0.7-1.1 1 4 3.7 8.4 7 11.6 11.5z"/>
		<path class="st0" d="m107.9 114.6c-0.3 0.3-0.6 0.5-0.9 0.8l9.8 13.1c0.7-0.6 1.5-1.2 2.2-1.8-3.5-4.2-7-8.5-11.1-12.1z"/>
		<path class="st0" d="m31.9 24.2c1.4 1.8 3.3 3.3 4.1 5.4 0.4-0.3 0.7-0.6 1.1-0.9l-9.8-13-1.5 1.2c2.1 2.3 4.1 4.8 6.1 7.3z"/>
		<path class="st0" d="m28.9 25.5c1.8 2 3.8 3.6 5.7 5.3 0.2-0.2 0.4-0.3 0.5-0.5v-0.1c-0.8-2.5-3.6-4.8-5.2-6.8s-3.2-4-4.9-5.9c-0.4 0.3-0.8 0.7-1.2 1s-0.7 0.6-1 1c2.2 1.8 4.2 3.8 6.1 6z"/>
		<path class="st0" d="m28.1 26.2c-1.9-2.1-4-4.1-6.1-6-0.5 0.5-1 0.9-1.4 1.4l12 11.1c0.4-0.4 0.9-0.8 1.3-1.3-2-1.6-4-3.2-5.8-5.2z"/>
		<path class="st0" d="m19.3 54.1c0.3-0.7 0.5-1.5 0.8-2.2l-15.1-6.4c-0.3 0.8-0.6 1.6-0.9 2.3 5.4 0.8 10.2 4.6 15.2 6.3z"/>
		<path class="st0" d="m18.8 55.6c0-0.2 0.1-0.3 0.1-0.5-2.4-0.8-4.7-2-7-3-2.7-1.2-5.3-2.8-8.2-3.2-0.3 0.8-0.5 1.5-0.7 2.3 5.5 0.4 10.9 2.2 15.8 4.4z"/>
		<path class="st0" d="m2.7 52.3c-0.2 0.6-0.4 1.2-0.5 1.9l15.9 3.7 0.3-1.2c-4.8-2.2-10.3-4-15.7-4.4z"/>
		<path class="st0" d="m53.2 19.6c0.3-0.1 0.6-0.2 0.9-0.3l-4.8-15.7c-0.7 0.2-1.4 0.5-2.1 0.8 2.1 5 4.2 10.1 6 15.2z"/>
		<path class="st0" d="m47 13.5c1 2.5 2.5 4.7 3.5 7.2 0.5-0.2 1.1-0.4 1.6-0.6-1.8-5.2-3.9-10.2-6.1-15.2l-2.1 0.9c1.1 2.5 2.1 5.1 3.1 7.7z"/>
		<path class="st0" d="m45.8 13.4c-1-2.4-1.9-4.9-2.8-7.3-0.7 0.3-1.4 0.6-2.2 1l7.4 14.6c0.4-0.2 0.8-0.4 1.3-0.6-1-2.7-2.6-5.1-3.7-7.7z"/>
		<path class="st0" d="m19.7 91c-0.1-0.3-0.2-0.7-0.4-1l-15.6 4.8c0.2 0.6 0.4 1.3 0.7 1.9 4.9-2.3 10-4.1 15.3-5.7z"/>
		<path class="st0" d="m20.4 93c-0.1-0.3-0.3-0.6-0.4-1-5.2 1.5-10.4 3.4-15.3 5.7 0.3 0.8 0.7 1.7 1 2.5 5.1-2.1 9.9-4.7 14.7-7.2z"/>
		<path class="st0" d="m20.8 94c-4.8 2.5-9.6 5-14.6 7.2 0.3 0.7 0.6 1.3 0.9 2l14.5-7.4c-0.3-0.6-0.5-1.2-0.8-1.8z"/>
		<path class="st0" d="m17.2 81.6c-0.1-0.4-0.1-0.7-0.2-1.1l-16.2 2 0.3 1.8c5.2-1.4 10.6-2.4 16.1-2.7z"/>
		<path class="st0" d="m17.6 83.9-0.3-1.2c-5.4 0.3-10.8 1.3-16.1 2.7 0.2 0.9 0.4 1.9 0.6 2.8 5.4-1.1 10.6-2.8 15.8-4.3z"/>
		<path class="st0" d="m2.1 89.3c0.2 0.7 0.3 1.4 0.5 2.1l15.6-4.8c-0.2-0.6-0.3-1.1-0.4-1.7-5.2 1.5-10.4 3.3-15.7 4.4z"/>
		<path class="st0" d="m16.3 71.8v-0.9l-16.3-0.9v1.6c5.4-0.3 10.9 0.4 16.3 0.2z"/>
		<path class="st0" d="m7.7 75.6c2.9-0.1 5.8-0.6 8.7-1.1 0-0.6 0-1.1-0.1-1.7-5.4 0.3-10.9-0.4-16.3-0.1 0 1 0 1.9 0.1 2.9 2.5-0.1 5.1 0.1 7.6 0z"/>
		<path class="st0" d="m8.7 76.7c-2.9 0.1-5.7-0.1-8.6 0 0.1 0.8 0.1 1.6 0.2 2.4l16.2-2c0-0.5-0.1-1-0.1-1.5-2.5 0.4-5.1 0.9-7.7 1.1z"/>
		<path class="st0" d="m17.2 62.2c0.1-0.3 0.1-0.6 0.2-0.9l-15.9-3.8c-0.1 0.5-0.2 1.1-0.3 1.6 5.4 0.5 10.7 1.9 16 3.1z"/>
		<path class="st0" d="m16.9 64.2c0-0.3 0.1-0.6 0.1-0.9-5.3-1.3-10.6-2.6-16-3-0.1 0.9-0.3 1.8-0.4 2.8 5.4 0.5 10.9 0.1 16.3 1.1z"/>
		<path class="st0" d="m0.4 64.1c-0.1 0.8-0.2 1.6-0.2 2.4l16.3 0.9c0.1-0.7 0.1-1.4 0.2-2.1-5.3-1-10.8-0.6-16.3-1.2z"/>
		<path class="st0" d="m131.7 31.7c-0.4-0.5-0.7-1.1-1.1-1.6l-13 9.8 0.6 0.9c4.4-3.2 9-6 13.5-9.1z"/>
		<path class="st0" d="m118.8 41.8c0.2 0.4 0.5 0.8 0.7 1.2 2.7-1.7 5.4-3.5 8.2-5.1 1.9-1.2 3.9-2.1 5.8-3.3-0.4-0.6-0.8-1.3-1.2-1.9-4.5 3-9.1 5.8-13.5 9.1z"/>
		<path class="st0" d="m129 38.2c-3 1.8-6 3.7-9 5.6 0.3 0.4 0.5 0.9 0.8 1.3l14.5-7.4c-0.4-0.8-0.9-1.6-1.4-2.4-1.5 1.1-3.2 1.9-4.9 2.9z"/>
		<path class="st0" d="m23.8 99.9c-0.2-0.3-0.4-0.7-0.6-1l-14.5 7.4c0.3 0.6 0.6 1.2 1 1.7 4.7-2.6 9-6 14.1-8.1z"/>
		<path class="st0" d="m24.9 101.7c-0.2-0.3-0.3-0.5-0.5-0.8-5.1 2-9.4 5.4-14.1 8.1 0.4 0.7 0.9 1.4 1.4 2.2 4.2-3.4 8.7-6.3 13.2-9.5z"/>
		<path class="st0" d="m25.4 102.6c-4.4 3.2-8.9 6.1-13.3 9.4 0.4 0.7 0.9 1.3 1.3 1.9l13-9.8c-0.3-0.5-0.6-1-1-1.5z"/>
		<path class="st0" d="m29.4 36.3c0.3-0.3 0.5-0.6 0.7-0.9l-12-11.2c-0.4 0.5-0.9 1-1.3 1.5 4.7 3 8.1 7.4 12.6 10.6z"/>
		<path class="st0" d="m27.8 38.2c0.3-0.4 0.6-0.7 0.9-1.1-4.4-3.2-7.9-7.6-12.5-10.5-0.6 0.7-1.1 1.4-1.6 2.1 4.3 3.2 8.8 6.4 13.2 9.5z"/>
		<path class="st0" d="m13.9 29.5c-0.4 0.6-0.9 1.2-1.3 1.8l13.7 8.9c0.3-0.4 0.6-0.8 0.9-1.2-4.5-3.1-9-6.2-13.3-9.5z"/>
		<path class="st0" d="m137.6 42.3c-0.2-0.5-0.4-0.9-0.6-1.4l-14.5 7.4c0.2 0.4 0.3 0.7 0.5 1.1 4.6-2.8 9.5-5.1 14.6-7.1z"/>
		<path class="st0" d="m123.4 50.4c0.2 0.5 0.4 0.9 0.6 1.4 5.2-1.5 10.3-3.6 15.4-5.3-0.4-1.1-0.9-2.2-1.3-3.2-5.1 2-10.1 4.3-14.7 7.1z"/>
		<path class="st0" d="m124.3 52.8c0.2 0.4 0.3 0.8 0.4 1.3l15.6-4.8-0.6-1.8c-5.1 1.8-10.2 3.8-15.4 5.3z"/>
		<path class="st0" d="m136.8 60.4c-3.3 0.5-6.6 1.5-9.9 1.7 0.1 0.5 0.2 0.9 0.2 1.4l16.2-2-0.3-2.1c-2.1 0.4-4.2 0.7-6.2 1z"/>
		<path class="st0" d="m135.2 56.4c2.3-0.5 4.5-1 6.8-1.6-0.2-0.7-0.4-1.5-0.6-2.2l-15.6 4.8 0.3 1.2c3.1-0.4 6-1.5 9.1-2.2z"/>
		<path class="st0" d="m134.5 57.7c-2.7 0.7-5.4 1.6-8.2 2 0.1 0.4 0.2 0.9 0.3 1.3 3.1-0.2 6.1-1.1 9.1-1.6 2.3-0.4 4.7-0.7 7-1.1-0.2-0.8-0.3-1.6-0.5-2.4-2.6 0.6-5.1 1.1-7.7 1.8z"/>
		<path class="st0" d="m39.3 17.1c1.2 2.5 2.7 4.8 4 7.2 0.6-0.4 1.2-0.8 1.9-1.1l-7.4-14.5c-0.6 0.3-1.3 0.7-1.9 1.1 1.2 2.3 2.3 4.8 3.4 7.3z"/>
		<path class="st0" d="m36.6 17.9c1.7 2.5 3.8 4.6 5.5 7.2 0.1-0.1 0.2-0.1 0.3-0.2-1.3-2.4-2.8-4.7-4-7.2s-2.2-5-3.5-7.4c-0.8 0.5-1.7 1-2.5 1.6 1.5 1.9 2.8 4 4.2 6z"/>
		<path class="st0" d="m41.2 25.6c-1.5-2.3-3.4-4.2-5-6.4s-3-4.6-4.7-6.7c-0.5 0.3-1 0.6-1.4 1l9.8 13c0.5-0.3 0.9-0.6 1.3-0.9z"/>
</svg>
