<?xml version="1.0" encoding="utf-8"?>
<!-- Generator: Adobe Illustrator 22.1.0, SVG Export Plug-In . SVG Version: 6.00 Build 0)  -->
<svg version="1.1" id="Layer_1" xmlns="http://www.w3.org/2000/svg" xmlns:xlink="http://www.w3.org/1999/xlink" x="0px" y="0px"
	 viewBox="0 0 85 56.7" style="enable-background:new 0 0 85 56.7;" xml:space="preserve">
<style type="text/css">
	.st0{fill:#FFFFFF;}
	.st1{fill:#44479D;}
	.st2{fill:#EF3F23;}
	.st3{fill:#B56A38;}
	.st4{fill:#E0E324;}
	.st5{fill:#C0CE30;}
</style>
<g>
	<polygon class="st0" points="81,7.1 81,47.8 9.4,27.2 	"/>
	<path class="st1" d="M81,7.4V5.5H2.6v46.2H81v-2.1L7.6,28.3L81,7.4z"/>
	<polygon class="st2" points="81,51.6 2.7,28.3 81,5.6 81,8.3 12,28.4 81,48.5 	"/>
	<g>
		<path class="st3" d="M64.6,24.6c0,0,0.5-0.3,0.6-0.3c0.1-0.1,0.3-0.6-0.1-0.6c-0.4-0.1-0.8,0.5-1.4,0.6c-0.6,0.1-0.7-0.4-0.5-0.6
			c0.2-0.2,1-1.3,1.6-1.9c0,0-0.5-0.2-0.5-0.4c-0.1-0.6,2.1-1.9,2.6-2.2c0.5-0.3,0.8-0.6,0.9-0.6c0.1,0.1,0.1,0.4,0.1,0.4
			s2.1-0.9,2.8-1.2c0.7-0.3,4-1.8,5.1-2.6c0,0,0.1,0.2,0.1,0.2l0.7-0.4c0,0,0.1,0.8-0.4,1.3c0,0,0.5,0,0.7,0l-1.3,1.4l0.4,0
			c0,0-0.9,0.8-2.2,2.5c-0.1,0.2-0.4,0.5-0.4,0.5l1.6-0.1c0,0-0.7,0.9-2.3,0.7l-0.3,0.3c0,0,1.5,0.2,1.8,0c0,0-0.1,0.6-0.3,0.6
			c0,0,1.1-0.1,1.3-0.3c0.3-0.2,2.7-1,3.1-0.9c0.3,0.1,1,1.4,0.9,1.9c-0.2,0.5-0.9,1.5-1,1.7C77.9,25,77.7,25,77.5,25
			c-0.3,0-1.9-0.1-2.2-0.2c-0.3-0.1-1-0.2-1.2-0.1c-0.3,0.1-0.9,0.5-1.1,0.6c-0.2,0.1-1.1,0.5-1.1,0.7c0,0,1.2,0.6,1.4,1.2
			c0.2,0.6-0.2,0.8-0.6,1c-0.1,0.1-0.3,0.6-0.4,0.8c0,0.1-0.3,0.4-0.4,0.5c-0.1,0.1-0.2,0.4-0.2,0.4c0,0.2-0.3,0.8-0.7,0.7
			c0,0-0.2-0.4-0.8-0.4c-0.6,0-0.9,0-0.9,0.1c-0.1,0.1-0.2,0.3-0.2,0.6l-0.3,0c0,0,0.1-0.7,0.3-0.9c0.2-0.3,0.6-1.3,0.6-1.4
			c0-0.1-0.4-1.2-0.6-1.7c0,0-1,0.3-3.1,0.1c0,0,0.5-0.3,0.6-0.3c0,0-0.4-0.2-0.5-0.2l0.5-0.5l-0.7,0c0,0,0.2-0.6,0.3-0.7l-0.8,0.4
			c0,0,0-0.4,0-0.5c0,0-0.6,0.1-0.7,0.2L64.6,24.6z"/>
		<path class="st3" d="M62.7,27.4c0,0,0.5,0.3,0.6,0.4c0.1,0.1,0.4,0.3,0.8,0.1c0,0-0.8,1-1.2,0.6c0,0-0.3,0.5-0.2,0.8
			c0,0-0.4-0.3-0.5-0.7C62,28.2,62.4,27.7,62.7,27.4z"/>
		<path class="st4" d="M74.1,31.4c0,0,0.1,0.5,0,0.6l-3.1-0.3c0,0-0.2,0-0.3-0.1c-0.1-0.1-0.1-0.3-0.1-0.4c0-0.1,0-0.2,0.2-0.2
			C70.9,30.9,74.1,31.4,74.1,31.4z"/>
		<path class="st4" d="M69.7,31.5l-1.3-0.2c0,0-0.8,0.9-1.8,0.5c0,0,0-0.6-0.4-0.7c-0.3-0.1-1.2-0.1-1.2-0.1s-0.2,1-0.6,1
			c-0.3,0-0.3-1.1-0.3-1.1s-1.7,0-2.8,0.4c0,0-0.9-0.8-2.8-1.4c0,0,2.3-0.1,3.1-0.8c0,0,1.3,0.9,2.7,1c0,0,0.3-1.1,0.5-1
			c0.3,0,0.3,1.2,0.3,1.2s1,0.1,1.2,0.1c0.2,0,0.5-0.3,0.6-0.6c0,0,1,0,1.6,0.9l0.4,0c0,0,0,0.4,0.2,0.5c0.2,0.1,0.6,0.1,0.6,0.1
			L69.7,31.5z"/>
		<path class="st4" d="M73.9,32.4l0.1,0.7l-4.8,0.5c0,0-0.1-0.7,0.1-0.7C69.4,32.9,73.9,32.4,73.9,32.4z"/>
		<path class="st4" d="M66.8,33.9l-2.9,0.3c0,0,0.2,0.3-0.1,0.4c0,0,0.4,0.2,0.4,0.5c0,0.3-0.1,0.8,0,0.9c0.2,0.1,0.4,0.4,0.9,0.2
			c0.4-0.2,1-0.7,1.7,0.1c0,0-0.5,0.1-0.5,0.4c0,0,0.4,0.1,0.7,0c0.3-0.1,1.2-0.5,1.6,0.1c0,0-0.5,0-0.4,0.2c0.1,0.2,0.5,0.4,1,0.3
			c0.5-0.1,1.2-0.2,1.7-0.3c0.5-0.2,1.1,0,1.2,0.2c0,0-0.6,0.3-0.4,0.4c0.1,0.2,0.3,0.2,0.6,0.1c0.3,0,0.6-0.1,0.8,0.3
			c0,0-0.9-0.1-0.8,0.2c0.1,0.3,0.4,0.3,0.7,0.2c0.3,0,0.7-0.2,1,0.1c0,0-0.3,0.1-0.5,0.2c-0.2,0.1-0.7,0.2-0.9,0.1
			c0,0,0.1,0.2,0.4,0.4c0.3,0.2,0.6,0.2,0.6,0.2s-0.4,0.2-0.6,0.1c-0.5-0.1-0.6-0.5-0.9-0.5c0,0,0.3,0.4,0.1,0.6
			c0,0-0.5-0.5-0.8-0.5c0,0-0.1,0.6,0.6,0.8c0,0-0.4,0.1-0.7,0c-0.4-0.1-0.6-0.3-0.8-0.6c-0.2-0.2-0.4-0.3-0.6-0.3
			c-0.2,0.1-0.9-0.1-1.4-0.3c-0.5-0.3-1-0.3-1-0.3s0.2,0.2,0.3,0.4c0.1,0.1,0.3,0.4,0.4,0.4c0,0-0.3,0.2-0.7,0
			c-0.4-0.2-0.8-0.5-1-0.7c-0.3-0.2-0.8-0.3-1.1-0.2c0,0,0.7,0.5,0.5,1.1c0,0-0.1-0.3-0.5-0.6c-0.4-0.3-0.8-0.4-1.7-0.6
			c-0.5-0.1-1.1-0.5-1-0.9c0,0-0.9,0.2-1.3-0.1c-0.4-0.3-0.5-0.9-0.3-1.3c0,0-0.5-0.3-0.5-0.7c0.1-0.4,0.2-0.6,0.5-0.7
			c0,0-0.2-0.3-0.1-0.5c0.2-0.2,0.4-0.4,0.6-0.4c0.1,0,0.4-0.2,0.4-0.3c0-0.1,0.3-0.3,0.4-0.3c0.1,0,0.3,0.1,0.4,0.1
			c0.1,0,0.7-0.3,0.8,0.2l3-0.3C66.7,33.2,66.7,33.8,66.8,33.9z"/>
		<path class="st5" d="M61.5,35.3c-0.2,0.5,0.3,0.8,0.7,0.5c0,0.5,0.8,0.5,1,0.1c0.7,0,0.9-0.9,0.2-1.1c0.2-0.2,0.1-0.3,0-0.5
			c-0.2-0.2-0.8-0.3-1.1,0.1c0,0-0.5,0.1-0.4,0.5C61.7,35.1,61.6,35.1,61.5,35.3z"/>
		<path class="st5" d="M62.7,36.4c0.4-0.1,0.7,0.5,0.9,0.7c0.4,0.3,1,0,1.5,0.3c0.2,0.2,0.4,0.3,0.7,0.3c0,0,0,0,0,0
			c-0.5,0.2-0.7-0.1-1.2-0.1c-0.4,0-0.9,0.2-1.3-0.1c-0.2-0.1-0.2-0.4-0.3-0.6C63,36.8,62.7,36.4,62.7,36.4z"/>
		<path class="st5" d="M64.3,36.5c0.1,0,0.7-0.2,1.1-0.1c0.4,0.1,0.5,0.3,0.9,0.4c0.2,0.1,0.4,0.1,0.6,0c-0.7,0.4-0.9,0.2-1.6-0.2
			C65.1,36.6,64.2,36.5,64.3,36.5z"/>
		<g>
			<g>
				<path d="M61.4,31.4L61.4,31.4c-0.7-0.9-2.9-1.5-2.9-1.5l0-0.1c0.1,0,2.2,0.6,2.9,1.5c0.2-0.1,1.7-0.6,3.5-0.4l0,0.1
					C62.9,30.8,61.4,31.4,61.4,31.4L61.4,31.4z"/>
				<path d="M64.5,32.1C64.5,32.1,64.5,32.1,64.5,32.1c-0.3,0-0.4-0.7-0.4-1.2l0.1,0c0,0.7,0.1,1.1,0.3,1.1c0,0,0,0,0,0
					c0.2,0,0.4-0.6,0.5-1.4l0.1,0C65.1,31.4,64.8,32.1,64.5,32.1z"/>
				<path d="M74.1,32l-3.3-0.3l0-0.1l3.3,0.3c0-0.1,0.1-0.3,0-0.4l0.1,0C74.3,31.6,74.1,31.9,74.1,32L74.1,32z"/>
				<path d="M67.1,32c-0.3,0-0.5-0.1-0.5-0.1l0,0l0,0c0-0.3-0.2-0.6-0.4-0.6c-0.2,0-1.1-0.1-1.1-0.1l0-0.1c0,0,0.9,0.1,1.2,0.1
					c0.2,0,0.5,0.3,0.5,0.7c0.2,0,1,0.2,1.7-0.5l0,0l1.3,0.1l0,0.1l-1.2-0.1C67.9,31.9,67.4,32,67.1,32z"/>
			</g>
			<g>
				<path d="M65,30.3c-1.9-0.2-3.1-1-3.3-1.1c-0.9,0.7-3.1,0.8-3.2,0.8l0-0.1c0,0,2.3-0.1,3.1-0.8l0,0l0,0c0,0,1.3,0.9,3.3,1.1
					L65,30.3z"/>
				<path d="M65.2,30.6l-0.1,0c0.1-0.6,0-1.2-0.1-1.4c0,0-0.1-0.1-0.1-0.1c0,0,0,0,0,0c-0.1,0-0.4,0.4-0.5,1l-0.1,0
					c0.1-0.5,0.3-1.1,0.6-1.1c0.1,0,0.1,0,0.2,0.1C65.2,29.4,65.3,30,65.2,30.6z"/>
				<polygon points="74.1,31.4 70.7,31 70.7,30.9 74.1,31.3 				"/>
				<path d="M68.9,30.8l-0.4-0.1l0,0c-0.6-0.8-1.4-0.9-1.6-0.9c-0.1,0.4-0.4,0.6-0.6,0.6c0,0,0,0,0,0c-0.2,0-1.1-0.1-1.2-0.1l0-0.1
					c0,0,0.9,0.1,1.1,0.1c0,0,0,0,0,0c0.2,0,0.5-0.2,0.5-0.5l0,0l0,0c0,0,1-0.1,1.7,0.9l0.4,0L68.9,30.8z"/>
			</g>
			<path d="M66.3,31.2l-0.1,0c0.2-0.3,0.1-0.7,0.1-0.7l0.1,0C66.4,30.4,66.5,30.8,66.3,31.2z"/>
			<path d="M66.1,31.1l-0.1,0c0.1-0.3,0.1-0.7,0.1-0.7l0.1,0C66.1,30.4,66.2,30.8,66.1,31.1z"/>
			<path d="M65.7,31.1l-0.1,0c0.1-0.3,0.1-0.7,0.1-0.7l0.1,0C65.8,30.3,65.9,30.8,65.7,31.1z"/>
			<path d="M65.4,31.1l-0.1,0c0.1-0.3,0.1-0.7,0.1-0.7l0.1,0C65.4,30.3,65.5,30.7,65.4,31.1z"/>
		</g>
		<g>
			<polygon points="63.8,33.5 63.7,33.4 66.7,33.1 66.7,33.2 			"/>
			<polygon points="69.1,33.7 69.1,33.6 73.9,33.1 73.9,32.5 69.2,33 69.2,32.9 74,32.4 74.1,33.2 			"/>
			<polygon points="63.8,34.2 63.8,34.1 66.8,33.8 66.8,33.9 			"/>
			<path d="M61.2,34.7c-0.2-0.3-0.2-0.6,0.1-0.8c0.1-0.1,0.2-0.1,0.3-0.2c0.1,0,0.2-0.1,0.3-0.1c0.1-0.1,0.1-0.1,0.2-0.2
				c0.1-0.1,0.2-0.3,0.5-0.3c0.1,0,0.2,0,0.2,0.1c0.1,0,0.1,0,0.3,0c0.3-0.1,0.5-0.2,0.7,0.3l-0.1,0c-0.1-0.3-0.2-0.3-0.5-0.2
				c-0.2,0.1-0.3,0-0.4,0c-0.1,0-0.1,0-0.2-0.1c-0.2,0-0.3,0.1-0.4,0.2c0,0.1-0.1,0.1-0.2,0.2c-0.1,0.1-0.2,0.1-0.3,0.2
				c-0.1,0-0.2,0.1-0.3,0.1C61.2,34.1,61.2,34.4,61.2,34.7L61.2,34.7z"/>
			<path d="M62.3,37.6c-0.3,0-0.6-0.1-0.9-0.3c-0.3-0.3-0.4-0.8-0.2-1.2c-0.3-0.1-0.5-0.4-0.5-0.7c0-0.3,0.2-0.6,0.5-0.8l0.1,0.1
				c-0.3,0.2-0.5,0.4-0.4,0.7c0,0.3,0.2,0.5,0.5,0.6l0.1,0l0,0.1c-0.2,0.4-0.2,0.9,0.1,1.2c0.4,0.4,1.1,0.3,1.5,0.2l0,0.1
				C62.8,37.5,62.6,37.6,62.3,37.6z"/>
			<path d="M66.2,39.7c-0.1-0.4-0.4-0.6-0.8-0.8c-0.2-0.1-0.5-0.2-0.8-0.2c-0.8-0.2-1.8-0.4-1.7-1.2l0.1,0c-0.1,0.6,0.9,0.9,1.6,1
				c0.3,0.1,0.6,0.2,0.8,0.3c0.4,0.2,0.7,0.4,0.8,0.9L66.2,39.7z"/>
			<path d="M66.3,39.7l-0.1,0c0-0.4-0.1-0.9-0.5-1l0-0.1C66.2,38.6,66.3,39.3,66.3,39.7z"/>
			<path d="M68.3,39.5c-0.5,0-0.7-0.2-1.1-0.5c-0.1-0.1-0.2-0.1-0.2-0.2c-0.4-0.3-0.8-0.4-1.2-0.2l0-0.1c0.5-0.2,0.9-0.1,1.3,0.3
				c0.1,0.1,0.2,0.1,0.2,0.2c0.4,0.3,0.7,0.5,1.3,0.4l0,0.1C68.5,39.4,68.4,39.5,68.3,39.5z"/>
			<path d="M68.5,39.4c-0.2-0.1-0.3-0.2-0.5-0.4c0,0,0-0.1-0.1-0.1c-0.1-0.1-0.1-0.3-0.3-0.3l0-0.1c0.2,0,0.3,0.2,0.4,0.4
				c0,0,0,0.1,0.1,0.1c0.1,0.2,0.2,0.3,0.4,0.4L68.5,39.4z"/>
			<path d="M71.8,40c-0.2,0-0.5-0.1-0.7-0.2c-0.1-0.1-0.2-0.2-0.3-0.3c-0.1-0.1-0.2-0.3-0.3-0.3c-0.2-0.1-0.3,0-0.5,0
				c-0.2,0-0.3,0-0.5,0c-0.3-0.1-0.5-0.2-0.7-0.3c-0.4-0.2-0.7-0.4-1.1-0.3l0-0.1c0.5-0.1,0.8,0.1,1.2,0.3c0.2,0.1,0.4,0.2,0.7,0.3
				c0.1,0,0.3,0,0.4,0c0.2,0,0.4,0,0.6,0c0.2,0.1,0.3,0.2,0.4,0.4c0.1,0.1,0.2,0.2,0.3,0.3c0.3,0.2,0.8,0.2,1.1,0.1l0,0.1
				C72.2,40,72,40,71.8,40z"/>
			<path d="M64.8,36.2c-0.1,0-0.3,0-0.4-0.1c-0.3-0.2-0.2-0.4-0.2-0.7c0-0.1,0-0.1,0-0.2c0-0.3-0.1-0.4-0.4-0.6l-0.1-0.1l0.1,0
				c0.1,0,0.2-0.1,0.2-0.2c0,0,0-0.1-0.1-0.1l0-0.1c0.1,0,0.2,0.1,0.2,0.2c0,0.1-0.1,0.2-0.2,0.3c0.3,0.1,0.4,0.3,0.4,0.7
				c0,0.1,0,0.1,0,0.2c0,0.2-0.1,0.4,0.1,0.6c0.3,0.2,0.6,0.1,1-0.1c0.2-0.1,0.4-0.2,0.6-0.2c0.3,0,0.7,0.1,0.9,0.4l-0.1,0.1
				c-0.2-0.3-0.5-0.4-0.8-0.4c-0.2,0-0.4,0.1-0.6,0.2C65.2,36.1,65,36.2,64.8,36.2z"/>
			<path d="M68.6,36.8c0-0.1-0.1-0.2-0.2-0.2c-0.3-0.1-0.7-0.1-0.9,0c-0.5,0.2-0.8,0.2-1.2,0.1l0,0l0,0c0-0.4,0.3-0.4,0.5-0.5l0,0.1
				c-0.3,0-0.4,0.1-0.4,0.3c0.3,0.1,0.6,0.1,1.1-0.1c0.2-0.1,0.7-0.1,1,0c0.1,0.1,0.2,0.2,0.2,0.3L68.6,36.8z"/>
			<path d="M69,37.2c-0.3,0-0.7,0-0.8-0.2c-0.1-0.1,0-0.2,0-0.2c0.1-0.1,0.3-0.1,0.4-0.1l0,0.1c-0.1,0-0.3,0-0.3,0c0,0,0,0.1,0,0.1
				c0.1,0.2,0.7,0.2,0.9,0.2c0.8-0.1,1.1-0.1,1.8-0.4c0.4-0.1,0.7,0,1.1,0.2l-0.1,0.1c-0.4-0.2-0.6-0.3-1-0.2
				c-0.8,0.2-1,0.3-1.8,0.4C69.2,37.2,69.1,37.2,69,37.2z"/>
			<path d="M72.2,39.9c-0.1,0-0.3-0.1-0.4-0.2c-0.2-0.2-0.3-0.4-0.3-0.7l0,0l0,0c0.3,0,0.6,0.2,0.8,0.5c0-0.1,0-0.2,0-0.4
				c0-0.1-0.1-0.2-0.2-0.2l-0.1,0l0-0.1l0-0.1l0.1,0c0,0,0,0,0,0c0.2,0,0.3,0.1,0.5,0.2c0.1,0.1,0.1,0.1,0.2,0.2
				c0.2,0.1,0.4,0.1,0.7,0.1c-0.1,0-0.3-0.1-0.5-0.2c-0.1-0.1-0.2-0.2-0.3-0.2c-0.1-0.1-0.1-0.1-0.2-0.2c0,0,0,0,0,0l0-0.1
				c0,0,0,0,0.1,0c0.3,0.1,0.4,0,0.7,0c0.1,0,0.2-0.1,0.3-0.1c0.1,0,0.2-0.1,0.3-0.1c-0.1,0-0.3-0.1-0.4-0.1c0,0,0,0,0,0
				c-0.1,0-0.2,0-0.3,0c-0.3,0.1-0.8,0.1-0.9-0.1c-0.1-0.1,0-0.2,0-0.3c0.1-0.1,0.4-0.1,0.6-0.1c-0.2-0.2-0.4-0.2-0.6-0.1
				c-0.1,0-0.3,0-0.4,0c-0.3,0-0.4-0.2-0.4-0.2c0-0.2,0.2-0.4,0.5-0.4l0,0.1c-0.2,0-0.4,0.2-0.4,0.3c0,0.1,0.1,0.1,0.3,0.1
				c0.1,0,0.3,0,0.4,0c0.3,0,0.6-0.1,0.8,0.3l0.1,0.1l-0.2-0.1c-0.1,0-0.6-0.1-0.7,0.1c0,0-0.1,0.1,0,0.2c0.1,0.2,0.5,0.1,0.8,0.1
				c0.1,0,0.2,0,0.3,0c0,0,0,0,0,0c0.2,0,0.4,0.1,0.6,0.2l0.1,0l0,0.1l0,0.1l-0.1,0c-0.2,0-0.3,0.1-0.5,0.1
				c-0.1,0.1-0.2,0.1-0.3,0.1c-0.2,0.1-0.3,0.1-0.5,0.1c0,0,0,0,0.1,0.1c0.1,0.1,0.2,0.2,0.2,0.2c0.2,0.1,0.6,0.2,0.6,0.2l0,0.1
				c-0.4,0.2-0.7,0.2-1,0c-0.1-0.1-0.1-0.1-0.2-0.2c0,0-0.1-0.1-0.1-0.1c0,0,0,0,0,0.1c0.1,0.2,0.1,0.4,0,0.6l0,0.1l-0.1-0.1
				c-0.2-0.3-0.5-0.5-0.7-0.5c0,0.2,0.1,0.4,0.3,0.5c0.2,0.1,0.3,0.2,0.5,0.1l0,0.1C72.3,39.9,72.3,39.9,72.2,39.9z"/>
		</g>
		<g>
			<path d="M62.6,27.4L62.6,27.4c0-0.3-0.1-0.8,0.2-1.3c0.3-0.5,1.3-1.3,2.6-2c0.8-0.4,1.5-1.1,1.6-1.5c0-0.1,0-0.1,0-0.1
				c-0.2-0.2-0.7-0.3-1.3-0.4c-0.7-0.1-1.4-0.3-1.4-0.7c0-0.5,1.3-1.4,2.7-2.3c0.3-0.2,0.6-0.4,0.7-0.4c0.1,0,0.1-0.1,0.2,0
				c0.1,0,0.1,0.1,0.1,0.2c0,0.4-0.4,1.5-1.2,1.9l-0.1-0.1c0.7-0.4,1.1-1.3,1.2-1.7c0-0.1,0-0.2,0-0.2c0,0,0,0,0,0
				c-0.1,0.1-0.4,0.2-0.7,0.5c-0.9,0.6-2.7,1.7-2.7,2.2c0,0.4,0.7,0.5,1.3,0.6c0.6,0.1,1.1,0.2,1.3,0.5c0.1,0.1,0.1,0.1,0.1,0.2
				c-0.1,0.5-0.9,1.2-1.7,1.6c-1.3,0.7-2.3,1.5-2.6,1.9c-0.2,0.5-0.2,0.9-0.1,1.2l0,0L62.6,27.4z"/>
			<path d="M63.5,24.4c-0.2,0-0.3-0.1-0.4-0.2c-0.4-0.5,1.5-2.2,1.7-2.4l0.1,0.1c-0.8,0.7-2,2-1.7,2.3c0.3,0.4,0.9,0,1.4-0.2
				c0.3-0.2,0.5-0.3,0.6-0.2c0.1,0,0.2,0.1,0.2,0.2c0.1,0.2,0,0.4-0.1,0.5l-0.1-0.1c0-0.1,0.1-0.3,0.1-0.4c0-0.1-0.1-0.1-0.2-0.1
				c-0.1,0-0.3,0.1-0.5,0.2C64.3,24.1,63.9,24.4,63.5,24.4z"/>
			<path d="M68.8,20.5l0-0.1c0.4-0.2,1.1-0.7,1.8-1.1c0.3-0.2,0.5-0.4,0.8-0.5c0.9-0.6,3-1.9,3.7-2.4c0.6-0.4,0.6-0.9,0.6-1.1
				c-1.1,0.8-7.6,3.7-7.8,3.8l0-0.1c0.1,0,7.1-3.2,7.9-3.8l0.1-0.1l0,0.1c0,0,0.2,0.8-0.6,1.3c-0.8,0.5-2.9,1.8-3.7,2.4
				c-0.2,0.2-0.5,0.3-0.8,0.5C70,19.8,69.3,20.3,68.8,20.5z"/>
			<path d="M68.2,19.9L68.2,19.9c0.2-0.3,1-0.7,2-1.1c1-0.4,1.9-0.9,3.1-1.6c1-0.6,0.8-1,0.8-1l0.1-0.1c0,0,0.3,0.5-0.8,1.2
				c-1.2,0.7-2.1,1.2-3.1,1.6C69.2,19.3,68.4,19.7,68.2,19.9z"/>
			<path d="M70.4,18.8L70.4,18.8c0.3-0.3,0.1-0.9,0.1-0.9l0.1,0C70.5,17.9,70.8,18.5,70.4,18.8z"/>
			<path d="M69.6,21L69.6,21c0.5-0.6,2.7-2.1,4.3-3.2c0.8-0.5,1.5-1,1.8-1.2c0.7-0.5,0.7-1.2,0.7-1.4l-0.7,0.5l-0.1-0.1l0.9-0.6
				l0,0.1c0,0,0.1,1-0.8,1.6c-0.3,0.2-1,0.7-1.8,1.2C72.4,18.9,70.1,20.4,69.6,21z"/>
			<path d="M75.5,17.8L75.5,17.8l1.1-1.4c-0.2,0-0.4,0-0.5,0l0-0.1c0,0,0.4-0.1,0.6,0l0.1,0l0,0.1L75.5,17.8z"/>
			<path d="M71.2,22.4L71.2,22.4c1.3-1,2.4-2.3,3.2-3.4c0.3-0.3,1-1,1.2-1.3c-1.4,0.1-5.6,3.7-5.6,3.7L70,21.4
				c0.2-0.2,4.5-3.9,5.8-3.7l0.1,0l-0.1,0.1c0,0-1,1-1.3,1.4C73.7,20.2,72.6,21.5,71.2,22.4z"/>
			<path d="M70.7,22L70.7,22c0.8-1.1,3.6-2.7,3.7-2.8l0.1,0.1C74.4,19.3,71.6,20.9,70.7,22z"/>
			<path d="M72.7,21.4c-0.1,0-0.2,0-0.2,0l0-0.1c0.1,0,0.5,0,1.1-0.1c0.5-0.1,0.9-0.4,1-0.6l-1.4,0l0-0.1l1.7,0l-0.1,0.1
				c0,0-0.4,0.6-1.2,0.7C73.3,21.4,72.9,21.4,72.7,21.4z"/>
			<path d="M73.7,22.4l0-0.1c0.2-0.1,0.3-0.3,0.3-0.5c-0.5,0.1-1.7,0-1.8-0.1l0-0.1c0.4,0.1,1.5,0.2,1.8,0l0.1,0v0.1
				C74,21.7,74,22.3,73.7,22.4z"/>
			<path d="M71.8,26L71.8,26c0.1-0.4,0.5-0.6,0.9-0.8c0.3-0.1,0.6-0.3,0.8-0.5c0.5-0.4,1.2-0.2,1.7-0.1c0.1,0,0.2,0.1,0.3,0.1
				c1.2,0.2,2.1,0.2,2.2,0.1c0-0.1,0.2-0.4,0.4-0.7c0.3-0.4,0.5-0.8,0.6-1c0.1-0.4-0.3-1.7-0.8-1.9c-0.3-0.2-2.6,0.6-3.3,1
				c-0.4,0.2-0.9,0.2-1.4,0.3c-0.2,0-0.5,0-0.7,0.1c-0.6,0.1-1-0.4-1-0.4l0.1-0.1c0,0,0.4,0.5,0.9,0.4c0.2,0,0.4-0.1,0.7-0.1
				c0.4,0,0.9,0,1.3-0.2c0.6-0.3,3-1.2,3.4-1c0.5,0.3,1,1.6,0.8,2.1c-0.1,0.3-0.4,0.7-0.6,1c-0.2,0.3-0.4,0.6-0.4,0.7
				c-0.1,0.4-2.1,0.1-2.3,0c-0.1,0-0.2,0-0.3-0.1c-0.5-0.1-1.2-0.3-1.7,0c-0.3,0.2-0.6,0.3-0.9,0.5C72.4,25.5,72,25.7,71.8,26z"/>
			<path d="M71.8,22.1l-0.1,0c0.1-0.4-0.5-0.5-0.5-0.5l0-0.1C71.4,21.5,71.8,21.7,71.8,22.1z"/>
			<path d="M71.2,21.5L71.2,21.5c0-0.2-0.3-0.5-0.5-0.6l0.1-0.1C70.8,20.9,71.3,21.2,71.2,21.5z"/>
			<path d="M69.8,20L69.8,20c0.1-0.3-0.1-0.8-0.1-1l0.1,0C69.8,19,70.1,19.7,69.8,20z"/>
			<path d="M70.2,20.5l-0.1,0c0,0,0-0.1,0-0.1c-0.1-0.1-0.3-0.3-0.4-0.3l0-0.1c0,0,0.4,0.1,0.5,0.4C70.2,20.3,70.2,20.4,70.2,20.5z"
				/>
			<path d="M66.9,21l-0.1,0c0-0.2,0.1-0.3,0.4-0.4l0,0l0.1,0.1c0,0,0,0,0,0C67,20.8,66.9,20.9,66.9,21z"/>
			<path d="M67,21.4l-0.1,0c0.1-0.2,0.2-0.4,0.4-0.5l0,0.1C67.1,21.1,67.1,21.2,67,21.4z"/>
			<path d="M67.5,21.6c-0.1,0-0.2,0-0.3-0.1l0-0.1c0.3,0.1,0.5,0,0.8-0.1l0,0l0,0.1C67.9,21.5,67.7,21.6,67.5,21.6z"/>
			<path d="M67.6,22.1L67.6,22.1c0.1-0.4,0.6-0.5,0.8-0.4l0,0.1C68.2,21.8,67.8,21.9,67.6,22.1z"/>
			<path d="M68,24.3l-0.1,0c0.1-0.3,0.4-0.7,0.8-0.9l0,0.1C68.4,23.6,68.1,24,68,24.3z"/>
			<path d="M68.2,24.6C68.2,24.6,68.2,24.6,68.2,24.6l0-0.1c0.2,0,0.5-0.2,0.6-0.4l0.1,0C68.8,24.3,68.5,24.6,68.2,24.6z"/>
			<path d="M68.7,24.9L68.7,24.9c0-0.1,0.1-0.2,0.1-0.2c0.2-0.2,0.5-0.3,0.8-0.3l0,0.1c-0.3,0-0.5,0.1-0.8,0.3
				C68.9,24.9,68.8,24.9,68.7,24.9z"/>
			<path d="M69.3,25L69.3,25c0.2-0.3,0.5-0.4,0.6-0.3l-0.1,0.1C69.7,24.7,69.4,24.9,69.3,25z"/>
			<path d="M71,24l-0.1,0c0.1-0.1,0.2-0.2,0.4-0.2c0.2,0,0.3,0,0.4,0.1l-0.1,0.1c-0.1-0.1-0.2-0.1-0.3-0.1
				C71.2,23.8,71.1,23.9,71,24z"/>
			<path d="M71.8,23L71.8,23c0.1-0.3,0.2-0.6,0.2-0.8l0.1,0C72.1,22.4,72.1,22.7,71.8,23z"/>
			<path d="M72.6,24.5L72.6,24.5c0-0.2,0.1-0.2,0.1-0.3c0-0.1,0-0.2-0.1-0.3l0.1-0.1c0.1,0.1,0.1,0.2,0.1,0.3
				C72.8,24.3,72.7,24.4,72.6,24.5z"/>
			<path d="M77.3,23.5L77.3,23.5c0.2-0.3,0.5-0.4,0.7-0.4c0.1,0,0.3,0,0.4-0.1l0,0.1c-0.2,0.1-0.3,0.1-0.5,0.1
				C77.8,23.2,77.5,23.2,77.3,23.5z"/>
			<path d="M76.4,23.6L76.4,23.6c0.1-0.4,0.5-0.5,0.8-0.6l0,0l0,0.1l0,0C76.9,23.2,76.6,23.3,76.4,23.6z"/>
			<path d="M76.3,23.9l0-0.1c0.3-0.1,0.6-0.2,1-0.2c0.3,0,0.5,0,0.8-0.1l0,0.1c-0.3,0.1-0.5,0.1-0.8,0.1
				C76.9,23.8,76.6,23.8,76.3,23.9z"/>
			<path d="M77,24.3l0-0.1c0.3,0,0.5-0.1,0.8-0.2l0,0.1C77.6,24.3,77.3,24.3,77,24.3z"/>
			<path d="M76.6,24.3L76.6,24.3c-0.4,0-0.7,0-1-0.1l0-0.1c0.3,0.1,0.6,0.1,0.9,0.1l0.1,0L76.6,24.3z"/>
			<path d="M70.9,30.5c0,0-0.1,0-0.1,0l0-0.1c0.4,0.1,0.7-0.4,0.7-0.6c0,0,0-0.1,0-0.1c0-0.2,0.1-0.3,0.3-0.5
				c0.3-0.2,0.4-0.7,0.5-0.8c0-0.2,0.2-0.3,0.4-0.4c0.1-0.1,0.3-0.2,0.4-0.3c0.2-0.2,0.1-0.6-0.2-0.9c-0.3-0.3-2.3-1.4-2.8-1.7
				l0.1-0.1c0,0,2.5,1.4,2.8,1.7c0.4,0.4,0.5,0.8,0.3,1.1c-0.1,0.1-0.2,0.2-0.4,0.3c-0.2,0.1-0.3,0.2-0.4,0.4c0,0.2-0.2,0.7-0.5,0.9
				c-0.2,0.2-0.2,0.2-0.3,0.4c0,0,0,0.1,0,0.1C71.6,30.1,71.4,30.5,70.9,30.5z"/>
			<path d="M70.1,30.1l-0.1,0c0,0,0.5-1.6,0.5-2c0-0.2,0-0.8-0.6-1.1c-0.5-0.3-1.5-0.8-1.8-1c-0.3-0.1-0.8-0.2-1-0.1l0-0.1
				c0.3-0.1,0.8-0.1,1.1,0.1c0.3,0.1,1.4,0.7,1.8,1c0.6,0.3,0.6,1,0.6,1.2C70.6,28.5,70.1,30,70.1,30.1z"/>
			<path d="M63,28.6c-0.1,0-0.2,0-0.2,0l0-0.1c0,0,0.3,0.1,0.6-0.1c0.2-0.1,0.3-0.2,0.5-0.4c0.2-0.2,0.4-0.4,0.6-0.4
				c0.3-0.1,1-0.4,1.2-0.6c0.2-0.3,0.5-0.5,0.8-0.5v0.1c-0.3,0-0.6,0.2-0.7,0.5c-0.2,0.3-0.9,0.6-1.2,0.7c-0.2,0.1-0.4,0.2-0.6,0.4
				c-0.2,0.2-0.3,0.3-0.5,0.4C63.3,28.6,63.1,28.6,63,28.6z"/>
			<path d="M68.7,30.6l-0.1,0c0-0.3,0.3-0.8,0.5-1.3c0.2-0.4,0.3-0.7,0.4-0.9c0.1-0.3-0.4-1.3-0.6-1.7c-0.7,0.3-2.9,0.1-3,0.1l0-0.1
				c0,0,2.3,0.1,3-0.1l0,0l0,0c0,0.1,0.7,1.4,0.6,1.9c0,0.2-0.2,0.5-0.4,0.9C68.9,29.9,68.7,30.4,68.7,30.6z"/>
			<path d="M66.3,26.5c-0.1-0.1-0.3-0.2-0.5-0.2l-0.1,0l0.2-0.1c0.1-0.1,0.2-0.2,0.3-0.3c-0.1,0-0.2,0-0.4,0c-0.1,0-0.1,0-0.2,0
				l-0.1,0l0-0.1c0-0.2,0.1-0.4,0.2-0.5c0,0-0.1,0-0.1,0.1c-0.2,0.1-0.3,0.1-0.5,0.2l-0.1,0l0-0.1c0-0.1,0-0.3,0-0.4
				c-0.2,0-0.4,0.1-0.6,0.2l-0.1,0.1l0-0.1c0-0.2,0.1-0.4,0.2-0.6l0.1,0.1c-0.1,0.1-0.2,0.3-0.2,0.5c0.2-0.1,0.4-0.2,0.7-0.2l0.1,0
				l0,0.1c0,0.1-0.1,0.3,0,0.4c0.1,0,0.3-0.1,0.4-0.2c0.1-0.1,0.2-0.1,0.4-0.2l0.1,0.1c-0.2,0.1-0.3,0.3-0.3,0.6c0,0,0.1,0,0.1,0
				c0.2,0,0.4,0,0.5,0l0.1,0l-0.1,0.1c-0.2,0.1-0.3,0.2-0.4,0.4l0,0C66.2,26.3,66.3,26.4,66.3,26.5L66.3,26.5z"/>
			<path d="M70.2,31.9c-0.1,0-0.2,0-0.3,0c-0.3,0-0.3-0.3-0.3-0.4c0,0,0-0.1,0-0.1c0,0,0,0,0,0c-0.4,0-0.7-0.1-0.7-0.6
				c0-0.4,0.2-0.7,0.3-0.7c0.1,0,0.4-0.1,1.1-0.1c0.2,0,0.4,0.1,0.6,0.3c0.1,0.1,0.1,0.2,0.1,0.3c0,0.2-0.1,0.3-0.2,0.3l0,0
				c-0.1,0-0.1,0.1-0.1,0.1c0,0.1,0,0.1,0,0.2c0,0.1,0,0.2,0,0.2c0,0,0.1,0.1,0.2,0.1c0,0,0.1,0,0.1,0c0.1,0,0.1,0.1,0.1,0.1
				C71,31.8,70.6,31.9,70.2,31.9z M70.3,30.1c-0.2,0-1,0-1.1,0c-0.1,0-0.3,0.3-0.2,0.6c0,0.3,0.2,0.5,0.6,0.5c0,0,0.1,0,0.1,0
				c0,0,0,0.1,0,0.2c0,0.2,0,0.2,0.2,0.3c0.1,0,0.2,0,0.3,0c0.3,0,0.5-0.1,0.6-0.1c-0.1,0-0.2,0-0.3-0.1c-0.1-0.1,0-0.2,0-0.3
				c0,0,0-0.1,0-0.1c0-0.1,0.1-0.2,0.1-0.2l0,0c0.1-0.1,0.1-0.1,0.2-0.3c0-0.1,0-0.2-0.1-0.2C70.6,30.2,70.4,30.1,70.3,30.1z"/>
			<path d="M68.8,34.2C68.8,34.2,68.7,34.2,68.8,34.2c-0.2,0-0.3-0.2-0.4-0.3c0,0,0-0.1-0.1-0.1c0,0,0,0,0,0.1
				c-0.1,0.1-0.1,0.3-0.4,0.3c-0.2,0-0.3-0.1-0.3-0.2c0-0.1,0-0.1-0.1-0.1c0,0,0,0-0.1,0.1c-0.1,0.1-0.1,0.2-0.3,0.2
				c-0.1,0-0.2-0.1-0.3-0.2c-0.2-0.2-0.2-0.6-0.2-0.8c0.1-0.4,0.8-0.8,1.4-0.8c0-0.2,0.2-0.7,0.3-1.1l0.1,0
				c-0.1,0.4-0.3,1.1-0.3,1.1l0,0h0c-0.6,0-1.2,0.4-1.3,0.7c0,0.2,0,0.6,0.1,0.7c0.1,0.1,0.1,0.1,0.2,0.1c0.1,0,0.2-0.1,0.2-0.1
				c0-0.1,0.1-0.1,0.2-0.1c0.1,0,0.1,0.1,0.2,0.1c0,0.1,0.1,0.2,0.2,0.1c0.2,0,0.2-0.2,0.3-0.3c0-0.1,0.1-0.2,0.1-0.1
				c0,0,0.1,0.1,0.1,0.1c0.1,0.1,0.2,0.2,0.3,0.2c0.1,0,0.1,0,0.2,0c0.1-0.1,0.2-0.2,0.2-0.6c0-0.6,0.4-1.8,0.5-1.8l0.1,0
				c0,0-0.4,1.2-0.5,1.8c0,0.4-0.1,0.6-0.2,0.7C68.9,34.2,68.9,34.2,68.8,34.2z"/>
			<path d="M62.8,29.4l-0.1-0.1c-0.4-0.2-0.5-0.5-0.6-1c0-0.4,0.5-1,0.5-1l0.1,0.1c-0.2,0.2-0.5,0.7-0.5,0.9c0,0.4,0.1,0.6,0.4,0.8
				c0-0.2,0-0.5,0.2-0.7c0.3-0.3,0.5-0.5,0.5-0.6l0.1,0c0,0.1-0.1,0.7-0.3,0.7l0-0.1c0.1,0,0.2-0.2,0.2-0.4
				c-0.2,0.2-0.4,0.4-0.4,0.4c-0.2,0.1-0.1,0.6-0.1,0.7L62.8,29.4z"/>
			<path d="M63.6,28c-0.1,0-0.2,0-0.3-0.1c-0.2-0.2-0.7-0.5-0.7-0.5l0.1-0.1c0,0,0.6,0.3,0.7,0.5c0.1,0.2,0.5,0.1,0.7-0.1l0.1,0.1
				C64,27.9,63.8,28,63.6,28z"/>
			<g>
				<path d="M63.2,26.9c0,0,0.7-0.4,0.7-0.7c0,0-0.4,0.5-0.3,0.6C63.7,26.9,63.2,26.9,63.2,26.9z"/>
				<path d="M63.4,27c-0.1,0-0.2,0-0.2,0l-0.2,0l0.1-0.1c0,0,0.3-0.2,0.5-0.4c0.1-0.1,0.2-0.3,0.2-0.3l0.1,0c0,0.1-0.1,0.2-0.2,0.3
					c-0.1,0.2-0.1,0.3-0.1,0.3c0,0,0,0.1,0,0.1C63.7,26.9,63.6,27,63.4,27z"/>
			</g>
		</g>
	</g>
</g>
</svg>
