<?xml version="1.0" encoding="utf-8"?>
<!-- Generator: Adobe Illustrator 22.1.0, SVG Export Plug-In . SVG Version: 6.00 Build 0)  -->
<svg version="1.1" id="Layer_1" xmlns="http://www.w3.org/2000/svg" xmlns:xlink="http://www.w3.org/1999/xlink" x="0px" y="0px"
	 viewBox="0 0 85 56.7" style="enable-background:new 0 0 85 56.7;" xml:space="preserve">
<style type="text/css">
	.st0{fill:#2E3192;}
	.st1{fill:#FFFFFF;}
	.st2{fill:#ED1C24;}
</style>
<g>
	<g>
		<rect x="2.7" y="5.3" class="st0" width="78.1" height="46.1"/>
		<polygon class="st1" points="2.7,5.3 7.3,5.3 20,14.1 20,5.3 25.7,5.3 25.7,15.1 40,5.3 42.8,5.3 42.8,8.7 31.1,16.5 42.7,16.5 
			42.7,22 29.8,22 42.7,31.3 36.8,31.3 25.6,23.9 25.6,31.3 20,31.3 20,23.2 7.7,31.3 2.7,31.3 2.7,29.7 14,22 2.7,22 2.7,16.5 
			16.4,16.5 2.7,7.3 		"/>
		<polygon class="st2" points="20.2,16.5 3.8,5.3 2.7,5.3 2.7,6.1 18.1,16.5 		"/>
		<polygon class="st2" points="25.5,16.5 42,5.3 42.8,5.3 42.8,6.3 27.6,16.5 		"/>
		<polygon class="st2" points="28.3,22 41.4,31.3 39.3,31.3 26.2,21.9 		"/>
		<polygon class="st2" points="20,22 6.1,31.3 3.8,31.3 17.9,22 		"/>
		<rect x="2.7" y="17.5" class="st2" width="40.1" height="3.4"/>
		<rect x="21.2" y="5.3" class="st2" width="3.4" height="26"/>
	</g>
	<polygon class="st1" points="21,38.7 22.4,35.7 23.8,38.7 26.9,37.9 25.5,40.8 28,42.8 24.9,43.5 24.9,46.8 22.4,44.7 19.9,46.7 
		19.9,43.5 16.8,42.8 19.3,40.8 17.9,37.9 	"/>
	<polygon class="st1" points="51.1,25.2 52.2,23 53.3,25.2 55.7,24.7 54.6,26.9 56.6,28.5 54.1,29.1 54.1,31.6 52.2,30 50.2,31.6 
		50.2,29 47.7,28.5 49.7,26.9 48.6,24.6 	"/>
	<polygon class="st1" points="60.7,11.7 61.8,9.4 62.8,11.7 65.3,11.1 64.2,13.4 66.1,15 63.7,15.5 63.7,18 61.7,16.4 59.7,18 
		59.8,15.5 57.3,14.9 59.3,13.4 58.2,11.1 	"/>
	<polygon class="st1" points="72,20.5 73.1,18.2 74.2,20.5 76.6,19.9 75.5,22.2 77.5,23.8 75,24.3 75,26.8 73.1,25.2 71.1,26.8 
		71.1,24.3 68.6,23.7 70.6,22.2 69.5,19.9 	"/>
	<polygon class="st1" points="66.8,30.2 67.6,28 68.3,30.2 70.7,30.3 68.8,31.7 69.5,34 67.5,32.6 65.6,34 66.3,31.7 64.4,30.2 	"/>
	<polygon class="st1" points="60.5,40.5 61.6,38.2 62.7,40.5 65.1,39.9 64,42.2 66,43.8 63.5,44.3 63.5,46.8 61.6,45.2 59.6,46.8 
		59.6,44.3 57.2,43.7 59.1,42.2 58,39.9 	"/>
</g>
</svg>
