<?xml version="1.0" encoding="utf-8"?>
<!-- Generator: Adobe Illustrator 22.1.0, SVG Export Plug-In . SVG Version: 6.00 Build 0)  -->
<svg version="1.1" id="Layer_1" xmlns="http://www.w3.org/2000/svg" xmlns:xlink="http://www.w3.org/1999/xlink" x="0px" y="0px"
	 viewBox="0 0 85 56.7" style="enable-background:new 0 0 85 56.7;" xml:space="preserve">
<style type="text/css">
	.st0{fill:#2E3192;}
	.st1{fill:#FFFFFF;}
	.st2{fill:#ED1C24;}
</style>
<g>
	<g>
		<rect x="2.9" y="5.3" class="st0" width="78.1" height="46.1"/>
		<polygon class="st1" points="2.9,5.3 7.5,5.3 20.2,14 20.2,5.3 25.9,5.3 25.9,15 40.3,5.3 43,5.3 43,8.7 31.3,16.4 43,16.4 
			43,21.9 30,21.9 42.9,31.3 37,31.3 25.8,23.8 25.8,31.3 20.2,31.3 20.2,23.1 7.9,31.3 2.9,31.3 2.9,29.6 14.2,21.9 2.9,21.9 
			2.9,16.4 16.6,16.4 2.9,7.2 		"/>
		<polygon class="st2" points="20.4,16.4 4,5.3 2.9,5.3 2.9,6.1 18.3,16.4 		"/>
		<polygon class="st2" points="25.7,16.4 42.2,5.3 43,5.3 43,6.3 27.8,16.4 		"/>
		<polygon class="st2" points="28.5,21.9 41.6,31.3 39.5,31.3 26.4,21.9 		"/>
		<polygon class="st2" points="20.2,21.9 6.3,31.3 4.1,31.3 18.1,21.9 		"/>
		<rect x="2.9" y="17.4" class="st2" width="40.1" height="3.4"/>
		<rect x="21.4" y="5.3" class="st2" width="3.4" height="26"/>
	</g>
	<g>
		<path class="st1" d="M62.1,20.8l0.5-1.9l0,0l0.7,1.8l2-0.1l0,0l-1.5,1.2l0.7,1.8l0,0l-1.7-1.1l-1.6,1.3l0,0l0.5-1.9l-1.6-1l0,0
			L62.1,20.8z"/>
		<path class="st1" d="M56.9,22.5l-0.4-1.9l0,0l1.5,1.3l1.7-1l0,0l-0.8,1.8l1.5,1.3l0,0l-2-0.2l-0.8,1.8l0,0l-0.4-1.9l-1.9-0.2l0,0
			L56.9,22.5z"/>
		<path class="st1" d="M53,26.2l-1.1-1.7l0,0l1.9,0.7l1.2-1.6l0,0l-0.1,2l1.8,0.7l0,0l-1.9,0.5l-0.1,2l0,0l-1.1-1.7l-1.9,0.5l0,0
			L53,26.2z"/>
		<path class="st1" d="M50.9,31l-1.7-1l0,0l2-0.2l0.4-1.9l0,0l0.8,1.8l2-0.2l0,0l-1.5,1.3l0.8,1.8l0,0l-1.7-1l-1.5,1.3l0,0L50.9,31z
			"/>
		<path class="st1" d="M50.8,36.3l-2-0.3l0,0l1.8-0.9l-0.3-2l0,0l1.4,1.4l1.7-0.9l0,0l-0.9,1.8l1.4,1.4l0,0l-2-0.3l-0.9,1.7l0,0
			L50.8,36.3z"/>
		<path class="st1" d="M52,40.1l-1.1-1.6l0,0l1.9,0.6l1.2-1.6l0,0l-0.1,2l1.9,0.6l0,0l-1.9,0.6l0,2l0,0l-1.1-1.6l-1.9,0.6l0,0
			L52,40.1z"/>
		<path class="st1" d="M55.5,44.1l-1.7-1.1l0,0l2-0.1l0.5-1.9l0,0l0.7,1.8l2-0.1l0,0L57.5,44l0.7,1.9l0,0l-1.7-1.1L55,46l0,0
			L55.5,44.1z"/>
		<path class="st1" d="M60.3,46.4l-2-0.3l0,0l1.8-0.9l-0.3-2l0,0l1.4,1.4l1.7-0.9l0,0L62,45.5l1.4,1.4l0,0l-2-0.3l-0.9,1.7l0,0
			L60.3,46.4z"/>
		<path class="st1" d="M67.1,45.1l1.8,0.8l0,0L67,46.3l-0.2,2l0,0l-0.9-1.7L63.9,47l0,0l1.4-1.4l-1-1.8l0,0l1.8,0.8l1.3-1.4l0,0
			L67.1,45.1z"/>
		<path class="st1" d="M71.3,42.5l2,0l0,0l-1.6,1.2l0.7,1.9l0,0l-1.6-1.1l-1.6,1.2l0,0l0.6-1.9l-1.6-1.1l0,0l2,0l0.6-1.9l0,0
			L71.3,42.5z"/>
		<path class="st1" d="M74.1,38.5l1.8-0.9l0,0L75,39.4l1.4,1.4l0,0l-1.9-0.3l-0.9,1.8l0,0l-0.3-2l-2-0.3l0,0l1.8-0.9l-0.3-1.9l0,0
			L74.1,38.5z"/>
		<path class="st1" d="M75.3,33.6l1.3-1.5l0,0l-0.1,2l1.8,0.8l0,0l-1.9,0.4l-0.1,2l0,0l-1-1.7L73.2,36l0,0l1.3-1.5l-1-1.7l0,0
			L75.3,33.6z"/>
		<path class="st1" d="M75.3,28.8l2-0.1l0,0l-1.5,1.3l0.8,1.8l0,0l-1.7-1.1L73.3,32l0,0l0.5-1.9L72.1,29l0,0l2-0.1l0.5-1.9l0,0
			L75.3,28.8z"/>
		<path class="st1" d="M72.2,24.3l1.8-0.9l0,0L73,25.2l1.4,1.4l0,0l-1.9-0.4L71.6,28l0,0l-0.2-2l-2-0.4l0,0l1.8-0.8l-0.3-1.9l0,0
			L72.2,24.3z"/>
		<path class="st1" d="M67.5,21.5l1.2-1.5l0,0l-0.1,2l1.9,0.7l0,0l-1.9,0.5l-0.1,2l0,0l-1.1-1.7L65.6,24l0,0l1.2-1.5l-1.1-1.6l0,0
			L67.5,21.5z"/>
	</g>
</g>
</svg>
