<?xml version="1.0" encoding="utf-8"?>
<!-- Generator: Adobe Illustrator 22.1.0, SVG Export Plug-In . SVG Version: 6.00 Build 0)  -->
<svg version="1.1" id="Layer_1" xmlns="http://www.w3.org/2000/svg" xmlns:xlink="http://www.w3.org/1999/xlink" x="0px" y="0px"
	 viewBox="0 0 85 56.7" style="enable-background:new 0 0 85 56.7;" xml:space="preserve">
<style type="text/css">
	.st0{fill:#00C0F3;}
	.st1{fill:#ED1C24;}
	.st2{fill:#FFFFFF;}
	.st3{fill:url(#SVGID_1_);}
	.st4{fill:url(#SVGID_2_);}
	.st5{fill:url(#SVGID_3_);}
	.st6{fill:url(#SVGID_4_);}
	.st7{fill:url(#SVGID_5_);}
	.st8{fill:url(#SVGID_6_);}
	.st9{fill:url(#SVGID_7_);}
	.st10{fill:url(#SVGID_8_);}
	.st11{fill:url(#SVGID_9_);}
	.st12{fill:url(#SVGID_10_);}
	.st13{fill:url(#SVGID_11_);}
	.st14{fill:url(#SVGID_12_);}
	.st15{fill:url(#SVGID_13_);}
	.st16{fill:url(#SVGID_14_);}
	.st17{fill:url(#SVGID_15_);}
	.st18{fill:url(#SVGID_16_);}
	.st19{fill:url(#SVGID_17_);}
	.st20{fill:url(#SVGID_18_);}
	.st21{fill:url(#SVGID_19_);}
	.st22{fill:url(#SVGID_20_);}
	.st23{fill:url(#SVGID_21_);}
	.st24{fill:url(#SVGID_22_);}
	.st25{fill:url(#SVGID_23_);}
	.st26{fill:url(#SVGID_24_);}
	.st27{fill:url(#SVGID_25_);}
	.st28{fill:url(#SVGID_26_);}
	.st29{fill:url(#SVGID_27_);}
	.st30{fill:url(#SVGID_28_);}
	.st31{fill:url(#SVGID_29_);}
	.st32{fill:url(#SVGID_30_);}
	.st33{fill:url(#SVGID_31_);}
	.st34{fill:url(#SVGID_32_);}
	.st35{fill:url(#SVGID_33_);}
	.st36{fill:url(#SVGID_34_);}
	.st37{fill:url(#SVGID_35_);}
	.st38{fill:url(#SVGID_36_);}
	.st39{fill:url(#SVGID_37_);}
	.st40{fill:url(#SVGID_38_);}
	.st41{fill:url(#SVGID_39_);}
	.st42{fill:url(#SVGID_40_);}
	.st43{fill:url(#SVGID_41_);}
	.st44{fill:url(#SVGID_42_);}
	.st45{fill:url(#SVGID_43_);}
	.st46{fill:url(#SVGID_44_);}
	.st47{fill:url(#SVGID_45_);}
	.st48{fill:url(#SVGID_46_);}
	.st49{fill:url(#SVGID_47_);}
	.st50{fill:url(#SVGID_48_);}
	.st51{fill:url(#SVGID_49_);}
	.st52{fill:#2E3192;}
</style>
<g>
	<rect x="3.6" y="5" class="st0" width="78.1" height="46.1"/>
	<g>
		<path class="st1" d="M48.7,12.9H76c0,0,0,18.1,0,20.8c0,3.5-3,10.2-13.6,14.4c0,0-13.7-5.2-13.7-14.5
			C48.7,24.4,48.7,12.9,48.7,12.9z"/>
		<path d="M62.4,48.2L62.4,48.2c-0.1,0-3.5-1.4-6.9-3.8c-3.1-2.3-6.9-6-6.9-10.8c0-9.1,0.1-20.7,0.1-20.8l0-0.1H76v20.9
			C76,37.1,73.2,43.9,62.4,48.2L62.4,48.2z M48.8,12.9c0,1-0.1,12-0.1,20.7c0,8.9,12.9,14.1,13.6,14.4C73,43.8,75.9,37,75.9,33.7
			V12.9H48.8z"/>
	</g>
	<rect x="48.7" y="22.1" class="st2" width="11.2" height="8.5"/>
	<polyline class="st2" points="75.9,30.5 64.7,30.5 64.7,22 75.9,22 	"/>
	<path class="st2" d="M75.7,35.3c0,0-0.7,6.7-11,11.8V35.3L75.7,35.3z"/>
	<path class="st2" d="M60,35.3v11.6c0,0-9.7-4.3-11.1-11.6L60,35.3z"/>
	<g>
		<polygon class="st2" points="51.7,17.4 52.2,17.4 52.2,17.8 52.6,17.8 52.6,19 52.3,19 52.3,19.4 52.3,19.9 51,19.9 51,19.5 
			51,19 50.8,19 50.8,17.8 51.1,17.8 51.1,17.4 		"/>
		<path d="M52.4,20h-1.5l0-1h-0.2v-1.3H51v-0.5h1.2v0.5h0.4v1.3h-0.3V20z M51.1,19.8h1.2v-0.9h0.3v-1h-0.4v-0.5h-0.9v0.5h-0.3v1h0.2
			L51.1,19.8z"/>
	</g>
	<g>
		<linearGradient id="SVGID_1_" gradientUnits="userSpaceOnUse" x1="50.349" y1="20.2771" x2="56.4497" y2="20.2771">
			<stop  offset="0" style="stop-color:#DE9D14"/>
			<stop  offset="1" style="stop-color:#FFD24C"/>
		</linearGradient>
		<path class="st3" d="M54.6,20.3c-0.8,0.9-1.8,0.3-1.8,0.3l0-0.7h-0.3v-0.5c-0.2-0.1-0.4,0.4-0.4,0.4h-0.4v-0.4
			c-0.3,0-0.4,0.4-0.4,0.4H51v-0.3h-0.6c0,1.2,1,0.9,1,0.9c0.1,0.5,1,0.4,1,0.4s0.5,0.4,1.4,0.5c1.1,0,2-0.7,2-0.7
			c0.3-0.2,0.8-0.8,0.8-0.8L55,19.2C55,19.2,54.9,20,54.6,20.3z"/>
		<path d="M53.7,21.5L53.7,21.5c-0.8,0-1.4-0.4-1.5-0.5c0,0-0.1,0-0.1,0c-0.3,0-0.7-0.1-0.9-0.4c-0.1,0-0.1,0-0.2,0
			c-0.3,0-0.8-0.1-0.8-1v-0.1h0.8v0.3h0.2c0-0.2,0.2-0.4,0.5-0.4l0.1,0v0.4h0.3c0.1-0.2,0.3-0.5,0.5-0.4l0.1,0v0.4h0.3l0,0.7
			c0.1,0,0.3,0.1,0.6,0.1c0.4,0,0.7-0.2,1-0.5c0.2-0.3,0.4-1.1,0.4-1.1l0-0.1l1.6,0.8l-0.1,0.1c0,0-0.5,0.6-0.8,0.8
			C55.7,20.8,54.9,21.5,53.7,21.5z M52.3,20.9L52.3,20.9c0,0,0.6,0.4,1.4,0.5l0.1,0c1.1,0,1.9-0.7,1.9-0.7c0.2-0.2,0.6-0.6,0.7-0.7
			l-1.3-0.6c0,0.2-0.2,0.8-0.4,1c-0.3,0.3-0.7,0.5-1.1,0.5c-0.4,0-0.7-0.2-0.7-0.2l0,0l0-0.6h-0.3v-0.4c-0.1,0.1-0.2,0.2-0.3,0.4
			l0,0h-0.6v-0.4c-0.2,0-0.2,0.3-0.2,0.3l0,0.1h-0.5v-0.3h-0.5c0,0.6,0.4,0.8,0.6,0.8c0.1,0,0.2,0,0.2,0l0.1,0l0,0.1
			C51.5,20.9,52.3,20.9,52.3,20.9L52.3,20.9z"/>
	</g>
	<g>
		<linearGradient id="SVGID_2_" gradientUnits="userSpaceOnUse" x1="51.1155" y1="16.7924" x2="55.4548" y2="16.7924">
			<stop  offset="0" style="stop-color:#DE9D14"/>
			<stop  offset="1" style="stop-color:#FFD24C"/>
		</linearGradient>
		<path class="st4" d="M54,17.2c-0.3-0.7-0.8-0.6-1.1-0.6c-0.3,0.1-0.2,0.5-0.2,0.5s-0.2-0.2-0.2,0.1c-0.1,0.2-0.3,0.2-0.3,0.2v-0.5
			H52v0.6h-0.3v-0.5h-0.1v0.5h-0.5c0,0,0-0.8,0.2-1c0.2-0.3,0.9-0.1,0.9-0.1c0.1-0.3,0.7-0.5,1.1-0.5c0.5,0,1.4,0.7,1.4,0.7
			c0.2,0.2,0.7,0.5,0.7,0.5l-1.3,0.7L54,17.2z"/>
		<path d="M54.1,17.9l-0.2-0.7c-0.1-0.4-0.4-0.6-0.8-0.6c-0.1,0-0.2,0-0.3,0c-0.1,0-0.1,0-0.1,0.1c-0.1,0.1,0,0.3,0,0.3l-0.1,0.1
			c0,0,0,0-0.1,0c0,0,0,0,0,0.1c-0.1,0.3-0.3,0.3-0.4,0.3h-0.1v-0.5h0v0.6l-1,0v-0.1c0,0,0-0.8,0.2-1.1c0.1-0.1,0.3-0.2,0.6-0.2
			c0.2,0,0.3,0,0.4,0c0.2-0.3,0.7-0.5,1.2-0.5c0.5,0,1.4,0.7,1.5,0.8c0.2,0.2,0.7,0.5,0.7,0.5l0.1,0.1L54.1,17.9z M53.1,16.5
			c0.5,0,0.8,0.2,0.9,0.7l0.1,0.5l1.1-0.6c-0.1-0.1-0.4-0.4-0.6-0.5c-0.3-0.2-1-0.7-1.4-0.7c-0.4,0-0.9,0.2-1.1,0.4l0,0.1l-0.1,0
			c0,0-0.2,0-0.4,0c-0.2,0-0.4,0-0.5,0.1c-0.1,0.2-0.1,0.7-0.1,0.9h0.3v-0.5h0.3v0.5h0.1v-0.6h0.3v0.5c0,0,0.1-0.1,0.1-0.1
			c0.1-0.1,0.1-0.2,0.2-0.2l0,0c0-0.1,0-0.2,0-0.3c0-0.1,0.1-0.1,0.2-0.1C52.9,16.5,53,16.5,53.1,16.5z"/>
	</g>
	<g>
		<linearGradient id="SVGID_3_" gradientUnits="userSpaceOnUse" x1="68.5507" y1="18.8433" x2="65.4542" y2="20.9179">
			<stop  offset="0" style="stop-color:#DE9D14"/>
			<stop  offset="1" style="stop-color:#FFD24C"/>
		</linearGradient>
		<path class="st5" d="M69,19c0,0-0.3,0.7-1,0.8c0,0-0.3,0.9,0.1,1.1c0,0-0.4,0.5-1.1,0.2v0.3h-2v0.3h-1.2c0,0,0.1-0.6,0.5-0.6h-0.7
			c0,0,0.1-0.6,0.8-0.5c0,0-0.3-0.5,0.3-0.4c0.7,0,1,0.4,1.1,0.6c0.2,0.2,0.7,0.3,1,0c0.4-0.4,0-1.2,0-1.2l-1,0c0,0,0.4-1.6,1.9-1.5
			C67.8,17.9,69.2,18.8,69,19z"/>
		<path d="M65.1,21.7h-1.4l0-0.1c0,0,0-0.3,0.2-0.5h-0.5l0-0.1c0,0,0.1-0.6,0.7-0.6c0-0.1,0-0.2,0-0.3c0.1-0.1,0.2-0.2,0.4-0.2
			c0,0,0.1,0,0.1,0c0.6,0,0.9,0.4,1.1,0.6l0.1,0.1c0.1,0.1,0.2,0.2,0.4,0.2c0.2,0,0.3-0.1,0.5-0.2c0.3-0.3,0.1-0.9,0-1.1l-1,0l0-0.1
			c0,0,0.4-1.6,1.8-1.6c0.1,0,0.1,0,0.2,0l0,0l0,0c0.4,0.3,1.2,0.9,1.2,1.1c0,0,0,0.1,0,0.1c0,0.1-0.3,0.7-1,0.9
			c-0.1,0.3-0.2,0.9,0.1,1l0.1,0L68.2,21c0,0-0.3,0.3-0.7,0.3c-0.1,0-0.2,0-0.4-0.1v0.2h-2V21.7z M63.9,21.5H65v-0.3h2V21l0.1,0.1
			c0.1,0.1,0.3,0.1,0.4,0.1c0.2,0,0.4-0.1,0.5-0.2c-0.3-0.3-0.1-1,0-1.1l0,0l0,0C68.7,19.6,69,19,69,19l0,0c-0.1-0.1-0.6-0.6-1.1-1
			c0,0-0.1,0-0.1,0c-1.1,0-1.5,1-1.7,1.4l0.9,0l0,0c0,0,0.4,0.9,0,1.3c-0.2,0.2-0.4,0.3-0.6,0.3c-0.2,0-0.4-0.1-0.6-0.2l-0.1-0.1
			c-0.2-0.2-0.5-0.5-1-0.5c-0.2,0-0.3,0-0.3,0.1c0,0.1,0,0.2,0,0.2l0.1,0.1l-0.2,0c0,0,0,0-0.1,0c-0.4,0-0.5,0.2-0.6,0.4h0.6v0.2
			C64.1,21.1,64,21.4,63.9,21.5z"/>
	</g>
	<g>
		<linearGradient id="SVGID_4_" gradientUnits="userSpaceOnUse" x1="71.169" y1="39.4559" x2="72.5967" y2="39.4559">
			<stop  offset="0" style="stop-color:#DE9D14"/>
			<stop  offset="1" style="stop-color:#FFD24C"/>
		</linearGradient>
		<path class="st6" d="M72.5,38.7c-0.1,0-0.5,0-0.5,0.1c-0.1,0.2-0.6,0.7-0.7,0.8c-0.1,0.2,0,0.5,0,0.5s0.3,0,0.4,0c0.1,0,1-1,1-1.1
			C72.6,39,72.6,38.7,72.5,38.7z"/>
		<path d="M71.6,40.3c-0.1,0-0.4,0-0.4,0l-0.1,0l0-0.1c0,0-0.1-0.4,0.1-0.5c0.1-0.1,0.2-0.2,0.3-0.3c0.2-0.2,0.4-0.4,0.4-0.5
			c0.1-0.2,0.3-0.2,0.4-0.2c0.1,0,0.1,0,0.1,0l0,0c0,0,0.1,0,0.1,0c0.1,0.1,0.1,0.3,0,0.4C72.6,39.2,71.7,40.3,71.6,40.3L71.6,40.3z
			 M71.3,40.1c0.1,0,0.3,0,0.3,0c0.1-0.1,0.9-0.9,0.9-1c0-0.1,0-0.2,0-0.3c0,0-0.1,0-0.1,0c-0.1,0-0.3,0-0.3,0.1
			c-0.1,0.1-0.3,0.3-0.5,0.5c-0.1,0.1-0.2,0.3-0.3,0.3C71.2,39.8,71.2,40,71.3,40.1z"/>
	</g>
	<g>
		<linearGradient id="SVGID_5_" gradientUnits="userSpaceOnUse" x1="68.7096" y1="37.1934" x2="68.173" y2="36.8485">
			<stop  offset="0" style="stop-color:#DE9D14"/>
			<stop  offset="1" style="stop-color:#FFD24C"/>
		</linearGradient>
		<path class="st7" d="M69,36.2c0,0.1,0.2,0.4,0,0.6c-0.1,0.1-0.5,0.8-0.6,0.9c-0.1,0.2-0.5,0.2-0.5,0.2s-0.1-0.3-0.1-0.4
			c0-0.1,0.7-1.2,0.8-1.3C68.7,36.2,69,36.1,69,36.2z"/>
		<path d="M67.9,38L67.9,38c0-0.1-0.1-0.4-0.1-0.4c0-0.1,0.7-1.3,0.8-1.3c0.1,0,0.2-0.1,0.3-0.1c0.1,0,0.2,0.1,0.2,0.1
			c0,0,0,0.1,0,0.1c0,0.2,0.1,0.3,0,0.5c-0.1,0.1-0.2,0.3-0.4,0.6c-0.1,0.2-0.2,0.3-0.2,0.4C68.3,37.9,68,38,67.9,38L67.9,38z
			 M67.9,37.5c0,0.1,0.1,0.2,0.1,0.3c0.1,0,0.3-0.1,0.3-0.1c0-0.1,0.1-0.2,0.2-0.4c0.1-0.3,0.3-0.5,0.4-0.6c0.1-0.1,0-0.2,0-0.3
			c0-0.1,0-0.1,0-0.1c0,0,0,0,0,0c-0.1,0-0.2,0-0.3,0.1C68.5,36.4,68,37.4,67.9,37.5z"/>
	</g>
	<g>
		<linearGradient id="SVGID_6_" gradientUnits="userSpaceOnUse" x1="65.6786" y1="44.0022" x2="67.9983" y2="44.0022">
			<stop  offset="0" style="stop-color:#672B1B"/>
			<stop  offset="1" style="stop-color:#F36E41"/>
		</linearGradient>
		<path class="st8" d="M68,43.4c0,0.2-0.3,0-0.5,0.1c-0.2,0.1,0,0.3,0,0.3s0.2,0.8-0.2,1.1c-0.4,0.2-1.2,0.5-1.5,0.5
			c-0.3,0-0.2-1-0.1-1.3c0.1-0.3,0.7-0.6,1-0.6c0.2,0,0.2-0.4,0.2-0.6C66.9,42.6,68,42.7,68,43.4z"/>
		<path d="M65.9,45.4C65.9,45.4,65.9,45.4,65.9,45.4c-0.1,0-0.2,0-0.2-0.1c-0.2-0.3-0.1-1.1,0-1.3c0.1-0.4,0.7-0.7,1-0.7
			c0,0,0,0,0,0c0,0,0,0,0,0c0,0,0,0,0.1,0c0.1-0.1,0-0.3,0-0.5l0,0c0,0,0-0.1,0-0.1c0,0,0.1-0.1,0.2-0.1c0.3,0,1,0.2,1,0.7
			c0,0,0,0.1,0,0.1c0,0-0.1,0.1-0.2,0.1c0,0-0.1,0-0.1,0c0,0-0.1,0-0.1,0c-0.1,0-0.1,0-0.2,0c0,0,0,0,0,0c0,0,0,0.1,0.1,0.1l0,0l0,0
			c0,0,0.2,0.9-0.2,1.1C67,45.1,66.3,45.4,65.9,45.4z M66.7,43.4c-0.3,0-0.8,0.3-0.9,0.5c-0.1,0.3-0.1,1,0,1.2c0,0,0,0,0.1,0
			c0,0,0,0,0,0c0.3,0,1-0.3,1.4-0.5c0.3-0.2,0.2-0.7,0.1-0.9c0,0-0.1-0.1-0.1-0.3c0,0,0-0.1,0.1-0.2c0.1,0,0.2,0,0.2,0
			c0,0,0.1,0,0.1,0c0,0,0,0,0.1,0c0,0,0,0,0,0c0-0.4-0.6-0.6-0.8-0.6c0,0-0.1,0-0.1,0l0,0c0,0.2,0,0.4-0.1,0.6
			C66.9,43.4,66.8,43.4,66.7,43.4L66.7,43.4L66.7,43.4L66.7,43.4z"/>
	</g>
	<g>
		<linearGradient id="SVGID_7_" gradientUnits="userSpaceOnUse" x1="70.0775" y1="38.6477" x2="71.6134" y2="38.6477">
			<stop  offset="0" style="stop-color:#DE9D14"/>
			<stop  offset="1" style="stop-color:#FFD24C"/>
		</linearGradient>
		<path class="st9" d="M71.5,37.8c-0.1,0-0.5-0.1-0.6,0.2c-0.1,0.2-0.7,0.8-0.8,1c-0.1,0.2,0,0.6,0,0.6s0.4,0,0.4,0
			c0.1,0,1-1.1,1.1-1.3C71.6,38.1,71.6,37.8,71.5,37.8z"/>
		<path d="M70.6,39.6L70.6,39.6L70.6,39.6c-0.1,0-0.4,0-0.4,0l-0.1,0l0-0.1c0,0-0.1-0.4,0-0.6c0.1-0.1,0.2-0.2,0.3-0.4
			c0.2-0.2,0.4-0.5,0.5-0.6c0.1-0.2,0.3-0.2,0.5-0.2h0c0.1,0,0.1,0,0.1,0l0,0c0,0,0.1,0,0.1,0c0.1,0.1,0.1,0.4,0.1,0.5
			C71.7,38.3,70.7,39.6,70.6,39.6z M70.2,39.4c0.1,0,0.3,0,0.4,0c0.1-0.1,1-1.1,1-1.2c0-0.1,0-0.3,0-0.4c0,0-0.1,0-0.1,0h0
			c-0.1,0-0.3,0-0.3,0.1c-0.1,0.1-0.3,0.4-0.5,0.6c-0.1,0.2-0.3,0.3-0.3,0.4C70.1,39.1,70.2,39.3,70.2,39.4z"/>
	</g>
	<g>
		<linearGradient id="SVGID_8_" gradientUnits="userSpaceOnUse" x1="65.9107" y1="41.2191" x2="66.6994" y2="41.2191">
			<stop  offset="0" style="stop-color:#DE9D14"/>
			<stop  offset="1" style="stop-color:#FFD24C"/>
		</linearGradient>
		<path class="st10" d="M66.7,40.4c0-0.1-0.3-0.5-0.6-0.1c-0.3,0.4-0.3,1.7-0.1,2c0.2,0.2,0.3,0.2,0.3,0.2L66.7,40.4z"/>
		<path d="M66.3,42.4L66.3,42.4c-0.1,0-0.2-0.1-0.3-0.2c-0.3-0.3-0.2-1.7,0.1-2c0.1-0.1,0.2-0.2,0.3-0.2c0.2,0,0.3,0.2,0.4,0.3l0,0
			l0,0l-0.3,2L66.3,42.4C66.4,42.4,66.4,42.4,66.3,42.4z M66.4,40.2c-0.1,0-0.1,0-0.2,0.1c-0.3,0.4-0.3,1.7-0.1,1.9
			c0.1,0.1,0.2,0.1,0.2,0.2l0.3-1.9C66.6,40.3,66.5,40.2,66.4,40.2z"/>
	</g>
	<g>
		
			<linearGradient id="SVGID_9_" gradientUnits="userSpaceOnUse" x1="237.3096" y1="-136.9628" x2="238.4414" y2="-136.9628" gradientTransform="matrix(0.999 4.560000e-02 -4.560000e-02 0.999 -177.0102 167.42)">
			<stop  offset="0" style="stop-color:#DE9D14"/>
			<stop  offset="1" style="stop-color:#FFD24C"/>
		</linearGradient>
		<path class="st11" d="M67.5,40.7c-0.1-0.1-0.5-0.4-0.7-0.3c-0.2,0.1-0.4,0.8-0.4,1.3c-0.1,0.5,0.1,0.9,0.3,0.8
			C66.9,42.4,67.5,40.7,67.5,40.7z"/>
		<path d="M66.6,42.6c-0.1,0-0.1,0-0.2-0.1c-0.1-0.2-0.2-0.5-0.1-0.8c0,0,0.2-1.2,0.5-1.4c0,0,0.1,0,0.1,0c0.2,0,0.6,0.3,0.7,0.4
			l0,0l0,0C67.4,41.1,66.9,42.5,66.6,42.6C66.6,42.6,66.6,42.6,66.6,42.6z M66.8,40.4C66.8,40.4,66.8,40.4,66.8,40.4
			c-0.2,0.1-0.4,0.7-0.5,1.3c-0.1,0.3,0,0.6,0.1,0.7c0,0,0.1,0.1,0.1,0c0.1-0.1,0.5-0.9,0.8-1.7C67.3,40.6,67,40.4,66.8,40.4z"/>
	</g>
	<g>
		<linearGradient id="SVGID_10_" gradientUnits="userSpaceOnUse" x1="68.1607" y1="42.7617" x2="70.0277" y2="42.7617">
			<stop  offset="0" style="stop-color:#DE9D14"/>
			<stop  offset="1" style="stop-color:#FFD24C"/>
		</linearGradient>
		<path class="st12" d="M70,42.4c0.1,0.1,0,0.5-0.5,0.8c-0.4,0.3-1.1,0.4-1.3,0.3c-0.3-0.1,1.4-1.5,1.4-1.5L70,42.4z"/>
		<path d="M68.4,43.6c-0.1,0-0.2,0-0.3,0c0,0-0.1-0.1-0.1-0.1c0-0.3,1-1.2,1.4-1.5l0.1,0l0.5,0.5c0.1,0.2,0,0.6-0.5,0.9
			C69.2,43.5,68.8,43.6,68.4,43.6z M68.2,43.4c0,0,0.1,0,0.2,0c0.3,0,0.7-0.1,1.1-0.3c0.4-0.3,0.5-0.6,0.5-0.7l-0.4-0.3
			C68.9,42.6,68.3,43.3,68.2,43.4z"/>
	</g>
	<g>
		<linearGradient id="SVGID_11_" gradientUnits="userSpaceOnUse" x1="51.3324" y1="24.2404" x2="57.4587" y2="24.2404">
			<stop  offset="0" style="stop-color:#5EBB47"/>
			<stop  offset="1" style="stop-color:#007A4E"/>
		</linearGradient>
		<path class="st13" d="M54.9,25.1c0,0-0.1-0.7,0.1-0.9c0.2-0.2,2.1-1.6,2.5-1.5c0,0-1.8-0.5-2.9,0.9c0,0-1-1.4-3.2-0.9
			c0,0,2.6,1,2.7,1.7c0.1,0.7,0,1.7,0,1.7l0.8-0.2L54.9,25.1z"/>
		<path d="M53.9,26.1l0-0.1c0,0,0.1-1,0-1.6c-0.1-0.6-2-1.4-2.7-1.7l-0.2-0.1l0.3-0.1c0.3-0.1,0.6-0.1,0.9-0.1c1.4,0,2.1,0.7,2.3,1
			c0.7-0.8,1.6-1,2.2-1c0.4,0,0.7,0.1,0.7,0.1l0,0.2c0,0,0,0,0,0c-0.4,0-2.2,1.3-2.4,1.5c-0.1,0.2-0.1,0.7-0.1,0.9l0,0.8L53.9,26.1z
			 M51.6,22.6c0.7,0.3,2.4,1,2.5,1.7c0.1,0.6,0,1.3,0,1.6l0.6-0.1l0-0.7c0-0.1-0.1-0.7,0.1-1c0.2-0.2,1.5-1.1,2.2-1.5
			c-0.1,0-0.2,0-0.3,0c-0.6,0-1.5,0.2-2.1,1l-0.1,0.1l-0.1-0.1c0,0-0.7-1-2.3-1C52,22.6,51.8,22.6,51.6,22.6z"/>
	</g>
	<g>
		<linearGradient id="SVGID_12_" gradientUnits="userSpaceOnUse" x1="54.8552" y1="24.0005" x2="57.4842" y2="24.0005">
			<stop  offset="0" style="stop-color:#5EBB47"/>
			<stop  offset="1" style="stop-color:#007A4E"/>
		</linearGradient>
		<path class="st14" d="M56.9,25.2c0,0-1.2-2.3-2.1-2.4c0,0,1.4-0.3,2.6,1.3L56.9,25.2z"/>
		<path d="M56.9,25.4l-0.1-0.1c0,0-1.2-2.3-2-2.4l0-0.2c0,0,0.1,0,0.3,0c0.5,0,1.5,0.2,2.4,1.4l0,0L56.9,25.4z M55.2,22.9
			c0.7,0.4,1.5,1.7,1.7,2.2l0.5-0.9C56.6,23.1,55.7,22.9,55.2,22.9z"/>
	</g>
	<g>
		<linearGradient id="SVGID_13_" gradientUnits="userSpaceOnUse" x1="50.9909" y1="24.3538" x2="54.4725" y2="24.3538">
			<stop  offset="0" style="stop-color:#5EBB47"/>
			<stop  offset="1" style="stop-color:#007A4E"/>
		</linearGradient>
		<path class="st15" d="M51.1,24.5c0,0,1.3-2.7,3.3-1.9c0,0-1.4,0.4-1.9,1.2c-0.5,0.8-0.5,1.9-1.2,2.3
			C51.4,26.2,50.7,25.5,51.1,24.5z"/>
		<path d="M51.4,26.3L51.4,26.3c0,0-0.8-0.8-0.4-1.8c0-0.1,1-2.1,2.6-2.1c0.3,0,0.5,0.1,0.8,0.2l0.2,0.1l-0.2,0.1
			c0,0-1.4,0.4-1.8,1.2c-0.2,0.3-0.3,0.7-0.4,1C52.1,25.5,51.9,26,51.4,26.3L51.4,26.3z M53.7,22.6c-1.5,0-2.5,2-2.5,2
			c-0.3,0.8,0.1,1.4,0.3,1.6c0.4-0.2,0.5-0.7,0.7-1.2c0.1-0.4,0.2-0.7,0.4-1.1c0.4-0.6,1.3-1,1.7-1.2C54.1,22.6,53.9,22.6,53.7,22.6
			z"/>
	</g>
	<g>
		<linearGradient id="SVGID_14_" gradientUnits="userSpaceOnUse" x1="49.211" y1="24.7604" x2="51.351" y2="24.7604">
			<stop  offset="0" style="stop-color:#5EBB47"/>
			<stop  offset="1" style="stop-color:#007A4E"/>
		</linearGradient>
		<path class="st16" d="M51.2,26.2c0,0,0.6-2.7-1-2.9c-1.1-0.1-1,1.7-1,1.7s0-1,0.6-0.8c0.6,0.2,0.8,0.9,0.7,1.5L51.2,26.2z"/>
		<path d="M51.3,26.3l-0.8-0.5l0,0c0-0.3,0-1.2-0.7-1.5c0,0-0.1,0-0.1,0c-0.4,0-0.4,0.7-0.4,0.7l-0.2,0c0,0-0.1-1.1,0.4-1.6
			c0.2-0.2,0.4-0.3,0.7-0.2c0.4,0,0.7,0.2,0.9,0.5c0.6,0.8,0.2,2.4,0.2,2.5L51.3,26.3z M50.6,25.8l0.6,0.3c0.1-0.4,0.3-1.6-0.2-2.3
			c-0.2-0.3-0.4-0.4-0.8-0.4c-0.2,0-0.4,0-0.5,0.2c-0.2,0.2-0.3,0.5-0.3,0.8c0.1-0.1,0.3-0.2,0.5-0.2C50.4,24.4,50.7,24.9,50.6,25.8
			z"/>
	</g>
	<g>
		<linearGradient id="SVGID_15_" gradientUnits="userSpaceOnUse" x1="58.6199" y1="17.8327" x2="75.3144" y2="17.8327">
			<stop  offset="0" style="stop-color:#DE9D14"/>
			<stop  offset="1" style="stop-color:#FFD24C"/>
		</linearGradient>
		<path class="st17" d="M64,15.6c-0.2,0.3,0.3,0.7,0.3,0.7c-0.7,0.2-1.4-0.5-2.5-0.4c-0.4,0.1,0,0.9,0,0.9c-1.1-0.2-0.6-1.3-0.6-1.3
			c-0.5,0-0.5-0.8-0.5-0.8s0.7,0.4,1.2,0.2c0.5-0.2,1.7-0.3,2.5,0.5c0,0,1.5,0.2,2.9-0.3c2.5-0.9,4-0.8,4.6-0.1c0,0,0.3-0.9-0.2-1
			c0,0,0.9,0.4,0.7,1.1c0,0,1-0.1,1,1c0,0-0.5-0.6-1.1-0.5c0,0,0,1.4-1.5,1.8c0,0-0.1,1,1,1c1.1,0.1,2-0.2,2.3-0.4
			c0,0,0.9,1.8,1.2,1.9v1c0,0-0.4,0.3-0.8,0.3v0.4c0,0-0.4,0-0.5,0.3c0,0-0.2-0.3-0.6-0.3c-0.3,0-1.3,0.2-1.3-0.4l0.3-0.2l0-0.4h1.3
			v0.4l0.5-0.4c0,0,0.3-0.9-0.5-1.1c-0.8-0.2-1.8,0.3-2.6,0l0.2,0.3c0,0-0.9,0.1-1.4-0.5c0,0,0,0.5-0.3,0.6c0,0,0-0.6-0.3-0.7
			c-0.3-0.2-0.5-0.2-0.6-0.5c0,0-0.3,0.7-1,0.3c0,0,0.5-1.1-0.4-1.3c-0.9-0.2-2.5,0.5-3.5,1.1c-1,0.7-3.2,2.1-5.3,1.8
			c0,0,1-2.9,1.3-3c0.3,0,0.5,0.3,2.7-0.2c2.2-0.5,5.7-1.6,7.4-0.7c0.3,0.1,1.9-0.7,1.3-1.4c-0.6-0.7-2.2-0.4-2.9-0.1
			c-0.9,0.3-3.5,1.1-4.6,0.6"/>
		<path d="M74.1,21.9L74,21.8c0,0-0.2-0.2-0.5-0.2c-0.1,0-0.1,0-0.2,0c-0.3,0-0.8,0.1-1-0.1c-0.1-0.1-0.1-0.2-0.1-0.3v0l0.3-0.2
			l0-0.4h1.4v0.3l0.4-0.3c0-0.1,0.1-0.4,0-0.7c-0.1-0.2-0.2-0.3-0.4-0.3c-0.4-0.1-0.8,0-1.2,0c-0.4,0.1-0.8,0.1-1.2,0l0.2,0.3
			l-0.1,0c0,0-0.8,0.1-1.3-0.4c0,0.2-0.1,0.4-0.3,0.5l-0.1,0l0-0.1c0,0,0-0.5-0.3-0.7C69.1,19,69,19,68.8,18.8
			c-0.1,0.2-0.5,0.5-1.1,0.2l-0.1,0l0-0.1c0,0,0.3-0.6,0.1-0.9c-0.1-0.1-0.2-0.2-0.4-0.2c-0.9-0.1-2.5,0.5-3.4,1.1
			c-1.4,1-3.4,2.1-5.4,1.8l-0.1,0l0-0.1c0.3-0.9,1.1-3,1.4-3c0.1,0,0.2,0,0.3,0c0.3,0.1,0.8,0.2,2.5-0.2c0.4-0.1,0.9-0.2,1.4-0.3
			c2.1-0.5,4.7-1.1,6-0.4c0.1,0.1,0.9-0.2,1.2-0.7c0.2-0.2,0.2-0.4,0-0.6c-0.6-0.6-2.1-0.4-2.8-0.1c-0.1,0-3,1.1-4.4,0.7
			c0.1,0.1,0.2,0.3,0.2,0.3l0.1,0.1l-0.1,0c-0.3,0.1-0.7,0-1.1-0.2c-0.4-0.1-0.9-0.3-1.4-0.2c0,0-0.1,0-0.1,0.1
			c-0.1,0.1,0,0.5,0.1,0.8l0.1,0.1l-0.1,0c-0.3,0-0.5-0.2-0.7-0.4c-0.2-0.3-0.1-0.8,0-1c-0.4-0.1-0.5-0.8-0.5-0.9l0-0.2l0.1,0.1
			c0,0,0.7,0.4,1.2,0.2c0.6-0.2,1.8-0.3,2.5,0.5c0.2,0,1.6,0.2,2.8-0.3c2.2-0.8,3.8-0.9,4.6-0.2c0-0.2,0.1-0.5,0-0.7
			c0,0,0-0.1-0.1-0.1c-0.1,0-0.1-0.1-0.1-0.1l0.1-0.1c0,0,0.1,0,0.1,0.1c0.2,0.1,0.7,0.5,0.7,1c0.2,0,0.4,0,0.7,0.3
			c0.2,0.2,0.3,0.5,0.3,0.8l0,0.2L73.3,16c0,0-0.5-0.5-1-0.5c0,0.3-0.2,1.4-1.5,1.8c0,0.1,0,0.4,0.2,0.6c0.2,0.2,0.4,0.3,0.8,0.3
			c1.1,0.1,1.9-0.2,2.3-0.4l0.1,0l0,0.1c0.3,0.7,0.9,1.8,1.1,1.8l0.1,0v1l0,0c0,0-0.4,0.3-0.8,0.3v0.4l-0.1,0c0,0-0.3,0-0.4,0.3
			L74.1,21.9z M73.4,21.4c0.2,0,0.4,0.1,0.5,0.2c0.1-0.2,0.3-0.3,0.4-0.3v-0.4l0.1,0c0.4,0,0.7-0.2,0.8-0.3v-0.9
			c-0.3-0.2-0.9-1.4-1.1-1.8c-0.4,0.2-1.3,0.5-2.3,0.4c-0.4,0-0.7-0.2-0.9-0.4c-0.3-0.3-0.2-0.7-0.2-0.7l0-0.1l0.1,0
			c1.4-0.4,1.4-1.7,1.4-1.7v-0.1l0.1,0c0.4-0.1,0.9,0.2,1.1,0.4c0-0.2-0.1-0.4-0.3-0.5C72.8,15,72.4,15,72.4,15l-0.1,0l0-0.1
			c0.1-0.3-0.1-0.6-0.3-0.8c0.1,0.3-0.1,0.7-0.1,0.8l0,0.1L71.7,15c-0.5-0.5-1.9-0.8-4.5,0.2c-1.4,0.5-2.9,0.3-2.9,0.3l0,0l0,0
			c-0.7-0.8-1.9-0.6-2.4-0.4c-0.4,0.1-0.9,0-1.1-0.2c0,0.2,0.2,0.6,0.4,0.6l0.1,0l0,0.1c0,0-0.2,0.6,0,0.9c0.1,0.1,0.2,0.2,0.4,0.3
			c-0.1-0.2-0.2-0.6-0.1-0.8c0-0.1,0.1-0.1,0.2-0.1c0.6-0.1,1.1,0.1,1.5,0.2c0.3,0.1,0.6,0.2,0.8,0.2c-0.1-0.1-0.2-0.2-0.2-0.3
			c0,0,0,0,0,0l0,0c0-0.1,0-0.2,0.1-0.2l0.1,0.1c0,0,0,0.1,0,0.1c1.1,0.3,3.3-0.2,4.4-0.7c0.6-0.2,2.3-0.6,3,0.2
			c0.2,0.2,0.2,0.5,0,0.8c-0.3,0.5-1.2,0.8-1.4,0.7c-1.3-0.7-3.9-0.1-5.9,0.4c-0.5,0.1-1,0.2-1.4,0.3c-1.7,0.4-2.2,0.2-2.5,0.2
			c-0.1,0-0.2,0-0.2,0c-0.2,0.1-0.8,1.5-1.2,2.8c1.9,0.2,3.8-0.9,5.2-1.8c1-0.7,2.6-1.3,3.5-1.2c0.2,0,0.4,0.2,0.5,0.3
			c0.2,0.3,0,0.8,0,1c0.6,0.2,0.9-0.3,0.9-0.3l0.1-0.1l0.1,0.1c0.1,0.2,0.2,0.3,0.6,0.4c0.3,0.1,0.3,0.4,0.3,0.6
			c0.1-0.1,0.1-0.4,0.2-0.5l0-0.2l0.1,0.1c0.4,0.4,0.9,0.4,1.2,0.4L71,19.1l0.2,0.1c0.4,0.2,0.8,0.1,1.3,0c0.4-0.1,0.9-0.1,1.3,0
			c0.3,0.1,0.4,0.2,0.5,0.4c0.2,0.4,0.1,0.8,0,0.8l0,0l-0.7,0.5v-0.5h-1.1l0,0.3l-0.3,0.2c0,0.1,0,0.1,0.1,0.2
			c0.2,0.2,0.6,0.1,0.9,0.1C73.3,21.4,73.4,21.4,73.4,21.4z"/>
	</g>
	<g>
		<linearGradient id="SVGID_16_" gradientUnits="userSpaceOnUse" x1="53.4124" y1="18.708" x2="61.1467" y2="18.708">
			<stop  offset="0" style="stop-color:#DE9D14"/>
			<stop  offset="1" style="stop-color:#FFD24C"/>
		</linearGradient>
		<path class="st18" d="M54.8,17.1c-0.6-0.3-1.4,0.5-1.4,0.5c0.2,0,0.4,0.2,0.5,0.3c0.2,0.1,0.5,0.2,0.5,0.2
			c-0.6,0.2-0.4,0.9-0.4,0.9c0.4-0.2,0.9-0.1,0.9-0.1s0,0.5-0.3,0.6c-0.3,0.1-0.2,0.6-0.2,0.6c0.5,0,1-0.6,1-0.6
			c-0.2,0.5,0.3,1.2,0.3,1.2c-0.1-0.3,0.7-1.2,0.7-1.2c-0.1,0.7,0.8,1.3,0.8,1.3c-0.2-0.2,0.3-1,0.3-1c0.4,0.9,1.3,1,1.3,1
			c-0.2-0.2,0-0.7,0-0.7c0.9,0.7,1.7-0.1,1.7-0.1c-0.6-0.1-0.7-0.8-0.7-0.8c1,0.2,1.3-0.7,1.3-0.7c-0.7,0.2-1.3-0.5-1.3-0.5
			c0.5-0.2,0.6-0.9,0.6-0.9c-1,0.4-2.2-0.7-2.2-0.7s-3.5,0.1-3.7,0.2L54.8,17.1z"/>
		<path d="M57.2,20.9c0,0-0.7-0.5-0.8-1.1c-0.3,0.4-0.6,0.8-0.5,0.9l-0.1,0.1c0,0-0.4-0.5-0.4-1c-0.2,0.2-0.5,0.5-0.9,0.4l-0.1,0
			l0-0.1c0,0-0.1-0.3,0-0.6c0-0.1,0.1-0.1,0.2-0.2c0.2,0,0.2-0.3,0.2-0.4c-0.1,0-0.2,0-0.3,0c-0.2,0-0.4,0-0.5,0.1l-0.1,0l0-0.1
			c-0.1-0.2,0-0.7,0.3-0.9c-0.1,0-0.2-0.1-0.3-0.1c0,0-0.1-0.1-0.1-0.1c-0.1-0.1-0.2-0.2-0.3-0.2l-0.3,0.1l0.2-0.2
			c0,0,0.6-0.5,1.1-0.5c0,0,0.1,0,0.1,0l-0.2-0.3l0.1,0c0.2-0.1,3.1-0.2,3.7-0.2l0,0l0,0c0,0,0.9,0.8,1.7,0.8c0.1,0,0.3,0,0.4-0.1
			l0.1-0.1l0,0.1c0,0-0.1,0.6-0.6,0.9c0.2,0.1,0.5,0.4,1,0.4c0.1,0,0.1,0,0.2,0l0.1,0l0,0.1c0,0-0.2,0.8-1.1,0.8c0,0-0.1,0-0.2,0
			c0,0.2,0.2,0.5,0.6,0.6l0.1,0l-0.1,0.1c0,0-0.4,0.4-0.9,0.4c-0.3,0-0.5-0.1-0.8-0.2c0,0.1-0.1,0.4,0,0.5l0.1,0.1l-0.2,0
			c0,0-0.9,0-1.3-0.9c-0.2,0.3-0.3,0.7-0.2,0.8L57.2,20.9z M57.5,19.7l0.1,0.1c0.3,0.7,0.9,0.8,1.1,0.9c-0.1-0.2,0.1-0.5,0.1-0.6
			l0-0.1l0.1,0.1c0.2,0.2,0.5,0.3,0.7,0.3c0.3,0,0.6-0.1,0.7-0.2c-0.5-0.2-0.6-0.8-0.6-0.8l0-0.1l0.1,0c0.1,0,0.2,0,0.2,0
			c0.6,0,0.8-0.3,0.9-0.5c0,0-0.1,0-0.1,0c-0.6,0-1.1-0.5-1.2-0.5l-0.1-0.1l0.1,0c0.3-0.2,0.5-0.5,0.5-0.7c-0.1,0-0.2,0-0.3,0
			c-0.8,0-1.6-0.7-1.7-0.8c-1.2,0-3.1,0.1-3.5,0.2l0.3,0.5l-0.2-0.1c-0.1,0-0.2-0.1-0.3-0.1c-0.4,0-0.7,0.2-0.9,0.4
			c0.1,0,0.2,0.1,0.3,0.2c0,0,0.1,0.1,0.1,0.1c0.1,0.1,0.4,0.2,0.4,0.2l0.3,0.1l-0.2,0.1C54,18.3,54,18.8,54,19
			c0.1-0.1,0.3-0.1,0.5-0.1c0.2,0,0.4,0,0.4,0l0.1,0l0,0.1c0,0,0,0.6-0.4,0.7c-0.1,0-0.1,0-0.1,0.1c-0.1,0.1,0,0.3,0,0.4
			c0.4,0,0.9-0.6,0.9-0.6l0.1,0.1c-0.1,0.3,0.1,0.7,0.2,1c0.1-0.3,0.5-0.8,0.7-1l0.2-0.2l0,0.2c-0.1,0.5,0.3,0.9,0.6,1.1
			c0-0.3,0.3-0.7,0.4-0.9L57.5,19.7z"/>
	</g>
	<g>
		<linearGradient id="SVGID_17_" gradientUnits="userSpaceOnUse" x1="56.8715" y1="14.8972" x2="59.3728" y2="14.8972">
			<stop  offset="0" style="stop-color:#DE9D14"/>
			<stop  offset="1" style="stop-color:#FFD24C"/>
		</linearGradient>
		<polyline class="st19" points="58.5,16 58.8,15.5 59.4,15.4 59.2,14.9 58.7,14.9 58.7,15.2 58.2,15.2 58.2,14.8 58.6,14.7 
			58.5,14.2 57.8,14.2 57.8,14.6 57.4,14.8 57.4,14.4 57.6,14.2 57.3,13.7 56.9,14.1 56.9,14.4 56.9,15.1 		"/>
		<polygon points="58.5,16.1 58.4,16 58.8,15.4 59.3,15.4 59.2,15 58.8,15 58.7,15.2 58.2,15.3 58.1,14.8 58.5,14.6 58.4,14.2 
			57.9,14.3 57.9,14.7 57.4,14.9 57.3,14.3 57.5,14.2 57.3,13.9 57,14.2 57,14.4 57,15.1 56.8,15.1 56.9,14.4 56.8,14.1 57.4,13.6 
			57.7,14.3 57.5,14.4 57.5,14.7 57.8,14.6 57.8,14.1 58.5,14.1 58.7,14.7 58.3,14.9 58.3,15.1 58.6,15.1 58.7,14.8 59.3,14.8 
			59.5,15.5 58.9,15.6 		"/>
	</g>
	<g>
		<linearGradient id="SVGID_18_" gradientUnits="userSpaceOnUse" x1="54.9308" y1="28.7514" x2="56.7959" y2="28.7514">
			<stop  offset="0" style="stop-color:#FCBA77"/>
			<stop  offset="1" style="stop-color:#851215"/>
		</linearGradient>
		<polygon class="st20" points="54.9,29.9 56.2,27.6 56.3,28.1 56.8,28.1 55.8,29.9 		"/>
		<path d="M55.8,30h-1l1.4-2.6l0.1,0.6h0.6L55.8,30z M55.1,29.8h0.7l0.9-1.7h-0.4l-0.1-0.3L55.1,29.8z"/>
	</g>
	<g>
		<linearGradient id="SVGID_19_" gradientUnits="userSpaceOnUse" x1="53.9359" y1="27.603" x2="54.6258" y2="27.603">
			<stop  offset="0" style="stop-color:#FCBA77"/>
			<stop  offset="1" style="stop-color:#851215"/>
		</linearGradient>
		<rect x="53.9" y="26.2" class="st21" width="0.7" height="2.8"/>
		<path d="M54.7,29.1h-0.8v-3h0.8V29.1z M54,28.9h0.5v-2.7H54V28.9z"/>
	</g>
	<g>
		<linearGradient id="SVGID_20_" gradientUnits="userSpaceOnUse" x1="51.7402" y1="28.8852" x2="53.0928" y2="28.8852">
			<stop  offset="0" style="stop-color:#FCBA77"/>
			<stop  offset="1" style="stop-color:#851215"/>
		</linearGradient>
		<path class="st22" d="M53.1,29.7c0,0-0.2-1-0.7-1.6h-0.7c0,0,0.6,1,0.6,1.6H53.1z"/>
		<path d="M53.2,29.8h-1l0-0.1c0.1-0.6-0.5-1.6-0.6-1.6L51.6,28h0.9l0,0C53,28.6,53.2,29.6,53.2,29.8L53.2,29.8z M52.4,29.6H53
			c0-0.3-0.2-1-0.6-1.5h-0.5C52,28.4,52.4,29.1,52.4,29.6z"/>
	</g>
	<g>
		<linearGradient id="SVGID_21_" gradientUnits="userSpaceOnUse" x1="56.1244" y1="26.1047" x2="59.4941" y2="26.1047">
			<stop  offset="0" style="stop-color:#5EBB47"/>
			<stop  offset="1" style="stop-color:#007A4E"/>
		</linearGradient>
		<path class="st23" d="M56.7,28c0,0,0.3-0.3,0.6-0.3c0.4,0.1,0.5,0.7,0.5,1.2c0,0,0.8-1.1,0.1-1.9c-0.3-0.3-0.8-0.1-0.8-0.1
			s0.4-0.6,1-0.4c0.8,0.2,0.9,1,0.9,1s0.4-1-0.2-1.7c-0.6-0.6-1.3-0.3-1.3-0.3s0.9-1.5,1.3-1.4c0.4,0.1,0.6,0.8,0.6,0.8
			s0.4-1-0.3-1.5c-0.7-0.5-1.4,0.3-1.7,0.7c-0.3,0.3-0.8,1.5-0.8,2c0,0-0.6,0.7-0.3,1.6l0.1,0.5L56.7,28z"/>
		<path d="M57.8,29.2v-0.2c0-0.3,0-1.1-0.4-1.1c-0.3,0-0.6,0.3-0.6,0.3l0,0l-0.5,0l-0.1-0.5c-0.3-0.8,0.2-1.5,0.3-1.6
			c0-0.5,0.5-1.6,0.9-2c0.3-0.3,0.8-0.8,1.3-0.8c0.2,0,0.3,0.1,0.5,0.2c0.7,0.5,0.3,1.6,0.3,1.6l-0.1,0.2L59.3,25
			c-0.1-0.2-0.2-0.7-0.5-0.7h0c-0.2,0-0.7,0.6-1.1,1.2c0.1,0,0.2,0,0.3,0c0.3,0,0.6,0.1,0.9,0.4c0.6,0.7,0.3,1.7,0.2,1.8l-0.1,0.3
			L59,27.5c0,0-0.2-0.8-0.9-0.9c-0.1,0-0.1,0-0.2,0c-0.2,0-0.4,0.1-0.6,0.2c0,0,0.1,0,0.1,0c0.2,0,0.4,0.1,0.5,0.2
			c0.7,0.9-0.1,2-0.1,2L57.8,29.2z M57.3,27.7C57.3,27.7,57.3,27.7,57.3,27.7c0.5,0.1,0.6,0.6,0.6,1c0.2-0.3,0.4-1,0-1.6
			C57.8,27,57.7,27,57.6,27c-0.2,0-0.3,0.1-0.3,0.1L57,27.1l0.2-0.2c0,0,0.4-0.5,0.9-0.5c0.1,0,0.1,0,0.2,0c0.5,0.1,0.8,0.5,0.9,0.8
			c0.1-0.3,0.1-0.9-0.3-1.4c-0.2-0.2-0.5-0.4-0.8-0.4c-0.2,0-0.4,0.1-0.4,0.1l-0.2,0.1l0.1-0.2c0.1-0.2,0.9-1.4,1.3-1.4c0,0,0,0,0,0
			c0.3,0.1,0.4,0.4,0.5,0.6c0.1-0.3,0.1-0.9-0.3-1.2c-0.1-0.1-0.3-0.1-0.4-0.1c-0.5,0-1,0.5-1.2,0.8c-0.3,0.3-0.8,1.4-0.8,1.9l0,0
			l0,0c0,0-0.6,0.7-0.3,1.5l0.1,0.4l0.3,0C56.8,27.9,57,27.7,57.3,27.7z"/>
	</g>
	<g>
		<linearGradient id="SVGID_22_" gradientUnits="userSpaceOnUse" x1="54.2637" y1="25.9626" x2="55.9017" y2="25.9626">
			<stop  offset="0" style="stop-color:#5EBB47"/>
			<stop  offset="1" style="stop-color:#00894F"/>
		</linearGradient>
		<path class="st24" d="M54.3,26.2c0,0-0.1-1.3,0.8-1.3c0.9,0,0.9,1.3,0.7,2.1c0,0-0.1-1-0.6-1c-0.5-0.1-0.5,0.2-0.5,0.2L54.3,26.2z
			"/>
		<path d="M55.8,27l-0.1,0c0,0-0.1-0.9-0.6-1c-0.2,0-0.3,0-0.4,0.1c0,0,0,0.1,0,0.1l0,0.1l-0.5,0l0-0.1c0,0-0.1-0.7,0.3-1.1
			c0.2-0.2,0.4-0.2,0.6-0.2c0.3,0,0.5,0.1,0.6,0.3C56.1,25.6,56,26.4,55.8,27z M55,25.9c0.1,0,0.1,0,0.2,0c0.4,0.1,0.5,0.5,0.6,0.8
			c0.1-0.5,0.1-1.1-0.2-1.4c-0.1-0.2-0.3-0.2-0.5-0.2c-0.2,0-0.4,0.1-0.5,0.2c-0.2,0.3-0.3,0.7-0.3,0.9l0.2,0c0,0,0-0.1,0.1-0.1
			C54.7,25.9,54.8,25.9,55,25.9z"/>
	</g>
	<g>
		<linearGradient id="SVGID_23_" gradientUnits="userSpaceOnUse" x1="52.5794" y1="26.3967" x2="54.267" y2="26.3967">
			<stop  offset="0" style="stop-color:#5EBB47"/>
			<stop  offset="1" style="stop-color:#00894F"/>
		</linearGradient>
		<path class="st25" d="M54.3,26.2c0,0,0-1.3-0.9-1.3c-0.8,0-0.8,1-0.7,1.6c0,0.4,0.2,0.6,0.3,1.4c0,0,0.6-0.4,0.5-0.8
			c-0.1-0.5-0.1-1,0.1-1.1C53.6,25.8,53.5,26.2,54.3,26.2z"/>
		<path d="M52.8,28.1l0-0.1c0-0.5-0.1-0.8-0.2-1c0-0.1-0.1-0.3-0.1-0.4c0-0.4-0.1-1.1,0.2-1.4c0.1-0.2,0.3-0.2,0.5-0.3l0,0
			c0.8,0,1,0.9,1,1.4v0.1h-0.1c-0.5,0-0.6-0.1-0.7-0.2c0,0,0,0,0,0c0,0,0,0,0,0c-0.1,0.1-0.1,0.7,0,1.1c0.1,0.5-0.5,0.9-0.5,0.9
			L52.8,28.1z M53.4,25L53.4,25c-0.2,0-0.4,0.1-0.5,0.2c-0.3,0.3-0.2,1-0.2,1.3c0,0.1,0.1,0.3,0.1,0.4c0.1,0.2,0.1,0.5,0.2,0.9
			c0.2-0.1,0.4-0.4,0.4-0.7c-0.1-0.6-0.1-1,0.1-1.2c0,0,0.1-0.1,0.1-0.1c0.1,0,0.1,0,0.1,0.1c0.1,0.1,0.2,0.2,0.5,0.2
			C54.2,25.8,54.1,25,53.4,25z"/>
	</g>
	<g>
		<linearGradient id="SVGID_24_" gradientUnits="userSpaceOnUse" x1="49.1853" y1="27.875" x2="52.4295" y2="27.875">
			<stop  offset="0" style="stop-color:#5EBB47"/>
			<stop  offset="1" style="stop-color:#007A4E"/>
		</linearGradient>
		<path class="st26" d="M52.4,28.1c0,0-0.4-2.7-2.4-2.5c-1.1,0.1-0.8,1.7-0.8,1.7s0.3-1,0.9-0.9c0.7,0.1,1.1,1,1.1,1
			s-1.5-0.2-1.9,0.5c-0.4,0.8,0.2,1.8,0.4,2.1c0,0-0.1-1.1,0.4-1.6C50.6,28,52,28.2,52.4,28.1z"/>
		<path d="M49.6,30.2c-0.1-0.1-0.9-1.3-0.4-2.2c0.3-0.5,1-0.6,1.5-0.6c0.2,0,0.3,0,0.4,0c-0.1-0.2-0.5-0.8-1-0.9
			c-0.6-0.1-0.9,0.8-0.9,0.8l-0.1,0c0,0-0.2-0.9,0.2-1.4c0.2-0.2,0.4-0.3,0.7-0.3c0.1,0,0.1,0,0.2,0c0.8,0,1.4,0.5,1.9,1.3
			c0.3,0.6,0.4,1.3,0.4,1.3l0,0.1l-0.1,0c-0.1,0-0.1,0-0.2,0l-0.3,0c-0.7,0-1.5,0-1.8,0.4c-0.5,0.4-0.3,1.5-0.3,1.5L49.6,30.2z
			 M50.8,27.5c-0.5,0-1.1,0.1-1.4,0.5c-0.3,0.6,0,1.4,0.2,1.8c0-0.4,0.1-1,0.4-1.3c0.4-0.4,1.2-0.4,1.9-0.4l0.3,0c0,0,0.1,0,0.1,0
			c-0.1-0.4-0.6-2.4-2.2-2.4c0,0-0.1,0-0.1,0c-0.2,0-0.4,0.1-0.5,0.3c-0.2,0.3-0.2,0.7-0.2,1c0.1-0.3,0.4-0.7,0.9-0.6
			c0.7,0.1,1.1,1.1,1.1,1.1l0.1,0.1l-0.1,0C51.3,27.5,51.1,27.5,50.8,27.5z"/>
	</g>
	<g>
		<linearGradient id="SVGID_25_" gradientUnits="userSpaceOnUse" x1="69.634" y1="28.3624" x2="70.6815" y2="28.3624">
			<stop  offset="0" style="stop-color:#FCBA77"/>
			<stop  offset="1" style="stop-color:#851215"/>
		</linearGradient>
		<path class="st27" d="M70.7,26.5c0,0-0.2,3,0,3.5l-0.3-0.2l-0.1,0.3L70,29.9l-0.4,0.3c0,0,0.4-2.5,0.2-3.4L70.7,26.5z"/>
		<path d="M70.3,30.3L70,30l-0.5,0.3l0-0.2c0,0,0.4-2.4,0.2-3.4l0-0.1l1-0.2l0,0.1c-0.1,0.8-0.2,3.1,0,3.5l0.1,0.2L70.4,30
			L70.3,30.3z M70,29.8l0.2,0.3l0.1-0.2l0.3,0.1c-0.1-0.7,0-2.8,0-3.3L70,26.8c0.1,0.8-0.1,2.6-0.2,3.2L70,29.8z"/>
	</g>
	<g>
		<linearGradient id="SVGID_26_" gradientUnits="userSpaceOnUse" x1="65.1679" y1="25.8837" x2="75.6585" y2="25.8837">
			<stop  offset="0" style="stop-color:#00AB60"/>
			<stop  offset="1" style="stop-color:#007A4E"/>
		</linearGradient>
		<path class="st28" d="M71.5,25.7c0,0,1.5,1.5,1.3,2.9c0,0-0.1-0.1-0.3-0.2c0,0,0.1,0.5-0.1,0.8c0,0-0.1-0.6-0.3-0.8l-0.3,0.2
			c0,0,0.1-0.4-0.1-0.8c0,0-0.1,0.1-0.3,0.2c0,0,0.1-0.8-0.4-1.3c0,0,0,0.6-0.2,0.9c0,0-0.2-0.3-0.6-0.4c0,0-0.2,0.3-0.2,0.6
			c0,0-0.4-0.1-0.5-0.4L69.5,28c0,0-0.4-0.1-0.4-0.4c0,0-0.2,0.8,0,1.1c0,0-0.5-0.3-0.5-0.7c0,0-0.1,0.7,0.1,1c0,0-0.5-0.3-0.6-0.5
			l-0.1,0.8c0,0-0.7-1.3-0.1-2.1c0.6-0.8,1.9-1.7,1.9-1.7s-1-0.1-1.2,0.4c0,0-0.2-0.3-0.2-0.5c0,0-0.5,0.2-0.5,0.6
			c0,0-0.3-0.2-0.3-0.3c0,0-0.4,0.3-0.3,0.6c0,0-0.3,0.1-0.4-0.2c0,0-0.2,0.4-0.1,0.6c0,0-0.3-0.2-0.4-0.4c0,0-0.5,0.4-0.4,0.7
			c0,0-0.2-1.3,0.7-2c0.6-0.5,1.4-0.8,2.4-0.9c0,0-0.9-0.3-1.6,0.1c0,0-0.1-0.2-0.1-0.4c0,0-0.5,0.3-0.5,0.7c0,0-0.2-0.1-0.3-0.3
			c0,0-0.3,0.2-0.3,0.5c0,0-0.3-0.3-0.3-0.4c0,0-0.7,0.5-0.7,0.8c0,0-0.1-0.8,0.3-1.4c0,0-0.4-0.2-0.6-0.1c0,0,0.3-0.6,0.8-0.5
			c0,0,0-0.6-0.4-0.6c0,0,0.7-0.2,1.2,0.1c0,0,0.5-0.1,0.3-0.2c0,0,0.6-0.1,0.8,0.2l0.2-0.2c0,0,1.1-0.2,1.8,1.6l-0.6-1.1l0.3-0.3
			c0,0,0.3,0.2,0.4,0.4c0,0,0.2-0.4,0.2-0.5c0.1-0.1,0.3,0.2,0.3,0.4c0,0,0.2-0.5,0.4-0.5c0.2,0,0.3,0.4,0.2,0.5c0,0,0.3-0.1,0.3,0
			c0,0,0.1,0.3,0,0.5l-0.2,0.8c0,0,0.4-1.6,1.5-1.8l0.1,0.3c0,0,0.6-0.4,1-0.3l0,0.2c0,0,0.5-0.2,0.8-0.1c0,0-0.3,0.2-0.2,0.3
			c0,0,0.4-0.1,0.6,0.2l-0.2,0.2c0,0,0.7,0.1,0.8,0.4l-0.6,0c0,0,0.3,0.2,0.3,0.7c0,0-0.5-0.4-0.7-0.3c0,0,0,0.3-0.1,0.4
			c0,0-0.2-0.4-0.5-0.4c0,0,0.1,0.2-0.1,0.3c0,0-0.4-0.3-0.6-0.2v0.3l-0.6-0.1v0.2c0,0-0.7-0.2-1.1-0.1c0,0,3-0.3,2.9,2.8l-0.4-0.4
			c0,0-0.3,0.4-0.5,0.4c0,0,0.2-0.5,0-0.6l-0.3,0.1c0,0,0-0.4-0.1-0.5c0,0-0.2,0.2-0.3,0.2c0,0,0-0.4-0.3-0.5l-0.2,0.3L72.2,26
			l-0.1,0.2L71.5,25.7z"/>
		<path d="M68.2,29.6L68,29.4c0-0.1-0.7-1.3,0-2.2c0.5-0.7,1.4-1.3,1.8-1.6c0,0,0,0,0,0c-0.3,0-0.8,0-0.9,0.3l0,0.1L68.7,26
			c0,0-0.2-0.2-0.2-0.4c-0.1,0.1-0.4,0.3-0.4,0.5l0,0.1L68,26.2c-0.1,0-0.2-0.1-0.3-0.2c-0.1,0.1-0.2,0.3-0.2,0.5l0,0.1l-0.1,0
			c0,0-0.1,0-0.2,0c-0.1,0-0.2,0-0.2-0.1c0,0.1-0.1,0.3,0,0.4l0.1,0.2l-0.2-0.1c0,0-0.2-0.1-0.3-0.3c-0.1,0.1-0.2,0.3-0.3,0.4
			c0,0.1,0,0.1,0,0.1l-0.1,0c0-0.1,0-0.1,0-0.2c0-0.4,0-1.4,0.7-1.9c0.6-0.4,1.2-0.7,2-0.8c-0.1,0-0.2,0-0.3,0
			c-0.3,0-0.6,0.1-0.8,0.2l-0.1,0l0-0.1c0,0-0.1-0.1-0.1-0.3c-0.1,0.1-0.3,0.3-0.4,0.5l0,0.1l-0.1,0c0,0-0.2,0-0.3-0.2
			c-0.1,0.1-0.2,0.2-0.2,0.3l0,0.2l-0.2-0.2c-0.1-0.1-0.2-0.2-0.3-0.4c-0.2,0.2-0.6,0.5-0.6,0.7l-0.2,0c0,0-0.1-0.8,0.3-1.4
			c-0.1,0-0.3-0.1-0.5,0L65,23.9l0.1-0.2c0,0,0.3-0.5,0.8-0.6c0-0.1-0.1-0.4-0.3-0.5l0-0.1c0,0,0.3-0.1,0.6-0.1
			c0.3,0,0.5,0.1,0.7,0.2c0.1,0,0.2-0.1,0.2-0.1l-0.2-0.1l0.3,0c0,0,0.1,0,0.2,0c0.2,0,0.5,0,0.7,0.2l0.1-0.2l0,0c0,0,0,0,0.1,0
			c0.2,0,0.6,0.1,1.1,0.5l0.4-0.3l0,0c0,0,0.2,0.1,0.3,0.3c0.1-0.2,0.1-0.3,0.2-0.4c0.1-0.1,0.3,0.1,0.3,0.3
			c0.1-0.2,0.2-0.3,0.3-0.3l0,0c0.1,0,0.2,0.1,0.2,0.2c0,0.1,0.1,0.2,0.1,0.3c0,0,0.1,0,0.1,0c0.1,0,0.1,0,0.2,0l0,0l0,0
			c0,0,0.1,0.2,0.1,0.4c0.2-0.4,0.6-0.8,1.1-1l0.1,0l0.1,0.3c0.1-0.1,0.5-0.3,0.8-0.3c0.1,0,0.1,0,0.2,0l0.1,0l0,0.2
			c0.2,0,0.6-0.1,0.8,0l0.1,0.1l-0.1,0.1c-0.1,0-0.1,0.1-0.1,0.1c0,0,0,0,0,0c0.2,0,0.4,0,0.6,0.2l0.1,0L75,23.2
			c0.2,0,0.6,0.1,0.7,0.4l0,0.1l-0.5,0c0.1,0.1,0.2,0.3,0.2,0.6l0,0.1l-0.1-0.1c-0.1-0.1-0.4-0.3-0.5-0.3c0,0.1,0,0.3-0.1,0.4
			l-0.1,0.1l-0.1-0.1c0-0.1-0.2-0.3-0.4-0.3c0,0.1,0,0.2-0.2,0.2l0,0l0,0c-0.1-0.1-0.3-0.2-0.4-0.2v0.3l-0.6-0.1v0.1
			c0.4,0.1,0.8,0.3,1.1,0.7c0.5,0.5,0.7,1.2,0.6,2.1l0,0.2L74.2,27c-0.1,0.1-0.3,0.4-0.5,0.4l0,0l-0.1,0l0-0.1
			c0.1-0.2,0.1-0.4,0.1-0.5l-0.4,0.1l0-0.1c0-0.1,0-0.3-0.1-0.4c-0.1,0.1-0.2,0.2-0.3,0.2l-0.1,0l0-0.1c0,0,0-0.3-0.2-0.4l-0.2,0.4
			l-0.3-0.4l-0.1,0.1c0.4,0.6,1,1.5,0.8,2.3l0,0.2l-0.1-0.1c0,0-0.1-0.1-0.2-0.1c0,0.2,0,0.5-0.1,0.7l-0.1,0.2l0-0.2
			c0,0-0.1-0.5-0.3-0.8l-0.4,0.2l0-0.2c0,0,0.1-0.3,0-0.7c-0.1,0-0.1,0.1-0.3,0.1l-0.1,0l0-0.1c0,0,0.1-0.6-0.2-1
			c0,0.2-0.1,0.5-0.2,0.7l-0.1,0.1l-0.1-0.1c0,0-0.2-0.3-0.5-0.4c-0.1,0.1-0.2,0.3-0.2,0.5l0,0.1l-0.1,0c0,0-0.3-0.1-0.4-0.3
			l-0.1,0.6l-0.1,0c0,0-0.2-0.1-0.3-0.2c0,0.3-0.1,0.6,0.1,0.8l-0.1,0.1c0,0-0.3-0.2-0.4-0.4c0,0.2,0,0.5,0.1,0.6l0.1,0.2l-0.2-0.1
			c-0.1,0-0.3-0.2-0.5-0.3L68.2,29.6z M69.7,25.5c0.2,0,0.3,0,0.3,0l0.2,0L70,25.6c0,0-1.3,0.8-1.9,1.6c-0.4,0.6-0.2,1.4-0.1,1.8
			l0.1-0.8l0.1,0.2c0,0.1,0.2,0.2,0.4,0.3c-0.1-0.3,0-0.8,0-0.8l0.2,0c0,0.2,0.1,0.4,0.3,0.5c-0.1-0.4,0.1-0.9,0.1-0.9l0.2,0
			c0,0.2,0.1,0.3,0.2,0.3l0.1-0.7l0.1,0c0.1,0.2,0.2,0.3,0.4,0.3c0-0.3,0.2-0.6,0.2-0.6l0,0l0,0c0.3,0.1,0.5,0.2,0.6,0.3
			c0.1-0.3,0.1-0.7,0.1-0.7v-0.2l0.1,0.2c0.4,0.4,0.4,1,0.4,1.2c0.1,0,0.2-0.1,0.2-0.1l0.1-0.1l0.1,0.1c0.1,0.3,0.1,0.6,0.1,0.7
			l0.2-0.1l0,0c0.1,0.2,0.2,0.4,0.3,0.7c0.1-0.3,0-0.5,0-0.5l0-0.1l0.1,0c0.1,0,0.2,0.1,0.2,0.1c0.1-1.2-1.3-2.7-1.3-2.7l0.1-0.1
			L72,26l0.1-0.2l0.3,0.3l0.1-0.3l0.1,0c0.2,0.1,0.3,0.3,0.3,0.5c0.1,0,0.2-0.1,0.2-0.2l0-0.1l0.1,0c0.1,0.1,0.2,0.4,0.2,0.5
			l0.3-0.1l0,0c0.2,0.1,0.1,0.4,0.1,0.6c0.1-0.1,0.2-0.2,0.3-0.3l0.1-0.1l0.3,0.3c0-0.8-0.2-1.4-0.6-1.8c-0.6-0.7-1.6-0.8-2-0.8
			c-0.1,0-0.2,0-0.2,0l0-0.1c0.1,0,0.2-0.1,0.4-0.1c0.3,0,0.5,0,0.7,0.1v-0.2l0.6,0.1V24l0.1,0c0.2,0,0.5,0.1,0.6,0.2
			c0.1-0.1,0-0.1,0-0.1l0-0.1l0.1,0c0.2,0,0.4,0.2,0.5,0.3c0-0.1,0-0.2,0-0.3l0-0.1l0.1,0c0.2,0,0.4,0.1,0.6,0.3
			c0-0.3-0.3-0.4-0.3-0.4l-0.2-0.1l0.7,0c-0.2-0.1-0.5-0.2-0.6-0.2l-0.1,0l0.2-0.3C74.8,23,74.7,23,74.5,23c-0.1,0-0.1,0-0.1,0
			l-0.1,0l0,0c0-0.1,0-0.2,0.1-0.3c0,0-0.1,0-0.1,0c-0.3,0-0.5,0.1-0.5,0.1l-0.1,0l0-0.3c-0.4,0-0.8,0.3-0.8,0.3l-0.1,0.1l-0.1-0.3
			c-0.9,0.3-1.3,1.7-1.3,1.7l-0.1,0l0.2-0.8c0.1-0.1,0-0.3,0-0.4c0,0,0,0-0.1,0c-0.1,0-0.2,0-0.2,0l-0.2,0l0.1-0.1c0,0,0-0.1,0-0.2
			c0-0.1-0.1-0.1-0.1-0.1c-0.1,0-0.2,0.2-0.3,0.4l-0.1,0.2l0-0.3c0-0.2-0.1-0.3-0.2-0.4c0,0.1-0.1,0.3-0.2,0.4L70,23.2L70,23.1
			c-0.1-0.1-0.2-0.3-0.3-0.3l-0.2,0.2l0.3,0.5c0.1,0.2,0.2,0.3,0.3,0.5L69.8,24l-0.3-0.5c-0.5-0.9-1.2-1-1.4-1c0,0,0,0,0,0l-0.2,0.3
			l-0.1-0.1c-0.1-0.1-0.3-0.2-0.6-0.2c0,0,0,0,0,0c0,0.1-0.1,0.2-0.4,0.2l0,0l0,0c-0.2-0.1-0.4-0.1-0.6-0.1c-0.1,0-0.2,0-0.3,0
			c0.2,0.2,0.2,0.6,0.2,0.6l0,0.1l-0.1,0c-0.3,0-0.5,0.2-0.6,0.4c0,0,0,0,0,0c0.2,0,0.5,0.1,0.5,0.1l0.1,0l0,0.1
			c-0.2,0.4-0.3,0.8-0.3,1.1c0.2-0.3,0.6-0.5,0.6-0.6l0.1-0.1l0,0.1c0,0,0.1,0.2,0.2,0.3c0.1-0.2,0.3-0.3,0.3-0.3l0.1,0l0,0.1
			c0.1,0.1,0.1,0.2,0.2,0.2c0.1-0.3,0.5-0.6,0.5-0.6l0.1-0.1l0,0.1c0,0.1,0.1,0.2,0.1,0.3c0.2-0.1,0.5-0.2,0.8-0.2
			c0.4,0,0.8,0.1,0.8,0.1l0,0.1c-1,0.1-1.8,0.4-2.4,0.9c-0.5,0.4-0.6,1-0.7,1.4c0.1-0.1,0.2-0.3,0.2-0.3l0.1-0.1l0,0.1
			c0,0.1,0.1,0.1,0.2,0.2c0-0.2,0.1-0.5,0.1-0.5l0.1-0.2l0,0.2c0,0.1,0,0.1,0.2,0.1c0,0,0,0,0.1,0c0-0.3,0.3-0.6,0.3-0.6l0.1-0.1
			v0.2c0,0,0.1,0.1,0.2,0.2c0.1-0.3,0.5-0.5,0.5-0.6l0.1-0.1l0,0.1c0,0.1,0.1,0.2,0.1,0.3C69,25.5,69.4,25.5,69.7,25.5z"/>
	</g>
	<g>
		<linearGradient id="SVGID_27_" gradientUnits="userSpaceOnUse" x1="70.3749" y1="36.7252" x2="73.5733" y2="36.7252">
			<stop  offset="0" style="stop-color:#00AB60"/>
			<stop  offset="1" style="stop-color:#007A4E"/>
		</linearGradient>
		<path class="st29" d="M73.4,37.3c-0.2,0-0.5-0.2-0.5-0.3c-0.1-0.1-1.1-0.2-1.8,0.3l-0.6-0.2c0,0,1-0.8,1.8-1
			c0.8-0.1,1.3,0,1.4,0.2C73.6,36.5,73.6,37.4,73.4,37.3z"/>
		<path d="M71,37.4l-0.8-0.3l0.1-0.1c0,0,1-0.9,1.9-1c0.2,0,0.4,0,0.6,0c0.5,0,0.8,0.1,0.9,0.3c0,0.2,0.1,0.8-0.1,1
			c-0.1,0.1-0.1,0.1-0.2,0.1c-0.2,0-0.5-0.2-0.6-0.3c0,0-0.2,0-0.4,0C72.1,37,71.5,37.1,71,37.4L71,37.4z M72.3,36.9
			c0.2,0,0.5,0,0.6,0.1c0,0.1,0.3,0.2,0.5,0.2l0,0c0,0,0,0,0,0c0.1-0.1,0.1-0.7,0.1-0.9c0-0.1-0.2-0.2-0.7-0.2c-0.2,0-0.4,0-0.6,0
			c-0.7,0.1-1.4,0.6-1.7,0.9l0.5,0.2C71.5,36.9,72.1,36.9,72.3,36.9z"/>
	</g>
	<g>
		<linearGradient id="SVGID_28_" gradientUnits="userSpaceOnUse" x1="68.7913" y1="37.8006" x2="70.269" y2="37.8006">
			<stop  offset="0" style="stop-color:#DE9D14"/>
			<stop  offset="1" style="stop-color:#FFD24C"/>
		</linearGradient>
		<path class="st30" d="M70.2,36.9c0,0.1,0.2,0.5,0,0.6c-0.2,0.1-0.6,0.9-0.7,1c-0.1,0.2-0.5,0.2-0.5,0.2s-0.1-0.3-0.1-0.4
			c0-0.1,0.8-1.3,0.9-1.4C69.9,36.9,70.2,36.8,70.2,36.9z"/>
		<path d="M68.9,38.8L68.9,38.8c0-0.1-0.1-0.4-0.2-0.5c-0.1-0.2,0.9-1.4,1-1.5c0.1-0.1,0.3-0.1,0.4-0.1c0.2,0,0.2,0.1,0.2,0.1
			c0,0,0,0.1,0,0.2c0,0.2,0.1,0.4,0,0.5c-0.1,0.1-0.3,0.4-0.4,0.6c-0.1,0.2-0.2,0.3-0.3,0.4C69.4,38.8,69,38.8,68.9,38.8L68.9,38.8z
			 M68.9,38.3c0,0.1,0.1,0.2,0.1,0.3c0.1,0,0.4-0.1,0.4-0.2c0.1-0.1,0.2-0.2,0.3-0.4c0.2-0.3,0.4-0.6,0.5-0.6c0.1-0.1,0-0.2,0-0.4
			c0-0.1,0-0.1,0-0.2c0,0,0,0,0,0c-0.1,0-0.2,0-0.3,0.1C69.6,37.1,68.9,38.1,68.9,38.3z"/>
	</g>
	<g>
		<linearGradient id="SVGID_29_" gradientUnits="userSpaceOnUse" x1="68.2819" y1="37.3667" x2="69.6314" y2="37.3667">
			<stop  offset="0" style="stop-color:#DE9D14"/>
			<stop  offset="1" style="stop-color:#FFD24C"/>
		</linearGradient>
		<path class="st31" d="M69.5,36.5c0,0.1,0.2,0.5,0,0.6c-0.2,0.1-0.5,0.8-0.7,1c-0.1,0.2-0.5,0.2-0.5,0.2s-0.1-0.3-0.1-0.4
			c0-0.1,0.7-1.3,0.9-1.3C69.3,36.5,69.5,36.4,69.5,36.5z"/>
		<path d="M68.4,38.4L68.4,38.4c0-0.1-0.1-0.4-0.1-0.5c0-0.1,0.8-1.4,0.9-1.4c0.1-0.1,0.3-0.1,0.4-0.1c0.1,0,0.2,0.1,0.2,0.1
			c0,0,0,0.1,0,0.2c0,0.2,0.1,0.4,0,0.5c-0.1,0.1-0.3,0.4-0.4,0.6c-0.1,0.2-0.2,0.3-0.2,0.4C68.8,38.3,68.5,38.4,68.4,38.4
			L68.4,38.4z M68.4,37.9c0,0.1,0.1,0.2,0.1,0.3c0.1,0,0.3-0.1,0.4-0.2c0-0.1,0.1-0.2,0.2-0.4c0.2-0.3,0.3-0.5,0.4-0.6
			c0.1-0.1,0-0.2,0-0.3c0-0.1,0-0.1,0-0.2c0,0,0,0,0,0c-0.1,0-0.2,0-0.3,0.1C69.1,36.7,68.4,37.7,68.4,37.9z"/>
	</g>
	<g>
		<linearGradient id="SVGID_30_" gradientUnits="userSpaceOnUse" x1="70.6714" y1="39.0734" x2="72.1764" y2="39.0734">
			<stop  offset="0" style="stop-color:#DE9D14"/>
			<stop  offset="1" style="stop-color:#FFD24C"/>
		</linearGradient>
		<path class="st32" d="M72.1,38.3c-0.1,0-0.5,0-0.6,0.1c-0.1,0.2-0.7,0.7-0.8,0.9c-0.1,0.2,0,0.5,0,0.5s0.4,0,0.4,0
			c0.1,0,1-1,1-1.2C72.2,38.5,72.2,38.3,72.1,38.3z"/>
		<path d="M71.1,40L71.1,40L71.1,40c-0.1,0-0.4,0-0.4,0l-0.1,0l0-0.1c0,0-0.1-0.4,0.1-0.6c0.1-0.1,0.2-0.2,0.3-0.3
			c0.2-0.2,0.4-0.4,0.5-0.6c0.1-0.2,0.3-0.2,0.5-0.2c0.1,0,0.1,0,0.2,0l0,0c0,0,0.1,0,0.1,0c0.1,0.1,0.1,0.3,0.1,0.5
			C72.2,38.8,71.3,40,71.1,40z M70.8,39.8c0.1,0,0.3,0,0.3,0c0.1-0.1,0.9-1,1-1.1c0-0.1,0-0.3,0-0.3c0,0-0.1,0-0.2,0
			c-0.1,0-0.3,0-0.3,0.1c-0.1,0.1-0.3,0.4-0.5,0.6c-0.1,0.1-0.2,0.3-0.3,0.3C70.7,39.5,70.7,39.7,70.8,39.8z"/>
	</g>
	<g>
		<linearGradient id="SVGID_31_" gradientUnits="userSpaceOnUse" x1="68.4007" y1="40.2033" x2="70.0824" y2="40.2033">
			<stop  offset="0" style="stop-color:#DE9D14"/>
			<stop  offset="1" style="stop-color:#FFD24C"/>
		</linearGradient>
		<path class="st33" d="M70,39.1c0,0,0.1,0.6,0,0.7c-0.1,0.2-0.9,1.2-1.1,1.4c-0.2,0.2-0.4,0.1-0.4,0.1s-0.3-0.2-0.1-0.4
			c0.2-0.3,0.6-1.3,0.9-1.5C69.6,39.1,69.9,39,70,39.1z"/>
		<path d="M68.7,41.4c-0.1,0-0.1,0-0.1,0c0,0-0.2-0.1-0.2-0.3c0-0.1,0-0.2,0.1-0.3c0.1-0.1,0.2-0.3,0.3-0.6c0.2-0.4,0.4-0.8,0.6-1
			c0.2-0.2,0.6-0.4,0.8-0.3l0,0l0,0c0,0.1,0.1,0.6,0,0.8C70,40,69.2,41.1,69,41.3C68.8,41.4,68.7,41.4,68.7,41.4z M68.6,41.3
			c0,0,0.1,0,0.3-0.1c0.2-0.2,1-1.2,1.1-1.4c0.1-0.1,0-0.4,0-0.6c0,0,0,0,0,0c-0.1,0-0.4,0.1-0.5,0.3c-0.1,0.1-0.4,0.6-0.5,0.9
			c-0.1,0.2-0.2,0.5-0.3,0.6c0,0.1-0.1,0.1,0,0.2C68.5,41.2,68.6,41.2,68.6,41.3L68.6,41.3z"/>
	</g>
	<g>
		<linearGradient id="SVGID_32_" gradientUnits="userSpaceOnUse" x1="66.528" y1="38.9877" x2="67.8236" y2="38.9877">
			<stop  offset="0" style="stop-color:#DE9D14"/>
			<stop  offset="1" style="stop-color:#FFD24C"/>
		</linearGradient>
		<path class="st34" d="M67.8,37.8c0,0,0-0.2-0.3-0.3c-0.3-0.1-1.2,1.6-1,2.3c0.2,0.7,0.2,0.4,0.2,0.4l0.3-0.1c0,0-0.2-0.6,0.1-1
			c0.2-0.4,0.4-0.9,0.6-1C67.8,38,67.8,37.8,67.8,37.8z"/>
		<path d="M66.7,40.5L66.7,40.5c-0.1,0-0.2-0.1-0.3-0.5c-0.1-0.6,0.4-1.8,0.8-2.2c0.2-0.2,0.2-0.2,0.3-0.2l0,0
			c0.3,0.1,0.3,0.2,0.3,0.3l0,0c0,0,0,0.2-0.1,0.4c-0.1,0.1-0.4,0.6-0.6,1c-0.2,0.4,0,0.9,0,0.9l0,0.1l-0.4,0.1
			C66.8,40.4,66.8,40.5,66.7,40.5z M67.6,37.7c0,0-0.1,0-0.2,0.2c-0.4,0.5-0.8,1.5-0.7,2c0,0.2,0.1,0.3,0.1,0.4l0.3-0.1
			c0-0.2-0.1-0.6,0.1-1c0.2-0.4,0.4-0.9,0.6-1c0.1-0.1,0.1-0.3,0.1-0.3C67.7,37.8,67.7,37.7,67.6,37.7z"/>
	</g>
	<g>
		<linearGradient id="SVGID_33_" gradientUnits="userSpaceOnUse" x1="67.002" y1="39.2236" x2="68.3325" y2="39.2236">
			<stop  offset="0" style="stop-color:#DE9D14"/>
			<stop  offset="1" style="stop-color:#FFD24C"/>
		</linearGradient>
		<path class="st35" d="M67.6,40.6c0,0-0.6,0-0.6-0.5c0.1-0.6,0.7-2.1,0.8-2.1c0.1,0,0.5-0.1,0.5-0.1l0.1,0.4c0,0-0.3,0.7-0.4,1.1
			C67.7,39.8,67.5,40.2,67.6,40.6z"/>
		<path d="M67.6,40.7c-0.1,0-0.3,0-0.5-0.2c-0.1-0.1-0.1-0.3-0.1-0.4c0-0.5,0.6-2.1,0.8-2.2c0.1,0,0.5-0.1,0.5-0.1l0.1,0l0.1,0.5
			l0,0c0,0-0.3,0.7-0.4,1.1c0,0.1-0.1,0.2-0.1,0.2C67.7,40,67.6,40.3,67.6,40.7L67.6,40.7L67.6,40.7z M67.8,38
			c-0.1,0.1-0.7,1.5-0.7,2c0,0.1,0,0.2,0.1,0.3c0.1,0.1,0.2,0.1,0.3,0.1c0-0.3,0.1-0.6,0.2-0.9c0-0.1,0.1-0.2,0.1-0.2
			c0.1-0.4,0.4-1,0.4-1.1L68.2,38C68.1,38,67.9,38,67.8,38z"/>
	</g>
	<g>
		<linearGradient id="SVGID_34_" gradientUnits="userSpaceOnUse" x1="67.5313" y1="39.5106" x2="68.8904" y2="39.5106">
			<stop  offset="0" style="stop-color:#DE9D14"/>
			<stop  offset="1" style="stop-color:#FFD24C"/>
		</linearGradient>
		<path class="st36" d="M68.4,38.3l0.4-0.1c0,0,0.2,0.4,0.1,0.5c-0.1,0.1-0.7,1.6-0.8,1.8c-0.1,0.2-0.4,0.2-0.4,0.2
			s-0.3-0.3-0.1-0.5C67.7,40,68.2,38.4,68.4,38.3z"/>
		<path d="M67.8,40.8c-0.1,0-0.1,0-0.1,0l0,0c0,0-0.3-0.3-0.1-0.6c0-0.1,0.2-0.4,0.3-0.7c0.3-0.8,0.4-1.2,0.5-1.3l0,0l0.5-0.1l0,0.1
			c0,0.1,0.2,0.5,0.1,0.6c-0.1,0.1-0.5,1.1-0.7,1.6l-0.1,0.2C68.1,40.8,67.9,40.8,67.8,40.8z M67.7,40.7
			C67.7,40.7,67.8,40.7,67.7,40.7c0.1,0,0.2,0,0.2-0.1l0.1-0.2c0.4-0.9,0.7-1.5,0.7-1.6c0,0,0-0.2-0.1-0.4l-0.3,0.1
			c-0.1,0.1-0.3,0.8-0.5,1.2c-0.1,0.3-0.2,0.6-0.3,0.7C67.6,40.5,67.7,40.6,67.7,40.7z"/>
	</g>
	<g>
		<linearGradient id="SVGID_35_" gradientUnits="userSpaceOnUse" x1="67.9818" y1="39.8444" x2="69.5408" y2="39.8444">
			<stop  offset="0" style="stop-color:#DE9D14"/>
			<stop  offset="1" style="stop-color:#FFD24C"/>
		</linearGradient>
		<path class="st37" d="M68.9,38.8c0,0,0.4-0.2,0.5-0.1c0.1,0.1,0.3,0.3,0.2,0.4c-0.1,0.1-1.2,1.9-1.2,1.9s-0.2,0.1-0.3,0
			c-0.1-0.1-0.1-0.4,0-0.5C68.2,40.3,68.6,38.9,68.9,38.8z"/>
		<path d="M68.2,41.1c-0.1,0-0.2,0-0.2-0.1c-0.1-0.1-0.2-0.4,0-0.6c0-0.1,0.1-0.3,0.2-0.5c0.3-0.6,0.5-1.1,0.6-1.2
			c0,0,0.3-0.2,0.4-0.2c0.1,0,0.1,0,0.1,0.1l0,0c0.1,0.1,0.2,0.3,0.2,0.5c-0.1,0.1-1.1,1.8-1.2,2l0,0l0,0
			C68.3,41.1,68.3,41.1,68.2,41.1z M68.1,41C68.1,41,68.1,41,68.1,41c0.1,0,0.1,0,0.2,0c0.5-0.7,1.1-1.8,1.2-1.9
			c0-0.1-0.1-0.2-0.2-0.3l0,0c-0.1,0-0.3,0.1-0.4,0.1c-0.1,0.1-0.4,0.7-0.5,1.1c-0.1,0.3-0.2,0.5-0.2,0.6C68,40.7,68.1,40.9,68.1,41
			C68.1,41,68.1,41,68.1,41z"/>
	</g>
	<g>
		<linearGradient id="SVGID_36_" gradientUnits="userSpaceOnUse" x1="68.8905" y1="40.5492" x2="70.634" y2="40.5492">
			<stop  offset="0" style="stop-color:#DE9D14"/>
			<stop  offset="1" style="stop-color:#FFD24C"/>
		</linearGradient>
		<path class="st38" d="M68.9,41.2c-0.1,0.1-0.1,0.4,0.1,0.4c0.2,0,0.6-0.4,1.1-0.7c0.4-0.4,0.5-0.8,0.5-1c0-0.2-0.3-0.3-0.4-0.3
			c-0.1,0-0.2,0.2-0.3,0.4C69.8,40.2,68.9,41.2,68.9,41.2z"/>
		<path d="M69,41.7c-0.1,0-0.1,0-0.2-0.1c-0.1-0.1-0.1-0.3,0-0.4l0,0c0,0,0.8-1,1-1.3l0.1-0.1c0.1-0.2,0.2-0.3,0.3-0.4
			c0,0,0,0,0.1,0c0.2,0,0.4,0.1,0.5,0.4c0,0.2-0.1,0.7-0.5,1.1l-0.1,0C69.6,41.4,69.2,41.7,69,41.7z M69,41.3c0,0.1,0,0.2,0,0.2
			c0,0,0,0,0.1,0c0.1,0,0.6-0.4,1-0.7l0.1,0c0.4-0.4,0.5-0.8,0.5-1c0-0.2-0.2-0.2-0.3-0.2c-0.1,0-0.1,0.1-0.2,0.3c0,0,0,0.1-0.1,0.1
			C69.8,40.2,69.1,41.1,69,41.3z"/>
	</g>
	<g>
		<linearGradient id="SVGID_37_" gradientUnits="userSpaceOnUse" x1="69.1368" y1="40.8597" x2="71.1834" y2="40.8597">
			<stop  offset="0" style="stop-color:#DE9D14"/>
			<stop  offset="1" style="stop-color:#FFD24C"/>
		</linearGradient>
		<path class="st39" d="M70.6,39.8c0.2,0.1,0.5-0.1,0.5,0.1c0,0.1,0.1,0.5,0,0.8c-0.2,0.3-0.9,1.1-1.3,1.2c-0.4,0.1-0.8-0.2-0.6-0.3
			c0.2-0.1,1-0.8,1.2-1C70.6,40.4,70.6,39.8,70.6,39.8z"/>
		<path d="M69.6,42c-0.3,0-0.5-0.1-0.5-0.3c0-0.1,0-0.2,0.1-0.2c0.2-0.1,1-0.8,1.2-1c0.1-0.2,0.2-0.6,0.2-0.7l0-0.1l0.1,0
			c0.1,0,0.2,0,0.3,0c0,0,0.1,0,0.1,0c0.1,0,0.1,0,0.2,0.1c0,0,0,0.1,0,0.1c0,0,0,0.1,0,0.2c0,0.2,0.1,0.4,0,0.6
			C71,41,70.3,41.8,69.8,42C69.8,42,69.7,42,69.6,42z M70.7,39.9c0,0.2-0.1,0.6-0.3,0.7c-0.2,0.2-0.9,0.9-1.2,1c0,0,0,0,0,0
			c0,0.1,0.2,0.2,0.4,0.2c0.1,0,0.1,0,0.2,0c0.4-0.1,1.1-0.9,1.3-1.2c0.1-0.2,0.1-0.4,0-0.6c0-0.1,0-0.1,0-0.2c0,0-0.1,0-0.1,0
			C70.9,39.9,70.8,39.9,70.7,39.9z"/>
	</g>
	<g>
		<linearGradient id="SVGID_38_" gradientUnits="userSpaceOnUse" x1="69.7342" y1="41.2598" x2="71.6628" y2="41.2598">
			<stop  offset="0" style="stop-color:#DE9D14"/>
			<stop  offset="1" style="stop-color:#FFD24C"/>
		</linearGradient>
		<path class="st40" d="M71.1,40.2c0,0,0.5-0.1,0.5,0.1c0,0.1,0.2,0.4-0.1,0.7c-0.2,0.3-1,1.4-1.4,1.4c-0.4,0-0.5-0.4-0.3-0.5
			c0.2,0,1.1-0.9,1.1-1C71,40.7,71.1,40.2,71.1,40.2z"/>
		<path d="M70.1,42.4c-0.3,0-0.4-0.2-0.5-0.4c0-0.1,0-0.2,0.1-0.2c0.1,0,1-0.8,1.1-1c0.1-0.1,0.1-0.5,0.1-0.6l0-0.1l0.1,0
			c0,0,0.1,0,0.2,0c0.1,0,0.3,0,0.3,0.1l0,0c0,0.1,0.1,0.4-0.1,0.7C71.6,41.1,70.7,42.4,70.1,42.4C70.1,42.4,70.1,42.4,70.1,42.4z
			 M71.2,40.3c0,0.1-0.1,0.5-0.2,0.6c-0.1,0.2-1,1-1.2,1.1c0,0,0,0.1,0,0.1c0,0,0.1,0.2,0.3,0.2l0,0c0.3,0,1-0.8,1.3-1.3
			c0.2-0.2,0.1-0.5,0.1-0.6c0,0,0,0,0,0c0,0-0.1,0-0.2,0C71.3,40.3,71.2,40.3,71.2,40.3z"/>
	</g>
	<g>
		<linearGradient id="SVGID_39_" gradientUnits="userSpaceOnUse" x1="67.1034" y1="41.9429" x2="68.5135" y2="41.9429">
			<stop  offset="0" style="stop-color:#DE9D14"/>
			<stop  offset="1" style="stop-color:#FFD24C"/>
		</linearGradient>
		<path class="st41" d="M68.3,41c0,0,0.2,0.2,0.2,0.4c0,0.1-0.6,1.2-1,1.4c-0.5,0.2-0.4-0.2-0.3-0.4c0.1-0.3,0.6-1.2,0.7-1.3
			C68,41,68.2,41,68.3,41z"/>
		<path d="M67.3,43c-0.1,0-0.2-0.1-0.2-0.1c-0.1-0.1,0-0.3,0.1-0.5l0.1-0.2c0.3-0.7,0.6-1.1,0.7-1.2c0.1-0.1,0.3-0.1,0.5-0.1l0,0
			c0,0,0.2,0.3,0.2,0.4c0,0.1-0.6,1.3-1.1,1.5C67.4,42.9,67.3,43,67.3,43z M68.2,41.1c-0.1,0-0.1,0-0.2,0.1
			c-0.1,0.1-0.5,0.8-0.6,1.1l-0.1,0.2c-0.1,0.1-0.1,0.3-0.1,0.3c0,0,0,0,0.1,0c0,0,0.1,0,0.2-0.1c0.4-0.2,1-1.3,1-1.4
			c0-0.1-0.1-0.2-0.1-0.3C68.2,41.1,68.2,41.1,68.2,41.1z"/>
	</g>
	<g>
		<linearGradient id="SVGID_40_" gradientUnits="userSpaceOnUse" x1="66.7159" y1="41.6646" x2="67.9147" y2="41.6646">
			<stop  offset="0" style="stop-color:#DE9D14"/>
			<stop  offset="1" style="stop-color:#FFD24C"/>
		</linearGradient>
		<path class="st42" d="M67.9,41c0.1-0.1-0.2-0.4-0.4-0.4c-0.2,0-0.7,1.4-0.8,1.7c-0.1,0.4,0.1,0.5,0.3,0.4
			C67.1,42.6,67.8,41.1,67.9,41z"/>
		<path d="M66.9,42.8L66.9,42.8c-0.1,0-0.1,0-0.2-0.1c-0.1-0.1-0.1-0.3-0.1-0.5c0-0.3,0.6-1.8,0.9-1.8c0.2,0,0.4,0.1,0.4,0.3
			c0,0.1,0.1,0.2,0,0.2c0,0-0.1,0.2-0.2,0.4c-0.4,0.8-0.7,1.3-0.7,1.4C67,42.8,66.9,42.8,66.9,42.8z M67.5,40.7
			c-0.2,0.1-0.7,1.3-0.7,1.7c0,0.2,0,0.3,0,0.3c0,0,0.1,0,0.1,0c0.1-0.1,0.5-0.9,0.7-1.3c0.1-0.3,0.2-0.4,0.2-0.4c0,0,0,0,0-0.1
			C67.8,40.8,67.6,40.7,67.5,40.7z"/>
	</g>
	<g>
		<linearGradient id="SVGID_41_" gradientUnits="userSpaceOnUse" x1="67.497" y1="42.2668" x2="69.0463" y2="42.2668">
			<stop  offset="0" style="stop-color:#DE9D14"/>
			<stop  offset="1" style="stop-color:#FFD24C"/>
		</linearGradient>
		<path class="st43" d="M68.5,41.4c0.2,0,0.5-0.1,0.5,0.2c0,0.3-0.1,0.7-0.5,1c-0.4,0.3-0.6,0.6-1,0.5c-0.3-0.1,0.1-0.8,0.3-0.9
			C68.1,42.2,68.5,41.4,68.5,41.4z"/>
		<path d="M67.7,43.2C67.7,43.2,67.6,43.2,67.7,43.2c-0.2,0-0.3-0.1-0.3-0.2c0-0.3,0.3-0.7,0.5-0.8c0.1-0.1,0.4-0.6,0.6-0.9l0,0l0,0
			c0.1,0,0.1,0,0.2,0c0.3,0,0.4,0.2,0.4,0.3c0,0.2,0,0.7-0.5,1.1C68.3,43,68,43.2,67.7,43.2z M68.6,41.5c-0.1,0.2-0.4,0.8-0.6,0.9
			c-0.1,0.1-0.4,0.5-0.4,0.7c0,0,0,0,0.1,0.1c0.3,0,0.6-0.2,0.9-0.5c0.4-0.4,0.4-0.8,0.4-1c0,0,0-0.1-0.2-0.1
			C68.7,41.4,68.6,41.5,68.6,41.5z"/>
	</g>
	<g>
		<linearGradient id="SVGID_42_" gradientUnits="userSpaceOnUse" x1="67.8216" y1="42.5521" x2="69.6161" y2="42.5521">
			<stop  offset="0" style="stop-color:#DE9D14"/>
			<stop  offset="1" style="stop-color:#FFD24C"/>
		</linearGradient>
		<path class="st44" d="M69,41.8c0,0,0.5,0,0.6,0.2c0,0.2,0,0.6-0.4,0.9c-0.5,0.3-1,0.6-1.3,0.5c-0.3-0.1,0.4-0.5,0.6-0.6
			C68.6,42.5,69,41.8,69,41.8z"/>
		<path d="M68,43.4c-0.1,0-0.1,0-0.2,0c-0.1,0-0.1-0.1-0.1-0.1c0-0.1,0.1-0.3,0.4-0.5c0.1-0.1,0.2-0.1,0.2-0.2
			c0.1-0.1,0.2-0.4,0.4-0.6c0.1-0.2,0.2-0.3,0.2-0.4l0,0l0,0c0,0,0,0,0.1,0c0.4,0,0.5,0.1,0.6,0.2c0,0.1,0.1,0.6-0.5,1
			C68.7,43.2,68.3,43.4,68,43.4z M67.9,43.3C67.9,43.3,67.9,43.3,67.9,43.3c0.3,0.1,0.7-0.1,1.2-0.5c0.4-0.3,0.4-0.8,0.4-0.8
			c0,0-0.1-0.1-0.4-0.1c0,0,0,0,0,0c0,0-0.1,0.2-0.2,0.3c-0.1,0.2-0.3,0.5-0.4,0.6c-0.1,0.1-0.2,0.1-0.3,0.2
			C68.1,43,67.9,43.2,67.9,43.3z"/>
	</g>
	<path d="M57.1,39.7c-0.4,0-0.6-0.1-0.7-0.1l0-0.1c0,0,0.5,0.1,1,0l-0.1-0.3l0.1,0c0,0,0.4-0.1,0.7-0.3l-0.4-0.2l0.2-0.1
		c0.1,0,0.5-0.2,0.6-0.4l-0.2,0l0-0.1c0,0,0.6-0.2,0.8-0.6l-0.3,0.1l-0.1-0.1c0,0,0.5-0.4,0.6-0.8L58.8,37l-0.1-0.1
		c0.3-0.3,0.7-0.7,0.9-1c-0.3,0.2-0.9,0.7-1.3,0.8c-0.2,0.1-0.4,0.1-0.6,0.2c-0.3,0.1-0.6,0.2-0.8,0.3c-0.2,0-0.8,0.2-0.9,0.6
		c-0.1,0.2-0.1,0.5-0.1,0.7c0,0.2,0,0.3-0.1,0.4C55.7,39,55.3,39,55.2,39l0-0.2c0.2,0,0.4-0.1,0.4-0.1c0,0,0-0.2,0.1-0.3
		c0-0.2,0.1-0.5,0.1-0.7c0.1-0.5,0.8-0.7,1-0.7c0.2,0,0.5-0.2,0.8-0.3c0.2-0.1,0.4-0.2,0.6-0.2c0.5-0.1,1.4-0.9,1.4-0.9l0.1-0.1
		l0,0.1c0,0.3-0.3,0.7-0.6,1l0.5-0.3v0.1c0,0.4-0.3,0.7-0.5,0.9l0.3-0.1l0,0.1c-0.1,0.4-0.5,0.6-0.7,0.7l0.1,0l0,0.1
		c-0.1,0.2-0.4,0.4-0.6,0.5l0.3,0.1L58.4,39c-0.3,0.2-0.7,0.3-0.8,0.4l0.1,0.3l-0.1,0C57.5,39.7,57.3,39.7,57.1,39.7z"/>
	<path d="M57.8,43.9L57.8,43.9c-0.2-0.2-0.2-0.6-0.3-0.9c0-0.1-0.1-0.3-0.1-0.4c-0.1-0.4-0.4-0.5-0.8-0.6c-0.1,0-0.2-0.1-0.4-0.1
		c-0.5-0.1-1.4-0.2-2-0.8c-1-1-0.8-2.8-0.7-3.5c0-0.1,0-0.1,0-0.2c0-0.2-0.1-0.3-0.2-0.4l0,0c-0.2-0.2-0.7-0.2-0.7-0.2l-0.2,0
		l0.2-0.1c0.1,0,0.1-0.1,0.2-0.1c0.2-0.1,0.5-0.2,0.6-0.4c0.2-0.3,0.5-0.4,1-0.4c0.3,0,0.5,0.2,0.6,0.3c0.2,0.2,0.2,0.4,0.2,0.6
		c0,0.1,0.1,0.4,0.2,0.6c0.1,0.1,0.1,0.3,0.2,0.4c0.1,0.3,0.4,0.6,0.4,0.6l-0.1,0.1c0,0-0.3-0.3-0.4-0.6c0-0.1-0.1-0.2-0.2-0.4
		c-0.1-0.2-0.3-0.5-0.2-0.7c0-0.1,0-0.3-0.2-0.5c-0.1-0.1-0.2-0.2-0.5-0.2c-0.5,0-0.7,0.2-0.8,0.3c-0.1,0.2-0.4,0.3-0.6,0.5
		c0,0,0,0,0,0c0.2,0,0.4,0.1,0.5,0.2l0,0c0.1,0.1,0.3,0.2,0.3,0.5c0,0,0,0.1,0,0.2c-0.1,0.7-0.3,2.4,0.7,3.3c0.6,0.6,1.4,0.7,2,0.8
		c0.2,0,0.3,0,0.4,0.1c0.4,0.1,0.8,0.3,0.9,0.7c0,0.1,0.1,0.2,0.1,0.4c0.1,0.3,0.1,0.6,0.2,0.7l0.3-0.1l-0.3-0.3l0.2,0.1
		c0,0,0.7,0.2,1,0.2c0-0.1,0-0.2-0.1-0.3l0-0.1l0.1,0c0.1,0,0.4-0.1,0.5-0.2c0,0-0.1,0-0.1,0c-0.2-0.1-0.4-0.2-0.6-0.3
		c-0.3-0.3-0.9-1-1.1-1.4c-0.1-0.1-0.1-0.2-0.2-0.4c-0.2-0.5-0.6-1.1-1-1.4l0.1-0.1c0.4,0.3,0.8,0.9,1,1.4c0.1,0.2,0.1,0.3,0.2,0.4
		c0.2,0.4,0.8,1,1.1,1.4c0.2,0.1,0.4,0.2,0.5,0.3c0.2,0.1,0.2,0.1,0.3,0.2c0,0,0,0.1-0.1,0.1c-0.1,0.1-0.4,0.2-0.6,0.2
		c0.1,0.3,0,0.3,0,0.3l0,0l-0.1,0c-0.2,0-0.6-0.1-0.9-0.2l0.1,0.2L57.8,43.9z"/>
	<path d="M55.2,37.4l-0.2,0c0,0,0.1-0.7,0.5-0.8l0.1,0c0.4-0.2,1.6-0.7,2-1.2l0.1-0.2l0,0.2c0,0,0.1,0.5-0.2,0.8l0.2,0l0,0.1
		c0,0-0.1,0.6-0.5,0.8l-0.1-0.1c0.3-0.1,0.4-0.5,0.4-0.6l-0.4,0l0.2-0.1c0.2-0.2,0.3-0.4,0.3-0.6c-0.5,0.5-1.5,0.9-1.9,1.1l-0.1,0
		C55.4,36.7,55.2,37.2,55.2,37.4z"/>
	<path d="M56.1,39.1C56.1,39.1,56,39.1,56.1,39.1L56,38.9c0,0,0.6,0,0.8-0.4l0,0l0,0c0.1,0,0.3-0.2,0.3-0.4c0,0,0-0.1-0.1-0.2
		L57,37.9l0.1-0.1c0.2-0.1,0.4-0.2,0.4-0.3c0,0,0,0,0,0l-0.1-0.1l0.1-0.1c0.1,0,0.3-0.2,0.3-0.4c0-0.1,0-0.1-0.1-0.2l0.1-0.1
		c0.1,0.1,0.1,0.2,0.1,0.3c0,0.2-0.2,0.3-0.3,0.4c0,0,0,0.1,0,0.1c0,0.2-0.3,0.3-0.4,0.4c0.1,0.1,0.1,0.1,0.1,0.2
		c0,0.2-0.3,0.4-0.4,0.5C56.8,39,56.3,39.1,56.1,39.1z"/>
	<path d="M52.9,36.7l-0.1-0.1c0.1-0.2,0.1-0.6,0-0.7l0.1,0C53,35.9,53.2,36.4,52.9,36.7z"/>
	<g>
		<linearGradient id="SVGID_43_" gradientUnits="userSpaceOnUse" x1="51.3849" y1="36.4326" x2="52.1077" y2="36.4326">
			<stop  offset="0" style="stop-color:#5EBB47"/>
			<stop  offset="1" style="stop-color:#007A4E"/>
		</linearGradient>
		<path class="st45" d="M52.1,37c0-0.1,0.2-0.8-0.6-1.1c0,0-0.2,0.8,0.1,1.2"/>
		<path d="M51.5,37.1c-0.3-0.4-0.1-1.2-0.1-1.3l0-0.1l0.1,0c0.8,0.4,0.7,1,0.7,1.2c0,0,0,0,0,0H52c0,0,0,0,0-0.1
			c0-0.2,0.1-0.6-0.5-1c0,0.2-0.1,0.7,0.1,1L51.5,37.1z"/>
	</g>
	<g>
		<linearGradient id="SVGID_44_" gradientUnits="userSpaceOnUse" x1="49.7655" y1="36.491" x2="51.7464" y2="36.491">
			<stop  offset="0" style="stop-color:#5EBB47"/>
			<stop  offset="1" style="stop-color:#007A4E"/>
		</linearGradient>
		<path class="st46" d="M50.2,36.9c-0.4-0.4-0.4-1-0.4-1c0.5,0.1,0.8,0.5,0.8,0.5c-0.2-0.3-0.1-0.7-0.1-0.7c0.5,0.1,0.9,0.6,0.9,0.7
			c0.1,0.1,0.4,0.7,0.4,0.7S50.6,37.4,50.2,36.9z"/>
		<path d="M51,37.3c-0.4,0-0.7-0.1-0.8-0.3c-0.4-0.4-0.4-1-0.4-1.1l0-0.1l0.1,0c0.3,0,0.5,0.2,0.6,0.3c0-0.2,0-0.4,0-0.4l0-0.1
			l0.1,0c0.6,0.1,0.9,0.7,0.9,0.7c0.1,0.1,0.4,0.7,0.4,0.7l0,0.1l-0.1,0C51.8,37.2,51.4,37.3,51,37.3z M49.9,36
			c0,0.2,0.1,0.6,0.4,0.9c0.1,0.2,0.4,0.2,0.7,0.2c0.3,0,0.5,0,0.6-0.1c-0.1-0.2-0.3-0.5-0.3-0.6c0,0-0.3-0.5-0.8-0.6
			c0,0.1,0,0.3,0.1,0.5l-0.1,0.1C50.5,36.5,50.3,36.1,49.9,36z"/>
	</g>
	<g>
		<linearGradient id="SVGID_45_" gradientUnits="userSpaceOnUse" x1="50.0935" y1="37.2865" x2="51.4419" y2="37.2865">
			<stop  offset="0" style="stop-color:#5EBB47"/>
			<stop  offset="1" style="stop-color:#007A4E"/>
		</linearGradient>
		<path class="st47" d="M51.4,37.1c0,0-0.8-0.3-1.3,0.3c0,0,0.3,0.4,0.9,0.2"/>
		<path d="M50.7,37.7c-0.5,0-0.7-0.3-0.7-0.3l0-0.1l0,0c0.6-0.6,1.4-0.3,1.4-0.3l-0.1,0.1c0,0-0.7-0.3-1.2,0.2
			c0.1,0.1,0.3,0.3,0.8,0.1l0,0.1C50.9,37.7,50.8,37.7,50.7,37.7z"/>
	</g>
	<path d="M53.9,36.7c-0.1,0-0.2,0-0.3-0.1l-0.1,0l0-0.1c0-0.1,0.2-0.2,0.3-0.2c0.1,0,0.2,0,0.2,0.1c0,0.1,0,0.1,0,0.1
		C54,36.7,53.9,36.7,53.9,36.7z"/>
	<g>
		<linearGradient id="SVGID_46_" gradientUnits="userSpaceOnUse" x1="69.4045" y1="38.1708" x2="70.984" y2="38.1708">
			<stop  offset="0" style="stop-color:#DE9D14"/>
			<stop  offset="1" style="stop-color:#FFD24C"/>
		</linearGradient>
		<path class="st48" d="M70.9,37.2c0,0.2,0.2,0.5,0,0.6c-0.2,0.2-0.6,0.9-0.8,1.1c-0.2,0.2-0.6,0.2-0.6,0.2s-0.1-0.4-0.2-0.4
			c0-0.1,0.8-1.4,1-1.4C70.6,37.2,70.9,37.2,70.9,37.2z"/>
		<path d="M69.5,39.2L69.5,39.2c0-0.1-0.1-0.4-0.2-0.5c-0.1-0.2,0.9-1.5,1-1.5c0.1-0.1,0.3-0.1,0.4-0.1c0.2,0,0.2,0.1,0.2,0.1
			c0,0,0,0.1,0,0.2c0.1,0.2,0.1,0.4,0,0.5c-0.1,0.1-0.3,0.4-0.5,0.6c-0.1,0.2-0.2,0.3-0.3,0.4C70,39.2,69.6,39.2,69.5,39.2
			L69.5,39.2z M69.5,38.7c0,0.1,0.1,0.3,0.1,0.4c0.1,0,0.4-0.1,0.5-0.2c0.1-0.1,0.2-0.2,0.3-0.4c0.2-0.3,0.4-0.6,0.5-0.7
			c0.1-0.1,0-0.2,0-0.4c0-0.1,0-0.1,0-0.2c0,0,0,0,0,0c-0.1,0-0.3,0-0.4,0.1C70.3,37.4,69.5,38.5,69.5,38.7z"/>
	</g>
	<g>
		<linearGradient id="SVGID_47_" gradientUnits="userSpaceOnUse" x1="51.5605" y1="38.4198" x2="52.8941" y2="38.4198">
			<stop  offset="0" style="stop-color:#5EBB47"/>
			<stop  offset="1" style="stop-color:#007A4E"/>
		</linearGradient>
		<path class="st49" d="M52.4,37.3c0,0,0.1,0.3,0.2,0.5c0.1,0.1,0.4,0.6,0.3,1c-0.1,0.4-0.4,0.7-0.4,0.7s-0.4-0.6-0.3-0.9
			c0,0,0.1,0.8-0.5,1.1c0,0-0.1-0.2-0.1-0.4c0-0.2-0.1-1,0.3-1.2"/>
		<path d="M51.7,39.7L51.7,39.7c0-0.1-0.1-0.3-0.2-0.5c0-0.2-0.1-1,0.4-1.3l0.1,0.1c-0.4,0.2-0.3,1-0.3,1.1c0,0.1,0.1,0.2,0.1,0.3
			c0.3-0.2,0.4-0.5,0.4-0.8c0-0.1,0-0.2,0-0.3l0.1,0c0,0,0,0.1,0,0.2c0,0.2,0.1,0.4,0.2,0.5c0.1-0.1,0.2-0.3,0.3-0.6
			c0.1-0.4-0.2-0.8-0.3-0.9c-0.1-0.2-0.2-0.5-0.2-0.5l0.2,0c0,0.1,0.1,0.3,0.2,0.4c0.1,0.1,0.4,0.6,0.3,1c-0.1,0.4-0.4,0.7-0.4,0.7
			l-0.1,0.1l-0.1-0.1c0,0-0.1-0.2-0.2-0.4C52.2,39.3,52,39.5,51.7,39.7L51.7,39.7z"/>
	</g>
	<g>
		<linearGradient id="SVGID_48_" gradientUnits="userSpaceOnUse" x1="50.629" y1="37.4695" x2="52.7554" y2="37.4695">
			<stop  offset="0" style="stop-color:#5EBB47"/>
			<stop  offset="1" style="stop-color:#007A4E"/>
		</linearGradient>
		<path class="st50" d="M52.8,36.9c0,0-0.2,0.1-0.4,0.2c-0.2,0-0.7-0.1-1,0.1c-0.3,0.2-0.4,0.8-0.7,1c0,0,0.6-0.1,0.9-0.1
			c0.4,0.1,0.8-0.3,0.8-0.5c0.1-0.2,0.1-0.4,0.1-0.4"/>
		<path d="M50.6,38.1l0-0.1c0.1-0.1,0.2-0.3,0.3-0.5c0.1-0.2,0.2-0.4,0.4-0.5c0.2-0.1,0.5-0.1,0.7-0.1c0.1,0,0.2,0,0.3,0
			c0.2,0,0.4-0.2,0.4-0.2l0.1,0.1c0,0-0.2,0.1-0.4,0.2l0.1,0l-0.1,0.4c-0.1,0.3-0.4,0.7-0.9,0.6C51.2,38,50.6,38.1,50.6,38.1z
			 M51.3,37.9c0.1,0,0.2,0,0.2,0c0.4,0.1,0.7-0.2,0.7-0.4l0.1-0.4c-0.1,0-0.2,0-0.3,0c-0.2,0-0.4,0-0.6,0.1
			c-0.1,0.1-0.2,0.3-0.3,0.4c-0.1,0.1-0.1,0.2-0.2,0.3C51,37.9,51.1,37.9,51.3,37.9z"/>
	</g>
	<g>
		<linearGradient id="SVGID_49_" gradientUnits="userSpaceOnUse" x1="54.6769" y1="17.1241" x2="58.6585" y2="17.1241">
			<stop  offset="0" style="stop-color:#DE9D14"/>
			<stop  offset="1" style="stop-color:#FFD24C"/>
		</linearGradient>
		<path class="st51" d="M58.2,16.7c0,0,0.4,0.4,0.5,0.8c0,0-0.4,0.2-0.6,0.2c0,0,0.1,0.3,0.1,0.5c0,0-0.4,0.1-0.6,0
			c0,0,0,0.6-0.2,0.8c0,0-0.7-0.2-0.7-0.6c0,0-0.4,0.2-0.9,0.1c0,0-0.2-0.6-0.1-0.8c0,0-0.7,0-0.9-0.2c0,0,0.3-0.7,0.6-0.7
			c0,0-0.5-0.3-0.6-0.5c0,0,0.7-0.2,0.9,0c0,0,0-0.7,0.1-0.8l0.5,0l0-0.4l0.7,0l1.4,0.8c0,0,0.3,0.3,0.3,0.5
			C58.7,16.6,58.2,16.8,58.2,16.7z"/>
		<path d="M57.3,19.1L57.3,19.1c-0.1,0-0.7-0.2-0.8-0.6c-0.1,0-0.3,0.1-0.6,0.1c-0.1,0-0.2,0-0.3,0l0,0l0,0c0-0.1-0.2-0.5-0.1-0.7
			c0,0,0,0-0.1,0c-0.4,0-0.7-0.1-0.8-0.2l0,0l0,0c0-0.1,0.2-0.5,0.5-0.7c-0.2-0.1-0.4-0.3-0.5-0.4l0-0.1l0.1,0c0,0,0.4-0.1,0.7-0.1
			c0.1,0,0.2,0,0.2,0c0-0.2,0-0.6,0.1-0.7l0,0l0.5,0l0-0.4l0.8,0l0,0l1.4,0.9c0,0,0.3,0.3,0.3,0.6v0l0,0c0,0-0.2,0.1-0.4,0.1
			c0.1,0.2,0.3,0.4,0.4,0.8l0,0l0,0c0,0-0.3,0.2-0.5,0.2c0,0,0,0,0,0c0,0.1,0.1,0.3,0.1,0.4v0.1l-0.1,0c0,0-0.3,0.1-0.5,0
			C57.6,18.6,57.5,18.9,57.3,19.1L57.3,19.1z M56.7,18.4l0,0.1c0,0.2,0.4,0.4,0.6,0.5c0.1-0.2,0.1-0.6,0.1-0.7v-0.2l0.1,0.1
			c0,0,0.1,0,0.2,0c0.1,0,0.2,0,0.3,0c0-0.2-0.1-0.5-0.1-0.5l0-0.1l0.1,0c0,0,0.1,0,0.1,0c0.2,0,0.3-0.1,0.4-0.1
			c-0.1-0.4-0.4-0.7-0.4-0.7l0.1-0.1c0.1,0,0.2-0.1,0.4-0.1c0-0.2-0.2-0.3-0.2-0.4L57,15.3l-0.6,0l0,0.4l-0.6,0
			c0,0.1-0.1,0.4-0.1,0.7v0.2l-0.1-0.1c0,0-0.1-0.1-0.2-0.1c-0.2,0-0.4,0-0.5,0.1c0.1,0.1,0.3,0.2,0.5,0.3l0.2,0.1h-0.3
			c-0.2,0-0.4,0.4-0.5,0.6c0.1,0.1,0.3,0.1,0.6,0.1c0.1,0,0.1,0,0.1,0l0.1,0l0,0.1c0,0.1,0,0.5,0.1,0.7c0.1,0,0.1,0,0.2,0
			C56.3,18.5,56.6,18.4,56.7,18.4L56.7,18.4z"/>
	</g>
	<polygon points="56.6,18 56.5,17.4 55.9,17.5 55.9,16.8 56.1,16.6 56.1,16.2 56.4,16.1 56.5,16.3 56.3,16.3 56.3,16.6 56,16.9 
		56.1,17.3 56.7,17.3 56.7,17.8 57.2,17.7 57.4,17.2 57.9,17.1 58,17.2 57.5,17.3 57.3,17.8 	"/>
	<polygon points="56.1,17.8 56.1,17.3 56.2,17.3 56.2,17.6 56.5,17.6 56.5,17.8 	"/>
	<path d="M56.5,17.4l0.1-0.9l0.8,0.5L56.5,17.4z M56.7,16.8l0,0.4L57,17L56.7,16.8z"/>
	<path d="M57.4,16.5l0.1-0.4l0.1,0c0.4,0,0.5,0.2,0.5,0.3l0,0.1L57.4,16.5z M57.6,16.2l0,0.1l0.3,0C57.8,16.3,57.8,16.2,57.6,16.2z"
		/>
	<path d="M57,16.3l-0.3-0.7l0.1,0c0,0,0,0,0.1,0c0.1,0,0.3,0,0.4,0.3l0,0.1L57,16.3z M56.9,15.8l0.1,0.3l0.1-0.1
		C57.1,15.9,57,15.8,56.9,15.8z"/>
	<g>
		<rect x="3.6" y="5" class="st52" width="40.2" height="26"/>
		<polygon class="st2" points="3.7,5 8.3,5 21,13.7 21,5 26.6,5 26.6,14.7 41,5 43.7,5 43.7,8.4 32.1,16.1 43.7,16.1 43.7,21.6 
			30.8,21.6 43.7,31 37.8,31 26.6,23.5 26.6,31 21,31 21,22.8 8.6,31 3.7,31 3.7,29.3 15,21.6 3.7,21.6 3.7,16.1 17.4,16.1 3.7,7 		
			"/>
		<polygon class="st1" points="21.2,16.1 4.7,5 3.6,5 3.6,5.8 19.1,16.1 		"/>
		<polygon class="st1" points="26.4,16.1 43,5 43.7,5 43.7,6 28.6,16.1 		"/>
		<polygon class="st1" points="29.2,21.6 42.3,31 40.3,31 27.1,21.6 		"/>
		<polygon class="st1" points="21,21.6 7,31 4.8,31 18.8,21.6 		"/>
		<rect x="3.7" y="17.1" class="st1" width="40.1" height="3.4"/>
		<rect x="22.2" y="5" class="st1" width="3.4" height="26"/>
	</g>
</g>
</svg>
