<?xml version="1.0" encoding="utf-8"?>
<!-- Generator: Adobe Illustrator 22.1.0, SVG Export Plug-In . SVG Version: 6.00 Build 0)  -->
<svg version="1.1" id="Layer_1" xmlns="http://www.w3.org/2000/svg" xmlns:xlink="http://www.w3.org/1999/xlink" x="0px" y="0px"
	 viewBox="0 0 85 56.7" style="enable-background:new 0 0 85 56.7;" xml:space="preserve">
<style type="text/css">
	.st0{fill:#77A2C9;}
	.st1{fill:#FFFFFF;}
</style>
<g>
	<rect x="3.2" y="4.9" class="st0" width="77.9" height="46.2"/>
	<polygon class="st1" points="41.8,9.5 43,13.1 46.8,13.1 43.7,15.4 44.9,19 41.8,16.7 38.8,19 40,15.4 36.9,13.1 40.7,13.1 	"/>
	<polygon class="st1" points="44.9,36.5 43.7,40.1 46.8,42.4 43,42.4 41.8,46 40.7,42.3 36.9,42.3 40,40.1 38.8,36.5 41.9,38.8 	"/>
	<polygon class="st1" points="58,22.7 57.9,26.5 61.4,27.8 57.8,28.8 57.6,32.6 55.5,29.5 51.9,30.5 54.2,27.5 52.1,24.4 55.7,25.7 
			"/>
	<polygon class="st1" points="25.4,22.9 27.7,25.9 31.3,24.6 29.1,27.7 31.5,30.7 27.8,29.7 25.7,32.8 25.6,29 22,27.9 25.5,26.7 	
		"/>
</g>
</svg>
