<?xml version="1.0" encoding="utf-8"?>
<!-- Generator: Adobe Illustrator 22.1.0, SVG Export Plug-In . SVG Version: 6.00 Build 0)  -->
<svg version="1.1" id="Layer_1" xmlns="http://www.w3.org/2000/svg" xmlns:xlink="http://www.w3.org/1999/xlink" x="0px" y="0px"
	 viewBox="0 0 85 56.7" style="enable-background:new 0 0 85 56.7;" xml:space="preserve">
<style type="text/css">
	.st0{fill:#2E3192;}
	.st1{fill:#F15A22;}
	.st2{fill:#3CBCE8;}
	.st3{fill:#2A388E;}
	.st4{fill:#FFFFFF;}
	.st5{fill:#F7DB37;}
	.st6{fill:#65181A;}
	.st7{fill:#B05832;}
	.st8{fill:#009544;}
	.st9{fill:#ED1C24;}
</style>
<g>
	<g>
		<g>
			<rect x="3.9" y="6" class="st0" width="76.6" height="44.7"/>
			<path class="st1" d="M81.3,51.5H3.1V5.3h78.1V51.5z M4.7,50h75.1V6.8H4.7V50z"/>
		</g>
		<path class="st2" d="M42.1,9.1c0,0,15.4,9.9,12.4,22.9H30c0,0-1.6-7.3,2.4-13.2C36.4,12.9,42.1,9.1,42.1,9.1z"/>
		<path class="st3" d="M54.4,31.8H29.9c0,0,4.1,10.5,12.3,15.5C42.2,47.2,52.1,40.6,54.4,31.8z"/>
		<g>
			<path class="st4" d="M35.3,34.1h4.6c0,0-1.2-3.2-3.8-4.8C36.1,29.3,36.8,32.2,35.3,34.1z"/>
			<path d="M40,34.2h-5l0.2-0.2c1.5-1.9,0.8-4.7,0.8-4.7L35.9,29l0.3,0.2c2.6,1.6,3.8,4.8,3.8,4.9L40,34.2z M35.5,34h4.2
				c-0.3-0.6-1.4-3-3.4-4.4C36.4,30.3,36.6,32.4,35.5,34z"/>
		</g>
		<path class="st5" d="M32.4,36.8c0,0,8.5-0.1,9.2,2.4c0.2,0.8-2.2,0.5-3,0.6c-0.9,0.2-2.7,1-2.9,1.6L32.4,36.8z"/>
		<path class="st5" d="M53.2,34.8c0,0-2.3-0.1-3.7,0.5c-1.4,0.6-2.9,1.3-3.9,1.2c-1-0.1-4.3,0.2-4.1,0.8c0.2,0.7,3.5,0.4,3.1,2.7
			c-0.5,2.2-4.9,0.6-6.2,3.5c0,0,2.7,2.9,4.1,3.8C42.5,47.3,50.7,40.2,53.2,34.8z"/>
		<g>
			<path class="st6" d="M39.8,34l-0.2,0.5h-3.9L35.2,34h-0.8v0.5c0,0,1,0.7,1.1,0.7c0.1,0,3.9,0,3.9,0l0.9-0.5h0.5V34H39.8z"/>
			<path d="M35.5,35.3L35.5,35.3c-0.2,0-0.8-0.4-1.2-0.7l-0.1,0v-0.7h1l0.6,0.5h3.7l0.2-0.5h1.1v1h-0.6l-0.9,0.5l0,0
				c0,0-1.7,0-2.8,0C35.7,35.3,35.5,35.3,35.5,35.3L35.5,35.3z M34.4,34.5c0.4,0.3,0.9,0.6,1,0.6c0.1,0,0.2,0,1.1,0
				c1.1,0,2.6,0,2.8,0l0.9-0.5h0.4v-0.5h-0.7l-0.2,0.5h-4l-0.6-0.5h-0.7V34.5z"/>
		</g>
		<g>
			<rect x="35.6" y="35.5" class="st6" width="3.6" height="0.5"/>
			<path d="M39.4,36.1h-3.9v-0.8h3.9V36.1z M35.7,35.9h3.4v-0.3h-3.4V35.9z"/>
		</g>
		<g>
			<path class="st4" d="M54.8,28.9c-0.3,0-1.9,0.2-3,0.5c-1,0.4-3.2,0.4-3.8,0.4c-0.6,0-0.8,0.4-1.2,0.5c-0.5,0.1-2.6,0.4-3.3,0
				c-0.7-0.4-2.2-0.7-2.8-0.6c-0.6,0.1-0.6,0.6-0.6,0.6s-0.1,0.6-0.3,0.6c-0.2,0-0.3,0.6-0.3,0.9h14.6L54.8,28.9z"/>
			<path d="M54.2,32H39.4v-0.1c0-0.2,0.1-1,0.4-1c0.1,0,0.2-0.2,0.2-0.5c0-0.2,0.1-0.6,0.7-0.7c0.1,0,0.2,0,0.4,0
				c0.7,0,1.9,0.2,2.5,0.6c0.2,0.1,0.7,0.2,1.3,0.2c0.7,0,1.6-0.1,1.9-0.2c0.2,0,0.3-0.1,0.5-0.2c0.2-0.1,0.5-0.3,0.8-0.3
				c0.1,0,0.2,0,0.3,0c0.9,0,2.5-0.1,3.4-0.4c1.1-0.4,2.7-0.5,3-0.5h0.2L54.2,32z M39.7,31.7H54l0.6-2.7c-0.5,0-1.9,0.2-2.8,0.5
				C51,29.8,49.3,30,48.4,30c-0.2,0-0.3,0-0.4,0c-0.3,0-0.5,0.1-0.7,0.2c-0.2,0.1-0.3,0.2-0.5,0.3c-0.3,0.1-1.2,0.2-1.9,0.2
				c-0.7,0-1.2-0.1-1.4-0.2c-0.7-0.4-2.2-0.7-2.7-0.5c-0.5,0.1-0.5,0.4-0.5,0.5l0,0l0,0c0,0.2-0.2,0.6-0.4,0.7
				C39.8,31,39.7,31.4,39.7,31.7z"/>
		</g>
		<g>
			<path class="st7" d="M46.6,38.9c0.6,0.3,1.2-0.4,0.4-0.9c-0.8-0.6-3-2.4-3.7-4.6c-1.2-3.8-0.8-10.7-0.9-12.8l-0.4,0
				c0,0-0.3,10,0.4,12.6C43.3,36.2,45.1,38.1,46.6,38.9z"/>
			<path d="M46.9,39L46.9,39c-0.1,0-0.2,0-0.3-0.1c-1.5-0.7-3.3-2.6-4.2-5.9c-0.7-2.6-0.4-12.2-0.4-12.6l0-0.1l0.6,0.1l0,0.1
				c0,0.5,0,1.3,0,2.3c0,3.1,0,7.7,0.9,10.5c0.7,2.3,3.2,4.2,3.7,4.6c0.5,0.3,0.4,0.7,0.4,0.8C47.4,38.9,47.2,39,46.9,39z
				 M42.2,20.6c0,1.2-0.3,10.1,0.4,12.4c0.9,3.1,2.7,5,4.1,5.7c0.1,0,0.2,0.1,0.2,0.1l0,0c0.2,0,0.3-0.1,0.4-0.2
				c0.1-0.2-0.1-0.4-0.3-0.5c-0.5-0.4-3-2.3-3.7-4.7c-0.9-2.9-0.9-7.5-0.9-10.6c0-0.9,0-1.6,0-2.1L42.2,20.6z"/>
		</g>
		<g>
			<path class="st8" d="M42.4,20.3l2.5,4.9c0,0,0.4-3.4-1.2-4.5c0,0,3.8,0.2,5.1,2.9c0,0,0.4-3.1-3.9-4.1c0,0,2.8-0.7,4.3-0.1
				c0,0-1.8-1.9-4.9-1.2c0,0,2.3-2.3,3.3-2.6c0,0-3.6-0.1-4.7,2.4c0,0,0.5-4-2.3-5.2l1.3,5.3c0,0-1.3-2.5-3.5-2.7l2.5,3.4
				c0,0-4.8-1.6-6.8,2c0,0,3.5-1.6,5.4-0.9c0,0-3.3,1.3-3.2,3.4c0,0,3.2-2.4,4.5-2.4c0,0-2.1,2.9-1,4.9L42.4,20.3z"/>
			<path d="M39.8,26l-0.1-0.2c-0.9-1.7,0.4-4.1,0.8-4.8c-1.4,0.3-4.2,2.4-4.2,2.4l-0.2,0.1l0-0.2c-0.1-1.8,2.1-3,3-3.4
				c-0.2-0.1-0.5-0.1-0.8-0.1c-1.8,0-4.2,1-4.2,1.1L33.8,21l0.2-0.3c1.1-2,3.1-2.4,4.6-2.4c0.9,0,1.6,0.1,2,0.2l-2.5-3.3l0.3,0
				c1.6,0.2,2.7,1.4,3.2,2.1l-1.2-4.8l0.2,0.1c2.2,1,2.4,3.6,2.4,4.8c1.3-2,4.1-2,4.5-2l0,0l0,0.2c-0.8,0.2-2.4,1.6-3,2.3
				c0.3,0,0.6-0.1,0.9-0.1c2.4,0,3.7,1.4,3.7,1.4l-0.1,0.2c-0.4-0.2-1-0.3-1.6-0.3c-0.8,0-1.7,0.1-2.2,0.2c1.9,0.6,2.8,1.6,3.2,2.4
				c0.4,0.9,0.4,1.7,0.3,1.7L48.8,24l-0.2-0.4c-1-2.1-3.6-2.7-4.6-2.8c1.3,1.3,1,4.3,1,4.4l0,0.4l-2.5-5L39.8,26z M41,20.7l-0.1,0.2
				c0,0-1.8,2.6-1.1,4.5l2.6-5.4l2.4,4.7c0-0.9,0-3.1-1.2-4l-0.3-0.2l0.4,0c0,0,3.5,0.2,4.9,2.6c-0.1-0.9-0.6-2.7-3.8-3.5l0-0.2
				c0,0,1.4-0.3,2.7-0.3c0.4,0,0.8,0,1.1,0.1c-0.6-0.4-1.6-1-3.1-1c-0.4,0-0.8,0-1.3,0.1l-0.4,0.1l0.3-0.3c0.1-0.1,1.6-1.7,2.8-2.3
				c-1.1,0.1-3.1,0.5-3.9,2.3L42.8,18c0,0,0.4-3.7-2-5l1.3,5l-0.2,0.1c0,0-1.2-2.2-3.2-2.6l2.6,3.4l-0.4-0.1c0,0-1-0.3-2.3-0.3
				c-1.3,0-3.1,0.4-4.2,2c0.7-0.3,2.5-0.9,3.9-0.9c0.5,0,0.9,0.1,1.2,0.2l0.3,0.1L39.5,20c0,0-2.9,1.2-3.1,3.1
				c0.7-0.5,3.2-2.3,4.4-2.3L41,20.7z"/>
		</g>
		<path class="st1" d="M42,48.2l-0.4-0.3c-0.1-0.1-3.3-2.3-6.4-5.8c-4.3-4.7-6.5-9.5-6.5-13.9c0-4.5,2.2-9.4,6.5-14.1
			c3.2-3.5,6.3-5.7,6.4-5.8L42,8.1l0.4,0.3c0.1,0.1,3.4,2.3,6.6,5.8c4.4,4.7,6.7,9.6,6.7,14.2c0,10.9-12.8,19.3-13.3,19.6L42,48.2z
			 M42,9.9c-2.1,1.6-11.9,9.4-11.9,18.4c0,8.8,9.8,16.6,11.9,18.2c2.2-1.5,12.3-9.1,12.3-18.1C54.3,19.2,44.2,11.4,42,9.9z"/>
	</g>
	<g>
		<path class="st9" d="M34.5,26.1c0.4,0,0.7,0.1,1.1,0.2v0.5c-0.4-0.2-0.7-0.3-1.1-0.3c-0.2,0-0.4,0-0.6,0.1
			c-0.2,0.1-0.3,0.2-0.4,0.4c-0.1,0.2-0.1,0.3-0.1,0.5c0,0.3,0.1,0.5,0.3,0.7c0.2,0.2,0.5,0.3,0.8,0.3c0.1,0,0.2,0,0.3,0
			c0.1,0,0.2,0,0.3-0.1v-0.5h-0.5v-0.4h1.1v1.2c-0.1,0.1-0.3,0.2-0.5,0.2c-0.2,0.1-0.4,0.1-0.6,0.1c-0.3,0-0.6-0.1-0.8-0.2
			c-0.3-0.1-0.5-0.3-0.6-0.5c-0.1-0.2-0.2-0.5-0.2-0.8c0-0.3,0.1-0.6,0.2-0.8c0.1-0.2,0.3-0.4,0.6-0.5
			C33.9,26.2,34.2,26.1,34.5,26.1z"/>
		<path class="st9" d="M38.7,26.2v1.7c0,0.2,0,0.3,0.1,0.4c0.1,0.1,0.1,0.2,0.3,0.3c0.1,0.1,0.3,0.1,0.4,0.1c0.2,0,0.3,0,0.4-0.1
			c0.1-0.1,0.2-0.2,0.3-0.3c0.1-0.1,0.1-0.3,0.1-0.5v-1.7h0.6v1.8c0,0.4-0.1,0.7-0.4,0.9c-0.2,0.2-0.6,0.3-1,0.3
			c-0.3,0-0.5,0-0.7-0.1c-0.2-0.1-0.4-0.2-0.5-0.4c-0.1-0.2-0.2-0.4-0.2-0.6v-1.8H38.7z"/>
		<path class="st9" d="M44.8,26.2l1.3,3h-0.6l-0.3-0.7h-1.3l-0.3,0.7H43l1.2-3H44.8z M44.1,28h1l-0.5-1.2L44.1,28z"/>
		<path class="st9" d="M48.9,26.2l1,1.2l1-1.2h0.5v3h-0.6v-2.1h0l-0.9,1h-0.1l-0.9-1h0v2.1h-0.6v-3H48.9z"/>
	</g>
</g>
</svg>
