<?xml version="1.0" encoding="utf-8"?>
<!-- Generator: Adobe Illustrator 22.1.0, SVG Export Plug-In . SVG Version: 6.00 Build 0)  -->
<svg version="1.1" id="Layer_1" xmlns="http://www.w3.org/2000/svg" xmlns:xlink="http://www.w3.org/1999/xlink" x="0px" y="0px"
	 viewBox="0 0 85 56.7" style="enable-background:new 0 0 85 56.7;" xml:space="preserve">
<style type="text/css">
	.st0{clip-path:url(#SVGID_2_);fill:#ED1C24;}
	.st1{clip-path:url(#SVGID_2_);fill:#FFDD00;}
	.st2{clip-path:url(#SVGID_2_);fill:none;stroke:#000000;stroke-width:0.3982;stroke-linejoin:bevel;}
	.st3{clip-path:url(#SVGID_2_);fill:none;stroke:#000000;stroke-width:0.3982;}
	.st4{clip-path:url(#SVGID_2_);}
	.st5{clip-path:url(#SVGID_2_);fill:none;stroke:#000000;stroke-width:0.3063;}
	.st6{fill:#FFDD00;stroke:#000000;stroke-width:0.3982;stroke-miterlimit:5;}
	.st7{fill:#2E3192;}
	.st8{fill:none;stroke:#FFFFFF;stroke-width:3.0631;}
	.st9{fill:none;stroke:#000000;stroke-width:0.3982;}
</style>
<g>
	<g>
		<defs>
			<rect id="SVGID_1_" x="2.8" y="5.1" width="78.1" height="46"/>
		</defs>
		<clipPath id="SVGID_2_">
			<use xlink:href="#SVGID_1_"  style="overflow:visible;"/>
		</clipPath>
		<rect x="2.8" y="5.1" class="st0" width="78.1" height="46"/>
		<path class="st1" d="M28.3,7.4c0,0,8.9,0,9.6,0c0.7,0,3.2,0.6,4.1,2.6c0,0,2.5-1.9,3-2.3c0.6-0.4,1.4-0.6,3.1-0.6
			c1.6,0,7.1,0,7.1,0S55,8.2,53.6,8.3c0,0-0.7,0.8-1.6,0.7c0,0-0.5,0.5-1.6,0.4c0,0-0.6,0.4-1.5,0.4c0,0-1.2,0.4-1.9,0.2L46.3,11
			l7.3,0.1c0,0-0.2,0.8-1.9,0.8c0,0-0.4,0.4-1.6,0.4c0,0-0.4,0.7-1.3,0.7c-0.9,0-2.2,0-2.2,0s-2.1,2.1-5.1,2c-3-0.1-4.3-1.2-6-3.2
			c0,0-1.7,0-1.9,0c-0.2,0-0.4-0.5-0.4-0.5s-0.6-0.5-0.3-0.6c0.4-0.1,2.6,0,2.6,0s0.8-0.9,1.7-0.8c0.9,0.1,1.4,0.5,2,0.8
			c0.6,0.3,1.4,0.1,1.4,0.1S40,9.6,39.6,9.3c0,0-4,0-4.8-0.1c-0.8-0.1-1.6-0.4-1.6-0.4S30.8,8.7,29.9,8C29.9,8,28.6,7.8,28.3,7.4z"
			/>
		<path class="st2" d="M44.1,11.8c2.1-0.1,2.8-1.7,2.8-1.7c1.7,0,2-0.3,2-0.3c1.2,0,1.5-0.4,1.5-0.4C51.7,9.6,52,9,52,9
			c1.3,0,1.6-0.7,1.6-0.7c1.6,0,1.7-1.1,1.7-1.1s-6.5,0-7.8,0c-1.3,0-2,0.4-2.6,0.8c-0.6,0.4-3.2,2.6-3.8,2.8
			c-0.9,0.3-1.6,0.1-2.2-0.3C38.3,10.1,38,9.8,37,9.9c-1,0.1-1.4,0.8-1.4,0.8s-2.2,0-2.6,0c-0.4,0-0.2,0.6,0.3,0.6
			c0.5,0,2.1,0,2.1,0"/>
		<path class="st2" d="M42.2,10.7c0.4,0,1.5-0.8,2.1-1.4c0.6-0.6,1.8-1.5,3.2-1.5c1.4,0,6.2,0,6.2,0"/>
		<path class="st2" d="M40.8,10.8L40.8,10.8c-0.1,0-0.9-1.6-2.4-2.3C36.9,7.8,34.4,8,34.4,8"/>
		<path class="st3" d="M50.1,12.3c0,0-0.4,0.6-1.5,0.6c-1,0-2,0-2,0"/>
		<path class="st3" d="M33.3,11.2c0,0,0,0.5,0.6,0.5c0.5,0,0.6,0,1.7,0c0,0,1.5,2,3.4,2.7c1.7,0.6,3.5,0.7,5.2,0
			c1.4-0.5,3.3-2.3,3.3-2.3s1.6,0,2.3,0c0.4,0,1.4,0.1,1.9-0.4c0,0,1.9-0.2,1.9-0.9h-7.3"/>
		<path class="st4" d="M37.2,10.9c0,0.2-0.1,0.3-0.3,0.3c-0.2,0-0.3-0.1-0.3-0.3c0-0.2,0.1-0.3,0.3-0.3
			C37.1,10.6,37.2,10.7,37.2,10.9z"/>
		<path class="st5" d="M42.2,16.5"/>
		<g class="st4">
			<g>
				<path class="st6" d="M40.7,20l1-4.3l1.1,4.3C42.9,20,41.7,19.8,40.7,20z"/>
			</g>
			<g>
				<path class="st6" d="M45.5,20.6l3.2-3l-1.4,4.2C47.3,21.8,46.5,21,45.5,20.6z"/>
			</g>
			<g>
				<path class="st6" d="M48.7,23.5l4.3-1l-3.3,2.9C49.7,25.4,49.4,24.3,48.7,23.5z"/>
			</g>
			<g>
				<path class="st6" d="M50.1,27.1l4.3,1.1l-4.3,1C50.1,29.3,50.3,28.2,50.1,27.1z"/>
			</g>
			<g>
				<path class="st6" d="M33.5,29.3l-4.3-1l4.3-1.2C33.5,27.2,33.3,28.3,33.5,29.3z"/>
			</g>
			<g>
				<path class="st6" d="M34.1,24.9l-3-3.2l4.2,1.4C35.2,23.1,34.4,24,34.1,24.9z"/>
			</g>
			<g>
				<path class="st6" d="M36.6,21.6l-1.1-4.3l3,3.3C38.5,20.6,37.4,20.9,36.6,21.6z"/>
			</g>
			<g>
				<path class="st6" d="M38.3,20.8c0,0-0.9-3.5,1.2-5.1c0,0-0.5,1.2,0,1.7c0.5,0.5,1.2,1.1,1.2,2.5C40.7,19.9,39.5,20.2,38.3,20.8z
					"/>
			</g>
			<g>
				<path class="st6" d="M42.9,19.9c0,0,1.4-3.3,4.1-3.3c0,0-1.2,0.7-1.1,1.4c0.1,0.7,0.3,1.6-0.5,2.7
					C45.4,20.7,44.3,20.2,42.9,19.9z"/>
			</g>
			<g>
				<path class="st6" d="M47.1,21.7c0,0,2.9-2.1,5.2-0.8c0,0-1.3,0-1.6,0.6c-0.3,0.7-0.6,1.6-1.8,2C48.9,23.6,48.1,22.6,47.1,21.7z"
					/>
			</g>
			<g>
				<path class="st6" d="M49.6,24.7c0,0,3.6-0.3,4.8,2.1c0,0-1.1-0.7-1.7-0.3c-0.6,0.4-1.3,1-2.6,0.8C50.1,27.3,50,26,49.6,24.7z"/>
			</g>
			<g>
				<path class="st6" d="M35.1,23.4c0,0-2.4-2.6-1.3-5.1c0,0,0.1,1.3,0.8,1.5c0.7,0.2,1.6,0.4,2.2,1.6
					C36.8,21.4,35.9,22.3,35.1,23.4z"/>
			</g>
			<g>
				<path class="st6" d="M33.6,27.4c0,0-3.4-1-3.7-3.7c0,0,0.8,1.1,1.5,0.9c0.7-0.2,1.6-0.5,2.7,0.2C34.1,24.9,33.7,26.1,33.6,27.4z
					"/>
			</g>
			<path class="st6" d="M41.8,19.9c4.6,0,8.4,3.7,8.4,8.4c0,4.6-3.8,8.4-8.4,8.4c-4.6,0-8.4-3.7-8.4-8.4
				C33.5,23.6,37.2,19.9,41.8,19.9z"/>
		</g>
		<g class="st4">
			<g>
				<path class="st7" d="M2.5,30.9c0,0,5,0.1,9.7,2.3c4.7,2.2,7.3,0.1,8.4-0.4c1.1-0.5,7.3-4.7,13-2.2c5.7,2.5,7.8,4,13.7,1.5
					c5.9-2.5,8.7-3.5,13.9-1.2c5.2,2.2,9.5,3,13.2,0.9c3.7-2,6.6-2.5,6.6-2.5v21.7H2.6L2.5,30.9z"/>
			</g>
			<g>
				<g>
					<path class="st8" d="M2.6,44.7c4.8,0,6.1,3.9,13.2,4c7.1,0.1,6.3-3.9,13.3-4.2c7-0.3,7.2,3.9,13.4,4c6.2,0.1,6-4,12.9-4.2
						c6.9-0.2,7.3,4,13.1,4c5.8,0,7.1-4.2,13.2-4.2"/>
				</g>
				<g>
					<g>
						<path class="st8" d="M2.5,29.8c4.8,0,6.1,3.9,13.2,4c7.1,0.1,6.3-3.9,13.3-4.2c7-0.3,7.2,3.9,13.4,4c6.2,0.1,6-4,12.9-4.2
							c6.9-0.2,7.3,4,13.1,4c5.8,0,7.1-4.2,13.2-4.2"/>
					</g>
				</g>
				<g>
					<path class="st8" d="M2.4,37.2c4.8,0,6.1,3.9,13.2,4c7.1,0.1,6.3-3.9,13.3-4.2c7-0.3,7.2,3.9,13.4,4c6.2,0.1,6-4,12.9-4.2
						c6.9-0.2,7.3,4,13.1,4c5.8,0,7.1-4.2,13.2-4.2"/>
				</g>
			</g>
			<g>
				<g>
					<g>
						<path class="st9" d="M2.7,28c4.8,0,6.1,3.9,13.1,4c7.1,0.1,6.3-3.9,13.2-4.2c7-0.3,7.1,3.9,13.3,4c6.1,0.1,6-4,12.8-4.2
							c6.8-0.2,7.3,4,13,4c5.7,0,7.1-4.1,13.1-4.2"/>
					</g>
				</g>
			</g>
		</g>
		<path class="st2" d="M39.5,9.3c0,0-2.4,0-4.1,0c-1.7,0-2.3-0.5-2.3-0.5c-1.6,0-1.6-0.3-1.6-0.3C30.3,8.5,30,8,30,8
			c-1.2,0-1.8-0.6-1.8-0.6s5.5,0,9.2,0c3.7,0,4.7,2.7,4.7,2.7"/>
	</g>
</g>
</svg>
