<?xml version="1.0" encoding="utf-8"?>
<!-- Generator: Adobe Illustrator 22.1.0, SVG Export Plug-In . SVG Version: 6.00 Build 0)  -->
<svg version="1.1" id="Layer_1" xmlns="http://www.w3.org/2000/svg" xmlns:xlink="http://www.w3.org/1999/xlink" x="0px" y="0px"
	 viewBox="0 0 85 56.7" style="enable-background:new 0 0 85 56.7;" xml:space="preserve">
<style type="text/css">
	.st0{fill:#2E3192;}
	.st1{fill:#F37021;}
	.st2{fill:#FFFFFF;}
</style>
<g>
	<rect x="2.8" y="5.6" class="st0" width="78.1" height="46"/>
	<polygon class="st1" points="2.8,51.7 80.9,5.6 80.9,17.3 	"/>
	<polygon class="st2" points="2.8,51.7 80.9,17.3 80.9,28.6 	"/>
	<g>
		<polygon class="st2" points="21.3,8.1 23.4,21.6 36.9,23.7 23.4,25.8 21.3,39.3 19.3,25.8 5.7,23.7 19.3,21.6 		"/>
		<polygon class="st2" points="21.4,10.8 22.5,14.9 24.7,11.2 24.8,15.5 27.8,12.5 26.8,16.6 30.5,14.5 28.4,18.3 32.5,17.2 
			29.6,20.3 33.8,20.3 30.2,22.5 34.3,23.7 30.2,24.8 33.8,27 29.6,27.1 32.5,30.1 28.4,29.1 30.5,32.8 26.8,30.7 27.8,34.9 
			24.8,31.9 24.7,36.1 22.5,32.5 21.4,36.6 20.2,32.5 18,36.1 18,31.9 14.9,34.9 16,30.7 12.2,32.8 14.3,29.1 10.2,30.1 13.2,27.1 
			8.9,27 12.6,24.8 8.4,23.7 12.6,22.5 8.9,20.3 13.2,20.3 10.2,17.2 14.3,18.3 12.2,14.5 16,16.6 14.9,12.5 18,15.5 18,11.2 
			20.2,14.9 		"/>
	</g>
</g>
</svg>
