<?xml version="1.0" encoding="utf-8"?>
<!-- Generator: Adobe Illustrator 22.1.0, SVG Export Plug-In . SVG Version: 6.00 Build 0)  -->
<svg version="1.1" id="Layer_1" xmlns="http://www.w3.org/2000/svg" xmlns:xlink="http://www.w3.org/1999/xlink" x="0px" y="0px"
	 viewBox="0 0 85 56.7" style="enable-background:new 0 0 85 56.7;" xml:space="preserve">
<style type="text/css">
	.st0{fill:#0077C0;}
	.st1{fill:#FFF1E2;}
	.st2{fill:#CA6F1E;}
	.st3{fill:#DCD5C6;}
	.st4{fill:#DA2128;}
	.st5{fill:#EACC1B;}
	.st6{fill:#00A651;}
	.st7{fill:#FFD400;}
	.st8{fill:#FEE6D3;}
	.st9{fill:#FFFFFF;}
	.st10{fill:#2E3192;}
	.st11{fill:none;}
</style>
<g>
	<g>
		<rect x="3" y="5.5" class="st0" width="78.2" height="46"/>
		<g>
			<path class="st1" d="M29.7,34.9c0,0,1.3-1.4,1.3-1.9c0-0.5,0.1-1.9-1.6-1.5c-0.7,0.2-0.5,0.7-0.4,1c0.1,0.3,0.6,0.9,0.6,1.3
				C29.4,34.2,29.4,34.4,29.7,34.9z"/>
		</g>
		<g>
			<path class="st1" d="M29.8,35.1c0,0,0.3-0.5,0.4-0.6c0.1-0.1,0.5-0.7,0.6-0.7c0.1-0.1,0.1-0.5,0.4-0.3c0.2,0.2,0.4,0.3,0.5,0.7
				c0.1,0.4,0,0.5,0,0.7c-0.1,0.2-0.6,0.9-0.9,1.1c-0.3,0.2-0.4,0.3-0.5,0.2C30.1,36,30,35.4,29.8,35.1z"/>
		</g>
		<g>
			<path class="st1" d="M30.5,36.3c0,0,0.5-0.3,0.6-0.4c0.1-0.1,0.2-0.4,0.4-0.5c0.2-0.1,0.4-0.3,0.6-0.2c0.2,0.1,0.3,0.1,0.4,0.4
				c0.2,0.3,0.3,0.6,0.2,0.9c-0.1,0.3-0.3,0.6-0.4,0.8c-0.2,0.2-0.5,0.5-0.7,0.7C31.7,38,30.6,36.6,30.5,36.3"/>
		</g>
		<g>
			<path class="st1" d="M31.9,38.1c0,0,0.6-0.6,0.7-0.7c0.1-0.2,0.3-0.4,0.3-0.5c0.1-0.1,0.1-0.4,0.3-0.4c0.2,0,0.7,0.2,0.7,0.7
				c0,0.4-0.2,0.7-0.2,0.9c-0.1,0.2-0.3,0.8-0.7,1.1C33,39.2,32.5,38.9,31.9,38.1z"/>
		</g>
		<g>
			<path class="st1" d="M33.2,39.3c0,0,0.4-0.2,0.6-0.9c0.2-0.7,0.2-0.6,0.2-0.7c0.1-0.1,0.2-0.3,0.4-0.2c0.2,0.1,0.7,0.1,0.8,0.6
				c0.1,0.4,0.1,0.6,0,0.9c-0.1,0.4-0.2,0.9-0.8,1.3C34.4,40.2,34.1,40.3,33.2,39.3z"/>
		</g>
		<g>
			<path class="st1" d="M34.6,40.4c0,0,0.7-0.4,0.7-1c0.1-0.6,0-0.8,0.1-0.9c0-0.1,0.1-0.2,0.2-0.2s0.6,0.1,0.6,0.4
				c0.1,0.3,0.3,0.5,0.1,1c-0.2,0.5-0.3,1.1-0.7,1.3c-0.4,0.2-0.1,0-0.1,0S35.4,40.9,34.6,40.4z"/>
		</g>
		<g>
			<path class="st1" d="M35.9,41.2c0,0,0.5-0.5,0.6-1c0.1-0.5,0.1-0.7,0.1-0.9c0-0.2,0.5-0.3,0.7-0.2c0.2,0.1,0.7,0.6,0.6,0.9
				c-0.1,0.3-0.3,1.4-0.7,1.8C37.1,41.8,36.7,41.8,35.9,41.2z"/>
		</g>
		<g>
			<path class="st1" d="M37.3,41.9c0,0,0.5-0.5,0.5-0.9c0-0.4,0.1-0.6,0.1-0.6l0.4,0l-0.1,1.6C38.3,42.1,38,42.1,37.3,41.9z"/>
		</g>
		<g>
			<path class="st1" d="M28.3,32.1c0,0,0.2,0,0.3-0.1c0,0,0.2,1,0.5,1.3c0.2,0.3,0.2,0.6,0.1,0.8c-0.1,0.3-0.5,0.5-0.8,0.4
				c-0.2-0.1-0.6-0.5-0.7-0.7c-0.1-0.2-0.1-0.4-0.1-0.6c0,0,0.7,0,0.6-0.3C28.3,32.6,28.4,32.5,28.3,32.1z"/>
		</g>
		<g>
			<path class="st1" d="M28.5,34.8c0,0,0.1,0.7-0.4,0.7c-0.5,0.1-0.6-0.2-0.7-0.2c-0.1-0.1-0.3-0.7-0.3-0.9c0-0.2,0-0.4,0-0.6
				c0-0.2,0-0.2,0-0.2s0.2,0.1,0.4-0.1c0,0,0.2,0.6,0.3,0.7C28,34.5,28.3,34.8,28.5,34.8z"/>
		</g>
		<g>
			<path class="st1" d="M28.3,35.7c0,0,0.2,0.6-0.2,0.8c-0.4,0.2-0.8,0.2-1,0.1c-0.2-0.1-0.4-0.6-0.4-0.9c0-0.3,0-0.6,0.1-1
				c0.1-0.4,0.1-0.6,0.1-0.6l0.1,0.1c0,0-0.1,0.7,0,0.9c0.1,0.2,0,0.4,0.3,0.5c0.2,0.1,0.4,0.2,0.6,0.2
				C28.1,35.8,28.3,35.8,28.3,35.7z"/>
		</g>
		<g>
			<path class="st1" d="M26.9,31.4c0,0,0.9,0.7,1.2,0.8c0,0,0.1,0.4,0.1,0.6c-0.1,0.2-0.2,0.3-0.4,0.3c-0.2,0-0.2,0.1-0.4,0
				c-0.1-0.1-0.3-0.6-0.5-0.7C26.7,32.2,26.9,31.4,26.9,31.4z"/>
		</g>
		<g>
			<path class="st1" d="M25.8,31.3c0,0,0.7,0.9,0.9,1c0.2,0.1,0.2,0.2,0.1,0.3c0,0.2-0.2,0.2-0.3,0.2l0.5,0.7c0,0,0.1,0.4-0.2,0.3
				c-0.3,0-0.7-0.6-0.8-0.9c-0.2-0.3-0.2-0.5-0.2-0.7C25.7,32.1,25.8,31.3,25.8,31.3z"/>
		</g>
		<g>
			<path class="st1" d="M25.7,33.3c0,0,0.6,0.8,0.8,0.8c0,0,0.1,0.4,0,0.6c-0.1,0.1-0.2,0.2-0.3,0.2c-0.2,0-0.2,0-0.3-0.2
				C25.8,34.4,25.7,33.3,25.7,33.3z"/>
		</g>
		<g>
			<path class="st1" d="M28.6,35.6c0,0,0.3,0.6,0.4,0.8c0,0,0,0.6-0.2,0.9c-0.2,0.2-0.4,0.4-0.6,0.4c-0.2,0-0.5,0.2-0.7,0
				c-0.2-0.2-0.4-0.3-0.4-0.5c0-0.2-0.1-0.2,0-0.3c0.1,0,0.6,0,0.8-0.1c0.2-0.1,0.3-0.2,0.4-0.3C28.5,36.4,28.7,35.7,28.6,35.6z"/>
		</g>
		<g>
			<path class="st1" d="M29.2,36.8c0,0,0.3,0.5,0.5,0.7c0,0,0,0.4-0.3,0.7c-0.2,0.3-0.4,0.3-0.6,0.3c-0.2,0-0.6-0.1-0.7-0.2
				c-0.1-0.1-0.2-0.2-0.2-0.3c-0.1-0.1-0.2-0.1,0-0.2c0.2-0.1,0.2,0,0.4,0c0.2,0,0.5-0.1,0.6-0.2C28.9,37.5,29.2,37.3,29.2,36.8z"/>
		</g>
		<g>
			<path class="st1" d="M29.8,37.8c0,0,0.5,0.7,0.6,0.8c0,0,0.1,0.6-0.2,0.8c-0.2,0.3-0.4,0.5-0.8,0.5c-0.4,0-0.7-0.4-0.9-0.5
				c-0.2-0.2-0.2-0.4-0.2-0.5c0.1-0.2,0.2-0.2,0.3-0.2c0.1,0,0.5,0,0.6-0.2C29.5,38.5,29.9,38.1,29.8,37.8z"/>
		</g>
		<g>
			<path class="st1" d="M30.6,39c0,0,0.4,0.5,0.8,0.9c0,0,0,0.6-0.2,0.8c-0.1,0.2-0.3,0.4-0.5,0.5c-0.2,0.2-0.6,0.2-0.7,0.1
				c-0.1-0.1-0.3-0.1-0.4-0.3c-0.1-0.2-0.2-0.2-0.2-0.5c0-0.3-0.1-0.3,0.1-0.4c0.2-0.1,0.5,0,0.6-0.1c0.2-0.1,0.3-0.2,0.4-0.4
				C30.6,39.3,30.7,39.4,30.6,39z"/>
		</g>
		<g>
			<path class="st1" d="M31.7,40.3c0,0,0.4,0.5,0.9,0.9c0,0,0.1,0.5,0,0.8c-0.1,0.3-0.2,0.6-0.5,0.8c-0.3,0.2-0.8,0-1-0.1
				c-0.2-0.2-0.4-0.7-0.4-0.8c0-0.2-0.2-0.1,0-0.3s0.2-0.2,0.4-0.2C31.1,41.3,31.7,40.8,31.7,40.3z"/>
		</g>
		<g>
			<path class="st1" d="M32.8,41.4c0,0,0.8,0.6,1.4,0.9c0,0,0.2,0.8-0.1,1.3c-0.3,0.5-0.6,0.7-1,0.5c-0.4-0.1-1-0.3-1-0.7
				c0-0.4,0-0.5,0.1-0.7c0.1-0.2,0.1-0.1,0.2-0.3C32.6,42.2,32.9,41.8,32.8,41.4z"/>
		</g>
		<g>
			<path class="st1" d="M34.5,42.5c0,0,1.3,0.8,1.8,0.9c0,0,0.1,1.1-0.6,1.5c-0.7,0.4-1.2,0-1.4-0.1c-0.2-0.1-0.4-0.3-0.4-0.7
				c0-0.3,0-0.3,0.2-0.5c0.2-0.1,0.3-0.3,0.3-0.6C34.5,42.8,34.6,42.8,34.5,42.5z"/>
		</g>
		<g>
			<path class="st1" d="M36.5,43.6c0,0,0.8,0.2,0.9,0.3l-0.2,2c0,0-0.7,0-1-0.2c-0.2-0.2-0.5-0.3-0.4-0.6c0.1-0.2,0.3-0.3,0.4-0.5
				C36.4,44.4,36.6,44,36.5,43.6z"/>
		</g>
		<g>
			<path class="st1" d="M49,41.8c0,0-0.9,0.3-1.3,0.3c0,0-0.4-1.7,0-2.5c0.4-0.7,0.4,0.2,0.4,0.2S48.3,41.1,49,41.8z"/>
		</g>
		<g>
			<path class="st1" d="M49.2,41.7c0,0-0.9-0.9-0.9-1.6c0-0.7,0.4-1.2,0.8-1.3c0.4,0,0.5,0,0.5,0.2c0,0.2,0.4,1.7,0.9,2.1
				C50.5,41,50.1,41.4,49.2,41.7z"/>
		</g>
		<g>
			<path class="st1" d="M50.7,40.9c0,0-0.5-0.7-0.7-1.1c-0.2-0.4-0.2-0.9-0.2-1.1c0.1-0.2,0.2-0.6,0.4-0.6c0.2-0.1,0.4-0.1,0.4,0.2
				c0,0.2,0,0.4,0.1,0.6c0.1,0.2,0.5,1.2,0.9,1.5C51.7,40.4,51.3,40.6,50.7,40.9z"/>
		</g>
		<g>
			<path class="st1" d="M51.9,40.3c0,0-0.9-0.9-1-1.5c-0.1-0.6,0-1,0.2-1.2c0.2-0.2,0.4-0.4,0.6-0.4c0.2,0,0.4-0.2,0.5,0
				c0.1,0.2,0.1,0.2,0.1,0.4c0,0.2,0.6,1.5,0.9,1.6C53.2,39.3,52.7,39.8,51.9,40.3z"/>
		</g>
		<g>
			<path class="st1" d="M53.4,39.1c0,0-0.9-1.1-1-1.6c-0.1-0.5,0-0.7,0.1-0.9c0.1-0.2,0.2-0.4,0.4-0.4c0.2-0.1,0.3,0,0.4,0.2
				s0.2,0.7,0.4,0.8c0.2,0.2,0.6,0.7,0.9,0.9C54.6,38,54.1,38.7,53.4,39.1z"/>
		</g>
		<g>
			<path class="st1" d="M54.7,37.8c0,0-0.8-0.6-1-1c-0.2-0.4-0.3-1.1-0.2-1.3c0.1-0.2,0.6-0.8,0.8-0.8c0.2,0,0.5-0.3,0.6,0
				c0.2,0.3,0.2,0.9,1.1,1.4C55.9,36.2,55.4,37.2,54.7,37.8z"/>
		</g>
		<g>
			<path class="st1" d="M56,36c0,0-0.9-0.7-1.1-1.2c-0.2-0.4-0.3-1-0.2-1.3c0.1-0.2,0.3-0.6,0.5-0.6c0.1-0.1,0.2-0.1,0.3,0.1
				c0,0.2,0.3,0.6,0.4,0.8c0.1,0.2,0.3,0.5,0.7,0.8C56.7,34.6,56.5,35.6,56,36z"/>
		</g>
		<g>
			<path class="st1" d="M56.9,34.5c0,0-0.9-0.8-1-1c-0.2-0.2-0.4-1-0.3-1.3c0.1-0.3,0.2-0.5,0.2-0.5c0.1-0.1,0.1-0.2,0.3-0.1
				c0.2,0.1,0.4,0.2,0.6,0.4c0.2,0.3,0.2,0.3,0.2,0.5c0.1,0.2,0,0.2,0.3,0.4c0.3,0.2,0.2,0.2,0.4,0.3C57.6,33.3,57.1,34.2,56.9,34.5
				z"/>
		</g>
		<g>
			<path class="st1" d="M48.1,44.2c0,0,1.2-0.3,1.6-0.4c0,0,0.2,0.8,0.3,0.9c0.1,0.2,0.4,0.3,0.4,0.7c0,0.3-0.4,0.8-0.7,0.8
				c-0.3,0.1-0.9,0.1-1.2-0.2c-0.2-0.3-0.3-0.6-0.4-0.9C48.1,44.9,48.1,44.2,48.1,44.2z"/>
		</g>
		<g>
			<path class="st1" d="M50,43.6c0,0,1.5-0.5,1.8-0.8c0,0,0.2,0.7,0.4,1c0.2,0.2,0.2,0.2,0.3,0.5c0.1,0.3,0,0.7-0.2,0.8
				c-0.2,0.1-0.8,0.3-1.2,0.2c-0.4-0.1-0.5-0.2-0.6-0.5C50.2,44.7,50,44,50,43.6z"/>
		</g>
		<g>
			<path class="st1" d="M52,42.6c0,0,1.2-0.7,1.6-1.2c0,0,0.2,0.7,0.3,0.9c0.1,0.2,0.2,0.2,0.3,0.5c0.2,0.3,0.2,0.6,0.2,0.7
				c0,0.2-0.2,0.5-0.4,0.7c-0.2,0.2-0.7,0.4-1.2,0.2c-0.4-0.1-0.5-0.4-0.6-0.7C52.2,43.4,52.1,43.1,52,42.6z"/>
		</g>
		<path class="st1" d="M53.8,41.2c0,0,0.9-0.6,1.2-1.1c0,0,0,0.7,0.2,0.9c0.2,0.2,0.4,0.3,0.6,0.6c0.1,0.2,0.2,0.5,0.2,0.7
			c-0.1,0.2-0.3,0.6-0.5,0.7c-0.3,0.1-0.5,0.2-0.7,0.1c-0.2-0.1-0.4-0.3-0.6-0.7C54.1,42.1,53.9,41.8,53.8,41.2z"/>
		<g>
			<path class="st1" d="M55.2,39.9c0,0,0.4-0.5,0.8-1c0,0,0.2,0.7,0.4,0.8c0.2,0.1,0.3,0.4,0.5,0.4c0.2,0,0.3,0.1,0.5,0.1
				c0,0,0.2,0.7-0.3,1.1c-0.5,0.3-0.7,0.4-1,0.3c-0.3-0.1-0.5-0.2-0.6-0.5c-0.1-0.3-0.2-0.5-0.2-0.7C55.3,40.1,55.3,40.2,55.2,39.9z
				"/>
		</g>
		<g>
			<path class="st1" d="M56.2,38.8c0,0,0.5-0.6,0.7-1.1c0,0,0.2,0.6,0.4,0.7c0.2,0.1,0.3,0.3,0.5,0.4c0.2,0.2,0.4,0.2,0.6,0.2
				c0.2,0,0.2,0.2,0.1,0.4c-0.1,0.2-0.1,0.5-0.6,0.7s-0.8,0.1-1,0c-0.2-0.1-0.3-0.3-0.6-0.6C56.2,39.2,56.3,39.1,56.2,38.8z"/>
		</g>
		<g>
			<path class="st1" d="M57.1,37.4c0,0,0.3-0.4,0.4-0.8c0,0,0.1,0.6,0.3,0.8c0.2,0.2,0.4,0.3,0.7,0.4c0.2,0.1,0.2,0.1,0.5,0.1
				c0.3,0,0.2-0.2,0.4,0c0.1,0.1,0.1,0.4-0.3,0.7c-0.4,0.2-0.5,0.3-0.8,0.2c-0.3-0.1-0.7-0.3-0.8-0.6C57.3,38,57.2,37.7,57.1,37.4z"
				/>
		</g>
		<g>
			<path class="st1" d="M57.7,36.3c0,0,0.3-0.6,0.5-1.5l0.1,0c0,0-0.1,0.8,0,1c0.1,0.2,0.1,0.5,0.3,0.7c0.2,0.2,0.3,0.3,0.5,0.4
				c0.2,0.1,0.3,0.1,0.5,0.1c0.2,0,0.6-0.2,0.5,0.2c-0.1,0.4-0.2,0.4-0.4,0.6c-0.2,0.1-0.4,0.1-0.7,0.1c-0.2,0-0.4,0-0.8-0.2
				c-0.3-0.2-0.4-0.3-0.5-0.6C57.8,36.7,57.8,36.7,57.7,36.3z"/>
		</g>
		<g>
			<path class="st1" d="M58.5,34.8c0,0,0.6-0.2,0.8-0.4c0,0,0,0.7,0.1,0.7c0.1,0.1,0,0.3,0.2,0.4c0.2,0.1,0.4,0.2,0.5,0.2
				s0.2-0.2,0.2,0c0.1,0.1,0.1,0.3,0,0.5c-0.1,0.2-0.4,0.4-0.5,0.4c-0.2,0-0.4,0.1-0.7-0.1c-0.2-0.2-0.4-0.2-0.6-0.6
				C58.5,35.6,58.5,35.1,58.5,34.8z"/>
		</g>
		<g>
			<path class="st2" d="M47.8,42.5c0,0,6.1-0.7,9.6-8.1c0,0,0,0.3,0.5,0.4c0,0-1.1,6.7-9.9,9.3L47.8,42.5z"/>
		</g>
		<g>
			<path class="st2" d="M37.3,42.3c0,0-6.1-2.2-8.1-7.6c0,0,0.1,0.3-0.6,0.1c0,0,1.5,5.6,8.4,8.6L37.3,42.3z"/>
		</g>
		<g>
			<g>
				<g>
					<path d="M37.2,43.7c-6.8-2.7-8.5-8.7-8.5-8.8l0.1,0c0,0.1,1.7,6,8.4,8.7L37.2,43.7z"/>
				</g>
				<g>
					<path d="M36.7,43.4l-0.1,0c0,0,0.1-0.8,0-1.3l0.1,0C36.8,42.6,36.7,43.4,36.7,43.4z"/>
				</g>
				<g>
					<path d="M35.4,42.7l-0.1,0c0,0,0.2-0.6,0-1.3l0.1,0C35.6,42,35.4,42.7,35.4,42.7z"/>
				</g>
				<g>
					<path d="M34,41.8l-0.1,0c0,0,0-0.7-0.1-1.3l0.1,0C34.1,41.2,34,41.8,34,41.8z"/>
				</g>
				<g>
					<path d="M32.4,40.4l-0.1,0c0,0,0.1-0.8,0-1.3l0.1,0C32.5,39.6,32.4,40.4,32.4,40.4z"/>
				</g>
				<g>
					<path d="M31,39c0,0,0-1.1-0.1-1.4l0.1,0c0.1,0.4,0.1,1.4,0.1,1.4L31,39z"/>
				</g>
				<g>
					<path d="M29.8,37.2l-0.1,0c0,0,0.1-0.6,0-1.2l0.1,0C29.8,36.6,29.8,37.2,29.8,37.2z"/>
				</g>
				<g>
					<path d="M29.1,35.7l-0.1,0c0,0,0.1-0.3,0-0.9l0.1,0C29.1,35.3,29.1,35.7,29.1,35.7z"/>
				</g>
			</g>
			<g>
				<path d="M48,44.1l0-0.1c0.1,0,7.8-2,10-9.2l0.1,0C55.9,42,48.1,44.1,48,44.1z"/>
			</g>
			<g>
				<path d="M49.1,43.6c0,0-0.3-0.6,0.1-1.5l0.1,0.1c-0.4,0.9-0.1,1.4-0.1,1.4L49.1,43.6z"/>
			</g>
			<g>
				<path d="M50.7,42.9c0,0-0.2-0.7,0-1.5l0.1,0c-0.2,0.7,0,1.4,0,1.4L50.7,42.9z"/>
			</g>
			<g>
				<path d="M52.3,41.9c0,0-0.1-0.7,0-1.5l0.1,0c-0.2,0.8,0,1.5,0,1.5L52.3,41.9z"/>
			</g>
			<g>
				<path d="M53.8,40.8c0,0-0.2-0.5,0.1-1.7l0.1,0c-0.3,1.2-0.1,1.6-0.1,1.6L53.8,40.8z"/>
			</g>
			<g>
				<path d="M55.5,39.2c0,0-0.2-1.1,0-1.9l0.1,0c-0.1,0.7,0,1.8,0,1.8L55.5,39.2z"/>
			</g>
			<g>
				<path d="M56.6,37.6c0,0-0.2-1,0-2l0.1,0c-0.2,1,0,1.9,0,1.9L56.6,37.6z"/>
			</g>
			<g>
				<path d="M57.5,35.8c0,0-0.3-0.9-0.2-1.4l0.1,0c-0.1,0.5,0.2,1.3,0.2,1.3L57.5,35.8z"/>
			</g>
		</g>
		<path class="st1" d="M37.1,47c0,0,2-18.2,2.2-19.3c0,0-0.9-0.6-1.1-1.1c-0.2-0.4-0.5-0.9-0.8-1.2c-0.3-0.2-0.8-1.3-0.9-1.8
			c-0.1-0.5-0.1-0.9,0-1.2c0.1-0.2-0.4-1-0.2-1.3c0.2-0.3,0.8-0.6,1.2-0.5c0.4,0.1,1.1-0.1,1.7-0.4c0.7-0.2,4.2-0.7,5.5-0.4
			c1.4,0.3,0.6,0.1,0.9,0.4c0.4,0.3,0.1,0.1,0.6,0.1c0.5-0.1,0.5,0.2,0.8,0.2c0.3,0.1,1.1,0,0.9,1.1c-0.2,1.1-0.4,0.7-0.6,1.1
			c-0.2,0.4,0.1,0.4,0,0.9c-0.1,0.4,0,2.3-1.9,4c0,0,2.3,16.8,2.4,19.6c0,0-0.5,0.6-1.2,0.8c-0.7,0.2-0.6,0-0.9,0.3
			c-0.4,0.3-2.1,0.6-2.6,0.2c-0.6-0.3-1-0.4-1.6-0.3c-0.6,0.1-0.9,0.1-1.7-0.4c-0.8-0.4-0.2-0.6-0.9-0.7
			C38.3,47.3,38.1,47.6,37.1,47z"/>
		<path class="st3" d="M37.8,25.9c0,0-0.1-0.7,0.3-0.8c0.4,0,0.2,0.3,0.8,0.1c0.6-0.2-0.4-1-0.7-1.3c-0.3-0.3-0.5-0.8-0.4-1.2
			c0.1-0.4-0.5-0.6-0.7-1.2c-0.2-0.6,0.7-1,1.4-0.9c0.7,0.1,2,0,2.6-0.1c0.6-0.1,1.1-0.1,1.1,0.7c0,0.8-1.3,0.6-1.4,1.4
			c0,0.8,0.5,1.5,1.4,1.2c0.8-0.3,0.5-0.7,1.6-1.2c1.1-0.4,1.2,0.1,1.5-0.5c0.3-0.6-0.2-1,0.6-1.3c0.8-0.2,0.7-0.5,1.1-0.3
			c0.4,0.1,0.9,0.2,1,0.4c0,0.2,0.2,0.9-0.2,1.5c-0.4,0.6-0.4,0.4-0.4,0.7c0,0.3,0.5,2.4-1.8,4.4c0,0,1.9,13.1,2.4,19.6
			c0,0,0,0.7-1.9,0.9c0,0-1.3,1.2-3.2,0.2c0,0-0.6-0.2-1-0.1c-0.4,0.1-0.6,0.2-1.1,0c0,0,0.2-2.7,0.5-3.2c0.3-0.5,0.2-1.7,0-2.8
			c-0.1-1.1-0.5-2.9,0-3.5c0.5-0.6,1.3-0.2,1.4-1.4c0.1-1.2,0.5-8.5-0.5-9.1c-0.9-0.6-0.9-0.4-1.7-0.5c-0.7-0.1-0.9-0.2-0.7,0.5
			c0.1,0.7,0.1,1.3,0.1,1.7l-1,0.1l0.4-2.5C39.3,27.7,38.4,27.1,37.8,25.9z"/>
		<path class="st3" d="M40.4,48.2c0,0,0.2-1.1,0-1.7c-0.2-0.6,0-0.5,0-1.5c0-1,0.2-0.7,0-1.6c0,0,0,0.6-0.3,1.1
			c-0.2,0.6-0.4,0.2-0.3,1c0.1,0.8,0.4,1.2,0,1.6c-0.3,0.5-0.5,0.6-0.5,0.6S40,48.1,40.4,48.2z"/>
		<g>
			<path class="st3" d="M39,47.2c0,0,0.4-2.5,0.2-3c-0.2-0.5-0.3-0.4-0.3-1c0-0.6,0.4-0.5,0.5-0.3c0.1,0.2,0.6-0.4,0.3-1.1
				c-0.2-0.7-0.3-0.3-0.2-1.1c0.1-0.8-0.2-0.7-0.3-0.2c-0.1,0.5-0.3,0.9-0.5,0.5c-0.1-0.4,0.5-0.7,0.5-2L37.9,40l-0.5,3.7
				c0,0,0,0.5,0.6-0.8c0,0,0,0,0.2-0.2c0.2-0.2,0.5-0.5,0.4,0c-0.1,0.6-0.3,0.7-0.1,1.2c0.2,0.5,0.7,1.4,0.2,1.8
				c-0.4,0.4-0.6,1-0.4,1.4C38.4,47.2,38.7,47.2,39,47.2z"/>
		</g>
		<path d="M47.3,40.1l0.8,7.3c0,0-0.3,0.7-1.9,0.9c0,0-0.9,1.1-3,0.5c0,0-0.4-0.7-0.1-1.3c0.3-0.6,0.1,0.4,0.7,0.6
			c0.5,0.1,0.4,0.1,0.8-0.2c0.4-0.3,0.7-0.7,0.7,0c0,0.7-0.2,0.8,0.3,0.6c0.5-0.2,0.7-0.3,0.8-0.7c0.2-0.4-0.1-0.6,0.5-0.7
			c0.6-0.1,0.7-0.7,0.4-1.7c-0.3-0.9-0.7-1.2-0.8-0.7c-0.1,0.5,0.2,0.4-0.2,0.9c-0.4,0.6-0.7,0.8-0.6,0.3c0.1-0.6,0.7-1.1,0.4-2.2
			c-0.2-1.2-0.3-1.2-0.1-1.8c0.2-0.6,0-0.4,0.4,0c0.4,0.4,0.6,0.7,0.6,0.1c0-0.5-0.1-0.2-0.3-1c-0.2-0.8-0.1-1.3-0.1-1.3L47.3,40.1z
			"/>
		<path d="M47.9,22.4c-0.1,0.1-0.3,0.5-0.3,0.8c0,0.3,0.2,2.3-1.7,4.3c0,0,0.3,2.1,0.3,2.5c0,0-0.1-0.6-0.4-0.6
			c-0.3,0-0.2-0.6-0.4-1.1c-0.2-0.6-1-0.2-1.2,0.3H41c0,0,0.2-0.7-0.2-0.7c-0.5,0-0.5,0.3-0.5,0.7c0,0.4-0.1-0.1-0.4-0.5
			c-0.3-0.4-0.3-0.2-0.6-0.3c-0.3-0.1-1-0.8-1.2-1.4c-0.2-0.6,0-0.2-0.4-0.6c-0.3-0.3-0.6-0.6-0.7-0.8c-0.1-0.2,0.4,0.4,0.8,0.6
			c0.4,0.1,0.6,0,0.7,0.5c0.1,0.5,0.3,1.2,0.7,1.3c0.5,0.1,0.4,0.1,0.7-0.1c0.2-0.3-0.1,0,0.2,0.2c0.3,0.2,0.9,0.4,1.2,0.2
			c0.3-0.2,2.5-0.4,2.5-0.4s-0.2,0.2,0.3,0.2c0.6,0,1,0.2,1.2-0.7c0.2-0.9-0.6-0.7,0-1.4c0.6-0.7,0.6,0.1,1-0.1
			c0.4-0.2,0.6-0.2,0.2-0.5c-0.4-0.3-0.7-0.2-0.6-0.7c0-0.5-0.3-0.7,0.3-0.7c0.6,0,0.8,0.3,1.1,0c0.3-0.3,0-0.3,0.3-0.6
			c0.2-0.3,0.3-0.1,0.5-0.7C48.1,21.5,48.1,22,47.9,22.4z"/>
		<g>
			<g>
				<g>
					<path class="st1" d="M39.5,15.1c0,0-0.6-0.2-0.9-0.7c-0.3-0.5-1.3-1.2-0.9-2.2c0.3-1.1,1.4-1.1,1.5-0.7
						c0.1,0.4,0.2,1.1,0.4,1.4c0.2,0.4,0.6,0.9,0.9,1.3c0.3,0.4,0.9,0.9,1.1,1.7c0.2,0.7,0.6,1.7,0.2,2.2c0,0-0.7,1-1.5,0.5
						c-0.8-0.6-0.7-0.7-0.7-1c0-0.3,0.3-1,0.2-1.4C39.6,15.6,39.5,15.1,39.5,15.1z"/>
				</g>
				<g>
					<path class="st1" d="M40.8,14.1c0,0-1.4-1.9-1.2-2.4c0.1-0.5,0.2-2.1,1.9-1.1c0,0,0.7,0.6,0.9,2c0.1,1.4-0.3,1.5-0.1,1.8
						c0.2,0.3,1,2.5,0.4,3.3c0,0-0.2,0.2-0.4,0c-0.2-0.1,0-1.1-0.4-2.1C41.4,14.7,40.8,14.1,40.8,14.1z"/>
				</g>
				<path class="st1" d="M42.5,13.7c0,0,0-1.9-0.2-2.2c-0.2-0.4-0.1-1.4,0.1-1.6c0.3-0.2,1.5-0.2,1.7,0.6c0.2,0.8,0.2,2.1,0.3,2.5
					c0.1,0.3,0.7,2,1,2.7c0.3,0.7,0.5,2.1-0.7,2.7c-1.2,0.6-1.2,0-1.4-0.2c-0.2-0.3-0.3-0.9-0.3-1.6c0-0.7-0.2-1.4-0.4-1.8
					C42.5,14.3,42.5,13.7,42.5,13.7z"/>
				<g>
					<path class="st1" d="M44.7,12.7c0,0-0.1-2.1-0.2-2.3c0,0,1.4,0.2,1.4,1.4c0,1.1-0.1,0.4-0.1,0.7C45.7,12.7,44.9,12.4,44.7,12.7
						z"/>
				</g>
				<g>
					<path class="st1" d="M46,12c0,0,0-0.7,0-0.9c0-0.2,0.6-0.3,0.8-0.2c0.2,0.1,1.5,0.3,1.6,0.7c0,0,1.9,0.1,1.4,1.2
						c-0.4,1.1-0.5,1.7-1.3,2.2c0,0-0.5,0.4-0.8,0.5c0,0,0.2,0.5,0.1,1.3c-0.1,0.8-0.2,1.8-1,2.2c-0.8,0.5-1.4,0-1.7-0.5
						c0,0,1.1-1.1,0.7-2.1c0,0-0.1-0.4,0-0.7c0.1-0.3-1.2-2.5-1.2-2.5L46,12z"/>
				</g>
				<g>
					<path class="st1" d="M48.6,15.5c0,0,1.2-1.2,1.3-1.7c0.1-0.5,0.1-1.2,0.7-1.3c0.6-0.1,1.8-0.1,1.4,1.6c-0.5,1.7-0.8,2-1.4,2.4
						c0,0-0.7,0.5-0.7,1.2c0,0.7-0.5,1.9-1.3,2.1c-0.8,0.2-1.4-0.1-1.4-0.4c0-0.3,0-0.3,0-0.3s0.8-0.2,0.9-1.5c0.1-1.3,0-0.7,0-1.2
						C48,15.9,47.8,15.7,48.6,15.5z"/>
				</g>
				<g>
					<path class="st1" d="M50.8,16.8c0,0,1-1.2,1.4-2.2c0.3-1,1.4-0.8,1.5-0.3c0.1,0.5-0.3,2.5-1.2,2.9c-0.9,0.5-0.8,0.3-0.8,0.3
						s-0.4,2.1-1.2,2.8c-0.7,0.7-2,0.6-2-0.2c0,0,1.3-0.6,1.6-1.7c0.3-1.2,0.1-0.5,0.1-1.2L50.8,16.8z"/>
				</g>
				<path class="st1" d="M54.4,17.7c0,0,0.5-0.7,0.7-1.3c0.2-0.5,1-1.2,1.6-0.3c0.6,0.9,1.2,0.9,1.1,2.1c-0.1,1.2-0.4,2.7-1.5,2.9
					c-1.1,0.2-0.8-0.2-1-0.1c0,0,0.2,1.5-1.4,2c-1.6,0.4-1.5-0.1-1.7-0.5c-0.2-0.3-0.5-1-0.5-1.4c0-0.4,0-0.4,0-0.4
					s-0.2,0.4-0.5,0.3c-0.3-0.1-0.4-0.5-0.4-0.7c0,0,1.1-0.8,1-1.4c-0.1-0.6-0.3-1.1,0-1.3c0.3-0.2,1.3-0.4,1.5-1
					c0.2-0.6,0.7-1.3,0.7-2.1c0-0.8,0.1-0.8,0.6-0.5c0.5,0.3,0.8,1.1,0.3,2.1c-0.6,1-0.7,1.2-1.1,1.3C53.9,17.5,54.4,17.1,54.4,17.7
					z"/>
				<g>
					<path class="st1" d="M55.8,21.7c0,0,1.7-0.5,1.8-1.3c0.1-0.7,0.6-1.1,0.8-0.9c0,0,0.9,0.7,0.4,1.9c-0.5,1.2-0.9,1.7-1.2,1.9
						c-0.3,0.2-0.7,0-1,0c0,0-1,1.1-1.4,1.3c-0.3,0.2-1.1,0.8-1.6,0.4c-0.5-0.4-0.5-0.3-0.3-0.9c0.1-0.6,0.5-0.7,0.9-0.9
						c0.5-0.1,1.3-1,1.4-1.4C55.8,21.3,55.8,21.7,55.8,21.7z"/>
				</g>
				<g>
					<path class="st1" d="M57,23.7c0,0,0.9,0.2,1-0.5c0.1-0.7,0.5-1,0.7-1.4c0.1-0.4,0.6-0.6,0.8-0.2c0.2,0.4,0.5,0.7,0.3,1.3
						c-0.2,0.7-0.3,1.8-1,2.1c-0.7,0.3-1.1,0.1-1.3,0.1c0,0-0.7,0.4-1,0.6c-0.3,0.2-0.7,0.9-1.3,0.9c-0.6,0-0.6,0.2-1.1-0.1
						c-0.5-0.4-0.7-0.9-0.5-1.1c0.2-0.2,0-0.1,0.7-0.2c0.7,0,0.7-0.2,1.2-0.6c0.5-0.4,0.8-0.5,1-0.8C56.8,23.6,57,23.7,57,23.7z"/>
				</g>
				<g>
					<path class="st1" d="M57.9,25.6c0.3-0.1,0.9,0,1.1-0.6c0.2-0.5,0.4-1.1,0.7-1.5c0.2-0.4-0.1-0.9,0.4-0.7c0.5,0.2,0.8,0,0.7,0.7
						c-0.2,0.7,0,1-0.8,1.7c-0.8,0.7-0.7,0.9-1.3,1c-0.6,0.1-0.4,0-0.8,0c0,0-0.4,0.7-0.9,1c-0.5,0.2-0.7,0.8-1.3,0.7
						c-0.7-0.1-1-0.2-0.8-0.7c0.2-0.4-0.2-0.1,0.6-0.6c0.8-0.5,0.6,0,1.1-0.7c0.6-0.7,0.7-0.5,0.8-0.7
						C57.3,25.4,57.4,25.8,57.9,25.6z"/>
				</g>
				<g>
					<path class="st1" d="M58,26.6c0,0,0.1,0.5,0.8,0c0.7-0.5,0.5,0,1-0.7c0.5-0.7,0.3-0.7,0.7-0.9c0.4-0.3,0.2-0.7,0.7-0.1
						c0.5,0.6,0.9,1.2,0,1.8c-1,0.7-0.6,1-1.5,0.8c-1-0.2-0.7-0.1-0.9-0.3c0,0-0.7,0.7-1.3,1c-0.7,0.3-1,0.7-1.3,0.7
						c-0.3,0-0.8,0-0.8-0.3c0-0.3-0.3-0.3,0-0.5c0.3-0.1,0,0.3,0.7-0.1c0.7-0.4,0.4-0.3,0.9-0.7C57.4,26.9,57.8,26.9,58,26.6z"/>
				</g>
				<g>
					<path class="st1" d="M58.8,27.8c0,0,0.4,0.5,1,0.2c0.6-0.3,0.7-0.5,1-0.7c0.3-0.3,0.2-0.9,0.6-0.4c0.3,0.5,0.6,0.8,0.1,1.4
						c-0.4,0.5-0.8,0.7-1.1,0.9c-0.3,0.2,0,0.7-0.1,1.1c0,0,0.8,0.8,0.7,1.5c0,0,0.6,1.9,0.3,2.5c-0.3,0.7-0.6,1.4-1,1.3
						c-0.5-0.1-0.6,0.3-0.7-0.6c-0.2-0.9-0.3-1,0.1-1.6c0.4-0.6,0.2-0.5,0.4-0.7l-0.4-0.1c0,0,0,0.3-0.2,0.6c-0.1,0.3,0,0.9-0.6,1.1
						c-0.6,0.2-0.8,0.5-1.2,0.2c-0.3-0.3-0.3-0.6-0.2-0.9c0.1-0.4,0.1-0.3,0.5-0.8c0.4-0.6,0.3-0.3,0.5-0.7c0.2-0.5,0.3-0.6,0.3-0.6
						l-0.3-0.1c0,0-0.2,0.6-0.4,0.8c-0.1,0.3-0.2,0.6-0.4,0.7c-0.2,0.1-0.3,0.5-0.6,0c-0.3-0.5-0.6-0.4-0.2-0.8
						c0.4-0.5,0.2-0.1,0.7-0.6c0.5-0.5,0.5-0.5,0.5-0.5L58,30.7c0,0-0.3,0.7-1,0.8c-0.7,0.1-0.7,0.3-0.9-0.2
						c-0.2-0.5-0.2-0.6-0.1-0.7c0,0,0.9,0.2,1.4-0.3c0.5-0.5,0.3-0.5,0.3-0.5l-0.2-0.2c0,0-0.2,0.7-0.8,0.7c-0.6,0-0.6,0.4-0.9-0.1
						c-0.3-0.5-0.2-0.8-0.2-0.9c0-0.1,0-0.1,0-0.1S57.7,29.5,58.8,27.8z"/>
				</g>
				<g>
					<path class="st1" d="M24.9,29.4c0,0-0.8-1-0.8-1.4c0-0.4,0-0.6,0.2-0.6c0.1,0,0.1,0,0.5,0.4c0.3,0.4,0,0.4,0.6,0.6
						c0.5,0.2,0.7,0.2,0.7,0.2l0-0.2c0,0-0.5,0-0.8-0.5c-0.3-0.5-0.8-0.8-1-1.4c-0.1-0.5-0.2-1,0.2-1.1c0.4-0.1,0.5-0.4,0.7,0
						c0.1,0.5,0.3,0.7,0.6,0.8c0.3,0.1,0.5,0.3,0.7,0.3c0.2,0,0.8,0,0.8,0s0.8,0.7,0.9,0.8c0.1,0.1,0.3,0.6,0.6,0.7
						c0.3,0.1,0.7,0.5,1.1,0.4c0.4,0,0.4-0.2,0.3,0c0,0.2-0.2,0.7-0.6,0.7c-0.4,0-0.7,0-1-0.1c-0.3-0.2-0.6-0.4-0.9-0.7
						c-0.3-0.3-0.3-0.3-0.6-0.3c-0.3,0-0.3,0.2-0.3,0.2s0.6,0.1,0.8,0.3c0.2,0.2,0.5,0.5,0.8,0.6c0.3,0.1,0.6,0.1,0.9,0.2
						c0.3,0.1,0.4,0.2,0.4,0.4c0,0.2,0,0.4-0.3,0.6c-0.4,0.2-0.8,0.1-1.2,0c-0.4-0.2-0.4,0-0.7-0.4c-0.3-0.4-0.3-0.4-0.5-0.6
						c-0.1-0.2-0.2-0.3-0.2-0.3l-0.2,0.2c0,0,0.2,0.2,0.4,0.4c0.1,0.2,0,0.2,0.4,0.5c0.4,0.3,0.5,0.4,1,0.5c0.5,0.1,0.9-0.2,0.8,0.3
						c-0.1,0.5-0.2,0.8-0.7,0.8c-0.4,0-0.8-0.1-1-0.3c-0.2-0.2-0.2-0.1-0.5-0.5c-0.3-0.3-1-1.3-1-1.3L24.9,29.4z"/>
				</g>
				<g>
					<path class="st1" d="M27.8,24.1c0,0-0.8-1.4-0.9-1.9c-0.1-0.5-0.2-1,0-1.4c0.3-0.4,0.8-0.4,0.9,0c0.1,0.4,0.1,0.5,0.4,0.9
						c0.2,0.4,0.8,0.7,1.2,0.8l0.5,0.2c0,0,0.6,0.9,0.9,1c0.3,0.1,0.2,0,0.7,0.2C32,24,32,23.9,32,24.4c0,0.5,0.1,0.6-0.2,0.8
						c-0.3,0.2-0.3,0.4-0.9,0.3c-0.6-0.1-0.9-0.4-1.2-0.7c-0.3-0.3-0.2-0.3-0.5-0.7c-0.3-0.4-0.6-0.5-0.6-0.5l0,0.2
						c0,0,0.3,0.1,0.5,0.6c0.2,0.5,0.2,0.7,0.7,0.9c0.5,0.3,0.6,0.5,1,0.5c0.4,0,0.6-0.4,0.7,0c0.2,0.4,0,0.8-0.3,1
						c-0.3,0.2-0.4,0.4-0.7,0.3c-0.3,0-0.4,0.1-0.7-0.1c-0.3-0.3-0.3,0.1-0.7-0.5c-0.4-0.6-0.6-0.7-0.7-1.1C28.2,25,28,24.4,28,24.4
						L27.8,24.1z"/>
				</g>
				<g>
					<path class="st1" d="M29.5,22c0,0-0.8,0-1.1-0.6c-0.3-0.6-0.7-1.2-0.7-1.7c0-0.5,0.2-1.3,0.5-1.3c0.3,0,0.8-0.1,0.9,0.3
						c0.1,0.4,0.3,0.4,0.5,0.7c0.2,0.4,0.6,0.8,0.9,0.9c0,0,0.3,0.5,0.4,1c0.1,0.5,0.2,0.7,0.5,0.9c0.3,0.2,0.7,0.6,1,0.5
						c0.3,0,0.4-0.4,0.5,0c0,0.3,0.3,0.8-0.3,0.8c-0.7,0-0.7,0.2-1.1,0c-0.4-0.1-0.7-0.4-1.1-0.8c-0.4-0.4-0.4-0.5-0.6-0.7
						C29.6,21.8,29.5,22,29.5,22z"/>
				</g>
				<g>
					<path class="st1" d="M30.7,20.3c0,0-0.7-0.4-0.9-0.7c-0.2-0.3-0.7-0.6-0.8-1.2c-0.1-0.6-0.2-1.1,0-1.4c0.3-0.3,0.2-0.6,0.6-0.4
						c0.3,0.2,0.4,0.2,0.5,0.5c0,0.3,0.4,0.7,0.6,1c0.2,0.3,0.2,0.2,0.6,0.5l0.2-0.2c0,0-1-0.9-1.3-1.4c-0.2-0.5-0.3-1.4,0-1.6
						c0.3-0.2,1-0.5,1.4-0.3c0.4,0.2,0.3,0.3,0.5,0.4c0,0-0.1-1.1,0.6-1.4c0.7-0.3,0.2-0.1,0.5-0.1c0.3,0,0.8-0.1,1,0.2
						c0.2,0.3,0.3,0.7,0.4,0.9l0.3,0c0,0-0.3-0.9-0.1-1.4c0.2-0.5,0.1-0.7,0.5-0.7c0,0,0.8-1.4,2-0.9c0,0,0.1,1.4,0.4,1.6
						c0.3,0.3,0.1,0.3,0.5,0.6c0.4,0.3,0.6,0.9,0.8,1c0,0,0.5,0.3,0.5,0.9c0,0.6-0.3,0.9-0.2,1.3c0.1,0.4,0,0.4,0.2,0.7
						c0.2,0.4,0.5,0,0.4,0.5c-0.1,0.5-0.9,0.8-1.4,0.6c-0.5-0.2-0.7-0.4-0.9-0.9c-0.2-0.5-0.3-0.2-0.3-1.1c0-0.9,0-1.1,0-1.1
						l-0.3,0.1c0,0-0.2,0.8,0,1.2c0.1,0.4,0,0.7,0.3,1c0.2,0.3,0.2,0.6,0.5,0.7c0.3,0.2,0.6,0.1,0.5,0.5c-0.1,0.3-0.8,0.6-1,0.6
						c-0.2,0-0.8,0-1.2-0.7c-0.4-0.7-0.7-1.1-0.7-1.4l0-0.6l-0.5,0.4c0,0,0,0.4,0.2,0.8c0.2,0.5,0.5,1.1,0.8,1.3
						c0.3,0.2,0.8,0.2,0.7,0.6c-0.1,0.3-0.6,0.7-0.9,0.7c-0.3,0-0.4-0.1-0.6-0.2c-0.2-0.1-0.9-0.4-1.1-0.5c-0.2-0.1-0.4,0.1-0.4,0.1
						s0,0.7-0.1,1.1c-0.1,0.4-0.2,0.7-0.6,0.8c-0.3,0.1-1,0-1.5-0.8C30.7,20.7,30.7,20.3,30.7,20.3z"/>
				</g>
			</g>
			<g>
				<path class="st1" d="M28.8,26.5c0,0,0.7,0.9,1.1,0.9c0.4,0,0.5,0,0.5,0.2c0,0.2,0.1,0.5-0.2,0.5c-0.3,0-0.6,0.2-1,0
					c-0.4-0.2-0.6,0-0.7-0.6c-0.2-0.5-0.1-0.6-0.4-0.7C27.8,26.7,28.6,26.9,28.8,26.5z"/>
			</g>
		</g>
		<g>
			<path class="st4" d="M27.5,34.3c-0.2,0.1-1.2-1.1-1.2-1.3c0-0.2,0.1-0.1,0.3-0.2c0.2-0.1,0.4-0.6,0.7-0.5
				c0.2,0.1,0.2,1.4,0.3,1.6C27.7,34.2,27.7,34.2,27.5,34.3z"/>
		</g>
		<g>
			<path class="st4" d="M26.5,32.5c0,0-0.7-0.8-0.8-1.2c-0.1-0.4-0.3-0.3,0-0.5c0.3-0.1,0.3,0,0.6,0c0.3,0,0.5-0.3,0.6,0
				c0.1,0.3,0.1,0.8,0.1,1.1c0,0.3,0,0.5-0.2,0.6C26.7,32.6,26.6,32.5,26.5,32.5z"/>
		</g>
		<g>
			<path class="st4" d="M26,30.3c0,0-0.2-0.3-0.3-0.6c-0.1-0.2-0.4-0.3-0.2-0.7c0.1-0.3,0-0.2,0.4-0.3c0,0,0.3-0.3,0.5-0.2
				c0.2,0.1,0.5,0.1,0.5,0.3c0,0.2-0.1,0.5-0.1,0.7c0,0.2-0.1,0.6-0.1,0.8c0,0.2,0.2,0.5-0.1,0.4C26.4,30.6,26.2,30.4,26,30.3z"/>
		</g>
		<g>
			<path class="st4" d="M26.3,28.3c-0.1,0-0.7-0.5-0.7-0.8s0-0.6,0.1-0.7c0.2-0.1,0.3-0.2,0.5-0.1c0.2,0.1,0.1,0.1,0.5,0.3
				c0,0,0.3,0.1,0.2,0.4c0,0.2-0.2,0.4-0.2,0.6C26.7,28.2,26.5,28.4,26.3,28.3z"/>
		</g>
		<g>
			<path class="st4" d="M27.6,24.2c0-0.1,0.1-0.2,0.2-0.2c0.1,0,0.5,0.1,0.5,0.1s-0.2-0.8-0.2-1.2c0-0.3,0.2-0.5,0.3-0.3
				c0.2,0.1,0.3,0.2,0.5,0.2c0.2,0.1,0.3-0.1,0.5,0.1c0.3,0.2,0.3,0.6,0.2,0.7c-0.1,0.2-0.3,0.3-0.5,0.4c-0.2,0.1-0.2,0-0.5,0.1
				c-0.2,0.1-0.1,0.3-0.2,0.5c-0.2,0.2-0.2,0.3-0.4,0.2c-0.2-0.1-0.2-0.1-0.2-0.3C27.7,24.4,27.6,24.2,27.6,24.2z"/>
		</g>
		<g>
			<path class="st4" d="M28.8,22.5c-0.1-0.1-0.2-0.7-0.1-1c0-0.3,0.1-0.9,0.4-0.8c0.3,0.1,0.3,0.2,0.6,0.3c0.2,0.1,0.3,0.1,0.5,0.2
				c0.2,0.1,0.5-0.2,0.5,0.2c0.1,0.3,0,0.5-0.2,0.6c-0.2,0.2-0.3,0.2-0.6,0.4c-0.3,0.2-0.3,0.4-0.6,0.4C29,22.8,29,22.7,28.8,22.5z"
				/>
		</g>
		<g>
			<path class="st4" d="M29.9,20.9c-0.1-0.1-0.2,0-0.3-0.3c-0.1-0.2-0.1-0.5,0-0.8c0.1-0.3,0-0.6,0.2-1c0,0,0.4-0.5,1.1-0.1
				c0.7,0.3,1,0.3,1,0.9c-0.1,0.6-0.3,0.9-0.7,1.2C30.6,21,30.6,21,30.3,21C29.9,20.9,29.9,20.9,29.9,20.9z"/>
		</g>
		<g>
			<path class="st4" d="M31.8,19.1c0-0.1-0.2-0.2-0.3-0.3c0,0-0.2-0.8-0.2-1.2c0-0.3,0.1-0.5,0.4-0.4c0.3,0.1,0.3,0.2,0.5,0.4
				c0.2,0.2,0.3,0.2,0.6,0.3c0.2,0.1,0.5,0.1,0.6,0.2c0,0.2,0,0.3-0.2,0.5c-0.2,0.2-0.3,0.1-0.5,0.3c-0.2,0.2-0.2,0.3-0.4,0.5
				c-0.2,0.2-0.2,0.3-0.3,0.2C31.9,19.5,31.9,19.4,31.8,19.1z"/>
		</g>
		<g>
			<path class="st4" d="M35.4,16.5c0,0,0-0.1,0.2-0.3c0.2-0.2,0.4-0.1,0.6-0.3c0.2-0.2,0.2-0.5,0.5-0.6c0.2,0,0.4-0.2,0.5,0.2
				c0.1,0.3,0.2,0.4,0.2,0.9c0,0.5-0.1,0.4-0.1,0.6c0,0.2,0.4,0.1,0,0.4c-0.4,0.3-0.3,0.3-0.8,0.3c-0.5,0-0.5-0.1-0.8,0
				c-0.3,0.1-0.5,0.1-0.5,0.1s0.1-0.1,0.2-0.3C35.4,17.3,35.4,16.8,35.4,16.5"/>
		</g>
		<g>
			<path class="st4" d="M37.4,15.3c0,0,0.6-0.6,0.9-0.7c0.3-0.2,0.3-0.2,0.7-0.3c0.4,0,0.7-0.4,0.8,0.2c0.1,0.6,0.2,0.7,0.1,1
				c-0.1,0.3-0.1,0.6-0.2,0.8c-0.1,0.3-0.2,0.3-0.4,0.3c-0.2-0.1-0.7-0.2-1-0.2c-0.3,0-0.3,0.1-0.6,0c0,0-0.1-0.6-0.3-0.7
				c-0.2-0.1-0.3-0.2-0.3-0.4C37.1,15.2,37.4,15.3,37.4,15.3z"/>
		</g>
		<g>
			<path class="st4" d="M40.1,14.6c0,0,0-0.3,0.2-0.4c0.2-0.2,1.1-0.5,1.4-0.7c0.3-0.2,0.2-0.3,0.5-0.1c0.3,0.2,0.3,0.7,0.2,1.1
				c-0.1,0.4-0.2,0.5-0.1,0.7c0.1,0.2,0.4,0.4,0,0.5c-0.4,0.2-0.5,0.3-1,0.1c-0.5-0.2-0.2-0.1-0.7-0.3C40,15.1,40,14.8,40.1,14.6z"
				/>
		</g>
		<g>
			<path class="st4" d="M46,14.4c0,0,0-0.2,0.2-0.3c0.2,0,0.8,0.2,1.1,0.1c0.3-0.1,0.5-0.1,0.6,0.1c0.2,0.2,0.3,0.2,0.3,0.6
				c-0.1,0.4,0,0.3-0.2,0.6c-0.2,0.3,0,0.5-0.6,0.5c-0.6,0-0.6,0.2-1-0.1c-0.4-0.3-0.5-0.3-0.7-0.6c-0.2-0.3-0.3-0.3-0.2-0.4
				c0.1-0.1,0.2-0.1,0.3-0.2C46,14.6,46,14.6,46,14.4z"/>
		</g>
		<g>
			<path class="st4" d="M48.6,14.8c0,0,1.1,0.6,1.4,0.7c0.4,0,0.6-0.3,0.7,0.1c0.1,0.4,0.2,0.6-0.1,0.8c-0.2,0.2-0.3,0.2-0.5,0.3
				c-0.2,0.2-0.2,0.5-0.6,0.7c-0.3,0.2-0.2,0.3-0.5,0c-0.3-0.3-0.3-0.4-0.4-0.8c-0.1-0.4-0.2-0.4-0.4-0.6c-0.1-0.2-0.1-0.2-0.1-0.2
				S48.7,15.3,48.6,14.8z"/>
		</g>
		<g>
			<path class="st4" d="M51,16.1c0,0,0.4,0.2,0.7,0.1c0.3-0.1,0.4-0.3,0.7-0.1c0.2,0.2,0.3,0.3,0.3,0.5c0,0.2,0,0.3,0,0.5
				c0,0.2,0,0.3-0.2,0.3c-0.2,0.1-0.2,0-0.4,0.1c-0.2,0.1-0.2,0.2-0.4,0.5c-0.2,0.2-0.2,0.6-0.6,0.3c-0.4-0.2-0.3,0.1-0.5-0.4
				c-0.2-0.4-0.3-0.5-0.4-0.7c-0.1-0.3-0.1-0.3,0.1-0.6c0.2-0.2,0.4-0.3,0.4-0.5c0-0.2,0.1-0.3,0.1-0.3L51,16.1z"/>
		</g>
		<g>
			<path class="st4" d="M55.1,20c0,0,0.5,0.4,0.8,0.5c0.2,0.1,0.3,0,0.4,0.3c0.1,0.3,0.2,0.3,0.1,0.7c-0.2,0.3-0.1,0.6-0.6,0.7
				c-0.5,0.1-0.8,0.2-1.1,0c-0.3-0.2-0.3,0-0.4-0.4c-0.1-0.4-0.2-0.6-0.2-0.7c-0.1-0.1-0.1-0.2,0-0.4C54,20.7,54.8,20.7,55.1,20z"/>
		</g>
		<g>
			<path class="st4" d="M56.3,22c0,0,0.6,0.6,0.9,0.7c0.4,0.1,0.3,0.7,0.1,0.8c-0.2,0.1-0.1,0.2-0.4,0.3c-0.3,0.2-0.4,0.3-0.7,0.2
				c-0.3-0.1-0.7-0.2-0.7-0.6c0-0.4,0.2-0.3,0.2-0.5c-0.1-0.2-0.1-0.3-0.2-0.5C55.5,22.5,56.3,22.5,56.3,22z"/>
		</g>
		<g>
			<path class="st4" d="M57.6,23.7c0,0,0.3,0.9,0.6,1.2c0.3,0.2,0.4,0.5,0.2,0.7c-0.2,0.2-0.3,0.5-0.7,0.5c-0.4,0-0.5,0.1-0.7-0.2
				c-0.2-0.3-0.3-0.3-0.3-0.5c0-0.2,0.2-0.4,0.1-0.8c-0.1-0.4-0.1-0.5-0.1-0.5S57.5,24.2,57.6,23.7z"/>
		</g>
		<g>
			<path class="st4" d="M58.7,25.7c0,0,0,0.8,0.3,1c0.2,0.2,0.4,0.3,0.4,0.5c0,0.2-0.1,0.4-0.3,0.5c-0.2,0.1-0.4,0-0.6-0.1
				c-0.2,0-0.2,0-0.4,0.1c-0.2,0.1-0.3,0.2-0.5,0c-0.1-0.2,0.2-0.7,0-1.1C57.7,26.6,58.8,26.2,58.7,25.7z"/>
		</g>
		<g>
			<path class="st5" d="M51.4,19.1l0.7,0.7c0,0,0.3,2,0.3,3c0,1.1-0.1,2.6-0.2,3.2c-0.1,0.6-0.1,0.7-0.2,1c0,0,0-1.1-0.1-2.2
				c-0.1-1.1-0.2-1.2-0.3-2.2C51.5,21.8,51.3,19.7,51.4,19.1z"/>
		</g>
		<g>
			<path class="st5" d="M52.6,20.2l1.2,0.7c0,0,0.2,0.9,0.2,1.5c0,0.7-0.2,2.2-0.2,2.5c0,0.3-0.2,0.8-0.2,1c0,0.2,0,0.4-0.1,0.7
				c0,0,0-1.4,0-2c0-0.6-0.2-1.3-0.2-1.9S53,21.4,52.9,21C52.8,20.7,52.8,20.4,52.6,20.2z"/>
		</g>
		<g>
			<g>
				<path class="st5" d="M42.7,15.9c0,0,0.8,0.3,1.2,0.1c0,0,0.7,0.9,0.5,2.7c-0.3,1.8-0.6,1.3-0.6,2.1c0,0.7-0.3,1.1,0,1.7
					c0,0-0.4-0.8-0.3-2.2c0.1-1.4,0.2-1.2,0.2-1.8c0-0.6,0-0.8-0.1-1.2C43.3,17,43,16.1,42.7,15.9z"/>
			</g>
			<path class="st5" d="M42.7,15.9c0,0,0.5,0.7-0.1,1.6c-0.6,0.9-1,1.9-1.2,2.6c-0.2,0.7-0.3,2.1-0.3,3c0,0,0.3-1.6,1.2-3.1
				c0.9-1.5,1-0.9,1.2-1.7c0.2-0.8,0.5-1.4,0.5-1.8C44,16,43.1,16.2,42.7,15.9z"/>
		</g>
		<g>
			<path class="st5" d="M32.7,19.4c0,0,0.9,0.1,1.2-0.5c0.2-0.6,0-0.1,0-0.1s0.9,1.4,1,1.7c0.1,0.4,0.6,1.4,0.6,2
				c0,0.7,0,2.2-0.4,2.7c-0.4,0.5-0.4,0.3-0.6,0.7c0,0,0.7-1.5,0.5-2.5c-0.1-1-0.3-1.7-0.7-2.1c-0.4-0.4-0.7-0.8-1-1.1
				C33,19.9,32.9,19.7,32.7,19.4z"/>
		</g>
		<g>
			<path class="st5" d="M32.7,19.4c0,0,0.7,1.1,0.5,2.1c-0.2,0.9-0.2,2.2-0.3,2.8c-0.1,0.6-0.2,2.8-0.1,3.2c0.1,0.4,0.1,0.5,0.2,0.6
				c0,0-0.2-0.8,0.3-2.8c0.6-2,1.3-3.3,1-4c-0.3-0.7-0.5-1.9-0.3-2.3C34,18.9,33.1,19.6,32.7,19.4z"/>
		</g>
		<g>
			<g>
				<path class="st5" d="M25.4,28.9c0,0,0.3,1.1,0.7,1.4c0,0-0.1,1.2-0.1,1.5c0,0.3-0.1,0.8,0,1.4c0.1,0.7,0.3,1.1,0.3,1.6
					c0,0.5-0.2,1,0,1.5c0.1,0.5,0,0.5,0.1,0.7c0.1,0.2-0.6-1.2-0.7-1.8c0-0.6,0-0.9-0.2-1.3c-0.2-0.4-0.5-0.9-0.6-1.7
					c0-0.8-0.2-1.8,0-2.5C25.1,29.2,25.1,29.3,25.4,28.9z"/>
			</g>
			<g>
				<path class="st5" d="M25.4,28.9c0,0-0.9,1-1,1.9c-0.1,0.9,0,0.9,0,1.6c0,0.7,0.1,0.8,0.2,1.6c0,0.8,0.1,0.7,0,1.3
					c-0.1,0.6,0,0.6-0.1,0.8c0,0,0.5-0.7,0.6-1.6c0-0.9,0.2-1.1,0.2-1.6c0-0.6-0.1-0.7,0.1-1.2c0.2-0.6,0.2-0.6,0.5-1
					c0.3-0.4,0.3-0.4,0.3-0.4S25.4,29.7,25.4,28.9z"/>
			</g>
		</g>
		<g>
			<path class="st6" d="M25.6,29.6c0,0,0.4,0.7,0.4,0.8c0,0-0.3,2.4-0.2,2.8c0.1,0.4,0.2,1,0.3,1.3c0,0.3,0.1,0.4,0.1,0.5
				c0,0.1-0.2,0.1-0.2,0.1s-0.4-0.6-0.5-0.8c-0.1-0.2-0.4-0.6-0.4-0.8c0,0-0.2,1.1-0.1,1.3c0,0.2-0.1,0.6-0.2,0.8
				c-0.1,0.2-0.2,0.6-0.3,0.7c-0.1,0.1-0.2,0.2-0.2,0.2s0.3-0.7,0.4-1.4c0.1-0.7,0-1.4-0.1-1.7c0-0.3,0-1.3,0.1-1.7
				c0.1-0.5,0.3-1.1,0.4-1.3C25.3,30,25.4,29.6,25.6,29.6z"/>
		</g>
		<g>
			<path class="st6" d="M33.9,18.7c0,0,0.3,0.6,0.4,0.8c0.1,0.2,0.3,0.6,0.4,0.8c0,0.2,0.1,0.3,0.2,0.5c0.1,0.2,0.2,0.4,0.1,0.5
				c0,0.1-0.1,0.3-0.2,0.2c-0.1,0-0.1,0-0.3-0.2c-0.2-0.2-0.3-0.7-0.3-0.9c0,0-0.2,0.8-0.3,1c-0.1,0.2-0.1,0.4-0.2,0.4
				c-0.1,0.1-0.1,0.1-0.2,0.3c-0.1,0.2-0.1,0.3-0.2,0.1c-0.1-0.2,0-0.6,0.1-0.7c0-0.2,0.1-0.3,0.1-0.7c-0.1-0.4-0.2-0.5-0.2-0.7
				c0-0.2-0.2-0.6-0.3-0.7C32.9,19.5,33.8,19.2,33.9,18.7z"/>
		</g>
		<g>
			<path class="st6" d="M42.7,15.8c0,0,0.9,0.4,1.2,0.2c0,0,0.3,0.8,0.3,1.3c0,0.4,0,1.1-0.2,1.5c-0.2,0.4-0.2,0.7-0.2,0.9
				c0,0,0,0.4,0,0.7c-0.1,0.2-0.2,0.6-0.2,0.8c0,0.2,0,0.6,0,0.7c0,0.2,0,0.3,0,0.5c0,0-0.2-0.6-0.2-0.8c0-0.2-0.1-0.9,0-1.3
				c0.1-0.3,0.1-0.9,0.1-1.2c0-0.3,0.1-0.6,0.1-0.9c0-0.3-0.2-1.3-0.3-1.4c0,0,0.1,0.3-0.2,0.8c-0.3,0.5-0.5,0.7-0.8,1.2
				c-0.3,0.4-0.4,0.8-0.6,1.1c-0.1,0.4-0.3,1.2-0.4,1.7c-0.1,0.5,0,1.2-0.2,1.6c0,0,0-1.1,0.1-1.4c0-0.3,0.2-1.2,0.2-1.4
				c0-0.2,0.3-1.2,0.6-1.6c0.2-0.4,0.6-0.9,0.7-1.1c0.1-0.2,0.2-0.3,0.2-0.5c0-0.2,0.1-0.5,0-0.7C42.8,16.1,42.8,16,42.7,15.8z"/>
		</g>
		<g>
			<path class="st6" d="M51.4,19.1l0.8,0.8c0,0,0.2,2,0.2,2.5c0,0.5,0,0.6-0.1,0.6c-0.2,0-0.1,0.1-0.3-0.2c0,0-0.3-0.6-0.3-0.9
				c-0.1-0.2-0.3-0.6-0.3-0.9C51.4,20.8,51.3,19.7,51.4,19.1z"/>
		</g>
		<g>
			<path class="st6" d="M53.8,21c0,0,0,0.5,0.1,0.7c0,0.2,0,0.4,0,0.6c0,0.2,0,0.3,0,0.5c0,0.3,0,0.3,0,0.5c0,0.2,0,0.3,0,0.3
				s0-0.8-0.3-1.1c-0.2-0.3-0.3-0.2-0.2-0.4c0.1-0.2,0-0.1,0.1-0.2c0.1-0.1,0.2,0,0.2-0.2c0-0.2,0-0.3-0.1-0.4
				c-0.1-0.1-0.2-0.1-0.3-0.3c-0.1-0.2-0.2-0.3-0.2-0.4c-0.1-0.1-0.1-0.2-0.1-0.2L53.8,21z"/>
		</g>
		<g>
			<g>
				<path class="st6" d="M59.8,27.5c0,0,2.9,1.4,3.3,1.9c0.4,0.4,0.8,1.3,0.8,1.9c0,0.6-0.4,1.4-0.4,1.8c0,0.4,0,0.4,0,0.7
					c0,0-0.5-0.7-0.5-1.1c0-0.4,0-1.1,0-1.5c0-0.4,0.1-0.7-0.2-0.9c-0.3-0.2-0.8-0.4-1-0.5c-0.2-0.1-1-0.3-1.3-0.5
					c-0.3-0.1-0.4-0.3-0.4-0.3S60,27.9,59.8,27.5z"/>
			</g>
			<g>
				<path class="st6" d="M61.8,29.8c0,0,0.7,1.4,0.7,2.9c0,1.5-0.2,2.2-0.4,3.7c-0.1,1.5-0.1,0.7-0.1,0.7s-0.1-1.5-0.2-2.4
					c0-0.8,0-1.8-0.2-2.3c-0.2-0.5-0.7-1.5-0.9-2.1c-0.2-0.6-0.4-0.8-0.4-1.2C60.4,28.9,61.8,29.8,61.8,29.8z"/>
			</g>
		</g>
		<g>
			<path class="st5" d="M61.5,28.4c0,0,1.3,0.7,1.5,0.9c0.2,0.2,0.6,0.7,0.7,1c0.1,0.3,0.2,0.8,0.2,0.9c0,0.2-0.1,0.8-0.3,1.2
				c-0.2,0.4-0.1,0.3-0.1,0.5c0,0-0.1-0.7-0.1-1.1c0-0.4,0-0.7,0-1c0-0.2,0.1-0.4-0.1-0.7c-0.2-0.3-0.4-0.6-0.6-0.8
				C62.6,29.3,62.1,28.9,61.5,28.4z"/>
		</g>
		<g>
			<path class="st7" d="M28.6,25c0.1,0.2,0.3,0.3,0.4,0.5c0.1,0.1,0.2,0.1,0.3,0c0.1-0.1,0.1-0.2,0-0.3C29.2,25.1,29,25,29,24.8
				c-0.1-0.1-0.2-0.1-0.3-0.1C28.6,24.8,28.6,24.9,28.6,25L28.6,25z"/>
			<path class="st7" d="M28.4,27c0.1,0.1,0.2,0.2,0.4,0.3c0.1,0.1,0.2,0,0.3-0.1c0.1-0.1,0-0.2-0.1-0.3c-0.1-0.1-0.2-0.1-0.3-0.2
				c-0.1-0.1-0.2-0.1-0.3,0C28.3,26.8,28.3,26.9,28.4,27L28.4,27z"/>
			<path class="st7" d="M27.4,27.8c0.1,0.2,0.3,0.4,0.4,0.6c0.1,0.1,0.2,0.1,0.3,0c0.1-0.1,0.1-0.2,0-0.3c-0.1-0.1-0.3-0.2-0.3-0.4
				c0-0.1-0.1-0.2-0.2-0.1C27.4,27.6,27.4,27.7,27.4,27.8L27.4,27.8z"/>
			<path class="st7" d="M26.9,29.1c0.1,0.2,0.4,0.4,0.6,0.5c0.1,0,0.2,0,0.2-0.1c0-0.1,0-0.2-0.1-0.2c-0.2-0.1-0.4-0.2-0.5-0.3
				c-0.1-0.1-0.2-0.1-0.3,0C26.8,28.9,26.8,29,26.9,29.1L26.9,29.1z"/>
			<path class="st7" d="M26.9,30.6c0.1,0.2,0.2,0.3,0.4,0.4c0.1,0,0.2,0,0.2-0.1c0-0.1,0-0.2-0.1-0.2c-0.1,0-0.1-0.2-0.3-0.2
				c0,0,0,0,0,0c-0.1-0.1-0.2-0.1-0.3-0.1C26.8,30.4,26.8,30.5,26.9,30.6L26.9,30.6z"/>
			<path class="st7" d="M25.4,26.8c-0.1,0-0.2,0-0.3-0.2c-0.1-0.1-0.2-0.1-0.3,0c-0.1,0.1-0.1,0.2,0,0.3c0.1,0.1,0.3,0.3,0.5,0.3
				c0.1,0,0.2,0,0.2-0.1C25.6,26.9,25.5,26.8,25.4,26.8L25.4,26.8z"/>
			<path class="st7" d="M25.5,28.9c-0.1-0.1-0.2-0.2-0.2-0.2c-0.1-0.1-0.2-0.1-0.3,0c-0.1,0.1-0.1,0.2,0,0.3
				c0.1,0.1,0.2,0.2,0.2,0.3c0.1,0.1,0.2,0.1,0.3,0C25.5,29.1,25.5,29,25.5,28.9L25.5,28.9z"/>
			<path class="st7" d="M27.9,22.5c-0.1-0.1-0.1-0.2-0.2-0.3c0-0.1-0.2-0.1-0.3-0.1c-0.1,0-0.1,0.2-0.1,0.3c0.1,0.1,0.1,0.2,0.2,0.4
				c0.1,0.1,0.2,0.1,0.3,0.1C28,22.7,28,22.6,27.9,22.5L27.9,22.5z"/>
			<path class="st7" d="M29.6,23.9c0.1,0.2,0.3,0.2,0.5,0.4c0.1,0.1,0.2,0.1,0.3,0c0.1-0.1,0.1-0.2,0-0.3c-0.1-0.2-0.3-0.2-0.5-0.4
				c-0.1-0.1-0.2-0.1-0.3,0C29.5,23.7,29.5,23.8,29.6,23.9L29.6,23.9z"/>
			<path class="st7" d="M30.4,22.3c0,0.3,0.2,0.5,0.5,0.7c0.1,0.1,0.2,0,0.3,0c0.1-0.1,0-0.2,0-0.3c-0.1-0.1-0.3-0.2-0.3-0.4
				c0-0.1-0.1-0.2-0.2-0.2C30.4,22.1,30.4,22.2,30.4,22.3L30.4,22.3z"/>
			<path class="st7" d="M31.6,20.6c0.1,0.3,0.3,0.5,0.5,0.7c0.1,0.1,0.2,0.1,0.3,0c0.1-0.1,0.1-0.2,0-0.3c-0.2-0.2-0.4-0.4-0.5-0.6
				c0-0.1-0.2-0.1-0.3-0.1C31.6,20.4,31.5,20.5,31.6,20.6L31.6,20.6z"/>
			<path class="st7" d="M28.8,20.7c0-0.2-0.1-0.3-0.1-0.5c0-0.1-0.1-0.2-0.2-0.2c-0.1,0-0.2,0.1-0.2,0.2c0,0.2,0.1,0.3,0.1,0.5
				c0,0.1,0.1,0.2,0.2,0.1C28.8,20.9,28.8,20.8,28.8,20.7L28.8,20.7z"/>
			<path class="st7" d="M30,18.4c-0.1-0.1-0.1-0.2-0.1-0.3c0-0.1-0.1-0.2-0.2-0.1c-0.1,0-0.2,0.1-0.1,0.2c0.1,0.1,0,0.3,0.2,0.5
				c0.1,0.1,0.2,0.1,0.3,0C30,18.6,30.1,18.5,30,18.4L30,18.4z"/>
			<path class="st7" d="M31.8,17c-0.1-0.2-0.2-0.3-0.2-0.5c0-0.1-0.1-0.2-0.2-0.2c-0.1,0-0.2,0.1-0.2,0.2c0,0.2,0.1,0.4,0.2,0.6
				c0,0.1,0.1,0.1,0.2,0.1C31.7,17.2,31.8,17.1,31.8,17L31.8,17z"/>
			<path class="st7" d="M34.1,18.7c0.1,0.2,0.3,0.4,0.5,0.6c0.1,0.1,0.2,0,0.3,0c0.1-0.1,0-0.2,0-0.3c-0.2-0.1-0.3-0.2-0.4-0.4
				c-0.1-0.1-0.2-0.1-0.3-0.1C34.1,18.5,34.1,18.6,34.1,18.7L34.1,18.7z"/>
			<path class="st7" d="M36.2,17.9c0,0-0.1,0.1-0.1,0.1l0,0c0,0,0,0,0,0.1l0,0.1c0,0.2-0.1,0.5,0.1,0.7c0.1,0.1,0.2,0.1,0.3,0
				c0.1-0.1,0.1-0.2,0-0.3c-0.1-0.1,0-0.2,0-0.3l0-0.2l0,0.1l0.3-0.5c-0.1,0.2-0.2,0.3-0.2,0.5c0.1-0.1,0.1-0.2,0-0.3
				C36.3,17.8,36.2,17.8,36.2,17.9L36.2,17.9z"/>
			<path class="st7" d="M38.2,16.7c0,0.3,0.1,0.5,0.2,0.7c0.1,0.1,0.2,0.1,0.3,0.1c0.1-0.1,0.1-0.2,0.1-0.3
				c-0.1-0.2-0.2-0.3-0.2-0.5c0-0.1-0.1-0.2-0.2-0.2S38.2,16.6,38.2,16.7L38.2,16.7z"/>
			<path class="st7" d="M37.5,14.7C37.5,14.7,37.5,14.7,37.5,14.7l-0.2-0.2c0,0,0,0,0,0l0,0.1c0-0.1-0.1-0.2,0-0.3
				c0-0.1-0.1-0.2-0.2-0.2c-0.1,0-0.2,0.1-0.2,0.2c0,0.1,0,0.2,0.1,0.2l0.1,0.2L37,14.7l0.1,0.2c0,0,0,0,0,0
				c0.1,0.1,0.1,0.1,0.2,0.2c0.1,0.1,0.2,0.1,0.3,0C37.6,14.9,37.6,14.8,37.5,14.7L37.5,14.7z"/>
			<path class="st7" d="M39,13.9c0,0,0-0.1-0.1-0.1l-0.1-0.1l0,0l0,0c0-0.2,0-0.3-0.1-0.4c0-0.1-0.1-0.2-0.2-0.2
				c-0.1,0-0.2,0.1-0.2,0.2c0,0.1,0.1,0.2,0.1,0.4l0.1,0.2c0,0,0.1,0.1,0.1,0.1l0,0c0,0,0,0.1,0.1,0.1c0.1,0.1,0.2,0.1,0.3,0
				C39,14.1,39,14,39,13.9L39,13.9z"/>
			<path class="st7" d="M40.6,15.7C40.6,15.7,40.6,15.7,40.6,15.7l-0.1,0.1c0,0,0,0.1,0,0.1l0,0.1c-0.1,0.2,0,0.5,0.1,0.7
				c0,0.1,0.1,0.1,0.2,0.1c0.1,0,0.1-0.1,0.1-0.2c0-0.1-0.1-0.3-0.1-0.4l0-0.2l0,0.1l0.3-0.6c-0.1,0.2-0.2,0.3-0.3,0.5
				c0.1-0.1,0.1-0.2,0-0.3C40.8,15.6,40.7,15.6,40.6,15.7L40.6,15.7z"/>
			<path class="st7" d="M41.5,13.2c-0.1-0.2-0.1-0.5-0.1-0.7c0-0.1-0.1-0.2-0.2-0.2c-0.1,0-0.2,0.1-0.2,0.2c0,0.3,0,0.6,0.1,0.8
				c0,0.1,0.1,0.1,0.2,0.1C41.5,13.4,41.6,13.3,41.5,13.2L41.5,13.2z"/>
			<path class="st7" d="M43.5,13.2c0.1-0.3,0-0.5,0.1-0.8c0-0.1-0.1-0.2-0.2-0.2s-0.2,0.1-0.2,0.2c0,0.3,0,0.5,0,0.8
				c0,0.1,0.1,0.2,0.2,0.2C43.4,13.4,43.5,13.3,43.5,13.2L43.5,13.2z"/>
			<path class="st7" d="M48.2,14c0.3-0.2,0.4-0.6,0.4-0.9c0-0.1,0-0.2-0.1-0.2c-0.1,0-0.2,0-0.2,0.1c-0.1,0.3-0.2,0.6-0.4,0.8
				c-0.1,0.1-0.1,0.2,0,0.3C48,14.1,48.1,14.1,48.2,14L48.2,14z"/>
			<path class="st7" d="M50.5,15.2c0.3-0.2,0.6-0.5,0.6-0.9c0-0.1-0.1-0.2-0.2-0.2c-0.1,0-0.2,0.1-0.2,0.2c0,0.3-0.3,0.5-0.4,0.6
				c-0.1,0.1-0.1,0.2,0,0.3C50.3,15.3,50.4,15.3,50.5,15.2L50.5,15.2z"/>
			<path class="st7" d="M52.6,16.1c0.2-0.1,0.4-0.3,0.5-0.5c0.1-0.1,0.1-0.2,0.1-0.3c-0.1-0.1-0.2-0.1-0.3-0.1
				c-0.2,0.1-0.2,0.4-0.5,0.4c-0.1,0-0.1,0.1-0.1,0.2C52.3,16.1,52.5,16.1,52.6,16.1L52.6,16.1z"/>
			<path class="st7" d="M53.1,17.6c0.3-0.1,0.6-0.3,0.7-0.5c0.1-0.1,0-0.2-0.1-0.3c-0.1,0-0.2,0-0.3,0.1c-0.1,0.2-0.3,0.3-0.6,0.4
				c-0.1,0-0.1,0.1-0.1,0.2C52.9,17.6,53.1,17.6,53.1,17.6L53.1,17.6z"/>
			<path class="st7" d="M46.8,16.5c0,0.2,0,0.4-0.2,0.6c-0.1,0.1-0.1,0.2,0,0.3c0.1,0.1,0.2,0,0.3,0c0.2-0.2,0.2-0.5,0.3-0.8
				c0-0.1,0-0.2-0.2-0.2C46.9,16.3,46.8,16.4,46.8,16.5L46.8,16.5z"/>
			<path class="st7" d="M48.8,17.7c0,0.2-0.1,0.3-0.2,0.5c-0.1,0.1,0,0.2,0.1,0.3c0.1,0,0.2,0,0.3-0.1c0.1-0.2,0.2-0.4,0.2-0.7
				c0-0.1-0.1-0.2-0.2-0.2S48.8,17.6,48.8,17.7L48.8,17.7z"/>
			<path class="st7" d="M50.6,18.6c-0.1,0.1-0.1,0.2-0.1,0.3c0,0.1-0.1,0.1-0.1,0.2c-0.1,0.1,0,0.2,0,0.3c0.1,0.1,0.2,0,0.3,0
				c0.2-0.1,0.2-0.4,0.3-0.5c0.1-0.1,0-0.2,0-0.3C50.8,18.5,50.7,18.5,50.6,18.6L50.6,18.6z"/>
			<path class="st7" d="M55.6,20.4c0.3-0.1,0.5-0.2,0.7-0.4c0.1-0.1,0.1-0.2,0-0.3c-0.1-0.1-0.2-0.1-0.3,0c-0.1,0.2-0.3,0.2-0.5,0.3
				c-0.1,0-0.2,0.1-0.1,0.2C55.4,20.4,55.5,20.5,55.6,20.4L55.6,20.4z"/>
			<path class="st7" d="M57.3,22.6c0.2-0.1,0.3-0.3,0.3-0.6c0-0.1,0-0.2-0.1-0.2c-0.1,0-0.2,0-0.2,0.1c0,0.2-0.1,0.3-0.2,0.4
				c-0.1,0.1-0.1,0.2,0,0.3C57.1,22.6,57.2,22.6,57.3,22.6L57.3,22.6z"/>
			<path class="st7" d="M55.2,23.1c-0.1,0.1-0.2,0.3-0.4,0.3c-0.1,0-0.2,0.1-0.1,0.2c0,0.1,0.1,0.2,0.2,0.1c0.2,0,0.4-0.2,0.6-0.4
				c0.1-0.1,0.1-0.2,0-0.3C55.4,23.1,55.3,23.1,55.2,23.1L55.2,23.1z"/>
			<path class="st7" d="M56.2,24.4c-0.1,0.2-0.2,0.4-0.3,0.5c-0.1,0.1-0.1,0.2,0,0.3c0.1,0.1,0.2,0.1,0.3,0c0.2-0.1,0.4-0.4,0.5-0.6
				c0-0.1,0-0.2-0.1-0.2C56.4,24.2,56.3,24.3,56.2,24.4L56.2,24.4z"/>
			<path class="st7" d="M58.4,24.6c0.3-0.2,0.4-0.5,0.4-0.8c0-0.1-0.1-0.2-0.2-0.2c-0.1,0-0.2,0.1-0.2,0.2c-0.1,0.2-0.1,0.4-0.3,0.5
				c-0.1,0.1-0.1,0.2,0,0.3C58.3,24.7,58.4,24.7,58.4,24.6L58.4,24.6z"/>
			<path class="st7" d="M56.9,26.2c-0.2,0.1-0.3,0.3-0.5,0.4c-0.1,0-0.2,0.1-0.2,0.2c0,0.1,0.1,0.2,0.2,0.2c0.3,0,0.5-0.3,0.7-0.5
				c0.1-0.1,0.1-0.2,0-0.3C57.1,26.1,56.9,26.1,56.9,26.2L56.9,26.2z"/>
			<path class="st7" d="M58.8,26.1c0.1,0,0.1,0,0.1,0l0,0c0,0,0.1,0,0.1,0l0.1-0.1c0.1-0.1,0.2-0.2,0.2-0.4c0-0.1,0-0.2-0.1-0.2
				c-0.1,0-0.2,0-0.2,0.1c0,0,0,0.1-0.1,0.1l-0.1,0.1l0.1,0l0.2-0.1c-0.1,0.1-0.3,0.1-0.4,0.2c-0.1,0-0.2,0.1-0.1,0.2
				C58.6,26,58.7,26.1,58.8,26.1L58.8,26.1z"/>
			<path class="st7" d="M59.4,27.2c0.3,0,0.7-0.1,0.7-0.4c0-0.1,0-0.2-0.1-0.2c-0.1,0-0.2,0-0.2,0.1c0,0.2-0.2,0.2-0.4,0.2
				c-0.1,0-0.2,0.1-0.2,0.2C59.2,27.1,59.3,27.2,59.4,27.2L59.4,27.2z"/>
			<path class="st7" d="M57.3,27.2c-0.1,0.2-0.2,0.4-0.4,0.4c-0.1,0.1-0.1,0.2-0.1,0.3c0,0.1,0.2,0.1,0.3,0.1
				c0.3-0.1,0.4-0.4,0.5-0.6c0-0.1,0-0.2-0.1-0.2C57.5,27,57.4,27.1,57.3,27.2L57.3,27.2z"/>
			<path class="st7" d="M57.4,29c0,0.1-0.1,0.1-0.2,0.2c-0.1,0.1-0.1,0.2,0,0.3c0.1,0.1,0.2,0.1,0.3,0c0.1-0.1,0.1-0.2,0.2-0.2
				c0.1-0.1,0-0.2-0.1-0.3C57.6,28.9,57.5,28.9,57.4,29L57.4,29z"/>
		</g>
		<g>
			<path class="st8" d="M26.8,26.7c0,0-1.4-0.5-1.8-1.5c-0.4-1-0.1-1.4-0.1-1.8c0-0.4,0.1-0.4-0.3-0.7c-0.4-0.2-1.2-0.4-1.3-0.7
				c0-0.3,0-0.5,0-0.5s0.3-0.1,0.5,0c0.1,0.1,0.1,0.1,0.4,0.1c0.2,0,0.3-0.2,0.5,0c0.2,0.2,0.1,0.3,0.4,0.4c0.2,0.1,0.2,0,0.4-0.1
				c0.2-0.1,0.3-0.4,0.6-0.1c0.3,0.3,0.3,0.4,0.4,0.7c0.1,0.3,0,0.3,0.3,0.5c0.3,0.1,0.8,0.1,0.9,0.6c0.1,0.5,0,0.8,0.2,1
				c0.1,0.2,0.5,0.4,0.5,0.9c0,0.5-0.1,0.7-0.1,1c0,0.3,0.3,0.5-0.1,0.5c-0.4,0-0.8,0-1,0C26.9,26.9,26.8,26.7,26.8,26.7z"/>
		</g>
		<g>
			<path class="st8" d="M33.1,18c0,0-1-0.2-1.2-0.6c-0.1-0.3-0.1-0.7,0-0.9c0.1-0.2,0.1-0.2,0.3-0.6c0.2-0.3,0.3-0.6,0.2-0.8
				c-0.1-0.2-0.1-0.8,0.1-1.1c0.2-0.3,0.4-0.5,0.6-0.7c0.2-0.2,0.2-0.2,0.2-0.4s-0.1-0.5-0.2-0.7c-0.1-0.2-0.5-0.4-0.6-0.7
				c0-0.2-0.1-0.3,0-0.5c0.1-0.1,0.2-0.3,0.3-0.1c0.1,0.1,0.6,0.4,0.6,0.6c0,0,0.7,0.1,0.7,0.4c0,0,0.6-0.2,0.6,0.3
				c0,0,0.3,0.3,0.2,0.6c-0.1,0.3-0.3,0.6-0.2,0.7c0.1,0.2,0.1,0.3,0.3,0.5c0.1,0.2,0.4,0,0.4,0.5c0,0.4,0.2,1,0,1.2
				c-0.2,0.2-0.3,0.2-0.3,0.6c0,0.3,0.2,0.4,0.3,0.7c0,0.2,0.1,0.6-0.1,0.7C35,18,34.8,18,34.7,17.9c0,0-0.5,0.8-0.9,0.6
				C33.3,18.3,33.3,18.1,33.1,18z"/>
		</g>
		<g>
			<path class="st8" d="M42.5,13.7c0,0,0.5-0.4,0.8-0.6c0.3-0.1,0.7,0,1-0.3c0.3-0.3,0.3-0.5,0.6-0.7c0.3-0.2,0.2-0.1,0.8-0.4
				c0.6-0.2,0.6-0.1,0.9-0.4c0.3-0.3,0.7-0.9,1.1-1.2c0,0-0.1-0.4,0.1-0.7c0.2-0.3,0.3-0.1,0.5-0.4c0.2-0.3,0.3-0.3,0.3-0.5
				c0-0.2,0.3-0.7,0.5-0.2c0.2,0.5,0.7,1.2,0,1.7c0,0,0,1-0.5,1.1c0,0,0.1,1.3-0.8,1.4c0,0,0,0.7-0.4,0.7c-0.5,0.1-0.4-0.1-0.7,0.1
				c-0.2,0.2,0,0.7-0.3,0.9c-0.3,0.2-0.5,0.2-0.7,0.4c-0.2,0.2,0.4,0.7-0.4,1c-0.7,0.3-0.9,0.6-1.4,0.5c-0.5-0.1-0.5-0.2-0.7-0.3
				c-0.2-0.1-0.6,0-0.7-0.1c-0.2-0.1-0.5-0.4-0.5-0.4S42.9,15.5,42.5,13.7z"/>
		</g>
		<g>
			<path class="st8" d="M52.6,17.2c0,0,1,0.1,1.3,0.2c0.3,0,0.3,0.1,0.7,0c0.4-0.1,0.3-0.9,1.2-0.3c0.2,0.1,0.6,0.1,0.7-0.1
				c0.1-0.2,0-0.2,0.3-0.4c0.3-0.2,0.3-0.2,0.5-0.6c0.2-0.3,0.4-0.4,0.5-0.7c0-0.3-0.1-0.2,0.1-0.4c0.2-0.2,0.2,0.1,0.3,0.4
				c0,0.3,0.2,0.5,0,0.8c-0.2,0.3-0.1,0.4-0.3,0.7c-0.1,0.3,0,0.7-0.3,1C57,18,57,17.8,56.7,18.1c-0.3,0.2-0.5,0.2-0.5,0.6
				c0,0.4,0,0.7-0.3,0.9c-0.3,0.3-0.4,0.3-0.7,0.4c-0.3,0-0.6,0-0.7,0.1c0,0-0.2,0.9-0.8,0.7c-0.6-0.2-0.9-0.6-1-0.8
				c-0.1-0.2,0-0.3-0.2-0.4c-0.1-0.1-0.3,0-0.5-0.1c-0.2,0-0.8-0.5-0.7-0.7c0.1-0.3,0.1-0.2,0.2-0.4C51.7,18.2,52.2,17.9,52.6,17.2z
				"/>
		</g>
		<g>
			<path class="st8" d="M59.2,27.5c0,0,0.7,0.6,0.8,0.8c0.1,0.3,0.3,0.7,0.3,1c0,0.3,0,0.7,0,0.8c0,0,1,0.7,0.9,1.8
				c0,0,1.1,0.7,1.1,1.4c0,0,0,0.5,0.3,0.7c0.3,0.2,0.4,0,0.6,0.3c0,0,0.2,0.3,0.9,0.4c0,0,0.4,0.4,0,0.4c-0.5,0-1.1,0.3-1.4,0
				c-0.3-0.3-1.3-0.2-1.4-1c-0.1-0.8-0.6-1.1-0.6-1.1s-0.1,0.1-0.7-0.1c-0.5-0.2-1.4-0.1-1.4-1.1c0,0-0.1-0.8-0.6-1
				c-0.4-0.1-1-0.8-0.7-1.4c0.2-0.6,0.4-0.6,0.2-0.9c-0.1-0.3-0.2-0.5-0.2-0.5s0.7-0.1,1-0.7C58.4,27.6,58.8,27.9,59.2,27.5z"/>
		</g>
		<path class="st4" d="M58.5,30.5c0.1,0,0.2,0.1,0.2,0.1c0,0,0,0,0,0c0.1,0,0.2,0,0.2-0.1c0-0.1,0-0.2-0.1-0.2c-0.1,0-0.2,0-0.2-0.1
			c-0.1,0-0.2,0-0.2,0.1C58.3,30.3,58.4,30.5,58.5,30.5L58.5,30.5z"/>
		<path class="st4" d="M59.7,31.5c0,0.1,0.1,0.2,0.2,0.2c0.1,0,0.2-0.1,0.2-0.2c0-0.1-0.1-0.2-0.2-0.2
			C59.8,31.3,59.7,31.4,59.7,31.5L59.7,31.5z"/>
		<path class="st4" d="M59.8,32.4c0.1,0,0.1,0.1,0.2,0.1c0.1,0,0.2,0,0.2-0.1c0-0.1,0-0.2-0.1-0.2c-0.1,0-0.1,0-0.1-0.1
			c-0.1-0.1-0.2,0-0.3,0.1C59.7,32.3,59.8,32.4,59.8,32.4L59.8,32.4z"/>
		<path class="st4" d="M61.4,33.6c0,0.1,0.1,0.2,0.2,0.2c0.1,0,0.2-0.1,0.2-0.2c0-0.1-0.1-0.2-0.2-0.2
			C61.5,33.4,61.4,33.5,61.4,33.6L61.4,33.6z"/>
		<path class="st4" d="M62.3,34.6c0,0.1,0.1,0.2,0.2,0.2s0.2-0.1,0.2-0.2c0-0.1-0.1-0.2-0.2-0.2S62.3,34.5,62.3,34.6L62.3,34.6z"/>
		<path class="st4" d="M59.3,28.6c0,0.1,0.1,0.2,0.2,0.2c0.1,0,0.2-0.1,0.2-0.2c0-0.1-0.1-0.2-0.2-0.2
			C59.4,28.5,59.3,28.5,59.3,28.6L59.3,28.6z"/>
		<path class="st4" d="M59.7,29.2c0,0-0.1,0.1-0.1,0.1c-0.1,0.1-0.1,0.2,0,0.3c0.1,0.1,0.2,0.1,0.3,0c0.1,0,0.1-0.1,0.2-0.2
			c0.1-0.1,0.1-0.2,0-0.3C59.9,29.1,59.7,29.1,59.7,29.2L59.7,29.2z"/>
		<path class="st4" d="M52.7,17.9c0,0-0.1,0-0.1,0c-0.1,0-0.2,0.1-0.2,0.2c0,0.1,0.1,0.2,0.2,0.2c0,0,0.1,0,0.1,0
			c0.1,0,0.2-0.1,0.2-0.2C52.9,18,52.8,17.9,52.7,17.9L52.7,17.9z"/>
		<path class="st4" d="M52.5,19.1c0,0.1,0.1,0.2,0.2,0.3c0,0,0,0,0,0c0.1,0.1,0.2,0.1,0.3,0c0.1-0.1,0.1-0.2,0-0.3
			c0,0-0.1-0.1-0.1-0.1c0,0,0,0,0.1,0c0-0.1-0.1-0.2-0.2-0.1C52.5,18.9,52.5,19,52.5,19.1L52.5,19.1z"/>
		<path class="st4" d="M53.5,19.2c0,0.1,0.1,0.2,0.2,0.2c0.1,0,0.2-0.1,0.2-0.2c0-0.1-0.1-0.2-0.2-0.2C53.5,19,53.5,19.1,53.5,19.2
			L53.5,19.2z"/>
		<path class="st4" d="M54.5,19c0,0,0.1-0.1,0.1-0.1c0.1-0.1,0.1-0.2,0-0.3c-0.1-0.1-0.2-0.1-0.3,0c0,0-0.1,0.1-0.1,0.1
			c-0.1,0.1-0.1,0.2,0,0.3C54.3,19.1,54.5,19.1,54.5,19L54.5,19z"/>
		<path class="st4" d="M54.3,19.6c0,0.1,0.1,0.2,0.2,0.2c0.1,0,0.2-0.1,0.2-0.2c0-0.1-0.1-0.2-0.2-0.2
			C54.4,19.5,54.3,19.5,54.3,19.6L54.3,19.6z"/>
		<path class="st4" d="M55.7,17.5c0,0.1,0.1,0.2,0.2,0.2c0.1,0,0.2-0.1,0.2-0.2c0-0.1-0.1-0.2-0.2-0.2
			C55.8,17.3,55.7,17.4,55.7,17.5L55.7,17.5z"/>
		<path class="st4" d="M56.6,17.2c0,0.1,0.1,0.2,0.2,0.2c0.1,0,0.2-0.1,0.2-0.2c0-0.1-0.1-0.2-0.2-0.2C56.7,17,56.6,17.1,56.6,17.2
			L56.6,17.2z"/>
		<path class="st4" d="M57.4,15.9c0,0.1,0.1,0.2,0.2,0.2c0.1,0,0.2-0.1,0.2-0.2c0-0.1-0.1-0.2-0.2-0.2
			C57.5,15.7,57.4,15.8,57.4,15.9L57.4,15.9z"/>
		<path class="st4" d="M45.5,13.4c0,0.1,0.1,0.2,0.2,0.2c0.1,0,0.2-0.1,0.2-0.2c0-0.1-0.1-0.2-0.2-0.2
			C45.6,13.3,45.5,13.3,45.5,13.4L45.5,13.4z"/>
		<path class="st4" d="M43.6,14.3c0,0.1,0.1,0.2,0.2,0.2c0.1,0,0.2-0.1,0.2-0.2c0-0.1-0.1-0.2-0.2-0.2
			C43.7,14.1,43.6,14.2,43.6,14.3L43.6,14.3z"/>
		<path class="st4" d="M43.5,14.7c0,0.1,0.1,0.2,0.2,0.2c0.1,0,0.2-0.1,0.2-0.2c0-0.1-0.1-0.2-0.2-0.2
			C43.6,14.5,43.5,14.6,43.5,14.7L43.5,14.7z"/>
		<path class="st4" d="M43.5,15.3c0,0.1,0.1,0.2,0.2,0.2c0.1,0,0.2-0.1,0.2-0.2c0-0.1-0.1-0.2-0.2-0.2
			C43.6,15.1,43.5,15.2,43.5,15.3L43.5,15.3z"/>
		<path class="st4" d="M44,15.3c0,0.1,0.1,0.2,0.2,0.2c0.1,0,0.2-0.1,0.2-0.2c0-0.1-0.1-0.2-0.2-0.2C44.1,15.1,44,15.2,44,15.3
			L44,15.3z"/>
		<path class="st4" d="M44.3,14c-0.1,0.1-0.1,0.2-0.1,0.3c0,0.1,0.1,0.2,0.2,0.2c0.1,0,0.2-0.1,0.2-0.2c0-0.1,0-0.1,0-0.2
			c0-0.1,0-0.2-0.1-0.2C44.5,13.8,44.4,13.9,44.3,14L44.3,14z"/>
		<path class="st4" d="M44.8,14.8c0,0.1,0.1,0.2,0.2,0.2c0.1,0,0.2-0.1,0.2-0.2c0-0.1-0.1-0.2-0.2-0.2
			C44.8,14.7,44.8,14.7,44.8,14.8L44.8,14.8z"/>
		<path class="st4" d="M45.3,14.2c0,0.1,0.1,0.2,0.2,0.2c0.1,0,0.2-0.1,0.2-0.2c0-0.1-0.1-0.2-0.2-0.2C45.4,14,45.3,14.1,45.3,14.2
			L45.3,14.2z"/>
		<path class="st4" d="M47,12.2c0,0.1,0.1,0.2,0.2,0.2s0.2-0.1,0.2-0.2c0-0.1-0.1-0.2-0.2-0.2S47,12.1,47,12.2L47,12.2z"/>
		<path class="st4" d="M46,12.5c0,0.1,0.1,0.2,0.2,0.2c0.1,0,0.2-0.1,0.2-0.2c0-0.1-0.1-0.2-0.2-0.2C46.1,12.3,46,12.4,46,12.5
			L46,12.5z"/>
		<path class="st4" d="M47.7,11.5c0,0.1,0.1,0.2,0.2,0.2c0.1,0,0.2-0.1,0.2-0.2c0-0.1-0.1-0.2-0.2-0.2
			C47.8,11.3,47.7,11.4,47.7,11.5L47.7,11.5z"/>
		<path class="st4" d="M47.5,10.6c0,0.1,0.1,0.2,0.2,0.2s0.2-0.1,0.2-0.2c0-0.1-0.1-0.2-0.2-0.2S47.5,10.5,47.5,10.6L47.5,10.6z"/>
		<path class="st4" d="M48.5,9.5c0,0.1,0.1,0.2,0.2,0.2c0.1,0,0.2-0.1,0.2-0.2c0-0.1-0.1-0.2-0.2-0.2C48.6,9.3,48.5,9.4,48.5,9.5
			L48.5,9.5z"/>
		<path class="st4" d="M33.4,14c0,0.1,0.1,0.2,0.2,0.2c0.1,0,0.2-0.1,0.2-0.2c0-0.1-0.1-0.2-0.2-0.2C33.5,13.8,33.4,13.9,33.4,14
			L33.4,14z"/>
		<path class="st4" d="M33.6,15.1c0,0.1,0.1,0.2,0.2,0.2c0.1,0,0.2-0.1,0.2-0.2c0-0.1-0.1-0.2-0.2-0.2C33.7,14.9,33.6,15,33.6,15.1
			L33.6,15.1z"/>
		<path class="st4" d="M33.1,16C33.1,16,33,16.1,33.1,16c-0.2,0.2-0.2,0.3-0.1,0.4c0.1,0.1,0.2,0.1,0.3,0c0,0,0.1-0.1,0.1-0.1
			c0.1-0.1,0.1-0.2,0-0.3C33.3,15.9,33.2,15.9,33.1,16L33.1,16z"/>
		<path class="st4" d="M33.4,17c0,0.1,0.1,0.2,0.2,0.2c0.1,0,0.2-0.1,0.2-0.2c0-0.1-0.1-0.2-0.2-0.2C33.4,16.8,33.4,16.9,33.4,17
			L33.4,17z"/>
		<path class="st4" d="M34,16.8c0,0.1,0,0.1,0,0.2c0,0.1,0.1,0.2,0.2,0.2c0.1,0,0.2-0.1,0.2-0.2c0-0.1-0.1-0.1-0.1-0.2
			c0-0.1-0.1-0.2-0.2-0.1C34,16.6,33.9,16.7,34,16.8L34,16.8z"/>
		<path class="st4" d="M33.9,17.8c0,0.1,0.1,0.2,0.2,0.2c0.1,0,0.2-0.1,0.2-0.2c0-0.1-0.1-0.2-0.2-0.2C34,17.6,33.9,17.7,33.9,17.8
			L33.9,17.8z"/>
		<path class="st4" d="M33.8,16.1c0,0.1,0.1,0.2,0.2,0.2c0.1,0,0.2-0.1,0.2-0.2c0-0.1-0.1-0.2-0.2-0.2C33.9,15.9,33.8,16,33.8,16.1
			L33.8,16.1z"/>
		<path class="st4" d="M34.6,16C34.6,16,34.7,16,34.6,16c0.2-0.2,0.2-0.3,0.1-0.4c-0.1-0.1-0.2-0.1-0.3,0c0,0,0,0.1-0.1,0.1
			c-0.1,0.1-0.1,0.2,0,0.3C34.4,16.1,34.5,16.1,34.6,16L34.6,16z"/>
		<path class="st4" d="M34.4,14.8c0,0.1,0.1,0.2,0.2,0.2c0.1,0,0.2-0.1,0.2-0.2c0-0.1-0.1-0.2-0.2-0.2
			C34.5,14.7,34.4,14.7,34.4,14.8L34.4,14.8z"/>
		<path class="st4" d="M33.7,12.5c0,0.1,0.1,0.2,0.2,0.2c0.1,0,0.2-0.1,0.2-0.2c0-0.1-0.1-0.2-0.2-0.2
			C33.8,12.3,33.7,12.4,33.7,12.5L33.7,12.5z"/>
		<path class="st4" d="M32,16.6c0.1,0.1,0.2,0.2,0.3,0.3c0,0,0,0,0,0c0.1,0.1,0.2,0,0.3-0.1c0.1-0.1,0-0.2-0.1-0.3
			c-0.1,0-0.1-0.1-0.2-0.2h0c-0.1-0.1-0.2-0.1-0.3,0C32,16.4,32,16.5,32,16.6L32,16.6z"/>
		<path class="st4" d="M26.7,24.7c0,0.1,0.1,0.2,0.2,0.2c0.1,0,0.2-0.1,0.2-0.2c0-0.1-0.1-0.2-0.2-0.2
			C26.8,24.5,26.7,24.6,26.7,24.7L26.7,24.7z"/>
		<path class="st4" d="M25.7,23.4c-0.1,0.1-0.1,0.2-0.2,0.3c0,0.1,0,0.2,0.1,0.2c0.1,0,0.2,0,0.2-0.1c0-0.1,0-0.1,0.1-0.1
			c0.1-0.1,0.1-0.2,0-0.3C25.9,23.4,25.8,23.4,25.7,23.4L25.7,23.4z"/>
		<path class="st4" d="M25.8,24.6c0,0.1,0.1,0.2,0.2,0.2c0.1,0,0.2-0.1,0.2-0.2c0-0.1-0.1-0.2-0.2-0.2
			C25.8,24.4,25.8,24.5,25.8,24.6L25.8,24.6z"/>
		<path class="st4" d="M27,26c0,0,0.1,0,0.1,0l0,0c0,0,0.1,0,0.1-0.1l0,0c0.1,0,0.1,0,0.2-0.1c0.1-0.1,0.1-0.2,0-0.3
			c-0.1-0.1-0.2-0.1-0.3,0c0,0-0.1,0.1-0.1,0.1l-0.1,0.1l0.1-0.1l0.3-0.2c-0.1,0.1-0.2,0.1-0.4,0.2c-0.1,0-0.2,0.1-0.2,0.2
			C26.8,25.9,26.9,26,27,26L27,26z"/>
		<path class="st4" d="M27.2,25c0,0.1,0.1,0.2,0.2,0.2c0.1,0,0.2-0.1,0.2-0.2c0-0.1-0.1-0.2-0.2-0.2C27.3,24.8,27.2,24.9,27.2,25
			L27.2,25z"/>
		<path class="st4" d="M27.2,26.5c0,0.1,0.1,0.2,0.2,0.2c0.1,0,0.2-0.1,0.2-0.2c0-0.1-0.1-0.2-0.2-0.2
			C27.2,26.3,27.2,26.4,27.2,26.5L27.2,26.5z"/>
		<path class="st4" d="M25.2,22.6c0,0.1,0.1,0.2,0.2,0.2c0.1,0,0.2-0.1,0.2-0.2c0-0.1-0.1-0.2-0.2-0.2
			C25.3,22.4,25.2,22.5,25.2,22.6L25.2,22.6z"/>
		<path class="st4" d="M23.9,22.2c0,0.1,0.1,0.2,0.2,0.2c0.1,0,0.2-0.1,0.2-0.2c0-0.1-0.1-0.2-0.2-0.2C24,22,23.9,22.1,23.9,22.2
			L23.9,22.2z"/>
		<path class="st4" d="M25.1,23.2c0,0.1,0.1,0.1,0.1,0.1c0.1,0,0.1,0,0.1-0.1c0-0.1,0-0.1-0.1-0.1C25.2,23.1,25.1,23.2,25.1,23.2
			L25.1,23.2z"/>
		<path class="st4" d="M26.5,23.6c0,0.1,0,0.1,0.1,0.1c0.1,0,0.1-0.1,0.1-0.1c0-0.1-0.1-0.1-0.1-0.1C26.5,23.5,26.5,23.5,26.5,23.6
			L26.5,23.6z"/>
		<path class="st4" d="M25.9,25.7c0,0.1,0,0.1,0.1,0.1c0.1,0,0.1,0,0.1-0.1c0-0.1-0.1-0.1-0.1-0.1C26,25.6,25.9,25.6,25.9,25.7
			L25.9,25.7z"/>
		<path class="st4" d="M27.7,26.1c0,0.1,0,0.1,0.1,0.1c0.1,0,0.1,0,0.1-0.1c0-0.1-0.1-0.1-0.1-0.1C27.7,26,27.7,26,27.7,26.1
			L27.7,26.1z"/>
		<path class="st4" d="M23.5,22c0,0.1,0,0.1,0.1,0.1c0.1,0,0.1,0,0.1-0.1c0-0.1,0-0.1-0.1-0.1C23.6,21.9,23.5,21.9,23.5,22L23.5,22z
			"/>
		<path class="st4" d="M33.1,14.7c0,0.1,0.1,0.1,0.1,0.1c0.1,0,0.1,0,0.1-0.1c0-0.1-0.1-0.1-0.1-0.1C33.2,14.6,33.1,14.7,33.1,14.7
			L33.1,14.7z"/>
		<path class="st4" d="M34.2,13.4c0,0.1,0.1,0.1,0.1,0.1c0.1,0,0.1-0.1,0.1-0.1c0-0.1,0-0.1-0.1-0.1C34.2,13.3,34.2,13.3,34.2,13.4
			L34.2,13.4z"/>
		<path class="st4" d="M32.7,11.5c0,0.1,0,0.1,0.1,0.1c0.1,0,0.1,0,0.1-0.1c0-0.1-0.1-0.1-0.1-0.1C32.7,11.4,32.7,11.4,32.7,11.5
			L32.7,11.5z"/>
		<path class="st4" d="M32.8,15.3c0,0.1,0,0.1,0.1,0.1c0.1,0,0.1,0,0.1-0.1c0-0.1-0.1-0.1-0.1-0.1C32.9,15.2,32.8,15.2,32.8,15.3
			L32.8,15.3z"/>
		<path class="st4" d="M48.5,8.9c0,0.1,0,0.1,0.1,0.1c0.1,0,0.1-0.1,0.1-0.1c0-0.1,0-0.1-0.1-0.1C48.6,8.8,48.5,8.8,48.5,8.9
			L48.5,8.9z"/>
		<path class="st4" d="M48.4,10.3c0,0.1,0,0.1,0.1,0.1c0.1,0,0.1,0,0.1-0.1c0-0.1-0.1-0.1-0.1-0.1C48.4,10.2,48.4,10.2,48.4,10.3
			L48.4,10.3z"/>
		<path class="st4" d="M44.3,13.2c0,0.1,0.1,0.1,0.1,0.1c0.1,0,0.1,0,0.1-0.1s0-0.1-0.1-0.1C44.3,13.1,44.3,13.1,44.3,13.2
			L44.3,13.2z"/>
		<path class="st4" d="M44.9,13c0,0.1,0,0.1,0.1,0.1c0.1,0,0.1,0,0.1-0.1c0-0.1-0.1-0.1-0.1-0.1C45,12.9,44.9,13,44.9,13L44.9,13z"
			/>
		<path class="st4" d="M55.3,18c0,0.1,0.1,0.1,0.1,0.1c0.1,0,0.1,0,0.1-0.1c0-0.1,0-0.1-0.1-0.1C55.4,17.9,55.3,18,55.3,18L55.3,18z
			"/>
		<path class="st4" d="M53.9,17.9c0,0.1,0,0.1,0.1,0.1c0.1,0,0.1,0,0.1-0.1c0-0.1-0.1-0.1-0.1-0.1C54,17.8,53.9,17.8,53.9,17.9
			L53.9,17.9z"/>
		<path class="st4" d="M55.6,18.7c0,0.1,0.1,0.1,0.1,0.1c0.1,0,0.1,0,0.1-0.1c0-0.1-0.1-0.1-0.1-0.1C55.7,18.6,55.6,18.6,55.6,18.7
			L55.6,18.7z"/>
		<path class="st4" d="M58.2,29.1c0,0.1,0,0.1,0.1,0.1c0.1,0,0.1,0,0.1-0.1c0-0.1,0-0.1-0.1-0.1C58.2,29,58.2,29.1,58.2,29.1
			L58.2,29.1z"/>
		<path class="st4" d="M59.6,30.7c0,0.1,0.1,0.1,0.1,0.1c0.1,0,0.1,0,0.1-0.1c0-0.1-0.1-0.1-0.1-0.1C59.6,30.6,59.6,30.7,59.6,30.7
			L59.6,30.7z"/>
		<path class="st4" d="M60.3,31.1c0,0.1,0,0.1,0.1,0.1c0.1,0,0.1-0.1,0.1-0.1c0-0.1-0.1-0.1-0.1-0.1C60.3,31,60.3,31,60.3,31.1
			L60.3,31.1z"/>
		<path class="st4" d="M60.9,32.8c0,0.1,0,0.1,0.1,0.1c0.1,0,0.1-0.1,0.1-0.1c0-0.1-0.1-0.1-0.1-0.1C60.9,32.7,60.9,32.7,60.9,32.8
			L60.9,32.8z"/>
		<path class="st4" d="M63.6,35.2c0,0.1,0.1,0.1,0.1,0.1c0.1,0,0.1,0,0.1-0.1c0-0.1-0.1-0.1-0.1-0.1C63.7,35.1,63.6,35.1,63.6,35.2
			L63.6,35.2z"/>
		<path class="st4" d="M61.7,34.2c0,0.1,0.1,0.1,0.1,0.1c0.1,0,0.1-0.1,0.1-0.1c0-0.1-0.1-0.1-0.1-0.1
			C61.8,34.1,61.7,34.1,61.7,34.2L61.7,34.2z"/>
		<path class="st4" d="M26.4,25.1c0,0.1,0.1,0.2,0.2,0.2c0.1,0,0.2-0.1,0.2-0.2c0-0.1-0.1-0.2-0.2-0.2C26.5,24.9,26.4,25,26.4,25.1
			L26.4,25.1z"/>
		<path class="st4" d="M26.1,23.9c0,0.1,0,0.2,0,0.2c0,0.1,0.1,0.2,0.2,0.2c0.1,0,0.2-0.1,0.2-0.2c0-0.1,0-0.2,0-0.2
			c0-0.1-0.1-0.2-0.2-0.2C26.2,23.7,26.1,23.8,26.1,23.9L26.1,23.9z"/>
		<path class="st4" d="M33,17.3c0.1,0.2,0.2,0.3,0.4,0.4c0.1,0.1,0.2,0,0.3-0.1c0.1-0.1,0-0.2-0.1-0.3c-0.1-0.1-0.2-0.2-0.2-0.3
			C33.3,17,33.2,17,33.1,17C32.9,17.1,32.9,17.2,33,17.3L33,17.3z"/>
		<path class="st4" d="M45,13.5c0,0.1,0,0.1-0.1,0.2c-0.1,0.1-0.1,0.2,0,0.3c0.1,0.1,0.2,0.1,0.3,0c0.2-0.1,0.3-0.3,0.3-0.6
			c0-0.1-0.1-0.2-0.2-0.2C45.1,13.3,45,13.4,45,13.5L45,13.5z"/>
		<path class="st4" d="M43.6,14.1C43.7,14,43.8,14,44,14c0.1,0,0.2-0.2,0.2-0.3c0-0.1-0.2-0.2-0.3-0.2c-0.2,0-0.4,0.2-0.6,0.2
			c-0.1,0.1-0.1,0.2-0.1,0.3C43.3,14.1,43.5,14.2,43.6,14.1L43.6,14.1z"/>
		<path class="st4" d="M46.3,13.2c-0.1,0-0.1,0.1-0.2,0.1C46,13.3,46,13.5,46,13.6c0.1,0.1,0.2,0.2,0.3,0.1c0.1,0,0.1-0.1,0.3-0.2
			c0.1-0.1,0.1-0.2,0-0.3C46.6,13.1,46.4,13.1,46.3,13.2L46.3,13.2z"/>
		<path class="st4" d="M54.6,17.9C54.6,17.9,54.6,17.9,54.6,17.9c-0.1,0.2-0.2,0.3-0.1,0.4c0.1,0.1,0.2,0.1,0.3,0
			c0.1-0.1,0.2-0.2,0.2-0.4c0-0.1-0.1-0.2-0.2-0.3C54.7,17.7,54.6,17.8,54.6,17.9L54.6,17.9z"/>
		<path class="st4" d="M53.1,20c0.1,0,0.2,0,0.3,0.1c0.1,0.1,0.2,0.1,0.3,0c0.1-0.1,0.1-0.2,0-0.3c-0.2-0.2-0.4-0.2-0.6-0.2
			c-0.1,0-0.2,0.1-0.2,0.2C52.9,19.9,53,20,53.1,20L53.1,20z"/>
		<path class="st4" d="M58.9,29.4c0,0.1,0.1,0.3,0,0.4c0,0.1,0.1,0.2,0.2,0.2c0.1,0,0.2-0.1,0.2-0.2c0-0.1-0.1-0.3,0-0.4
			c0-0.1-0.1-0.2-0.2-0.2C59,29.2,58.9,29.3,58.9,29.4L58.9,29.4z"/>
		<path class="st4" d="M58.9,31.6c0.1,0.1,0.2,0.2,0.3,0.2c0.1,0.1,0.2,0.1,0.3,0c0.1-0.1,0.1-0.2,0-0.3c-0.1-0.1-0.2-0.2-0.3-0.3
			c-0.1-0.1-0.2-0.1-0.3,0C58.7,31.4,58.8,31.5,58.9,31.6L58.9,31.6z"/>
		<path class="st4" d="M46.7,12.8c0,0.1,0.1,0.1,0.1,0.1c0.1,0,0.1-0.1,0.1-0.1c0-0.1-0.1-0.1-0.1-0.1
			C46.8,12.7,46.7,12.8,46.7,12.8L46.7,12.8z"/>
		<path class="st4" d="M46.6,12.1c0,0.1,0.1,0.1,0.1,0.1c0.1,0,0.1-0.1,0.1-0.1c0-0.1-0.1-0.1-0.1-0.1C46.7,12,46.6,12.1,46.6,12.1
			L46.6,12.1z"/>
		<path class="st4" d="M45.5,12.6c0,0.1,0,0.1-0.1,0.2c0,0.1,0,0.2,0.1,0.2c0.1,0,0.2,0,0.2-0.1c0-0.1,0.1-0.1,0.1-0.2
			c0-0.1,0-0.2-0.1-0.2C45.6,12.5,45.6,12.5,45.5,12.6L45.5,12.6z"/>
		<path class="st4" d="M45.8,13c0,0.1,0.1,0.1,0.1,0.1c0.1,0,0.1-0.1,0.1-0.1c0-0.1-0.1-0.1-0.1-0.1C45.8,12.9,45.8,12.9,45.8,13
			L45.8,13z"/>
		<path class="st4" d="M43,14.7c0,0.1,0.1,0.1,0.1,0.1c0.1,0,0.1-0.1,0.1-0.1c0-0.1-0.1-0.1-0.1-0.1C43.1,14.5,43,14.6,43,14.7
			L43,14.7z"/>
		<path class="st4" d="M33.6,15.6c0,0.1,0.1,0.1,0.1,0.1c0.1,0,0.1-0.1,0.1-0.1c0-0.1-0.1-0.1-0.1-0.1
			C33.7,15.4,33.6,15.5,33.6,15.6L33.6,15.6z"/>
		<path class="st4" d="M34,14.7c0,0.1,0.1,0.1,0.1,0.1c0.1,0,0.1-0.1,0.1-0.1c0-0.1-0.1-0.1-0.1-0.1C34,14.5,34,14.6,34,14.7
			L34,14.7z"/>
		<path class="st4" d="M32.9,14.3c0,0.1,0.1,0.1,0.1,0.1c0.1,0,0.1-0.1,0.1-0.1c0-0.1-0.1-0.1-0.1-0.1C33,14.1,32.9,14.2,32.9,14.3
			L32.9,14.3z"/>
		<path class="st4" d="M25.9,22.7c0,0.1,0.1,0.1,0.1,0.1c0.1,0,0.1-0.1,0.1-0.1c0-0.1-0.1-0.1-0.1-0.1
			C25.9,22.6,25.9,22.6,25.9,22.7L25.9,22.7z"/>
		<path class="st4" d="M25.3,25.2c0,0.1,0.1,0.1,0.1,0.1c0.1,0,0.1-0.1,0.1-0.1c0-0.1-0.1-0.1-0.1-0.1C25.3,25,25.3,25.1,25.3,25.2
			L25.3,25.2z"/>
		<path class="st4" d="M57.2,16.5c0,0.1,0.1,0.1,0.1,0.1c0.1,0,0.1-0.1,0.1-0.1c0-0.1-0.1-0.1-0.1-0.1
			C57.3,16.3,57.2,16.4,57.2,16.5L57.2,16.5z"/>
		<path class="st4" d="M57.6,15.3c0,0.1,0.1,0.1,0.1,0.1c0.1,0,0.2-0.1,0.2-0.1c0-0.1-0.1-0.1-0.2-0.1
			C57.7,15.2,57.6,15.2,57.6,15.3L57.6,15.3z"/>
		<path class="st4" d="M55,19.2c0,0.1,0.1,0.1,0.1,0.1c0.1,0,0.1-0.1,0.1-0.1c0-0.1-0.1-0.1-0.1-0.1C55.1,19,55,19.1,55,19.2
			L55,19.2z"/>
		<path class="st4" d="M53.8,18.6c0,0.1,0.1,0.1,0.1,0.1c0.1,0,0.1-0.1,0.1-0.1c0-0.1-0.1-0.1-0.1-0.1
			C53.8,18.5,53.8,18.5,53.8,18.6L53.8,18.6z"/>
		<path class="st4" d="M58.6,28.5c0,0.1,0.1,0.1,0.1,0.1s0.1-0.1,0.1-0.1c0-0.1-0.1-0.1-0.1-0.1S58.6,28.4,58.6,28.5L58.6,28.5z"/>
		<path class="st4" d="M58.2,29.6c0,0.1,0.1,0.1,0.1,0.1c0.1,0,0.1-0.1,0.1-0.1c0-0.1-0.1-0.1-0.1-0.1
			C58.3,29.5,58.2,29.5,58.2,29.6L58.2,29.6z"/>
		<path class="st4" d="M59.7,30.2c0,0.1,0.1,0.1,0.1,0.1c0.1,0,0.1-0.1,0.1-0.1c0-0.1-0.1-0.1-0.1-0.1
			C59.7,30.1,59.7,30.1,59.7,30.2L59.7,30.2z"/>
		<path class="st4" d="M60.6,31.7c0,0.1,0.1,0.1,0.1,0.1c0.1,0,0.1-0.1,0.1-0.1c0-0.1-0.1-0.1-0.1-0.1
			C60.7,31.5,60.6,31.6,60.6,31.7L60.6,31.7z"/>
		<path class="st4" d="M60.5,32.2c0,0.1,0.1,0.1,0.1,0.1s0.1-0.1,0.1-0.1c0-0.1-0.1-0.1-0.1-0.1S60.5,32.2,60.5,32.2L60.5,32.2z"/>
		<path class="st4" d="M60.3,31.8c0,0.1,0.1,0.1,0.2,0.1c0.1,0,0.1-0.1,0.1-0.1c0-0.1-0.1-0.1-0.1-0.1
			C60.4,31.7,60.3,31.7,60.3,31.8L60.3,31.8z"/>
		<path class="st4" d="M32.3,17.3c0,0.1,0.1,0.2,0.2,0.2c0.1,0,0.2-0.1,0.2-0.2c0-0.1-0.1-0.2-0.2-0.2
			C32.4,17.1,32.3,17.2,32.3,17.3L32.3,17.3z"/>
		<path class="st4" d="M34.4,17.3c0,0.1,0.1,0.2,0.2,0.2c0.1,0,0.2-0.1,0.2-0.2c0-0.1-0.1-0.2-0.2-0.2
			C34.5,17.1,34.4,17.2,34.4,17.3L34.4,17.3z"/>
		<path class="st4" d="M34.5,16.8c0,0.1,0.1,0.2,0.2,0.2c0.1,0,0.2-0.1,0.2-0.2c0-0.1-0.1-0.2-0.2-0.2
			C34.5,16.6,34.5,16.7,34.5,16.8L34.5,16.8z"/>
		<path class="st4" d="M33.2,16.6c0,0.1,0.1,0.2,0.2,0.2c0.1,0,0.2-0.1,0.2-0.2c0-0.1-0.1-0.2-0.2-0.2
			C33.3,16.4,33.2,16.5,33.2,16.6L33.2,16.6z"/>
		<path class="st4" d="M33.5,13.2c0,0.1,0.1,0.2,0.2,0.2c0.1,0,0.2-0.1,0.2-0.2c0-0.1-0.1-0.2-0.2-0.2C33.6,13,33.5,13.1,33.5,13.2
			L33.5,13.2z"/>
		<path class="st4" d="M25,24.4c0,0.1,0.1,0.2,0.2,0.2c0.1,0,0.2-0.1,0.2-0.2c0-0.1-0.1-0.2-0.2-0.2C25.1,24.2,25,24.3,25,24.4
			L25,24.4z"/>
		<path class="st4" d="M26.2,26.2c0,0.1,0.1,0.2,0.2,0.2c0.1,0,0.2-0.1,0.2-0.2c0-0.1-0.1-0.2-0.2-0.2C26.3,26,26.2,26.1,26.2,26.2
			L26.2,26.2z"/>
		<path class="st4" d="M26.6,26.5c0,0.1,0.1,0.2,0.2,0.2c0.1,0,0.2-0.1,0.2-0.2c0-0.1-0.1-0.2-0.2-0.2
			C26.7,26.3,26.6,26.4,26.6,26.5L26.6,26.5z"/>
		<path class="st4" d="M51.6,18.8c0,0.1,0.1,0.2,0.2,0.2c0.1,0,0.2-0.1,0.2-0.2c0-0.1-0.1-0.2-0.2-0.2
			C51.7,18.6,51.6,18.6,51.6,18.8L51.6,18.8z"/>
		<path class="st4" d="M51.9,18.2c0,0.1,0.1,0.2,0.2,0.2c0.1,0,0.2-0.1,0.2-0.2c0-0.1-0.1-0.2-0.2-0.2C51.9,18,51.9,18.1,51.9,18.2
			L51.9,18.2z"/>
		<path class="st4" d="M52.9,18.7c0,0.1,0.1,0.2,0.2,0.2c0.1,0,0.2-0.1,0.2-0.2c0-0.1-0.1-0.2-0.2-0.2C53,18.5,52.9,18.6,52.9,18.7
			L52.9,18.7z"/>
		<path class="st4" d="M59.2,28c0,0.1,0.1,0.2,0.2,0.2c0.1,0,0.2-0.1,0.2-0.2c0-0.1-0.1-0.2-0.2-0.2C59.3,27.8,59.2,27.9,59.2,28
			L59.2,28z"/>
		<path class="st4" d="M58.6,28c0,0.1,0.1,0.2,0.2,0.2c0.1,0,0.2-0.1,0.2-0.2c0-0.1-0.1-0.2-0.2-0.2C58.7,27.8,58.6,27.9,58.6,28
			L58.6,28z"/>
		<path class="st4" d="M57.9,28.6c0,0.1,0.1,0.2,0.2,0.2c0.1,0,0.2-0.1,0.2-0.2c0-0.1-0.1-0.2-0.2-0.2C58,28.4,57.9,28.5,57.9,28.6
			L57.9,28.6z"/>
		<path class="st4" d="M59,28.9c0,0.1,0.1,0.2,0.2,0.2c0.1,0,0.2-0.1,0.2-0.2c0-0.1-0.1-0.2-0.2-0.2C59.1,28.7,59,28.8,59,28.9
			L59,28.9z"/>
		<path class="st4" d="M53.8,20.4c0,0.1,0.1,0.2,0.2,0.2c0.1,0,0.2-0.1,0.2-0.2c0-0.1-0.1-0.2-0.2-0.2
			C53.9,20.3,53.8,20.3,53.8,20.4L53.8,20.4z"/>
		<path class="st4" d="M53.8,20.2c0,0.1,0.1,0.2,0.2,0.2c0.1,0,0.2-0.1,0.2-0.2c0-0.1-0.1-0.2-0.2-0.2C53.9,20,53.8,20.1,53.8,20.2
			L53.8,20.2z"/>
		<path class="st4" d="M53.5,17.8c0,0.1,0.1,0.2,0.2,0.2c0.1,0,0.2-0.1,0.2-0.2c0-0.1-0.1-0.2-0.2-0.2
			C53.5,17.7,53.5,17.7,53.5,17.8L53.5,17.8z"/>
		<path class="st4" d="M53,18.2c0,0.1,0.1,0.2,0.2,0.2c0.1,0,0.2-0.1,0.2-0.2c0-0.1-0.1-0.2-0.2-0.2C53.1,18,53,18.1,53,18.2
			L53,18.2z"/>
		<path class="st4" d="M53.2,18.5c0,0.1,0.1,0.2,0.2,0.2c0.1,0,0.2-0.1,0.2-0.2c0-0.1-0.1-0.2-0.2-0.2
			C53.3,18.4,53.2,18.4,53.2,18.5L53.2,18.5z"/>
		<path class="st4" d="M44.1,14.8c0,0.1,0.1,0.2,0.2,0.2c0.1,0,0.2-0.1,0.2-0.2c0-0.1-0.1-0.2-0.2-0.2
			C44.2,14.6,44.1,14.7,44.1,14.8L44.1,14.8z"/>
		<path class="st4" d="M44.4,15.7c0,0.1,0.1,0.1,0.1,0.2c0,0.1,0.1,0.1,0.2,0.1c0.1,0,0.1-0.1,0.1-0.2c0-0.1,0-0.1-0.1-0.2
			c0-0.1-0.1-0.1-0.2-0.1C44.3,15.5,44.3,15.6,44.4,15.7L44.4,15.7z"/>
		<path class="st4" d="M34.7,16.4c0,0.1,0.1,0.2,0.2,0.2c0.1,0,0.2-0.1,0.2-0.2s-0.1-0.2-0.2-0.2C34.8,16.2,34.7,16.3,34.7,16.4
			L34.7,16.4z"/>
		<path class="st4" d="M34.2,16.2c0,0.1,0.1,0.2,0.2,0.2c0.1,0,0.2-0.1,0.2-0.2c0-0.1-0.1-0.2-0.2-0.2
			C34.2,16.1,34.2,16.1,34.2,16.2L34.2,16.2z"/>
		<path class="st4" d="M34,14.1c0,0.1,0.1,0.2,0.2,0.2c0.1,0,0.2-0.1,0.2-0.2c0-0.1-0.1-0.2-0.2-0.2C34.1,14,34,14,34,14.1L34,14.1z
			"/>
		<path class="st4" d="M24.6,22.5c0,0.1,0.1,0.2,0.2,0.2c0.1,0,0.2-0.1,0.2-0.2c0-0.1-0.1-0.2-0.2-0.2
			C24.7,22.4,24.6,22.4,24.6,22.5L24.6,22.5z"/>
		<path class="st4" d="M27.6,25.5c0,0.1,0.1,0.2,0.2,0.2c0.1,0,0.2-0.1,0.2-0.2c0-0.1-0.1-0.2-0.2-0.2
			C27.7,25.4,27.6,25.4,27.6,25.5L27.6,25.5z"/>
		<path class="st4" d="M27.3,26.1c0,0.1,0.1,0.2,0.2,0.2c0.1,0,0.2-0.1,0.2-0.2s-0.1-0.2-0.2-0.2C27.3,25.9,27.3,26,27.3,26.1
			L27.3,26.1z"/>
		<path class="st4" d="M59.1,31c0,0.1,0.1,0.2,0.2,0.2c0.1,0,0.2-0.1,0.2-0.2c0-0.1-0.1-0.2-0.2-0.2C59.2,30.8,59.1,30.9,59.1,31
			L59.1,31z"/>
		<path class="st4" d="M59.7,31.1c0,0.1,0.1,0.2,0.2,0.2c0.1,0,0.2-0.1,0.2-0.2c0-0.1-0.1-0.2-0.2-0.2C59.8,30.9,59.7,31,59.7,31.1
			L59.7,31.1z"/>
		<path class="st4" d="M61.2,32.6c0,0.1,0.1,0.2,0.2,0.2c0.1,0,0.2-0.1,0.2-0.2c0-0.1-0.1-0.2-0.2-0.2
			C61.3,32.4,61.2,32.5,61.2,32.6L61.2,32.6z"/>
		<path class="st4" d="M61.6,33c0,0.1,0.1,0.2,0.2,0.2c0.1,0,0.2-0.1,0.2-0.2c0-0.1-0.1-0.2-0.2-0.2C61.7,32.8,61.6,32.9,61.6,33
			L61.6,33z"/>
		<path class="st4" d="M61.3,33.3c0,0,0.1,0,0.1,0.1c0.1,0.1,0.2,0,0.2,0c0.1-0.1,0-0.2,0-0.2c0,0-0.1-0.1-0.1-0.1
			c-0.1-0.1-0.2,0-0.2,0C61.2,33.1,61.2,33.2,61.3,33.3L61.3,33.3z"/>
		<path class="st4" d="M54.9,19.8c0.1,0.1,0.3,0,0.4,0.1c0.1,0,0.2-0.1,0.2-0.2c0-0.1-0.1-0.2-0.2-0.2c-0.1,0-0.2,0-0.3,0
			c-0.1,0-0.2,0-0.2,0.1C54.8,19.7,54.8,19.8,54.9,19.8L54.9,19.8z"/>
		<path class="st4" d="M54.9,18.7c0,0.1,0.1,0.2,0.2,0.2c0.1,0,0.2-0.1,0.2-0.2c0-0.1-0.1-0.2-0.2-0.2
			C54.9,18.5,54.9,18.6,54.9,18.7L54.9,18.7z"/>
		<path class="st4" d="M56.2,17.9c0,0.1,0.1,0.2,0.2,0.2c0.1,0,0.2-0.1,0.2-0.2c0-0.1-0.1-0.2-0.2-0.2
			C56.3,17.8,56.2,17.8,56.2,17.9L56.2,17.9z"/>
		<path class="st4" d="M56.2,17.3c0,0.1,0.1,0.2,0.2,0.2c0.1,0,0.2-0.1,0.2-0.2c0-0.1-0.1-0.2-0.2-0.2
			C56.3,17.1,56.2,17.2,56.2,17.3L56.2,17.3z"/>
		<path class="st4" d="M46.9,11.4c0,0.1,0.1,0.2,0.2,0.2c0.1,0,0.2-0.1,0.2-0.2c0-0.1-0.1-0.2-0.2-0.2
			C46.9,11.2,46.9,11.3,46.9,11.4L46.9,11.4z"/>
		<path class="st4" d="M45.5,12.2c0,0.1,0.1,0.2,0.2,0.2c0.1,0,0.2-0.1,0.2-0.2c0-0.1-0.1-0.2-0.2-0.2C45.5,12,45.5,12.1,45.5,12.2
			L45.5,12.2z"/>
		<path class="st4" d="M44.8,12.6c0,0.1,0.1,0.2,0.2,0.2c0.1,0,0.2-0.1,0.2-0.2c0-0.1-0.1-0.2-0.2-0.2
			C44.9,12.4,44.8,12.5,44.8,12.6L44.8,12.6z"/>
		<path class="st4" d="M44.3,13.6c0.1,0.1,0.2,0.2,0.4,0.2c0.1,0,0.2,0,0.2-0.1c0-0.1,0-0.2-0.1-0.2c-0.1,0-0.2-0.1-0.3-0.2
			c-0.1-0.1-0.2,0-0.2,0C44.2,13.4,44.2,13.5,44.3,13.6L44.3,13.6z"/>
		<path class="st4" d="M63,34.8c0,0.1,0.1,0.2,0.2,0.2c0.1,0,0.2-0.1,0.2-0.2c0-0.1-0.1-0.2-0.2-0.2C63.1,34.6,63,34.7,63,34.8
			L63,34.8z"/>
		<path class="st4" d="M61.9,34.6c0,0.1,0.1,0.2,0.2,0.2c0.1,0,0.2-0.1,0.2-0.2s-0.1-0.2-0.2-0.2C62,34.5,61.9,34.5,61.9,34.6
			L61.9,34.6z"/>
		<path class="st4" d="M48.3,11.1c0,0.1,0.1,0.2,0.2,0.2c0.1,0,0.2-0.1,0.2-0.2c0-0.1-0.1-0.2-0.2-0.2C48.3,10.9,48.3,11,48.3,11.1
			L48.3,11.1z"/>
		<path class="st4" d="M48,9.7c0,0.1,0.1,0.2,0.2,0.2c0.1,0,0.2-0.1,0.2-0.2c0-0.1-0.1-0.2-0.2-0.2C48,9.5,48,9.6,48,9.7L48,9.7z"/>
		<path class="st4" d="M33.2,11.8c0,0.1,0.1,0.2,0.2,0.2c0.1,0,0.2-0.1,0.2-0.2c0-0.1-0.1-0.2-0.2-0.2
			C33.3,11.6,33.2,11.7,33.2,11.8L33.2,11.8z"/>
		<path class="st4" d="M34.3,12.5c0,0.1,0.1,0.2,0.2,0.2c0.1,0,0.2-0.1,0.2-0.2c0-0.1-0.1-0.2-0.2-0.2
			C34.3,12.3,34.3,12.4,34.3,12.5L34.3,12.5z"/>
		<path class="st4" d="M32.9,14.7c-0.1-0.1-0.1-0.1-0.2-0.2c-0.1-0.1-0.2-0.1-0.2,0c-0.1,0.1-0.1,0.2,0,0.2c0.1,0.1,0.1,0.2,0.2,0.2
			c0.1,0.1,0.2,0.1,0.2,0C32.9,14.9,32.9,14.8,32.9,14.7L32.9,14.7z"/>
		<path class="st4" d="M32.9,15.8c0,0.1,0.1,0.2,0.2,0.2c0.1,0,0.2-0.1,0.2-0.2c0-0.1-0.1-0.2-0.2-0.2C33,15.6,32.9,15.7,32.9,15.8
			L32.9,15.8z"/>
		<path class="st4" d="M25.8,22.3c0,0.1,0.1,0.2,0.2,0.2c0.1,0,0.2-0.1,0.2-0.2c0-0.1-0.1-0.2-0.2-0.2
			C25.9,22.1,25.8,22.2,25.8,22.3L25.8,22.3z"/>
		<path class="st4" d="M27.1,23.9c0,0.1,0.1,0.2,0.2,0.2c0.1,0,0.2-0.1,0.2-0.2c0-0.1-0.1-0.2-0.2-0.2
			C27.1,23.7,27.1,23.8,27.1,23.9L27.1,23.9z"/>
		<path class="st4" d="M26.9,24.2c0,0.1,0.1,0.2,0.2,0.2c0.1,0,0.2-0.1,0.2-0.2c0-0.1-0.1-0.2-0.2-0.2
			C26.9,24.1,26.9,24.2,26.9,24.2L26.9,24.2z"/>
		<path class="st4" d="M27.1,24.4c0,0.1,0.1,0.2,0.2,0.2c0.1,0,0.2-0.1,0.2-0.2c0-0.1-0.1-0.2-0.2-0.2
			C27.1,24.3,27.1,24.3,27.1,24.4L27.1,24.4z"/>
		<g>
			<path d="M31.2,18.9L31.2,18.9C31.2,18.9,31.1,18.9,31.2,18.9c0.1-0.6,0.3-1.2,0.8-1.6c0.5-0.4,1-0.7,1.5-1c1-0.6,2.1-1.3,2.9-2.3
				c0,0,0,0,0,0c0,0,0,0,0,0c0,0,0,0,0,0c0,0,0,0,0,0c-1,1.1-2.2,1.8-3.5,2.6c-0.2,0.1-0.4,0.3-0.7,0.4
				C31.7,17.5,31.3,18.1,31.2,18.9C31.2,18.9,31.2,18.9,31.2,18.9z M32,17.3c-0.5,0.4-0.7,1-0.8,1.5c0,0,0,0,0,0c0,0,0,0,0,0
				C31.3,18.3,31.6,17.7,32,17.3z M36.5,14C36.5,14,36.5,14,36.5,14c-0.8,1-1.9,1.6-2.9,2.3c-0.3,0.2-0.6,0.4-0.9,0.6
				c0.1-0.1,0.2-0.2,0.4-0.2C34.3,15.9,35.5,15.1,36.5,14C36.5,14,36.5,14,36.5,14C36.5,14,36.5,14,36.5,14z"/>
			<path d="M31.1,18.9C31.1,18.9,31.1,18.9,31.1,18.9C31.1,18.9,31.1,18.9,31.1,18.9C31.1,18.9,31.1,18.9,31.1,18.9
				c0-0.1,0-0.1,0.1-0.2c0.3-0.4,0.5-0.8,1-1.1c0.4-0.2,0.9-0.4,1.4-0.5c0.8-0.2,1.7-0.5,2.2-1.2c0,0,0,0,0,0c0,0,0,0,0,0
				c0,0,0,0,0,0c-0.5,0.7-1.4,1-2.2,1.2c-0.5,0.1-0.9,0.3-1.3,0.5c-0.4,0.2-0.7,0.6-0.9,1C31.3,18.7,31.2,18.8,31.1,18.9L31.1,18.9
				C31.1,18.9,31.1,18.9,31.1,18.9z M35.8,16C35.8,16,35.8,16,35.8,16c-0.5,0.7-1.4,1-2.2,1.2c-0.5,0.1-0.9,0.3-1.4,0.5
				c-0.5,0.2-0.7,0.7-1,1.1c0,0-0.1,0.1-0.1,0.1l0,0c0,0,0,0,0,0l0,0c0,0,0,0,0,0c0.1-0.1,0.1-0.2,0.2-0.3c0.2-0.4,0.5-0.8,0.9-1
				c0.4-0.2,0.9-0.3,1.3-0.5C34.4,17,35.2,16.7,35.8,16C35.8,16,35.8,16,35.8,16L35.8,16L35.8,16z"/>
			<path d="M31.1,19C31.1,19,31.1,19,31.1,19C31.1,19,31.1,19,31.1,19C31.1,18.9,31.1,18.9,31.1,19c1-0.9,2.3-1.1,3.6-1.3
				c0.6-0.1,1.2-0.2,1.8-0.4c0,0,0,0,0,0c0,0,0,0,0,0c0,0,0,0,0,0c-0.6,0.2-1.2,0.3-1.8,0.4C33.4,18,32.2,18.2,31.1,19
				C31.2,19,31.1,19,31.1,19z M36.5,17.4c-0.6,0.2-1.2,0.3-1.8,0.4c-1.3,0.2-2.5,0.4-3.6,1.2l0,0l0,0c0,0,0,0,0,0
				c1-0.8,2.3-1,3.5-1.2C35.3,17.6,35.9,17.5,36.5,17.4L36.5,17.4L36.5,17.4C36.5,17.4,36.5,17.4,36.5,17.4
				C36.5,17.4,36.5,17.4,36.5,17.4z"/>
		</g>
		<g>
			<path d="M29.9,20.9C29.9,20.9,29.9,20.9,29.9,20.9C29.9,20.9,29.8,20.9,29.9,20.9C29.8,20.9,29.8,20.9,29.9,20.9
				c0.2-0.5,0.3-0.9,0.3-1.2c0.1-0.9,0.1-1.8-0.3-2.7c0,0,0,0,0,0c0,0,0,0,0,0l0,0c0,0,0,0,0,0c0.4,0.9,0.4,1.8,0.3,2.7
				C30.2,20.1,30.1,20.4,29.9,20.9C29.9,20.9,29.9,20.9,29.9,20.9z M29.9,17L29.9,17C29.9,17,29.9,17,29.9,17
				c0.4,0.9,0.4,1.8,0.3,2.7c0,0.4-0.1,0.8-0.3,1.2c0,0,0,0,0,0l0,0c0,0,0,0,0,0c0.2-0.5,0.3-0.8,0.3-1.2
				C30.3,18.8,30.3,17.9,29.9,17L29.9,17L29.9,17z"/>
			<path d="M29.8,21C29.8,21,29.8,21,29.8,21L29.8,21L29.8,21C29.8,21,29.8,21,29.8,21L29.8,21c0.6-0.8,1-1.8,1.2-3c0,0,0,0,0,0
				c0,0,0,0,0,0c0,0,0,0,0,0C30.9,19.3,30.5,20.3,29.8,21C29.8,21,29.8,21,29.8,21z M29.8,21C29.8,21,29.8,21,29.8,21
				c0.6-0.7,1-1.7,1.2-3c0,0,0,0,0,0c0,0,0,0,0,0C30.8,19.3,30.4,20.2,29.8,21C29.8,21,29.8,21,29.8,21z"/>
		</g>
		<path d="M37.3,16.4C37.3,16.4,37.3,16.4,37.3,16.4c-0.2-0.7,0.4-1.2,0.9-1.5c0.3-0.2,0.6-0.4,1-0.5c0.9-0.5,1.9-1,2.1-2l0,0
			c0,0,0,0,0,0c0,0,0,0,0,0c0,0,0,0,0,0c0,0,0,0,0,0c-0.3,1.1-1.2,1.6-2.2,2.1c-0.3,0.2-0.7,0.3-1,0.5
			C37.8,15.2,37.2,15.7,37.3,16.4C37.3,16.4,37.3,16.4,37.3,16.4C37.3,16.4,37.3,16.4,37.3,16.4C37.3,16.4,37.3,16.4,37.3,16.4z
			 M41.3,12.3c-0.3,1.1-1.2,1.6-2.2,2.1c-0.3,0.2-0.7,0.3-1,0.5c-0.4,0.3-1,0.8-0.9,1.4c0,0,0,0,0,0c0,0,0,0,0,0l0,0
			c-0.1-0.3,0-0.9,0.9-1.4c0.3-0.2,0.6-0.4,1-0.5C40.1,13.9,41.1,13.4,41.3,12.3C41.3,12.3,41.3,12.3,41.3,12.3L41.3,12.3
			C41.3,12.3,41.3,12.3,41.3,12.3z"/>
		<path d="M37.2,16.4C37.2,16.4,37.1,16.4,37.2,16.4L37.2,16.4L37.2,16.4C37.1,16.4,37.1,16.4,37.2,16.4c0.6-1.1,1.8-1.3,2.9-1.6
			c0.4-0.1,0.8-0.2,1.1-0.3c0.1,0,0.2-0.1,0.3-0.1l0,0c0,0,0,0,0,0c0,0,0,0,0,0c0,0,0,0,0,0c0,0,0,0,0,0c-0.5,0.2-1.1,0.3-1.6,0.5
			C38.9,15.2,37.8,15.4,37.2,16.4L37.2,16.4C37.2,16.4,37.2,16.4,37.2,16.4z M37.2,16.4C37.2,16.4,37.2,16.4,37.2,16.4
			c0.6-1,1.7-1.2,2.7-1.4c0.4-0.1,0.7-0.2,1.1-0.3c-0.3,0.1-0.6,0.1-0.9,0.2C39,15.1,37.8,15.4,37.2,16.4
			C37.2,16.4,37.2,16.4,37.2,16.4z"/>
		<g>
			<path d="M51.7,16.7c-0.2,0-0.4,0-0.5,0c0,0-0.1,0-0.1,0c-1-0.1-1.9-0.4-2.5-0.8c-0.1-0.1-0.1-0.1-0.2-0.2c-0.1,0-0.1-0.1-0.2-0.1
				l0,0c0,0,0,0,0,0c0,0,0,0,0,0l0,0c0,0.1,0.1,0.1,0.1,0.2c0.1,0.1,0.1,0.1,0.2,0.2c0,0,0.1,0,0.1,0.1c0.6,0.3,1.4,0.7,2.3,0.8
				c0,0,0.1,0,0.1,0c0.1,0,0.2,0,0.2,0c0.6,0,1.1-0.1,1.6-0.4c0,0,0,0,0,0c0,0,0,0,0,0c0,0,0,0,0,0c0,0,0,0,0,0
				c-0.3,0.2-0.7,0.4-1.1,0.4C51.8,16.7,51.8,16.7,51.7,16.7z M53,16.3C53,16.3,53,16.3,53,16.3c-0.4,0.2-0.8,0.4-1.2,0.4
				c0.1,0,0.1,0,0.2,0C52.3,16.7,52.7,16.5,53,16.3C53,16.3,53,16.3,53,16.3C53,16.3,53,16.3,53,16.3z M48.8,16
				c0.4,0.3,0.9,0.4,1.4,0.6C49.7,16.4,49.2,16.2,48.8,16z"/>
			<path d="M51.1,16.4L51.1,16.4c-1.2,0-2.2-0.3-3.1-0.9c0,0,0,0,0,0c0,0,0,0,0,0c0,0,0,0,0,0l0,0C48.9,16,50,16.3,51.1,16.4
				c1.1-0.1,2.4-0.3,3.7-0.8c0,0,0,0,0,0c0,0,0,0,0,0c0,0,0,0,0,0C53.5,16.1,52.3,16.4,51.1,16.4z M48.1,15.5
				C48.1,15.5,48.1,15.5,48.1,15.5c0.9,0.6,1.9,0.9,3.1,0.9h0c1.1,0,2.4-0.3,3.7-0.8c0,0,0,0,0,0c0,0,0,0,0,0
				c-1.4,0.5-2.6,0.8-3.7,0.8C50,16.3,48.9,16,48.1,15.5C48.1,15.5,48.1,15.5,48.1,15.5z"/>
		</g>
		<g>
			<path d="M54.7,18.8L54.7,18.8c-0.4,0-0.8-0.1-1.2-0.2c-0.1-0.1-0.2-0.1-0.3-0.1c-0.4-0.2-0.8-0.3-1.1-0.6c0,0,0,0,0,0l0,0
				c0,0,0,0,0,0c0.5,0.3,1.1,0.6,1.7,0.8C54.1,18.7,54.3,18.7,54.7,18.8c0.7-0.1,1.3-0.3,2-0.5c0.1,0,0.1,0,0.2-0.1c0,0,0,0,0,0
				c0,0,0,0,0,0l0,0c0,0,0,0,0,0l-0.1,0C56.1,18.6,55.4,18.8,54.7,18.8z M53.3,18.4c0.1,0,0.1,0.1,0.2,0.1c0.4,0.2,0.7,0.2,1.2,0.2
				c0.7,0,1.4-0.2,2.1-0.5l0.1,0c0,0,0,0,0,0c0,0,0,0,0,0c-0.1,0-0.1,0-0.2,0.1c-0.6,0.2-1.3,0.4-2,0.4c-0.3,0-0.6,0-0.9-0.1
				C53.6,18.6,53.4,18.5,53.3,18.4z M52,17.8C52,17.8,52,17.8,52,17.8c0.3,0.2,0.6,0.4,1,0.5C52.7,18.2,52.4,18,52,17.8
				C52.1,17.8,52.1,17.8,52,17.8z"/>
			<path d="M57.4,21.9C57.4,21.9,57.4,21.9,57.4,21.9c-1.8-1.9-3.5-3.2-5.3-4.1c0,0,0,0,0,0c0,0,0,0,0,0
				C53.9,18.6,55.7,20,57.4,21.9C57.4,21.9,57.4,21.9,57.4,21.9C57.4,21.9,57.4,21.9,57.4,21.9z M52,17.8C52,17.8,52,17.8,52,17.8
				C52,17.8,52,17.8,52,17.8c1.8,0.9,3.6,2.2,5.3,4.1l0,0c0,0,0,0,0,0c0,0,0,0,0,0C55.7,20,53.9,18.7,52,17.8L52,17.8z"/>
		</g>
		<path d="M25.9,28.6C25.9,28.6,25.9,28.6,25.9,28.6c-0.1-1.2-1-2.2-1.7-2.9c0,0,0,0,0,0c0,0,0,0,0,0c0,0,0,0,0,0
			C25,26.4,25.9,27.3,25.9,28.6C26,28.6,26,28.6,25.9,28.6C25.9,28.6,25.9,28.6,25.9,28.6z M24.3,25.7
			C24.3,25.7,24.3,25.7,24.3,25.7C24.3,25.7,24.3,25.7,24.3,25.7L24.3,25.7c0.7,0.7,1.6,1.6,1.7,2.9c0,0,0,0,0,0h0c0,0,0,0,0,0
			C25.9,27.3,25,26.4,24.3,25.7L24.3,25.7C24.3,25.7,24.3,25.7,24.3,25.7z"/>
		<path d="M26,28.7L26,28.7C26,28.7,26,28.7,26,28.7c0.1-0.8,0-1.6-0.3-2.4c0,0,0,0,0,0c0,0,0,0,0,0l0,0
			C26.1,27.1,26.2,27.9,26,28.7C26.1,28.7,26,28.7,26,28.7L26,28.7z M26,28.7C26,28.7,26,28.7,26,28.7C26,28.7,26,28.7,26,28.7
			c0.1-0.8,0-1.6-0.3-2.4c0,0,0,0,0,0c0,0,0,0,0,0C26,27.1,26.1,27.9,26,28.7C26,28.7,26,28.7,26,28.7z"/>
		<path d="M26.3,30.6C26.2,30.6,26.2,30.6,26.3,30.6c-0.1-1.2-1-2.2-1.7-2.9c0,0,0,0,0,0c0,0,0,0,0,0l0,0c0,0,0,0,0,0
			C25.3,28.4,26.2,29.4,26.3,30.6C26.3,30.6,26.3,30.6,26.3,30.6C26.3,30.6,26.3,30.6,26.3,30.6C26.3,30.6,26.3,30.6,26.3,30.6z
			 M24.6,27.8C24.6,27.8,24.6,27.8,24.6,27.8c0.7,0.7,1.6,1.6,1.7,2.9c0,0,0,0,0,0l0,0l0,0C26.2,29.4,25.3,28.4,24.6,27.8
			C24.6,27.8,24.6,27.8,24.6,27.8C24.6,27.8,24.6,27.8,24.6,27.8z"/>
		<path d="M26.3,30.7L26.3,30.7C26.3,30.7,26.3,30.7,26.3,30.7L26.3,30.7L26.3,30.7c0.1-0.8,0-1.6-0.3-2.4c0,0,0,0,0,0c0,0,0,0,0,0
			c0,0,0,0,0,0C26.4,29.1,26.5,30,26.3,30.7C26.4,30.7,26.4,30.7,26.3,30.7L26.3,30.7z M26.3,30.7C26.3,30.7,26.3,30.7,26.3,30.7
			C26.3,30.7,26.3,30.7,26.3,30.7c0.1-0.8,0-1.6-0.3-2.4c0,0,0,0,0,0c0,0,0,0,0,0l0,0C26.4,29.1,26.4,29.9,26.3,30.7z"/>
		<g>
			<path d="M26.4,26.7L26.4,26.7C26.3,26.7,26.3,26.7,26.4,26.7C26.3,26.7,26.3,26.7,26.4,26.7c0.3-1.2-0.1-2.4-0.5-3.3c0,0,0,0,0,0
				l0,0l0,0c0,0,0,0,0,0c0,0,0,0,0,0C26.3,24.3,26.8,25.5,26.4,26.7C26.4,26.7,26.4,26.7,26.4,26.7z M25.9,23.4
				C25.9,23.4,25.9,23.4,25.9,23.4c0.4,0.9,0.9,2.1,0.5,3.3c0,0,0,0,0,0c0,0,0,0,0,0l0,0v0c0,0,0,0,0,0
				C26.7,25.5,26.3,24.3,25.9,23.4C25.9,23.4,25.9,23.4,25.9,23.4z"/>
			<path d="M26.4,26.8C26.4,26.8,26.4,26.8,26.4,26.8L26.4,26.8C26.4,26.8,26.4,26.8,26.4,26.8L26.4,26.8c0.4-0.7,0.6-1.5,0.6-2.3
				c0,0,0,0,0,0c0,0,0,0,0,0l0,0c0,0,0,0,0,0l0,0l0,0C27,25.3,26.8,26.1,26.4,26.8C26.4,26.8,26.4,26.8,26.4,26.8z M26.4,26.8
				C26.4,26.8,26.4,26.8,26.4,26.8C26.4,26.8,26.4,26.8,26.4,26.8c0.4-0.7,0.6-1.4,0.6-2.3c0,0,0,0,0,0l0,0l0,0
				C27,25.3,26.8,26.1,26.4,26.8z"/>
		</g>
		<g>
			<path d="M28.9,22.7C28.9,22.7,28.8,22.7,28.9,22.7C28.8,22.7,28.8,22.6,28.9,22.7c0.1-0.5,0.1-0.9,0.1-1.3
				c-0.1-0.9-0.3-1.8-0.8-2.5c0,0,0,0,0,0c0,0,0,0,0,0l0,0c0,0,0,0,0,0c0,0,0,0,0,0c0.5,0.8,0.7,1.7,0.8,2.6
				C29.1,21.7,29,22.1,28.9,22.7C28.9,22.6,28.9,22.7,28.9,22.7z M28.8,22.6C28.8,22.6,28.8,22.6,28.8,22.6L28.8,22.6
				C28.9,22.6,28.9,22.6,28.8,22.6c0.1-0.5,0.2-0.9,0.1-1.2c-0.1-0.9-0.3-1.8-0.8-2.6l0,0c0,0,0,0,0,0c0,0,0,0,0,0
				c0.5,0.8,0.7,1.7,0.8,2.6C29,21.8,29,22.2,28.8,22.6L28.8,22.6z"/>
			<path d="M28.8,22.8C28.8,22.8,28.8,22.8,28.8,22.8L28.8,22.8C28.8,22.8,28.8,22.8,28.8,22.8L28.8,22.8c0.4-0.9,0.6-1.9,0.6-3.2
				l0,0l0,0c0,0,0,0,0,0h0c0,0,0,0,0,0c0,0,0,0,0,0C29.5,20.9,29.3,21.9,28.8,22.8C28.8,22.8,28.8,22.8,28.8,22.8z M28.8,22.7
				C28.8,22.7,28.8,22.7,28.8,22.7C28.8,22.8,28.8,22.8,28.8,22.7c0.5-0.8,0.7-1.9,0.6-3.2l0,0l0,0l0,0l0,0c0,0,0,0,0,0c0,0,0,0,0,0
				C29.5,20.9,29.3,21.9,28.8,22.7z"/>
		</g>
		<g>
			<path d="M28.1,24L28.1,24C28.1,24,28,24,28.1,24c0-1.2-0.7-2.3-1.3-3c0,0,0,0,0,0l0,0c0,0,0,0,0,0C27.5,21.7,28.2,22.7,28.1,24
				C28.1,23.9,28.1,24,28.1,24C28.1,24,28.1,24,28.1,24L28.1,24z M26.8,20.9C26.8,20.9,26.8,20.9,26.8,20.9c0.6,0.8,1.4,1.8,1.3,3
				c0,0,0,0,0,0c0,0,0,0,0,0l0,0l0,0C28.1,22.7,27.4,21.7,26.8,20.9L26.8,20.9C26.8,20.9,26.8,20.9,26.8,20.9z"/>
			<path d="M28.1,24.1L28.1,24.1C28.1,24.1,28.1,24.1,28.1,24.1L28.1,24.1L28.1,24.1c0.2-0.8,0.2-1.6,0-2.4c0,0,0,0,0,0c0,0,0,0,0,0
				c0,0,0,0,0,0C28.4,22.5,28.4,23.3,28.1,24.1C28.2,24.1,28.2,24.1,28.1,24.1L28.1,24.1z M28.1,24.1C28.1,24.1,28.1,24.1,28.1,24.1
				C28.1,24.1,28.1,24.1,28.1,24.1c0.2-0.7,0.2-1.6,0-2.4h0c0,0,0,0,0,0c0,0,0,0,0,0l0,0C28.4,22.5,28.3,23.3,28.1,24.1z"/>
		</g>
		<g>
			<path d="M26.7,32.6C26.7,32.6,26.7,32.6,26.7,32.6c0-0.2-0.1-0.4-0.2-0.6c-0.5-0.6-0.8-1.4-0.8-2.2c0,0,0,0,0,0l0,0l0,0
				c0,0,0,0,0,0c0,0,0,0,0,0c0.1,0.7,0.2,1.3,0.5,1.8c0,0.1,0.1,0.2,0.1,0.2C26.6,32,26.7,32.3,26.7,32.6
				C26.7,32.6,26.7,32.6,26.7,32.6C26.7,32.6,26.7,32.6,26.7,32.6C26.7,32.6,26.7,32.6,26.7,32.6z M26.6,32.3c0,0.1,0,0.2,0.1,0.3
				c0,0,0,0,0,0h0l0,0l0,0C26.7,32.5,26.7,32.4,26.6,32.3z M26.1,31.4c0.1,0.2,0.2,0.4,0.4,0.6c0,0,0,0,0,0c0-0.1-0.1-0.2-0.2-0.2
				c-0.1-0.1-0.1-0.2-0.1-0.2C26.2,31.5,26.2,31.4,26.1,31.4z M25.7,29.8C25.7,29.8,25.7,29.8,25.7,29.8c0,0.2,0.1,0.5,0.1,0.7
				C25.8,30.3,25.7,30,25.7,29.8L25.7,29.8L25.7,29.8C25.7,29.8,25.7,29.8,25.7,29.8z"/>
			<path d="M26.8,32.7C26.8,32.7,26.8,32.7,26.8,32.7c-0.4-0.6-1.1-1.5-2.5-2c0,0,0,0,0,0s0,0,0,0c0,0,0,0,0,0
				C25.4,31,26.3,31.7,26.8,32.7C26.8,32.6,26.8,32.7,26.8,32.7L26.8,32.7C26.8,32.7,26.8,32.7,26.8,32.7z M24.3,30.6L24.3,30.6
				L24.3,30.6c0.8,0.3,1.8,0.9,2.5,2c0,0,0,0,0,0c0,0,0,0,0,0C26.2,31.8,25.4,31,24.3,30.6L24.3,30.6z"/>
		</g>
		<g>
			<path d="M42.3,14.8L42.3,14.8C42.3,14.8,42.2,14.8,42.3,14.8C42.2,14.8,42.3,14.7,42.3,14.8c0.6-0.1,1.2-0.2,1.8-0.4
				c1-0.3,1.6-1.1,2.2-1.9c0-0.1,0.1-0.1,0.1-0.2c0,0,0,0,0,0l0,0l0,0c0,0,0,0,0,0l0,0c-0.7,0.9-1.4,1.9-2.6,2.1
				c-0.1,0-0.2,0.1-0.3,0.1C43.1,14.7,42.7,14.8,42.3,14.8z M43.4,14.6c-0.4,0.1-0.7,0.1-1.1,0.2c0,0,0,0,0,0c0,0,0,0,0,0
				C42.7,14.8,43,14.7,43.4,14.6z M46.5,12.4C46.5,12.4,46.5,12.4,46.5,12.4c-0.1,0.1-0.1,0.1-0.1,0.2c-0.6,0.8-1.2,1.6-2.2,1.9
				c-0.2,0.1-0.3,0.1-0.5,0.1c0.1,0,0.1,0,0.2,0C45.1,14.3,45.8,13.3,46.5,12.4L46.5,12.4C46.5,12.4,46.5,12.4,46.5,12.4
				C46.5,12.4,46.5,12.4,46.5,12.4z"/>
			<path d="M49,15L49,15c-1.5-0.3-2.8-0.5-4.1-0.5c-0.9,0-1.8,0.1-2.6,0.2c0,0,0,0,0,0c0,0,0,0,0,0c0.8-0.2,1.7-0.2,2.6-0.2
				C46.1,14.5,47.5,14.7,49,15C49,15,49,15,49,15C49,15,49,15,49,15z M44.9,14.6c1.3,0,2.7,0.2,4.1,0.5c0,0,0,0,0,0c0,0,0,0,0,0
				C47.5,14.7,46.1,14.5,44.9,14.6c-0.9,0-1.8,0.1-2.6,0.2c0,0,0,0,0,0c0,0,0,0,0,0C43.1,14.6,44,14.6,44.9,14.6z"/>
		</g>
		<g>
			<path d="M59.3,24L59.3,24c-1,0-1.8-0.4-2.6-0.8c-0.3-0.2-0.6-0.4-0.9-0.8c0,0,0,0,0,0c0,0,0,0,0,0c0,0,0,0,0,0c0,0,0,0,0,0
				c0.3,0.4,0.6,0.6,0.9,0.8C57.5,23.5,58.4,23.9,59.3,24C59.3,23.9,59.3,23.9,59.3,24C59.3,23.9,59.3,24,59.3,24
				C59.3,24,59.3,24,59.3,24z M59.3,24L59.3,24C59.3,24,59.3,24,59.3,24C59.3,24,59.3,24,59.3,24c-0.9,0-1.8-0.4-2.6-0.8
				c-0.3-0.2-0.6-0.4-0.9-0.8c0,0,0,0,0,0c0,0,0,0,0,0l0,0c0.3,0.4,0.6,0.6,0.9,0.8C57.5,23.6,58.4,24,59.3,24L59.3,24z"/>
			<path d="M58,24.6C58,24.6,57.9,24.6,58,24.6c-1.1-0.7-1.8-1.5-2.3-2.3c0,0,0,0,0,0l0,0l0,0c0,0,0,0,0,0l0,0
				C56.2,23.1,56.9,23.9,58,24.6L58,24.6C58,24.6,58,24.6,58,24.6C58,24.6,58,24.6,58,24.6z M55.7,22.2
				C55.7,22.2,55.7,22.3,55.7,22.2c0.4,0.9,1.1,1.6,2.2,2.3l0,0l0,0l0,0c0,0,0,0,0,0C56.9,23.9,56.2,23.1,55.7,22.2
				C55.7,22.2,55.7,22.2,55.7,22.2C55.7,22.2,55.7,22.2,55.7,22.2z"/>
		</g>
		<g>
			<path d="M60.4,25.7L60.4,25.7c-1,0-1.8-0.4-2.6-0.8c-0.3-0.2-0.6-0.4-0.9-0.8c0,0,0,0,0,0c0,0,0,0,0,0c0,0,0,0,0,0
				c0.3,0.4,0.6,0.6,0.9,0.8C58.6,25.2,59.4,25.6,60.4,25.7C60.4,25.6,60.4,25.6,60.4,25.7L60.4,25.7C60.4,25.7,60.4,25.7,60.4,25.7
				z M60.4,25.6L60.4,25.6C60.4,25.6,60.4,25.6,60.4,25.6C60.4,25.6,60.4,25.6,60.4,25.6c-0.9,0-1.8-0.4-2.6-0.8
				c-0.3-0.2-0.6-0.4-0.9-0.8c0,0,0,0,0,0c0,0,0,0,0,0c0.3,0.4,0.6,0.6,0.9,0.8C58.6,25.2,59.4,25.6,60.4,25.6L60.4,25.6z"/>
			<path d="M59,26.3C59,26.3,59,26.3,59,26.3c-1.1-0.7-1.8-1.5-2.3-2.3c0,0,0,0,0,0l0,0l0,0c0,0,0,0,0,0l0,0
				C57.2,24.8,58,25.5,59,26.3C59,26.2,59.1,26.2,59,26.3C59.1,26.3,59,26.3,59,26.3C59,26.3,59,26.3,59,26.3z M56.8,23.9
				C56.8,23.9,56.8,23.9,56.8,23.9c0.4,0.9,1.2,1.6,2.2,2.3l0,0c0,0,0,0,0,0l0,0c0,0,0,0,0,0C57.9,25.6,57.2,24.8,56.8,23.9
				C56.8,23.9,56.8,23.9,56.8,23.9C56.8,23.9,56.8,23.9,56.8,23.9z"/>
		</g>
		<g>
			<path d="M59.2,28.9L59.2,28.9C59.2,28.9,59.2,28.8,59.2,28.9c-0.2-0.7-0.4-1.3-0.8-1.7c-0.1-0.1-0.1-0.1-0.2-0.2
				c-0.2-0.2-0.4-0.4-0.4-0.7c0,0,0,0,0,0c0,0,0,0,0,0c0,0,0,0,0,0c0,0,0,0,0,0c0,0.2,0.1,0.4,0.2,0.5C58.7,27.2,59.1,28,59.2,28.9
				C59.3,28.8,59.3,28.8,59.2,28.9L59.2,28.9z M59.1,28.2c0.1,0.2,0.1,0.4,0.2,0.7c0,0,0,0,0,0c0,0,0,0,0,0
				C59.2,28.6,59.1,28.4,59.1,28.2z M58.2,26.7c0.1,0.1,0.1,0.1,0.2,0.2c0.1,0.1,0.1,0.1,0.2,0.2c0,0,0.1,0.1,0.1,0.1
				C58.5,27.1,58.3,26.9,58.2,26.7C58.2,26.7,58.2,26.7,58.2,26.7z M57.9,26.2C57.9,26.2,57.9,26.2,57.9,26.2L57.9,26.2
				c0,0.1,0.1,0.2,0.1,0.3C58,26.4,57.9,26.3,57.9,26.2L57.9,26.2z"/>
			<path d="M60.5,27.9C60.5,27.9,60.5,27.9,60.5,27.9c-1.1-0.3-2.1-0.9-2.7-1.7c0,0,0,0,0,0c0,0,0,0,0,0c0,0,0,0,0,0
				C58.3,26.6,59.1,27.4,60.5,27.9L60.5,27.9C60.6,27.8,60.6,27.8,60.5,27.9C60.6,27.8,60.6,27.8,60.5,27.9
				C60.6,27.8,60.6,27.9,60.5,27.9C60.6,27.9,60.6,27.9,60.5,27.9z M57.8,26.1L57.8,26.1L57.8,26.1C57.8,26.1,57.8,26.1,57.8,26.1
				C57.8,26.1,57.8,26.1,57.8,26.1c0.6,0.8,1.6,1.5,2.7,1.7l0,0c0,0,0,0,0,0l0,0c0,0,0,0,0,0C59.7,27.6,58.6,27.1,57.8,26.1
				C57.8,26.1,57.8,26.1,57.8,26.1z"/>
		</g>
		<g>
			<path d="M59.9,30.4L59.9,30.4C59.8,30.4,59.8,30.3,59.9,30.4c-0.2-0.7-0.4-1.3-0.8-1.7c-0.1-0.1-0.1-0.1-0.2-0.2
				c-0.2-0.2-0.4-0.4-0.4-0.7c0,0,0,0,0,0c0,0,0,0,0,0c0,0,0,0,0,0c0,0,0,0,0,0c0,0.2,0.1,0.4,0.2,0.5
				C59.4,28.7,59.7,29.5,59.9,30.4C59.9,30.3,59.9,30.4,59.9,30.4L59.9,30.4z M59.7,29.6c0.1,0.2,0.1,0.4,0.2,0.7c0,0,0,0,0,0
				c0,0,0,0,0,0C59.8,30.1,59.8,29.9,59.7,29.6z M58.8,28.2c0.1,0.1,0.1,0.1,0.2,0.2c0.1,0.1,0.1,0.1,0.2,0.2c0,0,0.1,0.1,0.1,0.1
				C59.1,28.6,59,28.4,58.8,28.2C58.8,28.2,58.8,28.2,58.8,28.2z M58.5,27.7C58.5,27.7,58.5,27.7,58.5,27.7L58.5,27.7
				c0,0.1,0,0.2,0.1,0.3C58.6,27.9,58.6,27.8,58.5,27.7C58.5,27.7,58.5,27.7,58.5,27.7z"/>
			<path d="M61.2,29.4C61.2,29.4,61.2,29.4,61.2,29.4c-1.1-0.3-2.1-0.9-2.7-1.7c0,0,0,0,0,0c0,0,0,0,0,0c0,0,0,0,0,0
				C58.9,28.2,59.7,28.9,61.2,29.4C61.2,29.3,61.2,29.3,61.2,29.4C61.2,29.3,61.2,29.3,61.2,29.4C61.2,29.4,61.2,29.4,61.2,29.4z
				 M58.5,27.6C58.5,27.6,58.5,27.6,58.5,27.6C58.5,27.6,58.5,27.6,58.5,27.6L58.5,27.6c0.6,0.8,1.6,1.5,2.7,1.7l0,0c0,0,0,0,0,0
				c0,0,0,0,0,0C60.4,29.1,59.2,28.6,58.5,27.6C58.5,27.6,58.5,27.6,58.5,27.6z"/>
		</g>
		<g>
			<polygon class="st9" points="42.5,23.8 44.6,30.2 51.4,30.2 45.9,34.2 48,40.6 42.5,36.7 37,40.6 39.1,34.2 33.6,30.2 40.4,30.2 
							"/>
			<path d="M48.2,40.9l-5.7-4.1l-5.7,4.1l2.1-6.7l-5.6-4.1l7,0l2.2-6.6l2.2,6.6l7,0l-5.6,4.1L48.2,40.9z M34,30.3l5.3,3.9l0,0.1
				l-2,6.1l5.3-3.8l0.1,0l5.2,3.8l-2-6.2l5.3-3.9l-6.5,0l0-0.1l-2-6.1l-2,6.2h-0.1L34,30.3z"/>
		</g>
		<g>
			<g>
				<path class="st8" d="M28.1,38.8c0,0,0,1,1,1.3c0,0,0,0.9,0.5,1.2c0,0-0.5,0.2-0.6-0.1c-0.1-0.3-0.2-0.5-0.4-0.5
					c-0.2-0.1-0.2,0.2-0.7,0.2c-0.5,0-0.6,0-0.9-0.1c-0.3-0.1-0.3-0.2-0.5-0.1c-0.2,0.1-0.3,0.2-0.4,0.2c-0.1,0.1-0.1,0.2-0.3,0.1
					c-0.2,0-0.2-0.1-0.4,0c-0.2,0.1-0.3,0.2-0.3,0.1c-0.1-0.2-0.2-0.2-0.1-0.3C25.2,40.6,26,38.7,28.1,38.8z"/>
			</g>
			<path class="st4" d="M27.2,39.9c0,0,0.1,0,0.1,0l0,0c0,0,0,0,0.1,0l0,0c0,0,0.1,0,0.1,0c0,0,0.1-0.1,0.1-0.1c0,0-0.1-0.1-0.1-0.1
				c0,0,0,0-0.1,0l-0.1,0l0.1,0l0.1-0.1c-0.1,0-0.1,0.1-0.2,0.1c0,0-0.1,0-0.1,0.1C27.2,39.8,27.2,39.9,27.2,39.9L27.2,39.9z"/>
			<path class="st4" d="M27.7,40.3C27.7,40.4,27.7,40.4,27.7,40.3c0.1,0.1,0.2,0.1,0.2,0C27.9,40.3,27.8,40.2,27.7,40.3
				C27.7,40.2,27.7,40.3,27.7,40.3L27.7,40.3z"/>
			<path class="st4" d="M28,40.1c0.1-0.1,0-0.2,0-0.3c0-0.1,0-0.1-0.1-0.1c-0.1,0-0.1,0-0.1,0.1c0,0.1,0,0.2,0,0.2
				c0,0,0,0.1,0.1,0.1C28,40.1,28,40.1,28,40.1L28,40.1z"/>
			<path class="st4" d="M26.3,39.8C26.3,39.8,26.3,39.9,26.3,39.8c0.1,0.1,0.2,0.1,0.2,0C26.5,39.7,26.4,39.7,26.3,39.8
				C26.3,39.7,26.3,39.7,26.3,39.8L26.3,39.8z"/>
			<path class="st4" d="M25.5,40.6C25.5,40.7,25.6,40.7,25.5,40.6c0.1,0.1,0.2,0.1,0.2,0C25.7,40.6,25.7,40.5,25.5,40.6
				C25.6,40.5,25.5,40.6,25.5,40.6L25.5,40.6z"/>
			<path class="st4" d="M26,40.7C26,40.8,26,40.8,26,40.7c0.1,0.1,0.2,0.1,0.2,0C26.2,40.7,26.1,40.6,26,40.7
				C26,40.6,26,40.7,26,40.7L26,40.7z"/>
			<path class="st4" d="M28.6,40.4C28.6,40.4,28.6,40.5,28.6,40.4c0.1,0.1,0.2,0.1,0.2,0C28.8,40.3,28.7,40.3,28.6,40.4
				C28.6,40.3,28.6,40.3,28.6,40.4L28.6,40.4z"/>
			<path class="st4" d="M27.3,39.3c0,0.1,0.1,0.2,0.2,0.2c0.1,0,0.2-0.1,0.2-0.2c0-0.1-0.1-0.2-0.2-0.2
				C27.3,39.1,27.3,39.2,27.3,39.3L27.3,39.3z"/>
			<path class="st4" d="M27.1,40.5c0,0.1,0.1,0.2,0.2,0.2c0.1,0,0.2-0.1,0.2-0.2c0-0.1-0.1-0.2-0.2-0.2
				C27.2,40.3,27.1,40.4,27.1,40.5L27.1,40.5z"/>
			<path class="st4" d="M26.6,40.2c0,0.1,0.1,0.2,0.2,0.2c0.1,0,0.2-0.1,0.2-0.2c0-0.1-0.1-0.2-0.2-0.2C26.7,40,26.6,40.1,26.6,40.2
				L26.6,40.2z"/>
			<path class="st4" d="M28.2,40c0,0.1,0.1,0.2,0.2,0.2c0.1,0,0.2-0.1,0.2-0.2c0-0.1-0.1-0.2-0.2-0.2C28.3,39.8,28.2,39.9,28.2,40
				L28.2,40z"/>
			<path class="st4" d="M28.8,40.6c0,0.1,0.1,0.2,0.2,0.2c0.1,0,0.2-0.1,0.2-0.2c0-0.1-0.1-0.2-0.2-0.2
				C28.9,40.4,28.8,40.5,28.8,40.6L28.8,40.6z"/>
			<path class="st4" d="M26,40.2c0,0.1,0.1,0.2,0.2,0.2c0.1,0,0.2-0.1,0.2-0.2c0-0.1-0.1-0.2-0.2-0.2C26.1,40,26,40.1,26,40.2
				L26,40.2z"/>
			<path class="st4" d="M26.8,39.4c0,0.1,0.1,0.2,0.1,0.2c0.1,0,0.1-0.1,0.1-0.2c0-0.1-0.1-0.1-0.1-0.1
				C26.9,39.2,26.8,39.3,26.8,39.4L26.8,39.4z"/>
			<path class="st4" d="M27.7,39.3c0,0.1,0.1,0.2,0.2,0.2c0.1,0,0.2-0.1,0.2-0.2c0-0.1-0.1-0.1-0.2-0.1
				C27.8,39.1,27.7,39.2,27.7,39.3L27.7,39.3z"/>
			<path class="st4" d="M27.8,40.5C27.8,40.6,27.8,40.6,27.8,40.5c0.1,0.1,0.2,0.1,0.2,0C28,40.5,27.9,40.4,27.8,40.5
				C27.8,40.4,27.8,40.5,27.8,40.5L27.8,40.5z"/>
			<path class="st4" d="M28.2,40.5C28.2,40.5,28.2,40.6,28.2,40.5c0.1,0.1,0.2,0.1,0.2,0C28.4,40.4,28.3,40.4,28.2,40.5
				C28.2,40.4,28.2,40.4,28.2,40.5L28.2,40.5z"/>
			<path class="st4" d="M25.2,40.9C25.2,40.9,25.2,41,25.2,40.9c0.1,0.1,0.2,0.1,0.2,0C25.4,40.8,25.3,40.8,25.2,40.9
				C25.2,40.8,25.2,40.8,25.2,40.9L25.2,40.9z"/>
			<g>
				<path class="st4" d="M25.7,40C25.7,40.1,25.7,40.1,25.7,40c0.1,0.1,0.2,0.1,0.2,0S25.8,39.9,25.7,40C25.7,39.9,25.7,40,25.7,40
					L25.7,40z"/>
			</g>
		</g>
		<g>
			<path class="st8" d="M57.1,41.7c0,0,0.3,1.2,0.1,1.5c-0.2,0.3-0.2,0.6-0.4,0.7c0,0,0.2,0.4-0.2,0.5c0,0,0.4,0.2,0,0.8
				c0,0,0.6,0.2,0.7,0.5c0.1,0.2,0.2,0.4,0.2,0.6c0,0.2,0.1,0.3,0,0.4c-0.1,0.1-0.2,0-0.2-0.1c0-0.1,0-0.3-0.1-0.4
				c-0.1-0.1-0.3,0-0.4-0.1c-0.1,0-0.4,0.1-0.8-0.2c0,0-0.8-0.2-0.9-1c0,0-0.6-0.8-0.3-1.5c0,0,0.9,0.1,1.2-0.4
				c0.3-0.4,0.5-0.9,0.4-1.2C56.3,41.9,56.9,41.9,57.1,41.7z"/>
		</g>
		<path class="st4" d="M56.5,42.7C56.5,42.7,56.5,42.7,56.5,42.7c0.1,0.1,0.2,0.1,0.2,0C56.6,42.6,56.6,42.6,56.5,42.7
			C56.5,42.6,56.5,42.6,56.5,42.7L56.5,42.7z"/>
		<path class="st4" d="M56,45.7C56,45.8,56,45.8,56,45.7c0.1,0.1,0.2,0.1,0.2,0C56.1,45.6,56.1,45.6,56,45.7
			C56,45.6,56,45.6,56,45.7L56,45.7z"/>
		<path class="st4" d="M55.4,44.8C55.4,44.9,55.5,44.9,55.4,44.8c0.1,0.1,0.2,0.1,0.2,0C55.6,44.8,55.6,44.7,55.4,44.8
			C55.5,44.7,55.4,44.8,55.4,44.8L55.4,44.8z"/>
		<path class="st4" d="M56.6,45.8C56.6,45.8,56.6,45.9,56.6,45.8c0.1,0.1,0.2,0.1,0.2,0S56.7,45.7,56.6,45.8
			C56.6,45.7,56.6,45.7,56.6,45.8L56.6,45.8z"/>
		<path class="st4" d="M57,45.9C57,46,57.1,46,57,45.9c0.1,0.1,0.2,0.1,0.2,0C57.2,45.9,57.2,45.8,57,45.9
			C57.1,45.8,57,45.9,57,45.9L57,45.9z"/>
		<path class="st4" d="M56,44.7C56,44.7,56.1,44.8,56,44.7c0.1,0.1,0.2,0.1,0.2,0C56.2,44.6,56.2,44.6,56,44.7
			C56.1,44.6,56,44.6,56,44.7L56,44.7z"/>
		<path class="st4" d="M56.2,43.5C56.2,43.6,56.2,43.6,56.2,43.5c0.1,0.1,0.2,0.1,0.2,0C56.4,43.5,56.3,43.4,56.2,43.5
			C56.2,43.4,56.2,43.5,56.2,43.5L56.2,43.5z"/>
		<path class="st4" d="M55.1,43.7C55.1,43.8,55.2,43.8,55.1,43.7c0.1,0.1,0.2,0.1,0.2,0S55.3,43.6,55.1,43.7
			C55.2,43.6,55.1,43.7,55.1,43.7L55.1,43.7z"/>
		<path class="st4" d="M55.8,44.3C55.8,44.4,55.8,44.4,55.8,44.3c0.1,0.1,0.2,0.1,0.2,0C56,44.2,55.9,44.2,55.8,44.3
			C55.8,44.2,55.8,44.2,55.8,44.3L55.8,44.3z"/>
		<path class="st4" d="M56.8,42.2C56.8,42.2,56.8,42.3,56.8,42.2c0.1,0.1,0.2,0.1,0.2,0C57,42.1,56.9,42.1,56.8,42.2
			C56.8,42.1,56.8,42.1,56.8,42.2L56.8,42.2z"/>
		<path class="st4" d="M56.9,42.6C56.9,42.6,56.9,42.7,56.9,42.6c0.1,0.1,0.2,0.1,0.2,0C57.1,42.5,57,42.5,56.9,42.6
			C56.9,42.5,56.9,42.5,56.9,42.6L56.9,42.6z"/>
		<path class="st4" d="M56.3,43.1c0,0.1,0.1,0.2,0.2,0.2c0.1,0,0.2-0.1,0.2-0.2c0-0.1-0.1-0.2-0.2-0.2C56.4,42.9,56.3,43,56.3,43.1
			L56.3,43.1z"/>
		<path class="st4" d="M55.4,43.7c0,0.1,0.1,0.2,0.2,0.2s0.2-0.1,0.2-0.2c0-0.1-0.1-0.2-0.2-0.2S55.4,43.6,55.4,43.7L55.4,43.7z"/>
		<path class="st4" d="M55.2,44.6c0.1,0,0.2,0,0.3-0.2c0,0-0.1,0.1-0.1,0.1c0.1,0,0.1-0.1,0.1-0.2c0-0.1-0.1-0.1-0.2-0.1
			c0,0.1-0.1,0.1-0.1,0.2c0,0,0-0.1,0-0.1c0,0-0.1,0-0.1,0c-0.1,0-0.2,0.1-0.1,0.2C55,44.5,55.1,44.6,55.2,44.6L55.2,44.6z"/>
		<path class="st4" d="M55.6,45.1c0,0.1,0.1,0.2,0.2,0.2c0.1,0,0.2-0.1,0.2-0.2c0-0.1-0.1-0.2-0.2-0.2C55.6,45,55.6,45,55.6,45.1
			L55.6,45.1z"/>
		<path class="st4" d="M55.4,45.7c0,0.1,0.1,0.2,0.2,0.2c0.1,0,0.2-0.1,0.2-0.2c0-0.1-0.1-0.2-0.2-0.2
			C55.5,45.5,55.4,45.6,55.4,45.7L55.4,45.7z"/>
		<path class="st4" d="M56.2,44c0,0.1,0.1,0.2,0.2,0.2c0.1,0,0.2-0.1,0.2-0.2c0-0.1-0.1-0.2-0.2-0.2C56.3,43.8,56.2,43.9,56.2,44
			L56.2,44z"/>
		<path class="st4" d="M56.1,45.4c0,0.1,0.1,0.1,0.1,0.1c0.1,0,0.1-0.1,0.1-0.1c0-0.1-0.1-0.1-0.1-0.1
			C56.2,45.2,56.1,45.3,56.1,45.4L56.1,45.4z"/>
		<path class="st4" d="M56.1,46c0,0.1,0,0.1,0.1,0.1c0.1,0,0.1-0.1,0.1-0.1c0-0.1,0-0.1-0.1-0.1C56.1,45.9,56.1,45.9,56.1,46
			L56.1,46z"/>
		<path class="st4" d="M57.2,46.4c0,0.1,0.1,0.1,0.1,0.1c0.1,0,0.1-0.1,0.1-0.1c0-0.1-0.1-0.1-0.1-0.1
			C57.2,46.3,57.2,46.3,57.2,46.4L57.2,46.4z"/>
		<path class="st4" d="M56.3,45c0,0,0.1-0.1,0.1-0.1c0,0,0-0.1,0-0.2c0,0-0.1,0-0.2,0c0,0,0,0.1-0.1,0.1c-0.1,0-0.1,0.1,0,0.2
			C56.2,45,56.3,45,56.3,45L56.3,45z"/>
		<path class="st4" d="M55.2,45.2c0,0.1,0,0.1,0.1,0.1c0.1,0,0.1-0.1,0.1-0.1c0-0.1-0.1-0.1-0.1-0.1C55.3,45.1,55.2,45.1,55.2,45.2
			L55.2,45.2z"/>
		<path class="st4" d="M54.8,44c0,0.1,0,0.1,0,0.2c0,0.1,0.1,0.1,0.1,0.1c0.1,0,0.1-0.1,0.1-0.1c0,0,0-0.1,0-0.1
			c0-0.1-0.1-0.1-0.1-0.1C54.8,43.8,54.8,43.9,54.8,44L54.8,44z"/>
		<path class="st4" d="M55.7,44.1c0,0.1,0.1,0.1,0.1,0.1c0.1,0,0.1-0.1,0.1-0.1c0-0.1,0-0.1-0.1-0.1C55.7,43.9,55.7,44,55.7,44.1
			L55.7,44.1z"/>
		<path class="st4" d="M56.7,43.1c0,0.1,0.1,0.1,0.1,0.1c0.1,0,0.1,0,0.1-0.1c0-0.1-0.1-0.1-0.1-0.1C56.7,42.9,56.7,43,56.7,43.1
			L56.7,43.1z"/>
		<g>
			<path class="st4" d="M56.4,42.1C56.4,42.1,56.4,42.1,56.4,42.1c-0.1,0.1,0,0.2,0,0.2c0.1,0,0.1,0,0.1-0.1c0,0,0-0.1,0-0.1
				c0-0.1,0-0.1-0.1-0.1C56.5,42,56.5,42,56.4,42.1L56.4,42.1z"/>
		</g>
		<g>
			<path class="st5" d="M29.7,41.5c0,0,0.2,0.2,0.4,0.2c0,0-0.2,2,0.1,2.4c0.3,0.5,0.3,0.4,0.5,0.8c0.2,0.4,0.1,0.1,0.1,0.3
				c0,0-0.1-0.2-0.4-0.4c-0.2-0.2-0.2,0-0.6-0.5c-0.4-0.5-0.3-0.5-0.5-0.9c-0.1-0.4-0.2-1.6-0.2-1.8C29.3,41.6,29.5,41.7,29.7,41.5z
				"/>
		</g>
		<g>
			<path class="st5" d="M30.6,42.6c0,0,0.4,0.6,0.7,0.5c0,0,0.1,0.5,0.1,0.7c0,0.2-0.1,0.2,0,0.3c0.1,0.2,0.1,0,0.3,0.3
				c0.3,0.3,0.6,0.4,0.7,0.9c0.2,0.5,0.2,0.6,0.2,0.8c0,0.3,0.1,0.3,0.1,0.5c0,0-0.2-0.4-0.4-0.8c-0.2-0.4-0.1-0.3-0.5-0.6
				c-0.4-0.2-1-0.5-1.2-0.8C30.5,44.1,30.3,43.3,30.6,42.6z"/>
		</g>
		<g>
			<path class="st5" d="M59.8,38c0,0,1.2,1.1,0.4,3.6c-0.8,2.5-0.3,0.7-0.4,1.2c0,0,0-0.8,0.1-1.5c0.1-0.7,0.2-0.4,0.1-0.9
				c-0.2-0.5-0.3-0.9-0.9-1.5C59,39,59.8,38.6,59.8,38z"/>
		</g>
		<g>
			<path class="st5" d="M58.9,39.2c0,0,0.5,0.5,0.5,1.1c0,0.6,0,0.6-0.1,1.1c-0.1,0.5-0.2,0.6-0.4,1.1c-0.2,0.6-0.2,0.4-0.5,0.8
				c-0.3,0.4-0.2,0.2-0.6,0.6c-0.3,0.4-0.3,0.1-0.4,0.5c0,0,0.2-0.4,0.4-0.9c0.3-0.5,0.6-0.8,0.7-1.6c0.1-0.8,0.1-1.2-0.1-1.5
				c-0.2-0.2-0.2-0.3-0.2-0.3S58.9,39.9,58.9,39.2z"/>
		</g>
		<path class="st6" d="M59.8,38c0,0,0.8,0.9,0.7,2.1c-0.1,1.2-0.1,0.5-0.1,0.8c-0.1,0.3-0.2,0.2-0.3-0.1c-0.1-0.3-0.2-1.4-1-1.9
			C59,39,59.7,38.3,59.8,38z"/>
		<g>
			<path class="st6" d="M58.9,39.2c0,0,1.3,0.9,0,3.4c-0.3,0.6-0.1,0.3-0.2,0.4c-0.1,0.1-0.3,0.1-0.2-0.2c0.1-0.4,0.3-0.8,0.3-1.1
				c0-0.3,0-1.1-0.6-1.4C58.1,40.2,58.7,39.9,58.9,39.2z"/>
		</g>
		<g>
			<path class="st6" d="M29.7,41.5c0,0,0.3,0.2,0.5,0.2c0,0-0.1,1,0,1.6c0.1,0.5,0,0.3,0.1,0.6c0.1,0.3-0.1,0.3-0.1,0.3
				s0.1,0.2-0.3-0.4c-0.4-0.5-0.2-0.2-0.4-0.7c-0.2-0.4-0.2-1.1-0.2-1.5C29.2,41.6,29.6,41.6,29.7,41.5z"/>
		</g>
		<g>
			<path class="st6" d="M31.3,43.1c0,0,0.1,0.7,0.1,0.9c0,0.1,0.2,0.3,0.2,0.3s0.1,0.1,0.2,0.2c0.1,0.2,0.1,0.1,0.2,0.3
				c0.1,0.2,0.2,0.4,0,0.3c-0.2-0.2,0-0.2-0.3-0.3c-0.2-0.1-0.3-0.1-0.5-0.2c-0.2-0.1-0.3-0.1-0.5-0.2c-0.2-0.2-0.2-0.1-0.3-0.4
				c0-0.3,0-0.9,0.1-1.3C30.5,42.6,31,43.1,31.3,43.1z"/>
		</g>
	</g>
	<path class="st10" d="M20.1,5.9"/>
	<path class="st11" d="M20.1,5.9"/>
</g>
</svg>
