<?xml version="1.0" encoding="utf-8"?>
<!-- Generator: Adobe Illustrator 22.1.0, SVG Export Plug-In . SVG Version: 6.00 Build 0)  -->
<svg version="1.1" id="Layer_1" xmlns="http://www.w3.org/2000/svg" xmlns:xlink="http://www.w3.org/1999/xlink" x="0px" y="0px"
	 viewBox="0 0 85 56.7" style="enable-background:new 0 0 85 56.7;" xml:space="preserve">
<style type="text/css">
	.st0{fill:#169A4B;}
	.st1{fill:#E92627;}
	.st2{fill:#254297;}
	.st3{fill:#FFC92C;}
	.st4{fill:#130C15;}
</style>
<g>
	<rect x="3.1" y="35.6" class="st0" width="78" height="15.9"/>
	<rect x="3.1" y="20.5" class="st1" width="78" height="15.6"/>
	<rect x="3.1" y="5.3" class="st2" width="78" height="15.4"/>
	<path class="st3" d="M11.3,28.8c0,9.3,7.6,16.9,16.9,16.9c9.3,0,16.9-7.6,16.9-16.9c0-9.3-7.6-16.9-16.9-16.9
		C18.9,11.9,11.3,19.5,11.3,28.8z"/>
	<path class="st4" d="M28.3,30.3c1.2,0,2.2-1,2.2-2.2c0-1.2-1-2.2-2.2-2.2c-1.2,0-2.2,1-2.2,2.2C26.1,29.3,27.1,30.3,28.3,30.3z
		 M26,35.7c0,1.2,1,2.2,2.2,2.2c1.2,0,2.2-1,2.2-2.2c0-1.2-1-2.2-2.2-2.2C27,33.5,26,34.5,26,35.7z M28.3,24.4
		c-2.4,0-3.3,0.7-3.3,0.7s0.7,0.6,3.3,0.6c2.5,0,3.3-0.7,3.3-0.7S30.7,24.4,28.3,24.4z M31.7,23c0-1.2,0-2.5,0-2.5h-0.3
		c0,2.3-0.6,2.5-1.2,2.5c-0.6,0-1.8,0-1.8,0s-1.3,0-1.8,0c-0.6,0-1.2-0.2-1.2-2.5h-0.3c0,0,0,1.3,0,2.5c0,1.2,1.2,1.2,1.5,1.2
		c0.3,0,1.8,0,1.8,0s1.5,0,1.8,0C30.5,24.2,31.7,24.2,31.7,23z M28.7,17.2c0.1,0,0.2,0,0.2,0c0.1,0.1,1.4,0.8,1.4,0.7
		c0-0.2-0.4-0.5-0.6-0.6c-0.2-0.1-0.1-0.2-0.1-0.4c0.1-0.6,0-1.1-0.3-1.6c-0.2-0.2-0.5-0.3-0.9-0.3c0-0.9-0.1-1.9-0.1-3h-0.1v0
		l-0.1,0c0,1.1-0.1,2.1-0.1,3c-0.1,0-0.2,0-0.3,0c-0.1,0-0.3-0.2-0.4-0.3c-0.1-0.1-0.5,0-0.7-0.1c-0.2,0-0.5-0.4-0.5-0.3
		c0,0.7,1.2,1.3,1.2,1.5c0,0.2,0,0.7,0.4,1c0,0,0.1,0.1,0.1,0.1c-0.1,0.9-0.3,1.5-0.5,1.6c-0.3,0.2-1.4,0.7-1.4,1.8
		c0,1.6,0.5,2.3,2.2,2.3v0c1.8,0,2.3-0.7,2.3-2.3c0-1.1-1.1-1.6-1.4-1.8C29,18.6,28.8,18,28.7,17.2z M25,31.1c0,0,0.8,0.7,3.3,0.7
		c2.4,0,3.3-0.7,3.3-0.7s-0.8-0.7-3.3-0.7C25.7,30.5,25,31.1,25,31.1z M26.5,33.3c0.6,0,1.8,0,1.8,0s1.3,0,1.8,0
		c0.6,0,1.2,0.2,1.2,2.5h0.3c0,0,0-1.3,0-2.5c0-1.2-1.2-1.2-1.5-1.2c-0.3,0-1.8,0-1.8,0s-1.5,0-1.8,0c-0.3,0-1.5,0.1-1.5,1.2
		c0,1.2,0,2.5,0,2.5h0.3C25.3,33.5,25.9,33.3,26.5,33.3z M28.3,45.8L28.3,45.8c3.3,0,6-1.4,6-1.4C31.8,40.5,29,39,29,39v-0.8h-0.7v0
		h-0.6V39c0,0-2.8,1.6-5.4,5.5C22.3,44.5,25,45.8,28.3,45.8z"/>
</g>
</svg>
