<?xml version="1.0" encoding="utf-8"?>
<!-- Generator: Adobe Illustrator 22.1.0, SVG Export Plug-In . SVG Version: 6.00 Build 0)  -->
<svg version="1.1" id="Layer_1" xmlns="http://www.w3.org/2000/svg" xmlns:xlink="http://www.w3.org/1999/xlink" x="0px" y="0px"
	 viewBox="0 0 85 56.7" style="enable-background:new 0 0 85 56.7;" xml:space="preserve">
<style type="text/css">
	.st0{fill:#FFD100;}
	.st1{fill:#FFFFFF;}
	.st2{fill:#2E3192;}
	.st3{fill:#ED1C24;}
	.st4{fill:none;}
	.st5{clip-path:url(#SVGID_2_);fill:#ED1C24;}
	.st6{clip-path:url(#SVGID_4_);fill:#ED1C24;}
	.st7{clip-path:url(#SVGID_10_);fill:#ED1C24;}
	.st8{clip-path:url(#SVGID_12_);fill:#ED1C24;}
</style>
<g>
	<g>
		<rect x="4.6" y="6.4" class="st0" width="78.1" height="46"/>
		<rect x="4.6" y="6.2" class="st1" width="40" height="26.2"/>
		<polygon class="st2" points="44.7,23.1 44.7,32.2 31.6,23.1 		"/>
		<rect x="4.7" y="18.5" class="st3" width="40" height="3.4"/>
		<rect x="23.1" y="6.6" class="st3" width="3.4" height="25.9"/>
		<path class="st2" d="M21.9,6.5"/>
		<path class="st4" d="M21.9,6.5"/>
		<g>
			<defs>
				<rect id="SVGID_1_" x="4.7" y="6.5" width="17.3" height="11.1"/>
			</defs>
			<clipPath id="SVGID_2_">
				<use xlink:href="#SVGID_1_"  style="overflow:visible;"/>
			</clipPath>
			<rect x="12" y="0.2" transform="matrix(0.5562 -0.831 0.831 0.5562 -4.2832 15.8012)" class="st5" width="1.2" height="23.4"/>
		</g>
		<polygon class="st2" points="4.7,17.6 4.7,8.4 18.4,17.6 		"/>
		<polygon class="st2" points="21.9,6.5 21.9,15.2 9.2,6.5 		"/>
		<g>
			<defs>
				<polygon id="SVGID_3_" points="27.4,17.6 27.4,6.5 44.7,6.5 44.7,17.6 				"/>
			</defs>
			<clipPath id="SVGID_4_">
				<use xlink:href="#SVGID_3_"  style="overflow:visible;"/>
			</clipPath>
			
				<rect x="24.6" y="11.7" transform="matrix(0.8307 -0.5567 0.5567 0.8307 -0.6924 22.2724)" class="st6" width="23.4" height="1.2"/>
		</g>
		<polygon class="st2" points="44.8,17.5 44.8,9.3 32.4,17.5 		"/>
		<polygon class="st2" points="27.5,6.5 27.5,16.2 41.9,6.5 		"/>
		<g>
			<defs>
				<polyline id="SVGID_5_" points="4.7,34.1 4.7,23 21.9,23 				"/>
			</defs>
			<clipPath id="SVGID_6_">
				<use xlink:href="#SVGID_5_"  style="overflow:visible;"/>
			</clipPath>
		</g>
		<polygon class="st2" points="21.9,32.4 21.9,24.2 9.6,32.4 		"/>
		<g>
			<polygon class="st2" points="4.7,23 4.7,30.7 16,23 			"/>
		</g>
		<g>
			<defs>
				<polyline id="SVGID_7_" points="44.8,34.1 44.8,23 27.5,23 				"/>
			</defs>
			<clipPath id="SVGID_8_">
				<use xlink:href="#SVGID_7_"  style="overflow:visible;"/>
			</clipPath>
		</g>
		<polygon class="st2" points="27.5,32.4 27.5,24.9 38.8,32.4 		"/>
		<g>
			<defs>
				<rect id="SVGID_9_" x="27.5" y="23" width="17.5" height="9.4"/>
			</defs>
			<clipPath id="SVGID_10_">
				<use xlink:href="#SVGID_9_"  style="overflow:visible;"/>
			</clipPath>
			
				<rect x="35.2" y="18.5" transform="matrix(0.5818 -0.8134 0.8134 0.5818 -7.6619 40.8032)" class="st7" width="1.2" height="18.7"/>
		</g>
		<g>
			<defs>
				<rect id="SVGID_11_" x="4.7" y="23" width="17.3" height="9.4"/>
			</defs>
			<clipPath id="SVGID_12_">
				<use xlink:href="#SVGID_11_"  style="overflow:visible;"/>
			</clipPath>
			
				<rect x="4.3" y="27.1" transform="matrix(0.8303 -0.5572 0.5572 0.8303 -13.1198 12.4142)" class="st8" width="19.1" height="1.2"/>
		</g>
	</g>
	<path class="st2" d="M24.8,17.8c-1.3,0-2.4,1.1-2.4,2.4c0,1.3,1.1,2.4,2.4,2.4c1.3,0,2.4-1.1,2.4-2.4
		C27.2,18.9,26.1,17.8,24.8,17.8z"/>
	<polygon class="st0" points="24.8,17.9 25.4,19.5 27,19.5 25.7,20.5 26.2,22 24.8,21.1 23.5,22 24,20.5 22.6,19.5 24.3,19.5 	"/>
	<polygon class="st0" points="13.7,18.7 14.1,19.9 15.3,19.9 14.3,20.6 14.7,21.7 13.7,21 12.7,21.7 13.1,20.6 12.1,19.9 13.3,19.9 
			"/>
	<polygon class="st0" points="35.8,18.7 36.2,19.8 37.4,19.8 36.4,20.5 36.8,21.7 35.8,21 34.8,21.7 35.2,20.5 34.2,19.8 35.4,19.8 
			"/>
	<polygon class="st0" points="24.8,11.4 25.2,12.6 26.4,12.6 25.5,13.3 25.8,14.4 24.8,13.7 23.9,14.4 24.2,13.3 23.2,12.6 
		24.5,12.6 	"/>
	<polygon class="st0" points="24.8,25.6 25.2,26.8 26.4,26.8 25.5,27.5 25.8,28.7 24.8,28 23.9,28.7 24.2,27.5 23.2,26.8 24.5,26.8 
			"/>
</g>
</svg>
