<?xml version="1.0" encoding="utf-8"?>
<!-- Generator: Adobe Illustrator 22.1.0, SVG Export Plug-In . SVG Version: 6.00 Build 0)  -->
<svg version="1.1" id="Layer_1" xmlns="http://www.w3.org/2000/svg" xmlns:xlink="http://www.w3.org/1999/xlink" x="0px" y="0px"
	 viewBox="0 0 85 56.7" style="enable-background:new 0 0 85 56.7;" xml:space="preserve">
<style type="text/css">
	.st0{fill:#2E3192;}
	.st1{fill:#FFFFFF;}
	.st2{fill:#ED1C24;}
</style>
<g>
	<g>
		<rect x="2.6" y="5.4" class="st0" width="78.1" height="46.1"/>
		<polygon class="st1" points="2.7,5.3 7.3,5.3 20,14.1 20,5.4 25.6,5.4 25.6,15.1 40,5.3 42.7,5.3 42.7,8.7 31.1,16.5 42.7,16.5 
			42.7,22 29.8,22 42.7,31.4 36.8,31.4 25.6,23.9 25.6,31.4 20,31.4 20,23.2 7.6,31.4 2.7,31.4 2.7,29.7 14,22 2.7,22 2.7,16.5 
			16.4,16.5 2.7,7.3 		"/>
		<polygon class="st2" points="20.2,16.5 3.7,5.3 2.6,5.3 2.6,6.1 18.1,16.5 		"/>
		<polygon class="st2" points="25.4,16.5 42,5.3 42.7,5.3 42.7,6.4 27.6,16.5 		"/>
		<polygon class="st2" points="28.2,22 41.4,31.4 39.3,31.4 26.1,22 		"/>
		<polygon class="st2" points="20,22 6,31.4 3.8,31.4 17.8,22 		"/>
		<rect x="2.7" y="17.5" class="st2" width="40.1" height="3.4"/>
		<rect x="21.2" y="5.4" class="st2" width="3.4" height="26"/>
	</g>
	<g>
		<polygon class="st1" points="68.2,41.5 64.9,44.4 65.8,48.7 62.1,46.4 58.3,48.7 59.3,44.4 56,41.5 60.4,41.1 62.1,37.1 
			63.8,41.1 		"/>
		<polygon class="st2" points="66.4,42.1 64,44.1 64.7,47.1 62.1,45.5 59.4,47.1 60.1,44.1 57.8,42 60.9,41.8 62.1,39 63.3,41.8 		
			"/>
	</g>
	<g>
		<polygon class="st1" points="77.3,24.4 74,27.2 74.9,31.5 71.2,29.3 67.4,31.5 68.4,27.2 65.1,24.3 69.5,23.9 71.2,19.9 72.9,24 
					"/>
		<polygon class="st2" points="75.4,24.9 73.1,26.9 73.8,29.9 71.2,28.3 68.5,29.9 69.2,26.9 66.9,24.9 70,24.6 71.2,21.8 
			72.4,24.6 		"/>
	</g>
	<g>
		<polygon class="st1" points="58.4,26.8 55.1,29.7 56.1,34 52.3,31.7 48.5,33.9 49.5,29.7 46.2,26.8 50.6,26.4 52.4,22.4 
			54.1,26.4 		"/>
		<polygon class="st2" points="56.6,27.4 54.3,29.4 54.9,32.4 52.3,30.8 49.7,32.3 50.4,29.4 48.1,27.3 51.1,27.1 52.4,24.2 
			53.5,27.1 		"/>
	</g>
	<g>
		<polygon class="st1" points="68.6,14.7 65.2,17.6 66.2,21.9 62.4,19.6 58.6,21.8 59.7,17.6 56.4,14.7 60.7,14.3 62.5,10.3 
			64.2,14.3 		"/>
		<polygon class="st2" points="66.7,15.3 64.4,17.3 65.1,20.3 62.4,18.7 59.8,20.2 60.5,17.3 58.2,15.2 61.2,15 62.5,12.1 63.7,15 
					"/>
	</g>
</g>
</svg>
