<?xml version="1.0" encoding="utf-8"?>
<!-- Generator: Adobe Illustrator 22.1.0, SVG Export Plug-In . SVG Version: 6.00 Build 0)  -->
<svg version="1.1" id="Layer_1" xmlns="http://www.w3.org/2000/svg" xmlns:xlink="http://www.w3.org/1999/xlink" x="0px" y="0px"
	 viewBox="0 0 85 56.7" style="enable-background:new 0 0 85 56.7;" xml:space="preserve">
<style type="text/css">
	.st0{fill:#FFFFFF;}
	.st1{fill:#FFDD00;}
	.st2{fill:#00A1E4;}
	.st3{fill:#FFFFFF;stroke:#FFFFFF;stroke-width:1.0713;}
	.st4{fill:#EA1D25;}
	.st5{fill:#AE1217;}
	.st6{fill:#FAA61A;}
	.st7{fill:none;}
	.st8{fill:#ED1C24;}
</style>
<g>
	<rect x="3.4" y="16" class="st0" width="77.9" height="26.2"/>
	<path class="st1" d="M42.1,31.1H30.4c0,0-0.4-2-0.2-3.3l11.9,2.4l11.9-2.4c0,0,0.3,1.6-0.3,3.3H42.1z"/>
	<path class="st1" d="M42.1,29.7l-11.7-2.8c0,0,0.1-1.8,0.8-3.1l11,5.1L53,23.8c0,0,0.8,1.7,0.9,3.1L42.1,29.7z"/>
	<path class="st1" d="M42.1,28.2L31.5,23c0,0,0.6-1.5,1.6-2.3l9,7l9-7.1c0,0,0.9,0.9,1.5,2.3L42.1,28.2z"/>
	<path class="st1" d="M42.1,27.2l-8.3-7.3c0,0,1-1,2.1-1.6l6.2,8.3l6.4-8.3c0,0,1.3,0.8,1.9,1.5L42.1,27.2z"/>
	<path class="st1" d="M42.1,26.1l-5.4-8.2c0,0,1.6-0.8,2.6-1l2.8,8.5l2.7-8.4c0,0,1.7,0.3,2.7,1L42.1,26.1z"/>
	<path class="st2" d="M50.7,36.5H33.4c0,0-0.5-0.5-0.7-0.9c0,0,0.2,0.2,0.8-0.1c0.6-0.3,0.5-0.5,1.5-0.5c1.1,0,1.1,0.7,2.3,0.7
		c0.6,0,0.9-0.7,2.2-0.7c1.4,0,1.5,0.7,2.7,0.7c1.4,0,1.3-0.7,2.8-0.7c1.1,0,1.5,0.5,2.4,0.5c1.3,0,1.1-0.6,2.1-0.6
		c0.8,0,1.2,1.1,2.2,0.5C51.6,35.4,50.9,36.3,50.7,36.5z"/>
	<path class="st2" d="M49.8,37.3c-1.1,0-1.2-0.5-2.3-0.5c-1.4,0-1.4,0.7-2.8,0.7c-1.1,0-1.2-0.7-2.6-0.7c-1.2,0-1.5,0.7-2.3,0.7
		c-1.1,0-1.2-0.6-2.3-0.7c-1.2,0-1.4,0.6-3,0.6c-0.5,0,1.2,0.9,1.2,0.9h12.9"/>
	<path class="st2" d="M53.1,32.9h-22c0,0-0.4-0.6-0.4-1.1c0,0,0.3,0.4,1.6,0c0.6-0.2,1.1-0.5,2.2-0.5c1.1,0,1.6,0.7,2.8,0.7
		c0.6,0,0.9-0.7,2.2-0.7c1.4,0,1.5,0.7,2.7,0.7c1.4,0,1.3-0.7,2.8-0.7c1.1,0,1.5,0.5,2.4,0.5c1.7,0,1.9-0.5,3.1-0.5
		c1.4,0,2.1,1,3.1,0.4C53.5,31.8,53.3,32.6,53.1,32.9z"/>
	<path class="st2" d="M52.1,34.7H32c-0.2-0.2-0.7-1.3-0.7-1.3c0.2-0.1,0.4-0.2,0.9-0.2c1.1,0,1.1,0.7,2.3,0.7c0.6,0,0.9-0.7,2.2-0.7
		c1.4,0,1.5,0.7,2.7,0.7c1.4,0,1.3-0.7,2.8-0.7c1.1,0,1.5,0.5,2.4,0.5c1.3,0,1.1-0.6,2.1-0.6c0.9,0,1.2,1,2.2,0.5
		c0.3-0.2,0.9-0.5,1.8-0.5c0.9,0,1.4,0.6,2,0.5C52.7,33.7,52.4,34.3,52.1,34.7z"/>
	<path class="st2" d="M46.4,39.3c-0.7-0.2-0.9-0.6-2-0.6c-1.2,0-1.5,0.7-2.3,0.7c-1.1,0-1.2-0.7-2.3-0.7c-1.2,0-1.7,0.7-2.3,0.7
		c0,0,1.9,0.8,4.5,0.8C44.8,40.2,46.4,39.3,46.4,39.3z"/>
	<g>
		<path class="st3" d="M44,27.5v-7.1c0,0-1.8-0.1-1.8-1.4c0-1.2,1.4-2.3,2.7-2.4c0,0-3.3-0.3-4.6,1.1c-0.7,0.9-0.6,1.6-0.6,2.3
			c0,0.7,0,4.2,0,4.9C39.7,26.4,44,27.5,44,27.5z"/>
		<path class="st3" d="M43.9,31.1c0,0-0.8,0.1-0.6,1.2c0.1,0.6,1.4,1.2,2.1,1.2c0.7,0,2.4-0.8,2.4-2.4c0-1.7,0-5.4,0-5.8
			c0-0.4-0.3-0.6-0.3-0.6s-1,0-1,1.1c0,1,0,4.8,0,5.3c0,0.6-0.7,0.8-1.2,0.7C44.8,31.5,44.4,31.1,43.9,31.1z"/>
		<path class="st3" d="M47.1,22.3c0.2,0,0.6,0.1,0.6,0.7c-0.1,0.4-0.5,0.4-0.5,0.4c-0.1,0.2,0.2,0.1,0.3,0.4c0.1,0.3,0.4,0.6,0,0.8
			c0,0-0.5,0-0.7,0.3c-0.2,0.3-0.7-0.5-0.7-0.5c-0.1-0.4,0.4-0.8,0.4-0.8c0.1-0.2,0.1-0.7,0-0.9C46.5,22.5,46.8,22.2,47.1,22.3z"/>
		<path class="st3" d="M38.1,30.4c0,0.3,0.3,0.6,0.6,0.6h6.7c0.3,0,0.6-0.3,0.6-0.6l0,0c0-0.3-0.3-0.6-0.6-0.6h-6.7
			C38.4,29.8,38.1,30.1,38.1,30.4L38.1,30.4z"/>
		<path class="st3" d="M45.6,28.1c-0.1-0.1-0.2-0.1-0.2-0.2c0.1-0.1,0.1-0.2,0.1-0.3c0-0.2-0.1-0.4-0.3-0.4c-0.2,0-0.3,0.2-0.3,0.4
			c0,0.1,0,0.2,0.1,0.2c-0.1,0.2,0,0.7,0.1,1c0.1,0.3-0.1,0.4-0.3,0.5c-0.1,0.1,0.1,0.4,0.4,0.4c0.3,0,0.4-0.2,0.3-0.4
			c-0.1-0.2,0.1-0.5,0.2-0.6C45.8,28.6,45.8,28.3,45.6,28.1z"/>
		<path class="st3" d="M44.1,28.1c-0.1-0.1-0.2-0.1-0.2-0.2c0.1-0.1,0.1-0.2,0.1-0.3c0-0.2-0.1-0.4-0.3-0.4c-0.2,0-0.3,0.2-0.3,0.4
			c0,0.1,0,0.2,0.1,0.2c-0.1,0.2,0,0.7,0.1,1c0.1,0.3-0.1,0.4-0.3,0.5c-0.1,0.1,0.1,0.4,0.4,0.4c0.3,0,0.4-0.2,0.3-0.4
			c-0.1-0.2,0.1-0.5,0.2-0.6C44.3,28.6,44.3,28.3,44.1,28.1z"/>
		<path class="st3" d="M42.5,28.1c-0.1-0.1-0.2-0.1-0.2-0.2c0.1-0.1,0.1-0.2,0.1-0.3c0-0.2-0.1-0.4-0.3-0.4c-0.2,0-0.3,0.2-0.3,0.4
			c0,0.1,0,0.2,0.1,0.2c-0.1,0.2,0,0.7,0.1,1c0.1,0.3-0.1,0.4-0.3,0.5c-0.1,0.1,0.1,0.4,0.4,0.4s0.4-0.2,0.3-0.4
			c-0.1-0.2,0.1-0.5,0.2-0.6C42.7,28.6,42.7,28.2,42.5,28.1z"/>
		<path class="st3" d="M38.5,28.1c0.1-0.1,0.2-0.1,0.2-0.2c-0.1-0.1-0.1-0.2-0.1-0.3c0-0.2,0.1-0.4,0.3-0.4c0.2,0,0.3,0.2,0.3,0.4
			c0,0.1,0,0.2-0.1,0.2c0.1,0.2,0,0.7-0.1,1c-0.1,0.3,0.1,0.4,0.3,0.5c0.1,0.1-0.1,0.4-0.4,0.4c-0.3,0-0.4-0.2-0.3-0.4
			c0.1-0.2-0.1-0.5-0.2-0.6C38.3,28.5,38.3,28.2,38.5,28.1z"/>
		<path class="st3" d="M40,28.1c0.1-0.1,0.2-0.1,0.2-0.2c-0.1-0.1-0.1-0.2-0.1-0.3c0-0.2,0.1-0.4,0.3-0.4c0.2,0,0.3,0.2,0.3,0.4
			c0,0.1,0,0.2-0.1,0.2c0.1,0.2,0,0.7-0.1,1c-0.1,0.3,0.1,0.4,0.3,0.5c0.1,0.1-0.1,0.4-0.4,0.4c-0.3,0-0.4-0.2-0.3-0.4
			c0.1-0.2-0.1-0.5-0.2-0.6C39.8,28.5,39.8,28.2,40,28.1z"/>
		<path class="st3" d="M40.2,31.1c0,0,0.8,0.1,0.6,1.2c-0.1,0.6-1.4,1.2-2.1,1.2c-0.7,0-2.4-0.8-2.4-2.4c0-1.7,0-5.4,0-5.8
			c0-0.4,0.3-0.6,0.3-0.6s1,0,1,1.1c0,1,0,4.8,0,5.3c0,0.6,0.7,0.8,1.2,0.7C39.4,31.6,39.8,31.1,40.2,31.1z"/>
		<path class="st3" d="M37,22.3c-0.2,0-0.6,0.1-0.6,0.7c0.1,0.4,0.5,0.4,0.5,0.4c0.1,0.2-0.2,0.1-0.3,0.4c-0.1,0.3-0.4,0.6,0,0.8
			c0,0,0.5,0,0.7,0.3c0.2,0.3,0.7-0.5,0.7-0.5c0.1-0.4-0.4-0.8-0.4-0.8c-0.1-0.2-0.1-0.7,0-0.9C37.7,22.5,37.3,22.3,37,22.3z"/>
	</g>
	<path class="st4" d="M44,27.6v-7.1c0,0-1.8-0.1-1.8-1.4c0-1.2,1.4-2.3,2.7-2.4c0,0-3.3-0.3-4.6,1.1c-0.7,0.9-0.6,1.6-0.6,2.3
		c0,0.7,0,4.2,0,4.9C39.7,26.5,44,27.6,44,27.6z"/>
	<path class="st4" d="M43.9,31.2c0,0-0.8,0.1-0.6,1.2c0.1,0.6,1.4,1.2,2.1,1.2c0.7,0,2.4-0.8,2.4-2.4c0-1.7,0-5.4,0-5.8
		c0-0.4-0.3-0.6-0.3-0.6s-1,0-1,1.1c0,1,0,4.8,0,5.3c0,0.6-0.7,0.8-1.2,0.7C44.8,31.6,44.4,31.2,43.9,31.2z"/>
	<path class="st5" d="M47.1,22.4c0.2,0,0.6,0.1,0.6,0.7c-0.1,0.4-0.5,0.4-0.5,0.4c-0.1,0.2,0.2,0.1,0.3,0.4c0.1,0.3,0.4,0.6,0,0.8
		c0,0-0.5,0-0.7,0.3c-0.2,0.3-0.7-0.5-0.7-0.5c-0.1-0.4,0.4-0.8,0.4-0.8c0.1-0.2,0.1-0.7,0-0.9C46.5,22.5,46.8,22.3,47.1,22.4z"/>
	<path class="st4" d="M38.1,30.5c0,0.3,0.3,0.6,0.6,0.6h6.7c0.3,0,0.6-0.3,0.6-0.6l0,0c0-0.3-0.3-0.6-0.6-0.6h-6.7
		C38.4,29.9,38.1,30.1,38.1,30.5L38.1,30.5z"/>
	<path class="st5" d="M45.6,28.2c-0.1-0.1-0.2-0.1-0.2-0.2c0.1-0.1,0.1-0.2,0.1-0.3c0-0.2-0.1-0.4-0.3-0.4c-0.2,0-0.3,0.2-0.3,0.4
		c0,0.1,0,0.2,0.1,0.2c-0.1,0.2,0,0.7,0.1,1c0.1,0.3-0.1,0.4-0.3,0.5c-0.1,0.1,0.1,0.4,0.4,0.4c0.3,0,0.4-0.2,0.3-0.4
		c-0.1-0.2,0.1-0.5,0.2-0.6C45.8,28.7,45.8,28.3,45.6,28.2z"/>
	<path class="st5" d="M44.1,28.2c-0.1-0.1-0.2-0.1-0.2-0.2c0.1-0.1,0.1-0.2,0.1-0.3c0-0.2-0.1-0.4-0.3-0.4c-0.2,0-0.3,0.2-0.3,0.4
		c0,0.1,0,0.2,0.1,0.2c-0.1,0.2,0,0.7,0.1,1c0.1,0.3-0.1,0.4-0.3,0.5c-0.1,0.1,0.1,0.4,0.4,0.4c0.3,0,0.4-0.2,0.3-0.4
		c-0.1-0.2,0.1-0.5,0.2-0.6C44.3,28.7,44.3,28.3,44.1,28.2z"/>
	<path class="st5" d="M42.5,28.2c-0.1-0.1-0.2-0.1-0.2-0.2c0.1-0.1,0.1-0.2,0.1-0.3c0-0.2-0.1-0.4-0.3-0.4c-0.2,0-0.3,0.2-0.3,0.4
		c0,0.1,0,0.2,0.1,0.2c-0.1,0.2,0,0.7,0.1,1c0.1,0.3-0.1,0.4-0.3,0.5c-0.1,0.1,0.1,0.4,0.4,0.4s0.4-0.2,0.3-0.4
		c-0.1-0.2,0.1-0.5,0.2-0.6C42.7,28.6,42.7,28.3,42.5,28.2z"/>
	<path class="st5" d="M38.5,28.1c0.1-0.1,0.2-0.1,0.2-0.2c-0.1-0.1-0.1-0.2-0.1-0.3c0-0.2,0.1-0.4,0.3-0.4c0.2,0,0.3,0.2,0.3,0.4
		c0,0.1,0,0.2-0.1,0.2c0.1,0.2,0,0.7-0.1,1c-0.1,0.3,0.1,0.4,0.3,0.5c0.1,0.1-0.1,0.4-0.4,0.4c-0.3,0-0.4-0.2-0.3-0.4
		c0.1-0.2-0.1-0.5-0.2-0.6C38.3,28.6,38.3,28.3,38.5,28.1z"/>
	<path class="st5" d="M40,28.1c0.1-0.1,0.2-0.1,0.2-0.2c-0.1-0.1-0.1-0.2-0.1-0.3c0-0.2,0.1-0.4,0.3-0.4c0.2,0,0.3,0.2,0.3,0.4
		c0,0.1,0,0.2-0.1,0.2c0.1,0.2,0,0.7-0.1,1c-0.1,0.3,0.1,0.4,0.3,0.5c0.1,0.1-0.1,0.4-0.4,0.4c-0.3,0-0.4-0.2-0.3-0.4
		c0.1-0.2-0.1-0.5-0.2-0.6C39.8,28.6,39.8,28.3,40,28.1z"/>
	<path class="st4" d="M40.2,31.2c0,0,0.8,0.1,0.6,1.2c-0.1,0.6-1.4,1.2-2.1,1.2c-0.7,0-2.4-0.8-2.4-2.4c0-1.7,0-5.4,0-5.8
		c0-0.4,0.3-0.6,0.3-0.6s1,0,1,1.1c0,1,0,4.8,0,5.3c0,0.6,0.7,0.8,1.2,0.7C39.4,31.6,39.8,31.2,40.2,31.2z"/>
	<path class="st5" d="M37,22.4c-0.2,0-0.6,0.1-0.6,0.7c0.1,0.4,0.5,0.4,0.5,0.4c0.1,0.2-0.2,0.1-0.3,0.4c-0.1,0.3-0.4,0.6,0,0.8
		c0,0,0.5,0,0.7,0.3c0.2,0.3,0.7-0.5,0.7-0.5c0.1-0.4-0.4-0.8-0.4-0.8c-0.1-0.2-0.1-0.7,0-0.9C37.7,22.6,37.3,22.3,37,22.4z"/>
	<rect x="38.9" y="31" class="st6" width="6.3" height="0.6"/>
	<rect x="43.8" y="31" class="st5" width="0.6" height="0.6"/>
	<rect x="39.7" y="31.1" class="st5" width="0.6" height="0.6"/>
	<rect x="3.2" y="5.4" class="st7" width="78" height="45.6"/>
	<rect x="3.3" y="40.2" class="st8" width="77.8" height="11.3"/>
	<rect x="3.3" y="5.3" class="st8" width="77.9" height="11.3"/>
</g>
</svg>
