<?xml version="1.0" encoding="utf-8"?>
<!-- Generator: Adobe Illustrator 22.1.0, SVG Export Plug-In . SVG Version: 6.00 Build 0)  -->
<svg version="1.1" id="Layer_1" xmlns="http://www.w3.org/2000/svg" xmlns:xlink="http://www.w3.org/1999/xlink" x="0px" y="0px"
	 viewBox="0 0 85 56.7" style="enable-background:new 0 0 85 56.7;" xml:space="preserve">
<style type="text/css">
	.st0{fill:#ED1C24;}
	.st1{fill:#FFFFFF;}
	.st2{fill:#FFDD00;}
</style>
<g>
	<rect x="3.1" y="5.1" class="st0" width="78.3" height="46.1"/>
	<polygon points="3.1,5.1 3.1,51.2 81.2,51.2 	"/>
	<polygon class="st1" points="17.6,40.2 18.6,43.2 21.8,43.3 19.3,45.2 20.2,48.2 17.6,46.3 15.1,48.2 16,45.2 13.4,43.3 16.6,43.2 
			"/>
	<polygon class="st1" points="10.1,29.3 11.1,32.4 14.3,32.4 11.8,34.3 12.7,37.3 10.1,35.5 7.5,37.3 8.5,34.3 5.9,32.4 9.1,32.4 	
		"/>
	<polygon class="st1" points="17.5,18.2 18.5,21.2 21.7,21.2 19.1,23.1 20.1,26.1 17.5,24.3 14.9,26.1 15.9,23.1 13.3,21.2 
		16.5,21.2 	"/>
	<polygon class="st1" points="25.3,26.9 26.3,29.9 29.5,29.9 26.9,31.8 27.9,34.9 25.3,33 22.7,34.9 23.7,31.8 21.1,29.9 24.3,29.9 
			"/>
	<polygon class="st1" points="23.1,36.7 23.7,38.3 25.4,38.3 24,39.3 24.5,40.9 23.1,39.9 21.7,40.9 22.3,39.3 20.9,38.3 22.6,38.3 
			"/>
	<g>
		<g>
			<path class="st2" d="M45.1,15l1.8,0.2c0,0,2.7-1.3,3.3,0.8c0.6,2.1,1.6,1.2,1.7,1.2c0.1,0,0.5-0.8,0.3-1.6
				c-0.2-0.8-0.7-4.6,1.3-5.5c2-0.9,4-2.2,4.7-3.1c0,0,0.6,0.6,0.1,1.3c0,0-0.1-0.3,0.7,0.8c0,0,0.3,0.8-1.1,1.1
				c0,0,0.4-0.2,1.2,0.5c0,0-0.5,0.9-1.2,0.9c0,0,0.7,0.2,1.2,1.2c0,0-0.3,0.5-1.4,0.7c0,0,0.2-0.4,0.5,0.8c0,0-1.6,0.7-1.2,2.1
				c0,0,1.3,0.1,1.9-0.8c0.6-0.9,2.3-2,4.4-1.5c0,0-1.2,0.9-1.3,1.4c0,0,1-0.6,2,0.2c0,0-0.5,0-0.9,0.9c0,0,1.1,0.3,1.6,1
				c0,0-1.1,0.2-1.7,0.7c0,0,1.9,0.2,3,1.9c0,0-0.3,0.8-2,0.3c0,0,1.9,1.3,2.6,2.5c0.6,1.1,1.4,3.3,1.2,4.6
				c-0.2,1.3-0.3,2.9-1.1,3.8c-0.8,0.9-1.8,2.1-2.9,2.1c-1,0-2-0.3-2-0.8c0-0.5-0.5-1,0.2-1.1c0.7-0.1,0.6,0.2,1.4,0.1
				c0.8-0.1,0.7-0.1,1.4-0.6c0.7-0.5,0.9-0.5,1.2-1.2c0,0,0.3-0.5,0.4-1.6c0.1-1.1,0-2.2-0.3-3c-0.3-0.7-0.5-1.2-1-1.6
				c-0.5-0.4-1.1-0.7-1.6-0.7c-0.5,0-1.1-0.1-1.5,0.1c0,0,1.8,0.7,3.9,3.2c2,2.5,2.6,2.6,3,3.5c0.4,0.9,0.7,1,0.9,2
				c0.2,1,0.6,1.2,0.4,2.5c-0.2,1.1-0.4,2-1.2,2.7c-0.8,0.6-2.1,1.3-2.9,1.1c-0.7-0.2-1.1-0.1-1.6-0.6c-0.5-0.5-0.8-0.6-0.7-1.1
				c0.1-0.5,0-0.7,0.4-0.8c0.4-0.1,0.7-0.1,1.2,0c0.5,0.1,0.5,0.2,1,0.3c0.5,0.1,1.2,0.2,1.6-0.2c0.4-0.4,0.8-0.6,0.8-1.7
				c0-1.1,0.1-1.2-0.2-1.9c-0.3-0.7-0.6-1.2-0.9-1.6c-0.3-0.4-1.2-3.1-6.4-6.4c-5.2-3.4-0.3,0-0.3,0s0.2,0.7-1.2,0.4
				c0,0,1.1,0.2,1.4,2c0,0-0.3,0.7-1.4,0.1c0,0,1.1,1,1.2,1.7c0,0-0.3,0.4-1.2-0.2c0,0,1.2,1,1.3,2.1c0,0-0.9-0.6-1.3-0.7
				c0,0,0.2-0.9,0.4,1.3c0,0-0.2,1.1-1.9-1.8c0,0,0.1,0.2-0.4,1.2c0,0-0.9,0.1-1.2-1.6c0,0,0.2,0.8-0.7,1.6c0,0-0.7-0.2-1.4-1.7
				c0,0,0.3,0.2-0.6,0.7c0,0-3.6-0.6-2.6-6.2c0,0-0.7-0.7-1.2,1.4c0,0-0.5,0.3-1.3-0.7c0,0-0.1,0.4-0.6,1.1c0,0-0.3,0.5-1.2-0.6
				c0,0,0.2,0.6-0.9,1.4c0,0-0.3,0.4-0.5-1.3c0,0,0,0.8-1.9,1.4c-1.9,0.6,0-0.3,0-0.3s-0.5-0.2,0-1.5c0,0-0.4,0.5-1.8,0.9
				c0,0-0.1-1.2,0.3-1.9c0,0-0.7,1.2-3.5,1.1c0,0,1.8-1.6,2.8-3.3c0.9-1.6,4.3-2,5.3-1.9c1,0.1,1.9,0.2,2.3,0.2
				c0.4,0-0.3-0.1-0.3-0.1s0.2-1-0.3-1.4c-0.5-0.4-1.4-0.5-1.7-1C46.5,16.5,45.9,15.8,45.1,15z"/>
		</g>
		<path class="st0" d="M47.9,16c0,0.2,0.2,0.4,0.4,0.4c0.2,0,0.4-0.2,0.4-0.4c0-0.2-0.2-0.4-0.4-0.4C48.1,15.6,47.9,15.7,47.9,16
			L47.9,16z"/>
	</g>
</g>
</svg>
