<?xml version="1.0" encoding="utf-8"?>
<!-- Generator: Adobe Illustrator 22.1.0, SVG Export Plug-In . SVG Version: 6.00 Build 0)  -->
<svg version="1.1" id="Layer_1" xmlns="http://www.w3.org/2000/svg" xmlns:xlink="http://www.w3.org/1999/xlink" x="0px" y="0px"
	 viewBox="0 0 85 56.7" style="enable-background:new 0 0 85 56.7;" xml:space="preserve">
<style type="text/css">
	.st0{fill:#2E3192;}
	.st1{fill:#FFFFFF;}
	.st2{fill:#ED1C24;}
	.st3{fill:none;stroke:#ED1C24;stroke-width:3.3743;}
	.st4{fill:none;stroke:#ED1C24;stroke-width:3.3785;}
	.st5{fill:#F7E43E;stroke:#000000;stroke-width:9.099407e-03;}
	.st6{fill:#3F8B43;stroke:#000000;stroke-width:9.099407e-03;}
	.st7{fill:#3E8458;stroke:#000000;stroke-width:9.099407e-03;}
	.st8{fill:none;stroke:#000000;stroke-width:9.099407e-03;}
	.st9{fill:#1783C6;stroke:#000000;stroke-width:9.099407e-03;}
	.st10{fill:#F7E43E;}
	.st11{fill:#E2E3E4;}
	.st12{fill:#9F938F;}
	.st13{fill:#3F8B43;}
	.st14{fill:#E53143;}
</style>
<g>
	<g>
		<rect x="3.5" y="5.1" class="st0" width="78.1" height="46.1"/>
		<polygon class="st1" points="3.5,5.1 8.1,5.1 20.8,13.9 20.8,5.1 26.5,5.1 26.5,14.9 40.8,5.1 43.6,5.1 43.6,8.5 31.9,16.3 
			43.5,16.3 43.5,21.8 30.6,21.8 43.5,31.1 37.6,31.1 26.4,23.6 26.4,31.1 20.8,31.1 20.8,23 8.5,31.1 3.5,31.1 3.5,29.5 14.8,21.7 
			3.5,21.7 3.5,16.3 17.2,16.3 3.5,7.1 		"/>
		<polygon class="st2" points="21,16.2 4.5,5.1 3.5,5.1 3.5,5.9 18.9,16.3 		"/>
		<polygon class="st2" points="26.2,16.2 42.8,5.1 43.6,5.1 43.6,6.1 28.4,16.2 		"/>
		<polygon class="st2" points="29.1,21.7 42.2,31.1 40.1,31.1 27,21.7 		"/>
		<polygon class="st2" points="20.8,21.8 6.9,31.1 4.6,31.1 18.6,21.7 		"/>
		<line class="st3" x1="3.5" y1="18.9" x2="43.6" y2="18.9"/>
		<line class="st4" x1="23.7" y1="31.2" x2="23.7" y2="5.1"/>
	</g>
	<g id="g2791_2_" transform="matrix(0.118269,0,0,0.118269,-18.38135,-8.683977)">
		<path id="path2793_2_" class="st5" d="M631.5,319.4c-7.9,6.7-15.4,16.4-17.2,25.2c-5.2,24.8-12.1,30.3-22.7,25
			c0,13.3,11.7,14.3,16.8,6.6c0,12.5,4.5,23.3,14.7,32.6c4.3,3.9,5.1,1.2,3.1-3.1c-2-4.3-2-18.2-6.1-26.2c6.6,4.7,16.2,2,15.4-10.9
			c-8.4,4.9-16.7,4.7-17.6-7C616.8,347.9,622.1,328,631.5,319.4z"/>
		<path id="path2795_2_" class="st5" d="M621.6,220.8c0.6-4.9-0.5-10-4.1-13.1c-6.9-6.1-13.7-4.1-18.8,0.8
			c-7.6-4.1-11.6,10.4-20.2,8c1.4,4.7,3.7,6.8,8,5.1c-4.5,4.1,0,9-5.3,13.9c9.6,3.1,14.8-2.3,14.3-11.5c3.7,3.3,9.4,3.1,12.5-0.6
			c-5.1-1.6-5.1-6.1-3.1-10.2C607.9,207.1,622.4,207.3,621.6,220.8z"/>
		<path id="path2797_2_" class="st6" d="M643.8,292c-10.9,5.7-30.7,3.3-32.6-10.8c-1.8-14.1,11.9-20.5,15.6-22.3
			c5.8-2.9,10.2,2.2,8.4,8.2c6.3-2.3,7.8-9.6,4.7-13.9c8.4,0.6,16.2-5.7,19.4-14.7c-2.9,2.8-11,0.9-17.6,0.5c2-2.2,2-6.6,1.4-8.9
			c-7,7.2-17,3.9-30.3,24.6c2-7.2,5.9-21.5,8.2-30.9c0.2-0.9,0.4-1.9,0.5-2.8c0.8-13.5-13.6-13.8-16.7-7.6c3.4,3.8,1.6,8.2,0.4,15
			c-1.4,8-4.5,26.4-7.2,32.6c-0.8-9.6-7.2-10.2-8.4-14.9c-1.8,1.2-2.9,4.5-2.5,6.8c-2.3-2.5-10,0.6-12.9-3.1c-3.1,6.2,1.8,12.3,7,15
			c-3,0.2-3.7,3.8-7,3.8c4.4,5.1,8.9,7.2,14.1,7.6c5.2,0.4,9.1,2.3,12.3,8.7C605.9,294.7,625.4,301.3,643.8,292z"/>
		<path id="path2799_2_" class="st5" d="M670.8,279.5c-6.1,17-22.9,29.1-30.5,30.9c-12.9,3.1-39.2,15.9-46.2,22.5
			c-1.1-0.3-2.1-0.7-2.9-1.2c-3.5-2.5-6.3-10.4-0.2-17.2c19.2-18,39.9-10.2,52.8-22.5c-10.9,5.7-30.7,3.3-32.6-10.8
			c11.7,3.1,32.8,3.3,49.6-14.8C663,268.9,669.6,276.7,670.8,279.5z"/>
		<path id="path2801_2_" class="st6" d="M631.5,319.4c-9.7,8.3-14.8,28.5-13.8,42.2c0.3,3.8,1.4,6.4,3,8c0.7-7.8,6.1-27.9,19.9-36.9
			c11.7-7.6,29.9-24.6,36.7-44c-1.2-3.5-3.3-5.9-7.2-8.4C663.5,298.7,645.5,307.5,631.5,319.4z"/>
		<path id="path2803_2_" class="st7" d="M664.6,271.6c-3.5,5.2-11.4,12.4-18.9,15.3c1.6-1.8,2.1-4.2,2.2-6.1
			c-9.6,3.7-28.9,3.3-36.7,0.4c11.7,3.1,32.8,3.3,49.6-14.8C662.4,268.3,663.8,269.9,664.6,271.6z"/>
		<path id="path2805_2_" class="st6" d="M591,314.5c-15.7,14.6-5.3,27.4,0.8,30.3c-1.6,10.2,8,9,7.8,17.6c3.9-2.3,4.9-8.2,4.3-12.9
			c4.9,5.3,17.4-0.6,20.1,9.2c1.6-10.8-6.8-21.7-17.2-20.7c4.3-3.9,1.8-10.2-2.3-11.9c-0.8,8-9.8,8-13.3,5.5
			C587.7,329.3,584.8,321.3,591,314.5z"/>
		<path id="path2807_2_" class="st5" d="M624.8,407.7c-1.7,1-1.6,3.2-0.5,4.6c2.2,2.9-1.5,9.4,5.4,10.7c2.1,0.4,3.6-0.8,4.4-3.2
			c2.1-6.4-4.7-7.2-5.3-10.2C628.2,406.6,626.3,406.9,624.8,407.7z"/>
		<path id="path2809_2_" class="st5" d="M630.7,419.8c-2.3,1.1-4.3,2.6-3.4,9.9c0.4,3,0.2,10.4-2.5,10.5c1.6,0.8,5.1,1.7,6.6-0.2
			c1.4,2.3,4.5,1.6,5.7-1.2c1.6,1.3,3.9-0.9,3.9-2.9c1.4,0.9,4.3-0.4,3.6-4.8c1.8,0.6,4-0.6,4.8-1.7c-2.6-0.5-9-4-10.5-6.8
			C637.3,419.9,633.3,418.5,630.7,419.8z"/>
		<g id="g2811_2_">
			<path id="path2813_2_" class="st8" d="M595.2,212.7c1-1.5,2.2-3,3.5-4.2"/>
			<path id="path2815_2_" class="st8" d="M634.2,239.8c1.8-1,4.6-1.1,7.6-1"/>
			<path id="path2817_2_" class="st8" d="M631.4,440c-0.7-1-1-5.3-0.5-7.9"/>
			<path id="path2819_2_" class="st8" d="M637.1,438.8c-1.1-0.9-3.3-3.8-3.6-6.5"/>
			<path id="path2821_2_" class="st8" d="M641,435.9c-1.4-0.7-4.9-5.2-5.7-8.1"/>
			<path id="path2823_2_" class="st8" d="M644.6,431.1c-1.7-0.4-6.9-3.7-9-7.3"/>
		</g>
		<path id="path2825_2_" class="st5" d="M739,314.7c25.2,21.1,26.8,37.9,22.9,47.7c-2.1-9.2-12.5-23.5-23.3-27.2L739,314.7z"/>
		<g id="g2006_2_">
			<g id="g2828_2_">
				<path id="path2830_2_" class="st6" d="M693.9,302.9h46.7c0,0,0,12.3,0,55.3c0,47.1-26.2,74.9-52.8,89.7
					c-26.6-14.8-52.8-42.6-52.8-89.7c0-43,0-55.3,0-55.3h32.7c0.1,2.9,0.3,7.2,3.7,11.5C679.1,313.6,687.9,307.8,693.9,302.9z"/>
				<path id="path2832_2_" class="st9" d="M740.6,302.9c0,0,0,12.3,0,55.3c0,14.2-2.4,26.7-6.5,37.6l-46.4-85.1l-46.4,85.1
					c-4.1-10.9-6.4-23.4-6.4-37.6c0-43,0-55.3,0-55.3H740.6z"/>
				<path id="path2711_2_" class="st5" d="M735.6,391.6c-0.8,2.5-2.3,6.6-3.5,9.1l-44.3-82.4l-44.3,82.4c-1.2-2.5-2.6-6.6-3.5-9.1
					l47.8-88.6L735.6,391.6z"/>
			</g>
			<g id="g2835_2_">
				<path id="path2837_2_" class="st5" d="M708.9,421.9c1.2,0.6,3.5,1.7,4.5,2.2c2.4-4.9,2.9-11.9,2-18c-2.7,6.8-11.7,6.6-14.1,10.6
					c1.5,0.8,2.9,1.7,4.1,2.6c-3.1,3.1-10.3,8.2-14.4,9.5v-43.9c0-3.1-1-5.6-1-8.2c0,0,0-7,0-9.1c0-2-0.4-5-2.2-5
					c-1.8,0-2.2,3-2.2,5c0,2.1,0,9.1,0,9.1c0,2.6-1,5.5-1,8.2v43.9c-2.3-6.6-11.1-4.3-15.2-10.9c1.6-0.4,3.3-0.5,4.9-0.2
					c-3.1-10.4-11.5-11.3-13.1-14.3c0,4.3-1.8,14.3,1,18.6c0.6-0.8,1.6-1.6,2.8-2.3c3.5,7.6,19.1,7.6,22.8,20.1
					C690.8,435.2,701.4,429.9,708.9,421.9z"/>
				<path id="path2839_2_" class="st5" d="M687.8,385.4c3.5,0,14.5-1.1,18.5-1.1c1,0,1.9-1.5,1.9-3.5c0-1.9-0.8-3.5-1.9-3.5
					c-4,0-15-1.1-18.5-1.1s-14.5,1.1-18.5,1.1c-1.1,0-1.9,1.6-1.9,3.5c0,1.9,0.8,3.5,1.9,3.5C673.3,384.2,684.3,385.4,687.8,385.4z"
					/>
				<path id="path2841_2_" class="st5" d="M685.6,367.4c-0.7-0.6-1.7-1-2.8-1c-2.3,0-4.2,1.7-4.2,3.8c0,2.1,1.9,3.8,4.2,3.8
					c2.3,0,4.2-1.7,4.2-3.8c0-1.6,2.4-1.6,2.4,0c0,3.3-2.9,6-6.6,6c-3.6,0-6.6-2.7-6.6-6c0-3.3,2.9-6,6.6-6c1.1,0,2.1,0.2,3,0.7
					C685.7,365.5,685.6,366.5,685.6,367.4z"/>
				<path id="path2843_2_" class="st5" d="M669.3,384.2c1,0,1.9-1.5,1.9-3.5c0-1.9-0.8-3.5-1.9-3.5"/>
				<path id="path2845_2_" class="st5" d="M670.8,384.2c1,0,1.9-1.5,1.9-3.5c0-1.9-0.8-3.5-1.9-3.5"/>
				<path id="path2847_2_" class="st5" d="M680.9,384.9c1.3,0,2.3-1.9,2.3-4.2c0-2.3-1-4.2-2.3-4.2"/>
				<path id="path2849_2_" class="st5" d="M683.3,385.1c1.3,0,2.4-2,2.4-4.4c0-2.4-1.1-4.4-2.4-4.4"/>
				<path id="path2851_2_" class="st5" d="M691.1,385.2c1.3,0,2.4-2,2.4-4.4c0-2.4-1.1-4.4-2.4-4.4"/>
				<path id="path2853_2_" class="st5" d="M693.6,385.1c1.3,0,2.4-1.9,2.4-4.3s-1-4.3-2.4-4.3"/>
				<path id="path2855_2_" class="st5" d="M704.6,384.3c1.1,0,1.9-1.6,1.9-3.5s-0.9-3.5-1.9-3.5"/>
				<path id="path2857_2_" class="st5" d="M665,419.7c1.3-0.8,2.8-1.4,4.4-1.8"/>
				<path id="path2859_2_" class="st5" d="M706.6,420.2c-0.4-0.3-0.8-0.6-1.2-0.9"/>
				<g>
					<path id="path2861_1_" class="st10" d="M708.9,421.9c2.9-3.1,5.3-6.6,6.6-10.5"/>
					<path d="M708.9,421.9L708.9,421.9c3.2-3.5,5.3-6.9,6.5-10.6l0.1,0C714.3,415,712.1,418.5,708.9,421.9z"/>
				</g>
			</g>
			<g id="g2863_2_">
				<g>
					<path id="path2865_1_" class="st1" d="M678.4,341.9c0-1,0.8-1.4,1.8-2.1c1.2-0.9,1.6-1.3,2.7-1.3h13.4c1,0,1.2,0.3,1.2,1.2V358
						c0,0.9-0.2,1.2-1.2,1.2h-17.9v-17.4"/>
					<path d="M696.3,359.2h-17.9l0-17.4c0.1-0.8,0.7-1.2,1.4-1.7c0.1-0.1,0.3-0.2,0.4-0.3l0.3-0.2c1-0.7,1.5-1.1,2.4-1.1h13.4
						c1,0,1.3,0.3,1.3,1.2V358C697.6,358.9,697.3,359.2,696.3,359.2z M678.5,359.1h17.8c1,0,1.2-0.2,1.2-1.1v-18.3
						c0-0.9-0.2-1.1-1.2-1.1h-13.4c-1,0-1.4,0.3-2.4,1.1l-0.3,0.2c-0.1,0.1-0.3,0.2-0.4,0.3c-0.8,0.5-1.4,1-1.4,1.8V359.1z"/>
				</g>
				<g>
					<path id="path2867_1_" class="st11" d="M693,360.7c1.8,0,1.5,0,2.7-1.3c1.3-1.3,1.2-1.2,1.2-2.4v-16.7c0-0.9-0.2-1.1-1.1-1.1
						h-12.4c-1,0-1.4,0.4-2.5,1.2c-0.9,0.7-1.6,1.1-1.6,2v18.2H693z"/>
					<path d="M693,360.8h-13.8v-18.3c0-0.8,0.6-1.2,1.3-1.8c0.1-0.1,0.2-0.2,0.4-0.3l0.2-0.1c0.9-0.7,1.4-1.1,2.3-1.1h12.4
						c0.9,0,1.2,0.2,1.2,1.1v16.7c0,0.1,0,0.2,0,0.3c0,0.9,0,0.9-1.2,2.1c-0.2,0.2-0.4,0.4-0.5,0.5
						C694.5,360.7,694.5,360.8,693,360.8z M679.2,360.7H693c1.5,0,1.5,0,2.2-0.7c0.1-0.1,0.3-0.3,0.5-0.5c1.2-1.2,1.2-1.2,1.1-2
						c0-0.1,0-0.2,0-0.3v-16.7c0-0.9-0.2-1.1-1.1-1.1h-12.4c-0.9,0-1.3,0.3-2.2,1l-0.2,0.1c-0.1,0.1-0.2,0.2-0.4,0.3
						c-0.7,0.5-1.3,0.9-1.3,1.7V360.7z"/>
				</g>
				<g>
					<path id="path2869_1_" class="st1" d="M694.3,360.3c0,0.9-0.2,1.2-1.2,1.2h-13.4c-1,0-1.2-0.3-1.2-1.2v-18.3
						c0-0.9,0.2-1.2,1.2-1.2h13.4c1,0,1.2,0.3,1.2,1.2V360.3z"/>
					<path d="M693.1,361.6h-13.4c-1,0-1.2-0.2-1.2-1.2v-18.3c0-1,0.2-1.2,1.2-1.2h13.4c1,0,1.3,0.3,1.3,1.2v18.3
						C694.3,361.3,694.1,361.6,693.1,361.6z M679.6,340.9c-0.9,0-1.2,0.2-1.2,1.1v18.3c0,0.9,0.2,1.1,1.2,1.1h13.4
						c1,0,1.2-0.2,1.2-1.1v-18.3c0-0.9-0.2-1.1-1.2-1.1H679.6z"/>
				</g>
			</g>
		</g>
		<g id="g2871_2_">
			<g>
				<path id="path2875_1_" class="st12" d="M720.3,292.2c2.6,2.9,3.5,6.9,2.1,10.7h-3.9c1.6-4.9,0.6-9.6-6.3-10.2
					c-10.4-0.9-22.5,19.2-40.8,21.7c-5.3-6.3-5-18.4,1.7-24.2c-3.5-10.1-10.9-21.1-16-25.9c-3.3-0.5-7.2-0.8-9.7-0.7
					c2.7-5.7,10.3-11.8,16.4-14.2c1-1.5,2.1-2.9,3.1-4.1c0.6-7.9,38.1-4.2,46.1,0.7C713,254.8,716.4,284.2,720.3,292.2z"/>
				<path d="M671.4,314.4L671.4,314.4c-2.6-3.1-4-7.7-3.7-12.4c0.3-4.9,2.2-9.2,5.4-11.9c-3.5-10.1-10.9-21.1-16-25.9
					c-2.7-0.4-5.8-0.7-8.2-0.7c-0.5,0-1,0-1.5,0l-0.1,0l0-0.1c2.7-5.9,10.5-11.9,16.4-14.2c1-1.5,2.2-3,3-4.1
					c0.3-4,9.8-4.6,15.4-4.6c11.8,0,26.2,2.5,30.8,5.3l0,0v0c0,8.7,3.5,38.3,7.4,46.2c2.7,3,3.4,7,2.1,10.7l0,0h-4l0-0.1
					c0.7-2.1,1.2-5-0.3-7.2c-1.1-1.7-3.1-2.7-6-2.9c-0.2,0-0.5,0-0.7,0c-4.7,0-9.6,4-15.4,8.6C689.1,306.8,681.2,313.1,671.4,314.4
					L671.4,314.4z M648.9,263.5c2.4,0,5.5,0.3,8.2,0.7c5.1,4.8,12.5,15.8,16,26l0,0l0,0c-3.2,2.7-5.1,7-5.4,11.8
					c-0.3,4.6,1.1,9.2,3.7,12.3c9.7-1.3,17.6-7.6,24.6-13.1c5.8-4.6,10.8-8.6,15.5-8.6c0.2,0,0.5,0,0.7,0c2.9,0.3,5,1.3,6.1,3
					c1.5,2.2,1,5.2,0.3,7.3h3.8c1.4-3.7,0.6-7.7-2.1-10.6c-3.9-7.9-7.4-37.5-7.4-46.2c-4.6-2.8-18.9-5.3-30.7-5.3
					c-5.6,0-15,0.6-15.3,4.5c-0.9,1.1-2,2.6-3.1,4.1c-5.9,2.4-13.6,8.3-16.4,14.2C647.9,263.5,648.4,263.5,648.9,263.5z"/>
			</g>
			<g id="g2877_2_">
				<path id="path2879_2_" d="M674.9,297.5c-0.9-13.6-6.4-24.9-14.2-32.5c3.7,1,11.3,1,16.4-2.7c6.8-4.5,24.4-12.4,30.8-9
					c0.5,1.1,0.8,3.7,0.4,5.3c-1.5-4.1-18.5,2.2-23.3,4.2c-4.6,2.1-6.7,5-5,11.5c-2.7-2.2-1.7-4.4-4.5-6c1.1,2.7,2,7.5,2.4,11.4
					c-1-2.8-2.9-8.7-6.9-12.2c3.5,6.8,6.5,23,5.1,31.6c2.8,0,8.9-2.7,11.3-4.7c-2.1,3.1-8.3,5.2-12.3,6c-1.8,2.2-3,7.7-2.9,10.8
					C671.8,307.4,673,298.1,674.9,297.5z"/>
				<path id="path2881_2_" d="M720.3,292.2c-3.4-3.8-9.7-5.8-17.8-3.6c1.2-0.6,3.9-1.6,6.2-2c-0.3-2.2-2.3-11.4-2.6-13.6l2.3-0.9
					c1.1,5.5,2.6,11.9,3.5,14.4c0.7,0.2,2.4,0.5,3.8,1.2c-0.6-2.1-4.1-17.6-4-19.2l3.1-1.6C716,275.1,718,287.3,720.3,292.2z"/>
			</g>
			<g id="g2985_2_">
				<g>
					<path id="path2873_1_" class="st12" d="M718.5,302.8c1.6-4.9,0.6-9.6-6.3-10.2c-5.4-0.5-11.3,4.8-18.2,10.2H718.5z"/>
					<path d="M718.5,302.9h-24.7l0.1-0.1c0.8-0.6,1.5-1.2,2.2-1.8c5.7-4.6,10.7-8.5,15.3-8.5c0.2,0,0.5,0,0.7,0c2.9,0.3,5,1.3,6.1,3
						C719.8,297.8,719.2,300.8,718.5,302.9L718.5,302.9z M694.1,302.8h24.4c0.7-2.1,1.2-5-0.3-7.2c-1.1-1.7-3.1-2.7-6-2.9
						c-0.2,0-0.5,0-0.7,0c-4.6,0-9.5,3.9-15.3,8.5C695.5,301.7,694.8,302.2,694.1,302.8z"/>
				</g>
				<g>
					<path id="path2883_1_" class="st12" d="M673.3,258.7c-3.1,0.4-9.9-0.2-13.4-1.3c0.2-0.9,0.6-1.9,1-2.9
						c-2.1,1.4-6.2,4.2-7.8,6.2C658,261.7,668.1,262.2,673.3,258.7z"/>
					<path d="M661.2,261.5c-2.8,0-5.8-0.3-8.1-0.8l-0.1,0l0,0c1.5-1.9,5.1-4.4,7.8-6.2l0.1-0.1l-0.1,0.1c-0.5,1.1-0.8,2-1,2.8
						c2.9,0.9,7.9,1.5,11,1.5c0.9,0,1.7,0,2.3-0.1l0,0.1C670,261,664.9,261.5,661.2,261.5z M653.2,260.7c2.3,0.5,5.2,0.7,8,0.7
						c3.6,0,8.7-0.5,11.9-2.6c-0.6,0.1-1.3,0.1-2.2,0.1c-3.2,0-8.1-0.5-11.1-1.5l0,0l0,0c0.2-0.8,0.5-1.7,1-2.8
						C659.2,255.7,654.8,258.7,653.2,260.7z"/>
				</g>
			</g>
			<path d="M675.1,299.4c-0.1-2.6-0.8-5.7-2-9.2l0.1,0C674.4,293.6,675,296.7,675.1,299.4L675.1,299.4z"/>
			<path d="M670.9,258.9c-3.5,0-8.4-0.6-11.1-1.5l0,0l0,0c0.5-2.2,1.8-4.9,4-8.1l0.1,0c-2.2,3.2-3.5,5.9-4,8
				c3.3,1.1,10.2,1.8,13.4,1.3l0,0.1C672.6,258.9,671.8,258.9,670.9,258.9z"/>
			<path d="M665.7,265.6c-1.9,0-3.6-0.2-4.9-0.6c-1-0.3-2.2-0.5-3.6-0.8l0-0.1c1.4,0.2,2.6,0.5,3.6,0.8c3.8,1,11.4,0.9,16.3-2.6
				c0.5-0.4,1.1-0.8,1.7-1.3c6.1-4.6,18.9-14,33.1-15.1l0,0.1c-14.2,1.1-27,10.6-33.1,15.1c-0.7,0.5-1.2,0.9-1.7,1.3
				C673.9,264.7,669.4,265.6,665.7,265.6z"/>
			<path d="M661.1,261.5c-3.1,0-6-0.3-8.1-0.8l0-0.1c5.1,1.1,15.1,1.5,20.1-1.9c12.4-8.4,23.8-12.8,34.8-13.4l0,0.1
				c-11.1,0.6-22.4,5-34.8,13.4C670.3,260.8,665.6,261.5,661.1,261.5z"/>
		</g>
		<g>
			<path id="path2893_1_" class="st13" d="M739,314.7c17.2,11.9,29.9,23.3,33.6,41.8c3.7,18.4,10.7,23.3,19.2,18.4
				c-2.1,10.6-12.7,11.9-21.7,3.7c0.8,12.3-4.1,27-16.8,32.3c-0.8-7.4,4.1-13.2,2.7-19.2c-0.6-2.7-0.8-8.8,2.6-11.7
				c-6.7,2.3-17.4-2-18.4-12.1c7.8,3.7,17.8,4.3,21.7-5.5C765.8,352.6,764.2,335.8,739,314.7z"/>
			<path d="M753.3,411L753.3,411c-0.4-3.7,0.6-6.9,1.5-10.1c1-3.2,1.9-6.2,1.2-9.2c-0.7-3-0.6-8.8,2.5-11.6
				c-1.1,0.4-2.3,0.5-3.6,0.5c-6.5,0-13.8-4.4-14.6-12.7l0-0.1l0.1,0c3.4,1.6,6.9,2.5,10,2.5l0,0c3.9,0,9.1-1.4,11.7-8
				c1.6-4.1,2.8-10.8-0.6-19.6c-3.5-9.1-11-18.5-22.4-28l0-0.1c18.1,12.5,30,23.8,33.6,41.8c2.7,13.4,7.2,20.2,13.3,20.2
				c1.8,0,3.8-0.6,5.8-1.8l0.1,0l0,0.1c-1.1,5.7-4.8,9.1-9.9,9.1c-3.8,0-8-1.9-11.8-5.3C770.9,391,766,405.7,753.3,411L753.3,411z
				 M758.6,380L758.6,380c-3.2,2.8-3.3,8.6-2.6,11.7c0.7,3.1-0.2,6.1-1.2,9.3c-0.9,3.1-1.9,6.3-1.5,9.9
				c12.7-5.3,17.5-20.1,16.7-32.3l0-0.1l0.1,0.1c3.8,3.4,8,5.3,11.8,5.3c5,0,8.7-3.3,9.8-8.9c-2.1,1.2-4,1.8-5.8,1.8
				c-6.2,0-10.7-6.8-13.4-20.2c-3.5-17.7-15.2-29-32.9-41.3c11,9.3,18.3,18.6,21.8,27.6c3.4,8.9,2.2,15.6,0.6,19.7
				c-2.6,6.6-7.9,8-11.8,8l0,0c-3.1,0-6.5-0.8-9.9-2.4c0.7,6.1,6,12.5,14.6,12.5C756.2,380.6,757.4,380.4,758.6,380z"/>
		</g>
		<g>
			<path id="path2895_1_" class="st13" d="M760.7,218.9c5.3-13.9,19.2-12.5,23.9-6.6c13.7-7.8,15.6,9.8,27.2,6.4
				c-0.2,3.3-4.1,6.3-8.4,6.1c4.5,4.1-1.8,10.2,7.8,13.9c-8.2,4.1-19.7-0.2-22.7-11.5c-2.7,5.3-12.3,5.3-16.2,1
				c8.4-2.3,7.8-10,3.1-13.1C770.7,212.1,762.3,213.4,760.7,218.9z"/>
			<path d="M804.7,240.3c-6.3,0-13.7-4-16.2-12.9c-1.3,2.5-4.4,4.1-8.1,4.1c-3.3,0-6.3-1.2-8.1-3.1l0,0l0.1,0c2.1-0.6,5.8-2.1,6.4-6
				c0.4-2.7-0.9-5.5-3.3-7.1c-1.6-1.1-3.8-1.6-6-1.6c-3.7,0-6.8,1.6-8.2,4.1c-0.2,0.4-0.4,0.8-0.5,1.2l-0.1,0
				c0.1-0.4,0.3-0.9,0.5-1.3c2.7-6.1,7.7-9.6,13.6-9.6c4,0,7.7,1.6,9.9,4.3c2.4-1.3,4.5-2,6.5-2c3.7,0,6.3,2.2,8.9,4.4
				c2.6,2.2,5.2,4.4,8.8,4.4c1,0,1.9-0.2,3-0.5l0,0v0.1c-0.2,3.3-4,6.2-8,6.2c-0.1,0-0.2,0-0.3,0c1.8,1.6,1.8,3.6,1.9,5.6
				c0.1,3,0.1,6,5.8,8.2l0.1,0l-0.1,0C809.3,239.8,807,240.3,804.7,240.3z M788.5,227.2L788.5,227.2c2.5,9,9.9,13.1,16.2,13.1
				c2.3,0,4.5-0.5,6.5-1.5c-5.7-2.2-5.7-5.3-5.8-8.2c0-2.1-0.1-4-1.9-5.7l-0.1-0.1l0.1,0c0.1,0,0.3,0,0.4,0c4,0,7.7-2.8,8-6.1
				c-1,0.3-2,0.4-2.9,0.4c-3.6,0-6.3-2.2-8.9-4.4c-2.6-2.2-5.2-4.4-8.9-4.4c-2,0-4.1,0.7-6.5,2l0,0l0,0c-2.1-2.6-5.9-4.3-9.8-4.3
				c-5.7,0-10.5,3.3-13.3,9c1.5-2.2,4.5-3.5,7.9-3.5c2.2,0,4.4,0.6,6,1.7c2.4,1.6,3.8,4.5,3.4,7.2c-0.3,1.7-1.5,4.7-6.4,6
				c1.7,1.9,4.8,3,8,3C784.1,231.4,787.2,229.8,788.5,227.2L788.5,227.2z"/>
		</g>
		<g>
			<path id="path2897_1_" class="st13" d="M719.1,249.6c3.8,12.3,11.7,23.8,20.2,31.6c9.8,9,24.7,6.7,33-1.8
				c0.2,17.1-17.6,18.5-27.4,13.1c-4.4-2.4-7.9-1.1-3.7,2.7c6.4,5.7,20.2,10,36.7,13.5c28.7,6.1,18.4,28.9,10,28.7
				c2.4-0.1,4.4-2.6,0.9-5.7c-24.9-22.4-75.4-13.6-74.6-63.5c-5.3,13.1-27.2,8-17-7.6c3.3,2.7,9,2.9,10.6-1.2
				c1.3-3.2,0.4-8.7-5.3-13.5c0.9-0.1,3,0,2.8-2.4c0.3,1.4,1.5,3.4,4.7,2.7c0.9,1.5,1.9,2.4,3.2,1.9c0.3-0.1,1-0.5,0.7-1.9
				C714.2,248.8,717.4,249.8,719.1,249.6z"/>
			<path d="M788,337.3c0,0-0.1,0-0.1,0v-0.1c1.2,0,2.3-0.7,2.6-1.6c0.3-0.7,0.4-2.1-1.7-4c-8.5-7.7-20.3-11.7-31.6-15.7
				c-10.7-3.7-21.9-7.6-29.9-14.5c-4.3-3.7-7.5-8-9.7-13.1c-2.4-5.7-3.5-12.3-3.4-20.1c-2.3,5.4-7.1,7.3-10.9,7.3
				c-3.5,0-6.5-1.6-7.9-4.1c-1.6-2.9-0.9-6.8,1.9-11l0,0l0,0c1.5,1.2,3.5,1.9,5.4,1.9c2.5,0,4.3-1.1,5.1-3.1
				c1.4-3.4,0.3-8.8-5.3-13.4l-0.1-0.1l0.1,0c0.1,0,0.2,0,0.2,0c0.6,0,1.6-0.1,2.1-0.7c0.3-0.4,0.4-0.9,0.4-1.6l0.1,0
				c0.2,1.3,1.3,2.8,3.5,2.8c0.4,0,0.8,0,1.2-0.1l0,0l0,0c0.9,1.4,1.6,2,2.5,2c0.2,0,0.5,0,0.7-0.1c0.3-0.1,0.9-0.5,0.8-1.5
				c0-0.1-0.1-0.3-0.1-0.4l0.1,0c0,0.1,0.1,0.3,0.1,0.4c0.5,2.2,3.1,3.1,4.6,3.1c0.2,0,0.3,0,0.5,0l0,0l0,0
				c3.6,11.6,10.9,23.1,20.2,31.6c4.1,3.8,9.3,5.7,15,5.7c6.6,0,13.3-2.8,17.9-7.6l0.1-0.1l0,0.1c0.1,4.9-1.3,8.7-4.1,11.5
				c-2.8,2.9-7.1,4.4-12.1,4.4c-3.9,0-8.1-1-11.4-2.8c-1.4-0.8-2.8-1.2-3.9-1.2c-0.8,0-1.4,0.2-1.5,0.7c-0.3,0.7,0.4,1.8,1.8,3.1
				c5.6,5.1,17.2,9.3,36.6,13.5c7.1,1.5,12.3,4.1,15.5,7.8c3.3,3.8,3.7,7.7,3.4,10.4C796.2,332.3,792.1,337.3,788,337.3z M714.2,268
				L714.2,268c-0.1,7.9,1.1,14.5,3.5,20.2c2.2,5.1,5.3,9.4,9.7,13.1c8.1,6.9,19.2,10.7,29.9,14.5c11.3,3.9,23.1,8,31.6,15.7
				c2.1,1.9,2,3.4,1.7,4.1c-0.3,0.7-1,1.3-1.8,1.6c3.7-0.6,7.3-5.2,7.9-10.5c0.3-2.6-0.1-6.6-3.4-10.3c-3.2-3.6-8.4-6.2-15.4-7.7
				c-19.4-4.2-31.1-8.5-36.7-13.5c-1.5-1.3-2.1-2.5-1.8-3.2c0.2-0.5,0.8-0.7,1.6-0.7c1.1,0,2.5,0.4,3.9,1.2
				c3.3,1.8,7.4,2.8,11.3,2.8c4.9,0,9.2-1.6,12-4.4c2.7-2.7,4.1-6.6,4-11.4c-4.6,4.7-11.3,7.6-17.9,7.6c-5.7,0-10.9-2-15-5.8
				c-9.3-8.5-16.7-20-20.2-31.6c-0.1,0-0.3,0-0.4,0c-1.5,0-3.9-0.8-4.6-2.8c0,0.9-0.6,1.2-0.8,1.2c-0.2,0.1-0.5,0.1-0.7,0.1
				c-1.1,0-1.9-1-2.5-2c-0.4,0.1-0.8,0.1-1.2,0.1c-2,0-3.1-1.3-3.4-2.5c0,0.5-0.2,0.9-0.4,1.3c-0.5,0.6-1.5,0.7-2.1,0.7
				c-0.1,0-0.1,0-0.1,0c5.5,4.6,6.6,10.1,5.2,13.5c-0.8,2-2.7,3.2-5.2,3.2c-1.9,0-4-0.7-5.5-1.9c-2.7,4.2-3.4,8-1.8,10.9
				c1.4,2.5,4.4,4.1,7.8,4.1C707.1,275.5,711.9,273.5,714.2,268z"/>
		</g>
		<g>
			<path id="path2899_1_" class="st10" d="M744.9,292.4c11.9,7.8,25.3,7.8,37.7-6.5c3.9-4.5,10-8.4,14.3-8.8
				c4.3-0.4,4.1-4.5,7.4-5.3c-2-0.6-2.9-3.1-5.9-2.8c7.7-2.7,5.4-8.8,9.2-11.8c-3.1,1.1-7.9-3.5-12.3,2.4c1.1-2.7-0.4-5.8-1.5-7.1
				c0.4,3.1-6,3.7-7.3,11.5c-0.7,4.4-3.1,4.1-3.5-2.7c-0.3-4.9-2.7-18.6-5.5-25.6c-2.9-7-3.5-16.5,0.4-18c-0.6-1-1.4-1.9-2.4-2.5
				c-4.7-3.1-13.1-1.8-14.7,3.7c-5.3,13.9,9.6,21.9,8.4,37c-2.3-11.3-20.5-14.1-20.3-25.2c-5.9,2.7-5.1,7.6-2.9,11.5
				c-3.7-5.7-12.1,3.7-19.2-4.1c-0.8,10.2,8.2,14.1,15.6,14.5c-3.7,6.5,1.2,12.1,6.2,13.9c0.2-11.5,23.7-6.8,24,12.9
				C772.5,296.3,754.5,297.8,744.9,292.4z"/>
			<path d="M760.7,297.7c-5.2,0-10.5-1.8-15.8-5.2l0-0.1c3.2,1.8,7.2,2.8,11.2,2.8c5,0,9.4-1.6,12.3-4.5c2.7-2.7,4-6.5,4-11.1
				c-0.1-7.2-3.2-11.7-5.9-14.2c-3.1-3-7.2-4.8-11-4.8c-4.3,0-7,2.3-7,6.1v0.1l-0.1,0c-2.6-1-5.7-3.2-7-6.6
				c-0.9-2.3-0.6-4.9,0.8-7.3c-2.6-0.2-8.9-1-12.8-5.4c-2.1-2.4-3.1-5.5-2.8-9.2l0-0.1l0.1,0.1c2,2.2,4.3,3.2,7.2,3.2
				c1.6,0,3.1-0.3,4.6-0.6c1.3-0.3,2.5-0.5,3.6-0.5c1.5,0,2.6,0.5,3.4,1.5c-1-1.9-1.9-4.4-1.1-6.7c0.6-1.8,2-3.2,4.3-4.2l0.1,0
				l0,0.1c-0.1,5.7,4.7,9.2,9.8,12.9c4.6,3.3,9.3,6.7,10.5,12c0.5-6.8-2.3-12.2-5-17.3c-3.2-6.1-6.3-11.9-3.4-19.4
				c1.2-4,5.5-5.4,8.8-5.4c2.2,0,4.4,0.6,6,1.7c1,0.6,1.8,1.5,2.4,2.5l0,0l0,0c-0.8,0.3-1.5,1-1.9,2c-1.5,3.3-0.8,10.2,1.6,15.9
				c2.8,6.9,5.2,20.7,5.5,25.6c0.2,4.1,1.2,5.5,1.9,5.5c0.7,0,1.2-1.1,1.5-2.9c0.7-4.6,3.3-6.7,5.1-8.2c1.3-1.1,2.3-1.9,2.2-3.2
				l0-0.1l0.1,0.1c1,1.1,2.6,4.1,1.6,6.9c1.5-1.9,3.2-2.8,5.3-2.8c1.1,0,2.2,0.2,3.2,0.5c0.9,0.2,1.7,0.4,2.5,0.4
				c0.4,0,0.8-0.1,1.1-0.2l0,0.1c-1.5,1.2-2,2.8-2.6,4.5c-0.9,2.6-1.9,5.5-6.3,7.2c0.1,0,0.2,0,0.2,0c1.6,0,2.5,0.8,3.4,1.6
				c0.6,0.5,1.2,1,2,1.3l0.1,0l-0.1,0c-1.5,0.4-2.2,1.4-3,2.4c-1,1.3-2,2.6-4.4,2.9c-4.2,0.4-10.3,4.2-14.3,8.8
				C775.9,293.7,768.5,297.7,760.7,297.7z M745.7,292.9c5,3.1,10.1,4.7,15,4.7c7.8,0,15.2-3.9,21.9-11.7c4-4.6,10.2-8.4,14.4-8.8
				c2.3-0.2,3.3-1.6,4.3-2.8c0.8-1,1.5-2,2.9-2.4c-0.7-0.3-1.3-0.7-1.9-1.2c-0.9-0.8-1.8-1.5-3.4-1.5c-0.2,0-0.3,0-0.5,0l0-0.1
				c4.7-1.6,5.6-4.5,6.6-7.2c0.6-1.7,1.1-3.3,2.5-4.4c-0.3,0.1-0.6,0.1-1,0.1c-0.8,0-1.6-0.2-2.5-0.4c-1-0.2-2.1-0.5-3.2-0.5
				c-2.2,0-3.9,1-5.4,3l-0.1,0c1.2-2.7-0.4-5.8-1.4-6.9c0.1,1.2-0.9,2.1-2.2,3.2c-1.8,1.5-4.4,3.7-5.1,8.2c-0.3,1.8-0.9,3-1.6,3
				c-0.7,0-1.7-1.5-2-5.6c-0.3-4.9-2.7-18.7-5.5-25.6c-2.4-5.7-3.1-12.6-1.6-15.9c0.5-1,1.1-1.7,1.9-2.1c-0.6-1-1.4-1.8-2.4-2.5
				c-1.6-1.1-3.8-1.6-6-1.6c-3.3,0-7.6,1.4-8.7,5.3c-2.9,7.5,0.2,13.3,3.4,19.4c2.8,5.2,5.6,10.7,5,17.7l-0.1,0
				c-1.1-5.4-5.9-8.9-10.5-12.2c-5.1-3.7-9.9-7.2-9.8-12.9c-2.2,1-3.6,2.4-4.2,4.2c-0.8,2.6,0.3,5.3,1.4,7.2l-0.1,0
				c-0.9-1.3-2-2-3.7-2c-1.1,0-2.3,0.2-3.6,0.5c-1.5,0.3-3,0.6-4.6,0.6c-2.9,0-5.1-1-7.2-3.2c-0.3,3.6,0.7,6.6,2.8,9
				c3.9,4.4,10.2,5.2,12.8,5.4l0.1,0l0,0.1c-1.4,2.4-1.6,5-0.8,7.3c1.2,3.4,4.3,5.6,6.9,6.5c0.1-3.8,2.8-6.1,7.1-6.1
				c3.8,0,7.9,1.8,11,4.8c2.6,2.5,5.8,7,5.9,14.3c0.1,4.7-1.3,8.5-4,11.2c-2.9,2.9-7.2,4.5-12.3,4.5
				C752.5,295.2,748.7,294.4,745.7,292.9z"/>
		</g>
		<g>
			<path id="path2901_1_" class="st10" d="M777.9,308.6c28.7,6.1,18.4,28.9,10,28.7c-5.3-0.1-10.4-4.6-10.7-8.5
				c-6.1,3.3-4.5,9.7,0.2,12.3c-12.9-1.5-18.3,7-18.6,16.3c2.4-4.3,9.5-4.6,12.2-3.7c2.7,0.9,9.5,1.4,12.3-1.6
				c-2.3,1.9,1.4,6.4-1.7,9.9c10.7-0.4,15.5-10.4,13.6-14.8C809,334.4,806.3,313.7,777.9,308.6z"/>
			<path d="M781.4,362L781.4,362c1.8-2,1.5-4.1,1.2-6.1c-0.2-1.3-0.4-2.5,0.2-3.4c-1.9,1.6-5,1.9-6.8,1.9c-2.2,0-4.1-0.4-5-0.7
				c-0.8-0.3-1.9-0.4-3.1-0.4c-3.3,0-7.3,1.1-9,4.1l-0.1,0c0.2-4.6,1.5-8.6,3.9-11.5c2.8-3.3,6.8-5,11.8-5c0.9,0,1.8,0.1,2.7,0.2
				c-2.5-1.4-4.1-3.9-4-6.4c0-2.4,1.4-4.5,4-5.8l0.1,0l0,0.1c0.3,3.7,5.1,8.3,10.7,8.5c0,0,0.1,0,0.1,0c4,0,8.1-4.9,8.7-10.6
				c0.3-2.6-0.1-6.6-3.4-10.3c-3.2-3.6-8.4-6.2-15.4-7.7l0-0.1c7,1.3,12.7,3.5,17,6.7c3.9,2.9,6.5,6.5,7.7,10.5
				c2.1,7.2-0.7,15.2-7.5,21.4c0.9,2.1,0.3,5.3-1.6,8.1C791,359.3,786.5,361.8,781.4,362L781.4,362z M783.2,352L783.2,352
				c0,0.1-0.1,0.2-0.2,0.3c-0.7,0.9-0.5,2.1-0.3,3.6c0.3,1.9,0.6,4.1-1.1,6c5-0.2,9.4-2.6,11.9-6.7c1.8-2.8,2.4-6,1.5-8.1l0,0l0,0
				c6.8-6.2,9.6-14.2,7.5-21.3c-1.1-4-3.8-7.6-7.7-10.4c-3.9-2.8-8.9-4.9-15-6.2c6,1.6,10.5,4,13.4,7.3c3.3,3.8,3.7,7.7,3.4,10.4
				c-0.6,5.7-4.7,10.6-8.7,10.6c0,0-0.1,0-0.1,0c-5.6-0.1-10.4-4.7-10.8-8.5c-2.5,1.4-3.9,3.4-3.9,5.7c0,2.5,1.6,5.1,4.2,6.4l0,0.1
				c-1-0.1-2-0.2-2.9-0.2c-5,0-9,1.7-11.8,5c-2.4,2.8-3.7,6.7-3.9,11.3c1.7-2.9,5.8-4,9-4c1.2,0,2.4,0.2,3.2,0.4
				c1,0.3,2.8,0.7,5,0.7c1.8,0,5.1-0.3,7-2.1C783,352.1,783.1,352.1,783.2,352z"/>
		</g>
		<g>
			<path id="path2903_1_" class="st10" d="M756.1,405.9c1.9,1.2,1.6,3.6,0.4,5.2c-2.5,3.1,1.3,10.5-6.5,11.8c-2.3,0.4-4-1.1-4.8-3.7
				c-2.1-7.3,5.6-7.8,6.4-11.2C752.3,404.5,754.5,404.9,756.1,405.9z"/>
			<path d="M749.2,422.9c-1.9,0-3.4-1.4-4.1-3.8c-1.4-4.7,1.3-6.6,3.6-8.2c1.3-0.9,2.5-1.8,2.8-3c0.4-1.8,1.3-2.7,2.5-2.7
				c0.6,0,1.3,0.2,2.1,0.7c0.7,0.5,1.2,1.1,1.3,2c0.2,1.1-0.2,2.3-1,3.2c-0.9,1.1-1,2.7-1.1,4.4c-0.2,3.1-0.4,6.5-5.5,7.3
				C749.7,422.9,749.4,422.9,749.2,422.9z M754,405.2c-1.2,0-2,0.9-2.4,2.7c-0.3,1.2-1.5,2.1-2.8,3c-2.3,1.6-4.9,3.5-3.6,8.1
				c0.7,2.4,2.2,3.8,4.1,3.8c0.2,0,0.4,0,0.7-0.1c5-0.8,5.2-4.1,5.4-7.3c0.1-1.7,0.2-3.4,1.1-4.5c0.8-0.9,1.1-2.1,0.9-3.2
				c-0.1-0.8-0.6-1.5-1.3-1.9C755.3,405.4,754.6,405.2,754,405.2z"/>
		</g>
		<g>
			<path id="path2905_1_" class="st10" d="M749,419.1c2.5,1.3,4.7,3,3.3,11.2c-0.6,3.4-0.7,11.6,2.3,11.9c-1.9,0.8-5.8,1.7-7.3-0.5
				c-1.6,2.5-5.1,1.6-6.3-1.6c-1.9,1.4-4.3-1.2-4.2-3.4c-1.6,1-4.8-0.6-3.8-5.5c-2,0.6-4.4-0.9-5.3-2.1c2.9-0.5,10.2-4.1,12.1-7.1
				C741.6,418.9,746.1,417.6,749,419.1z"/>
			<path d="M744.8,443.2c-1.6,0-3.1-1.2-3.8-3.1c-0.4,0.3-0.7,0.4-1.1,0.4c-0.6,0-1.3-0.3-1.9-0.9c-0.7-0.8-1.2-1.8-1.2-2.8
				c-0.3,0.2-0.6,0.2-1,0.2c-0.8,0-1.5-0.4-2.1-1.1c-0.9-1.1-1.1-2.7-0.7-4.7c-0.3,0.1-0.6,0.1-0.9,0.1c-1.7,0-3.6-1.2-4.3-2.3l0,0
				l0.1,0c2.8-0.4,10.2-4,12-7.1c1.3-2.1,3.9-3.5,6.5-3.5c1,0,2,0.2,2.8,0.6c2.5,1.3,4.7,3.1,3.4,11.3c-0.5,2.7-0.6,9,1,11.1
				c0.3,0.4,0.8,0.7,1.2,0.7l0,0.1c-0.9,0.4-2.5,0.9-4,0.9c-1.5,0-2.7-0.5-3.3-1.4C746.7,442.7,745.8,443.2,744.8,443.2z M741,440
				L741,440c0.7,1.9,2.2,3.1,3.8,3.1c1,0,1.9-0.5,2.5-1.4l0,0l0,0c0.6,0.9,1.8,1.4,3.3,1.4c1.4,0,2.9-0.4,3.8-0.8
				c-0.4-0.1-0.8-0.3-1.1-0.7c-1.7-2.1-1.5-8.4-1-11.2c1.3-8.1-0.8-9.9-3.3-11.2c-0.8-0.4-1.7-0.6-2.7-0.6c-2.6,0-5.2,1.4-6.5,3.4
				c-1.8,3.1-9.1,6.6-12,7.1c0.8,1.1,2.6,2.2,4.2,2.2c0.3,0,0.7,0,1-0.1l0.1,0l0,0.1c-0.4,2-0.1,3.7,0.7,4.7c0.5,0.7,1.3,1,2,1
				c0.4,0,0.7-0.1,1-0.3l0.1,0l0,0.1c0,1,0.4,2,1.2,2.8c0.6,0.6,1.2,0.9,1.9,0.9C740.2,440.4,740.6,440.3,741,440L741,440z"/>
		</g>
		<g id="g2907_2_">
			<path d="M747.4,441.7L747.4,441.7c0.8-1.1,1.3-5.9,0.8-8.8l0.1,0C748.7,435.8,748.2,440.6,747.4,441.7z"/>
			<path d="M741,440.1L741,440.1c1.2-0.9,3.7-4.1,4.3-7.1l0.1,0C744.8,436,742.2,439.2,741,440.1z"/>
			<path d="M736.8,436.7L736.8,436.7c1.6-0.7,5.7-5.6,6.6-8.8l0.1,0C742.5,431.2,738.4,436.1,736.8,436.7z"/>
			<path d="M733,431.2L733,431.2c2-0.4,7.8-4,10.3-7.8l0.1,0C740.9,427.3,735,430.9,733,431.2z"/>
		</g>
		<g>
			<path id="path2917_1_" class="st10" d="M714.2,268.1c-0.3,21,8.4,31.6,20.5,38.5c-4.5-2.7-2.5-11.9-8.6-14.9
				c1.4-0.1,3.7,1.9,7.3,1.1c-1.7-3.9-4.6-9.8-11.3-10.6c1.7-0.2,5.5,0.4,8-0.5C726.6,276.3,717.4,278.9,714.2,268.1z"/>
			<path d="M734.6,306.6C734.6,306.6,734.6,306.6,734.6,306.6L734.6,306.6c-6.7-3.8-11.6-8.4-14.9-14c-3.9-6.6-5.7-14.6-5.6-24.5
				l0.1,0c1.9,6.6,6.1,8.2,9.8,9.7c2.4,0.9,4.7,1.8,6,3.9l0,0l0,0c-1.3,0.5-2.9,0.5-4,0.5c-0.6,0-1.1,0-1.7,0c-0.8,0-1.5,0-1.9,0
				c6.7,1,9.4,7.2,10.9,10.6l0,0l0,0c-0.6,0.1-1.1,0.2-1.7,0.2c-1.5,0-2.8-0.5-3.8-0.9c-0.6-0.2-1.2-0.5-1.7-0.5
				c3.2,1.6,4.1,5,5,8.2C731.9,302.7,732.6,305.3,734.6,306.6L734.6,306.6z M714.2,268.3c-0.1,9.8,1.7,17.7,5.6,24.3
				c3.2,5.4,7.8,9.8,14.2,13.6c-1.6-1.4-2.2-3.7-2.9-6.1c-0.9-3.3-1.8-6.7-5.1-8.3l-0.1-0.1l0.1,0c0,0,0.1,0,0.1,0
				c0.5,0,1.1,0.2,1.7,0.5c1,0.4,2.2,0.8,3.7,0.8c0.5,0,1.1-0.1,1.6-0.2c-1.5-3.4-4.4-9.7-11.2-10.6v-0.1c0.3,0,0.6,0,1,0
				c0.4,0,0.8,0,1.3,0c0.5,0,1.1,0,1.7,0c1.1,0,2.7-0.1,3.9-0.5c-1.4-2-3.6-2.9-6-3.8C720.4,276.4,716.2,274.7,714.2,268.3z"/>
		</g>
		<g>
			<path id="path2919_1_" class="st10" d="M712,248.1c-0.7-0.2-1.4-1-2-2c-3.2,0.7-4.5-1.4-4.7-2.7c0.2,2.4-1.8,2.3-2.8,2.3
				c5.8,4.8,6.6,10.3,5.3,13.5c-1.6,4.1-7.4,3.9-10.6,1.2c-0.4,8.7,10.9,11.6,15,0.6c0,1.8,2.3,1.6,3,4.1
				C718,260.5,715.8,253.7,712,248.1z"/>
			<path d="M703.9,268.3c-1.8,0-3.5-0.7-4.7-2c-1.4-1.4-2.1-3.5-2-5.8l0-0.1l0.1,0c1.5,1.2,3.5,1.9,5.4,1.9c2.5,0,4.3-1.1,5.1-3.1
				c1.4-3.4,0.2-8.9-5.3-13.5l-0.1-0.1l0.1,0c0.1,0,0.2,0,0.3,0c0.7,0,1.6-0.1,2.1-0.7c0.3-0.4,0.4-0.9,0.4-1.6l0.1,0
				c0.2,1.3,1.3,2.8,3.5,2.8c0.4,0,0.8,0,1.2-0.1l0,0l0,0c0.7,1.1,1.3,1.7,2,1.9l0,0c4.5,6.6,5.6,13,3.1,17.1l0,0.1l0-0.1
				c-0.3-1.2-1.1-1.8-1.7-2.3c-0.6-0.4-1.1-0.8-1.2-1.6C710.4,265.6,707.4,268.3,703.9,268.3z M697.3,260.6
				c-0.1,2.2,0.6,4.2,1.9,5.6c1.2,1.3,2.9,2,4.7,2c3.5,0,6.6-2.7,8.3-7.1l0.1,0c0,0.9,0.6,1.3,1.2,1.8c0.7,0.5,1.4,1,1.7,2.2
				c2.5-4.1,1.3-10.4-3.1-17c-0.7-0.2-1.3-0.8-2-1.9c-0.4,0.1-0.8,0.1-1.2,0.1c-2,0-3.1-1.3-3.4-2.5c0,0.5-0.2,0.9-0.4,1.3
				c-0.5,0.6-1.5,0.7-2.2,0.7c-0.1,0-0.1,0-0.2,0c5.5,4.6,6.6,10.1,5.2,13.5c-0.8,2-2.7,3.2-5.2,3.2
				C700.8,262.5,698.7,261.7,697.3,260.6z"/>
		</g>
		<g id="g2921_2_">
			<g>
				<path id="path2923_1_" class="st13" d="M694,206.5c-5.1-4.7-7.5-12.6-7.3-17.1c0.2-4.5,2.1-9.4,8.6-7.4c-2.1,0-0.6,4.1-2.8,4.5
					c1.7,0.6,4.1-0.8,4.4-1.7c0.4,1.4,3.1,1,3.3,2.7c1-0.8-0.1-4.8-1.6-5.6c1.1-0.6,1.7-3.8,1.2-5.3c-1,0.2-2.6,1.6-2.9,3.7
					c0.5-1.6-0.1-5.7-3-6.3c-0.8,1.1-1,3.9,0.1,5.4c-2.7-0.6-6.6,1.1-7.5,3.4c0.2-2.7,0.6-6.6,2.2-9c0.6-0.8-0.8-2.2-1.9-0.3
					c-2-3.9-7.3-5.9-9.7-4c-2.4,1.9-5.5-0.9-7.5,2.1c-1.9,3.1-8.5,3.4-8.2,6.7c0.2,1.9-0.3,4.9-1.2,6c-2.3,2.7,1.1,4.6,1.7,7
					c-0.4-7.8,12-22.9,24.3-17c-1.1,1.9-2.1,5.8-2.5,10.5c-0.5,7,0.5,16.8,7.3,22.5L694,206.5z"/>
				<path d="M691.4,207.3L691.4,207.3c-3.1-2.6-5.2-6.2-6.4-10.8c-1.1-4.4-1.1-8.8-0.9-11.7c0.3-4.4,1.3-8.4,2.4-10.5
					c-1.8-0.9-3.8-1.3-5.7-1.3c-6,0-10.6,3.9-12.8,6.3c-3.6,3.8-5.9,8.6-5.7,12l-0.1,0c-0.2-0.8-0.7-1.5-1.2-2.2
					c-1-1.5-2.1-3-0.5-4.8c0.9-1.1,1.4-4,1.2-6c-0.2-1.8,1.8-2.8,3.9-3.7c1.7-0.8,3.4-1.6,4.3-2.9c0.9-1.4,2-1.5,2.9-1.5
					c0.4,0,0.7,0,1.1,0.1c0.4,0,0.7,0.1,1.1,0.1c0.7,0,1.5-0.1,2.3-0.7c0.6-0.5,1.4-0.7,2.4-0.7c2.4,0,5.7,1.6,7.3,4.7
					c0.3-0.6,0.8-0.9,1.2-0.9c0.3,0,0.6,0.2,0.8,0.5c0.2,0.3,0.1,0.6,0,0.9c-1.7,2.5-2,6.5-2.2,8.8c0.9-1.8,3.7-3.3,6.2-3.3
					c0.4,0,0.7,0,1.1,0.1c-1.1-1.6-0.8-4.3-0.1-5.4l0,0l0,0c2.5,0.5,3.3,3.6,3.2,5.5c0.5-1.5,1.8-2.6,2.7-2.8l0,0l0,0
					c0.5,1.5-0.1,4.6-1.2,5.3c1,0.6,1.8,2.5,2,4c0.1,0.8-0.1,1.4-0.4,1.6l-0.1,0l0-0.1c-0.1-0.8-0.9-1.1-1.7-1.4
					c-0.7-0.3-1.4-0.5-1.6-1.1c-0.4,0.8-2,1.8-3.5,1.8c-0.3,0-0.7-0.1-0.9-0.2l-0.1,0l0.1,0c1.1-0.2,1.2-1.3,1.4-2.4
					c0.2-1,0.3-2,1.2-2.1c-0.9-0.3-1.8-0.4-2.6-0.4c-4.7,0-5.6,4.9-5.8,7.8c-0.2,4.1,1.9,12.2,7.3,17.1l0.1,0l-0.1,0L691.4,207.3z
					 M680.8,172.8c2,0,4,0.5,5.8,1.4l0,0l0,0c-1.2,2.1-2.1,6.1-2.5,10.5c-1,13.4,4.1,19.8,7.2,22.5l2.6-0.7
					c-5.3-4.9-7.4-12.9-7.2-17.1c0.1-2.9,1.1-7.9,5.8-7.9c0.9,0,1.8,0.2,2.8,0.5l0,0.1c-1,0-1.1,1-1.3,2c-0.2,1.1-0.3,2.1-1.3,2.4
					c0.2,0.1,0.5,0.1,0.8,0.1c1.6,0,3.2-1.1,3.4-1.9l0-0.1l0,0.1c0.2,0.7,0.9,0.9,1.6,1.2c0.8,0.3,1.5,0.6,1.7,1.4
					c0.3-0.3,0.4-0.8,0.3-1.5c-0.1-1.5-1-3.4-2-4l-0.1,0l0.1,0c1.1-0.6,1.7-3.7,1.2-5.2c-0.9,0.2-2.2,1.4-2.7,3.1
					c0,0.2-0.1,0.4-0.1,0.6l-0.1,0c0-0.2,0.1-0.4,0.1-0.6c0.2-1.7-0.4-5.1-3-5.7c-0.8,1.1-1,3.8,0.1,5.4l0.1,0.1l-0.1,0
					c-0.4-0.1-0.8-0.1-1.2-0.1c-2.6,0-5.5,1.6-6.3,3.5l-0.1,0c0.2-2.3,0.5-6.5,2.3-9c0.2-0.2,0.2-0.5,0-0.8
					c-0.1-0.3-0.4-0.4-0.7-0.4c-0.4,0-0.8,0.3-1.2,1l0,0.1l0-0.1c-1.6-3.1-4.9-4.7-7.3-4.7c-0.9,0-1.7,0.3-2.3,0.7
					c-0.8,0.7-1.7,0.7-2.4,0.7c-0.4,0-0.8,0-1.1-0.1c-0.4,0-0.7-0.1-1.1-0.1c-0.9,0-2,0.2-2.9,1.5c-0.9,1.4-2.6,2.2-4.3,3
					c-2.1,1-4,1.9-3.8,3.7c0.2,2-0.3,5-1.2,6.1c-1.6,1.8-0.6,3.2,0.5,4.7c0.4,0.6,0.9,1.3,1.2,2c0-3.4,2.2-8.1,5.7-11.8
					C670.1,176.7,674.8,172.8,680.8,172.8z"/>
			</g>
			<g>
				<path id="path2925_1_" class="st14" d="M697.7,182.2c-0.1-1.8,3.1-4.2,7.4-4.2c5.2,0.1,9.2,4.8,13.3,4.3
					c4.1-0.4,2.1,1.8,1.2,2.5c-0.9,0.6-1.4,1.5-1.1,2.7c0.3,1.1-0.2,1.9-1.9,0.8c-3.7-2.3-7.4,0.9-12.2-0.9
					C700.3,185.8,697.8,184.9,697.7,182.2z"/>
				<path d="M718,188.8c-0.3,0-0.8-0.2-1.3-0.5c-0.9-0.6-1.9-0.9-3.2-0.9c-0.9,0-1.7,0.1-2.7,0.3c-1,0.1-2,0.3-3.1,0.3
					c-1.2,0-2.3-0.2-3.3-0.6l-0.3-0.1c-4-1.5-6.4-2.4-6.5-5.1c0-0.6,0.3-1.3,0.9-1.9c1.1-1.1,3.4-2.3,6.5-2.3h0.1
					c2.6,0,4.9,1.2,7.1,2.4c2,1,3.8,2,5.7,2c0.2,0,0.4,0,0.6,0c0.4,0,0.7-0.1,1-0.1c0.9,0,1.4,0.2,1.6,0.6c0.2,0.7-0.8,1.6-1.3,2
					c-1,0.7-1.3,1.6-1.1,2.6c0.1,0.5,0.1,0.9-0.1,1.1C718.4,188.7,718.3,188.8,718,188.8z M713.5,187.3c1.2,0,2.3,0.3,3.2,0.9
					c0.9,0.5,1.5,0.6,1.8,0.3c0.2-0.2,0.2-0.6,0.1-1.1c-0.3-1,0.1-2,1.1-2.7c0.5-0.4,1.4-1.3,1.2-1.9c-0.1-0.5-1-0.6-2.4-0.5
					c-0.2,0-0.4,0-0.6,0c-1.9,0-3.7-1-5.7-2c-2.2-1.1-4.4-2.3-7-2.3H705c-3.1,0-5.3,1.2-6.4,2.3c-0.6,0.6-0.9,1.3-0.9,1.8
					c0.1,2.7,2.4,3.5,6.5,5l0.3,0.1c1,0.4,2.1,0.6,3.3,0.6c1.1,0,2.1-0.1,3.1-0.3C711.8,187.4,712.7,187.3,713.5,187.3z"/>
			</g>
			<g>
				<path id="path2927_1_" class="st12" d="M676.6,230.5c-2.1-6.4-9.8-13.5-13.6-15.1l-0.2-3.5c2-0.8,7-4.7,9.2-6.9
					c15.4,7.4,36.2-3.1,45.9-13.9l3.7,2.2l-1.8,2.5l-1.9-1c-2.4,2.9-11.1,11.1-13.8,12.9c3.6,0.9,8.5,1.5,9.8,1.5
					c8.6-6.1,15.4-11.7,18.6-12.1l2.8,3.7l-2.5,1.7l-1.9-1.1c-9.2,7.6-19.7,24.2-23.8,35.2C701.3,235.3,680.8,236.1,676.6,230.5z"/>
				<path d="M707.1,236.6L707.1,236.6c-1.7-0.4-4.5-0.5-7.8-0.7c-8.3-0.5-19.7-1.3-22.7-5.3c-2.1-6.7-10-13.6-13.6-15.1l0,0v0
					l-0.2-3.5l0,0c2-0.8,6.9-4.6,9.2-6.8l0,0l0,0c3.4,1.6,7.3,2.5,11.4,2.5c6.1,0,12.8-1.8,19.3-5.1c5.9-3,11.2-7,15.1-11.3l0,0l0,0
					l3.7,2.3l0,0l-1.9,2.5l0,0l-1.9-1c-2.3,2.8-10.9,10.9-13.7,12.8c3.5,0.9,8,1.4,9.5,1.4c0.1,0,0.2,0,0.2,0
					c1.9-1.4,3.7-2.7,5.4-3.9c6-4.4,10.7-7.8,13.2-8.1h0l2.8,3.7l0,0l-2.5,1.8l0,0l-1.9-1.1C721.6,208.9,711.1,225.7,707.1,236.6
					L707.1,236.6z M663.1,215.3c3.6,1.6,11.5,8.5,13.6,15.2c3,4,14.3,4.7,22.6,5.3c3.3,0.2,6.1,0.4,7.8,0.7
					c4-10.9,14.5-27.6,23.8-35.2l0,0l0,0l1.9,1.1l2.4-1.7l-2.7-3.6c-2.5,0.3-7.2,3.8-13.2,8.1c-1.7,1.3-3.5,2.6-5.4,4
					c-0.1,0-0.2,0-0.3,0c-1.7,0-6.4-0.7-9.6-1.5l-0.1,0l0.1,0c2.7-1.8,11.5-10.1,13.8-12.9l0,0l0,0l1.9,1l1.8-2.4l-3.6-2.2
					c-3.8,4.3-9.2,8.3-15.1,11.3c-6.6,3.3-13.3,5.1-19.4,5.1c-4.2,0-8-0.8-11.4-2.5c-2.3,2.2-7.2,6-9.2,6.8L663.1,215.3z"/>
			</g>
			<path d="M689.8,209.6L689.8,209.6c4.9-0.3,9.2-1.5,10.9-3.1l0,0l0,0c0.7,0.4,1.8,0.7,3.2,1.1l0,0.1c-1.4-0.3-2.5-0.7-3.2-1.1
				C699,208.3,694.7,209.5,689.8,209.6z"/>
			<path d="M677.4,228.2c-1.4-7.5,0.8-16.1,4.7-18.7l0,0l0,0c8.7,5.7,23.1,5.5,31.6-0.5l0,0.1c-8.5,6-22.9,6.3-31.6,0.5
				C678.3,212.2,676.1,220.7,677.4,228.2L677.4,228.2z"/>
			<path d="M710.2,229.4L710.2,229.4c0-0.3,0-0.5-0.1-0.7c-0.8-1.5-5.9-2.6-8.4-2.9c-3.1-0.5-15.4-1.5-22.5-1.5c-0.6,0-1.2,0-1.7,0
				l0-0.1c0.5,0,1.1,0,1.7,0c7.1,0,19.5,1,22.6,1.5c2.6,0.4,7.7,1.5,8.5,3C710.4,228.9,710.4,229.1,710.2,229.4z"/>
			<path d="M680.5,223.2l-1.9-1.9l0,0l1.9-1.9l1.9,1.9l0,0L680.5,223.2z M678.7,221.3l1.8,1.8l1.8-1.8l-1.8-1.8L678.7,221.3z"/>
			<g>
				<path id="path2937_1_" class="st13" d="M684.9,185c-2.4-3.3-8.8-4.3-10.2,0.1c-0.6,1.9-1.5,4-3.1,4.9c-1.5,0.9-1.2,3.7-0.5,4.9
					c1.6,3,0.2,5.8,3.4,7.8c0-2.3,3.5-4.8,6.5-5.4c3-0.6,7.5-3.3,8.1-6.2C689.6,188.1,690.7,185.7,684.9,185z"/>
				<path d="M674.5,202.8L674.5,202.8c-2-1.2-2.2-2.8-2.5-4.4c-0.2-1.1-0.3-2.2-1-3.4c-0.7-1.2-1.1-4,0.5-5c1.6-1,2.5-3.3,3.1-4.9
					c0.6-1.9,2.2-3,4.4-3c2.3,0,4.6,1.1,5.9,2.8c2.2,0.2,3.5,0.8,4.2,1.6c0.7,1,0.4,2.3,0.1,3.8c0,0.2-0.1,0.4-0.1,0.7
					c-0.6,3-5.1,5.7-8.1,6.3C678,198,674.5,200.5,674.5,202.8L674.5,202.8z M679.1,182.2c-2.2,0-3.8,1.1-4.4,2.9
					c-0.5,1.6-1.4,3.9-3.1,4.9c-1.5,0.9-1.1,3.7-0.5,4.9c0.6,1.2,0.8,2.3,1,3.4c0.3,1.7,0.5,3.1,2.3,4.3c0.1-2.3,3.4-4.8,6.5-5.4
					c3-0.6,7.5-3.3,8.1-6.2c0-0.2,0.1-0.5,0.1-0.7c0.3-1.5,0.6-2.8-0.1-3.7c-0.6-0.9-1.9-1.4-4.1-1.6l0,0
					C683.7,183.4,681.3,182.2,679.1,182.2z"/>
			</g>
			<g>
				<path id="path2939_1_" class="st12" d="M670.2,214.5h0.8l0,5.6c0.2,0.1,0.4,0.1,0.5,0.3l4.8-2.8l0.4,0.7l-4.8,2.8
					c0,0.2,0.1,0.4,0,0.6l4.8,2.8l-0.4,0.7l-4.8-2.8c-0.1,0.1-0.3,0.2-0.5,0.3v5.6h-0.8l0-5.6c-0.2-0.1-0.4-0.1-0.5-0.3l-4.8,2.8
					l-0.4-0.7l4.8-2.8c0-0.2-0.1-0.4,0-0.5l-4.8-2.8l0.4-0.7l4.9,2.8c0.1-0.1,0.3-0.2,0.5-0.3V214.5L670.2,214.5z"/>
				<path d="M671,228.3h-0.9l0-5.6c-0.2-0.1-0.3-0.1-0.5-0.2l-4.8,2.8l0,0l-0.4-0.7l0,0l4.8-2.8c0-0.2,0-0.3,0-0.5l-4.8-2.8l0,0
					l0.4-0.8l0,0l4.8,2.8c0.1-0.1,0.3-0.2,0.4-0.3v-5.6h0.9l0,5.6l0,0c0.1,0.1,0.3,0.1,0.4,0.2l4.8-2.8l0.5,0.8l0,0l-4.8,2.8
					c0,0.2,0,0.3,0,0.5l4.8,2.8l0,0l-0.4,0.7l0,0l-4.8-2.8c-0.2,0.1-0.3,0.2-0.4,0.3V228.3z M670.2,228.2h0.8v-5.6l0,0
					c0.1-0.1,0.3-0.1,0.5-0.3l0,0l0,0l4.8,2.8l0.4-0.6l-4.8-2.8l0,0c0-0.2,0-0.4,0-0.5l0,0l0,0l4.8-2.8l-0.4-0.7l-4.8,2.8l0,0
					c-0.1-0.1-0.3-0.2-0.4-0.2l-0.1,0l0-5.6h-0.8v5.6l0,0c-0.2,0.1-0.3,0.2-0.4,0.3l0,0l0,0l-4.8-2.8l-0.4,0.7l4.8,2.8l0,0
					c0,0.2,0,0.4,0,0.5l0,0l0,0l-4.8,2.8l0.4,0.6l4.8-2.8l0,0c0.1,0.1,0.3,0.2,0.5,0.3l0,0L670.2,228.2z"/>
			</g>
			<g>
				<path id="path2941_1_" class="st12" d="M677.5,228.2c-1.8,1.8-4.2,2.9-6.9,2.9c-5.4,0-9.7-4.3-9.7-9.7c0-5.4,4.3-9.7,9.7-9.7
					c3.1,0,5.9,1.5,7.7,3.8c-0.5,1.2-1.1,4-1.1,5.2c-0.3-3.4-3.1-6-6.6-6c-3.7,0-6.6,3-6.6,6.6c0,3.7,3,6.6,6.6,6.6
					c3.1,0,5.7-2.1,6.5-5C677.1,224.3,677.1,227.2,677.5,228.2z"/>
				<path d="M670.6,231.1c-5.4,0-9.7-4.4-9.7-9.7c0-5.4,4.4-9.7,9.7-9.7c3.1,0,5.9,1.4,7.7,3.8l0,0l0,0c-0.5,1.2-1.1,3.9-1.1,5.2
					l-0.1,0c-0.3-3.4-3.2-5.9-6.5-5.9c-3.6,0-6.6,3-6.6,6.6c0,3.6,3,6.6,6.6,6.6c3,0,5.7-2.1,6.4-4.9l0.1,0c0,2.7,0.1,4.4,0.4,5.1
					l0,0l0,0C675.7,230.1,673.2,231.1,670.6,231.1z M670.6,211.7c-5.3,0-9.7,4.3-9.7,9.7c0,5.3,4.3,9.7,9.7,9.7c2.6,0,5-1,6.8-2.8
					c-0.3-0.7-0.4-2.4-0.4-4.9c-0.9,2.8-3.5,4.7-6.4,4.7c-3.7,0-6.7-3-6.7-6.7c0-3.7,3-6.7,6.7-6.7c3.3,0,6.1,2.4,6.6,5.6
					c0.1-1.4,0.7-3.7,1.1-4.8C676.4,213.1,673.6,211.7,670.6,211.7z"/>
			</g>
			<g>
				<path id="path2943_1_" class="st13" d="M666.5,237.5c-0.6-0.7-1.7-2.7-1.6-4.1c0.9-0.1,2.7,0.5,3.5,1.3c-0.1-1-0.5-3.3-0.3-4.3
					c1.1,0.4,3.5,1.7,4.3,3.3c-0.2-1-0.6-3.7-0.2-5.3c1.2,0.7,3.3,2.7,3.7,4c0.1-2.1,0.8-5.4,1.4-6.2c0.9,0.9,2.3,1.7,3.3,3
					c0.2-1.6,1-3.6,2.3-4.1c0.9,1,2.3,3.4,2.7,6c0.9-0.3,2.2-1.8,2.7-2.7c0.5,0.8,1,2.2,0.7,4c1.1-1,2.5-2.5,2.8-3.7
					c0.8,0.6,2.3,2.2,2.8,3.8c-0.2-1.3-0.1-3.7-0.5-5c1.5,0.8,2.8,2.2,3.1,3.8c0.4-1.4,1.3-4,2.1-4.6c0.8,1.6,1.6,3.6,1.5,5.2
					c0.5-1,1.3-2.9,2.2-3.3c0.7,1.1,0.6,3.6,0.4,4.9c0.7-1,2.1-2.3,2.9-2.7c0.1,0.6,0.2,1.8,0,2.8c0.9-0.5,2.5-3.3,3-4.7
					c1.4,0.7,2.9,3.2,3,4.4c1-0.4,3.1-2.2,3.7-3.3c0,0.7,0.3,2.7-0.1,4.2c0.6-0.6,1.2-1.8,1.5-2.3c0.4,1,0.1,3.5-0.3,4.8
					c0.9-0.8,2.3-1.3,3.1-1.3c0.1,1.7-1.1,4.8-2.3,7.1C707.8,239.6,687.2,238.6,666.5,237.5z"/>
				<path d="M717.6,242.4L717.6,242.4c-9.4-2.7-28.4-3.7-48.5-4.8l-2.7-0.1l0,0c-0.6-0.7-1.7-2.7-1.6-4.1l0,0l0,0c0.1,0,0.2,0,0.3,0
					c1,0,2.4,0.6,3.2,1.3c0-0.2-0.1-0.5-0.1-0.7c-0.2-1.1-0.4-2.7-0.2-3.5l0,0l0,0c1,0.3,3.3,1.6,4.2,3.1c-0.2-0.8-0.6-3.5-0.2-5.1
					l0,0l0,0c1.1,0.7,3.1,2.5,3.6,3.8c0.1-2.1,0.8-5.3,1.4-6.1l0,0l0,0c0.4,0.4,0.8,0.7,1.2,1.1c0.7,0.6,1.4,1.1,2,1.8
					c0.2-1.6,1-3.5,2.3-4l0,0l0,0c0.8,0.9,2.3,3.2,2.7,6c0.9-0.3,2.1-1.9,2.6-2.6l0,0l0,0c0.3,0.5,1.1,1.9,0.7,3.9
					c1.5-1.4,2.4-2.6,2.7-3.6l0-0.1l0,0c0.7,0.5,2.1,1.9,2.6,3.4c0-0.4-0.1-0.9-0.1-1.4c-0.1-1.1-0.1-2.3-0.4-3.2l0-0.1l0.1,0
					c1.5,0.8,2.7,2.2,3.1,3.7c0.4-1.4,1.3-3.9,2.1-4.5l0,0l0,0c0.7,1.5,1.6,3.4,1.5,5.1c0-0.1,0.1-0.2,0.1-0.2
					c0.5-1.1,1.2-2.5,2-2.9l0,0l0,0c0.7,1.1,0.6,3.5,0.4,4.8c0.7-1,2-2.2,2.8-2.5l0,0l0,0.1c0.1,0.6,0.2,1.8,0,2.7
					c0.9-0.6,2.4-3.2,2.9-4.6l0,0l0,0c1.5,0.7,2.8,3.2,3,4.4c1-0.4,3-2.2,3.6-3.2l0.1-0.1v0.1c0,0.2,0,0.4,0,0.7
					c0.1,0.9,0.2,2.2-0.1,3.3c0.4-0.5,0.9-1.2,1.2-1.8c0.1-0.2,0.2-0.3,0.3-0.5l0-0.1l0,0.1c0.4,1,0.1,3.4-0.3,4.7
					c1-0.8,2.3-1.2,3-1.2h0l0,0C720,237.4,718.2,241.3,717.6,242.4L717.6,242.4z M666.5,237.4l2.6,0.1c20,1.1,39,2.1,48.4,4.8
					c0.6-1.2,2.3-4.9,2.2-7c-0.8,0-2,0.5-3,1.3l-0.1,0.1l0-0.1c0.4-1.2,0.7-3.6,0.3-4.7c-0.1,0.1-0.1,0.2-0.2,0.4
					c-0.3,0.6-0.8,1.4-1.3,1.9l-0.1,0.1l0-0.1c0.3-1.2,0.2-2.5,0.1-3.5c0-0.2,0-0.4,0-0.6c-0.7,1.1-2.7,2.8-3.6,3.2l0,0l0,0
					c-0.1-1.2-1.5-3.6-2.9-4.3c-0.5,1.4-2,4.2-3,4.7l-0.1,0l0-0.1c0.2-0.9,0.1-2.1,0-2.7c-0.8,0.4-2.1,1.6-2.8,2.6l-0.1,0
					c0.2-1.2,0.3-3.7-0.4-4.9c-0.7,0.4-1.4,1.8-1.9,2.8c-0.1,0.1-0.1,0.3-0.2,0.4l-0.1,0c0.1-1.7-0.7-3.6-1.5-5.2
					c-0.8,0.7-1.7,3.3-2.1,4.6h-0.1c-0.3-1.5-1.4-2.9-3-3.7c0.2,0.8,0.3,2,0.3,3.1c0,0.7,0.1,1.3,0.1,1.8l-0.1,0
					c-0.4-1.6-1.9-3.1-2.7-3.7c-0.3,1-1.2,2.2-2.8,3.7l-0.1,0.1l0-0.1c0.3-1.9-0.3-3.3-0.7-3.9c-0.5,0.8-1.7,2.3-2.7,2.6l0,0l0,0
					c-0.3-2.7-1.8-5.1-2.6-6c-1.2,0.5-2,2.4-2.2,4.1l0,0.1l-0.1-0.1c-0.6-0.7-1.3-1.3-2-1.9c-0.4-0.4-0.9-0.7-1.2-1
					c-0.6,0.9-1.3,4.2-1.4,6.2l-0.1,0c-0.4-1.3-2.4-3.2-3.6-3.9c-0.4,1.9,0.1,4.9,0.2,5.2l-0.1,0c-0.8-1.6-3.2-2.9-4.2-3.2
					c-0.1,0.8,0.1,2.3,0.2,3.4c0,0.3,0.1,0.6,0.1,0.9l0,0.1l-0.1-0.1c-0.7-0.7-2.2-1.3-3.2-1.3c-0.1,0-0.1,0-0.2,0
					C664.8,234.8,665.9,236.7,666.5,237.4z"/>
			</g>
			<path id="path2945_2_" class="st10" d="M700.8,183.2c-0.1-0.7,1.6-2.5,4.7-2.4c3.6,0,6.9,2.7,9.9,2.5c2.9-0.2,1.5,0.8,0.9,1
				c-0.6,0.3-1,0.6-0.8,1.1c0.2,0.5-0.2,0.8-1.3,0.3c-2.6-0.9-5.2,0.4-8.6-0.3C702.5,184.7,700.8,184.3,700.8,183.2z"/>
		</g>
		<g id="g2947_2_">
			<g id="g2949_2_">
				<g>
					<path id="path2951_1_" class="st10" d="M669.7,243.6c-3.1,3.7-6.1,3.1-6.8,0.7c-0.6-2.4,1.6-3.5,0.8-5.5c-0.8-2,1.3-3,2.3-2
						c1,0.9,4.3-2.1,5.7,1c1.4,3.1,2.6,5.2,1.7,6.4C672.7,245.4,670.3,244.8,669.7,243.6z"/>
					<path d="M665.3,246.3c-1.2,0-2.1-0.7-2.5-1.9c-0.3-1.2,0.1-2.1,0.5-2.9c0.4-0.8,0.7-1.6,0.3-2.6c-0.3-0.9-0.1-1.4,0.1-1.8
						c0.3-0.4,0.8-0.7,1.3-0.7c0.4,0,0.7,0.1,1,0.4c0.1,0.1,0.3,0.2,0.5,0.2c0.4,0,0.8-0.1,1.3-0.3c0.6-0.2,1.2-0.3,1.8-0.3
						c1,0,1.7,0.5,2.1,1.5l0.3,0.7c1.3,2.7,2.2,4.6,1.4,5.8c-0.3,0.4-0.8,0.7-1.5,0.7c-1,0-2-0.5-2.4-1.3
						C668.3,245.3,666.7,246.3,665.3,246.3z M665.1,236.4c-0.5,0-1,0.3-1.3,0.7c-0.2,0.3-0.4,0.9-0.1,1.7c0.4,1,0,1.8-0.3,2.7
						c-0.4,0.8-0.8,1.7-0.5,2.8c0.3,1.2,1.2,1.9,2.4,1.9c1.4,0,2.9-0.9,4.3-2.6l0,0l0,0.1c0.4,0.7,1.4,1.3,2.4,1.3
						c0.6,0,1.1-0.2,1.4-0.7c0.7-1.1-0.2-3-1.4-5.7l-0.3-0.7c-0.5-1-1.1-1.4-2.1-1.4c-0.6,0-1.2,0.2-1.8,0.3
						c-0.5,0.1-0.9,0.3-1.3,0.3c-0.3,0-0.5-0.1-0.6-0.2C665.8,236.5,665.5,236.4,665.1,236.4z"/>
				</g>
				<g>
					<path id="path2953_1_" class="st10" d="M682.9,238.1c-0.6-1.3,2.6-3.9,4.3-2.1c1.6,1.8,4.2-2,5.6,0.9c1.4,2.9,1.9,4.5,2.6,6.1
						c0.7,1.6-3.9,2.5-5.3,1.1c0.2,1-4,1.7-5.1-1C684.3,241.5,683.6,239.9,682.9,238.1z"/>
					<path d="M688.1,245c-0.6,0-2.5-0.1-3.2-1.9c-0.2-0.5-0.5-1.1-0.7-1.7c-0.4-1-0.9-2.1-1.4-3.3c-0.1-0.4-0.1-0.8,0.3-1.3
						c0.5-0.7,1.6-1.5,2.6-1.5c0.6,0,1.1,0.2,1.4,0.7c0.3,0.3,0.7,0.5,1.1,0.5c0.5,0,1-0.2,1.5-0.4c0.5-0.2,1-0.4,1.5-0.4
						c0.7,0,1.2,0.4,1.6,1.2c0.9,1.9,1.5,3.2,1.9,4.4c0.2,0.6,0.5,1.2,0.7,1.7c0.1,0.3,0.1,0.6-0.1,0.8c-0.4,0.6-1.6,1-3,1
						c-1,0-1.8-0.2-2.3-0.7c0,0.1,0,0.2-0.1,0.3C689.7,244.7,688.9,245,688.1,245z M685.7,235.4c-1,0-2.1,0.7-2.6,1.5
						c-0.3,0.4-0.4,0.9-0.3,1.2c0.5,1.2,0.9,2.2,1.4,3.3c0.2,0.6,0.5,1.1,0.7,1.7c0.7,1.8,2.6,1.9,3.1,1.9c0.8,0,1.5-0.2,1.8-0.6
						c0.1-0.1,0.1-0.2,0.1-0.3l0-0.1l0.1,0.1c0.5,0.5,1.3,0.7,2.3,0.7c1.3,0,2.5-0.4,2.9-1c0.1-0.2,0.2-0.5,0.1-0.7
						c-0.2-0.6-0.5-1.1-0.7-1.7c-0.5-1.2-1-2.5-1.9-4.4c-0.4-0.8-0.9-1.1-1.5-1.1c-0.5,0-1,0.2-1.5,0.4c-0.5,0.2-1,0.4-1.5,0.4
						c-0.5,0-0.8-0.2-1.2-0.5C686.7,235.6,686.3,235.4,685.7,235.4z"/>
				</g>
				<g>
					<path id="path2955_1_" class="st10" d="M704.2,239.7c-0.8-1.4,3-3.5,4.9-0.9c0.5-1.1,4.2-1.3,4.5,1.8c0.3,3.1,0.4,5,0.5,6.2
						c0.1,1.2-2.2,2.4-3.9-0.8c-3,0.6-4.4-1.1-4.8-2.9C704.9,241.5,704.6,240.6,704.2,239.7z"/>
					<path d="M712.6,248.2c-0.5,0-1.6-0.3-2.6-2c-0.4,0.1-0.8,0.1-1.2,0.1c-2.7,0-3.4-2.1-3.6-3c-0.4-1.8-0.7-2.7-1.1-3.5
						c-0.2-0.3-0.1-0.6,0.1-1c0.4-0.7,1.4-1.2,2.5-1.2c0.7,0,1.6,0.2,2.4,1.2c0.2-0.4,0.9-0.7,1.7-0.7c1.2,0,2.6,0.7,2.8,2.6
						c0.1,1.8,0.2,3.2,0.3,4.3c0.1,0.8,0.1,1.4,0.1,1.9c0,0.3-0.1,0.6-0.3,0.8C713.5,248,713,248.2,712.6,248.2z M710.1,246.1
						L710.1,246.1c1,1.8,2,2,2.5,2c0.4,0,0.8-0.2,1.1-0.4c0.2-0.2,0.3-0.5,0.3-0.8c0-0.5-0.1-1.1-0.1-1.9c-0.1-1.1-0.2-2.5-0.3-4.3
						c-0.2-1.9-1.6-2.5-2.7-2.5c-0.8,0-1.5,0.3-1.7,0.7l0,0.1l0-0.1c-0.8-1-1.7-1.2-2.4-1.2c-1,0-2,0.5-2.4,1.2
						c-0.2,0.3-0.2,0.6-0.1,0.9c0.4,0.9,0.8,1.8,1.1,3.5c0.2,0.9,0.9,3,3.5,3C709.2,246.2,709.6,246.2,710.1,246.1L710.1,246.1z"/>
				</g>
			</g>
			<g id="g2957_2_">
				<g>
					<path id="path2959_1_" class="st13" d="M671.7,237.7c-0.5-1,2.6-3.1,4.7-1.5c2.1,1.5,5-1.3,6.2,1.4c2.5,5.6,2.7,6,1.9,7.1
						c-0.8,1.1-4,0.7-4.9-0.8c-0.2,1-3,0.8-4.5,0C673.5,243,672.3,239.5,671.7,237.7z"/>
					<path d="M682.8,245.3c-1.2,0-2.6-0.5-3.1-1.4c-0.1,0.4-0.7,0.6-1.7,0.6c-1,0-2.1-0.3-2.8-0.7c-1.6-0.9-2.8-4.1-3.5-6l-0.1-0.2
						c-0.1-0.2-0.1-0.5,0.1-0.8c0.4-0.7,1.6-1.4,2.9-1.4c0.7,0,1.2,0.2,1.8,0.6c0.4,0.3,1,0.5,1.6,0.5c0.5,0,1-0.1,1.4-0.2
						c0.5-0.1,0.9-0.1,1.3-0.1c0.9,0,1.5,0.4,1.9,1.3c2.5,5.5,2.7,6,1.9,7.1C684.3,245.1,683.6,245.3,682.8,245.3z M679.6,243.7
						l0.1,0.1c0.5,0.9,2,1.4,3.1,1.4c0.8,0,1.4-0.2,1.7-0.6c0.8-1.1,0.6-1.5-1.9-7c-0.4-0.9-1-1.2-1.8-1.2c-0.4,0-0.8,0.1-1.3,0.1
						c-0.5,0.1-1,0.2-1.4,0.2c-0.7,0-1.2-0.2-1.6-0.5c-0.5-0.4-1.1-0.5-1.7-0.5c-1.2,0-2.4,0.7-2.8,1.4c-0.2,0.3-0.2,0.5-0.1,0.7
						l0.1,0.2c0.7,1.9,1.8,5.1,3.4,5.9c0.7,0.4,1.8,0.7,2.8,0.7c0.9,0,1.5-0.3,1.6-0.7L679.6,243.7z"/>
				</g>
				<g>
					<path id="path2961_1_" class="st13" d="M693.2,238c-0.7-1.6,4.1-3,6.2-0.2c1.1-1,3.4-1,4.8,2c1.3,3,1.5,4.7,0.6,5.5
						c-0.7,0.5-3.2,1-4-0.4c-1.1,0.7-4.6,0.1-5.4-1.8C694.6,241,693.9,239.3,693.2,238z"/>
					<path d="M702.8,245.8c-0.6,0-1.5-0.1-2-0.9c-0.3,0.2-0.8,0.3-1.3,0.3c-1.6,0-3.5-0.8-4.1-2.2c-0.8-2-1.4-3.6-2.2-5
						c-0.1-0.3-0.1-0.5,0.1-0.8c0.4-0.6,1.5-1,2.7-1c1.4,0,2.7,0.6,3.4,1.6c0.4-0.4,1-0.6,1.6-0.6c1.3,0,2.5,0.9,3.2,2.6
						c1.4,3.1,1.5,4.8,0.5,5.5C704.4,245.5,703.6,245.8,702.8,245.8z M700.8,244.8L700.8,244.8c0.5,0.8,1.5,0.9,2,0.9
						c0.8,0,1.6-0.3,1.9-0.5c0.9-0.7,0.8-2.4-0.6-5.4c-0.7-1.6-1.9-2.6-3.1-2.6c-0.6,0-1.2,0.2-1.6,0.6l0,0l0,0
						c-0.8-1-2-1.6-3.4-1.6c-1.2,0-2.3,0.4-2.7,1c-0.2,0.2-0.2,0.5-0.1,0.7c0.7,1.4,1.4,3,2.2,5c0.5,1.4,2.5,2.1,4,2.1
						C700,245.1,700.4,245,700.8,244.8L700.8,244.8z"/>
				</g>
				<g>
					<path id="path2963_1_" class="st13" d="M713.6,241c-0.1-1.4,2.5-2.1,3.5,0c1,2.1,4.1,0.2,4.3,3.7c0,0.7-0.4,3.2-1.3,4.5
						c-1,1.2-5.7,0-6-2.6C713.7,243.9,713.6,242.4,713.6,241z"/>
					<path d="M718.7,249.6c-1.8,0-4.4-1.2-4.7-3.1c-0.3-2.6-0.4-4.1-0.5-5.5c0-0.3,0.1-0.6,0.3-0.9c0.3-0.3,0.8-0.5,1.3-0.5
						c0.8,0,1.6,0.5,2,1.4c0.4,0.9,1.2,1,2,1.2c1.1,0.2,2.2,0.5,2.4,2.5c0,0.7-0.4,3.2-1.3,4.5C719.9,249.5,719.3,249.6,718.7,249.6
						z M715.1,239.7c-0.5,0-0.9,0.2-1.2,0.5c-0.2,0.2-0.3,0.5-0.3,0.8c0.1,1.4,0.2,2.9,0.5,5.5c0.2,1.9,2.8,3.1,4.6,3.1
						c0.7,0,1.2-0.2,1.4-0.5c1-1.2,1.4-3.8,1.3-4.4c-0.2-2-1.2-2.2-2.3-2.4c-0.8-0.2-1.6-0.3-2-1.3
						C716.7,240.2,715.9,239.7,715.1,239.7z"/>
				</g>
			</g>
			<g id="g2965_2_">
				<path d="M669.6,243.6c-0.1-0.1-0.1-0.2-0.2-0.3c-0.7-1-1.6-2.2-2.6-2.2h0c-0.6,0-1.1,0.4-1.7,1.2l-0.1,0
					c0.6-0.8,1.2-1.2,1.8-1.2h0c1.1,0,2,1.2,2.7,2.2C669.6,243.4,669.6,243.5,669.6,243.6L669.6,243.6z"/>
				<path d="M679.6,243.9c-0.7-0.9-1.6-2.3-1.9-3.5l0.1,0C678.1,241.5,679,242.9,679.6,243.9L679.6,243.9z"/>
				<path d="M690,244.1c-0.8-0.6-1.8-1.6-2.4-2.6l0.1,0C688.3,242.4,689.3,243.5,690,244.1L690,244.1z"/>
				<path d="M695.4,243.7c-1-0.2-2.2-1.7-2.7-2.3c-0.6-0.8-1.8-2.4-3.6-2.6l0-0.1c1.8,0.2,3,1.9,3.6,2.7
					C693.1,241.8,694.4,243.4,695.4,243.7L695.4,243.7z"/>
				<path d="M700.7,244.8l-0.2-0.3c-0.6-0.9-1-1.6-1.2-2.3l0.1,0c0.1,0.6,0.6,1.4,1.2,2.2L700.7,244.8L700.7,244.8z"/>
				<path d="M700.8,240.2c-0.4-0.8-0.8-1.6-1.4-2.4l0.1,0C700,238.6,700.5,239.3,700.8,240.2L700.8,240.2z"/>
				<path d="M710,246.2c-0.9-1.6-2.1-3-3.2-3.5l0-0.1C707.9,243.1,709.2,244.5,710,246.2L710,246.2z"/>
				<path d="M713.9,245.9c-0.1-1-0.9-1.5-1.9-2.1c-1.1-0.7-2.4-1.6-2.4-3.2h0.1c0.1,1.6,1.2,2.4,2.4,3.2
					C713,244.3,713.9,244.9,713.9,245.9L713.9,245.9z"/>
				<path d="M717.7,243.8c-0.1-1.3-0.2-2.1-0.6-2.8l0.1,0C717.5,241.7,717.7,242.5,717.7,243.8L717.7,243.8z"/>
			</g>
		</g>
	</g>
</g>
</svg>
