<?xml version="1.0" encoding="utf-8"?>
<!-- Generator: Adobe Illustrator 22.1.0, SVG Export Plug-In . SVG Version: 6.00 Build 0)  -->
<svg version="1.1" id="Layer_1" xmlns="http://www.w3.org/2000/svg" xmlns:xlink="http://www.w3.org/1999/xlink" x="0px" y="0px"
	 viewBox="0 0 85 56.7" style="enable-background:new 0 0 85 56.7;" xml:space="preserve">
<style type="text/css">
	.st0{fill:#0066B3;}
	.st1{fill:#50B848;}
	.st2{clip-path:url(#SVGID_2_);fill:#FFDD00;}
	.st3{fill:#FFFFFF;}
	.st4{clip-path:url(#SVGID_4_);fill:#FFDD00;}
	.st5{clip-path:url(#SVGID_6_);fill:#FFDD00;}
	.st6{clip-path:url(#SVGID_8_);fill:#FFDD00;}
	.st7{clip-path:url(#SVGID_10_);fill:#FFDD00;}
	.st8{fill:#2D235B;}
	.st9{fill:#FFCB2D;}
</style>
<g>
	<g>
		<rect x="-440.5" y="-1071.5" class="st0" width="78.1" height="46.1"/>
		<g>
			<polygon class="st1" points="-440.5,-1025.4 -362.4,-1071.5 -362.4,-1025.4 			"/>
		</g>
		<g>
			<defs>
				<rect id="SVGID_1_" x="-440.5" y="-1071.5" width="78.1" height="46.1"/>
			</defs>
			<clipPath id="SVGID_2_">
				<use xlink:href="#SVGID_1_"  style="overflow:visible;"/>
			</clipPath>
			
				<rect x="-446.8" y="-1050.6" transform="matrix(0.8612 -0.5083 0.5083 0.8612 477.1753 -349.5775)" class="st2" width="90.7" height="4.3"/>
		</g>
	</g>
	<polygon class="st3" points="-431.5,-1067.6 -430.5,-1064.6 -427.3,-1064.6 -429.9,-1062.7 -428.9,-1059.7 -431.5,-1061.5 
		-434.1,-1059.7 -433.1,-1062.7 -435.7,-1064.6 -432.5,-1064.6 	"/>
	<polygon class="st3" points="-414.4,-1067.6 -413.4,-1064.6 -410.2,-1064.6 -412.8,-1062.7 -411.8,-1059.7 -414.4,-1061.5 
		-417,-1059.7 -416,-1062.7 -418.6,-1064.6 -415.4,-1064.6 	"/>
	<polygon class="st3" points="-414.4,-1054.3 -413.4,-1051.3 -410.2,-1051.2 -412.8,-1049.4 -411.8,-1046.3 -414.4,-1048.2 
		-417,-1046.3 -416,-1049.4 -418.6,-1051.2 -415.4,-1051.3 	"/>
	<polygon class="st3" points="-431.4,-1054.3 -430.4,-1051.3 -427.2,-1051.3 -429.8,-1049.4 -428.8,-1046.3 -431.4,-1048.2 
		-434,-1046.3 -433,-1049.4 -435.6,-1051.3 -432.4,-1051.3 	"/>
	<polygon class="st3" points="-423,-1061.6 -422,-1058.6 -418.8,-1058.6 -421.4,-1056.7 -420.4,-1053.7 -423,-1055.5 
		-425.6,-1053.7 -424.6,-1056.7 -427.2,-1058.6 -424,-1058.6 	"/>
</g>
<g>
	<g>
		<rect x="-440.5" y="-1071.5" class="st0" width="78.1" height="46.1"/>
		<g>
			<polygon class="st1" points="-440.5,-1025.4 -362.4,-1071.5 -362.4,-1025.4 			"/>
		</g>
		<g>
			<defs>
				<rect id="SVGID_3_" x="-440.5" y="-1071.5" width="78.1" height="46.1"/>
			</defs>
			<clipPath id="SVGID_4_">
				<use xlink:href="#SVGID_3_"  style="overflow:visible;"/>
			</clipPath>
			
				<rect x="-446.8" y="-1050.6" transform="matrix(0.8612 -0.5083 0.5083 0.8612 477.1753 -349.5775)" class="st4" width="90.7" height="4.3"/>
		</g>
	</g>
	<polygon class="st3" points="-431.5,-1067.6 -430.5,-1064.6 -427.3,-1064.6 -429.9,-1062.7 -428.9,-1059.7 -431.5,-1061.5 
		-434.1,-1059.7 -433.1,-1062.7 -435.7,-1064.6 -432.5,-1064.6 	"/>
	<polygon class="st3" points="-414.4,-1067.6 -413.4,-1064.6 -410.2,-1064.6 -412.8,-1062.7 -411.8,-1059.7 -414.4,-1061.5 
		-417,-1059.7 -416,-1062.7 -418.6,-1064.6 -415.4,-1064.6 	"/>
	<polygon class="st3" points="-414.4,-1054.3 -413.4,-1051.3 -410.2,-1051.2 -412.8,-1049.4 -411.8,-1046.3 -414.4,-1048.2 
		-417,-1046.3 -416,-1049.4 -418.6,-1051.2 -415.4,-1051.3 	"/>
	<polygon class="st3" points="-431.4,-1054.3 -430.4,-1051.3 -427.2,-1051.3 -429.8,-1049.4 -428.8,-1046.3 -431.4,-1048.2 
		-434,-1046.3 -433,-1049.4 -435.6,-1051.3 -432.4,-1051.3 	"/>
	<polygon class="st3" points="-423,-1061.6 -422,-1058.6 -418.8,-1058.6 -421.4,-1056.7 -420.4,-1053.7 -423,-1055.5 
		-425.6,-1053.7 -424.6,-1056.7 -427.2,-1058.6 -424,-1058.6 	"/>
</g>
<g>
	<g>
		<rect x="-440.5" y="-1071.5" class="st0" width="78.1" height="46.1"/>
		<g>
			<polygon class="st1" points="-440.5,-1025.4 -362.4,-1071.5 -362.4,-1025.4 			"/>
		</g>
		<g>
			<defs>
				<rect id="SVGID_5_" x="-440.5" y="-1071.5" width="78.1" height="46.1"/>
			</defs>
			<clipPath id="SVGID_6_">
				<use xlink:href="#SVGID_5_"  style="overflow:visible;"/>
			</clipPath>
			
				<rect x="-446.8" y="-1050.6" transform="matrix(0.8612 -0.5083 0.5083 0.8612 477.1753 -349.5775)" class="st5" width="90.7" height="4.3"/>
		</g>
	</g>
	<polygon class="st3" points="-431.5,-1067.6 -430.5,-1064.6 -427.3,-1064.6 -429.9,-1062.7 -428.9,-1059.7 -431.5,-1061.5 
		-434.1,-1059.7 -433.1,-1062.7 -435.7,-1064.6 -432.5,-1064.6 	"/>
	<polygon class="st3" points="-414.4,-1067.6 -413.4,-1064.6 -410.2,-1064.6 -412.8,-1062.7 -411.8,-1059.7 -414.4,-1061.5 
		-417,-1059.7 -416,-1062.7 -418.6,-1064.6 -415.4,-1064.6 	"/>
	<polygon class="st3" points="-414.4,-1054.3 -413.4,-1051.3 -410.2,-1051.2 -412.8,-1049.4 -411.8,-1046.3 -414.4,-1048.2 
		-417,-1046.3 -416,-1049.4 -418.6,-1051.2 -415.4,-1051.3 	"/>
	<polygon class="st3" points="-431.4,-1054.3 -430.4,-1051.3 -427.2,-1051.3 -429.8,-1049.4 -428.8,-1046.3 -431.4,-1048.2 
		-434,-1046.3 -433,-1049.4 -435.6,-1051.3 -432.4,-1051.3 	"/>
	<polygon class="st3" points="-423,-1061.6 -422,-1058.6 -418.8,-1058.6 -421.4,-1056.7 -420.4,-1053.7 -423,-1055.5 
		-425.6,-1053.7 -424.6,-1056.7 -427.2,-1058.6 -424,-1058.6 	"/>
</g>
<g>
	<g>
		<rect x="-440.5" y="-1071.5" class="st0" width="78.1" height="46.1"/>
		<g>
			<polygon class="st1" points="-440.5,-1025.4 -362.4,-1071.5 -362.4,-1025.4 			"/>
		</g>
		<g>
			<defs>
				<rect id="SVGID_7_" x="-440.5" y="-1071.5" width="78.1" height="46.1"/>
			</defs>
			<clipPath id="SVGID_8_">
				<use xlink:href="#SVGID_7_"  style="overflow:visible;"/>
			</clipPath>
			
				<rect x="-446.8" y="-1050.6" transform="matrix(0.8612 -0.5083 0.5083 0.8612 477.1753 -349.5775)" class="st6" width="90.7" height="4.3"/>
		</g>
	</g>
	<polygon class="st3" points="-431.5,-1067.6 -430.5,-1064.6 -427.3,-1064.6 -429.9,-1062.7 -428.9,-1059.7 -431.5,-1061.5 
		-434.1,-1059.7 -433.1,-1062.7 -435.7,-1064.6 -432.5,-1064.6 	"/>
	<polygon class="st3" points="-414.4,-1067.6 -413.4,-1064.6 -410.2,-1064.6 -412.8,-1062.7 -411.8,-1059.7 -414.4,-1061.5 
		-417,-1059.7 -416,-1062.7 -418.6,-1064.6 -415.4,-1064.6 	"/>
	<polygon class="st3" points="-414.4,-1054.3 -413.4,-1051.3 -410.2,-1051.2 -412.8,-1049.4 -411.8,-1046.3 -414.4,-1048.2 
		-417,-1046.3 -416,-1049.4 -418.6,-1051.2 -415.4,-1051.3 	"/>
	<polygon class="st3" points="-431.4,-1054.3 -430.4,-1051.3 -427.2,-1051.3 -429.8,-1049.4 -428.8,-1046.3 -431.4,-1048.2 
		-434,-1046.3 -433,-1049.4 -435.6,-1051.3 -432.4,-1051.3 	"/>
	<polygon class="st3" points="-423,-1061.6 -422,-1058.6 -418.8,-1058.6 -421.4,-1056.7 -420.4,-1053.7 -423,-1055.5 
		-425.6,-1053.7 -424.6,-1056.7 -427.2,-1058.6 -424,-1058.6 	"/>
</g>
<g>
	<g>
		<rect x="-447.5" y="-1079.5" class="st0" width="78.1" height="46.1"/>
		<g>
			<polygon class="st1" points="-447.5,-1033.4 -369.4,-1079.5 -369.4,-1033.4 			"/>
		</g>
		<g>
			<defs>
				<rect id="SVGID_9_" x="-447.5" y="-1079.5" width="78.1" height="46.1"/>
			</defs>
			<clipPath id="SVGID_10_">
				<use xlink:href="#SVGID_9_"  style="overflow:visible;"/>
			</clipPath>
			
				<rect x="-453.8" y="-1058.6" transform="matrix(0.8612 -0.5083 0.5083 0.8612 480.27 -354.2461)" class="st7" width="90.7" height="4.3"/>
		</g>
	</g>
	<polygon class="st3" points="-438.5,-1075.6 -437.5,-1072.6 -434.3,-1072.6 -436.9,-1070.7 -435.9,-1067.7 -438.5,-1069.5 
		-441.1,-1067.7 -440.1,-1070.7 -442.7,-1072.6 -439.5,-1072.6 	"/>
	<polygon class="st3" points="-421.4,-1075.6 -420.4,-1072.6 -417.2,-1072.6 -419.8,-1070.7 -418.8,-1067.7 -421.4,-1069.5 
		-424,-1067.7 -423,-1070.7 -425.6,-1072.6 -422.4,-1072.6 	"/>
	<polygon class="st3" points="-421.4,-1062.3 -420.4,-1059.3 -417.2,-1059.2 -419.8,-1057.4 -418.8,-1054.3 -421.4,-1056.2 
		-424,-1054.3 -423,-1057.4 -425.6,-1059.2 -422.4,-1059.3 	"/>
	<polygon class="st3" points="-438.4,-1062.3 -437.4,-1059.3 -434.2,-1059.3 -436.8,-1057.4 -435.8,-1054.3 -438.4,-1056.2 
		-441,-1054.3 -440,-1057.4 -442.6,-1059.3 -439.4,-1059.3 	"/>
	<polygon class="st3" points="-430,-1069.6 -429,-1066.6 -425.8,-1066.6 -428.4,-1064.7 -427.4,-1061.7 -430,-1063.5 
		-432.6,-1061.7 -431.6,-1064.7 -434.2,-1066.6 -431,-1066.6 	"/>
</g>
<g>
	<rect id="rect8_1_" x="3.6" y="5.3" class="st8" width="77.9" height="46.1"/>
	<comment  id="comment10">The above line is the ensign field color: #CF142B red and #00247D blue</comment>
	<path id="path3248_1_" class="st9" d="M3.6,51.4c25-14.8,35.5-33,62.4-46.1l0,0C58.6,16.2,60.2,41,81.4,51.2L3.6,51.4z"/>
	<rect id="rect5209_1_" x="3.6" y="46.8" class="st8" width="77.9" height="2.3"/>
</g>
<path id="path11001_1_" class="st3" d="M12.8,11.2h1.6l0.5-1.5l0.5,1.5H17l-1.3,0.9l0.5,1.5l-1.3-0.9l-1.3,0.9l0.5-1.5L12.8,11.2z"
	/>
<path id="path2185_1_" class="st3" d="M6.4,17.6H8l0.5-1.5L9,17.6h1.6l-1.3,0.9L9.8,20l-1.3-0.9L7.2,20l0.5-1.5L6.4,17.6z"/>
<path id="path2191_1_" class="st3" d="M18.5,16h1.4l0.4-1.3l0.4,1.3h1.4l-1.1,0.8l0.4,1.3l-1.1-0.8l-1.1,0.8l0.4-1.3L18.5,16z"/>
<path id="path2197_1_" class="st3" d="M12.6,27.6h1.8l0.5-1.7l0.5,1.7h1.8l-1.4,1l0.5,1.7l-1.4-1l-1.4,1l0.5-1.7L12.6,27.6z"/>
</svg>
