<?xml version="1.0" encoding="utf-8"?>
<!-- Generator: Adobe Illustrator 22.1.0, SVG Export Plug-In . SVG Version: 6.00 Build 0)  -->
<svg version="1.1" id="Layer_1" xmlns="http://www.w3.org/2000/svg" xmlns:xlink="http://www.w3.org/1999/xlink" x="0px" y="0px"
	 viewBox="0 0 85 56.7" style="enable-background:new 0 0 85 56.7;" xml:space="preserve">
<style type="text/css">
	.st0{fill:#0066B3;}
	.st1{fill:#50B848;}
	.st2{clip-path:url(#SVGID_2_);fill:#FFDD00;}
	.st3{fill:#FFFFFF;}
	.st4{clip-path:url(#SVGID_4_);fill:#FFDD00;}
	.st5{clip-path:url(#SVGID_6_);fill:#FFDD00;}
	.st6{clip-path:url(#SVGID_8_);fill:#FFDD00;}
	.st7{clip-path:url(#SVGID_10_);fill:#FFDD00;}
	.st8{clip-path:url(#SVGID_12_);fill:#FFDD00;}
	.st9{clip-path:url(#SVGID_14_);fill:#FFDD00;}
	.st10{fill:#66ABC3;}
	.st11{fill:#2F338D;}
	.st12{fill:#E92926;}
	.st13{fill:#FFD332;}
</style>
<g>
	<g>
		<rect x="-440.5" y="-1071.5" class="st0" width="78.1" height="46.1"/>
		<g>
			<polygon class="st1" points="-440.5,-1025.4 -362.4,-1071.5 -362.4,-1025.4 			"/>
		</g>
		<g>
			<defs>
				<rect id="SVGID_1_" x="-440.5" y="-1071.5" width="78.1" height="46.1"/>
			</defs>
			<clipPath id="SVGID_2_">
				<use xlink:href="#SVGID_1_"  style="overflow:visible;"/>
			</clipPath>
			
				<rect x="-446.8" y="-1050.6" transform="matrix(0.8612 -0.5083 0.5083 0.8612 477.1753 -349.5775)" class="st2" width="90.7" height="4.3"/>
		</g>
	</g>
	<polygon class="st3" points="-431.5,-1067.6 -430.5,-1064.6 -427.3,-1064.6 -429.9,-1062.7 -428.9,-1059.7 -431.5,-1061.5 
		-434.1,-1059.7 -433.1,-1062.7 -435.7,-1064.6 -432.5,-1064.6 	"/>
	<polygon class="st3" points="-414.4,-1067.6 -413.4,-1064.6 -410.2,-1064.6 -412.8,-1062.7 -411.8,-1059.7 -414.4,-1061.5 
		-417,-1059.7 -416,-1062.7 -418.6,-1064.6 -415.4,-1064.6 	"/>
	<polygon class="st3" points="-414.4,-1054.3 -413.4,-1051.3 -410.2,-1051.2 -412.8,-1049.4 -411.8,-1046.3 -414.4,-1048.2 
		-417,-1046.3 -416,-1049.4 -418.6,-1051.2 -415.4,-1051.3 	"/>
	<polygon class="st3" points="-431.4,-1054.3 -430.4,-1051.3 -427.2,-1051.3 -429.8,-1049.4 -428.8,-1046.3 -431.4,-1048.2 
		-434,-1046.3 -433,-1049.4 -435.6,-1051.3 -432.4,-1051.3 	"/>
	<polygon class="st3" points="-423,-1061.6 -422,-1058.6 -418.8,-1058.6 -421.4,-1056.7 -420.4,-1053.7 -423,-1055.5 
		-425.6,-1053.7 -424.6,-1056.7 -427.2,-1058.6 -424,-1058.6 	"/>
</g>
<g>
	<g>
		<rect x="-440.5" y="-1071.5" class="st0" width="78.1" height="46.1"/>
		<g>
			<polygon class="st1" points="-440.5,-1025.4 -362.4,-1071.5 -362.4,-1025.4 			"/>
		</g>
		<g>
			<defs>
				<rect id="SVGID_3_" x="-440.5" y="-1071.5" width="78.1" height="46.1"/>
			</defs>
			<clipPath id="SVGID_4_">
				<use xlink:href="#SVGID_3_"  style="overflow:visible;"/>
			</clipPath>
			
				<rect x="-446.8" y="-1050.6" transform="matrix(0.8612 -0.5083 0.5083 0.8612 477.1753 -349.5775)" class="st4" width="90.7" height="4.3"/>
		</g>
	</g>
	<polygon class="st3" points="-431.5,-1067.6 -430.5,-1064.6 -427.3,-1064.6 -429.9,-1062.7 -428.9,-1059.7 -431.5,-1061.5 
		-434.1,-1059.7 -433.1,-1062.7 -435.7,-1064.6 -432.5,-1064.6 	"/>
	<polygon class="st3" points="-414.4,-1067.6 -413.4,-1064.6 -410.2,-1064.6 -412.8,-1062.7 -411.8,-1059.7 -414.4,-1061.5 
		-417,-1059.7 -416,-1062.7 -418.6,-1064.6 -415.4,-1064.6 	"/>
	<polygon class="st3" points="-414.4,-1054.3 -413.4,-1051.3 -410.2,-1051.2 -412.8,-1049.4 -411.8,-1046.3 -414.4,-1048.2 
		-417,-1046.3 -416,-1049.4 -418.6,-1051.2 -415.4,-1051.3 	"/>
	<polygon class="st3" points="-431.4,-1054.3 -430.4,-1051.3 -427.2,-1051.3 -429.8,-1049.4 -428.8,-1046.3 -431.4,-1048.2 
		-434,-1046.3 -433,-1049.4 -435.6,-1051.3 -432.4,-1051.3 	"/>
	<polygon class="st3" points="-423,-1061.6 -422,-1058.6 -418.8,-1058.6 -421.4,-1056.7 -420.4,-1053.7 -423,-1055.5 
		-425.6,-1053.7 -424.6,-1056.7 -427.2,-1058.6 -424,-1058.6 	"/>
</g>
<g>
	<g>
		<rect x="-440.5" y="-1071.5" class="st0" width="78.1" height="46.1"/>
		<g>
			<polygon class="st1" points="-440.5,-1025.4 -362.4,-1071.5 -362.4,-1025.4 			"/>
		</g>
		<g>
			<defs>
				<rect id="SVGID_5_" x="-440.5" y="-1071.5" width="78.1" height="46.1"/>
			</defs>
			<clipPath id="SVGID_6_">
				<use xlink:href="#SVGID_5_"  style="overflow:visible;"/>
			</clipPath>
			
				<rect x="-446.8" y="-1050.6" transform="matrix(0.8612 -0.5083 0.5083 0.8612 477.1753 -349.5775)" class="st5" width="90.7" height="4.3"/>
		</g>
	</g>
	<polygon class="st3" points="-431.5,-1067.6 -430.5,-1064.6 -427.3,-1064.6 -429.9,-1062.7 -428.9,-1059.7 -431.5,-1061.5 
		-434.1,-1059.7 -433.1,-1062.7 -435.7,-1064.6 -432.5,-1064.6 	"/>
	<polygon class="st3" points="-414.4,-1067.6 -413.4,-1064.6 -410.2,-1064.6 -412.8,-1062.7 -411.8,-1059.7 -414.4,-1061.5 
		-417,-1059.7 -416,-1062.7 -418.6,-1064.6 -415.4,-1064.6 	"/>
	<polygon class="st3" points="-414.4,-1054.3 -413.4,-1051.3 -410.2,-1051.2 -412.8,-1049.4 -411.8,-1046.3 -414.4,-1048.2 
		-417,-1046.3 -416,-1049.4 -418.6,-1051.2 -415.4,-1051.3 	"/>
	<polygon class="st3" points="-431.4,-1054.3 -430.4,-1051.3 -427.2,-1051.3 -429.8,-1049.4 -428.8,-1046.3 -431.4,-1048.2 
		-434,-1046.3 -433,-1049.4 -435.6,-1051.3 -432.4,-1051.3 	"/>
	<polygon class="st3" points="-423,-1061.6 -422,-1058.6 -418.8,-1058.6 -421.4,-1056.7 -420.4,-1053.7 -423,-1055.5 
		-425.6,-1053.7 -424.6,-1056.7 -427.2,-1058.6 -424,-1058.6 	"/>
</g>
<g>
	<g>
		<rect x="-440.5" y="-1071.5" class="st0" width="78.1" height="46.1"/>
		<g>
			<polygon class="st1" points="-440.5,-1025.4 -362.4,-1071.5 -362.4,-1025.4 			"/>
		</g>
		<g>
			<defs>
				<rect id="SVGID_7_" x="-440.5" y="-1071.5" width="78.1" height="46.1"/>
			</defs>
			<clipPath id="SVGID_8_">
				<use xlink:href="#SVGID_7_"  style="overflow:visible;"/>
			</clipPath>
			
				<rect x="-446.8" y="-1050.6" transform="matrix(0.8612 -0.5083 0.5083 0.8612 477.1753 -349.5775)" class="st6" width="90.7" height="4.3"/>
		</g>
	</g>
	<polygon class="st3" points="-431.5,-1067.6 -430.5,-1064.6 -427.3,-1064.6 -429.9,-1062.7 -428.9,-1059.7 -431.5,-1061.5 
		-434.1,-1059.7 -433.1,-1062.7 -435.7,-1064.6 -432.5,-1064.6 	"/>
	<polygon class="st3" points="-414.4,-1067.6 -413.4,-1064.6 -410.2,-1064.6 -412.8,-1062.7 -411.8,-1059.7 -414.4,-1061.5 
		-417,-1059.7 -416,-1062.7 -418.6,-1064.6 -415.4,-1064.6 	"/>
	<polygon class="st3" points="-414.4,-1054.3 -413.4,-1051.3 -410.2,-1051.2 -412.8,-1049.4 -411.8,-1046.3 -414.4,-1048.2 
		-417,-1046.3 -416,-1049.4 -418.6,-1051.2 -415.4,-1051.3 	"/>
	<polygon class="st3" points="-431.4,-1054.3 -430.4,-1051.3 -427.2,-1051.3 -429.8,-1049.4 -428.8,-1046.3 -431.4,-1048.2 
		-434,-1046.3 -433,-1049.4 -435.6,-1051.3 -432.4,-1051.3 	"/>
	<polygon class="st3" points="-423,-1061.6 -422,-1058.6 -418.8,-1058.6 -421.4,-1056.7 -420.4,-1053.7 -423,-1055.5 
		-425.6,-1053.7 -424.6,-1056.7 -427.2,-1058.6 -424,-1058.6 	"/>
</g>
<g>
	<g>
		<rect x="-447.5" y="-1079.5" class="st0" width="78.1" height="46.1"/>
		<g>
			<polygon class="st1" points="-447.5,-1033.4 -369.4,-1079.5 -369.4,-1033.4 			"/>
		</g>
		<g>
			<defs>
				<rect id="SVGID_9_" x="-447.5" y="-1079.5" width="78.1" height="46.1"/>
			</defs>
			<clipPath id="SVGID_10_">
				<use xlink:href="#SVGID_9_"  style="overflow:visible;"/>
			</clipPath>
			
				<rect x="-453.8" y="-1058.6" transform="matrix(0.8612 -0.5083 0.5083 0.8612 480.27 -354.2461)" class="st7" width="90.7" height="4.3"/>
		</g>
	</g>
	<polygon class="st3" points="-438.5,-1075.6 -437.5,-1072.6 -434.3,-1072.6 -436.9,-1070.7 -435.9,-1067.7 -438.5,-1069.5 
		-441.1,-1067.7 -440.1,-1070.7 -442.7,-1072.6 -439.5,-1072.6 	"/>
	<polygon class="st3" points="-421.4,-1075.6 -420.4,-1072.6 -417.2,-1072.6 -419.8,-1070.7 -418.8,-1067.7 -421.4,-1069.5 
		-424,-1067.7 -423,-1070.7 -425.6,-1072.6 -422.4,-1072.6 	"/>
	<polygon class="st3" points="-421.4,-1062.3 -420.4,-1059.3 -417.2,-1059.2 -419.8,-1057.4 -418.8,-1054.3 -421.4,-1056.2 
		-424,-1054.3 -423,-1057.4 -425.6,-1059.2 -422.4,-1059.3 	"/>
	<polygon class="st3" points="-438.4,-1062.3 -437.4,-1059.3 -434.2,-1059.3 -436.8,-1057.4 -435.8,-1054.3 -438.4,-1056.2 
		-441,-1054.3 -440,-1057.4 -442.6,-1059.3 -439.4,-1059.3 	"/>
	<polygon class="st3" points="-430,-1069.6 -429,-1066.6 -425.8,-1066.6 -428.4,-1064.7 -427.4,-1061.7 -430,-1063.5 
		-432.6,-1061.7 -431.6,-1064.7 -434.2,-1066.6 -431,-1066.6 	"/>
</g>
<g>
	<g>
		<rect x="-447.5" y="-1079.5" class="st0" width="78.1" height="46.1"/>
		<g>
			<polygon class="st1" points="-447.5,-1033.4 -369.4,-1079.5 -369.4,-1033.4 			"/>
		</g>
		<g>
			<defs>
				<rect id="SVGID_11_" x="-447.5" y="-1079.5" width="78.1" height="46.1"/>
			</defs>
			<clipPath id="SVGID_12_">
				<use xlink:href="#SVGID_11_"  style="overflow:visible;"/>
			</clipPath>
			
				<rect x="-453.8" y="-1058.6" transform="matrix(0.8612 -0.5083 0.5083 0.8612 480.27 -354.2461)" class="st8" width="90.7" height="4.3"/>
		</g>
	</g>
	<polygon class="st3" points="-438.5,-1075.6 -437.5,-1072.6 -434.3,-1072.6 -436.9,-1070.7 -435.9,-1067.7 -438.5,-1069.5 
		-441.1,-1067.7 -440.1,-1070.7 -442.7,-1072.6 -439.5,-1072.6 	"/>
	<polygon class="st3" points="-421.4,-1075.6 -420.4,-1072.6 -417.2,-1072.6 -419.8,-1070.7 -418.8,-1067.7 -421.4,-1069.5 
		-424,-1067.7 -423,-1070.7 -425.6,-1072.6 -422.4,-1072.6 	"/>
	<polygon class="st3" points="-421.4,-1062.3 -420.4,-1059.3 -417.2,-1059.2 -419.8,-1057.4 -418.8,-1054.3 -421.4,-1056.2 
		-424,-1054.3 -423,-1057.4 -425.6,-1059.2 -422.4,-1059.3 	"/>
	<polygon class="st3" points="-438.4,-1062.3 -437.4,-1059.3 -434.2,-1059.3 -436.8,-1057.4 -435.8,-1054.3 -438.4,-1056.2 
		-441,-1054.3 -440,-1057.4 -442.6,-1059.3 -439.4,-1059.3 	"/>
	<polygon class="st3" points="-430,-1069.6 -429,-1066.6 -425.8,-1066.6 -428.4,-1064.7 -427.4,-1061.7 -430,-1063.5 
		-432.6,-1061.7 -431.6,-1064.7 -434.2,-1066.6 -431,-1066.6 	"/>
</g>
<g>
	<g>
		<rect x="-447.5" y="-1079.5" class="st0" width="78.1" height="46.1"/>
		<g>
			<polygon class="st1" points="-447.5,-1033.4 -369.4,-1079.5 -369.4,-1033.4 			"/>
		</g>
		<g>
			<defs>
				<rect id="SVGID_13_" x="-447.5" y="-1079.5" width="78.1" height="46.1"/>
			</defs>
			<clipPath id="SVGID_14_">
				<use xlink:href="#SVGID_13_"  style="overflow:visible;"/>
			</clipPath>
			
				<rect x="-453.8" y="-1058.6" transform="matrix(0.8612 -0.5083 0.5083 0.8612 480.27 -354.2461)" class="st9" width="90.7" height="4.3"/>
		</g>
	</g>
	<polygon class="st3" points="-438.5,-1075.6 -437.5,-1072.6 -434.3,-1072.6 -436.9,-1070.7 -435.9,-1067.7 -438.5,-1069.5 
		-441.1,-1067.7 -440.1,-1070.7 -442.7,-1072.6 -439.5,-1072.6 	"/>
	<polygon class="st3" points="-421.4,-1075.6 -420.4,-1072.6 -417.2,-1072.6 -419.8,-1070.7 -418.8,-1067.7 -421.4,-1069.5 
		-424,-1067.7 -423,-1070.7 -425.6,-1072.6 -422.4,-1072.6 	"/>
	<polygon class="st3" points="-421.4,-1062.3 -420.4,-1059.3 -417.2,-1059.2 -419.8,-1057.4 -418.8,-1054.3 -421.4,-1056.2 
		-424,-1054.3 -423,-1057.4 -425.6,-1059.2 -422.4,-1059.3 	"/>
	<polygon class="st3" points="-438.4,-1062.3 -437.4,-1059.3 -434.2,-1059.3 -436.8,-1057.4 -435.8,-1054.3 -438.4,-1056.2 
		-441,-1054.3 -440,-1057.4 -442.6,-1059.3 -439.4,-1059.3 	"/>
	<polygon class="st3" points="-430,-1069.6 -429,-1066.6 -425.8,-1066.6 -428.4,-1064.7 -427.4,-1061.7 -430,-1063.5 
		-432.6,-1061.7 -431.6,-1064.7 -434.2,-1066.6 -431,-1066.6 	"/>
</g>
<g>
	<rect x="3.5" y="5.8" class="st10" width="78.5" height="46.3"/>
	<rect x="3.5" y="5.8" class="st11" width="40.5" height="23.1"/>
	<polygon class="st3" points="3.5,28.9 8,28.9 20.4,21.9 20.4,28.9 27.1,28.9 27.1,21.9 39.4,29 44,29 44,26.4 35,21.2 44,21.2 
		44,13.6 34.9,13.6 44,8.4 44,5.8 39.3,5.8 27.1,12.8 27.1,5.8 20.4,5.8 20.4,12.8 8.2,5.8 3.5,5.8 3.5,8.4 12.5,13.6 3.5,13.6 
		3.5,21.2 12.5,21.2 3.5,26.4 	"/>
	<polygon class="st12" points="3.5,5.8 3.5,7.5 14,13.4 16.9,13.4 	"/>
	<polygon class="st12" points="30.5,21.2 44,29 44,27.2 33.5,21.2 	"/>
	<polygon class="st12" points="30.4,13.5 44,5.8 40.9,5.8 27.5,13.5 	"/>
	<polygon class="st12" points="17,21.2 3.5,28.9 6.3,28.9 20,21.2 	"/>
	<rect x="21.5" y="5.8" class="st12" width="4.1" height="23.2"/>
	<rect x="3.5" y="15" class="st12" width="40.5" height="4.7"/>
	<polygon class="st13" points="69.1,31.5 70,34.4 73.1,34.4 70.6,36.2 71.6,39.1 69.1,37.3 66.6,39.1 67.6,36.2 65.1,34.4 
		68.2,34.4 	"/>
	<polygon class="st13" points="76.4,26 77.4,28.9 80.4,28.9 77.9,30.7 78.9,33.6 76.4,31.8 74,33.6 74.9,30.7 72.4,28.9 75.5,28.9 	
		"/>
	<polygon class="st13" points="76.3,7.9 77.2,10.8 80.3,10.8 77.8,12.6 78.7,15.5 76.3,13.7 73.8,15.5 74.8,12.6 72.3,10.8 
		75.3,10.8 	"/>
	<polygon class="st13" points="45.2,43.3 46.2,46.2 49.2,46.2 46.7,48 47.7,50.9 45.2,49.1 42.7,50.9 43.7,48 41.2,46.2 44.3,46.2 	
		"/>
	<polygon class="st13" points="56.2,32.2 55.2,35.1 57.7,36.9 54.6,36.8 53.7,39.7 52.7,36.8 49.7,36.8 52.2,35 51.2,32.1 53.7,34 	
		"/>
	<polygon class="st13" points="64.5,39.2 63.6,42.1 66,43.9 63,43.9 62,46.8 61.1,43.9 58.1,43.9 60.5,42.1 59.6,39.2 62.1,41 	"/>
	<polygon class="st13" points="56.2,41.5 55.3,44.4 57.7,46.2 54.7,46.2 53.7,49.1 52.8,46.2 49.8,46.2 52.2,44.4 51.3,41.5 
		53.8,43.3 	"/>
	<polygon class="st13" points="64.5,18.8 63.5,21.7 66,23.5 62.9,23.5 62,26.4 61.1,23.4 58,23.4 60.5,21.7 59.6,18.8 62,20.6 	"/>
	<polygon class="st13" points="71.8,16 70.8,18.9 73.3,20.7 70.2,20.6 69.3,23.5 68.4,20.6 65.3,20.6 67.8,18.8 66.9,15.9 
		69.3,17.7 	"/>
</g>
</svg>
