<?xml version="1.0" encoding="utf-8"?>
<!-- Generator: Adobe Illustrator 22.1.0, SVG Export Plug-In . SVG Version: 6.00 Build 0)  -->
<svg version="1.1" id="Layer_1" xmlns="http://www.w3.org/2000/svg" xmlns:xlink="http://www.w3.org/1999/xlink" x="0px" y="0px"
	 viewBox="0 0 85 56.7" style="enable-background:new 0 0 85 56.7;" xml:space="preserve">
<style type="text/css">
	.st0{fill:#0066B3;}
	.st1{fill:#50B848;}
	.st2{clip-path:url(#SVGID_2_);fill:#FFDD00;}
	.st3{fill:#FFFFFF;}
	.st4{clip-path:url(#SVGID_4_);fill:#FFDD00;}
	.st5{clip-path:url(#SVGID_6_);fill:#FFDD00;}
	.st6{clip-path:url(#SVGID_8_);fill:#FFDD00;}
	.st7{clip-path:url(#SVGID_10_);fill:#FFDD00;}
	.st8{clip-path:url(#SVGID_12_);fill:#FFDD00;}
	.st9{clip-path:url(#SVGID_14_);fill:#FFDD00;}
	.st10{clip-path:url(#SVGID_16_);fill:#FFDD00;}
	.st11{fill:#ED1C24;}
	.st12{fill:#0072BC;}
</style>
<g>
	<g>
		<rect x="-440.5" y="-1071.5" class="st0" width="78.1" height="46.1"/>
		<g>
			<polygon class="st1" points="-440.5,-1025.4 -362.4,-1071.5 -362.4,-1025.4 			"/>
		</g>
		<g>
			<defs>
				<rect id="SVGID_1_" x="-440.5" y="-1071.5" width="78.1" height="46.1"/>
			</defs>
			<clipPath id="SVGID_2_">
				<use xlink:href="#SVGID_1_"  style="overflow:visible;"/>
			</clipPath>
			
				<rect x="-446.8" y="-1050.6" transform="matrix(0.8612 -0.5083 0.5083 0.8612 477.1753 -349.5775)" class="st2" width="90.7" height="4.3"/>
		</g>
	</g>
	<polygon class="st3" points="-431.5,-1067.6 -430.5,-1064.6 -427.3,-1064.6 -429.9,-1062.7 -428.9,-1059.7 -431.5,-1061.5 
		-434.1,-1059.7 -433.1,-1062.7 -435.7,-1064.6 -432.5,-1064.6 	"/>
	<polygon class="st3" points="-414.4,-1067.6 -413.4,-1064.6 -410.2,-1064.6 -412.8,-1062.7 -411.8,-1059.7 -414.4,-1061.5 
		-417,-1059.7 -416,-1062.7 -418.6,-1064.6 -415.4,-1064.6 	"/>
	<polygon class="st3" points="-414.4,-1054.3 -413.4,-1051.3 -410.2,-1051.2 -412.8,-1049.4 -411.8,-1046.3 -414.4,-1048.2 
		-417,-1046.3 -416,-1049.4 -418.6,-1051.2 -415.4,-1051.3 	"/>
	<polygon class="st3" points="-431.4,-1054.3 -430.4,-1051.3 -427.2,-1051.3 -429.8,-1049.4 -428.8,-1046.3 -431.4,-1048.2 
		-434,-1046.3 -433,-1049.4 -435.6,-1051.3 -432.4,-1051.3 	"/>
	<polygon class="st3" points="-423,-1061.6 -422,-1058.6 -418.8,-1058.6 -421.4,-1056.7 -420.4,-1053.7 -423,-1055.5 
		-425.6,-1053.7 -424.6,-1056.7 -427.2,-1058.6 -424,-1058.6 	"/>
</g>
<g>
	<g>
		<rect x="-440.5" y="-1071.5" class="st0" width="78.1" height="46.1"/>
		<g>
			<polygon class="st1" points="-440.5,-1025.4 -362.4,-1071.5 -362.4,-1025.4 			"/>
		</g>
		<g>
			<defs>
				<rect id="SVGID_3_" x="-440.5" y="-1071.5" width="78.1" height="46.1"/>
			</defs>
			<clipPath id="SVGID_4_">
				<use xlink:href="#SVGID_3_"  style="overflow:visible;"/>
			</clipPath>
			
				<rect x="-446.8" y="-1050.6" transform="matrix(0.8612 -0.5083 0.5083 0.8612 477.1753 -349.5775)" class="st4" width="90.7" height="4.3"/>
		</g>
	</g>
	<polygon class="st3" points="-431.5,-1067.6 -430.5,-1064.6 -427.3,-1064.6 -429.9,-1062.7 -428.9,-1059.7 -431.5,-1061.5 
		-434.1,-1059.7 -433.1,-1062.7 -435.7,-1064.6 -432.5,-1064.6 	"/>
	<polygon class="st3" points="-414.4,-1067.6 -413.4,-1064.6 -410.2,-1064.6 -412.8,-1062.7 -411.8,-1059.7 -414.4,-1061.5 
		-417,-1059.7 -416,-1062.7 -418.6,-1064.6 -415.4,-1064.6 	"/>
	<polygon class="st3" points="-414.4,-1054.3 -413.4,-1051.3 -410.2,-1051.2 -412.8,-1049.4 -411.8,-1046.3 -414.4,-1048.2 
		-417,-1046.3 -416,-1049.4 -418.6,-1051.2 -415.4,-1051.3 	"/>
	<polygon class="st3" points="-431.4,-1054.3 -430.4,-1051.3 -427.2,-1051.3 -429.8,-1049.4 -428.8,-1046.3 -431.4,-1048.2 
		-434,-1046.3 -433,-1049.4 -435.6,-1051.3 -432.4,-1051.3 	"/>
	<polygon class="st3" points="-423,-1061.6 -422,-1058.6 -418.8,-1058.6 -421.4,-1056.7 -420.4,-1053.7 -423,-1055.5 
		-425.6,-1053.7 -424.6,-1056.7 -427.2,-1058.6 -424,-1058.6 	"/>
</g>
<g>
	<g>
		<rect x="-440.5" y="-1071.5" class="st0" width="78.1" height="46.1"/>
		<g>
			<polygon class="st1" points="-440.5,-1025.4 -362.4,-1071.5 -362.4,-1025.4 			"/>
		</g>
		<g>
			<defs>
				<rect id="SVGID_5_" x="-440.5" y="-1071.5" width="78.1" height="46.1"/>
			</defs>
			<clipPath id="SVGID_6_">
				<use xlink:href="#SVGID_5_"  style="overflow:visible;"/>
			</clipPath>
			
				<rect x="-446.8" y="-1050.6" transform="matrix(0.8612 -0.5083 0.5083 0.8612 477.1753 -349.5775)" class="st5" width="90.7" height="4.3"/>
		</g>
	</g>
	<polygon class="st3" points="-431.5,-1067.6 -430.5,-1064.6 -427.3,-1064.6 -429.9,-1062.7 -428.9,-1059.7 -431.5,-1061.5 
		-434.1,-1059.7 -433.1,-1062.7 -435.7,-1064.6 -432.5,-1064.6 	"/>
	<polygon class="st3" points="-414.4,-1067.6 -413.4,-1064.6 -410.2,-1064.6 -412.8,-1062.7 -411.8,-1059.7 -414.4,-1061.5 
		-417,-1059.7 -416,-1062.7 -418.6,-1064.6 -415.4,-1064.6 	"/>
	<polygon class="st3" points="-414.4,-1054.3 -413.4,-1051.3 -410.2,-1051.2 -412.8,-1049.4 -411.8,-1046.3 -414.4,-1048.2 
		-417,-1046.3 -416,-1049.4 -418.6,-1051.2 -415.4,-1051.3 	"/>
	<polygon class="st3" points="-431.4,-1054.3 -430.4,-1051.3 -427.2,-1051.3 -429.8,-1049.4 -428.8,-1046.3 -431.4,-1048.2 
		-434,-1046.3 -433,-1049.4 -435.6,-1051.3 -432.4,-1051.3 	"/>
	<polygon class="st3" points="-423,-1061.6 -422,-1058.6 -418.8,-1058.6 -421.4,-1056.7 -420.4,-1053.7 -423,-1055.5 
		-425.6,-1053.7 -424.6,-1056.7 -427.2,-1058.6 -424,-1058.6 	"/>
</g>
<g>
	<g>
		<rect x="-440.5" y="-1071.5" class="st0" width="78.1" height="46.1"/>
		<g>
			<polygon class="st1" points="-440.5,-1025.4 -362.4,-1071.5 -362.4,-1025.4 			"/>
		</g>
		<g>
			<defs>
				<rect id="SVGID_7_" x="-440.5" y="-1071.5" width="78.1" height="46.1"/>
			</defs>
			<clipPath id="SVGID_8_">
				<use xlink:href="#SVGID_7_"  style="overflow:visible;"/>
			</clipPath>
			
				<rect x="-446.8" y="-1050.6" transform="matrix(0.8612 -0.5083 0.5083 0.8612 477.1753 -349.5775)" class="st6" width="90.7" height="4.3"/>
		</g>
	</g>
	<polygon class="st3" points="-431.5,-1067.6 -430.5,-1064.6 -427.3,-1064.6 -429.9,-1062.7 -428.9,-1059.7 -431.5,-1061.5 
		-434.1,-1059.7 -433.1,-1062.7 -435.7,-1064.6 -432.5,-1064.6 	"/>
	<polygon class="st3" points="-414.4,-1067.6 -413.4,-1064.6 -410.2,-1064.6 -412.8,-1062.7 -411.8,-1059.7 -414.4,-1061.5 
		-417,-1059.7 -416,-1062.7 -418.6,-1064.6 -415.4,-1064.6 	"/>
	<polygon class="st3" points="-414.4,-1054.3 -413.4,-1051.3 -410.2,-1051.2 -412.8,-1049.4 -411.8,-1046.3 -414.4,-1048.2 
		-417,-1046.3 -416,-1049.4 -418.6,-1051.2 -415.4,-1051.3 	"/>
	<polygon class="st3" points="-431.4,-1054.3 -430.4,-1051.3 -427.2,-1051.3 -429.8,-1049.4 -428.8,-1046.3 -431.4,-1048.2 
		-434,-1046.3 -433,-1049.4 -435.6,-1051.3 -432.4,-1051.3 	"/>
	<polygon class="st3" points="-423,-1061.6 -422,-1058.6 -418.8,-1058.6 -421.4,-1056.7 -420.4,-1053.7 -423,-1055.5 
		-425.6,-1053.7 -424.6,-1056.7 -427.2,-1058.6 -424,-1058.6 	"/>
</g>
<g>
	<g>
		<rect x="-447.5" y="-1079.5" class="st0" width="78.1" height="46.1"/>
		<g>
			<polygon class="st1" points="-447.5,-1033.4 -369.4,-1079.5 -369.4,-1033.4 			"/>
		</g>
		<g>
			<defs>
				<rect id="SVGID_9_" x="-447.5" y="-1079.5" width="78.1" height="46.1"/>
			</defs>
			<clipPath id="SVGID_10_">
				<use xlink:href="#SVGID_9_"  style="overflow:visible;"/>
			</clipPath>
			
				<rect x="-453.8" y="-1058.6" transform="matrix(0.8612 -0.5083 0.5083 0.8612 480.27 -354.2461)" class="st7" width="90.7" height="4.3"/>
		</g>
	</g>
	<polygon class="st3" points="-438.5,-1075.6 -437.5,-1072.6 -434.3,-1072.6 -436.9,-1070.7 -435.9,-1067.7 -438.5,-1069.5 
		-441.1,-1067.7 -440.1,-1070.7 -442.7,-1072.6 -439.5,-1072.6 	"/>
	<polygon class="st3" points="-421.4,-1075.6 -420.4,-1072.6 -417.2,-1072.6 -419.8,-1070.7 -418.8,-1067.7 -421.4,-1069.5 
		-424,-1067.7 -423,-1070.7 -425.6,-1072.6 -422.4,-1072.6 	"/>
	<polygon class="st3" points="-421.4,-1062.3 -420.4,-1059.3 -417.2,-1059.2 -419.8,-1057.4 -418.8,-1054.3 -421.4,-1056.2 
		-424,-1054.3 -423,-1057.4 -425.6,-1059.2 -422.4,-1059.3 	"/>
	<polygon class="st3" points="-438.4,-1062.3 -437.4,-1059.3 -434.2,-1059.3 -436.8,-1057.4 -435.8,-1054.3 -438.4,-1056.2 
		-441,-1054.3 -440,-1057.4 -442.6,-1059.3 -439.4,-1059.3 	"/>
	<polygon class="st3" points="-430,-1069.6 -429,-1066.6 -425.8,-1066.6 -428.4,-1064.7 -427.4,-1061.7 -430,-1063.5 
		-432.6,-1061.7 -431.6,-1064.7 -434.2,-1066.6 -431,-1066.6 	"/>
</g>
<g>
	<g>
		<rect x="-447.5" y="-1079.5" class="st0" width="78.1" height="46.1"/>
		<g>
			<polygon class="st1" points="-447.5,-1033.4 -369.4,-1079.5 -369.4,-1033.4 			"/>
		</g>
		<g>
			<defs>
				<rect id="SVGID_11_" x="-447.5" y="-1079.5" width="78.1" height="46.1"/>
			</defs>
			<clipPath id="SVGID_12_">
				<use xlink:href="#SVGID_11_"  style="overflow:visible;"/>
			</clipPath>
			
				<rect x="-453.8" y="-1058.6" transform="matrix(0.8612 -0.5083 0.5083 0.8612 480.27 -354.2461)" class="st8" width="90.7" height="4.3"/>
		</g>
	</g>
	<polygon class="st3" points="-438.5,-1075.6 -437.5,-1072.6 -434.3,-1072.6 -436.9,-1070.7 -435.9,-1067.7 -438.5,-1069.5 
		-441.1,-1067.7 -440.1,-1070.7 -442.7,-1072.6 -439.5,-1072.6 	"/>
	<polygon class="st3" points="-421.4,-1075.6 -420.4,-1072.6 -417.2,-1072.6 -419.8,-1070.7 -418.8,-1067.7 -421.4,-1069.5 
		-424,-1067.7 -423,-1070.7 -425.6,-1072.6 -422.4,-1072.6 	"/>
	<polygon class="st3" points="-421.4,-1062.3 -420.4,-1059.3 -417.2,-1059.2 -419.8,-1057.4 -418.8,-1054.3 -421.4,-1056.2 
		-424,-1054.3 -423,-1057.4 -425.6,-1059.2 -422.4,-1059.3 	"/>
	<polygon class="st3" points="-438.4,-1062.3 -437.4,-1059.3 -434.2,-1059.3 -436.8,-1057.4 -435.8,-1054.3 -438.4,-1056.2 
		-441,-1054.3 -440,-1057.4 -442.6,-1059.3 -439.4,-1059.3 	"/>
	<polygon class="st3" points="-430,-1069.6 -429,-1066.6 -425.8,-1066.6 -428.4,-1064.7 -427.4,-1061.7 -430,-1063.5 
		-432.6,-1061.7 -431.6,-1064.7 -434.2,-1066.6 -431,-1066.6 	"/>
</g>
<g>
	<g>
		<rect x="-447.5" y="-1079.5" class="st0" width="78.1" height="46.1"/>
		<g>
			<polygon class="st1" points="-447.5,-1033.4 -369.4,-1079.5 -369.4,-1033.4 			"/>
		</g>
		<g>
			<defs>
				<rect id="SVGID_13_" x="-447.5" y="-1079.5" width="78.1" height="46.1"/>
			</defs>
			<clipPath id="SVGID_14_">
				<use xlink:href="#SVGID_13_"  style="overflow:visible;"/>
			</clipPath>
			
				<rect x="-453.8" y="-1058.6" transform="matrix(0.8612 -0.5083 0.5083 0.8612 480.27 -354.2461)" class="st9" width="90.7" height="4.3"/>
		</g>
	</g>
	<polygon class="st3" points="-438.5,-1075.6 -437.5,-1072.6 -434.3,-1072.6 -436.9,-1070.7 -435.9,-1067.7 -438.5,-1069.5 
		-441.1,-1067.7 -440.1,-1070.7 -442.7,-1072.6 -439.5,-1072.6 	"/>
	<polygon class="st3" points="-421.4,-1075.6 -420.4,-1072.6 -417.2,-1072.6 -419.8,-1070.7 -418.8,-1067.7 -421.4,-1069.5 
		-424,-1067.7 -423,-1070.7 -425.6,-1072.6 -422.4,-1072.6 	"/>
	<polygon class="st3" points="-421.4,-1062.3 -420.4,-1059.3 -417.2,-1059.2 -419.8,-1057.4 -418.8,-1054.3 -421.4,-1056.2 
		-424,-1054.3 -423,-1057.4 -425.6,-1059.2 -422.4,-1059.3 	"/>
	<polygon class="st3" points="-438.4,-1062.3 -437.4,-1059.3 -434.2,-1059.3 -436.8,-1057.4 -435.8,-1054.3 -438.4,-1056.2 
		-441,-1054.3 -440,-1057.4 -442.6,-1059.3 -439.4,-1059.3 	"/>
	<polygon class="st3" points="-430,-1069.6 -429,-1066.6 -425.8,-1066.6 -428.4,-1064.7 -427.4,-1061.7 -430,-1063.5 
		-432.6,-1061.7 -431.6,-1064.7 -434.2,-1066.6 -431,-1066.6 	"/>
</g>
<g>
	<g>
		<rect x="-447.5" y="-1079.5" class="st0" width="78.1" height="46.1"/>
		<g>
			<polygon class="st1" points="-447.5,-1033.4 -369.4,-1079.5 -369.4,-1033.4 			"/>
		</g>
		<g>
			<defs>
				<rect id="SVGID_15_" x="-447.5" y="-1079.5" width="78.1" height="46.1"/>
			</defs>
			<clipPath id="SVGID_16_">
				<use xlink:href="#SVGID_15_"  style="overflow:visible;"/>
			</clipPath>
			
				<rect x="-453.8" y="-1058.6" transform="matrix(0.8612 -0.5083 0.5083 0.8612 480.27 -354.2461)" class="st10" width="90.7" height="4.3"/>
		</g>
	</g>
	<polygon class="st3" points="-438.5,-1075.6 -437.5,-1072.6 -434.3,-1072.6 -436.9,-1070.7 -435.9,-1067.7 -438.5,-1069.5 
		-441.1,-1067.7 -440.1,-1070.7 -442.7,-1072.6 -439.5,-1072.6 	"/>
	<polygon class="st3" points="-421.4,-1075.6 -420.4,-1072.6 -417.2,-1072.6 -419.8,-1070.7 -418.8,-1067.7 -421.4,-1069.5 
		-424,-1067.7 -423,-1070.7 -425.6,-1072.6 -422.4,-1072.6 	"/>
	<polygon class="st3" points="-421.4,-1062.3 -420.4,-1059.3 -417.2,-1059.2 -419.8,-1057.4 -418.8,-1054.3 -421.4,-1056.2 
		-424,-1054.3 -423,-1057.4 -425.6,-1059.2 -422.4,-1059.3 	"/>
	<polygon class="st3" points="-438.4,-1062.3 -437.4,-1059.3 -434.2,-1059.3 -436.8,-1057.4 -435.8,-1054.3 -438.4,-1056.2 
		-441,-1054.3 -440,-1057.4 -442.6,-1059.3 -439.4,-1059.3 	"/>
	<polygon class="st3" points="-430,-1069.6 -429,-1066.6 -425.8,-1066.6 -428.4,-1064.7 -427.4,-1061.7 -430,-1063.5 
		-432.6,-1061.7 -431.6,-1064.7 -434.2,-1066.6 -431,-1066.6 	"/>
</g>
<g>
	<g>
		<rect x="3.4" y="4.8" class="st3" width="78.1" height="46.1"/>
		<rect x="3.4" y="47.4" class="st11" width="78.1" height="3.5"/>
		<rect x="3.4" y="19.2" class="st11" width="78.1" height="3.5"/>
		<rect x="3.5" y="40.3" class="st11" width="78.1" height="3.5"/>
		<rect x="3.5" y="33.1" class="st11" width="78.1" height="3.5"/>
		<rect x="3.4" y="26.4" class="st11" width="78.1" height="3.5"/>
		<rect x="3.5" y="12" class="st11" width="78.1" height="3.5"/>
		<rect x="3.4" y="4.8" class="st11" width="78.1" height="3.5"/>
	</g>
	<rect x="3.4" y="4.7" class="st12" width="32.9" height="25.3"/>
	<g>
		<g>
			<polygon class="st3" points="6.2,5.6 6.6,6.8 7.8,6.8 6.8,7.6 7.2,8.8 6.2,8 5.2,8.8 5.6,7.6 4.6,6.8 5.8,6.8 			"/>
			<polygon class="st3" points="11.7,5.7 12.1,6.9 13.4,6.9 12.4,7.6 12.7,8.8 11.7,8.1 10.7,8.8 11.1,7.6 10.1,6.9 11.3,6.9 			"/>
			<polygon class="st3" points="17.2,5.6 17.6,6.8 18.9,6.8 17.9,7.6 18.3,8.8 17.2,8 16.2,8.8 16.6,7.6 15.6,6.8 16.8,6.8 			"/>
			<polygon class="st3" points="22.7,5.6 23.1,6.8 24.4,6.8 23.4,7.6 23.7,8.8 22.7,8 21.7,8.8 22.1,7.6 21.1,6.8 22.3,6.8 			"/>
			<polygon class="st3" points="28.2,5.6 28.6,6.8 29.8,6.8 28.8,7.6 29.2,8.8 28.2,8 27.2,8.8 27.5,7.6 26.5,6.8 27.8,6.8 			"/>
			<polygon class="st3" points="33.4,5.6 33.8,6.8 35,6.8 34,7.6 34.4,8.8 33.4,8 32.4,8.8 32.8,7.6 31.7,6.8 33,6.8 			"/>
		</g>
		<g>
			<polygon class="st3" points="6.1,10.4 6.5,11.6 7.8,11.6 6.8,12.3 7.2,13.5 6.1,12.8 5.1,13.5 5.5,12.3 4.5,11.6 5.8,11.6 			"/>
			<polygon class="st3" points="11.7,10.4 12.1,11.6 13.3,11.6 12.3,12.4 12.7,13.6 11.7,12.8 10.7,13.6 11,12.4 10,11.6 11.3,11.6 
							"/>
			<polygon class="st3" points="17.2,10.4 17.6,11.6 18.8,11.6 17.8,12.3 18.2,13.5 17.2,12.8 16.2,13.5 16.6,12.3 15.6,11.6 
				16.8,11.6 			"/>
			<polygon class="st3" points="22.7,10.4 23.1,11.6 24.3,11.6 23.3,12.3 23.7,13.5 22.7,12.8 21.7,13.5 22,12.3 21,11.6 22.3,11.6 
							"/>
			<polygon class="st3" points="28.1,10.4 28.5,11.6 29.8,11.6 28.8,12.3 29.1,13.5 28.1,12.8 27.1,13.5 27.5,12.3 26.5,11.6 
				27.7,11.6 			"/>
			<polygon class="st3" points="33.3,10.4 33.7,11.6 35,11.6 34,12.3 34.3,13.5 33.3,12.8 32.3,13.5 32.7,12.3 31.7,11.6 32.9,11.6 
							"/>
		</g>
		<g>
			<polygon class="st3" points="6.2,15.5 6.6,16.7 7.8,16.7 6.8,17.4 7.2,18.6 6.2,17.9 5.2,18.6 5.6,17.4 4.6,16.7 5.8,16.7 			"/>
			<polygon class="st3" points="11.7,15.6 12.1,16.7 13.4,16.7 12.4,17.5 12.7,18.7 11.7,17.9 10.7,18.7 11.1,17.5 10.1,16.7 
				11.3,16.7 			"/>
			<polygon class="st3" points="17.2,15.5 17.6,16.7 18.9,16.7 17.9,17.4 18.3,18.6 17.2,17.9 16.2,18.6 16.6,17.4 15.6,16.7 
				16.8,16.7 			"/>
			<polygon class="st3" points="22.7,15.5 23.1,16.7 24.4,16.7 23.4,17.4 23.7,18.6 22.7,17.9 21.7,18.6 22.1,17.4 21.1,16.7 
				22.3,16.7 			"/>
			<polygon class="st3" points="28.2,15.5 28.6,16.7 29.8,16.7 28.8,17.4 29.2,18.6 28.2,17.9 27.2,18.6 27.5,17.4 26.5,16.7 
				27.8,16.7 			"/>
			<polygon class="st3" points="33.4,15.5 33.8,16.7 35,16.7 34,17.4 34.4,18.6 33.4,17.9 32.4,18.6 32.8,17.4 31.7,16.7 33,16.7 
							"/>
		</g>
		<g>
			<polygon class="st3" points="6.1,20.6 6.5,21.8 7.8,21.8 6.8,22.6 7.2,23.8 6.1,23 5.1,23.8 5.5,22.6 4.5,21.8 5.8,21.8 			"/>
			<polygon class="st3" points="11.7,20.7 12.1,21.9 13.3,21.9 12.3,22.6 12.7,23.8 11.7,23.1 10.7,23.8 11,22.6 10,21.9 11.3,21.9 
							"/>
			<polygon class="st3" points="17.2,20.6 17.6,21.8 18.8,21.8 17.8,22.6 18.2,23.8 17.2,23 16.2,23.8 16.6,22.6 15.6,21.8 
				16.8,21.8 			"/>
			<polygon class="st3" points="22.7,20.6 23.1,21.8 24.3,21.8 23.3,22.6 23.7,23.8 22.7,23 21.7,23.8 22,22.6 21,21.8 22.3,21.8 
							"/>
			<polygon class="st3" points="28.1,20.6 28.5,21.8 29.8,21.8 28.8,22.6 29.1,23.8 28.1,23 27.1,23.8 27.5,22.6 26.5,21.8 
				27.7,21.8 			"/>
			<polygon class="st3" points="33.3,20.6 33.7,21.8 35,21.8 34,22.6 34.3,23.8 33.3,23 32.3,23.8 32.7,22.6 31.7,21.8 32.9,21.8 
							"/>
		</g>
		<g>
			<polygon class="st3" points="6.2,25.6 6.6,26.8 7.8,26.8 6.8,27.6 7.2,28.8 6.2,28 5.2,28.8 5.6,27.6 4.6,26.8 5.8,26.8 			"/>
			<polygon class="st3" points="11.7,25.7 12.1,26.9 13.4,26.9 12.4,27.6 12.8,28.8 11.7,28.1 10.7,28.8 11.1,27.6 10.1,26.9 
				11.3,26.9 			"/>
			<polygon class="st3" points="17.2,25.6 17.6,26.8 18.9,26.8 17.9,27.6 18.3,28.8 17.2,28 16.2,28.8 16.6,27.6 15.6,26.8 
				16.9,26.8 			"/>
			<polygon class="st3" points="22.7,25.6 23.1,26.8 24.4,26.8 23.4,27.6 23.7,28.8 22.7,28 21.7,28.8 22.1,27.6 21.1,26.8 
				22.3,26.8 			"/>
			<polygon class="st3" points="28.2,25.6 28.6,26.8 29.8,26.8 28.8,27.6 29.2,28.8 28.2,28 27.2,28.8 27.6,27.6 26.5,26.8 
				27.8,26.8 			"/>
			<polygon class="st3" points="33.4,25.6 33.8,26.8 35,26.8 34,27.6 34.4,28.8 33.4,28 32.4,28.8 32.8,27.6 31.8,26.8 33,26.8 			
				"/>
		</g>
	</g>
	<polygon class="st3" points="9.1,8.2 9.5,9.3 10.7,9.3 9.7,10.1 10.1,11.2 9.1,10.5 8.1,11.2 8.5,10.1 7.5,9.3 8.7,9.3 	"/>
	<polygon class="st3" points="14.5,8.2 14.9,9.4 16.1,9.4 15.1,10.1 15.5,11.3 14.5,10.6 13.5,11.3 13.9,10.1 12.9,9.4 14.1,9.4 	
		"/>
	<polygon class="st3" points="19.9,8.2 20.3,9.3 21.5,9.3 20.5,10.1 20.9,11.2 19.9,10.5 18.9,11.2 19.3,10.1 18.3,9.3 19.5,9.3 	
		"/>
	<polygon class="st3" points="25.3,8.2 25.7,9.3 26.9,9.3 25.9,10.1 26.3,11.2 25.3,10.5 24.3,11.2 24.7,10.1 23.7,9.3 24.9,9.3 	
		"/>
	<polygon class="st3" points="30.7,8.2 31,9.3 32.3,9.3 31.3,10.1 31.6,11.2 30.7,10.5 29.7,11.2 30,10.1 29,9.3 30.3,9.3 	"/>
	<polygon class="st3" points="9.1,12.8 9.4,14 10.7,14 9.7,14.7 10,15.9 9.1,15.2 8.1,15.9 8.4,14.7 7.4,14 8.7,14 	"/>
	<polygon class="st3" points="14.5,12.9 14.9,14 16.1,14 15.1,14.8 15.5,15.9 14.5,15.2 13.5,15.9 13.9,14.8 12.9,14 14.1,14 	"/>
	<polygon class="st3" points="19.9,12.8 20.3,14 21.5,14 20.5,14.7 20.9,15.9 19.9,15.2 18.9,15.9 19.3,14.7 18.3,14 19.5,14 	"/>
	<polygon class="st3" points="25.3,12.8 25.6,14 26.9,14 25.9,14.7 26.2,15.9 25.3,15.2 24.3,15.9 24.6,14.7 23.6,14 24.9,14 	"/>
	<polygon class="st3" points="30.6,12.8 31,14 32.2,14 31.2,14.7 31.6,15.9 30.6,15.2 29.6,15.9 30,14.7 29,14 30.2,14 	"/>
	<polygon class="st3" points="9.1,17.8 9.5,19 10.7,19 9.7,19.7 10.1,20.9 9.1,20.2 8.1,20.9 8.5,19.7 7.5,19 8.7,19 	"/>
	<polygon class="st3" points="14.5,17.9 14.9,19 16.1,19 15.1,19.8 15.5,20.9 14.5,20.2 13.5,20.9 13.9,19.8 12.9,19 14.1,19 	"/>
	<polygon class="st3" points="19.9,17.8 20.3,19 21.5,19 20.5,19.7 20.9,20.9 19.9,20.2 18.9,20.9 19.3,19.7 18.3,19 19.5,19 	"/>
	<polygon class="st3" points="25.3,17.8 25.7,19 26.9,19 25.9,19.7 26.3,20.9 25.3,20.2 24.3,20.9 24.7,19.7 23.7,19 24.9,19 	"/>
	<polygon class="st3" points="30.7,17.8 31,19 32.3,19 31.3,19.7 31.6,20.9 30.7,20.2 29.7,20.9 30,19.7 29,19 30.3,19 	"/>
	<polygon class="st3" points="9.1,22.9 9.4,24 10.7,24 9.7,24.8 10,25.9 9.1,25.2 8.1,25.9 8.4,24.8 7.4,24 8.7,24 	"/>
	<polygon class="st3" points="14.5,22.9 14.9,24.1 16.1,24.1 15.1,24.8 15.5,26 14.5,25.3 13.5,26 13.9,24.8 12.9,24.1 14.1,24.1 	
		"/>
	<polygon class="st3" points="19.9,22.9 20.3,24 21.5,24 20.5,24.8 20.9,25.9 19.9,25.2 18.9,25.9 19.3,24.8 18.3,24 19.5,24 	"/>
	<polygon class="st3" points="25.3,22.9 25.6,24 26.9,24 25.9,24.8 26.2,25.9 25.3,25.2 24.3,25.9 24.6,24.8 23.6,24 24.9,24 	"/>
	<polygon class="st3" points="30.6,22.9 31,24 32.2,24 31.2,24.8 31.6,25.9 30.6,25.2 29.6,25.9 30,24.8 29,24 30.2,24 	"/>
</g>
</svg>
