<?xml version="1.0" encoding="utf-8"?>
<!-- Generator: Adobe Illustrator 22.1.0, SVG Export Plug-In . SVG Version: 6.00 Build 0)  -->
<svg version="1.1" id="Layer_1" xmlns="http://www.w3.org/2000/svg" xmlns:xlink="http://www.w3.org/1999/xlink" x="0px" y="0px"
	 viewBox="0 0 85 56.7" style="enable-background:new 0 0 85 56.7;" xml:space="preserve">
<style type="text/css">
	.st0{fill:#0066B3;}
	.st1{fill:#50B848;}
	.st2{clip-path:url(#SVGID_2_);fill:#FFDD00;}
	.st3{fill:#FFFFFF;}
	.st4{clip-path:url(#SVGID_4_);fill:#FFDD00;}
	.st5{clip-path:url(#SVGID_6_);fill:#FFDD00;}
	.st6{clip-path:url(#SVGID_8_);fill:#FFDD00;}
	.st7{clip-path:url(#SVGID_10_);fill:#FFDD00;}
	.st8{clip-path:url(#SVGID_12_);fill:#FFDD00;}
	.st9{clip-path:url(#SVGID_14_);fill:#FFDD00;}
	.st10{clip-path:url(#SVGID_16_);fill:#FFDD00;}
	.st11{fill:#FFDD00;}
	.st12{clip-path:url(#SVGID_18_);fill:#FFDD00;}
	.st13{fill:#ED1C24;}
	.st14{fill:#0DB14B;}
	.st15{fill:#FFF200;}
</style>
<g>
	<g>
		<rect x="-440.5" y="-1071.5" class="st0" width="78.1" height="46.1"/>
		<g>
			<polygon class="st1" points="-440.5,-1025.4 -362.4,-1071.5 -362.4,-1025.4 			"/>
		</g>
		<g>
			<defs>
				<rect id="SVGID_1_" x="-440.5" y="-1071.5" width="78.1" height="46.1"/>
			</defs>
			<clipPath id="SVGID_2_">
				<use xlink:href="#SVGID_1_"  style="overflow:visible;"/>
			</clipPath>
			
				<rect x="-446.8" y="-1050.6" transform="matrix(0.8612 -0.5083 0.5083 0.8612 477.1753 -349.5775)" class="st2" width="90.7" height="4.3"/>
		</g>
	</g>
	<polygon class="st3" points="-431.5,-1067.6 -430.5,-1064.6 -427.3,-1064.6 -429.9,-1062.7 -428.9,-1059.7 -431.5,-1061.5 
		-434.1,-1059.7 -433.1,-1062.7 -435.7,-1064.6 -432.5,-1064.6 	"/>
	<polygon class="st3" points="-414.4,-1067.6 -413.4,-1064.6 -410.2,-1064.6 -412.8,-1062.7 -411.8,-1059.7 -414.4,-1061.5 
		-417,-1059.7 -416,-1062.7 -418.6,-1064.6 -415.4,-1064.6 	"/>
	<polygon class="st3" points="-414.4,-1054.3 -413.4,-1051.3 -410.2,-1051.2 -412.8,-1049.4 -411.8,-1046.3 -414.4,-1048.2 
		-417,-1046.3 -416,-1049.4 -418.6,-1051.2 -415.4,-1051.3 	"/>
	<polygon class="st3" points="-431.4,-1054.3 -430.4,-1051.3 -427.2,-1051.3 -429.8,-1049.4 -428.8,-1046.3 -431.4,-1048.2 
		-434,-1046.3 -433,-1049.4 -435.6,-1051.3 -432.4,-1051.3 	"/>
	<polygon class="st3" points="-423,-1061.6 -422,-1058.6 -418.8,-1058.6 -421.4,-1056.7 -420.4,-1053.7 -423,-1055.5 
		-425.6,-1053.7 -424.6,-1056.7 -427.2,-1058.6 -424,-1058.6 	"/>
</g>
<g>
	<g>
		<rect x="-440.5" y="-1071.5" class="st0" width="78.1" height="46.1"/>
		<g>
			<polygon class="st1" points="-440.5,-1025.4 -362.4,-1071.5 -362.4,-1025.4 			"/>
		</g>
		<g>
			<defs>
				<rect id="SVGID_3_" x="-440.5" y="-1071.5" width="78.1" height="46.1"/>
			</defs>
			<clipPath id="SVGID_4_">
				<use xlink:href="#SVGID_3_"  style="overflow:visible;"/>
			</clipPath>
			
				<rect x="-446.8" y="-1050.6" transform="matrix(0.8612 -0.5083 0.5083 0.8612 477.1753 -349.5775)" class="st4" width="90.7" height="4.3"/>
		</g>
	</g>
	<polygon class="st3" points="-431.5,-1067.6 -430.5,-1064.6 -427.3,-1064.6 -429.9,-1062.7 -428.9,-1059.7 -431.5,-1061.5 
		-434.1,-1059.7 -433.1,-1062.7 -435.7,-1064.6 -432.5,-1064.6 	"/>
	<polygon class="st3" points="-414.4,-1067.6 -413.4,-1064.6 -410.2,-1064.6 -412.8,-1062.7 -411.8,-1059.7 -414.4,-1061.5 
		-417,-1059.7 -416,-1062.7 -418.6,-1064.6 -415.4,-1064.6 	"/>
	<polygon class="st3" points="-414.4,-1054.3 -413.4,-1051.3 -410.2,-1051.2 -412.8,-1049.4 -411.8,-1046.3 -414.4,-1048.2 
		-417,-1046.3 -416,-1049.4 -418.6,-1051.2 -415.4,-1051.3 	"/>
	<polygon class="st3" points="-431.4,-1054.3 -430.4,-1051.3 -427.2,-1051.3 -429.8,-1049.4 -428.8,-1046.3 -431.4,-1048.2 
		-434,-1046.3 -433,-1049.4 -435.6,-1051.3 -432.4,-1051.3 	"/>
	<polygon class="st3" points="-423,-1061.6 -422,-1058.6 -418.8,-1058.6 -421.4,-1056.7 -420.4,-1053.7 -423,-1055.5 
		-425.6,-1053.7 -424.6,-1056.7 -427.2,-1058.6 -424,-1058.6 	"/>
</g>
<g>
	<g>
		<rect x="-440.5" y="-1071.5" class="st0" width="78.1" height="46.1"/>
		<g>
			<polygon class="st1" points="-440.5,-1025.4 -362.4,-1071.5 -362.4,-1025.4 			"/>
		</g>
		<g>
			<defs>
				<rect id="SVGID_5_" x="-440.5" y="-1071.5" width="78.1" height="46.1"/>
			</defs>
			<clipPath id="SVGID_6_">
				<use xlink:href="#SVGID_5_"  style="overflow:visible;"/>
			</clipPath>
			
				<rect x="-446.8" y="-1050.6" transform="matrix(0.8612 -0.5083 0.5083 0.8612 477.1753 -349.5775)" class="st5" width="90.7" height="4.3"/>
		</g>
	</g>
	<polygon class="st3" points="-431.5,-1067.6 -430.5,-1064.6 -427.3,-1064.6 -429.9,-1062.7 -428.9,-1059.7 -431.5,-1061.5 
		-434.1,-1059.7 -433.1,-1062.7 -435.7,-1064.6 -432.5,-1064.6 	"/>
	<polygon class="st3" points="-414.4,-1067.6 -413.4,-1064.6 -410.2,-1064.6 -412.8,-1062.7 -411.8,-1059.7 -414.4,-1061.5 
		-417,-1059.7 -416,-1062.7 -418.6,-1064.6 -415.4,-1064.6 	"/>
	<polygon class="st3" points="-414.4,-1054.3 -413.4,-1051.3 -410.2,-1051.2 -412.8,-1049.4 -411.8,-1046.3 -414.4,-1048.2 
		-417,-1046.3 -416,-1049.4 -418.6,-1051.2 -415.4,-1051.3 	"/>
	<polygon class="st3" points="-431.4,-1054.3 -430.4,-1051.3 -427.2,-1051.3 -429.8,-1049.4 -428.8,-1046.3 -431.4,-1048.2 
		-434,-1046.3 -433,-1049.4 -435.6,-1051.3 -432.4,-1051.3 	"/>
	<polygon class="st3" points="-423,-1061.6 -422,-1058.6 -418.8,-1058.6 -421.4,-1056.7 -420.4,-1053.7 -423,-1055.5 
		-425.6,-1053.7 -424.6,-1056.7 -427.2,-1058.6 -424,-1058.6 	"/>
</g>
<g>
	<g>
		<rect x="-440.5" y="-1071.5" class="st0" width="78.1" height="46.1"/>
		<g>
			<polygon class="st1" points="-440.5,-1025.4 -362.4,-1071.5 -362.4,-1025.4 			"/>
		</g>
		<g>
			<defs>
				<rect id="SVGID_7_" x="-440.5" y="-1071.5" width="78.1" height="46.1"/>
			</defs>
			<clipPath id="SVGID_8_">
				<use xlink:href="#SVGID_7_"  style="overflow:visible;"/>
			</clipPath>
			
				<rect x="-446.8" y="-1050.6" transform="matrix(0.8612 -0.5083 0.5083 0.8612 477.1753 -349.5775)" class="st6" width="90.7" height="4.3"/>
		</g>
	</g>
	<polygon class="st3" points="-431.5,-1067.6 -430.5,-1064.6 -427.3,-1064.6 -429.9,-1062.7 -428.9,-1059.7 -431.5,-1061.5 
		-434.1,-1059.7 -433.1,-1062.7 -435.7,-1064.6 -432.5,-1064.6 	"/>
	<polygon class="st3" points="-414.4,-1067.6 -413.4,-1064.6 -410.2,-1064.6 -412.8,-1062.7 -411.8,-1059.7 -414.4,-1061.5 
		-417,-1059.7 -416,-1062.7 -418.6,-1064.6 -415.4,-1064.6 	"/>
	<polygon class="st3" points="-414.4,-1054.3 -413.4,-1051.3 -410.2,-1051.2 -412.8,-1049.4 -411.8,-1046.3 -414.4,-1048.2 
		-417,-1046.3 -416,-1049.4 -418.6,-1051.2 -415.4,-1051.3 	"/>
	<polygon class="st3" points="-431.4,-1054.3 -430.4,-1051.3 -427.2,-1051.3 -429.8,-1049.4 -428.8,-1046.3 -431.4,-1048.2 
		-434,-1046.3 -433,-1049.4 -435.6,-1051.3 -432.4,-1051.3 	"/>
	<polygon class="st3" points="-423,-1061.6 -422,-1058.6 -418.8,-1058.6 -421.4,-1056.7 -420.4,-1053.7 -423,-1055.5 
		-425.6,-1053.7 -424.6,-1056.7 -427.2,-1058.6 -424,-1058.6 	"/>
</g>
<g>
	<g>
		<rect x="-447.5" y="-1079.5" class="st0" width="78.1" height="46.1"/>
		<g>
			<polygon class="st1" points="-447.5,-1033.4 -369.4,-1079.5 -369.4,-1033.4 			"/>
		</g>
		<g>
			<defs>
				<rect id="SVGID_9_" x="-447.5" y="-1079.5" width="78.1" height="46.1"/>
			</defs>
			<clipPath id="SVGID_10_">
				<use xlink:href="#SVGID_9_"  style="overflow:visible;"/>
			</clipPath>
			
				<rect x="-453.8" y="-1058.6" transform="matrix(0.8612 -0.5083 0.5083 0.8612 480.27 -354.2461)" class="st7" width="90.7" height="4.3"/>
		</g>
	</g>
	<polygon class="st3" points="-438.5,-1075.6 -437.5,-1072.6 -434.3,-1072.6 -436.9,-1070.7 -435.9,-1067.7 -438.5,-1069.5 
		-441.1,-1067.7 -440.1,-1070.7 -442.7,-1072.6 -439.5,-1072.6 	"/>
	<polygon class="st3" points="-421.4,-1075.6 -420.4,-1072.6 -417.2,-1072.6 -419.8,-1070.7 -418.8,-1067.7 -421.4,-1069.5 
		-424,-1067.7 -423,-1070.7 -425.6,-1072.6 -422.4,-1072.6 	"/>
	<polygon class="st3" points="-421.4,-1062.3 -420.4,-1059.3 -417.2,-1059.2 -419.8,-1057.4 -418.8,-1054.3 -421.4,-1056.2 
		-424,-1054.3 -423,-1057.4 -425.6,-1059.2 -422.4,-1059.3 	"/>
	<polygon class="st3" points="-438.4,-1062.3 -437.4,-1059.3 -434.2,-1059.3 -436.8,-1057.4 -435.8,-1054.3 -438.4,-1056.2 
		-441,-1054.3 -440,-1057.4 -442.6,-1059.3 -439.4,-1059.3 	"/>
	<polygon class="st3" points="-430,-1069.6 -429,-1066.6 -425.8,-1066.6 -428.4,-1064.7 -427.4,-1061.7 -430,-1063.5 
		-432.6,-1061.7 -431.6,-1064.7 -434.2,-1066.6 -431,-1066.6 	"/>
</g>
<g>
	<g>
		<rect x="-447.5" y="-1079.5" class="st0" width="78.1" height="46.1"/>
		<g>
			<polygon class="st1" points="-447.5,-1033.4 -369.4,-1079.5 -369.4,-1033.4 			"/>
		</g>
		<g>
			<defs>
				<rect id="SVGID_11_" x="-447.5" y="-1079.5" width="78.1" height="46.1"/>
			</defs>
			<clipPath id="SVGID_12_">
				<use xlink:href="#SVGID_11_"  style="overflow:visible;"/>
			</clipPath>
			
				<rect x="-453.8" y="-1058.6" transform="matrix(0.8612 -0.5083 0.5083 0.8612 480.27 -354.2461)" class="st8" width="90.7" height="4.3"/>
		</g>
	</g>
	<polygon class="st3" points="-438.5,-1075.6 -437.5,-1072.6 -434.3,-1072.6 -436.9,-1070.7 -435.9,-1067.7 -438.5,-1069.5 
		-441.1,-1067.7 -440.1,-1070.7 -442.7,-1072.6 -439.5,-1072.6 	"/>
	<polygon class="st3" points="-421.4,-1075.6 -420.4,-1072.6 -417.2,-1072.6 -419.8,-1070.7 -418.8,-1067.7 -421.4,-1069.5 
		-424,-1067.7 -423,-1070.7 -425.6,-1072.6 -422.4,-1072.6 	"/>
	<polygon class="st3" points="-421.4,-1062.3 -420.4,-1059.3 -417.2,-1059.2 -419.8,-1057.4 -418.8,-1054.3 -421.4,-1056.2 
		-424,-1054.3 -423,-1057.4 -425.6,-1059.2 -422.4,-1059.3 	"/>
	<polygon class="st3" points="-438.4,-1062.3 -437.4,-1059.3 -434.2,-1059.3 -436.8,-1057.4 -435.8,-1054.3 -438.4,-1056.2 
		-441,-1054.3 -440,-1057.4 -442.6,-1059.3 -439.4,-1059.3 	"/>
	<polygon class="st3" points="-430,-1069.6 -429,-1066.6 -425.8,-1066.6 -428.4,-1064.7 -427.4,-1061.7 -430,-1063.5 
		-432.6,-1061.7 -431.6,-1064.7 -434.2,-1066.6 -431,-1066.6 	"/>
</g>
<g>
	<g>
		<rect x="-447.5" y="-1079.5" class="st0" width="78.1" height="46.1"/>
		<g>
			<polygon class="st1" points="-447.5,-1033.4 -369.4,-1079.5 -369.4,-1033.4 			"/>
		</g>
		<g>
			<defs>
				<rect id="SVGID_13_" x="-447.5" y="-1079.5" width="78.1" height="46.1"/>
			</defs>
			<clipPath id="SVGID_14_">
				<use xlink:href="#SVGID_13_"  style="overflow:visible;"/>
			</clipPath>
			
				<rect x="-453.8" y="-1058.6" transform="matrix(0.8612 -0.5083 0.5083 0.8612 480.27 -354.2461)" class="st9" width="90.7" height="4.3"/>
		</g>
	</g>
	<polygon class="st3" points="-438.5,-1075.6 -437.5,-1072.6 -434.3,-1072.6 -436.9,-1070.7 -435.9,-1067.7 -438.5,-1069.5 
		-441.1,-1067.7 -440.1,-1070.7 -442.7,-1072.6 -439.5,-1072.6 	"/>
	<polygon class="st3" points="-421.4,-1075.6 -420.4,-1072.6 -417.2,-1072.6 -419.8,-1070.7 -418.8,-1067.7 -421.4,-1069.5 
		-424,-1067.7 -423,-1070.7 -425.6,-1072.6 -422.4,-1072.6 	"/>
	<polygon class="st3" points="-421.4,-1062.3 -420.4,-1059.3 -417.2,-1059.2 -419.8,-1057.4 -418.8,-1054.3 -421.4,-1056.2 
		-424,-1054.3 -423,-1057.4 -425.6,-1059.2 -422.4,-1059.3 	"/>
	<polygon class="st3" points="-438.4,-1062.3 -437.4,-1059.3 -434.2,-1059.3 -436.8,-1057.4 -435.8,-1054.3 -438.4,-1056.2 
		-441,-1054.3 -440,-1057.4 -442.6,-1059.3 -439.4,-1059.3 	"/>
	<polygon class="st3" points="-430,-1069.6 -429,-1066.6 -425.8,-1066.6 -428.4,-1064.7 -427.4,-1061.7 -430,-1063.5 
		-432.6,-1061.7 -431.6,-1064.7 -434.2,-1066.6 -431,-1066.6 	"/>
</g>
<g>
	<g>
		<rect x="-447.5" y="-1079.5" class="st0" width="78.1" height="46.1"/>
		<g>
			<polygon class="st1" points="-447.5,-1033.4 -369.4,-1079.5 -369.4,-1033.4 			"/>
		</g>
		<g>
			<defs>
				<rect id="SVGID_15_" x="-447.5" y="-1079.5" width="78.1" height="46.1"/>
			</defs>
			<clipPath id="SVGID_16_">
				<use xlink:href="#SVGID_15_"  style="overflow:visible;"/>
			</clipPath>
			
				<rect x="-453.8" y="-1058.6" transform="matrix(0.8612 -0.5083 0.5083 0.8612 480.27 -354.2461)" class="st10" width="90.7" height="4.3"/>
		</g>
	</g>
	<polygon class="st3" points="-438.5,-1075.6 -437.5,-1072.6 -434.3,-1072.6 -436.9,-1070.7 -435.9,-1067.7 -438.5,-1069.5 
		-441.1,-1067.7 -440.1,-1070.7 -442.7,-1072.6 -439.5,-1072.6 	"/>
	<polygon class="st3" points="-421.4,-1075.6 -420.4,-1072.6 -417.2,-1072.6 -419.8,-1070.7 -418.8,-1067.7 -421.4,-1069.5 
		-424,-1067.7 -423,-1070.7 -425.6,-1072.6 -422.4,-1072.6 	"/>
	<polygon class="st3" points="-421.4,-1062.3 -420.4,-1059.3 -417.2,-1059.2 -419.8,-1057.4 -418.8,-1054.3 -421.4,-1056.2 
		-424,-1054.3 -423,-1057.4 -425.6,-1059.2 -422.4,-1059.3 	"/>
	<polygon class="st3" points="-438.4,-1062.3 -437.4,-1059.3 -434.2,-1059.3 -436.8,-1057.4 -435.8,-1054.3 -438.4,-1056.2 
		-441,-1054.3 -440,-1057.4 -442.6,-1059.3 -439.4,-1059.3 	"/>
	<polygon class="st3" points="-430,-1069.6 -429,-1066.6 -425.8,-1066.6 -428.4,-1064.7 -427.4,-1061.7 -430,-1063.5 
		-432.6,-1061.7 -431.6,-1064.7 -434.2,-1066.6 -431,-1066.6 	"/>
</g>
<g>
	<rect x="3.5" y="5.2" width="78.1" height="46.3"/>
	<rect x="42.5" y="25.9" class="st11" width="39.1" height="4.6"/>
	<g>
		<defs>
			<rect id="SVGID_17_" x="3.5" y="5.2" width="78" height="46.3"/>
		</defs>
		<clipPath id="SVGID_18_">
			<use xlink:href="#SVGID_17_"  style="overflow:visible;"/>
		</clipPath>
		<polygon class="st12" points="2.8,51.6 0.7,47.6 37.6,28.2 0.9,9.2 3,5.1 47.5,28.2 		"/>
	</g>
	<g>
		<polygon class="st13" points="81.6,5.4 81.6,23.6 43.6,23.6 8.1,5.2 		"/>
	</g>
	<g>
		<polygon class="st14" points="81.6,51.4 81.6,33.1 43.6,33.1 8.1,51.4 		"/>
	</g>
	<g>
		<path class="st15" d="M15,34.6c0,0,3.4-0.6,4.4-1.8c0.8-0.9,2.4-2.8,1.7-5.6c-0.7-2.8-2.3-4.1-3.8-4.5c-1.4-0.4-3.3-0.6-4.9,0.5
			c-1.7,1.1-2.2,2.3-2.3,3.4c-0.1,1.1,0,3.3,1.3,4.2c1.3,0.9,1.9,1.4,3.4,1.3c1.5-0.1,2.4-0.3,3.1-1.2c0.7-0.9,1-1.1,1.1-1.9
			c0.1-0.8,0.1-0.9,0.1-1.1c0-0.2,0.6-0.5,0.6,0c0,0.5,0.2,0.6-0.1,1.6c-0.3,1.1-0.6,1.8-1.3,2.5c-0.7,0.7-2,1.5-3.6,1.6
			c-1.6,0.1-3.3-0.5-4.7-1.6c-1.2-1-2.1-2.8-2-4.6c0-1.7,0.6-3.7,2.1-5.1c1.6-1.5,3.2-1.7,4-1.8c0.9,0,3-0.2,4.5,0.6
			c1.5,0.8,2.8,1.8,3.3,2.8c0.6,1.1,1.2,3.1,1.1,4.4c0,1.2-0.3,2.7-0.8,3.7c-0.6,1-1.5,2.1-2.4,2.9c-0.9,0.8-3,1.7-5,2.1L15,34.6z"
			/>
	</g>
	<g>
		<path class="st15" d="M12.9,30.3c0,0,0.8-0.6,0.8-0.9c0-0.4,0-0.7,0.3-0.7c0,0-0.2-0.6,0.2-0.8c0,0,0-0.5,0.6-0.6
			c0,0,0.1-0.6,0.6-0.7c0,0,0-0.6,0.5-0.7c0,0,0.3-0.7,0.9-0.8c0,0,0.2-0.4,0.8-0.4c0,0,0.2-0.5,0.6-0.6c0,0,0.4,0,0.3,0.2
			c0,0,0.2,0.7-0.3,0.8c0,0,0.2,0.6-0.6,0.7c0,0,0.3,0.7-0.6,0.8c0,0,0.3,1-0.8,1.1c0,0,0.1,1.1-0.9,1.1c0,0,0.1,0.6-0.6,0.7
			c0,0-0.2,0.6-0.7,0.4c0,0-0.6,0.4-0.8,0.6L12.9,30.3z"/>
	</g>
	<g>
		<path class="st15" d="M17.8,30.2c0,0-0.6,0-0.7-0.2c0,0-0.5,0-0.5-0.5c0-0.6,0-0.2,0-0.2s-0.3,0.5-0.6-0.1c0,0,0.8-0.2,0.7-0.8
			c0,0,0.7,0,0.7,0.5c0,0,0.5,0.3,0.1,0.6c0,0,0.4,0.1,0.4,0.6L17.8,30.2z"/>
	</g>
	<g>
		<path class="st15" d="M14,27c0,0-0.8,0-0.8-0.7c0,0-0.7,0-0.6-0.6c0,0-0.5-0.2-0.3-0.8c0,0-0.3,0.1-0.3-0.4c0-0.5,0.5-0.2,0.6-0.1
			c0,0,0.5-0.3,0.6,0.3c0,0,0.5-0.1,0.6,0.4c0,0,0.6,0,0.6,0.6c0,0,0.7-0.2,0.6,0.5C15,26.2,14.1,26.4,14,27z"/>
	</g>
</g>
</svg>
