<?xml version="1.0" encoding="utf-8"?>
<!-- Generator: Adobe Illustrator 22.1.0, SVG Export Plug-In . SVG Version: 6.00 Build 0)  -->
<svg version="1.1" id="Layer_1" xmlns="http://www.w3.org/2000/svg" xmlns:xlink="http://www.w3.org/1999/xlink" x="0px" y="0px"
	 viewBox="0 0 85 56.7" style="enable-background:new 0 0 85 56.7;" xml:space="preserve">
<style type="text/css">
	.st0{fill:#ED1C24;}
	.st1{fill:#2E3192;}
	.st2{fill:#FFFFFF;}
</style>
<g>
	<rect x="3" y="5.6" class="st0" width="78.1" height="46.1"/>
	<g>
		<rect x="3" y="5.6" class="st1" width="39.1" height="23"/>
	</g>
	<polygon class="st2" points="22.5,7.6 23.3,9.8 25.7,9.9 23.8,11.3 24.5,13.6 22.5,12.2 20.6,13.6 21.2,11.3 19.4,9.9 21.7,9.8 	
		"/>
	<polygon class="st2" points="16.7,14.6 17.6,16.8 19.9,16.9 18,18.3 18.7,20.6 16.7,19.3 14.8,20.6 15.4,18.3 13.6,16.9 15.9,16.8 
			"/>
	<polygon class="st2" points="31.3,11.7 32.1,13.9 34.4,14 32.6,15.4 33.2,17.7 31.3,16.4 29.3,17.7 30,15.4 28.1,14 30.5,13.9 	"/>
	<polygon class="st2" points="28.5,19 29,20.3 30.4,20.4 29.3,21.2 29.6,22.6 28.5,21.8 27.3,22.6 27.7,21.2 26.6,20.4 28,20.3 	"/>
	<polygon class="st2" points="22.8,21.2 23.6,23.4 26,23.5 24.1,24.9 24.8,27.2 22.8,25.9 20.9,27.2 21.5,24.9 19.7,23.5 22,23.4 	
		"/>
</g>
</svg>
